<?xml version="1.0" encoding="UTF-8" standalone="no"?>
<svg
   xmlns:dc="http://purl.org/dc/elements/1.1/"
   xmlns:cc="http://creativecommons.org/ns#"
   xmlns:rdf="http://www.w3.org/1999/02/22-rdf-syntax-ns#"
   xmlns:svg="http://www.w3.org/2000/svg"
   xmlns="http://www.w3.org/2000/svg"
   xmlns:sodipodi="http://sodipodi.sourceforge.net/DTD/sodipodi-0.dtd"
   xmlns:inkscape="http://www.inkscape.org/namespaces/inkscape"
   width="297mm"
   height="210mm"
   viewBox="0 0 2970 2100"
   version="1.2"
   id="svg228"
   sodipodi:docname="socket_connector_80mm.svg"
   inkscape:version="0.92.2 (5c3e80d, 2017-08-06)">
  <metadata
     id="metadata232">
    <rdf:RDF>
      <cc:Work
         rdf:about="">
        <dc:format>image/svg+xml</dc:format>
        <dc:type
           rdf:resource="http://purl.org/dc/dcmitype/StillImage" />
      </cc:Work>
    </rdf:RDF>
  </metadata>
  <sodipodi:namedview
     pagecolor="#ffffff"
     bordercolor="#666666"
     borderopacity="1"
     objecttolerance="10"
     gridtolerance="10"
     guidetolerance="10"
     inkscape:pageopacity="0"
     inkscape:pageshadow="2"
     inkscape:window-width="1920"
     inkscape:window-height="1015"
     id="namedview230"
     showgrid="false"
     inkscape:zoom="1.0230556"
     inkscape:cx="561.25984"
     inkscape:cy="396.85039"
     inkscape:window-x="0"
     inkscape:window-y="0"
     inkscape:window-maximized="1"
     inkscape:current-layer="svg228" />
  <title
     id="title2">FreeCAD SVG Export</title>
  <desc
     id="desc4">Drawing page: Page011 exported from FreeCAD document: mounting_sun</desc>
  <defs
     id="defs6" />
  <path
     d="m 2103.844,1107.161 c 24.689,7.8773 51.646,-0.987 66.841,-21.9798 15.196,-20.9929 15.196,-49.3695 0,-70.3624 -15.195,-20.9928 -42.152,-29.8571 -66.841,-21.9798 -3.364,1.0732 -7.044,0.293 -9.683,-2.0528 -2.639,-2.3457 -3.845,-5.9094 -3.174,-9.3758 4.738,-24.458 -6.131,-49.2994 -27.31,-62.4174 -21.179,-13.119 -48.261,-11.785 -68.049,3.351 -19.787,15.136 -28.163,40.9247 -21.045,64.7989 0.902,3.0264 0.322,6.3012 -1.565,8.8332 -1.887,2.5321 -4.86,4.0239 -8.018,4.0239 h -80 -800 -80 c -3.158,0 -6.131,-1.4918 -8.018,-4.0239 -1.887,-2.532 -2.467,-5.8068 -1.565,-8.8332 7.118,-23.8742 -1.258,-49.6629 -21.045,-64.7989 -19.788,-15.136 -46.87,-16.47 -68.049,-3.351 -21.179,13.118 -32.048,37.9594 -27.31,62.4174 0.671,3.4664 -0.535,7.0301 -3.174,9.3758 -2.639,2.3458 -6.319,3.126 -9.683,2.0528 -24.689,-7.8773 -51.646,0.987 -66.841,21.9798 -15.196,20.9929 -15.196,49.3695 0,70.3624 15.195,20.9928 42.152,29.8571 66.841,21.9798 3.364,-1.0732 7.044,-0.293 9.683,2.0528 2.639,2.3457 3.845,5.9094 3.174,9.3758 -4.738,24.458 6.131,49.2994 27.31,62.4174 21.179,13.119 48.261,11.785 68.049,-3.351 19.787,-15.136 28.163,-40.9247 21.045,-64.7989 -0.902,-3.0264 -0.322,-6.3012 1.565,-8.8332 1.887,-2.5321 4.86,-4.0239 8.018,-4.0239 h 80 800 80 c 3.158,0 6.131,1.4918 8.018,4.0239 1.887,2.532 2.467,5.8068 1.565,8.8332 -7.118,23.8742 1.258,49.6629 21.045,64.7989 19.788,15.136 46.87,16.47 68.049,3.351 21.179,-13.118 32.048,-37.9594 27.31,-62.4174 -0.671,-3.4664 0.535,-7.0301 3.174,-9.3758 2.639,-2.3458 6.319,-3.126 9.683,-2.0528"
     id="path50"
     inkscape:connector-curvature="0"
     style="font-style:normal;font-weight:400;font-size:medium;font-family:'Sans Serif';vector-effect:non-scaling-stroke;fill:#ffffff;fill-opacity:1;fill-rule:evenodd;stroke:#000000;stroke-width:1;stroke-linecap:square;stroke-linejoin:bevel;stroke-opacity:1" />
</svg>
