<?xml version="1.0" encoding="UTF-8" standalone="no"?>
<svg width="297mm" height="210mm"
 viewBox="0 0 2970 2100"
 xmlns="http://www.w3.org/2000/svg" xmlns:xlink="http://www.w3.org/1999/xlink"  version="1.2" baseProfile="tiny">
<title>FreeCAD SVG Export</title>
<desc>Drawing page: Page002 exported from FreeCAD document: mounting_sun</desc>
<defs>
</defs>
<g fill="none" stroke="black" stroke-width="1" fill-rule="evenodd" stroke-linecap="square" stroke-linejoin="bevel" >

<g fill="none" stroke="#000000" stroke-opacity="1" stroke-width="1" stroke-linecap="square" stroke-linejoin="bevel" transform="matrix(1,0,0,1,0,0)"
font-family="Sans Serif" font-size="31.75" font-weight="400" font-style="normal" 
>
</g>

<g fill="none" stroke="#000000" stroke-opacity="1" stroke-width="1" stroke-linecap="square" stroke-linejoin="bevel" transform="matrix(1,0,0,1,0,2100)"
font-family="Sans Serif" font-size="31.75" font-weight="400" font-style="normal" 
>
</g>

<g fill="none" stroke="#000000" stroke-opacity="1" stroke-width="1" stroke-linecap="square" stroke-linejoin="bevel" transform="matrix(1,0,0,1,0,2100)"
font-family="Sans Serif" font-size="31.75" font-weight="400" font-style="normal" 
>
</g>

<g fill="none" stroke="#000000" stroke-opacity="1" stroke-width="1" stroke-linecap="square" stroke-linejoin="bevel" transform="matrix(2.82319,0,0,2.82258,0,0)"
font-family="Sans Serif" font-size="31.75" font-weight="400" font-style="normal" 
>
</g>

<g fill="none" stroke="#000000" stroke-opacity="1" stroke-width="1" stroke-linecap="square" stroke-linejoin="bevel" transform="matrix(2.82319,0,0,2.82258,0,0)"
font-family="Sans Serif" font-size="31.75" font-weight="400" font-style="normal" 
>
</g>

<g fill="none" stroke="#000000" stroke-opacity="1" stroke-width="1" stroke-linecap="square" stroke-linejoin="bevel" transform="matrix(2.82319,0,0,2.82258,0,0)"
font-family="Sans Serif" font-size="31.75" font-weight="400" font-style="normal" 
>
</g>

<g fill="none" stroke="#000000" stroke-opacity="1" stroke-width="1" stroke-linecap="square" stroke-linejoin="bevel" transform="matrix(2.82319,0,0,2.82258,0,0)"
font-family="Sans Serif" font-size="31.75" font-weight="400" font-style="normal" 
>
</g>

<g fill="none" stroke="#000000" stroke-opacity="1" stroke-width="1" stroke-linecap="square" stroke-linejoin="bevel" transform="matrix(1,0,0,1,0,0)"
font-family="Sans Serif" font-size="31.75" font-weight="400" font-style="normal" 
>
</g>

<g fill="none" stroke="#000000" stroke-opacity="1" stroke-width="1" stroke-linecap="square" stroke-linejoin="bevel" transform="matrix(2.82319,0,0,2.82258,0,0)"
font-family="Sans Serif" font-size="31.75" font-weight="400" font-style="normal" 
>
</g>

<g fill="none" stroke="#000000" stroke-opacity="1" stroke-width="1" stroke-linecap="square" stroke-linejoin="bevel" transform="matrix(1,0,0,1,1485,1050)"
font-family="Sans Serif" font-size="31.75" font-weight="400" font-style="normal" 
>
</g>

<g fill="none" stroke="#000000" stroke-opacity="1" stroke-width="1" stroke-linecap="square" stroke-linejoin="bevel" transform="matrix(1,0,0,1,1485,1050)"
font-family="Sans Serif" font-size="31.75" font-weight="400" font-style="normal" 
>
</g>

<g fill="none" stroke="#000000" stroke-opacity="1" stroke-width="1" stroke-linecap="square" stroke-linejoin="bevel" transform="matrix(1,0,0,1,1481,1309.36)"
font-family="Sans Serif" font-size="31.75" font-weight="400" font-style="normal" 
>
</g>

<g fill="none" stroke="#000000" stroke-opacity="1" stroke-width="1" stroke-linecap="square" stroke-linejoin="bevel" transform="matrix(0.353,0,0,0.353,1473,1366.72)"
font-family="Sans Serif" font-size="31.75" font-weight="400" font-style="normal" 
>
</g>

<g fill="none" stroke="#000000" stroke-opacity="1" stroke-width="1" stroke-linecap="square" stroke-linejoin="bevel" transform="matrix(0.353,0,0,0.353,1473,1366.72)"
font-family="Sans Serif" font-size="31.75" font-weight="400" font-style="normal" 
>
</g>

<g fill="none" stroke="#000000" stroke-opacity="1" stroke-width="1" stroke-linecap="square" stroke-linejoin="bevel" transform="matrix(0.353,0,0,0.353,1473,1366.72)"
font-family="Sans Serif" font-size="31.75" font-weight="400" font-style="normal" 
>
</g>

<g fill="none" stroke="#000000" stroke-opacity="1" stroke-width="1" stroke-linecap="square" stroke-linejoin="bevel" transform="matrix(0.353,0,0,0.353,1473,1366.72)"
font-family="Sans Serif" font-size="31.75" font-weight="400" font-style="normal" 
>
</g>

<g fill="none" stroke="#000000" stroke-opacity="1" stroke-width="1" stroke-linecap="square" stroke-linejoin="bevel" transform="matrix(1,0,0,1,0,0)"
font-family="Sans Serif" font-size="31.75" font-weight="400" font-style="normal" 
>
</g>

<g fill="none" stroke="#000000" stroke-opacity="1" stroke-width="1" stroke-linecap="square" stroke-linejoin="bevel" transform="matrix(0.353,0,0,0.353,1473,1366.72)"
font-family="Sans Serif" font-size="31.75" font-weight="400" font-style="normal" 
>
</g>

<g fill="none" stroke="#000000" stroke-opacity="1" stroke-width="1" stroke-linecap="square" stroke-linejoin="bevel" transform="matrix(0.353,0,0,0.353,1473,1366.72)"
font-family="Sans Serif" font-size="31.75" font-weight="400" font-style="normal" 
>
</g>

<g fill="none" stroke="#000000" stroke-opacity="1" stroke-width="1" stroke-linecap="square" stroke-linejoin="bevel" transform="matrix(1,0,0,1,1481,1309.36)"
font-family="Sans Serif" font-size="31.75" font-weight="400" font-style="normal" 
>
</g>

<g fill="none" stroke="#000000" stroke-opacity="1" stroke-width="1" stroke-linecap="square" stroke-linejoin="bevel" transform="matrix(1,0,0,1,1485,1050)"
font-family="Sans Serif" font-size="31.75" font-weight="400" font-style="normal" 
>
</g>

<g fill="#ffffff" fill-opacity="1" stroke="none" transform="matrix(1,0,0,1,1485,1050)"
font-family="Sans Serif" font-size="31.75" font-weight="400" font-style="normal" 
>
<path vector-effect="non-scaling-stroke" fill-rule="evenodd" d="M102.721,-103.713 C146.678,-88.178 176.067,-46.6208 176.067,1.13492e-13 C176.067,46.6208 146.678,88.178 102.721,103.713 C83.0938,110.65 69.8935,129.113 69.6788,149.929 L69.6745,149.929 C69.7076,155.003 65.9356,159.297 60.9,159.919 C46.9772,161.638 32.962,162.5 18.9335,162.5 C9.26848,162.5 1.43347,170.335 1.43347,180 C1.43347,189.665 9.26848,197.5 18.9335,197.5 C22.2585,197.5 25.5833,197.456 28.9072,197.368 C33.3632,197.25 37.3592,200.096 38.7048,204.346 C40.0505,208.596 38.4209,213.223 34.7093,215.691 C10.417,231.848 -20.8395,233.172 -46.4113,219.128 L-46.4113,219.128 C-126.374,175.213 -176.067,91.228 -176.067,-1.43507e-13 C-176.067,-91.228 -126.374,-175.213 -46.4113,-219.128 L-46.4113,-219.128 C-22.1336,-232.461 7.37918,-231.988 31.217,-217.884 C55.0548,-203.779 69.6762,-178.139 69.6761,-150.441 L69.6761,-150.441 C69.6761,-129.436 82.9171,-110.712 102.721,-103.713 "/>
</g>

<g fill="none" stroke="#000000" stroke-opacity="1" stroke-width="1" stroke-linecap="square" stroke-linejoin="bevel" transform="matrix(1,0,0,1,1485,1050)"
font-family="Sans Serif" font-size="31.75" font-weight="400" font-style="normal" 
>
</g>

<g fill="none" stroke="#000000" stroke-opacity="1" stroke-width="1" stroke-linecap="square" stroke-linejoin="bevel" transform="matrix(1,0,0,1,1485,1050)"
font-family="Sans Serif" font-size="31.75" font-weight="400" font-style="normal" 
>
</g>

<g fill="none" stroke="#000000" stroke-opacity="1" stroke-width="1" stroke-linecap="square" stroke-linejoin="bevel" transform="matrix(1,0,0,1,1485,1050)"
font-family="Sans Serif" font-size="31.75" font-weight="400" font-style="normal" 
>
</g>

<g fill="none" stroke="#000000" stroke-opacity="1" stroke-width="1" stroke-linecap="square" stroke-linejoin="bevel" transform="matrix(1,0,0,1,0,0)"
font-family="Sans Serif" font-size="31.75" font-weight="400" font-style="normal" 
>
</g>

<g fill="none" stroke="#000000" stroke-opacity="1" stroke-width="1" stroke-linecap="square" stroke-linejoin="bevel" transform="matrix(1,0,0,1,1485,1050)"
font-family="Sans Serif" font-size="31.75" font-weight="400" font-style="normal" 
>
</g>

<g fill="none" stroke="#000000" stroke-opacity="1" stroke-width="1" stroke-linecap="square" stroke-linejoin="bevel" transform="matrix(1,0,0,1,1485,1050)"
font-family="Sans Serif" font-size="31.75" font-weight="400" font-style="normal" 
>
</g>

<g fill="#ffffff" fill-opacity="1" stroke="none" transform="matrix(1,0,0,1,1485,1050)"
font-family="Sans Serif" font-size="31.75" font-weight="400" font-style="normal" 
>
<path vector-effect="non-scaling-stroke" fill-rule="evenodd" d="M35.4335,-180 C35.4335,-170.887 28.0462,-163.5 18.9335,-163.5 C9.82077,-163.5 2.43347,-170.887 2.43347,-180 C2.43347,-189.113 9.82077,-196.5 18.9335,-196.5 C28.0462,-196.5 35.4335,-189.113 35.4335,-180 "/>
</g>

<g fill="none" stroke="#000000" stroke-opacity="1" stroke-width="1" stroke-linecap="square" stroke-linejoin="bevel" transform="matrix(1,0,0,1,1485,1050)"
font-family="Sans Serif" font-size="31.75" font-weight="400" font-style="normal" 
>
</g>

<g fill="none" stroke="#000000" stroke-opacity="1" stroke-width="1" stroke-linecap="square" stroke-linejoin="bevel" transform="matrix(1,0,0,1,1485,1050)"
font-family="Sans Serif" font-size="31.75" font-weight="400" font-style="normal" 
>
</g>

<g fill="none" stroke="#000000" stroke-opacity="1" stroke-width="1" stroke-linecap="square" stroke-linejoin="bevel" transform="matrix(1,0,0,1,1485,1050)"
font-family="Sans Serif" font-size="31.75" font-weight="400" font-style="normal" 
>
</g>

<g fill="none" stroke="#000000" stroke-opacity="1" stroke-width="1" stroke-linecap="square" stroke-linejoin="bevel" transform="matrix(1,0,0,1,0,0)"
font-family="Sans Serif" font-size="31.75" font-weight="400" font-style="normal" 
>
</g>

<g fill="none" stroke="#000000" stroke-opacity="1" stroke-width="1" stroke-linecap="square" stroke-linejoin="bevel" transform="matrix(1,0,0,1,1485,1050)"
font-family="Sans Serif" font-size="31.75" font-weight="400" font-style="normal" 
>
</g>

<g fill="none" stroke="#000000" stroke-opacity="1" stroke-width="1" stroke-linecap="square" stroke-linejoin="bevel" transform="matrix(1,0,0,1,1485,1050)"
font-family="Sans Serif" font-size="31.75" font-weight="400" font-style="normal" 
>
</g>

<g fill="none" stroke="#000000" stroke-opacity="1" stroke-width="7" stroke-linecap="round" stroke-linejoin="bevel" transform="matrix(1,0,0,1,1485,1050)"
font-family="Sans Serif" font-size="31.75" font-weight="400" font-style="normal" 
>
<path vector-effect="none" fill-rule="evenodd" d="M102.721,-103.713 C146.678,-88.178 176.067,-46.6208 176.067,1.13492e-13 C176.067,46.6208 146.678,88.178 102.721,103.713 "/>
</g>

<g fill="none" stroke="#000000" stroke-opacity="1" stroke-width="1" stroke-linecap="square" stroke-linejoin="bevel" transform="matrix(1,0,0,1,1485,1050)"
font-family="Sans Serif" font-size="31.75" font-weight="400" font-style="normal" 
>
</g>

<g fill="none" stroke="#000000" stroke-opacity="1" stroke-width="1" stroke-linecap="square" stroke-linejoin="bevel" transform="matrix(1,0,0,1,1485,1050)"
font-family="Sans Serif" font-size="31.75" font-weight="400" font-style="normal" 
>
</g>

<g fill="none" stroke="#000000" stroke-opacity="1" stroke-width="7" stroke-linecap="round" stroke-linejoin="bevel" transform="matrix(1,0,0,1,1485,1050)"
font-family="Sans Serif" font-size="31.75" font-weight="400" font-style="normal" 
>
<path vector-effect="none" fill-rule="evenodd" d="M102.721,-103.713 C82.9171,-110.712 69.6761,-129.436 69.6761,-150.441 "/>
</g>

<g fill="none" stroke="#000000" stroke-opacity="1" stroke-width="1" stroke-linecap="square" stroke-linejoin="bevel" transform="matrix(1,0,0,1,1485,1050)"
font-family="Sans Serif" font-size="31.75" font-weight="400" font-style="normal" 
>
</g>

<g fill="none" stroke="#000000" stroke-opacity="1" stroke-width="1" stroke-linecap="square" stroke-linejoin="bevel" transform="matrix(1,0,0,1,1485,1050)"
font-family="Sans Serif" font-size="31.75" font-weight="400" font-style="normal" 
>
</g>

<g fill="none" stroke="#000000" stroke-opacity="1" stroke-width="7" stroke-linecap="round" stroke-linejoin="bevel" transform="matrix(1,0,0,1,1485,1050)"
font-family="Sans Serif" font-size="31.75" font-weight="400" font-style="normal" 
>
<path vector-effect="none" fill-rule="evenodd" d="M69.6788,149.929 C69.8935,129.113 83.0938,110.65 102.721,103.713 "/>
</g>

<g fill="none" stroke="#000000" stroke-opacity="1" stroke-width="1" stroke-linecap="square" stroke-linejoin="bevel" transform="matrix(1,0,0,1,1485,1050)"
font-family="Sans Serif" font-size="31.75" font-weight="400" font-style="normal" 
>
</g>

<g fill="none" stroke="#000000" stroke-opacity="1" stroke-width="1" stroke-linecap="square" stroke-linejoin="bevel" transform="matrix(1,0,0,1,1485,1050)"
font-family="Sans Serif" font-size="31.75" font-weight="400" font-style="normal" 
>
</g>

<g fill="none" stroke="#000000" stroke-opacity="1" stroke-width="7" stroke-linecap="round" stroke-linejoin="bevel" transform="matrix(1,0,0,1,1485,1050)"
font-family="Sans Serif" font-size="31.75" font-weight="400" font-style="normal" 
>
<path vector-effect="none" fill-rule="evenodd" d="M-46.4113,-219.128 C-22.1336,-232.461 7.37918,-231.988 31.217,-217.884 C55.0548,-203.779 69.6762,-178.139 69.6761,-150.441 "/>
</g>

<g fill="none" stroke="#000000" stroke-opacity="1" stroke-width="1" stroke-linecap="square" stroke-linejoin="bevel" transform="matrix(1,0,0,1,1485,1050)"
font-family="Sans Serif" font-size="31.75" font-weight="400" font-style="normal" 
>
</g>

<g fill="none" stroke="#000000" stroke-opacity="1" stroke-width="1" stroke-linecap="square" stroke-linejoin="bevel" transform="matrix(1,0,0,1,1485,1050)"
font-family="Sans Serif" font-size="31.75" font-weight="400" font-style="normal" 
>
</g>

<g fill="none" stroke="#000000" stroke-opacity="1" stroke-width="7" stroke-linecap="round" stroke-linejoin="bevel" transform="matrix(1,0,0,1,1485,1050)"
font-family="Sans Serif" font-size="31.75" font-weight="400" font-style="normal" 
>
<path vector-effect="none" fill-rule="evenodd" d="M-46.4113,219.128 C-126.374,175.213 -176.067,91.228 -176.067,-1.43507e-13 C-176.067,-91.228 -126.374,-175.213 -46.4113,-219.128 "/>
</g>

<g fill="none" stroke="#000000" stroke-opacity="1" stroke-width="1" stroke-linecap="square" stroke-linejoin="bevel" transform="matrix(1,0,0,1,1485,1050)"
font-family="Sans Serif" font-size="31.75" font-weight="400" font-style="normal" 
>
</g>

<g fill="none" stroke="#000000" stroke-opacity="1" stroke-width="1" stroke-linecap="square" stroke-linejoin="bevel" transform="matrix(1,0,0,1,1485,1050)"
font-family="Sans Serif" font-size="31.75" font-weight="400" font-style="normal" 
>
</g>

<g fill="none" stroke="#000000" stroke-opacity="1" stroke-width="7" stroke-linecap="round" stroke-linejoin="bevel" transform="matrix(1,0,0,1,1485,1050)"
font-family="Sans Serif" font-size="31.75" font-weight="400" font-style="normal" 
>
<path vector-effect="none" fill-rule="evenodd" d="M34.7093,215.691 C10.417,231.848 -20.8395,233.172 -46.4113,219.128 "/>
</g>

<g fill="none" stroke="#000000" stroke-opacity="1" stroke-width="1" stroke-linecap="square" stroke-linejoin="bevel" transform="matrix(1,0,0,1,1485,1050)"
font-family="Sans Serif" font-size="31.75" font-weight="400" font-style="normal" 
>
</g>

<g fill="none" stroke="#000000" stroke-opacity="1" stroke-width="1" stroke-linecap="square" stroke-linejoin="bevel" transform="matrix(1,0,0,1,1485,1050)"
font-family="Sans Serif" font-size="31.75" font-weight="400" font-style="normal" 
>
</g>

<g fill="none" stroke="#000000" stroke-opacity="1" stroke-width="7" stroke-linecap="round" stroke-linejoin="bevel" transform="matrix(1,0,0,1,1485,1050)"
font-family="Sans Serif" font-size="31.75" font-weight="400" font-style="normal" 
>
<path vector-effect="none" fill-rule="evenodd" d="M28.9072,197.368 C33.3632,197.25 37.3592,200.096 38.7048,204.346 C40.0505,208.596 38.4209,213.223 34.7093,215.691 "/>
</g>

<g fill="none" stroke="#000000" stroke-opacity="1" stroke-width="1" stroke-linecap="square" stroke-linejoin="bevel" transform="matrix(1,0,0,1,1485,1050)"
font-family="Sans Serif" font-size="31.75" font-weight="400" font-style="normal" 
>
</g>

<g fill="none" stroke="#000000" stroke-opacity="1" stroke-width="1" stroke-linecap="square" stroke-linejoin="bevel" transform="matrix(1,0,0,1,1485,1050)"
font-family="Sans Serif" font-size="31.75" font-weight="400" font-style="normal" 
>
</g>

<g fill="none" stroke="#000000" stroke-opacity="1" stroke-width="7" stroke-linecap="round" stroke-linejoin="bevel" transform="matrix(1,0,0,1,1485,1050)"
font-family="Sans Serif" font-size="31.75" font-weight="400" font-style="normal" 
>
<path vector-effect="none" fill-rule="evenodd" d="M28.9072,197.368 C25.5833,197.456 22.2585,197.5 18.9335,197.5 "/>
</g>

<g fill="none" stroke="#000000" stroke-opacity="1" stroke-width="1" stroke-linecap="square" stroke-linejoin="bevel" transform="matrix(1,0,0,1,1485,1050)"
font-family="Sans Serif" font-size="31.75" font-weight="400" font-style="normal" 
>
</g>

<g fill="none" stroke="#000000" stroke-opacity="1" stroke-width="1" stroke-linecap="square" stroke-linejoin="bevel" transform="matrix(1,0,0,1,1485,1050)"
font-family="Sans Serif" font-size="31.75" font-weight="400" font-style="normal" 
>
</g>

<g fill="none" stroke="#000000" stroke-opacity="1" stroke-width="7" stroke-linecap="round" stroke-linejoin="bevel" transform="matrix(1,0,0,1,1485,1050)"
font-family="Sans Serif" font-size="31.75" font-weight="400" font-style="normal" 
>
<path vector-effect="none" fill-rule="evenodd" d="M18.9335,197.5 C9.26848,197.5 1.43347,189.665 1.43347,180 C1.43347,170.335 9.26848,162.5 18.9335,162.5 "/>
</g>

<g fill="none" stroke="#000000" stroke-opacity="1" stroke-width="1" stroke-linecap="square" stroke-linejoin="bevel" transform="matrix(1,0,0,1,1485,1050)"
font-family="Sans Serif" font-size="31.75" font-weight="400" font-style="normal" 
>
</g>

<g fill="none" stroke="#000000" stroke-opacity="1" stroke-width="1" stroke-linecap="square" stroke-linejoin="bevel" transform="matrix(1,0,0,1,1485,1050)"
font-family="Sans Serif" font-size="31.75" font-weight="400" font-style="normal" 
>
</g>

<g fill="none" stroke="#000000" stroke-opacity="1" stroke-width="7" stroke-linecap="round" stroke-linejoin="bevel" transform="matrix(1,0,0,1,1485,1050)"
font-family="Sans Serif" font-size="31.75" font-weight="400" font-style="normal" 
>
<path vector-effect="none" fill-rule="evenodd" d="M60.9,159.919 C46.9772,161.638 32.962,162.5 18.9335,162.5 "/>
</g>

<g fill="none" stroke="#000000" stroke-opacity="1" stroke-width="1" stroke-linecap="square" stroke-linejoin="bevel" transform="matrix(1,0,0,1,1485,1050)"
font-family="Sans Serif" font-size="31.75" font-weight="400" font-style="normal" 
>
</g>

<g fill="none" stroke="#000000" stroke-opacity="1" stroke-width="1" stroke-linecap="square" stroke-linejoin="bevel" transform="matrix(1,0,0,1,1485,1050)"
font-family="Sans Serif" font-size="31.75" font-weight="400" font-style="normal" 
>
</g>

<g fill="none" stroke="#000000" stroke-opacity="1" stroke-width="7" stroke-linecap="round" stroke-linejoin="bevel" transform="matrix(1,0,0,1,1485,1050)"
font-family="Sans Serif" font-size="31.75" font-weight="400" font-style="normal" 
>
<path vector-effect="none" fill-rule="evenodd" d="M69.6745,149.929 C69.7076,155.003 65.9356,159.297 60.9,159.919 "/>
</g>

<g fill="none" stroke="#000000" stroke-opacity="1" stroke-width="1" stroke-linecap="square" stroke-linejoin="bevel" transform="matrix(1,0,0,1,1485,1050)"
font-family="Sans Serif" font-size="31.75" font-weight="400" font-style="normal" 
>
</g>

<g fill="none" stroke="#000000" stroke-opacity="1" stroke-width="1" stroke-linecap="square" stroke-linejoin="bevel" transform="matrix(1,0,0,1,1485,1050)"
font-family="Sans Serif" font-size="31.75" font-weight="400" font-style="normal" 
>
</g>

<g fill="none" stroke="#000000" stroke-opacity="1" stroke-width="7" stroke-linecap="round" stroke-linejoin="bevel" transform="matrix(1,0,0,1,1485,1050)"
font-family="Sans Serif" font-size="31.75" font-weight="400" font-style="normal" 
>
<path vector-effect="none" fill-rule="evenodd" d="M69.6788,149.929 L69.6745,149.929"/>
</g>

<g fill="none" stroke="#000000" stroke-opacity="1" stroke-width="1" stroke-linecap="square" stroke-linejoin="bevel" transform="matrix(1,0,0,1,1485,1050)"
font-family="Sans Serif" font-size="31.75" font-weight="400" font-style="normal" 
>
</g>

<g fill="none" stroke="#000000" stroke-opacity="1" stroke-width="1" stroke-linecap="square" stroke-linejoin="bevel" transform="matrix(1,0,0,1,1485,1050)"
font-family="Sans Serif" font-size="31.75" font-weight="400" font-style="normal" 
>
</g>

<g fill="none" stroke="#000000" stroke-opacity="1" stroke-width="7" stroke-linecap="round" stroke-linejoin="bevel" transform="matrix(1,0,0,1,1485,1050)"
font-family="Sans Serif" font-size="31.75" font-weight="400" font-style="normal" 
>
<path vector-effect="none" fill-rule="evenodd" d="M35.4335,-180 C35.4335,-170.887 28.0462,-163.5 18.9335,-163.5 C9.82077,-163.5 2.43347,-170.887 2.43347,-180 C2.43347,-189.113 9.82077,-196.5 18.9335,-196.5 C28.0462,-196.5 35.4335,-189.113 35.4335,-180 "/>
</g>

<g fill="none" stroke="#000000" stroke-opacity="1" stroke-width="1" stroke-linecap="square" stroke-linejoin="bevel" transform="matrix(1,0,0,1,1485,1050)"
font-family="Sans Serif" font-size="31.75" font-weight="400" font-style="normal" 
>
</g>

<g fill="none" stroke="#000000" stroke-opacity="1" stroke-width="1" stroke-linecap="square" stroke-linejoin="bevel" transform="matrix(1,0,0,1,1551.07,1050)"
font-family="Sans Serif" font-size="31.75" font-weight="400" font-style="normal" 
>
</g>

<g fill="#080808" fill-opacity="1" stroke="#080808" stroke-opacity="1" stroke-width="3.5" stroke-linecap="round" stroke-linejoin="bevel" transform="matrix(1,0,0,1,1551.07,1050)"
font-family="Sans Serif" font-size="31.75" font-weight="400" font-style="normal" 
>
<path vector-effect="none" fill-rule="evenodd" d="M0,42 L0,-42 M42,0 L-42,0"/>
</g>

<g fill="none" stroke="#000000" stroke-opacity="1" stroke-width="1" stroke-linecap="square" stroke-linejoin="bevel" transform="matrix(1,0,0,1,1551.07,1050)"
font-family="Sans Serif" font-size="31.75" font-weight="400" font-style="normal" 
>
</g>

<g fill="none" stroke="#000000" stroke-opacity="1" stroke-width="1" stroke-linecap="square" stroke-linejoin="bevel" transform="matrix(1,0,0,1,1604.24,899.56)"
font-family="Sans Serif" font-size="31.75" font-weight="400" font-style="normal" 
>
</g>

<g fill="#000000" fill-opacity="1" stroke="#000000" stroke-opacity="1" stroke-width="3.5" stroke-linecap="round" stroke-linejoin="bevel" transform="matrix(1,0,0,1,1604.24,899.56)"
font-family="Sans Serif" font-size="31.75" font-weight="400" font-style="normal" 
>
<path vector-effect="none" fill-rule="evenodd" d="M0,42 L0,-42 M42,0 L-42,0"/>
</g>

<g fill="none" stroke="#000000" stroke-opacity="1" stroke-width="1" stroke-linecap="square" stroke-linejoin="bevel" transform="matrix(1,0,0,1,1604.24,899.56)"
font-family="Sans Serif" font-size="31.75" font-weight="400" font-style="normal" 
>
</g>

<g fill="none" stroke="#000000" stroke-opacity="1" stroke-width="1" stroke-linecap="square" stroke-linejoin="bevel" transform="matrix(1,0,0,1,1604.24,1200.44)"
font-family="Sans Serif" font-size="31.75" font-weight="400" font-style="normal" 
>
</g>

<g fill="#000000" fill-opacity="1" stroke="#000000" stroke-opacity="1" stroke-width="3.5" stroke-linecap="round" stroke-linejoin="bevel" transform="matrix(1,0,0,1,1604.24,1200.44)"
font-family="Sans Serif" font-size="31.75" font-weight="400" font-style="normal" 
>
<path vector-effect="none" fill-rule="evenodd" d="M0,42 L0,-42 M42,0 L-42,0"/>
</g>

<g fill="none" stroke="#000000" stroke-opacity="1" stroke-width="1" stroke-linecap="square" stroke-linejoin="bevel" transform="matrix(1,0,0,1,1604.24,1200.44)"
font-family="Sans Serif" font-size="31.75" font-weight="400" font-style="normal" 
>
</g>

<g fill="none" stroke="#000000" stroke-opacity="1" stroke-width="1" stroke-linecap="square" stroke-linejoin="bevel" transform="matrix(1,0,0,1,1476.31,899.559)"
font-family="Sans Serif" font-size="31.75" font-weight="400" font-style="normal" 
>
</g>

<g fill="#000000" fill-opacity="1" stroke="#000000" stroke-opacity="1" stroke-width="3.5" stroke-linecap="round" stroke-linejoin="bevel" transform="matrix(1,0,0,1,1476.31,899.559)"
font-family="Sans Serif" font-size="31.75" font-weight="400" font-style="normal" 
>
<path vector-effect="none" fill-rule="evenodd" d="M0,42 L0,-42 M42,0 L-42,0"/>
</g>

<g fill="none" stroke="#000000" stroke-opacity="1" stroke-width="1" stroke-linecap="square" stroke-linejoin="bevel" transform="matrix(1,0,0,1,1476.31,899.559)"
font-family="Sans Serif" font-size="31.75" font-weight="400" font-style="normal" 
>
</g>

<g fill="none" stroke="#000000" stroke-opacity="1" stroke-width="1" stroke-linecap="square" stroke-linejoin="bevel" transform="matrix(1,0,0,1,1558.93,1050)"
font-family="Sans Serif" font-size="31.75" font-weight="400" font-style="normal" 
>
</g>

<g fill="#000000" fill-opacity="1" stroke="#000000" stroke-opacity="1" stroke-width="3.5" stroke-linecap="round" stroke-linejoin="bevel" transform="matrix(1,0,0,1,1558.93,1050)"
font-family="Sans Serif" font-size="31.75" font-weight="400" font-style="normal" 
>
<path vector-effect="none" fill-rule="evenodd" d="M0,42 L0,-42 M42,0 L-42,0"/>
</g>

<g fill="none" stroke="#000000" stroke-opacity="1" stroke-width="1" stroke-linecap="square" stroke-linejoin="bevel" transform="matrix(1,0,0,1,1558.93,1050)"
font-family="Sans Serif" font-size="31.75" font-weight="400" font-style="normal" 
>
</g>

<g fill="none" stroke="#000000" stroke-opacity="1" stroke-width="1" stroke-linecap="square" stroke-linejoin="bevel" transform="matrix(1,0,0,1,1476.31,1200.44)"
font-family="Sans Serif" font-size="31.75" font-weight="400" font-style="normal" 
>
</g>

<g fill="#000000" fill-opacity="1" stroke="#000000" stroke-opacity="1" stroke-width="3.5" stroke-linecap="round" stroke-linejoin="bevel" transform="matrix(1,0,0,1,1476.31,1200.44)"
font-family="Sans Serif" font-size="31.75" font-weight="400" font-style="normal" 
>
<path vector-effect="none" fill-rule="evenodd" d="M0,42 L0,-42 M42,0 L-42,0"/>
</g>

<g fill="none" stroke="#000000" stroke-opacity="1" stroke-width="1" stroke-linecap="square" stroke-linejoin="bevel" transform="matrix(1,0,0,1,1476.31,1200.44)"
font-family="Sans Serif" font-size="31.75" font-weight="400" font-style="normal" 
>
</g>

<g fill="none" stroke="#000000" stroke-opacity="1" stroke-width="1" stroke-linecap="square" stroke-linejoin="bevel" transform="matrix(1,0,0,1,1514.17,1257.36)"
font-family="Sans Serif" font-size="31.75" font-weight="400" font-style="normal" 
>
</g>

<g fill="#000000" fill-opacity="1" stroke="#000000" stroke-opacity="1" stroke-width="3.5" stroke-linecap="round" stroke-linejoin="bevel" transform="matrix(1,0,0,1,1514.17,1257.36)"
font-family="Sans Serif" font-size="31.75" font-weight="400" font-style="normal" 
>
<path vector-effect="none" fill-rule="evenodd" d="M0,42 L0,-42 M42,0 L-42,0"/>
</g>

<g fill="none" stroke="#000000" stroke-opacity="1" stroke-width="1" stroke-linecap="square" stroke-linejoin="bevel" transform="matrix(1,0,0,1,1514.17,1257.36)"
font-family="Sans Serif" font-size="31.75" font-weight="400" font-style="normal" 
>
</g>

<g fill="none" stroke="#000000" stroke-opacity="1" stroke-width="1" stroke-linecap="square" stroke-linejoin="bevel" transform="matrix(1,0,0,1,1503.93,870)"
font-family="Sans Serif" font-size="31.75" font-weight="400" font-style="normal" 
>
</g>

<g fill="#000000" fill-opacity="1" stroke="#000000" stroke-opacity="1" stroke-width="3.5" stroke-linecap="round" stroke-linejoin="bevel" transform="matrix(1,0,0,1,1503.93,870)"
font-family="Sans Serif" font-size="31.75" font-weight="400" font-style="normal" 
>
<path vector-effect="none" fill-rule="evenodd" d="M0,42 L0,-42 M42,0 L-42,0"/>
</g>

<g fill="none" stroke="#000000" stroke-opacity="1" stroke-width="1" stroke-linecap="square" stroke-linejoin="bevel" transform="matrix(1,0,0,1,1503.93,870)"
font-family="Sans Serif" font-size="31.75" font-weight="400" font-style="normal" 
>
</g>

<g fill="none" stroke="#000000" stroke-opacity="1" stroke-width="1" stroke-linecap="square" stroke-linejoin="bevel" transform="matrix(1,0,0,1,1503.93,1230)"
font-family="Sans Serif" font-size="31.75" font-weight="400" font-style="normal" 
>
</g>

<g fill="#000000" fill-opacity="1" stroke="#000000" stroke-opacity="1" stroke-width="3.5" stroke-linecap="round" stroke-linejoin="bevel" transform="matrix(1,0,0,1,1503.93,1230)"
font-family="Sans Serif" font-size="31.75" font-weight="400" font-style="normal" 
>
<path vector-effect="none" fill-rule="evenodd" d="M0,42 L0,-42 M42,0 L-42,0"/>
</g>

<g fill="none" stroke="#000000" stroke-opacity="1" stroke-width="1" stroke-linecap="square" stroke-linejoin="bevel" transform="matrix(1,0,0,1,1503.93,1230)"
font-family="Sans Serif" font-size="31.75" font-weight="400" font-style="normal" 
>
</g>

<g fill="none" stroke="#000000" stroke-opacity="1" stroke-width="1" stroke-linecap="square" stroke-linejoin="bevel" transform="matrix(1,0,0,1,1544.67,1199.99)"
font-family="Sans Serif" font-size="31.75" font-weight="400" font-style="normal" 
>
</g>

<g fill="#000000" fill-opacity="1" stroke="#000000" stroke-opacity="1" stroke-width="3.5" stroke-linecap="round" stroke-linejoin="bevel" transform="matrix(1,0,0,1,1544.67,1199.99)"
font-family="Sans Serif" font-size="31.75" font-weight="400" font-style="normal" 
>
<path vector-effect="none" fill-rule="evenodd" d="M0,42 L0,-42 M42,0 L-42,0"/>
</g>

<g fill="none" stroke="#000000" stroke-opacity="1" stroke-width="1" stroke-linecap="square" stroke-linejoin="bevel" transform="matrix(1,0,0,1,1544.67,1199.99)"
font-family="Sans Serif" font-size="31.75" font-weight="400" font-style="normal" 
>
</g>

<g fill="none" stroke="#000000" stroke-opacity="1" stroke-width="1" stroke-linecap="square" stroke-linejoin="bevel" transform="matrix(1,0,0,1,0,0)"
font-family="Sans Serif" font-size="31.75" font-weight="400" font-style="normal" 
>
</g>
</g>
</svg>
