  0
SECTION
  2
HEADER
  9
$ACADVER
  1
AC1014
  9
$HANDSEED
  5
FFFF
  9
$MEASUREMENT
 70
     1
  0
ENDSEC
  0
SECTION
  2
TABLES
  0
TABLE
  2
VPORT
  5
8
330
0
100
AcDbSymbolTable
 70
     4
  0
VPORT
  5
2E
330
8
100
AcDbSymbolTableRecord
100
AcDbViewportTableRecord
  2
*ACTIVE
 70
     0
 10
0.0
 20
0.0
 11
1.0
 21
1.0
 12
210.0
 22
148.5
 13
0.0
 23
0.0
 14
10.0
 24
10.0
 15
10.0
 25
10.0
 16
0.0
 26
0.0
 36
1.0
 17
0.0
 27
0.0
 37
0.0
 40
341.0
 41
1.24
 42
50.0
 43
0.0
 44
0.0
 50
0.0
 51
0.0
 71
     0
 72
   100
 73
     1
 74
     3
 75
     0
 76
     0
 77
     0
 78
     0
  0
ENDTAB
  0
TABLE
  2
LTYPE
  5
5
330
0
100
AcDbSymbolTable
 70
     1
  0
LTYPE
  5
14
330
5
100
AcDbSymbolTableRecord
100
AcDbLinetypeTableRecord
  2
BYBLOCK
 70
     0
  3

 72
    65
 73
     0
 40
0.0
  0
LTYPE
  5
15
330
5
100
AcDbSymbolTableRecord
100
AcDbLinetypeTableRecord
  2
BYLAYER
 70
     0
  3

 72
    65
 73
     0
 40
0.0
  0
LTYPE
  5
16
330
5
100
AcDbSymbolTableRecord
100
AcDbLinetypeTableRecord
  2
CONTINUOUS
 70
     0
  3
Solid line
 72
    65
 73
     0
 40
0.0
  0
ENDTAB
  0
TABLE
  2
LAYER
  5
2
100
AcDbSymbolTable
 70
1
  0
LAYER
  5
50
100
AcDbSymbolTableRecord
100
AcDbLayerTableRecord
  2
0
 70
0
  6
CONTINUOUS
  0
ENDTAB
  0
TABLE
  2
STYLE
  5
3
330
0
100
AcDbSymbolTable
 70
     1
  0
STYLE
  5
11
330
3
100
AcDbSymbolTableRecord
100
AcDbTextStyleTableRecord
  2
STANDARD
 70
     0
 40
0.0
 41
1.0
 50
0.0
 71
     0
 42
2.5
  3
txt
  4

  0
ENDTAB
  0
TABLE
  2
VIEW
  5
6
330
0
100
AcDbSymbolTable
 70
     0
  0
ENDTAB
  0
TABLE
  2
UCS
  5
7
330
0
100
AcDbSymbolTable
 70
     0
  0
ENDTAB
  0
TABLE
  2
APPID
  5
9
330
0
100
AcDbSymbolTable
 70
     2
  0
APPID
  5
12
330
9
100
AcDbSymbolTableRecord
100
AcDbRegAppTableRecord
  2
ACAD
 70
     0
  0
ENDTAB
  0
TABLE
  2
DIMSTYLE
  5
A
330
0
100
AcDbSymbolTable
 70
     1
  0
DIMSTYLE
105
27
330
A
100
AcDbSymbolTableRecord
100
AcDbDimStyleTableRecord
  2
ISO-25
 70
     0
  3

  4

  5

  6

  7

 40
1.0
 41
2.5
 42
0.625
 43
3.75
 44
1.25
 45
0.0
 46
0.0
 47
0.0
 48
0.0
140
2.5
141
2.5
142
0.0
143
0.03937007874016
144
1.0
145
0.0
146
1.0
147
0.625
 71
     0
 72
     0
 73
     0
 74
     0
 75
     0
 76
     0
 77
     1
 78
     8
170
     0
171
     3
172
     1
173
     0
174
     0
175
     0
176
     0
177
     0
178
     0
270
     2
271
     2
272
     2
273
     2
274
     3
340
11
275
     0
280
     0
281
     0
282
     0
283
     0
284
     8
285
     0
286
     0
287
     3
288
     0
  0
ENDTAB
  0
TABLE
  2
BLOCK_RECORD
  5
1
330
0
100
AcDbSymbolTable
 70
     1
  0
BLOCK_RECORD
  5
1F
330
1
100
AcDbSymbolTableRecord
100
AcDbBlockTableRecord
  2
*MODEL_SPACE
  0
BLOCK_RECORD
  5
1B
330
1
100
AcDbSymbolTableRecord
100
AcDbBlockTableRecord
  2
*PAPER_SPACE
  0
ENDTAB
  0
ENDSEC
  0
SECTION
  2
BLOCKS
  0
BLOCK
  5
20
330
1F
100
AcDbEntity
  8
0
100
AcDbBlockBegin
  2
*MODEL_SPACE
 70
     0
 10
0.0
 20
0.0
 30
0.0
  3
*MODEL_SPACE
  1

  0
ENDBLK
  5
21
330
1F
100
AcDbEntity
  8
0
100
AcDbBlockEnd
  0
BLOCK
  5
1C
330
1B
100
AcDbEntity
 67
     1
  8
0
100
AcDbBlockBegin
  2
*PAPER_SPACE
  1

  0
ENDBLK
  5
1D
330
1B
100
AcDbEntity
 67
     1
  8
0
100
AcDbBlockEnd
  0
ENDSEC
  0
SECTION
  2
ENTITIES
  0
LINE
  5
100
100
AcDbEntity
  8
0
 62
7
100
AcDbLine
 10
629.694840
 20
-81.041667
 30
0.0
 11
608.528173
 21
-81.041667
 31
0.0
  0
SPLINE
  5
101
100
AcDbEntity
  8
0
 62
7
100
AcDbSpline
 70
8
 71
3
 72
8
 73
4
 74
0
 40
0
 40
0
 40
0
 40
0
 40
1
 40
1
 40
1
 40
1
 10
608.528173
 20
-81.041667
 30
0.0
 10
607.692619
 20
-81.041667
 30
0.0
 10
606.906012
 20
-81.436372
 30
0.0
 10
606.406744
 20
-82.106324
 30
0.0
  0
SPLINE
  5
102
100
AcDbEntity
  8
0
 62
7
100
AcDbSpline
 70
8
 71
3
 72
8
 73
4
 74
0
 40
0
 40
0
 40
0
 40
0
 40
1
 40
1
 40
1
 40
1
 10
606.406744
 20
-82.106324
 30
0.0
 10
605.907475
 20
-82.776249
 30
0.0
 10
605.754017
 20
-83.642706
 30
0.0
 10
605.992671
 20
-84.443441
 30
0.0
  0
SPLINE
  5
103
100
AcDbEntity
  8
0
 62
7
100
AcDbSpline
 70
8
 71
3
 72
8
 73
4
 74
0
 40
0
 40
0
 40
0
 40
0
 40
1
 40
1
 40
1
 40
1
 10
605.992671
 20
-84.443441
 30
0.0
 10
607.875975
 20
-90.760156
 30
0.0
 10
605.659825
 20
-97.583417
 30
0.0
 10
600.424515
 20
-101.588150
 30
0.0
  0
SPLINE
  5
104
100
AcDbEntity
  8
0
 62
7
100
AcDbSpline
 70
8
 71
3
 72
8
 73
4
 74
0
 40
0
 40
0
 40
0
 40
0
 40
1
 40
1
 40
1
 40
1
 10
600.424515
 20
-101.588150
 30
0.0
 10
595.188940
 20
-105.592883
 30
0.0
 10
588.023494
 20
-105.945837
 30
0.0
 10
582.419883
 20
-102.474769
 30
0.0
  0
SPLINE
  5
105
100
AcDbEntity
  8
0
 62
7
100
AcDbSpline
 70
8
 71
3
 72
8
 73
4
 74
0
 40
0
 40
0
 40
0
 40
0
 40
1
 40
1
 40
1
 40
1
 10
582.419883
 20
-102.474769
 30
0.0
 10
576.816273
 20
-99.003965
 30
0.0
 10
573.940517
 20
-92.431344
 30
0.0
 10
575.194112
 20
-85.960165
 30
0.0
  0
SPLINE
  5
106
100
AcDbEntity
  8
0
 62
7
100
AcDbSpline
 70
8
 71
3
 72
8
 73
4
 74
0
 40
0
 40
0
 40
0
 40
0
 40
1
 40
1
 40
1
 40
1
 10
575.194112
 20
-85.960165
 30
0.0
 10
575.371648
 20
-85.043013
 30
0.0
 10
575.052560
 20
-84.100118
 30
0.0
 10
574.354325
 20
-83.479485
 30
0.0
  0
SPLINE
  5
107
100
AcDbEntity
  8
0
 62
7
100
AcDbSpline
 70
8
 71
3
 72
8
 73
4
 74
0
 40
0
 40
0
 40
0
 40
0
 40
1
 40
1
 40
1
 40
1
 10
574.354325
 20
-83.479485
 30
0.0
 10
573.656090
 20
-82.858825
 30
0.0
 10
572.682423
 20
-82.652397
 30
0.0
 10
571.792365
 20
-82.936348
 30
0.0
  0
SPLINE
  5
108
100
AcDbEntity
  8
0
 62
7
100
AcDbSpline
 70
8
 71
3
 72
8
 73
4
 74
0
 40
0
 40
0
 40
0
 40
0
 40
1
 40
1
 40
1
 40
1
 10
571.792365
 20
-82.936348
 30
0.0
 10
565.260067
 20
-85.020550
 30
0.0
 10
558.127694
 20
-82.675204
 30
0.0
 10
554.107350
 20
-77.120859
 30
0.0
  0
SPLINE
  5
109
100
AcDbEntity
  8
0
 62
7
100
AcDbSpline
 70
8
 71
3
 72
8
 73
4
 74
0
 40
0
 40
0
 40
0
 40
0
 40
1
 40
1
 40
1
 40
1
 10
554.107350
 20
-77.120859
 30
0.0
 10
550.086742
 20
-71.566488
 30
0.0
 10
550.086742
 20
-64.058512
 30
0.0
 10
554.107350
 20
-58.504141
 30
0.0
  0
SPLINE
  5
10a
100
AcDbEntity
  8
0
 62
7
100
AcDbSpline
 70
8
 71
3
 72
8
 73
4
 74
0
 40
0
 40
0
 40
0
 40
0
 40
1
 40
1
 40
1
 40
1
 10
554.107350
 20
-58.504141
 30
0.0
 10
558.127694
 20
-52.949796
 30
0.0
 10
565.260067
 20
-50.604450
 30
0.0
 10
571.792365
 20
-52.688652
 30
0.0
  0
SPLINE
  5
10b
100
AcDbEntity
  8
0
 62
7
100
AcDbSpline
 70
8
 71
3
 72
8
 73
4
 74
0
 40
0
 40
0
 40
0
 40
0
 40
1
 40
1
 40
1
 40
1
 10
571.792365
 20
-52.688652
 30
0.0
 10
572.682423
 20
-52.972603
 30
0.0
 10
573.656090
 20
-52.766175
 30
0.0
 10
574.354325
 20
-52.145515
 30
0.0
  0
SPLINE
  5
10c
100
AcDbEntity
  8
0
 62
7
100
AcDbSpline
 70
8
 71
3
 72
8
 73
4
 74
0
 40
0
 40
0
 40
0
 40
0
 40
1
 40
1
 40
1
 40
1
 10
574.354325
 20
-52.145515
 30
0.0
 10
575.052560
 20
-51.524882
 30
0.0
 10
575.371648
 20
-50.581987
 30
0.0
 10
575.194112
 20
-49.664835
 30
0.0
  0
SPLINE
  5
10d
100
AcDbEntity
  8
0
 62
7
100
AcDbSpline
 70
8
 71
3
 72
8
 73
4
 74
0
 40
0
 40
0
 40
0
 40
0
 40
1
 40
1
 40
1
 40
1
 10
575.194112
 20
-49.664835
 30
0.0
 10
573.940517
 20
-43.193656
 30
0.0
 10
576.816273
 20
-36.621035
 30
0.0
 10
582.419883
 20
-33.150231
 30
0.0
  0
SPLINE
  5
10e
100
AcDbEntity
  8
0
 62
7
100
AcDbSpline
 70
8
 71
3
 72
8
 73
4
 74
0
 40
0
 40
0
 40
0
 40
0
 40
1
 40
1
 40
1
 40
1
 10
582.419883
 20
-33.150231
 30
0.0
 10
588.023494
 20
-29.679162
 30
0.0
 10
595.188940
 20
-30.032117
 30
0.0
 10
600.424515
 20
-34.036850
 30
0.0
  0
SPLINE
  5
10f
100
AcDbEntity
  8
0
 62
7
100
AcDbSpline
 70
8
 71
3
 72
8
 73
4
 74
0
 40
0
 40
0
 40
0
 40
0
 40
1
 40
1
 40
1
 40
1
 10
600.424515
 20
-34.036850
 30
0.0
 10
605.659825
 20
-38.041583
 30
0.0
 10
607.875975
 20
-44.864844
 30
0.0
 10
605.992671
 20
-51.181559
 30
0.0
  0
SPLINE
  5
110
100
AcDbEntity
  8
0
 62
7
100
AcDbSpline
 70
8
 71
3
 72
8
 73
4
 74
0
 40
0
 40
0
 40
0
 40
0
 40
1
 40
1
 40
1
 40
1
 10
605.992671
 20
-51.181559
 30
0.0
 10
605.754017
 20
-51.982294
 30
0.0
 10
605.907475
 20
-52.848751
 30
0.0
 10
606.406744
 20
-53.518676
 30
0.0
  0
SPLINE
  5
111
100
AcDbEntity
  8
0
 62
7
100
AcDbSpline
 70
8
 71
3
 72
8
 73
4
 74
0
 40
0
 40
0
 40
0
 40
0
 40
1
 40
1
 40
1
 40
1
 10
606.406744
 20
-53.518676
 30
0.0
 10
606.906012
 20
-54.188628
 30
0.0
 10
607.692619
 20
-54.583333
 30
0.0
 10
608.528173
 20
-54.583333
 30
0.0
  0
LINE
  5
112
100
AcDbEntity
  8
0
 62
7
100
AcDbLine
 10
608.528173
 20
-54.583333
 30
0.0
 11
629.694840
 21
-54.583333
 31
0.0
  0
SPLINE
  5
113
100
AcDbEntity
  8
0
 62
7
100
AcDbSpline
 70
8
 71
3
 72
8
 73
4
 74
0
 40
0
 40
0
 40
0
 40
0
 40
1
 40
1
 40
1
 40
1
 10
629.694840
 20
-54.583333
 30
0.0
 10
623.408340
 20
-23.786362
 30
0.0
 10
596.317387
 20
-1.666667
 30
0.0
 10
564.885417
 20
-1.666667
 30
0.0
  0
LINE
  5
114
100
AcDbEntity
  8
0
 62
7
100
AcDbLine
 10
564.885417
 20
-1.666667
 30
0.0
 11
220.927083
 21
-1.666667
 31
0.0
  0
SPLINE
  5
115
100
AcDbEntity
  8
0
 62
7
100
AcDbSpline
 70
8
 71
3
 72
8
 73
4
 74
0
 40
0
 40
0
 40
0
 40
0
 40
1
 40
1
 40
1
 40
1
 10
220.927083
 20
-1.666667
 30
0.0
 10
189.495113
 20
-1.666667
 30
0.0
 10
162.404160
 20
-23.786362
 30
0.0
 10
156.117660
 20
-54.583333
 30
0.0
  0
LINE
  5
116
100
AcDbEntity
  8
0
 62
7
100
AcDbLine
 10
156.117660
 20
-54.583333
 30
0.0
 11
177.284327
 21
-54.583333
 31
0.0
  0
SPLINE
  5
117
100
AcDbEntity
  8
0
 62
7
100
AcDbSpline
 70
8
 71
3
 72
8
 73
4
 74
0
 40
0
 40
0
 40
0
 40
0
 40
1
 40
1
 40
1
 40
1
 10
177.284327
 20
-54.583333
 30
0.0
 10
178.119881
 20
-54.583333
 30
0.0
 10
178.906487
 20
-54.188628
 30
0.0
 10
179.405756
 20
-53.518676
 30
0.0
  0
SPLINE
  5
118
100
AcDbEntity
  8
0
 62
7
100
AcDbSpline
 70
8
 71
3
 72
8
 73
4
 74
0
 40
0
 40
0
 40
0
 40
0
 40
1
 40
1
 40
1
 40
1
 10
179.405756
 20
-53.518676
 30
0.0
 10
179.905025
 20
-52.848751
 30
0.0
 10
180.058483
 20
-51.982294
 30
0.0
 10
179.819829
 20
-51.181559
 30
0.0
  0
SPLINE
  5
119
100
AcDbEntity
  8
0
 62
7
100
AcDbSpline
 70
8
 71
3
 72
8
 73
4
 74
0
 40
0
 40
0
 40
0
 40
0
 40
1
 40
1
 40
1
 40
1
 10
179.819829
 20
-51.181559
 30
0.0
 10
177.936525
 20
-44.864844
 30
0.0
 10
180.152675
 20
-38.041583
 30
0.0
 10
185.387985
 20
-34.036850
 30
0.0
  0
SPLINE
  5
11a
100
AcDbEntity
  8
0
 62
7
100
AcDbSpline
 70
8
 71
3
 72
8
 73
4
 74
0
 40
0
 40
0
 40
0
 40
0
 40
1
 40
1
 40
1
 40
1
 10
185.387985
 20
-34.036850
 30
0.0
 10
190.623560
 20
-30.032117
 30
0.0
 10
197.789006
 20
-29.679162
 30
0.0
 10
203.392617
 20
-33.150231
 30
0.0
  0
SPLINE
  5
11b
100
AcDbEntity
  8
0
 62
7
100
AcDbSpline
 70
8
 71
3
 72
8
 73
4
 74
0
 40
0
 40
0
 40
0
 40
0
 40
1
 40
1
 40
1
 40
1
 10
203.392617
 20
-33.150231
 30
0.0
 10
208.996227
 20
-36.621035
 30
0.0
 10
211.871983
 20
-43.193656
 30
0.0
 10
210.618387
 20
-49.664835
 30
0.0
  0
SPLINE
  5
11c
100
AcDbEntity
  8
0
 62
7
100
AcDbSpline
 70
8
 71
3
 72
8
 73
4
 74
0
 40
0
 40
0
 40
0
 40
0
 40
1
 40
1
 40
1
 40
1
 10
210.618387
 20
-49.664835
 30
0.0
 10
210.440852
 20
-50.581987
 30
0.0
 10
210.759940
 20
-51.524882
 30
0.0
 10
211.458175
 20
-52.145515
 30
0.0
  0
SPLINE
  5
11d
100
AcDbEntity
  8
0
 62
7
100
AcDbSpline
 70
8
 71
3
 72
8
 73
4
 74
0
 40
0
 40
0
 40
0
 40
0
 40
1
 40
1
 40
1
 40
1
 10
211.458175
 20
-52.145515
 30
0.0
 10
212.156410
 20
-52.766175
 30
0.0
 10
213.130077
 20
-52.972603
 30
0.0
 10
214.020135
 20
-52.688652
 30
0.0
  0
SPLINE
  5
11e
100
AcDbEntity
  8
0
 62
7
100
AcDbSpline
 70
8
 71
3
 72
8
 73
4
 74
0
 40
0
 40
0
 40
0
 40
0
 40
1
 40
1
 40
1
 40
1
 10
214.020135
 20
-52.688652
 30
0.0
 10
220.552433
 20
-50.604450
 30
0.0
 10
227.684806
 20
-52.949796
 30
0.0
 10
231.705150
 20
-58.504141
 30
0.0
  0
SPLINE
  5
11f
100
AcDbEntity
  8
0
 62
7
100
AcDbSpline
 70
8
 71
3
 72
8
 73
4
 74
0
 40
0
 40
0
 40
0
 40
0
 40
1
 40
1
 40
1
 40
1
 10
231.705150
 20
-58.504141
 30
0.0
 10
235.725758
 20
-64.058512
 30
0.0
 10
235.725758
 20
-71.566488
 30
0.0
 10
231.705150
 20
-77.120859
 30
0.0
  0
SPLINE
  5
120
100
AcDbEntity
  8
0
 62
7
100
AcDbSpline
 70
8
 71
3
 72
8
 73
4
 74
0
 40
0
 40
0
 40
0
 40
0
 40
1
 40
1
 40
1
 40
1
 10
231.705150
 20
-77.120859
 30
0.0
 10
227.684806
 20
-82.675204
 30
0.0
 10
220.552433
 20
-85.020550
 30
0.0
 10
214.020135
 20
-82.936348
 30
0.0
  0
SPLINE
  5
121
100
AcDbEntity
  8
0
 62
7
100
AcDbSpline
 70
8
 71
3
 72
8
 73
4
 74
0
 40
0
 40
0
 40
0
 40
0
 40
1
 40
1
 40
1
 40
1
 10
214.020135
 20
-82.936348
 30
0.0
 10
213.130077
 20
-82.652397
 30
0.0
 10
212.156410
 20
-82.858825
 30
0.0
 10
211.458175
 20
-83.479485
 30
0.0
  0
SPLINE
  5
122
100
AcDbEntity
  8
0
 62
7
100
AcDbSpline
 70
8
 71
3
 72
8
 73
4
 74
0
 40
0
 40
0
 40
0
 40
0
 40
1
 40
1
 40
1
 40
1
 10
211.458175
 20
-83.479485
 30
0.0
 10
210.759940
 20
-84.100118
 30
0.0
 10
210.440852
 20
-85.043013
 30
0.0
 10
210.618387
 20
-85.960165
 30
0.0
  0
SPLINE
  5
123
100
AcDbEntity
  8
0
 62
7
100
AcDbSpline
 70
8
 71
3
 72
8
 73
4
 74
0
 40
0
 40
0
 40
0
 40
0
 40
1
 40
1
 40
1
 40
1
 10
210.618387
 20
-85.960165
 30
0.0
 10
211.871983
 20
-92.431344
 30
0.0
 10
208.996227
 20
-99.003965
 30
0.0
 10
203.392617
 20
-102.474769
 30
0.0
  0
SPLINE
  5
124
100
AcDbEntity
  8
0
 62
7
100
AcDbSpline
 70
8
 71
3
 72
8
 73
4
 74
0
 40
0
 40
0
 40
0
 40
0
 40
1
 40
1
 40
1
 40
1
 10
203.392617
 20
-102.474769
 30
0.0
 10
197.789006
 20
-105.945837
 30
0.0
 10
190.623560
 20
-105.592883
 30
0.0
 10
185.387985
 20
-101.588150
 30
0.0
  0
SPLINE
  5
125
100
AcDbEntity
  8
0
 62
7
100
AcDbSpline
 70
8
 71
3
 72
8
 73
4
 74
0
 40
0
 40
0
 40
0
 40
0
 40
1
 40
1
 40
1
 40
1
 10
185.387985
 20
-101.588150
 30
0.0
 10
180.152675
 20
-97.583417
 30
0.0
 10
177.936525
 20
-90.760156
 30
0.0
 10
179.819829
 20
-84.443441
 30
0.0
  0
SPLINE
  5
126
100
AcDbEntity
  8
0
 62
7
100
AcDbSpline
 70
8
 71
3
 72
8
 73
4
 74
0
 40
0
 40
0
 40
0
 40
0
 40
1
 40
1
 40
1
 40
1
 10
179.819829
 20
-84.443441
 30
0.0
 10
180.058483
 20
-83.642706
 30
0.0
 10
179.905025
 20
-82.776249
 30
0.0
 10
179.405756
 20
-82.106324
 30
0.0
  0
SPLINE
  5
127
100
AcDbEntity
  8
0
 62
7
100
AcDbSpline
 70
8
 71
3
 72
8
 73
4
 74
0
 40
0
 40
0
 40
0
 40
0
 40
1
 40
1
 40
1
 40
1
 10
179.405756
 20
-82.106324
 30
0.0
 10
178.906487
 20
-81.436372
 30
0.0
 10
178.119881
 20
-81.041667
 30
0.0
 10
177.284327
 20
-81.041667
 30
0.0
  0
LINE
  5
128
100
AcDbEntity
  8
0
 62
7
100
AcDbLine
 10
177.284327
 20
-81.041667
 30
0.0
 11
156.117660
 21
-81.041667
 31
0.0
  0
SPLINE
  5
129
100
AcDbEntity
  8
0
 62
7
100
AcDbSpline
 70
8
 71
3
 72
8
 73
4
 74
0
 40
0
 40
0
 40
0
 40
0
 40
1
 40
1
 40
1
 40
1
 10
156.117660
 20
-81.041667
 30
0.0
 10
162.404160
 20
-111.838637
 30
0.0
 10
189.495113
 20
-133.958333
 30
0.0
 10
220.927083
 20
-133.958333
 30
0.0
  0
LINE
  5
12a
100
AcDbEntity
  8
0
 62
7
100
AcDbLine
 10
220.927083
 20
-133.958333
 30
0.0
 11
564.885417
 21
-133.958333
 31
0.0
  0
SPLINE
  5
12b
100
AcDbEntity
  8
0
 62
7
100
AcDbSpline
 70
8
 71
3
 72
8
 73
4
 74
0
 40
0
 40
0
 40
0
 40
0
 40
1
 40
1
 40
1
 40
1
 10
564.885417
 20
-133.958333
 30
0.0
 10
596.317387
 20
-133.958333
 30
0.0
 10
623.408340
 20
-111.838637
 30
0.0
 10
629.694840
 20
-81.041667
 30
0.0
  0
SPLINE
  5
12c
100
AcDbEntity
  8
0
 62
7
100
AcDbSpline
 70
8
 71
3
 72
8
 73
4
 74
0
 40
0
 40
0
 40
0
 40
0
 40
1
 40
1
 40
1
 40
1
 10
557.268592
 20
-95.253231
 30
0.0
 10
545.638567
 20
-91.142929
 30
0.0
 10
537.862727
 20
-80.147587
 30
0.0
 10
537.862727
 20
-67.812500
 30
0.0
  0
SPLINE
  5
12d
100
AcDbEntity
  8
0
 62
7
100
AcDbSpline
 70
8
 71
3
 72
8
 73
4
 74
0
 40
0
 40
0
 40
0
 40
0
 40
1
 40
1
 40
1
 40
1
 10
537.862727
 20
-67.812500
 30
0.0
 10
537.862727
 20
-55.477413
 30
0.0
 10
545.638567
 20
-44.482071
 30
0.0
 10
557.268592
 20
-40.371769
 30
0.0
  0
SPLINE
  5
12e
100
AcDbEntity
  8
0
 62
7
100
AcDbSpline
 70
8
 71
3
 72
8
 73
4
 74
0
 40
0
 40
0
 40
0
 40
0
 40
1
 40
1
 40
1
 40
1
 10
557.268592
 20
-40.371769
 30
0.0
 10
563.290244
 20
-38.243460
 30
0.0
 10
566.902865
 20
-32.086606
 30
0.0
 10
565.823100
 20
-25.791904
 30
0.0
  0
SPLINE
  5
12f
100
AcDbEntity
  8
0
 62
7
100
AcDbSpline
 70
8
 71
3
 72
8
 73
4
 74
0
 40
0
 40
0
 40
0
 40
0
 40
1
 40
1
 40
1
 40
1
 10
565.823100
 20
-25.791904
 30
0.0
 10
564.743600
 20
-19.497202
 30
0.0
 10
559.285775
 20
-14.895833
 30
0.0
 10
552.899262
 20
-14.895833
 30
0.0
  0
LINE
  5
130
100
AcDbEntity
  8
0
 62
7
100
AcDbLine
 10
552.899262
 20
-14.895833
 30
0.0
 11
232.913238
 21
-14.895833
 31
0.0
  0
SPLINE
  5
131
100
AcDbEntity
  8
0
 62
7
100
AcDbSpline
 70
8
 71
3
 72
8
 73
4
 74
0
 40
0
 40
0
 40
0
 40
0
 40
1
 40
1
 40
1
 40
1
 10
232.913238
 20
-14.895833
 30
0.0
 10
226.526725
 20
-14.895833
 30
0.0
 10
221.068900
 20
-19.497202
 30
0.0
 10
219.989400
 20
-25.791904
 30
0.0
  0
SPLINE
  5
132
100
AcDbEntity
  8
0
 62
7
100
AcDbSpline
 70
8
 71
3
 72
8
 73
4
 74
0
 40
0
 40
0
 40
0
 40
0
 40
1
 40
1
 40
1
 40
1
 10
219.989400
 20
-25.791904
 30
0.0
 10
218.909635
 20
-32.086606
 30
0.0
 10
222.522256
 20
-38.243460
 30
0.0
 10
228.543908
 20
-40.371769
 30
0.0
  0
SPLINE
  5
133
100
AcDbEntity
  8
0
 62
7
100
AcDbSpline
 70
8
 71
3
 72
8
 73
4
 74
0
 40
0
 40
0
 40
0
 40
0
 40
1
 40
1
 40
1
 40
1
 10
228.543908
 20
-40.371769
 30
0.0
 10
240.173933
 20
-44.482071
 30
0.0
 10
247.949773
 20
-55.477413
 30
0.0
 10
247.949773
 20
-67.812500
 30
0.0
  0
SPLINE
  5
134
100
AcDbEntity
  8
0
 62
7
100
AcDbSpline
 70
8
 71
3
 72
8
 73
4
 74
0
 40
0
 40
0
 40
0
 40
0
 40
1
 40
1
 40
1
 40
1
 10
247.949773
 20
-67.812500
 30
0.0
 10
247.949773
 20
-80.147587
 30
0.0
 10
240.173933
 20
-91.142929
 30
0.0
 10
228.543908
 20
-95.253231
 30
0.0
  0
SPLINE
  5
135
100
AcDbEntity
  8
0
 62
7
100
AcDbSpline
 70
8
 71
3
 72
8
 73
4
 74
0
 40
0
 40
0
 40
0
 40
0
 40
1
 40
1
 40
1
 40
1
 10
228.543908
 20
-95.253231
 30
0.0
 10
222.522256
 20
-97.381540
 30
0.0
 10
218.909635
 20
-103.538394
 30
0.0
 10
219.989400
 20
-109.833096
 30
0.0
  0
SPLINE
  5
136
100
AcDbEntity
  8
0
 62
7
100
AcDbSpline
 70
8
 71
3
 72
8
 73
4
 74
0
 40
0
 40
0
 40
0
 40
0
 40
1
 40
1
 40
1
 40
1
 10
219.989400
 20
-109.833096
 30
0.0
 10
221.068900
 20
-116.127798
 30
0.0
 10
226.526725
 20
-120.729167
 30
0.0
 10
232.913238
 20
-120.729167
 30
0.0
  0
LINE
  5
137
100
AcDbEntity
  8
0
 62
7
100
AcDbLine
 10
232.913238
 20
-120.729167
 30
0.0
 11
552.899262
 21
-120.729167
 31
0.0
  0
SPLINE
  5
138
100
AcDbEntity
  8
0
 62
7
100
AcDbSpline
 70
8
 71
3
 72
8
 73
4
 74
0
 40
0
 40
0
 40
0
 40
0
 40
1
 40
1
 40
1
 40
1
 10
552.899262
 20
-120.729167
 30
0.0
 10
559.285775
 20
-120.729167
 30
0.0
 10
564.743600
 20
-116.127798
 30
0.0
 10
565.823100
 20
-109.833096
 30
0.0
  0
SPLINE
  5
139
100
AcDbEntity
  8
0
 62
7
100
AcDbSpline
 70
8
 71
3
 72
8
 73
4
 74
0
 40
0
 40
0
 40
0
 40
0
 40
1
 40
1
 40
1
 40
1
 10
565.823100
 20
-109.833096
 30
0.0
 10
566.902865
 20
-103.538394
 30
0.0
 10
563.290244
 20
-97.381540
 30
0.0
 10
557.268592
 20
-95.253231
 30
0.0
  0
SPLINE
  5
13a
100
AcDbEntity
  8
0
 62
7
100
AcDbSpline
 70
8
 71
3
 72
8
 73
4
 74
0
 40
0
 40
0
 40
0
 40
0
 40
1
 40
1
 40
1
 40
1
 10
583.803125
 20
-115.437500
 30
0.0
 10
583.803125
 20
-117.848648
 30
0.0
 10
581.848648
 20
-119.803125
 30
0.0
 10
579.437500
 20
-119.803125
 30
0.0
  0
SPLINE
  5
13b
100
AcDbEntity
  8
0
 62
7
100
AcDbSpline
 70
8
 71
3
 72
8
 73
4
 74
0
 40
0
 40
0
 40
0
 40
0
 40
1
 40
1
 40
1
 40
1
 10
579.437500
 20
-119.803125
 30
0.0
 10
577.026352
 20
-119.803125
 30
0.0
 10
575.071875
 20
-117.848648
 30
0.0
 10
575.071875
 20
-115.437500
 30
0.0
  0
SPLINE
  5
13c
100
AcDbEntity
  8
0
 62
7
100
AcDbSpline
 70
8
 71
3
 72
8
 73
4
 74
0
 40
0
 40
0
 40
0
 40
0
 40
1
 40
1
 40
1
 40
1
 10
575.071875
 20
-115.437500
 30
0.0
 10
575.071875
 20
-113.026352
 30
0.0
 10
577.026352
 20
-111.071875
 30
0.0
 10
579.437500
 20
-111.071875
 30
0.0
  0
SPLINE
  5
13d
100
AcDbEntity
  8
0
 62
7
100
AcDbSpline
 70
8
 71
3
 72
8
 73
4
 74
0
 40
0
 40
0
 40
0
 40
0
 40
1
 40
1
 40
1
 40
1
 10
579.437500
 20
-111.071875
 30
0.0
 10
581.848648
 20
-111.071875
 30
0.0
 10
583.803125
 20
-113.026352
 30
0.0
 10
583.803125
 20
-115.437500
 30
0.0
  0
SPLINE
  5
13e
100
AcDbEntity
  8
0
 62
7
100
AcDbSpline
 70
8
 71
3
 72
8
 73
4
 74
0
 40
0
 40
0
 40
0
 40
0
 40
1
 40
1
 40
1
 40
1
 10
210.740625
 20
-115.437500
 30
0.0
 10
210.740625
 20
-117.848648
 30
0.0
 10
208.786148
 20
-119.803125
 30
0.0
 10
206.375000
 20
-119.803125
 30
0.0
  0
SPLINE
  5
13f
100
AcDbEntity
  8
0
 62
7
100
AcDbSpline
 70
8
 71
3
 72
8
 73
4
 74
0
 40
0
 40
0
 40
0
 40
0
 40
1
 40
1
 40
1
 40
1
 10
206.375000
 20
-119.803125
 30
0.0
 10
203.963852
 20
-119.803125
 30
0.0
 10
202.009375
 20
-117.848648
 30
0.0
 10
202.009375
 20
-115.437500
 30
0.0
  0
SPLINE
  5
140
100
AcDbEntity
  8
0
 62
7
100
AcDbSpline
 70
8
 71
3
 72
8
 73
4
 74
0
 40
0
 40
0
 40
0
 40
0
 40
1
 40
1
 40
1
 40
1
 10
202.009375
 20
-115.437500
 30
0.0
 10
202.009375
 20
-113.026352
 30
0.0
 10
203.963852
 20
-111.071875
 30
0.0
 10
206.375000
 20
-111.071875
 30
0.0
  0
SPLINE
  5
141
100
AcDbEntity
  8
0
 62
7
100
AcDbSpline
 70
8
 71
3
 72
8
 73
4
 74
0
 40
0
 40
0
 40
0
 40
0
 40
1
 40
1
 40
1
 40
1
 10
206.375000
 20
-111.071875
 30
0.0
 10
208.786148
 20
-111.071875
 30
0.0
 10
210.740625
 20
-113.026352
 30
0.0
 10
210.740625
 20
-115.437500
 30
0.0
  0
SPLINE
  5
142
100
AcDbEntity
  8
0
 62
7
100
AcDbSpline
 70
8
 71
3
 72
8
 73
4
 74
0
 40
0
 40
0
 40
0
 40
0
 40
1
 40
1
 40
1
 40
1
 10
583.803125
 20
-20.187500
 30
0.0
 10
583.803125
 20
-22.598648
 30
0.0
 10
581.848648
 20
-24.553125
 30
0.0
 10
579.437500
 20
-24.553125
 30
0.0
  0
SPLINE
  5
143
100
AcDbEntity
  8
0
 62
7
100
AcDbSpline
 70
8
 71
3
 72
8
 73
4
 74
0
 40
0
 40
0
 40
0
 40
0
 40
1
 40
1
 40
1
 40
1
 10
579.437500
 20
-24.553125
 30
0.0
 10
577.026352
 20
-24.553125
 30
0.0
 10
575.071875
 20
-22.598648
 30
0.0
 10
575.071875
 20
-20.187500
 30
0.0
  0
SPLINE
  5
144
100
AcDbEntity
  8
0
 62
7
100
AcDbSpline
 70
8
 71
3
 72
8
 73
4
 74
0
 40
0
 40
0
 40
0
 40
0
 40
1
 40
1
 40
1
 40
1
 10
575.071875
 20
-20.187500
 30
0.0
 10
575.071875
 20
-17.776352
 30
0.0
 10
577.026352
 20
-15.821875
 30
0.0
 10
579.437500
 20
-15.821875
 30
0.0
  0
SPLINE
  5
145
100
AcDbEntity
  8
0
 62
7
100
AcDbSpline
 70
8
 71
3
 72
8
 73
4
 74
0
 40
0
 40
0
 40
0
 40
0
 40
1
 40
1
 40
1
 40
1
 10
579.437500
 20
-15.821875
 30
0.0
 10
581.848648
 20
-15.821875
 30
0.0
 10
583.803125
 20
-17.776352
 30
0.0
 10
583.803125
 20
-20.187500
 30
0.0
  0
SPLINE
  5
146
100
AcDbEntity
  8
0
 62
7
100
AcDbSpline
 70
8
 71
3
 72
8
 73
4
 74
0
 40
0
 40
0
 40
0
 40
0
 40
1
 40
1
 40
1
 40
1
 10
210.740625
 20
-20.187500
 30
0.0
 10
210.740625
 20
-22.598648
 30
0.0
 10
208.786148
 20
-24.553125
 30
0.0
 10
206.375000
 20
-24.553125
 30
0.0
  0
SPLINE
  5
147
100
AcDbEntity
  8
0
 62
7
100
AcDbSpline
 70
8
 71
3
 72
8
 73
4
 74
0
 40
0
 40
0
 40
0
 40
0
 40
1
 40
1
 40
1
 40
1
 10
206.375000
 20
-24.553125
 30
0.0
 10
203.963852
 20
-24.553125
 30
0.0
 10
202.009375
 20
-22.598648
 30
0.0
 10
202.009375
 20
-20.187500
 30
0.0
  0
SPLINE
  5
148
100
AcDbEntity
  8
0
 62
7
100
AcDbSpline
 70
8
 71
3
 72
8
 73
4
 74
0
 40
0
 40
0
 40
0
 40
0
 40
1
 40
1
 40
1
 40
1
 10
202.009375
 20
-20.187500
 30
0.0
 10
202.009375
 20
-17.776352
 30
0.0
 10
203.963852
 20
-15.821875
 30
0.0
 10
206.375000
 20
-15.821875
 30
0.0
  0
SPLINE
  5
149
100
AcDbEntity
  8
0
 62
7
100
AcDbSpline
 70
8
 71
3
 72
8
 73
4
 74
0
 40
0
 40
0
 40
0
 40
0
 40
1
 40
1
 40
1
 40
1
 10
206.375000
 20
-15.821875
 30
0.0
 10
208.786148
 20
-15.821875
 30
0.0
 10
210.740625
 20
-17.776352
 30
0.0
 10
210.740625
 20
-20.187500
 30
0.0
  0
ENDSEC
  0
SECTION
  2
OBJECTS
  0
DICTIONARY
  5
C
330
0
100
AcDbDictionary
  3
ACAD_GROUP
350
D
  3
ACAD_MLINESTYLE
350
17
  0
DICTIONARY
  5
D
330
C
100
AcDbDictionary
  0
DICTIONARY
  5
1A
330
C
100
AcDbDictionary
  0
DICTIONARY
  5
17
330
C
100
AcDbDictionary
  3
STANDARD
350
18
  0
DICTIONARY
  5
19
330
C
100
AcDbDictionary
  0
ENDSEC
  0
EOF
