<?xml version="1.0" encoding="UTF-8" standalone="no"?>
<svg
   xmlns:dc="http://purl.org/dc/elements/1.1/"
   xmlns:cc="http://creativecommons.org/ns#"
   xmlns:rdf="http://www.w3.org/1999/02/22-rdf-syntax-ns#"
   xmlns:svg="http://www.w3.org/2000/svg"
   xmlns="http://www.w3.org/2000/svg"
   xmlns:sodipodi="http://sodipodi.sourceforge.net/DTD/sodipodi-0.dtd"
   xmlns:inkscape="http://www.inkscape.org/namespaces/inkscape"
   width="420mm"
   height="297mm"
   viewBox="0 0 4200 2970"
   version="1.2"
   id="svg1548"
   sodipodi:docname="center_socket.svg"
   inkscape:version="0.92.2 (5c3e80d, 2017-08-06)">
  <metadata
     id="metadata1552">
    <rdf:RDF>
      <cc:Work
         rdf:about="">
        <dc:format>image/svg+xml</dc:format>
        <dc:type
           rdf:resource="http://purl.org/dc/dcmitype/StillImage" />
      </cc:Work>
    </rdf:RDF>
  </metadata>
  <sodipodi:namedview
     pagecolor="#ffffff"
     bordercolor="#666666"
     borderopacity="1"
     objecttolerance="10"
     gridtolerance="10"
     guidetolerance="10"
     inkscape:pageopacity="0"
     inkscape:pageshadow="2"
     inkscape:window-width="1920"
     inkscape:window-height="1015"
     id="namedview1550"
     showgrid="false"
     inkscape:zoom="0.29221468"
     inkscape:cx="1232.6776"
     inkscape:cy="611.45122"
     inkscape:window-x="0"
     inkscape:window-y="0"
     inkscape:window-maximized="1"
     inkscape:current-layer="g1546" />
  <title
     id="title2">FreeCAD SVG Export</title>
  <desc
     id="desc4">Drawing page: Page006 exported from FreeCAD document: mounting_sun</desc>
  <defs
     id="defs6" />
  <g
     fill="none"
     stroke="black"
     stroke-width="1"
     fill-rule="evenodd"
     stroke-linecap="square"
     stroke-linejoin="bevel"
     id="g1546">
    <path
       inkscape:connector-curvature="0"
       style="font-style:normal;font-weight:400;font-size:medium;font-family:'Sans Serif';vector-effect:non-scaling-stroke;fill:#ffffff;fill-opacity:1;fill-rule:evenodd;stroke:#000000;stroke-width:1;stroke-opacity:1"
       id="path50"
       d="m 3094.046,2001.1779 69.284,40 C 3253.11,1869.533 3299.9999,1678.706 3299.9999,1485 c 0,-193.706 -46.8899,-384.533 -136.6699,-556.17805 l -69.284,40 c -2.735,1.57901 -4.5631,4.35801 -4.932,7.49401 -0.368,3.137 0.767,6.263 3.061,8.43301 18.1049,17.11603 23.745,43.63803 14.175,66.64003 -9.569,23.002 -32.3561,37.698 -57.257,36.926 -24.901,-0.771 -46.734,-16.85 -54.8601,-40.4 -1.1519,-3.338 -3.9779,-5.821 -7.4369,-6.533 -3.458,-0.712 -7.0361,0.453 -9.412,3.064 -17.443,19.167 -45.2201,24.968 -68.8761,14.386 -23.656,-10.583 -37.8449,-35.158 -35.1809,-60.93604 2.6629,-25.77799 21.5759,-46.93299 46.896,-52.45601 3.45,-0.75199 6.247,-3.268 7.3589,-6.619 1.113,-3.351 0.376,-7.03998 -1.939,-9.70698 -16.3319,-18.81201 -19.3399,-45.76 -7.5579,-67.70999 11.7829,-21.951 35.9029,-34.33702 60.608,-31.12202 24.704,3.214 44.8519,21.36 50.6249,45.59501 0.732,3.072 2.872,5.61801 5.7721,6.867 2.901,1.24899 6.2209,1.055 8.9559,-0.52401 l 69.284,-40 C 2902.7239,510.20697 2542.834,302.41998 2150,286.03998 v 80 c 0,3.16 1.4918,6.13 4.0239,8.02 2.532,1.89 5.8068,2.47 8.8332,1.57 23.8742,-7.12 49.6629,1.25 64.7989,21.03999 15.136,19.79 16.47,46.87 3.351,68.05 -13.118,21.178 -37.9594,32.047 -62.4174,27.309 -3.4664,-0.671 -7.0301,0.535 -9.3758,3.174 -2.3458,2.639 -3.126,6.32 -2.0528,9.683 7.8773,24.689 -0.987,51.64601 -21.9798,66.84201 -20.9929,15.195 -49.3695,15.195 -70.3624,0 -20.9928,-15.196 -29.8571,-42.15301 -21.9798,-66.84201 1.0732,-3.363 0.293,-7.044 -2.0528,-9.683 -2.3457,-2.639 -5.9094,-3.845 -9.3758,-3.174 -24.458,4.738 -49.2994,-6.131 -62.4174,-27.309 -13.119,-21.18 -11.785,-48.26 3.351,-68.05 15.136,-19.78999 40.9247,-28.15999 64.7989,-21.03999 3.0264,0.9 6.3012,0.32 8.8332,-1.57 2.5321,-1.89 4.0239,-4.86 4.0239,-8.02 v -80 c -392.834,16.38 -752.724,224.16699 -963.33,556.17998 l 69.284,40 c 2.735,1.57901 6.055,1.773 8.956,0.52401 2.9,-1.24899 5.04,-3.795 5.772,-6.867 5.773,-24.23501 25.921,-42.38101 50.625,-45.59501 24.705,-3.215 48.825,9.17102 60.608,31.12202 11.782,21.94999 8.774,48.89798 -7.558,67.70999 -2.315,2.667 -3.052,6.35598 -1.939,9.70698 1.112,3.351 3.909,5.86701 7.359,6.619 25.32,5.52302 44.233,26.67802 46.896,52.45601 2.664,25.77804 -11.525,50.35304 -35.181,60.93604 -23.656,10.582 -51.433,4.781 -68.876,-14.386 -2.376,-2.611 -5.954,-3.776 -9.412,-3.064 -3.459,0.712 -6.285,3.195 -7.437,6.533 -8.126,23.55 -29.959,39.629 -54.86,40.4 -24.901,0.772 -47.688,-13.924 -57.257,-36.926 -9.57,-23.002 -3.93,-49.524 14.175,-66.64003 2.294,-2.17001 3.429,-5.29601 3.061,-8.43301 -0.369,-3.136 -2.197,-5.915 -4.932,-7.49401 l -69.284,-40 c -182.23,348.39505 -182.23,763.96105 0,1112.35595 l 69.284,-40 c 2.735,-1.5789 4.563,-4.3579 4.932,-7.4939 0.368,-3.137 -0.767,-6.263 -3.061,-8.433 -18.105,-17.116 -23.745,-43.638 -14.175,-66.64 9.569,-23.002 32.356,-37.698 57.257,-36.926 24.901,0.771 46.734,16.85 54.86,40.4 1.152,3.338 3.978,5.821 7.437,6.533 3.458,0.7119 7.036,-0.453 9.412,-3.064 17.443,-19.1671 45.22,-24.968 68.876,-14.386 23.656,10.583 37.845,35.158 35.181,60.936 -2.663,25.778 -21.576,46.933 -46.896,52.456 -3.45,0.752 -6.247,3.2679 -7.359,6.6189 -1.113,3.351 -0.376,7.0401 1.939,9.7071 16.332,18.812 19.34,45.76 7.558,67.71 -11.783,21.951 -35.903,34.337 -60.608,31.122 -24.704,-3.214 -44.852,-21.36 -50.625,-45.595 -0.732,-3.072 -2.872,-5.6181 -5.772,-6.867 -2.901,-1.249 -6.221,-1.055 -8.956,0.524 l -69.284,40 c 210.606,332.0129 570.496,539.7999 963.33,556.18 v -80 c 0,-3.16 -1.4918,-6.13 -4.0239,-8.02 -2.532,-1.89 -5.8068,-2.4701 -8.8332,-1.5701 -23.8742,7.1201 -49.6629,-1.2499 -64.7989,-21.0399 -15.136,-19.79 -16.47,-46.87 -3.351,-68.05 13.118,-21.178 37.9594,-32.047 62.4174,-27.309 3.4664,0.671 7.0301,-0.5351 9.3758,-3.174 2.3458,-2.639 3.126,-6.32 2.0528,-9.683 -7.8773,-24.689 0.987,-51.6461 21.9798,-66.8421 20.9929,-15.1949 49.3695,-15.1949 70.3624,0 20.9928,15.196 29.8571,42.1531 21.9798,66.8421 -1.0732,3.363 -0.293,7.044 2.0528,9.683 2.3457,2.6389 5.9094,3.845 9.3758,3.174 24.458,-4.738 49.2994,6.131 62.4174,27.309 13.119,21.18 11.785,48.26 -3.351,68.05 -15.136,19.79 -40.9247,28.16 -64.7989,21.0399 -3.0264,-0.9 -6.3012,-0.3199 -8.8332,1.5701 -2.5321,1.89 -4.0239,4.86 -4.0239,8.02 v 80 c 392.834,-16.3801 752.7239,-224.1671 963.3299,-556.18 l -69.284,-40 c -2.735,-1.579 -6.0549,-1.773 -8.9559,-0.524 -2.9001,1.2489 -5.0401,3.795 -5.7721,6.867 -5.773,24.235 -25.9209,42.381 -50.6249,45.595 -24.7051,3.215 -48.8251,-9.171 -60.608,-31.122 -11.782,-21.95 -8.774,-48.898 7.5579,-67.71 2.315,-2.667 3.052,-6.3561 1.939,-9.7071 -1.1119,-3.351 -3.9089,-5.8669 -7.3589,-6.6189 -25.3201,-5.523 -44.2331,-26.678 -46.896,-52.456 -2.664,-25.778 11.5249,-50.353 35.1809,-60.936 23.656,-10.582 51.4331,-4.7811 68.8761,14.386 2.3759,2.611 5.954,3.7759 9.412,3.064 3.459,-0.712 6.285,-3.195 7.4369,-6.533 8.1261,-23.55 29.9591,-39.629 54.8601,-40.4 24.9009,-0.772 47.688,13.924 57.257,36.926 9.57,23.002 3.9299,49.524 -14.175,66.64 -2.294,2.17 -3.429,5.296 -3.061,8.433 0.3689,3.136 2.197,5.915 4.932,7.4939" />
    <path
       inkscape:connector-curvature="0"
       style="font-style:normal;font-weight:400;font-size:medium;font-family:'Sans Serif';vector-effect:non-scaling-stroke;fill:#ffffff;fill-opacity:1;fill-rule:evenodd;stroke:#000000;stroke-width:1;stroke-opacity:1"
       id="path82"
       d="m 3046.4929,1138.254 c 21.077,0.855 39.35,14.845 45.6741,34.969 16.133,51.338 28.2529,103.849 36.263,157.063 5.09,33.873 8.5099,67.9778 10.2399,102.1887 0.69,13.6817 -4.26,27.0479 -13.7,36.9763 -9.4399,9.9283 -22.53,15.549 -36.2329,15.549 H 1111.263 c -13.703,0 -26.793,-5.6207 -36.233,-15.549 -9.44,-9.9284 -14.39,-23.2946 -13.7,-36.9763 1.73,-34.2109 5.15,-68.3157 10.24,-102.1887 8.01,-53.214 20.13,-105.725 36.263,-157.063 6.324,-20.124 24.597,-34.114 45.674,-34.969 20.215,-0.82 39.812,-7.199 56.636,-18.436 10.829,-7.232 24.052,-9.954 36.857,-7.588 45.8,8.465 91.966,-12.832 115.254,-53.168 23.288,-40.336 18.648,-90.96604 -11.582,-126.39703 -8.452,-9.906 -12.706,-22.719 -11.857,-35.71301 1.319,-20.188 -2.955,-40.34898 -12.353,-58.26598 -9.798,-18.68102 -6.818,-41.50101 7.448,-57.04002 36.393,-39.639 75.808,-76.39399 117.89,-109.933 81.109,-64.64599 171.433,-116.79398 267.973,-154.71499 50.087,-19.674 101.625,-35.428 154.15,-47.128 20.59,-4.59 41.843,4.24 53.122,22.07 10.817,17.096 26.14,30.878 44.283,39.83 11.678,5.762 20.647,15.852 25,28.125 15.5693,43.89599 57.0965,73.22899 103.672,73.22899 46.5755,0 88.1027,-29.333 103.672,-73.22899 4.353,-12.273 13.322,-22.363 25,-28.125 18.143,-8.952 33.466,-22.734 44.283,-39.83 11.279,-17.83 32.532,-26.66 53.122,-22.07 52.525,11.7 104.063,27.454 154.15,47.128 96.54,37.92101 186.8639,90.069 267.9729,154.71499 42.0821,33.53901 81.4971,70.294 117.89,109.933 14.2661,15.53901 17.2461,38.359 7.448,57.04002 -9.398,17.917 -13.672,38.07798 -12.353,58.26598 0.8491,12.99401 -3.405,25.80701 -11.8569,35.71301 -30.23,35.43099 -34.87,86.06103 -11.582,126.39703 23.2879,40.336 69.454,61.633 115.254,53.168 12.805,-2.366 26.028,0.356 36.857,7.588 16.824,11.237 36.421,17.616 56.6359,18.436" />
    <path
       inkscape:connector-curvature="0"
       style="font-style:normal;font-weight:400;font-size:medium;font-family:'Sans Serif';vector-effect:non-scaling-stroke;fill:#ffffff;fill-opacity:1;fill-rule:evenodd;stroke:#000000;stroke-width:1;stroke-opacity:1"
       id="path98"
       d="m 1153.507,1831.746 c -21.077,-0.855 -39.35,-14.845 -45.674,-34.969 -16.133,-51.338 -28.253,-103.849 -36.263,-157.063 -2.68,-17.815 -4.89,-35.698 -6.65,-53.629 -1.27,-13.0734 3.03,-26.0779 11.86,-35.8071 8.82,-9.7293 21.35,-15.2779 34.483,-15.2779 h 1977.474 c 13.1329,0 25.663,5.5486 34.4829,15.2779 8.8301,9.7292 13.13,22.7337 11.86,35.8071 -1.7599,17.931 -3.9699,35.814 -6.6499,53.629 -8.0101,53.214 -20.13,105.725 -36.263,157.063 -6.3241,20.124 -24.5971,34.114 -45.6741,34.969 -20.2149,0.8199 -39.8119,7.199 -56.6359,18.436 -10.829,7.2319 -24.052,9.954 -36.857,7.588 -45.8,-8.465 -91.9661,12.832 -115.254,53.168 -23.288,40.336 -18.648,90.966 11.582,126.397 8.4519,9.906 12.706,22.719 11.8569,35.713 -1.319,20.188 2.955,40.3489 12.353,58.266 9.7981,18.681 6.8181,41.501 -7.448,57.04 -36.3929,39.639 -75.8079,76.394 -117.89,109.933 -81.109,64.646 -171.4329,116.794 -267.9729,154.715 -50.087,19.674 -101.625,35.428 -154.15,47.1279 -20.59,4.5901 -41.843,-4.24 -53.122,-22.0699 -10.817,-17.096 -26.14,-30.8781 -44.283,-39.83 -11.678,-5.762 -20.647,-15.8521 -25,-28.125 -15.5693,-43.8961 -57.0965,-73.229 -103.672,-73.229 -46.5755,0 -88.1027,29.3329 -103.672,73.229 -4.353,12.2729 -13.322,22.363 -25,28.125 -18.143,8.9519 -33.466,22.734 -44.283,39.83 -11.279,17.8299 -32.532,26.66 -53.122,22.0699 -52.525,-11.6999 -104.063,-27.4539 -154.15,-47.1279 -96.54,-37.921 -186.864,-90.069 -267.973,-154.715 -42.082,-33.539 -81.497,-70.294 -117.89,-109.933 -14.266,-15.539 -17.246,-38.359 -7.448,-57.04 9.398,-17.9171 13.672,-38.078 12.353,-58.266 -0.849,-12.994 3.405,-25.807 11.857,-35.713 30.23,-35.431 34.87,-86.061 11.582,-126.397 -23.288,-40.336 -69.454,-61.633 -115.254,-53.168 -12.805,2.366 -26.028,-0.3561 -36.857,-7.588 -16.824,-11.237 -36.421,-17.6161 -56.636,-18.436" />
    <path
       inkscape:connector-curvature="0"
       style="font-style:normal;font-weight:400;font-size:medium;font-family:'Sans Serif';vector-effect:non-scaling-stroke;fill:#ffffff;fill-opacity:1;fill-rule:evenodd;stroke:#000000;stroke-width:1;stroke-opacity:1"
       id="path162"
       d="m 1057.52,1849.636 c 0,9.113 -7.39,16.5 -16.5,16.5 -9.11,0 -16.5,-7.387 -16.5,-16.5 0,-9.112 7.39,-16.5 16.5,-16.5 9.11,0 16.5,7.388 16.5,16.5" />
    <path
       inkscape:connector-curvature="0"
       style="font-style:normal;font-weight:400;font-size:medium;font-family:'Sans Serif';vector-effect:non-scaling-stroke;fill:#ffffff;fill-opacity:1;fill-rule:evenodd;stroke:#000000;stroke-width:1;stroke-opacity:1"
       id="path178"
       d="m 1057.52,1120.364 c 0,9.112 -7.39,16.5 -16.5,16.5 -9.11,0 -16.5,-7.388 -16.5,-16.5 0,-9.113 7.39,-16.5 16.5,-16.5 9.11,0 16.5,7.387 16.5,16.5" />
    <path
       inkscape:connector-curvature="0"
       style="font-style:normal;font-weight:400;font-size:medium;font-family:'Sans Serif';vector-effect:non-scaling-stroke;fill:#ffffff;fill-opacity:1;fill-rule:evenodd;stroke:#000000;stroke-width:1;stroke-opacity:1"
       id="path194"
       d="m 3175.4799,1120.364 c 0,9.112 -7.39,16.5 -16.5,16.5 -9.11,0 -16.5,-7.388 -16.5,-16.5 0,-9.113 7.39,-16.5 16.5,-16.5 9.11,0 16.5,7.387 16.5,16.5" />
    <path
       inkscape:connector-curvature="0"
       style="font-style:normal;font-weight:400;font-size:medium;font-family:'Sans Serif';vector-effect:non-scaling-stroke;fill:#ffffff;fill-opacity:1;fill-rule:evenodd;stroke:#000000;stroke-width:1;stroke-opacity:1"
       id="path210"
       d="m 1902.794,385.57997 c 0,9.11 -7.387,16.5 -16.5,16.5 -9.113,0 -16.5,-7.39 -16.5,-16.5 0,-9.11999 7.387,-16.49999 16.5,-16.49999 9.113,0 16.5,7.38 16.5,16.49999" />
    <path
       inkscape:connector-curvature="0"
       style="font-style:normal;font-weight:400;font-size:medium;font-family:'Sans Serif';vector-effect:non-scaling-stroke;fill:#ffffff;fill-opacity:1;fill-rule:evenodd;stroke:#000000;stroke-width:1;stroke-opacity:1"
       id="path226"
       d="m 2330.206,2584.4199 c 0,9.1201 -7.387,16.5 -16.5,16.5 -9.113,0 -16.5,-7.3799 -16.5,-16.5 0,-9.11 7.387,-16.5 16.5,-16.5 9.113,0 16.5,7.39 16.5,16.5" />
    <path
       inkscape:connector-curvature="0"
       style="font-style:normal;font-weight:400;font-size:medium;font-family:'Sans Serif';vector-effect:non-scaling-stroke;fill:#ffffff;fill-opacity:1;fill-rule:evenodd;stroke:#000000;stroke-width:1;stroke-opacity:1"
       id="path242"
       d="m 1902.794,2584.4199 c 0,9.1201 -7.387,16.5 -16.5,16.5 -9.113,0 -16.5,-7.3799 -16.5,-16.5 0,-9.11 7.387,-16.5 16.5,-16.5 9.113,0 16.5,7.39 16.5,16.5" />
    <path
       inkscape:connector-curvature="0"
       style="font-style:normal;font-weight:400;font-size:medium;font-family:'Sans Serif';vector-effect:non-scaling-stroke;fill:#ffffff;fill-opacity:1;fill-rule:evenodd;stroke:#000000;stroke-width:1;stroke-opacity:1"
       id="path258"
       d="m 2961.7749,2219.786 c 0,9.113 -7.3879,16.5 -16.4999,16.5 -9.113,0 -16.5,-7.387 -16.5,-16.5 0,-9.113 7.387,-16.5 16.5,-16.5 9.112,0 16.4999,7.387 16.4999,16.5" />
    <path
       inkscape:connector-curvature="0"
       style="font-style:normal;font-weight:400;font-size:medium;font-family:'Sans Serif';vector-effect:non-scaling-stroke;fill:#ffffff;fill-opacity:1;fill-rule:evenodd;stroke:#000000;stroke-width:1;stroke-opacity:1"
       id="path274"
       d="m 3175.4799,1849.636 c 0,9.113 -7.39,16.5 -16.5,16.5 -9.11,0 -16.5,-7.387 -16.5,-16.5 0,-9.112 7.39,-16.5 16.5,-16.5 9.11,0 16.5,7.388 16.5,16.5" />
    <path
       inkscape:connector-curvature="0"
       style="font-style:normal;font-weight:400;font-size:medium;font-family:'Sans Serif';vector-effect:non-scaling-stroke;fill:#ffffff;fill-opacity:1;fill-rule:evenodd;stroke:#000000;stroke-width:1;stroke-opacity:1"
       id="path290"
       d="m 2330.206,385.57997 c 0,9.11 -7.387,16.5 -16.5,16.5 -9.113,0 -16.5,-7.39 -16.5,-16.5 0,-9.11999 7.387,-16.49999 16.5,-16.49999 9.113,0 16.5,7.38 16.5,16.49999" />
    <path
       inkscape:connector-curvature="0"
       style="font-style:normal;font-weight:400;font-size:medium;font-family:'Sans Serif';vector-effect:non-scaling-stroke;fill:#ffffff;fill-opacity:1;fill-rule:evenodd;stroke:#000000;stroke-width:1;stroke-opacity:1"
       id="path306"
       d="m 2961.7749,750.21397 c 0,9.11299 -7.3879,16.5 -16.4999,16.5 -9.113,0 -16.5,-7.38701 -16.5,-16.5 0,-9.11299 7.387,-16.5 16.5,-16.5 9.112,0 16.4999,7.38701 16.4999,16.5" />
    <path
       inkscape:connector-curvature="0"
       style="font-style:normal;font-weight:400;font-size:medium;font-family:'Sans Serif';vector-effect:non-scaling-stroke;fill:#ffffff;fill-opacity:1;fill-rule:evenodd;stroke:#000000;stroke-width:1;stroke-opacity:1"
       id="path322"
       d="m 1271.225,750.21397 c 0,9.11299 -7.387,16.5 -16.5,16.5 -9.112,0 -16.5,-7.38701 -16.5,-16.5 0,-9.11299 7.388,-16.5 16.5,-16.5 9.113,0 16.5,7.38701 16.5,16.5" />
    <path
       inkscape:connector-curvature="0"
       style="font-style:normal;font-weight:400;font-size:medium;font-family:'Sans Serif';vector-effect:non-scaling-stroke;fill:#ffffff;fill-opacity:1;fill-rule:evenodd;stroke:#000000;stroke-width:1;stroke-opacity:1"
       id="path338"
       d="m 1271.225,2219.786 c 0,9.113 -7.387,16.5 -16.5,16.5 -9.112,0 -16.5,-7.387 -16.5,-16.5 0,-9.113 7.388,-16.5 16.5,-16.5 9.113,0 16.5,7.387 16.5,16.5" />
  </g>
</svg>
