  0
SECTION
  2
HEADER
  9
$ACADVER
  1
AC1014
  9
$HANDSEED
  5
FFFF
  9
$MEASUREMENT
 70
     1
  0
ENDSEC
  0
SECTION
  2
TABLES
  0
TABLE
  2
VPORT
  5
8
330
0
100
AcDbSymbolTable
 70
     4
  0
VPORT
  5
2E
330
8
100
AcDbSymbolTableRecord
100
AcDbViewportTableRecord
  2
*ACTIVE
 70
     0
 10
0.0
 20
0.0
 11
1.0
 21
1.0
 12
210.0
 22
148.5
 13
0.0
 23
0.0
 14
10.0
 24
10.0
 15
10.0
 25
10.0
 16
0.0
 26
0.0
 36
1.0
 17
0.0
 27
0.0
 37
0.0
 40
341.0
 41
1.24
 42
50.0
 43
0.0
 44
0.0
 50
0.0
 51
0.0
 71
     0
 72
   100
 73
     1
 74
     3
 75
     0
 76
     0
 77
     0
 78
     0
  0
ENDTAB
  0
TABLE
  2
LTYPE
  5
5
330
0
100
AcDbSymbolTable
 70
     1
  0
LTYPE
  5
14
330
5
100
AcDbSymbolTableRecord
100
AcDbLinetypeTableRecord
  2
BYBLOCK
 70
     0
  3

 72
    65
 73
     0
 40
0.0
  0
LTYPE
  5
15
330
5
100
AcDbSymbolTableRecord
100
AcDbLinetypeTableRecord
  2
BYLAYER
 70
     0
  3

 72
    65
 73
     0
 40
0.0
  0
LTYPE
  5
16
330
5
100
AcDbSymbolTableRecord
100
AcDbLinetypeTableRecord
  2
CONTINUOUS
 70
     0
  3
Solid line
 72
    65
 73
     0
 40
0.0
  0
ENDTAB
  0
TABLE
  2
LAYER
  5
2
100
AcDbSymbolTable
 70
1
  0
LAYER
  5
50
100
AcDbSymbolTableRecord
100
AcDbLayerTableRecord
  2
0
 70
0
  6
CONTINUOUS
  0
ENDTAB
  0
TABLE
  2
STYLE
  5
3
330
0
100
AcDbSymbolTable
 70
     1
  0
STYLE
  5
11
330
3
100
AcDbSymbolTableRecord
100
AcDbTextStyleTableRecord
  2
STANDARD
 70
     0
 40
0.0
 41
1.0
 50
0.0
 71
     0
 42
2.5
  3
txt
  4

  0
ENDTAB
  0
TABLE
  2
VIEW
  5
6
330
0
100
AcDbSymbolTable
 70
     0
  0
ENDTAB
  0
TABLE
  2
UCS
  5
7
330
0
100
AcDbSymbolTable
 70
     0
  0
ENDTAB
  0
TABLE
  2
APPID
  5
9
330
0
100
AcDbSymbolTable
 70
     2
  0
APPID
  5
12
330
9
100
AcDbSymbolTableRecord
100
AcDbRegAppTableRecord
  2
ACAD
 70
     0
  0
ENDTAB
  0
TABLE
  2
DIMSTYLE
  5
A
330
0
100
AcDbSymbolTable
 70
     1
  0
DIMSTYLE
105
27
330
A
100
AcDbSymbolTableRecord
100
AcDbDimStyleTableRecord
  2
ISO-25
 70
     0
  3

  4

  5

  6

  7

 40
1.0
 41
2.5
 42
0.625
 43
3.75
 44
1.25
 45
0.0
 46
0.0
 47
0.0
 48
0.0
140
2.5
141
2.5
142
0.0
143
0.03937007874016
144
1.0
145
0.0
146
1.0
147
0.625
 71
     0
 72
     0
 73
     0
 74
     0
 75
     0
 76
     0
 77
     1
 78
     8
170
     0
171
     3
172
     1
173
     0
174
     0
175
     0
176
     0
177
     0
178
     0
270
     2
271
     2
272
     2
273
     2
274
     3
340
11
275
     0
280
     0
281
     0
282
     0
283
     0
284
     8
285
     0
286
     0
287
     3
288
     0
  0
ENDTAB
  0
TABLE
  2
BLOCK_RECORD
  5
1
330
0
100
AcDbSymbolTable
 70
     1
  0
BLOCK_RECORD
  5
1F
330
1
100
AcDbSymbolTableRecord
100
AcDbBlockTableRecord
  2
*MODEL_SPACE
  0
BLOCK_RECORD
  5
1B
330
1
100
AcDbSymbolTableRecord
100
AcDbBlockTableRecord
  2
*PAPER_SPACE
  0
ENDTAB
  0
ENDSEC
  0
SECTION
  2
BLOCKS
  0
BLOCK
  5
20
330
1F
100
AcDbEntity
  8
0
100
AcDbBlockBegin
  2
*MODEL_SPACE
 70
     0
 10
0.0
 20
0.0
 30
0.0
  3
*MODEL_SPACE
  1

  0
ENDBLK
  5
21
330
1F
100
AcDbEntity
  8
0
100
AcDbBlockEnd
  0
BLOCK
  5
1C
330
1B
100
AcDbEntity
 67
     1
  8
0
100
AcDbBlockBegin
  2
*PAPER_SPACE
  1

  0
ENDBLK
  5
1D
330
1B
100
AcDbEntity
 67
     1
  8
0
100
AcDbBlockEnd
  0
ENDSEC
  0
SECTION
  2
ENTITIES
  0
LINE
  5
100
100
AcDbEntity
  8
0
 62
7
100
AcDbLine
 10
818.633004
 20
-232.478319
 30
0.0
 11
836.964396
 21
-243.061653
 31
0.0
  0
SPLINE
  5
101
100
AcDbEntity
  8
0
 62
7
100
AcDbSpline
 70
8
 71
3
 72
8
 73
4
 74
0
 40
0
 40
0
 40
0
 40
0
 40
1
 40
1
 40
1
 40
1
 10
836.964396
 20
-243.061653
 30
0.0
 10
860.718688
 20
-197.647273
 30
0.0
 10
873.124974
 20
-147.157629
 30
0.0
 10
873.124974
 20
-95.906250
 30
0.0
  0
SPLINE
  5
102
100
AcDbEntity
  8
0
 62
7
100
AcDbSpline
 70
8
 71
3
 72
8
 73
4
 74
0
 40
0
 40
0
 40
0
 40
0
 40
1
 40
1
 40
1
 40
1
 10
873.124974
 20
-95.906250
 30
0.0
 10
873.124974
 20
-44.654871
 30
0.0
 10
860.718687
 20
5.834773
 30
0.0
 10
836.964396
 20
51.249192
 30
0.0
  0
LINE
  5
103
100
AcDbEntity
  8
0
 62
7
100
AcDbLine
 10
836.964396
 20
51.249192
 30
0.0
 11
818.633004
 21
40.665859
 31
0.0
  0
SPLINE
  5
104
100
AcDbEntity
  8
0
 62
7
100
AcDbSpline
 70
8
 71
3
 72
8
 73
4
 74
0
 40
0
 40
0
 40
0
 40
0
 40
1
 40
1
 40
1
 40
1
 10
818.633004
 20
40.665859
 30
0.0
 10
817.909369
 20
40.248079
 30
0.0
 10
817.425684
 20
39.512802
 30
0.0
 10
817.328079
 20
38.683069
 30
0.0
  0
SPLINE
  5
105
100
AcDbEntity
  8
0
 62
7
100
AcDbSpline
 70
8
 71
3
 72
8
 73
4
 74
0
 40
0
 40
0
 40
0
 40
0
 40
1
 40
1
 40
1
 40
1
 10
817.328079
 20
38.683069
 30
0.0
 10
817.230712
 20
37.853071
 30
0.0
 10
817.531015
 20
37.025984
 30
0.0
 10
818.137969
 20
36.451835
 30
0.0
  0
SPLINE
  5
106
100
AcDbEntity
  8
0
 62
7
100
AcDbSpline
 70
8
 71
3
 72
8
 73
4
 74
0
 40
0
 40
0
 40
0
 40
0
 40
1
 40
1
 40
1
 40
1
 10
818.137969
 20
36.451835
 30
0.0
 10
822.928224
 20
31.923219
 30
0.0
 10
824.420500
 20
24.905940
 30
0.0
 10
821.888438
 20
18.819994
 30
0.0
  0
SPLINE
  5
107
100
AcDbEntity
  8
0
 62
7
100
AcDbSpline
 70
8
 71
3
 72
8
 73
4
 74
0
 40
0
 40
0
 40
0
 40
0
 40
1
 40
1
 40
1
 40
1
 10
821.888438
 20
18.819994
 30
0.0
 10
819.356640
 20
12.734048
 30
0.0
 10
813.327553
 20
8.845731
 30
0.0
 10
806.739190
 20
9.049990
 30
0.0
  0
SPLINE
  5
108
100
AcDbEntity
  8
0
 62
7
100
AcDbSpline
 70
8
 71
3
 72
8
 73
4
 74
0
 40
0
 40
0
 40
0
 40
0
 40
1
 40
1
 40
1
 40
1
 10
806.739190
 20
9.049990
 30
0.0
 10
800.150800
 20
9.253983
 30
0.0
 10
794.374152
 20
13.508219
 30
0.0
 10
792.224121
 20
19.739156
 30
0.0
  0
SPLINE
  5
109
100
AcDbEntity
  8
0
 62
7
100
AcDbSpline
 70
8
 71
3
 72
8
 73
4
 74
0
 40
0
 40
0
 40
0
 40
0
 40
1
 40
1
 40
1
 40
1
 10
792.224121
 20
19.739156
 30
0.0
 10
791.919348
 20
20.622335
 30
0.0
 10
791.171635
 20
21.279296
 30
0.0
 10
790.256442
 20
21.467679
 30
0.0
  0
SPLINE
  5
10a
100
AcDbEntity
  8
0
 62
7
100
AcDbSpline
 70
8
 71
3
 72
8
 73
4
 74
0
 40
0
 40
0
 40
0
 40
0
 40
1
 40
1
 40
1
 40
1
 10
790.256442
 20
21.467679
 30
0.0
 10
789.341513
 20
21.656063
 30
0.0
 10
788.394807
 20
21.347823
 30
0.0
 10
787.766183
 20
20.656996
 30
0.0
  0
SPLINE
  5
10b
100
AcDbEntity
  8
0
 62
7
100
AcDbSpline
 70
8
 71
3
 72
8
 73
4
 74
0
 40
0
 40
0
 40
0
 40
0
 40
1
 40
1
 40
1
 40
1
 10
787.766183
 20
20.656996
 30
0.0
 10
783.151056
 20
15.585727
 30
0.0
 10
775.801699
 20
14.050879
 30
0.0
 10
769.542715
 20
16.850700
 30
0.0
  0
SPLINE
  5
10c
100
AcDbEntity
  8
0
 62
7
100
AcDbSpline
 70
8
 71
3
 72
8
 73
4
 74
0
 40
0
 40
0
 40
0
 40
0
 40
1
 40
1
 40
1
 40
1
 10
769.542715
 20
16.850700
 30
0.0
 10
763.283732
 20
19.650785
 30
0.0
 10
759.529585
 20
26.152921
 30
0.0
 10
760.234435
 20
32.973361
 30
0.0
  0
SPLINE
  5
10d
100
AcDbEntity
  8
0
 62
7
100
AcDbSpline
 70
8
 71
3
 72
8
 73
4
 74
0
 40
0
 40
0
 40
0
 40
0
 40
1
 40
1
 40
1
 40
1
 10
760.234435
 20
32.973361
 30
0.0
 10
760.938994
 20
39.793787
 30
0.0
 10
765.943059
 20
45.391048
 30
0.0
 10
772.642335
 20
46.852347
 30
0.0
  0
SPLINE
  5
10e
100
AcDbEntity
  8
0
 62
7
100
AcDbSpline
 70
8
 71
3
 72
8
 73
4
 74
0
 40
0
 40
0
 40
0
 40
0
 40
1
 40
1
 40
1
 40
1
 10
772.642335
 20
46.852347
 30
0.0
 10
773.555148
 20
47.051311
 30
0.0
 10
774.295188
 20
47.717005
 30
0.0
 10
774.589378
 20
48.603624
 30
0.0
  0
SPLINE
  5
10f
100
AcDbEntity
  8
0
 62
7
100
AcDbSpline
 70
8
 71
3
 72
8
 73
4
 74
0
 40
0
 40
0
 40
0
 40
0
 40
1
 40
1
 40
1
 40
1
 10
774.589378
 20
48.603624
 30
0.0
 10
774.883859
 20
49.490242
 30
0.0
 10
774.688861
 20
50.466285
 30
0.0
 10
774.076351
 20
51.171929
 30
0.0
  0
SPLINE
  5
110
100
AcDbEntity
  8
0
 62
7
100
AcDbSpline
 70
8
 71
3
 72
8
 73
4
 74
0
 40
0
 40
0
 40
0
 40
0
 40
1
 40
1
 40
1
 40
1
 10
774.076351
 20
51.171929
 30
0.0
 10
769.755202
 20
56.149273
 30
0.0
 10
768.959335
 20
63.279262
 30
0.0
 10
772.076656
 20
69.086864
 30
0.0
  0
SPLINE
  5
111
100
AcDbEntity
  8
0
 62
7
100
AcDbSpline
 70
8
 71
3
 72
8
 73
4
 74
0
 40
0
 40
0
 40
0
 40
0
 40
1
 40
1
 40
1
 40
1
 10
772.076656
 20
69.086864
 30
0.0
 10
775.194215
 20
74.894732
 30
0.0
 10
781.575965
 20
78.171867
 30
0.0
 10
788.112523
 20
77.321231
 30
0.0
  0
SPLINE
  5
112
100
AcDbEntity
  8
0
 62
7
100
AcDbSpline
 70
8
 71
3
 72
8
 73
4
 74
0
 40
0
 40
0
 40
0
 40
0
 40
1
 40
1
 40
1
 40
1
 10
788.112523
 20
77.321231
 30
0.0
 10
794.648790
 20
76.470861
 30
0.0
 10
799.979588
 20
71.669731
 30
0.0
 10
801.507028
 20
65.257552
 30
0.0
  0
SPLINE
  5
113
100
AcDbEntity
  8
0
 62
7
100
AcDbSpline
 70
8
 71
3
 72
8
 73
4
 74
0
 40
0
 40
0
 40
0
 40
0
 40
1
 40
1
 40
1
 40
1
 10
801.507028
 20
65.257552
 30
0.0
 10
801.700703
 20
64.444752
 30
0.0
 10
802.266911
 20
63.771120
 30
0.0
 10
803.034229
 20
63.440658
 30
0.0
  0
SPLINE
  5
114
100
AcDbEntity
  8
0
 62
7
100
AcDbSpline
 70
8
 71
3
 72
8
 73
4
 74
0
 40
0
 40
0
 40
0
 40
0
 40
1
 40
1
 40
1
 40
1
 10
803.034229
 20
63.440658
 30
0.0
 10
803.801785
 20
63.110196
 30
0.0
 10
804.680176
 20
63.161523
 30
0.0
 10
805.403811
 20
63.579302
 30
0.0
  0
LINE
  5
115
100
AcDbEntity
  8
0
 62
7
100
AcDbLine
 10
805.403811
 20
63.579302
 30
0.0
 11
823.735203
 21
74.162636
 31
0.0
  0
SPLINE
  5
116
100
AcDbEntity
  8
0
 62
7
100
AcDbSpline
 70
8
 71
3
 72
8
 73
4
 74
0
 40
0
 40
0
 40
0
 40
0
 40
1
 40
1
 40
1
 40
1
 10
823.735203
 20
74.162636
 30
0.0
 10
768.012365
 20
162.007739
 30
0.0
 10
672.791496
 20
216.984714
 30
0.0
 10
568.854167
 20
221.318589
 30
0.0
  0
LINE
  5
117
100
AcDbEntity
  8
0
 62
7
100
AcDbLine
 10
568.854167
 20
221.318589
 30
0.0
 11
568.854167
 21
200.151922
 31
0.0
  0
SPLINE
  5
118
100
AcDbEntity
  8
0
 62
7
100
AcDbSpline
 70
8
 71
3
 72
8
 73
4
 74
0
 40
0
 40
0
 40
0
 40
0
 40
1
 40
1
 40
1
 40
1
 10
568.854167
 20
200.151922
 30
0.0
 10
568.854167
 20
199.315839
 30
0.0
 10
569.248872
 20
198.530026
 30
0.0
 10
569.918824
 20
198.029964
 30
0.0
  0
SPLINE
  5
119
100
AcDbEntity
  8
0
 62
7
100
AcDbSpline
 70
8
 71
3
 72
8
 73
4
 74
0
 40
0
 40
0
 40
0
 40
0
 40
1
 40
1
 40
1
 40
1
 10
569.918824
 20
198.029964
 30
0.0
 10
570.588749
 20
197.529901
 30
0.0
 10
571.455206
 20
197.376443
 30
0.0
 10
572.255941
 20
197.614568
 30
0.0
  0
SPLINE
  5
11a
100
AcDbEntity
  8
0
 62
7
100
AcDbSpline
 70
8
 71
3
 72
8
 73
4
 74
0
 40
0
 40
0
 40
0
 40
0
 40
1
 40
1
 40
1
 40
1
 10
572.255941
 20
197.614568
 30
0.0
 10
578.572656
 20
199.498401
 30
0.0
 10
585.395917
 20
197.283839
 30
0.0
 10
589.400650
 20
192.047737
 30
0.0
  0
SPLINE
  5
11b
100
AcDbEntity
  8
0
 62
7
100
AcDbSpline
 70
8
 71
3
 72
8
 73
4
 74
0
 40
0
 40
0
 40
0
 40
0
 40
1
 40
1
 40
1
 40
1
 10
589.400650
 20
192.047737
 30
0.0
 10
593.405383
 20
186.811633
 30
0.0
 10
593.758337
 20
179.646716
 30
0.0
 10
590.287269
 20
174.042841
 30
0.0
  0
SPLINE
  5
11c
100
AcDbEntity
  8
0
 62
7
100
AcDbSpline
 70
8
 71
3
 72
8
 73
4
 74
0
 40
0
 40
0
 40
0
 40
0
 40
1
 40
1
 40
1
 40
1
 10
590.287269
 20
174.042841
 30
0.0
 10
586.816465
 20
168.439495
 30
0.0
 10
580.243844
 20
165.563739
 30
0.0
 10
573.772665
 20
166.817335
 30
0.0
  0
SPLINE
  5
11d
100
AcDbEntity
  8
0
 62
7
100
AcDbSpline
 70
8
 71
3
 72
8
 73
4
 74
0
 40
0
 40
0
 40
0
 40
0
 40
1
 40
1
 40
1
 40
1
 10
573.772665
 20
166.817335
 30
0.0
 10
572.855513
 20
166.994870
 30
0.0
 10
571.912618
 20
166.675783
 30
0.0
 10
571.291985
 20
165.977548
 30
0.0
  0
SPLINE
  5
11e
100
AcDbEntity
  8
0
 62
7
100
AcDbSpline
 70
8
 71
3
 72
8
 73
4
 74
0
 40
0
 40
0
 40
0
 40
0
 40
1
 40
1
 40
1
 40
1
 10
571.291985
 20
165.977548
 30
0.0
 10
570.671325
 20
165.279312
 30
0.0
 10
570.464897
 20
164.305381
 30
0.0
 10
570.748848
 20
163.415587
 30
0.0
  0
SPLINE
  5
11f
100
AcDbEntity
  8
0
 62
7
100
AcDbSpline
 70
8
 71
3
 72
8
 73
4
 74
0
 40
0
 40
0
 40
0
 40
0
 40
1
 40
1
 40
1
 40
1
 10
570.748848
 20
163.415587
 30
0.0
 10
572.833050
 20
156.883289
 30
0.0
 10
570.487704
 20
149.750914
 30
0.0
 10
564.933359
 20
145.730305
 30
0.0
  0
SPLINE
  5
120
100
AcDbEntity
  8
0
 62
7
100
AcDbSpline
 70
8
 71
3
 72
8
 73
4
 74
0
 40
0
 40
0
 40
0
 40
0
 40
1
 40
1
 40
1
 40
1
 10
564.933359
 20
145.730305
 30
0.0
 10
559.378988
 20
141.709962
 30
0.0
 10
551.871012
 20
141.709962
 30
0.0
 10
546.316641
 20
145.730305
 30
0.0
  0
SPLINE
  5
121
100
AcDbEntity
  8
0
 62
7
100
AcDbSpline
 70
8
 71
3
 72
8
 73
4
 74
0
 40
0
 40
0
 40
0
 40
0
 40
1
 40
1
 40
1
 40
1
 10
546.316641
 20
145.730305
 30
0.0
 10
540.762296
 20
149.750914
 30
0.0
 10
538.416950
 20
156.883289
 30
0.0
 10
540.501152
 20
163.415587
 30
0.0
  0
SPLINE
  5
122
100
AcDbEntity
  8
0
 62
7
100
AcDbSpline
 70
8
 71
3
 72
8
 73
4
 74
0
 40
0
 40
0
 40
0
 40
0
 40
1
 40
1
 40
1
 40
1
 10
540.501152
 20
163.415587
 30
0.0
 10
540.785103
 20
164.305381
 30
0.0
 10
540.578675
 20
165.279312
 30
0.0
 10
539.958015
 20
165.977548
 30
0.0
  0
SPLINE
  5
123
100
AcDbEntity
  8
0
 62
7
100
AcDbSpline
 70
8
 71
3
 72
8
 73
4
 74
0
 40
0
 40
0
 40
0
 40
0
 40
1
 40
1
 40
1
 40
1
 10
539.958015
 20
165.977548
 30
0.0
 10
539.337382
 20
166.675783
 30
0.0
 10
538.394487
 20
166.994870
 30
0.0
 10
537.477335
 20
166.817335
 30
0.0
  0
SPLINE
  5
124
100
AcDbEntity
  8
0
 62
7
100
AcDbSpline
 70
8
 71
3
 72
8
 73
4
 74
0
 40
0
 40
0
 40
0
 40
0
 40
1
 40
1
 40
1
 40
1
 10
537.477335
 20
166.817335
 30
0.0
 10
531.006156
 20
165.563739
 30
0.0
 10
524.433535
 20
168.439495
 30
0.0
 10
520.962731
 20
174.042841
 30
0.0
  0
SPLINE
  5
125
100
AcDbEntity
  8
0
 62
7
100
AcDbSpline
 70
8
 71
3
 72
8
 73
4
 74
0
 40
0
 40
0
 40
0
 40
0
 40
1
 40
1
 40
1
 40
1
 10
520.962731
 20
174.042841
 30
0.0
 10
517.491663
 20
179.646716
 30
0.0
 10
517.844617
 20
186.811633
 30
0.0
 10
521.849350
 20
192.047737
 30
0.0
  0
SPLINE
  5
126
100
AcDbEntity
  8
0
 62
7
100
AcDbSpline
 70
8
 71
3
 72
8
 73
4
 74
0
 40
0
 40
0
 40
0
 40
0
 40
1
 40
1
 40
1
 40
1
 10
521.849350
 20
192.047737
 30
0.0
 10
525.854083
 20
197.283839
 30
0.0
 10
532.677344
 20
199.498401
 30
0.0
 10
538.994059
 20
197.614568
 30
0.0
  0
SPLINE
  5
127
100
AcDbEntity
  8
0
 62
7
100
AcDbSpline
 70
8
 71
3
 72
8
 73
4
 74
0
 40
0
 40
0
 40
0
 40
0
 40
1
 40
1
 40
1
 40
1
 10
538.994059
 20
197.614568
 30
0.0
 10
539.794794
 20
197.376443
 30
0.0
 10
540.661251
 20
197.529901
 30
0.0
 10
541.331176
 20
198.029964
 30
0.0
  0
SPLINE
  5
128
100
AcDbEntity
  8
0
 62
7
100
AcDbSpline
 70
8
 71
3
 72
8
 73
4
 74
0
 40
0
 40
0
 40
0
 40
0
 40
1
 40
1
 40
1
 40
1
 10
541.331176
 20
198.029964
 30
0.0
 10
542.001128
 20
198.530026
 30
0.0
 10
542.395833
 20
199.315839
 30
0.0
 10
542.395833
 20
200.151922
 30
0.0
  0
LINE
  5
129
100
AcDbEntity
  8
0
 62
7
100
AcDbLine
 10
542.395833
 20
200.151922
 30
0.0
 11
542.395833
 21
221.318589
 31
0.0
  0
SPLINE
  5
12a
100
AcDbEntity
  8
0
 62
7
100
AcDbSpline
 70
8
 71
3
 72
8
 73
4
 74
0
 40
0
 40
0
 40
0
 40
0
 40
1
 40
1
 40
1
 40
1
 10
542.395833
 20
221.318589
 30
0.0
 10
438.458504
 20
216.984714
 30
0.0
 10
343.237608
 20
162.007739
 30
0.0
 10
287.514771
 20
74.162636
 30
0.0
  0
LINE
  5
12b
100
AcDbEntity
  8
0
 62
7
100
AcDbLine
 10
287.514771
 20
74.162636
 30
0.0
 11
305.846163
 21
63.579302
 31
0.0
  0
SPLINE
  5
12c
100
AcDbEntity
  8
0
 62
7
100
AcDbSpline
 70
8
 71
3
 72
8
 73
4
 74
0
 40
0
 40
0
 40
0
 40
0
 40
1
 40
1
 40
1
 40
1
 10
305.846163
 20
63.579302
 30
0.0
 10
306.569798
 20
63.161523
 30
0.0
 10
307.448215
 20
63.110196
 30
0.0
 10
308.215771
 20
63.440658
 30
0.0
  0
SPLINE
  5
12d
100
AcDbEntity
  8
0
 62
7
100
AcDbSpline
 70
8
 71
3
 72
8
 73
4
 74
0
 40
0
 40
0
 40
0
 40
0
 40
1
 40
1
 40
1
 40
1
 10
308.215771
 20
63.440658
 30
0.0
 10
308.983063
 20
63.771120
 30
0.0
 10
309.549271
 20
64.444752
 30
0.0
 10
309.742946
 20
65.257552
 30
0.0
  0
SPLINE
  5
12e
100
AcDbEntity
  8
0
 62
7
100
AcDbSpline
 70
8
 71
3
 72
8
 73
4
 74
0
 40
0
 40
0
 40
0
 40
0
 40
1
 40
1
 40
1
 40
1
 10
309.742946
 20
65.257552
 30
0.0
 10
311.270385
 20
71.669731
 30
0.0
 10
316.601210
 20
76.470861
 30
0.0
 10
323.137477
 20
77.321231
 30
0.0
  0
SPLINE
  5
12f
100
AcDbEntity
  8
0
 62
7
100
AcDbSpline
 70
8
 71
3
 72
8
 73
4
 74
0
 40
0
 40
0
 40
0
 40
0
 40
1
 40
1
 40
1
 40
1
 10
323.137477
 20
77.321231
 30
0.0
 10
329.674008
 20
78.171867
 30
0.0
 10
336.055758
 20
74.894732
 30
0.0
 10
339.173344
 20
69.086864
 30
0.0
  0
SPLINE
  5
130
100
AcDbEntity
  8
0
 62
7
100
AcDbSpline
 70
8
 71
3
 72
8
 73
4
 74
0
 40
0
 40
0
 40
0
 40
0
 40
1
 40
1
 40
1
 40
1
 10
339.173344
 20
69.086864
 30
0.0
 10
342.290665
 20
63.279262
 30
0.0
 10
341.494798
 20
56.149273
 30
0.0
 10
337.173623
 20
51.171929
 30
0.0
  0
SPLINE
  5
131
100
AcDbEntity
  8
0
 62
7
100
AcDbSpline
 70
8
 71
3
 72
8
 73
4
 74
0
 40
0
 40
0
 40
0
 40
0
 40
1
 40
1
 40
1
 40
1
 10
337.173623
 20
51.171929
 30
0.0
 10
336.561113
 20
50.466285
 30
0.0
 10
336.366115
 20
49.490242
 30
0.0
 10
336.660596
 20
48.603624
 30
0.0
  0
SPLINE
  5
132
100
AcDbEntity
  8
0
 62
7
100
AcDbSpline
 70
8
 71
3
 72
8
 73
4
 74
0
 40
0
 40
0
 40
0
 40
0
 40
1
 40
1
 40
1
 40
1
 10
336.660596
 20
48.603624
 30
0.0
 10
336.954813
 20
47.717005
 30
0.0
 10
337.694852
 20
47.051311
 30
0.0
 10
338.607665
 20
46.852347
 30
0.0
  0
SPLINE
  5
133
100
AcDbEntity
  8
0
 62
7
100
AcDbSpline
 70
8
 71
3
 72
8
 73
4
 74
0
 40
0
 40
0
 40
0
 40
0
 40
1
 40
1
 40
1
 40
1
 10
338.607665
 20
46.852347
 30
0.0
 10
345.306915
 20
45.391048
 30
0.0
 10
350.310979
 20
39.793787
 30
0.0
 10
351.015565
 20
32.973361
 30
0.0
  0
SPLINE
  5
134
100
AcDbEntity
  8
0
 62
7
100
AcDbSpline
 70
8
 71
3
 72
8
 73
4
 74
0
 40
0
 40
0
 40
0
 40
0
 40
1
 40
1
 40
1
 40
1
 10
351.015565
 20
32.973361
 30
0.0
 10
351.720415
 20
26.152921
 30
0.0
 10
347.966242
 20
19.650785
 30
0.0
 10
341.707258
 20
16.850700
 30
0.0
  0
SPLINE
  5
135
100
AcDbEntity
  8
0
 62
7
100
AcDbSpline
 70
8
 71
3
 72
8
 73
4
 74
0
 40
0
 40
0
 40
0
 40
0
 40
1
 40
1
 40
1
 40
1
 10
341.707258
 20
16.850700
 30
0.0
 10
335.448275
 20
14.050879
 30
0.0
 10
328.098944
 20
15.585727
 30
0.0
 10
323.483817
 20
20.656996
 30
0.0
  0
SPLINE
  5
136
100
AcDbEntity
  8
0
 62
7
100
AcDbSpline
 70
8
 71
3
 72
8
 73
4
 74
0
 40
0
 40
0
 40
0
 40
0
 40
1
 40
1
 40
1
 40
1
 10
323.483817
 20
20.656996
 30
0.0
 10
322.855167
 20
21.347823
 30
0.0
 10
321.908488
 20
21.656063
 30
0.0
 10
320.993558
 20
21.467679
 30
0.0
  0
SPLINE
  5
137
100
AcDbEntity
  8
0
 62
7
100
AcDbSpline
 70
8
 71
3
 72
8
 73
4
 74
0
 40
0
 40
0
 40
0
 40
0
 40
1
 40
1
 40
1
 40
1
 10
320.993558
 20
21.467679
 30
0.0
 10
320.078365
 20
21.279296
 30
0.0
 10
319.330652
 20
20.622335
 30
0.0
 10
319.025852
 20
19.739156
 30
0.0
  0
SPLINE
  5
138
100
AcDbEntity
  8
0
 62
7
100
AcDbSpline
 70
8
 71
3
 72
8
 73
4
 74
0
 40
0
 40
0
 40
0
 40
0
 40
1
 40
1
 40
1
 40
1
 10
319.025852
 20
19.739156
 30
0.0
 10
316.875848
 20
13.508219
 30
0.0
 10
311.099200
 20
9.253983
 30
0.0
 10
304.510810
 20
9.049990
 30
0.0
  0
SPLINE
  5
139
100
AcDbEntity
  8
0
 62
7
100
AcDbSpline
 70
8
 71
3
 72
8
 73
4
 74
0
 40
0
 40
0
 40
0
 40
0
 40
1
 40
1
 40
1
 40
1
 10
304.510810
 20
9.049990
 30
0.0
 10
297.922421
 20
8.845731
 30
0.0
 10
291.893360
 20
12.734048
 30
0.0
 10
289.361563
 20
18.819994
 30
0.0
  0
SPLINE
  5
13a
100
AcDbEntity
  8
0
 62
7
100
AcDbSpline
 70
8
 71
3
 72
8
 73
4
 74
0
 40
0
 40
0
 40
0
 40
0
 40
1
 40
1
 40
1
 40
1
 10
289.361563
 20
18.819994
 30
0.0
 10
286.829500
 20
24.905940
 30
0.0
 10
288.321750
 20
31.923219
 30
0.0
 10
293.112031
 20
36.451835
 30
0.0
  0
SPLINE
  5
13b
100
AcDbEntity
  8
0
 62
7
100
AcDbSpline
 70
8
 71
3
 72
8
 73
4
 74
0
 40
0
 40
0
 40
0
 40
0
 40
1
 40
1
 40
1
 40
1
 10
293.112031
 20
36.451835
 30
0.0
 10
293.718985
 20
37.025984
 30
0.0
 10
294.019288
 20
37.853071
 30
0.0
 10
293.921921
 20
38.683069
 30
0.0
  0
SPLINE
  5
13c
100
AcDbEntity
  8
0
 62
7
100
AcDbSpline
 70
8
 71
3
 72
8
 73
4
 74
0
 40
0
 40
0
 40
0
 40
0
 40
1
 40
1
 40
1
 40
1
 10
293.921921
 20
38.683069
 30
0.0
 10
293.824290
 20
39.512802
 30
0.0
 10
293.340631
 20
40.248079
 30
0.0
 10
292.616996
 20
40.665859
 30
0.0
  0
LINE
  5
13d
100
AcDbEntity
  8
0
 62
7
100
AcDbLine
 10
292.616996
 20
40.665859
 30
0.0
 11
274.285604
 21
51.249192
 31
0.0
  0
SPLINE
  5
13e
100
AcDbEntity
  8
0
 62
7
100
AcDbSpline
 70
8
 71
3
 72
8
 73
4
 74
0
 40
0
 40
0
 40
0
 40
0
 40
1
 40
1
 40
1
 40
1
 10
274.285604
 20
51.249192
 30
0.0
 10
226.070583
 20
-40.930331
 30
0.0
 10
226.070583
 20
-150.882169
 30
0.0
 10
274.285604
 20
-243.061653
 30
0.0
  0
LINE
  5
13f
100
AcDbEntity
  8
0
 62
7
100
AcDbLine
 10
274.285604
 20
-243.061653
 30
0.0
 11
292.616996
 21
-232.478319
 31
0.0
  0
SPLINE
  5
140
100
AcDbEntity
  8
0
 62
7
100
AcDbSpline
 70
8
 71
3
 72
8
 73
4
 74
0
 40
0
 40
0
 40
0
 40
0
 40
1
 40
1
 40
1
 40
1
 10
292.616996
 20
-232.478319
 30
0.0
 10
293.340631
 20
-232.060569
 30
0.0
 10
293.824290
 20
-231.325292
 30
0.0
 10
293.921921
 20
-230.495558
 30
0.0
  0
SPLINE
  5
141
100
AcDbEntity
  8
0
 62
7
100
AcDbSpline
 70
8
 71
3
 72
8
 73
4
 74
0
 40
0
 40
0
 40
0
 40
0
 40
1
 40
1
 40
1
 40
1
 10
293.921921
 20
-230.495558
 30
0.0
 10
294.019288
 20
-229.665560
 30
0.0
 10
293.718985
 20
-228.838473
 30
0.0
 10
293.112031
 20
-228.264327
 30
0.0
  0
SPLINE
  5
142
100
AcDbEntity
  8
0
 62
7
100
AcDbSpline
 70
8
 71
3
 72
8
 73
4
 74
0
 40
0
 40
0
 40
0
 40
0
 40
1
 40
1
 40
1
 40
1
 10
293.112031
 20
-228.264327
 30
0.0
 10
288.321750
 20
-223.735719
 30
0.0
 10
286.829500
 20
-216.718440
 30
0.0
 10
289.361563
 20
-210.632494
 30
0.0
  0
SPLINE
  5
143
100
AcDbEntity
  8
0
 62
7
100
AcDbSpline
 70
8
 71
3
 72
8
 73
4
 74
0
 40
0
 40
0
 40
0
 40
0
 40
1
 40
1
 40
1
 40
1
 10
289.361563
 20
-210.632494
 30
0.0
 10
291.893360
 20
-204.546548
 30
0.0
 10
297.922421
 20
-200.658231
 30
0.0
 10
304.510810
 20
-200.862490
 30
0.0
  0
SPLINE
  5
144
100
AcDbEntity
  8
0
 62
7
100
AcDbSpline
 70
8
 71
3
 72
8
 73
4
 74
0
 40
0
 40
0
 40
0
 40
0
 40
1
 40
1
 40
1
 40
1
 10
304.510810
 20
-200.862490
 30
0.0
 10
311.099200
 20
-201.066483
 30
0.0
 10
316.875848
 20
-205.320719
 30
0.0
 10
319.025852
 20
-211.551656
 30
0.0
  0
SPLINE
  5
145
100
AcDbEntity
  8
0
 62
7
100
AcDbSpline
 70
8
 71
3
 72
8
 73
4
 74
0
 40
0
 40
0
 40
0
 40
0
 40
1
 40
1
 40
1
 40
1
 10
319.025852
 20
-211.551656
 30
0.0
 10
319.330652
 20
-212.434835
 30
0.0
 10
320.078365
 20
-213.091796
 30
0.0
 10
320.993558
 20
-213.280179
 30
0.0
  0
SPLINE
  5
146
100
AcDbEntity
  8
0
 62
7
100
AcDbSpline
 70
8
 71
3
 72
8
 73
4
 74
0
 40
0
 40
0
 40
0
 40
0
 40
1
 40
1
 40
1
 40
1
 10
320.993558
 20
-213.280179
 30
0.0
 10
321.908488
 20
-213.468536
 30
0.0
 10
322.855167
 20
-213.160323
 30
0.0
 10
323.483817
 20
-212.469496
 30
0.0
  0
SPLINE
  5
147
100
AcDbEntity
  8
0
 62
7
100
AcDbSpline
 70
8
 71
3
 72
8
 73
4
 74
0
 40
0
 40
0
 40
0
 40
0
 40
1
 40
1
 40
1
 40
1
 10
323.483817
 20
-212.469496
 30
0.0
 10
328.098944
 20
-207.398201
 30
0.0
 10
335.448275
 20
-205.863379
 30
0.0
 10
341.707258
 20
-208.663200
 30
0.0
  0
SPLINE
  5
148
100
AcDbEntity
  8
0
 62
7
100
AcDbSpline
 70
8
 71
3
 72
8
 73
4
 74
0
 40
0
 40
0
 40
0
 40
0
 40
1
 40
1
 40
1
 40
1
 10
341.707258
 20
-208.663200
 30
0.0
 10
347.966242
 20
-211.463285
 30
0.0
 10
351.720415
 20
-217.965421
 30
0.0
 10
351.015565
 20
-224.785850
 30
0.0
  0
SPLINE
  5
149
100
AcDbEntity
  8
0
 62
7
100
AcDbSpline
 70
8
 71
3
 72
8
 73
4
 74
0
 40
0
 40
0
 40
0
 40
0
 40
1
 40
1
 40
1
 40
1
 10
351.015565
 20
-224.785850
 30
0.0
 10
350.310979
 20
-231.606279
 30
0.0
 10
345.306915
 20
-237.203540
 30
0.0
 10
338.607665
 20
-238.664833
 30
0.0
  0
SPLINE
  5
14a
100
AcDbEntity
  8
0
 62
7
100
AcDbSpline
 70
8
 71
3
 72
8
 73
4
 74
0
 40
0
 40
0
 40
0
 40
0
 40
1
 40
1
 40
1
 40
1
 10
338.607665
 20
-238.664833
 30
0.0
 10
337.694852
 20
-238.863800
 30
0.0
 10
336.954813
 20
-239.529465
 30
0.0
 10
336.660596
 20
-240.416084
 30
0.0
  0
SPLINE
  5
14b
100
AcDbEntity
  8
0
 62
7
100
AcDbSpline
 70
8
 71
3
 72
8
 73
4
 74
0
 40
0
 40
0
 40
0
 40
0
 40
1
 40
1
 40
1
 40
1
 10
336.660596
 20
-240.416084
 30
0.0
 10
336.366115
 20
-241.302703
 30
0.0
 10
336.561113
 20
-242.278777
 30
0.0
 10
337.173623
 20
-242.984421
 30
0.0
  0
SPLINE
  5
14c
100
AcDbEntity
  8
0
 62
7
100
AcDbSpline
 70
8
 71
3
 72
8
 73
4
 74
0
 40
0
 40
0
 40
0
 40
0
 40
1
 40
1
 40
1
 40
1
 10
337.173623
 20
-242.984421
 30
0.0
 10
341.494798
 20
-247.961762
 30
0.0
 10
342.290665
 20
-255.091754
 30
0.0
 10
339.173344
 20
-260.899358
 30
0.0
  0
SPLINE
  5
14d
100
AcDbEntity
  8
0
 62
7
100
AcDbSpline
 70
8
 71
3
 72
8
 73
4
 74
0
 40
0
 40
0
 40
0
 40
0
 40
1
 40
1
 40
1
 40
1
 10
339.173344
 20
-260.899358
 30
0.0
 10
336.055758
 20
-266.707227
 30
0.0
 10
329.674008
 20
-269.984356
 30
0.0
 10
323.137477
 20
-269.133721
 30
0.0
  0
SPLINE
  5
14e
100
AcDbEntity
  8
0
 62
7
100
AcDbSpline
 70
8
 71
3
 72
8
 73
4
 74
0
 40
0
 40
0
 40
0
 40
0
 40
1
 40
1
 40
1
 40
1
 10
323.137477
 20
-269.133721
 30
0.0
 10
316.601210
 20
-268.283350
 30
0.0
 10
311.270385
 20
-263.482221
 30
0.0
 10
309.742946
 20
-257.070044
 30
0.0
  0
SPLINE
  5
14f
100
AcDbEntity
  8
0
 62
7
100
AcDbSpline
 70
8
 71
3
 72
8
 73
4
 74
0
 40
0
 40
0
 40
0
 40
0
 40
1
 40
1
 40
1
 40
1
 10
309.742946
 20
-257.070044
 30
0.0
 10
309.549271
 20
-256.257244
 30
0.0
 10
308.983063
 20
-255.583588
 30
0.0
 10
308.215771
 20
-255.253150
 30
0.0
  0
SPLINE
  5
150
100
AcDbEntity
  8
0
 62
7
100
AcDbSpline
 70
8
 71
3
 72
8
 73
4
 74
0
 40
0
 40
0
 40
0
 40
0
 40
1
 40
1
 40
1
 40
1
 10
308.215771
 20
-255.253150
 30
0.0
 10
307.448215
 20
-254.922685
 30
0.0
 10
306.569798
 20
-254.974015
 30
0.0
 10
305.846163
 20
-255.391792
 30
0.0
  0
LINE
  5
151
100
AcDbEntity
  8
0
 62
7
100
AcDbLine
 10
305.846163
 20
-255.391792
 30
0.0
 11
287.514771
 21
-265.975125
 31
0.0
  0
SPLINE
  5
152
100
AcDbEntity
  8
0
 62
7
100
AcDbSpline
 70
8
 71
3
 72
8
 73
4
 74
0
 40
0
 40
0
 40
0
 40
0
 40
1
 40
1
 40
1
 40
1
 10
287.514771
 20
-265.975125
 30
0.0
 10
343.237608
 20
-353.820205
 30
0.0
 10
438.458504
 20
-408.797182
 30
0.0
 10
542.395833
 20
-413.131083
 30
0.0
  0
LINE
  5
153
100
AcDbEntity
  8
0
 62
7
100
AcDbLine
 10
542.395833
 20
-413.131083
 30
0.0
 11
542.395833
 21
-391.964417
 31
0.0
  0
SPLINE
  5
154
100
AcDbEntity
  8
0
 62
7
100
AcDbSpline
 70
8
 71
3
 72
8
 73
4
 74
0
 40
0
 40
0
 40
0
 40
0
 40
1
 40
1
 40
1
 40
1
 10
542.395833
 20
-391.964417
 30
0.0
 10
542.395833
 20
-391.128333
 30
0.0
 10
542.001128
 20
-390.342521
 30
0.0
 10
541.331176
 20
-389.842458
 30
0.0
  0
SPLINE
  5
155
100
AcDbEntity
  8
0
 62
7
100
AcDbSpline
 70
8
 71
3
 72
8
 73
4
 74
0
 40
0
 40
0
 40
0
 40
0
 40
1
 40
1
 40
1
 40
1
 10
541.331176
 20
-389.842458
 30
0.0
 10
540.661251
 20
-389.342396
 30
0.0
 10
539.794794
 20
-389.188911
 30
0.0
 10
538.994059
 20
-389.427036
 30
0.0
  0
SPLINE
  5
156
100
AcDbEntity
  8
0
 62
7
100
AcDbSpline
 70
8
 71
3
 72
8
 73
4
 74
0
 40
0
 40
0
 40
0
 40
0
 40
1
 40
1
 40
1
 40
1
 10
538.994059
 20
-389.427036
 30
0.0
 10
532.677344
 20
-391.310896
 30
0.0
 10
525.854083
 20
-389.096333
 30
0.0
 10
521.849350
 20
-383.860229
 30
0.0
  0
SPLINE
  5
157
100
AcDbEntity
  8
0
 62
7
100
AcDbSpline
 70
8
 71
3
 72
8
 73
4
 74
0
 40
0
 40
0
 40
0
 40
0
 40
1
 40
1
 40
1
 40
1
 10
521.849350
 20
-383.860229
 30
0.0
 10
517.844617
 20
-378.624125
 30
0.0
 10
517.491663
 20
-371.459208
 30
0.0
 10
520.962731
 20
-365.855333
 30
0.0
  0
SPLINE
  5
158
100
AcDbEntity
  8
0
 62
7
100
AcDbSpline
 70
8
 71
3
 72
8
 73
4
 74
0
 40
0
 40
0
 40
0
 40
0
 40
1
 40
1
 40
1
 40
1
 10
520.962731
 20
-365.855333
 30
0.0
 10
524.433535
 20
-360.251987
 30
0.0
 10
531.006156
 20
-357.376231
 30
0.0
 10
537.477335
 20
-358.629827
 30
0.0
  0
SPLINE
  5
159
100
AcDbEntity
  8
0
 62
7
100
AcDbSpline
 70
8
 71
3
 72
8
 73
4
 74
0
 40
0
 40
0
 40
0
 40
0
 40
1
 40
1
 40
1
 40
1
 10
537.477335
 20
-358.629827
 30
0.0
 10
538.394487
 20
-358.807362
 30
0.0
 10
539.337382
 20
-358.488249
 30
0.0
 10
539.958015
 20
-357.790040
 30
0.0
  0
SPLINE
  5
15a
100
AcDbEntity
  8
0
 62
7
100
AcDbSpline
 70
8
 71
3
 72
8
 73
4
 74
0
 40
0
 40
0
 40
0
 40
0
 40
1
 40
1
 40
1
 40
1
 10
539.958015
 20
-357.790040
 30
0.0
 10
540.578675
 20
-357.091804
 30
0.0
 10
540.785103
 20
-356.117873
 30
0.0
 10
540.501152
 20
-355.228079
 30
0.0
  0
SPLINE
  5
15b
100
AcDbEntity
  8
0
 62
7
100
AcDbSpline
 70
8
 71
3
 72
8
 73
4
 74
0
 40
0
 40
0
 40
0
 40
0
 40
1
 40
1
 40
1
 40
1
 10
540.501152
 20
-355.228079
 30
0.0
 10
538.416950
 20
-348.695781
 30
0.0
 10
540.762296
 20
-341.563382
 30
0.0
 10
546.316641
 20
-337.542774
 30
0.0
  0
SPLINE
  5
15c
100
AcDbEntity
  8
0
 62
7
100
AcDbSpline
 70
8
 71
3
 72
8
 73
4
 74
0
 40
0
 40
0
 40
0
 40
0
 40
1
 40
1
 40
1
 40
1
 10
546.316641
 20
-337.542774
 30
0.0
 10
551.871012
 20
-333.522456
 30
0.0
 10
559.378988
 20
-333.522456
 30
0.0
 10
564.933359
 20
-337.542774
 30
0.0
  0
SPLINE
  5
15d
100
AcDbEntity
  8
0
 62
7
100
AcDbSpline
 70
8
 71
3
 72
8
 73
4
 74
0
 40
0
 40
0
 40
0
 40
0
 40
1
 40
1
 40
1
 40
1
 10
564.933359
 20
-337.542774
 30
0.0
 10
570.487704
 20
-341.563382
 30
0.0
 10
572.833050
 20
-348.695781
 30
0.0
 10
570.748848
 20
-355.228079
 30
0.0
  0
SPLINE
  5
15e
100
AcDbEntity
  8
0
 62
7
100
AcDbSpline
 70
8
 71
3
 72
8
 73
4
 74
0
 40
0
 40
0
 40
0
 40
0
 40
1
 40
1
 40
1
 40
1
 10
570.748848
 20
-355.228079
 30
0.0
 10
570.464897
 20
-356.117873
 30
0.0
 10
570.671325
 20
-357.091804
 30
0.0
 10
571.291985
 20
-357.790040
 30
0.0
  0
SPLINE
  5
15f
100
AcDbEntity
  8
0
 62
7
100
AcDbSpline
 70
8
 71
3
 72
8
 73
4
 74
0
 40
0
 40
0
 40
0
 40
0
 40
1
 40
1
 40
1
 40
1
 10
571.291985
 20
-357.790040
 30
0.0
 10
571.912618
 20
-358.488249
 30
0.0
 10
572.855513
 20
-358.807362
 30
0.0
 10
573.772665
 20
-358.629827
 30
0.0
  0
SPLINE
  5
160
100
AcDbEntity
  8
0
 62
7
100
AcDbSpline
 70
8
 71
3
 72
8
 73
4
 74
0
 40
0
 40
0
 40
0
 40
0
 40
1
 40
1
 40
1
 40
1
 10
573.772665
 20
-358.629827
 30
0.0
 10
580.243844
 20
-357.376231
 30
0.0
 10
586.816465
 20
-360.251987
 30
0.0
 10
590.287269
 20
-365.855333
 30
0.0
  0
SPLINE
  5
161
100
AcDbEntity
  8
0
 62
7
100
AcDbSpline
 70
8
 71
3
 72
8
 73
4
 74
0
 40
0
 40
0
 40
0
 40
0
 40
1
 40
1
 40
1
 40
1
 10
590.287269
 20
-365.855333
 30
0.0
 10
593.758338
 20
-371.459208
 30
0.0
 10
593.405383
 20
-378.624125
 30
0.0
 10
589.400650
 20
-383.860229
 30
0.0
  0
SPLINE
  5
162
100
AcDbEntity
  8
0
 62
7
100
AcDbSpline
 70
8
 71
3
 72
8
 73
4
 74
0
 40
0
 40
0
 40
0
 40
0
 40
1
 40
1
 40
1
 40
1
 10
589.400650
 20
-383.860229
 30
0.0
 10
585.395917
 20
-389.096333
 30
0.0
 10
578.572656
 20
-391.310896
 30
0.0
 10
572.255941
 20
-389.427036
 30
0.0
  0
SPLINE
  5
163
100
AcDbEntity
  8
0
 62
7
100
AcDbSpline
 70
8
 71
3
 72
8
 73
4
 74
0
 40
0
 40
0
 40
0
 40
0
 40
1
 40
1
 40
1
 40
1
 10
572.255941
 20
-389.427036
 30
0.0
 10
571.455206
 20
-389.188911
 30
0.0
 10
570.588749
 20
-389.342396
 30
0.0
 10
569.918824
 20
-389.842458
 30
0.0
  0
SPLINE
  5
164
100
AcDbEntity
  8
0
 62
7
100
AcDbSpline
 70
8
 71
3
 72
8
 73
4
 74
0
 40
0
 40
0
 40
0
 40
0
 40
1
 40
1
 40
1
 40
1
 10
569.918824
 20
-389.842458
 30
0.0
 10
569.248872
 20
-390.342521
 30
0.0
 10
568.854167
 20
-391.128333
 30
0.0
 10
568.854167
 20
-391.964417
 30
0.0
  0
LINE
  5
165
100
AcDbEntity
  8
0
 62
7
100
AcDbLine
 10
568.854167
 20
-391.964417
 30
0.0
 11
568.854167
 21
-413.131083
 31
0.0
  0
SPLINE
  5
166
100
AcDbEntity
  8
0
 62
7
100
AcDbSpline
 70
8
 71
3
 72
8
 73
4
 74
0
 40
0
 40
0
 40
0
 40
0
 40
1
 40
1
 40
1
 40
1
 10
568.854167
 20
-413.131083
 30
0.0
 10
672.791496
 20
-408.797182
 30
0.0
 10
768.012365
 20
-353.820205
 30
0.0
 10
823.735203
 20
-265.975125
 30
0.0
  0
LINE
  5
167
100
AcDbEntity
  8
0
 62
7
100
AcDbLine
 10
823.735203
 20
-265.975125
 30
0.0
 11
805.403811
 21
-255.391792
 31
0.0
  0
SPLINE
  5
168
100
AcDbEntity
  8
0
 62
7
100
AcDbSpline
 70
8
 71
3
 72
8
 73
4
 74
0
 40
0
 40
0
 40
0
 40
0
 40
1
 40
1
 40
1
 40
1
 10
805.403811
 20
-255.391792
 30
0.0
 10
804.680176
 20
-254.974015
 30
0.0
 10
803.801785
 20
-254.922685
 30
0.0
 10
803.034229
 20
-255.253150
 30
0.0
  0
SPLINE
  5
169
100
AcDbEntity
  8
0
 62
7
100
AcDbSpline
 70
8
 71
3
 72
8
 73
4
 74
0
 40
0
 40
0
 40
0
 40
0
 40
1
 40
1
 40
1
 40
1
 10
803.034229
 20
-255.253150
 30
0.0
 10
802.266911
 20
-255.583588
 30
0.0
 10
801.700703
 20
-256.257244
 30
0.0
 10
801.507028
 20
-257.070044
 30
0.0
  0
SPLINE
  5
16a
100
AcDbEntity
  8
0
 62
7
100
AcDbSpline
 70
8
 71
3
 72
8
 73
4
 74
0
 40
0
 40
0
 40
0
 40
0
 40
1
 40
1
 40
1
 40
1
 10
801.507028
 20
-257.070044
 30
0.0
 10
799.979588
 20
-263.482221
 30
0.0
 10
794.648790
 20
-268.283350
 30
0.0
 10
788.112523
 20
-269.133721
 30
0.0
  0
SPLINE
  5
16b
100
AcDbEntity
  8
0
 62
7
100
AcDbSpline
 70
8
 71
3
 72
8
 73
4
 74
0
 40
0
 40
0
 40
0
 40
0
 40
1
 40
1
 40
1
 40
1
 10
788.112523
 20
-269.133721
 30
0.0
 10
781.575965
 20
-269.984356
 30
0.0
 10
775.194215
 20
-266.707227
 30
0.0
 10
772.076656
 20
-260.899358
 30
0.0
  0
SPLINE
  5
16c
100
AcDbEntity
  8
0
 62
7
100
AcDbSpline
 70
8
 71
3
 72
8
 73
4
 74
0
 40
0
 40
0
 40
0
 40
0
 40
1
 40
1
 40
1
 40
1
 10
772.076656
 20
-260.899358
 30
0.0
 10
768.959335
 20
-255.091754
 30
0.0
 10
769.755202
 20
-247.961762
 30
0.0
 10
774.076351
 20
-242.984421
 30
0.0
  0
SPLINE
  5
16d
100
AcDbEntity
  8
0
 62
7
100
AcDbSpline
 70
8
 71
3
 72
8
 73
4
 74
0
 40
0
 40
0
 40
0
 40
0
 40
1
 40
1
 40
1
 40
1
 10
774.076351
 20
-242.984421
 30
0.0
 10
774.688861
 20
-242.278777
 30
0.0
 10
774.883859
 20
-241.302703
 30
0.0
 10
774.589378
 20
-240.416084
 30
0.0
  0
SPLINE
  5
16e
100
AcDbEntity
  8
0
 62
7
100
AcDbSpline
 70
8
 71
3
 72
8
 73
4
 74
0
 40
0
 40
0
 40
0
 40
0
 40
1
 40
1
 40
1
 40
1
 10
774.589378
 20
-240.416084
 30
0.0
 10
774.295187
 20
-239.529465
 30
0.0
 10
773.555148
 20
-238.863800
 30
0.0
 10
772.642335
 20
-238.664833
 30
0.0
  0
SPLINE
  5
16f
100
AcDbEntity
  8
0
 62
7
100
AcDbSpline
 70
8
 71
3
 72
8
 73
4
 74
0
 40
0
 40
0
 40
0
 40
0
 40
1
 40
1
 40
1
 40
1
 10
772.642335
 20
-238.664833
 30
0.0
 10
765.943059
 20
-237.203540
 30
0.0
 10
760.938994
 20
-231.606279
 30
0.0
 10
760.234435
 20
-224.785850
 30
0.0
  0
SPLINE
  5
170
100
AcDbEntity
  8
0
 62
7
100
AcDbSpline
 70
8
 71
3
 72
8
 73
4
 74
0
 40
0
 40
0
 40
0
 40
0
 40
1
 40
1
 40
1
 40
1
 10
760.234435
 20
-224.785850
 30
0.0
 10
759.529585
 20
-217.965421
 30
0.0
 10
763.283732
 20
-211.463285
 30
0.0
 10
769.542715
 20
-208.663200
 30
0.0
  0
SPLINE
  5
171
100
AcDbEntity
  8
0
 62
7
100
AcDbSpline
 70
8
 71
3
 72
8
 73
4
 74
0
 40
0
 40
0
 40
0
 40
0
 40
1
 40
1
 40
1
 40
1
 10
769.542715
 20
-208.663200
 30
0.0
 10
775.801699
 20
-205.863379
 30
0.0
 10
783.151056
 20
-207.398201
 30
0.0
 10
787.766183
 20
-212.469496
 30
0.0
  0
SPLINE
  5
172
100
AcDbEntity
  8
0
 62
7
100
AcDbSpline
 70
8
 71
3
 72
8
 73
4
 74
0
 40
0
 40
0
 40
0
 40
0
 40
1
 40
1
 40
1
 40
1
 10
787.766183
 20
-212.469496
 30
0.0
 10
788.394807
 20
-213.160323
 30
0.0
 10
789.341512
 20
-213.468536
 30
0.0
 10
790.256442
 20
-213.280179
 30
0.0
  0
SPLINE
  5
173
100
AcDbEntity
  8
0
 62
7
100
AcDbSpline
 70
8
 71
3
 72
8
 73
4
 74
0
 40
0
 40
0
 40
0
 40
0
 40
1
 40
1
 40
1
 40
1
 10
790.256442
 20
-213.280179
 30
0.0
 10
791.171635
 20
-213.091796
 30
0.0
 10
791.919348
 20
-212.434835
 30
0.0
 10
792.224121
 20
-211.551656
 30
0.0
  0
SPLINE
  5
174
100
AcDbEntity
  8
0
 62
7
100
AcDbSpline
 70
8
 71
3
 72
8
 73
4
 74
0
 40
0
 40
0
 40
0
 40
0
 40
1
 40
1
 40
1
 40
1
 10
792.224121
 20
-211.551656
 30
0.0
 10
794.374152
 20
-205.320719
 30
0.0
 10
800.150800
 20
-201.066483
 30
0.0
 10
806.739190
 20
-200.862490
 30
0.0
  0
SPLINE
  5
175
100
AcDbEntity
  8
0
 62
7
100
AcDbSpline
 70
8
 71
3
 72
8
 73
4
 74
0
 40
0
 40
0
 40
0
 40
0
 40
1
 40
1
 40
1
 40
1
 10
806.739190
 20
-200.862490
 30
0.0
 10
813.327553
 20
-200.658231
 30
0.0
 10
819.356640
 20
-204.546548
 30
0.0
 10
821.888437
 20
-210.632494
 30
0.0
  0
SPLINE
  5
176
100
AcDbEntity
  8
0
 62
7
100
AcDbSpline
 70
8
 71
3
 72
8
 73
4
 74
0
 40
0
 40
0
 40
0
 40
0
 40
1
 40
1
 40
1
 40
1
 10
821.888437
 20
-210.632494
 30
0.0
 10
824.420500
 20
-216.718440
 30
0.0
 10
822.928224
 20
-223.735719
 30
0.0
 10
818.137969
 20
-228.264327
 30
0.0
  0
SPLINE
  5
177
100
AcDbEntity
  8
0
 62
7
100
AcDbSpline
 70
8
 71
3
 72
8
 73
4
 74
0
 40
0
 40
0
 40
0
 40
0
 40
1
 40
1
 40
1
 40
1
 10
818.137969
 20
-228.264327
 30
0.0
 10
817.531015
 20
-228.838473
 30
0.0
 10
817.230712
 20
-229.665560
 30
0.0
 10
817.328079
 20
-230.495558
 30
0.0
  0
SPLINE
  5
178
100
AcDbEntity
  8
0
 62
7
100
AcDbSpline
 70
8
 71
3
 72
8
 73
4
 74
0
 40
0
 40
0
 40
0
 40
0
 40
1
 40
1
 40
1
 40
1
 10
817.328079
 20
-230.495558
 30
0.0
 10
817.425684
 20
-231.325292
 30
0.0
 10
817.909369
 20
-232.060569
 30
0.0
 10
818.633004
 20
-232.478319
 30
0.0
  0
SPLINE
  5
179
100
AcDbEntity
  8
0
 62
7
100
AcDbSpline
 70
8
 71
3
 72
8
 73
4
 74
0
 40
0
 40
0
 40
0
 40
0
 40
1
 40
1
 40
1
 40
1
 10
806.051246
 20
-4.163037
 30
0.0
 10
811.627869
 20
-4.389256
 30
0.0
 10
816.462601
 20
-8.090777
 30
0.0
 10
818.135852
 20
-13.415252
 30
0.0
  0
SPLINE
  5
17a
100
AcDbEntity
  8
0
 62
7
100
AcDbSpline
 70
8
 71
3
 72
8
 73
4
 74
0
 40
0
 40
0
 40
0
 40
0
 40
1
 40
1
 40
1
 40
1
 10
818.135852
 20
-13.415252
 30
0.0
 10
822.404375
 20
-26.998431
 30
0.0
 10
825.611099
 20
-40.891967
 30
0.0
 10
827.730438
 20
-54.971504
 30
0.0
  0
SPLINE
  5
17b
100
AcDbEntity
  8
0
 62
7
100
AcDbSpline
 70
8
 71
3
 72
8
 73
4
 74
0
 40
0
 40
0
 40
0
 40
0
 40
1
 40
1
 40
1
 40
1
 10
827.730438
 20
-54.971504
 30
0.0
 10
829.077167
 20
-63.933735
 30
0.0
 10
829.982015
 20
-72.957297
 30
0.0
 10
830.439744
 20
-82.008931
 30
0.0
  0
SPLINE
  5
17c
100
AcDbEntity
  8
0
 62
7
100
AcDbSpline
 70
8
 71
3
 72
8
 73
4
 74
0
 40
0
 40
0
 40
0
 40
0
 40
1
 40
1
 40
1
 40
1
 10
830.439744
 20
-82.008931
 30
0.0
 10
830.622307
 20
-85.628881
 30
0.0
 10
829.312619
 20
-89.165355
 30
0.0
 10
826.814953
 20
-91.792244
 30
0.0
  0
SPLINE
  5
17d
100
AcDbEntity
  8
0
 62
7
100
AcDbSpline
 70
8
 71
3
 72
8
 73
4
 74
0
 40
0
 40
0
 40
0
 40
0
 40
1
 40
1
 40
1
 40
1
 10
826.814953
 20
-91.792244
 30
0.0
 10
824.317313
 20
-94.419106
 30
0.0
 10
820.853890
 20
-95.906250
 30
0.0
 10
817.228331
 20
-95.906250
 30
0.0
  0
LINE
  5
17e
100
AcDbEntity
  8
0
 62
7
100
AcDbLine
 10
817.228331
 20
-95.906250
 30
0.0
 11
294.021669
 21
-95.906250
 31
0.0
  0
SPLINE
  5
17f
100
AcDbEntity
  8
0
 62
7
100
AcDbSpline
 70
8
 71
3
 72
8
 73
4
 74
0
 40
0
 40
0
 40
0
 40
0
 40
1
 40
1
 40
1
 40
1
 10
294.021669
 20
-95.906250
 30
0.0
 10
290.396083
 20
-95.906250
 30
0.0
 10
286.932687
 20
-94.419106
 30
0.0
 10
284.435021
 20
-91.792244
 30
0.0
  0
SPLINE
  5
180
100
AcDbEntity
  8
0
 62
7
100
AcDbSpline
 70
8
 71
3
 72
8
 73
4
 74
0
 40
0
 40
0
 40
0
 40
0
 40
1
 40
1
 40
1
 40
1
 10
284.435021
 20
-91.792244
 30
0.0
 10
281.937354
 20
-89.165355
 30
0.0
 10
280.627667
 20
-85.628881
 30
0.0
 10
280.810229
 20
-82.008931
 30
0.0
  0
SPLINE
  5
181
100
AcDbEntity
  8
0
 62
7
100
AcDbSpline
 70
8
 71
3
 72
8
 73
4
 74
0
 40
0
 40
0
 40
0
 40
0
 40
1
 40
1
 40
1
 40
1
 10
280.810229
 20
-82.008931
 30
0.0
 10
281.267958
 20
-72.957297
 30
0.0
 10
282.172833
 20
-63.933735
 30
0.0
 10
283.519563
 20
-54.971504
 30
0.0
  0
SPLINE
  5
182
100
AcDbEntity
  8
0
 62
7
100
AcDbSpline
 70
8
 71
3
 72
8
 73
4
 74
0
 40
0
 40
0
 40
0
 40
0
 40
1
 40
1
 40
1
 40
1
 10
283.519563
 20
-54.971504
 30
0.0
 10
285.638875
 20
-40.891967
 30
0.0
 10
288.845625
 20
-26.998431
 30
0.0
 10
293.114148
 20
-13.415252
 30
0.0
  0
SPLINE
  5
183
100
AcDbEntity
  8
0
 62
7
100
AcDbSpline
 70
8
 71
3
 72
8
 73
4
 74
0
 40
0
 40
0
 40
0
 40
0
 40
1
 40
1
 40
1
 40
1
 10
293.114148
 20
-13.415252
 30
0.0
 10
294.787373
 20
-8.090777
 30
0.0
 10
299.622104
 20
-4.389256
 30
0.0
 10
305.198727
 20
-4.163037
 30
0.0
  0
SPLINE
  5
184
100
AcDbEntity
  8
0
 62
7
100
AcDbSpline
 70
8
 71
3
 72
8
 73
4
 74
0
 40
0
 40
0
 40
0
 40
0
 40
1
 40
1
 40
1
 40
1
 10
305.198727
 20
-4.163037
 30
0.0
 10
310.547279
 20
-3.946079
 30
0.0
 10
315.732319
 20
-2.258302
 30
0.0
 10
320.183669
 20
0.714821
 30
0.0
  0
SPLINE
  5
185
100
AcDbEntity
  8
0
 62
7
100
AcDbSpline
 70
8
 71
3
 72
8
 73
4
 74
0
 40
0
 40
0
 40
0
 40
0
 40
1
 40
1
 40
1
 40
1
 10
320.183669
 20
0.714821
 30
0.0
 10
323.048842
 20
2.628288
 30
0.0
 10
326.547427
 20
3.348483
 30
0.0
 10
329.935417
 20
2.722479
 30
0.0
  0
SPLINE
  5
186
100
AcDbEntity
  8
0
 62
7
100
AcDbSpline
 70
8
 71
3
 72
8
 73
4
 74
0
 40
0
 40
0
 40
0
 40
0
 40
1
 40
1
 40
1
 40
1
 10
329.935417
 20
2.722479
 30
0.0
 10
342.053333
 20
0.482781
 30
0.0
 10
354.268087
 20
6.117613
 30
0.0
 10
360.429704
 20
16.789846
 30
0.0
  0
SPLINE
  5
187
100
AcDbEntity
  8
0
 62
7
100
AcDbSpline
 70
8
 71
3
 72
8
 73
4
 74
0
 40
0
 40
0
 40
0
 40
0
 40
1
 40
1
 40
1
 40
1
 10
360.429704
 20
16.789846
 30
0.0
 10
366.591321
 20
27.462079
 30
0.0
 10
365.363654
 20
40.857944
 30
0.0
 10
357.365300
 20
50.232393
 30
0.0
  0
SPLINE
  5
188
100
AcDbEntity
  8
0
 62
7
100
AcDbSpline
 70
8
 71
3
 72
8
 73
4
 74
0
 40
0
 40
0
 40
0
 40
0
 40
1
 40
1
 40
1
 40
1
 10
357.365300
 20
50.232393
 30
0.0
 10
355.129042
 20
52.853356
 30
0.0
 10
354.003504
 20
56.243462
 30
0.0
 10
354.228135
 20
59.681461
 30
0.0
  0
SPLINE
  5
189
100
AcDbEntity
  8
0
 62
7
100
AcDbSpline
 70
8
 71
3
 72
8
 73
4
 74
0
 40
0
 40
0
 40
0
 40
0
 40
1
 40
1
 40
1
 40
1
 10
354.228135
 20
59.681461
 30
0.0
 10
354.577121
 20
65.022869
 30
0.0
 10
353.446292
 20
70.357128
 30
0.0
 10
350.959737
 20
75.097668
 30
0.0
  0
SPLINE
  5
18a
100
AcDbEntity
  8
0
 62
7
100
AcDbSpline
 70
8
 71
3
 72
8
 73
4
 74
0
 40
0
 40
0
 40
0
 40
0
 40
1
 40
1
 40
1
 40
1
 10
350.959737
 20
75.097668
 30
0.0
 10
348.367350
 20
80.040354
 30
0.0
 10
349.155808
 20
86.078143
 30
0.0
 10
352.930354
 20
90.189506
 30
0.0
  0
SPLINE
  5
18b
100
AcDbEntity
  8
0
 62
7
100
AcDbSpline
 70
8
 71
3
 72
8
 73
4
 74
0
 40
0
 40
0
 40
0
 40
0
 40
1
 40
1
 40
1
 40
1
 10
352.930354
 20
90.189506
 30
0.0
 10
362.559335
 20
100.677325
 30
0.0
 10
372.987887
 20
110.402083
 30
0.0
 10
384.122083
 20
119.275946
 30
0.0
  0
SPLINE
  5
18c
100
AcDbEntity
  8
0
 62
7
100
AcDbSpline
 70
8
 71
3
 72
8
 73
4
 74
0
 40
0
 40
0
 40
0
 40
0
 40
1
 40
1
 40
1
 40
1
 10
384.122083
 20
119.275946
 30
0.0
 10
405.582173
 20
136.380198
 30
0.0
 10
429.480398
 20
150.177687
 30
0.0
 10
455.023273
 20
160.210954
 30
0.0
  0
SPLINE
  5
18d
100
AcDbEntity
  8
0
 62
7
100
AcDbSpline
 70
8
 71
3
 72
8
 73
4
 74
0
 40
0
 40
0
 40
0
 40
0
 40
1
 40
1
 40
1
 40
1
 10
455.023273
 20
160.210954
 30
0.0
 10
468.275458
 20
165.416366
 30
0.0
 10
481.911554
 20
169.584612
 30
0.0
 10
495.808794
 20
172.680237
 30
0.0
  0
SPLINE
  5
18e
100
AcDbEntity
  8
0
 62
7
100
AcDbSpline
 70
8
 71
3
 72
8
 73
4
 74
0
 40
0
 40
0
 40
0
 40
0
 40
1
 40
1
 40
1
 40
1
 10
495.808794
 20
172.680237
 30
0.0
 10
501.256565
 20
173.894675
 30
0.0
 10
506.879754
 20
171.558404
 30
0.0
 10
509.863990
 20
166.840883
 30
0.0
  0
SPLINE
  5
18f
100
AcDbEntity
  8
0
 62
7
100
AcDbSpline
 70
8
 71
3
 72
8
 73
4
 74
0
 40
0
 40
0
 40
0
 40
0
 40
1
 40
1
 40
1
 40
1
 10
509.863990
 20
166.840883
 30
0.0
 10
512.725987
 20
162.317566
 30
0.0
 10
516.780198
 20
158.671079
 30
0.0
 10
521.580533
 20
156.302529
 30
0.0
  0
SPLINE
  5
190
100
AcDbEntity
  8
0
 62
7
100
AcDbSpline
 70
8
 71
3
 72
8
 73
4
 74
0
 40
0
 40
0
 40
0
 40
0
 40
1
 40
1
 40
1
 40
1
 10
521.580533
 20
156.302529
 30
0.0
 10
524.670337
 20
154.778000
 30
0.0
 10
527.043385
 20
152.108354
 30
0.0
 10
528.195117
 20
148.861123
 30
0.0
  0
SPLINE
  5
191
100
AcDbEntity
  8
0
 62
7
100
AcDbSpline
 70
8
 71
3
 72
8
 73
4
 74
0
 40
0
 40
0
 40
0
 40
0
 40
1
 40
1
 40
1
 40
1
 10
528.195117
 20
148.861123
 30
0.0
 10
532.314494
 20
137.246975
 30
0.0
 10
543.301899
 20
129.485952
 30
0.0
 10
555.625000
 20
129.485952
 30
0.0
  0
SPLINE
  5
192
100
AcDbEntity
  8
0
 62
7
100
AcDbSpline
 70
8
 71
3
 72
8
 73
4
 74
0
 40
0
 40
0
 40
0
 40
0
 40
1
 40
1
 40
1
 40
1
 10
555.625000
 20
129.485952
 30
0.0
 10
567.948101
 20
129.485952
 30
0.0
 10
578.935506
 20
137.246975
 30
0.0
 10
583.054883
 20
148.861123
 30
0.0
  0
SPLINE
  5
193
100
AcDbEntity
  8
0
 62
7
100
AcDbSpline
 70
8
 71
3
 72
8
 73
4
 74
0
 40
0
 40
0
 40
0
 40
0
 40
1
 40
1
 40
1
 40
1
 10
583.054883
 20
148.861123
 30
0.0
 10
584.206615
 20
152.108354
 30
0.0
 10
586.579662
 20
154.778000
 30
0.0
 10
589.669467
 20
156.302529
 30
0.0
  0
SPLINE
  5
194
100
AcDbEntity
  8
0
 62
7
100
AcDbSpline
 70
8
 71
3
 72
8
 73
4
 74
0
 40
0
 40
0
 40
0
 40
0
 40
1
 40
1
 40
1
 40
1
 10
589.669467
 20
156.302529
 30
0.0
 10
594.469802
 20
158.671079
 30
0.0
 10
598.524012
 20
162.317566
 30
0.0
 10
601.386010
 20
166.840883
 30
0.0
  0
SPLINE
  5
195
100
AcDbEntity
  8
0
 62
7
100
AcDbSpline
 70
8
 71
3
 72
8
 73
4
 74
0
 40
0
 40
0
 40
0
 40
0
 40
1
 40
1
 40
1
 40
1
 10
601.386010
 20
166.840883
 30
0.0
 10
604.370246
 20
171.558404
 30
0.0
 10
609.993435
 20
173.894675
 30
0.0
 10
615.441206
 20
172.680237
 30
0.0
  0
SPLINE
  5
196
100
AcDbEntity
  8
0
 62
7
100
AcDbSpline
 70
8
 71
3
 72
8
 73
4
 74
0
 40
0
 40
0
 40
0
 40
0
 40
1
 40
1
 40
1
 40
1
 10
615.441206
 20
172.680237
 30
0.0
 10
629.338446
 20
169.584612
 30
0.0
 10
642.974542
 20
165.416366
 30
0.0
 10
656.226727
 20
160.210954
 30
0.0
  0
SPLINE
  5
197
100
AcDbEntity
  8
0
 62
7
100
AcDbSpline
 70
8
 71
3
 72
8
 73
4
 74
0
 40
0
 40
0
 40
0
 40
0
 40
1
 40
1
 40
1
 40
1
 10
656.226727
 20
160.210954
 30
0.0
 10
681.769602
 20
150.177687
 30
0.0
 10
705.667801
 20
136.380198
 30
0.0
 10
727.127890
 20
119.275946
 30
0.0
  0
SPLINE
  5
198
100
AcDbEntity
  8
0
 62
7
100
AcDbSpline
 70
8
 71
3
 72
8
 73
4
 74
0
 40
0
 40
0
 40
0
 40
0
 40
1
 40
1
 40
1
 40
1
 10
727.127890
 20
119.275946
 30
0.0
 10
738.262112
 20
110.402083
 30
0.0
 10
748.690665
 20
100.677325
 30
0.0
 10
758.319619
 20
90.189506
 30
0.0
  0
SPLINE
  5
199
100
AcDbEntity
  8
0
 62
7
100
AcDbSpline
 70
8
 71
3
 72
8
 73
4
 74
0
 40
0
 40
0
 40
0
 40
0
 40
1
 40
1
 40
1
 40
1
 10
758.319619
 20
90.189506
 30
0.0
 10
762.094192
 20
86.078143
 30
0.0
 10
762.882650
 20
80.040354
 30
0.0
 10
760.290236
 20
75.097668
 30
0.0
  0
SPLINE
  5
19a
100
AcDbEntity
  8
0
 62
7
100
AcDbSpline
 70
8
 71
3
 72
8
 73
4
 74
0
 40
0
 40
0
 40
0
 40
0
 40
1
 40
1
 40
1
 40
1
 10
760.290236
 20
75.097668
 30
0.0
 10
757.803682
 20
70.357128
 30
0.0
 10
756.672853
 20
65.022869
 30
0.0
 10
757.021838
 20
59.681461
 30
0.0
  0
SPLINE
  5
19b
100
AcDbEntity
  8
0
 62
7
100
AcDbSpline
 70
8
 71
3
 72
8
 73
4
 74
0
 40
0
 40
0
 40
0
 40
0
 40
1
 40
1
 40
1
 40
1
 10
757.021838
 20
59.681461
 30
0.0
 10
757.246496
 20
56.243462
 30
0.0
 10
756.120932
 20
52.853356
 30
0.0
 10
753.884700
 20
50.232393
 30
0.0
  0
SPLINE
  5
19c
100
AcDbEntity
  8
0
 62
7
100
AcDbSpline
 70
8
 71
3
 72
8
 73
4
 74
0
 40
0
 40
0
 40
0
 40
0
 40
1
 40
1
 40
1
 40
1
 10
753.884700
 20
50.232393
 30
0.0
 10
745.886346
 20
40.857944
 30
0.0
 10
744.658679
 20
27.462079
 30
0.0
 10
750.820296
 20
16.789846
 30
0.0
  0
SPLINE
  5
19d
100
AcDbEntity
  8
0
 62
7
100
AcDbSpline
 70
8
 71
3
 72
8
 73
4
 74
0
 40
0
 40
0
 40
0
 40
0
 40
1
 40
1
 40
1
 40
1
 10
750.820296
 20
16.789846
 30
0.0
 10
756.981886
 20
6.117613
 30
0.0
 10
769.196667
 20
0.482781
 30
0.0
 10
781.314583
 20
2.722479
 30
0.0
  0
SPLINE
  5
19e
100
AcDbEntity
  8
0
 62
7
100
AcDbSpline
 70
8
 71
3
 72
8
 73
4
 74
0
 40
0
 40
0
 40
0
 40
0
 40
1
 40
1
 40
1
 40
1
 10
781.314583
 20
2.722479
 30
0.0
 10
784.702573
 20
3.348483
 30
0.0
 10
788.201158
 20
2.628288
 30
0.0
 10
791.066331
 20
0.714821
 30
0.0
  0
SPLINE
  5
19f
100
AcDbEntity
  8
0
 62
7
100
AcDbSpline
 70
8
 71
3
 72
8
 73
4
 74
0
 40
0
 40
0
 40
0
 40
0
 40
1
 40
1
 40
1
 40
1
 10
791.066331
 20
0.714821
 30
0.0
 10
795.517681
 20
-2.258302
 30
0.0
 10
800.702721
 20
-3.946079
 30
0.0
 10
806.051246
 20
-4.163037
 30
0.0
  0
SPLINE
  5
1a0
100
AcDbEntity
  8
0
 62
7
100
AcDbSpline
 70
8
 71
3
 72
8
 73
4
 74
0
 40
0
 40
0
 40
0
 40
0
 40
1
 40
1
 40
1
 40
1
 10
305.198727
 20
-187.649462
 30
0.0
 10
299.622104
 20
-187.423244
 30
0.0
 10
294.787373
 20
-183.721723
 30
0.0
 10
293.114148
 20
-178.397248
 30
0.0
  0
SPLINE
  5
1a1
100
AcDbEntity
  8
0
 62
7
100
AcDbSpline
 70
8
 71
3
 72
8
 73
4
 74
0
 40
0
 40
0
 40
0
 40
0
 40
1
 40
1
 40
1
 40
1
 10
293.114148
 20
-178.397248
 30
0.0
 10
288.845625
 20
-164.814069
 30
0.0
 10
285.638875
 20
-150.920533
 30
0.0
 10
283.519563
 20
-136.840996
 30
0.0
  0
SPLINE
  5
1a2
100
AcDbEntity
  8
0
 62
7
100
AcDbSpline
 70
8
 71
3
 72
8
 73
4
 74
0
 40
0
 40
0
 40
0
 40
0
 40
1
 40
1
 40
1
 40
1
 10
283.519563
 20
-136.840996
 30
0.0
 10
282.810479
 20
-132.127444
 30
0.0
 10
282.225750
 20
-127.395900
 30
0.0
 10
281.760083
 20
-122.651656
 30
0.0
  0
SPLINE
  5
1a3
100
AcDbEntity
  8
0
 62
7
100
AcDbSpline
 70
8
 71
3
 72
8
 73
4
 74
0
 40
0
 40
0
 40
0
 40
0
 40
1
 40
1
 40
1
 40
1
 10
281.760083
 20
-122.651656
 30
0.0
 10
281.424063
 20
-119.192652
 30
0.0
 10
282.561771
 20
-115.751879
 30
0.0
 10
284.898042
 20
-113.177694
 30
0.0
  0
SPLINE
  5
1a4
100
AcDbEntity
  8
0
 62
7
100
AcDbSpline
 70
8
 71
3
 72
8
 73
4
 74
0
 40
0
 40
0
 40
0
 40
0
 40
1
 40
1
 40
1
 40
1
 10
284.898042
 20
-113.177694
 30
0.0
 10
287.231667
 20
-110.603484
 30
0.0
 10
290.546896
 20
-109.135417
 30
0.0
 10
294.021669
 20
-109.135417
 30
0.0
  0
LINE
  5
1a5
100
AcDbEntity
  8
0
 62
7
100
AcDbLine
 10
294.021669
 20
-109.135417
 30
0.0
 11
817.228331
 21
-109.135417
 31
0.0
  0
SPLINE
  5
1a6
100
AcDbEntity
  8
0
 62
7
100
AcDbSpline
 70
8
 71
3
 72
8
 73
4
 74
0
 40
0
 40
0
 40
0
 40
0
 40
1
 40
1
 40
1
 40
1
 10
817.228331
 20
-109.135417
 30
0.0
 10
820.703078
 20
-109.135417
 30
0.0
 10
824.018333
 20
-110.603484
 30
0.0
 10
826.351932
 20
-113.177694
 30
0.0
  0
SPLINE
  5
1a7
100
AcDbEntity
  8
0
 62
7
100
AcDbSpline
 70
8
 71
3
 72
8
 73
4
 74
0
 40
0
 40
0
 40
0
 40
0
 40
1
 40
1
 40
1
 40
1
 10
826.351932
 20
-113.177694
 30
0.0
 10
828.688229
 20
-115.751879
 30
0.0
 10
829.825911
 20
-119.192652
 30
0.0
 10
829.489890
 20
-122.651656
 30
0.0
  0
SPLINE
  5
1a8
100
AcDbEntity
  8
0
 62
7
100
AcDbSpline
 70
8
 71
3
 72
8
 73
4
 74
0
 40
0
 40
0
 40
0
 40
0
 40
1
 40
1
 40
1
 40
1
 10
829.489890
 20
-122.651656
 30
0.0
 10
829.024250
 20
-127.395900
 30
0.0
 10
828.439521
 20
-132.127444
 30
0.0
 10
827.730438
 20
-136.840996
 30
0.0
  0
SPLINE
  5
1a9
100
AcDbEntity
  8
0
 62
7
100
AcDbSpline
 70
8
 71
3
 72
8
 73
4
 74
0
 40
0
 40
0
 40
0
 40
0
 40
1
 40
1
 40
1
 40
1
 10
827.730438
 20
-136.840996
 30
0.0
 10
825.611099
 20
-150.920533
 30
0.0
 10
822.404375
 20
-164.814069
 30
0.0
 10
818.135852
 20
-178.397248
 30
0.0
  0
SPLINE
  5
1aa
100
AcDbEntity
  8
0
 62
7
100
AcDbSpline
 70
8
 71
3
 72
8
 73
4
 74
0
 40
0
 40
0
 40
0
 40
0
 40
1
 40
1
 40
1
 40
1
 10
818.135852
 20
-178.397248
 30
0.0
 10
816.462601
 20
-183.721723
 30
0.0
 10
811.627869
 20
-187.423244
 30
0.0
 10
806.051246
 20
-187.649462
 30
0.0
  0
SPLINE
  5
1ab
100
AcDbEntity
  8
0
 62
7
100
AcDbSpline
 70
8
 71
3
 72
8
 73
4
 74
0
 40
0
 40
0
 40
0
 40
0
 40
1
 40
1
 40
1
 40
1
 10
806.051246
 20
-187.649462
 30
0.0
 10
800.702721
 20
-187.866394
 30
0.0
 10
795.517681
 20
-189.554198
 30
0.0
 10
791.066331
 20
-192.527321
 30
0.0
  0
SPLINE
  5
1ac
100
AcDbEntity
  8
0
 62
7
100
AcDbSpline
 70
8
 71
3
 72
8
 73
4
 74
0
 40
0
 40
0
 40
0
 40
0
 40
1
 40
1
 40
1
 40
1
 10
791.066331
 20
-192.527321
 30
0.0
 10
788.201158
 20
-194.440761
 30
0.0
 10
784.702573
 20
-195.160983
 30
0.0
 10
781.314583
 20
-194.534979
 30
0.0
  0
SPLINE
  5
1ad
100
AcDbEntity
  8
0
 62
7
100
AcDbSpline
 70
8
 71
3
 72
8
 73
4
 74
0
 40
0
 40
0
 40
0
 40
0
 40
1
 40
1
 40
1
 40
1
 10
781.314583
 20
-194.534979
 30
0.0
 10
769.196667
 20
-192.295281
 30
0.0
 10
756.981886
 20
-197.930112
 30
0.0
 10
750.820296
 20
-208.602346
 30
0.0
  0
SPLINE
  5
1ae
100
AcDbEntity
  8
0
 62
7
100
AcDbSpline
 70
8
 71
3
 72
8
 73
4
 74
0
 40
0
 40
0
 40
0
 40
0
 40
1
 40
1
 40
1
 40
1
 10
750.820296
 20
-208.602346
 30
0.0
 10
744.658679
 20
-219.274579
 30
0.0
 10
745.886346
 20
-232.670433
 30
0.0
 10
753.884700
 20
-242.044885
 30
0.0
  0
SPLINE
  5
1af
100
AcDbEntity
  8
0
 62
7
100
AcDbSpline
 70
8
 71
3
 72
8
 73
4
 74
0
 40
0
 40
0
 40
0
 40
0
 40
1
 40
1
 40
1
 40
1
 10
753.884700
 20
-242.044885
 30
0.0
 10
756.120932
 20
-244.665848
 30
0.0
 10
757.246496
 20
-248.055954
 30
0.0
 10
757.021838
 20
-251.493950
 30
0.0
  0
SPLINE
  5
1b0
100
AcDbEntity
  8
0
 62
7
100
AcDbSpline
 70
8
 71
3
 72
8
 73
4
 74
0
 40
0
 40
0
 40
0
 40
0
 40
1
 40
1
 40
1
 40
1
 10
757.021838
 20
-251.493950
 30
0.0
 10
756.672853
 20
-256.835358
 30
0.0
 10
757.803682
 20
-262.169596
 30
0.0
 10
760.290236
 20
-266.910162
 30
0.0
  0
SPLINE
  5
1b1
100
AcDbEntity
  8
0
 62
7
100
AcDbSpline
 70
8
 71
3
 72
8
 73
4
 74
0
 40
0
 40
0
 40
0
 40
0
 40
1
 40
1
 40
1
 40
1
 10
760.290236
 20
-266.910162
 30
0.0
 10
762.882650
 20
-271.852844
 30
0.0
 10
762.094192
 20
-277.890635
 30
0.0
 10
758.319619
 20
-282.001996
 30
0.0
  0
SPLINE
  5
1b2
100
AcDbEntity
  8
0
 62
7
100
AcDbSpline
 70
8
 71
3
 72
8
 73
4
 74
0
 40
0
 40
0
 40
0
 40
0
 40
1
 40
1
 40
1
 40
1
 10
758.319619
 20
-282.001996
 30
0.0
 10
748.690665
 20
-292.489815
 30
0.0
 10
738.262113
 20
-302.214575
 30
0.0
 10
727.127890
 20
-311.088435
 30
0.0
  0
SPLINE
  5
1b3
100
AcDbEntity
  8
0
 62
7
100
AcDbSpline
 70
8
 71
3
 72
8
 73
4
 74
0
 40
0
 40
0
 40
0
 40
0
 40
1
 40
1
 40
1
 40
1
 10
727.127890
 20
-311.088435
 30
0.0
 10
705.667801
 20
-328.192690
 30
0.0
 10
681.769602
 20
-341.990181
 30
0.0
 10
656.226727
 20
-352.023446
 30
0.0
  0
SPLINE
  5
1b4
100
AcDbEntity
  8
0
 62
7
100
AcDbSpline
 70
8
 71
3
 72
8
 73
4
 74
0
 40
0
 40
0
 40
0
 40
0
 40
1
 40
1
 40
1
 40
1
 10
656.226727
 20
-352.023446
 30
0.0
 10
642.974542
 20
-357.228858
 30
0.0
 10
629.338446
 20
-361.397104
 30
0.0
 10
615.441206
 20
-364.492703
 30
0.0
  0
SPLINE
  5
1b5
100
AcDbEntity
  8
0
 62
7
100
AcDbSpline
 70
8
 71
3
 72
8
 73
4
 74
0
 40
0
 40
0
 40
0
 40
0
 40
1
 40
1
 40
1
 40
1
 10
615.441206
 20
-364.492703
 30
0.0
 10
609.993435
 20
-365.707167
 30
0.0
 10
604.370246
 20
-363.370869
 30
0.0
 10
601.386010
 20
-358.653375
 30
0.0
  0
SPLINE
  5
1b6
100
AcDbEntity
  8
0
 62
7
100
AcDbSpline
 70
8
 71
3
 72
8
 73
4
 74
0
 40
0
 40
0
 40
0
 40
0
 40
1
 40
1
 40
1
 40
1
 10
601.386010
 20
-358.653375
 30
0.0
 10
598.524013
 20
-354.130058
 30
0.0
 10
594.469802
 20
-350.483544
 30
0.0
 10
589.669467
 20
-348.115021
 30
0.0
  0
SPLINE
  5
1b7
100
AcDbEntity
  8
0
 62
7
100
AcDbSpline
 70
8
 71
3
 72
8
 73
4
 74
0
 40
0
 40
0
 40
0
 40
0
 40
1
 40
1
 40
1
 40
1
 10
589.669467
 20
-348.115021
 30
0.0
 10
586.579663
 20
-346.590492
 30
0.0
 10
584.206615
 20
-343.920819
 30
0.0
 10
583.054883
 20
-340.673615
 30
0.0
  0
SPLINE
  5
1b8
100
AcDbEntity
  8
0
 62
7
100
AcDbSpline
 70
8
 71
3
 72
8
 73
4
 74
0
 40
0
 40
0
 40
0
 40
0
 40
1
 40
1
 40
1
 40
1
 10
583.054883
 20
-340.673615
 30
0.0
 10
578.935506
 20
-329.059438
 30
0.0
 10
567.948101
 20
-321.298442
 30
0.0
 10
555.625000
 20
-321.298442
 30
0.0
  0
SPLINE
  5
1b9
100
AcDbEntity
  8
0
 62
7
100
AcDbSpline
 70
8
 71
3
 72
8
 73
4
 74
0
 40
0
 40
0
 40
0
 40
0
 40
1
 40
1
 40
1
 40
1
 10
555.625000
 20
-321.298442
 30
0.0
 10
543.301899
 20
-321.298442
 30
0.0
 10
532.314494
 20
-329.059438
 30
0.0
 10
528.195117
 20
-340.673615
 30
0.0
  0
SPLINE
  5
1ba
100
AcDbEntity
  8
0
 62
7
100
AcDbSpline
 70
8
 71
3
 72
8
 73
4
 74
0
 40
0
 40
0
 40
0
 40
0
 40
1
 40
1
 40
1
 40
1
 10
528.195117
 20
-340.673615
 30
0.0
 10
527.043385
 20
-343.920819
 30
0.0
 10
524.670338
 20
-346.590492
 30
0.0
 10
521.580533
 20
-348.115021
 30
0.0
  0
SPLINE
  5
1bb
100
AcDbEntity
  8
0
 62
7
100
AcDbSpline
 70
8
 71
3
 72
8
 73
4
 74
0
 40
0
 40
0
 40
0
 40
0
 40
1
 40
1
 40
1
 40
1
 10
521.580533
 20
-348.115021
 30
0.0
 10
516.780198
 20
-350.483544
 30
0.0
 10
512.725988
 20
-354.130058
 30
0.0
 10
509.863990
 20
-358.653375
 30
0.0
  0
SPLINE
  5
1bc
100
AcDbEntity
  8
0
 62
7
100
AcDbSpline
 70
8
 71
3
 72
8
 73
4
 74
0
 40
0
 40
0
 40
0
 40
0
 40
1
 40
1
 40
1
 40
1
 10
509.863990
 20
-358.653375
 30
0.0
 10
506.879754
 20
-363.370869
 30
0.0
 10
501.256565
 20
-365.707167
 30
0.0
 10
495.808794
 20
-364.492703
 30
0.0
  0
SPLINE
  5
1bd
100
AcDbEntity
  8
0
 62
7
100
AcDbSpline
 70
8
 71
3
 72
8
 73
4
 74
0
 40
0
 40
0
 40
0
 40
0
 40
1
 40
1
 40
1
 40
1
 10
495.808794
 20
-364.492703
 30
0.0
 10
481.911554
 20
-361.397104
 30
0.0
 10
468.275458
 20
-357.228858
 30
0.0
 10
455.023273
 20
-352.023446
 30
0.0
  0
SPLINE
  5
1be
100
AcDbEntity
  8
0
 62
7
100
AcDbSpline
 70
8
 71
3
 72
8
 73
4
 74
0
 40
0
 40
0
 40
0
 40
0
 40
1
 40
1
 40
1
 40
1
 10
455.023273
 20
-352.023446
 30
0.0
 10
429.480398
 20
-341.990181
 30
0.0
 10
405.582173
 20
-328.192690
 30
0.0
 10
384.122083
 20
-311.088435
 30
0.0
  0
SPLINE
  5
1bf
100
AcDbEntity
  8
0
 62
7
100
AcDbSpline
 70
8
 71
3
 72
8
 73
4
 74
0
 40
0
 40
0
 40
0
 40
0
 40
1
 40
1
 40
1
 40
1
 10
384.122083
 20
-311.088435
 30
0.0
 10
372.987888
 20
-302.214575
 30
0.0
 10
362.559335
 20
-292.489815
 30
0.0
 10
352.930354
 20
-282.001996
 30
0.0
  0
SPLINE
  5
1c0
100
AcDbEntity
  8
0
 62
7
100
AcDbSpline
 70
8
 71
3
 72
8
 73
4
 74
0
 40
0
 40
0
 40
0
 40
0
 40
1
 40
1
 40
1
 40
1
 10
352.930354
 20
-282.001996
 30
0.0
 10
349.155808
 20
-277.890635
 30
0.0
 10
348.367350
 20
-271.852844
 30
0.0
 10
350.959738
 20
-266.910162
 30
0.0
  0
SPLINE
  5
1c1
100
AcDbEntity
  8
0
 62
7
100
AcDbSpline
 70
8
 71
3
 72
8
 73
4
 74
0
 40
0
 40
0
 40
0
 40
0
 40
1
 40
1
 40
1
 40
1
 10
350.959738
 20
-266.910162
 30
0.0
 10
353.446292
 20
-262.169596
 30
0.0
 10
354.577121
 20
-256.835358
 30
0.0
 10
354.228135
 20
-251.493950
 30
0.0
  0
SPLINE
  5
1c2
100
AcDbEntity
  8
0
 62
7
100
AcDbSpline
 70
8
 71
3
 72
8
 73
4
 74
0
 40
0
 40
0
 40
0
 40
0
 40
1
 40
1
 40
1
 40
1
 10
354.228135
 20
-251.493950
 30
0.0
 10
354.003504
 20
-248.055954
 30
0.0
 10
355.129042
 20
-244.665848
 30
0.0
 10
357.365300
 20
-242.044885
 30
0.0
  0
SPLINE
  5
1c3
100
AcDbEntity
  8
0
 62
7
100
AcDbSpline
 70
8
 71
3
 72
8
 73
4
 74
0
 40
0
 40
0
 40
0
 40
0
 40
1
 40
1
 40
1
 40
1
 10
357.365300
 20
-242.044885
 30
0.0
 10
365.363654
 20
-232.670433
 30
0.0
 10
366.591321
 20
-219.274579
 30
0.0
 10
360.429704
 20
-208.602346
 30
0.0
  0
SPLINE
  5
1c4
100
AcDbEntity
  8
0
 62
7
100
AcDbSpline
 70
8
 71
3
 72
8
 73
4
 74
0
 40
0
 40
0
 40
0
 40
0
 40
1
 40
1
 40
1
 40
1
 10
360.429704
 20
-208.602346
 30
0.0
 10
354.268088
 20
-197.930112
 30
0.0
 10
342.053333
 20
-192.295281
 30
0.0
 10
329.935417
 20
-194.534979
 30
0.0
  0
SPLINE
  5
1c5
100
AcDbEntity
  8
0
 62
7
100
AcDbSpline
 70
8
 71
3
 72
8
 73
4
 74
0
 40
0
 40
0
 40
0
 40
0
 40
1
 40
1
 40
1
 40
1
 10
329.935417
 20
-194.534979
 30
0.0
 10
326.547427
 20
-195.160983
 30
0.0
 10
323.048842
 20
-194.440761
 30
0.0
 10
320.183669
 20
-192.527321
 30
0.0
  0
SPLINE
  5
1c6
100
AcDbEntity
  8
0
 62
7
100
AcDbSpline
 70
8
 71
3
 72
8
 73
4
 74
0
 40
0
 40
0
 40
0
 40
0
 40
1
 40
1
 40
1
 40
1
 10
320.183669
 20
-192.527321
 30
0.0
 10
315.732319
 20
-189.554198
 30
0.0
 10
310.547279
 20
-187.866394
 30
0.0
 10
305.198727
 20
-187.649462
 30
0.0
  0
SPLINE
  5
1c7
100
AcDbEntity
  8
0
 62
7
100
AcDbSpline
 70
8
 71
3
 72
8
 73
4
 74
0
 40
0
 40
0
 40
0
 40
0
 40
1
 40
1
 40
1
 40
1
 10
279.802167
 20
-192.382858
 30
0.0
 10
279.802167
 20
-194.794006
 30
0.0
 10
277.846896
 20
-196.748483
 30
0.0
 10
275.436542
 20
-196.748483
 30
0.0
  0
SPLINE
  5
1c8
100
AcDbEntity
  8
0
 62
7
100
AcDbSpline
 70
8
 71
3
 72
8
 73
4
 74
0
 40
0
 40
0
 40
0
 40
0
 40
1
 40
1
 40
1
 40
1
 10
275.436542
 20
-196.748483
 30
0.0
 10
273.026188
 20
-196.748483
 30
0.0
 10
271.070917
 20
-194.794006
 30
0.0
 10
271.070917
 20
-192.382858
 30
0.0
  0
SPLINE
  5
1c9
100
AcDbEntity
  8
0
 62
7
100
AcDbSpline
 70
8
 71
3
 72
8
 73
4
 74
0
 40
0
 40
0
 40
0
 40
0
 40
1
 40
1
 40
1
 40
1
 10
271.070917
 20
-192.382858
 30
0.0
 10
271.070917
 20
-189.971975
 30
0.0
 10
273.026188
 20
-188.017233
 30
0.0
 10
275.436542
 20
-188.017233
 30
0.0
  0
SPLINE
  5
1ca
100
AcDbEntity
  8
0
 62
7
100
AcDbSpline
 70
8
 71
3
 72
8
 73
4
 74
0
 40
0
 40
0
 40
0
 40
0
 40
1
 40
1
 40
1
 40
1
 10
275.436542
 20
-188.017233
 30
0.0
 10
277.846896
 20
-188.017233
 30
0.0
 10
279.802167
 20
-189.971975
 30
0.0
 10
279.802167
 20
-192.382858
 30
0.0
  0
SPLINE
  5
1cb
100
AcDbEntity
  8
0
 62
7
100
AcDbSpline
 70
8
 71
3
 72
8
 73
4
 74
0
 40
0
 40
0
 40
0
 40
0
 40
1
 40
1
 40
1
 40
1
 10
279.802167
 20
0.570358
 30
0.0
 10
279.802167
 20
-1.840525
 30
0.0
 10
277.846896
 20
-3.795267
 30
0.0
 10
275.436542
 20
-3.795267
 30
0.0
  0
SPLINE
  5
1cc
100
AcDbEntity
  8
0
 62
7
100
AcDbSpline
 70
8
 71
3
 72
8
 73
4
 74
0
 40
0
 40
0
 40
0
 40
0
 40
1
 40
1
 40
1
 40
1
 10
275.436542
 20
-3.795267
 30
0.0
 10
273.026188
 20
-3.795267
 30
0.0
 10
271.070917
 20
-1.840525
 30
0.0
 10
271.070917
 20
0.570358
 30
0.0
  0
SPLINE
  5
1cd
100
AcDbEntity
  8
0
 62
7
100
AcDbSpline
 70
8
 71
3
 72
8
 73
4
 74
0
 40
0
 40
0
 40
0
 40
0
 40
1
 40
1
 40
1
 40
1
 10
271.070917
 20
0.570358
 30
0.0
 10
271.070917
 20
2.981506
 30
0.0
 10
273.026188
 20
4.935983
 30
0.0
 10
275.436542
 20
4.935983
 30
0.0
  0
SPLINE
  5
1ce
100
AcDbEntity
  8
0
 62
7
100
AcDbSpline
 70
8
 71
3
 72
8
 73
4
 74
0
 40
0
 40
0
 40
0
 40
0
 40
1
 40
1
 40
1
 40
1
 10
275.436542
 20
4.935983
 30
0.0
 10
277.846896
 20
4.935983
 30
0.0
 10
279.802167
 20
2.981506
 30
0.0
 10
279.802167
 20
0.570358
 30
0.0
  0
SPLINE
  5
1cf
100
AcDbEntity
  8
0
 62
7
100
AcDbSpline
 70
8
 71
3
 72
8
 73
4
 74
0
 40
0
 40
0
 40
0
 40
0
 40
1
 40
1
 40
1
 40
1
 10
840.179057
 20
0.570358
 30
0.0
 10
840.179057
 20
-1.840525
 30
0.0
 10
838.223786
 20
-3.795267
 30
0.0
 10
835.813432
 20
-3.795267
 30
0.0
  0
SPLINE
  5
1d0
100
AcDbEntity
  8
0
 62
7
100
AcDbSpline
 70
8
 71
3
 72
8
 73
4
 74
0
 40
0
 40
0
 40
0
 40
0
 40
1
 40
1
 40
1
 40
1
 10
835.813432
 20
-3.795267
 30
0.0
 10
833.403078
 20
-3.795267
 30
0.0
 10
831.447807
 20
-1.840525
 30
0.0
 10
831.447807
 20
0.570358
 30
0.0
  0
SPLINE
  5
1d1
100
AcDbEntity
  8
0
 62
7
100
AcDbSpline
 70
8
 71
3
 72
8
 73
4
 74
0
 40
0
 40
0
 40
0
 40
0
 40
1
 40
1
 40
1
 40
1
 10
831.447807
 20
0.570358
 30
0.0
 10
831.447807
 20
2.981506
 30
0.0
 10
833.403078
 20
4.935983
 30
0.0
 10
835.813432
 20
4.935983
 30
0.0
  0
SPLINE
  5
1d2
100
AcDbEntity
  8
0
 62
7
100
AcDbSpline
 70
8
 71
3
 72
8
 73
4
 74
0
 40
0
 40
0
 40
0
 40
0
 40
1
 40
1
 40
1
 40
1
 10
835.813432
 20
4.935983
 30
0.0
 10
838.223786
 20
4.935983
 30
0.0
 10
840.179057
 20
2.981506
 30
0.0
 10
840.179057
 20
0.570358
 30
0.0
  0
SPLINE
  5
1d3
100
AcDbEntity
  8
0
 62
7
100
AcDbSpline
 70
8
 71
3
 72
8
 73
4
 74
0
 40
0
 40
0
 40
0
 40
0
 40
1
 40
1
 40
1
 40
1
 10
503.447579
 20
194.981966
 30
0.0
 10
503.447579
 20
192.571612
 30
0.0
 10
501.493102
 20
190.616341
 30
0.0
 10
499.081954
 20
190.616341
 30
0.0
  0
SPLINE
  5
1d4
100
AcDbEntity
  8
0
 62
7
100
AcDbSpline
 70
8
 71
3
 72
8
 73
4
 74
0
 40
0
 40
0
 40
0
 40
0
 40
1
 40
1
 40
1
 40
1
 10
499.081954
 20
190.616341
 30
0.0
 10
496.670806
 20
190.616341
 30
0.0
 10
494.716329
 20
192.571612
 30
0.0
 10
494.716329
 20
194.981966
 30
0.0
  0
SPLINE
  5
1d5
100
AcDbEntity
  8
0
 62
7
100
AcDbSpline
 70
8
 71
3
 72
8
 73
4
 74
0
 40
0
 40
0
 40
0
 40
0
 40
1
 40
1
 40
1
 40
1
 10
494.716329
 20
194.981966
 30
0.0
 10
494.716329
 20
197.394964
 30
0.0
 10
496.670806
 20
199.347589
 30
0.0
 10
499.081954
 20
199.347589
 30
0.0
  0
SPLINE
  5
1d6
100
AcDbEntity
  8
0
 62
7
100
AcDbSpline
 70
8
 71
3
 72
8
 73
4
 74
0
 40
0
 40
0
 40
0
 40
0
 40
1
 40
1
 40
1
 40
1
 10
499.081954
 20
199.347589
 30
0.0
 10
501.493102
 20
199.347589
 30
0.0
 10
503.447579
 20
197.394964
 30
0.0
 10
503.447579
 20
194.981966
 30
0.0
  0
SPLINE
  5
1d7
100
AcDbEntity
  8
0
 62
7
100
AcDbSpline
 70
8
 71
3
 72
8
 73
4
 74
0
 40
0
 40
0
 40
0
 40
0
 40
1
 40
1
 40
1
 40
1
 10
616.533671
 20
-386.794432
 30
0.0
 10
616.533671
 20
-389.207458
 30
0.0
 10
614.579194
 20
-391.160057
 30
0.0
 10
612.168046
 20
-391.160057
 30
0.0
  0
SPLINE
  5
1d8
100
AcDbEntity
  8
0
 62
7
100
AcDbSpline
 70
8
 71
3
 72
8
 73
4
 74
0
 40
0
 40
0
 40
0
 40
0
 40
1
 40
1
 40
1
 40
1
 10
612.168046
 20
-391.160057
 30
0.0
 10
609.756898
 20
-391.160057
 30
0.0
 10
607.802421
 20
-389.207458
 30
0.0
 10
607.802421
 20
-386.794432
 30
0.0
  0
SPLINE
  5
1d9
100
AcDbEntity
  8
0
 62
7
100
AcDbSpline
 70
8
 71
3
 72
8
 73
4
 74
0
 40
0
 40
0
 40
0
 40
0
 40
1
 40
1
 40
1
 40
1
 10
607.802421
 20
-386.794432
 30
0.0
 10
607.802421
 20
-384.384078
 30
0.0
 10
609.756898
 20
-382.428807
 30
0.0
 10
612.168046
 20
-382.428807
 30
0.0
  0
SPLINE
  5
1da
100
AcDbEntity
  8
0
 62
7
100
AcDbSpline
 70
8
 71
3
 72
8
 73
4
 74
0
 40
0
 40
0
 40
0
 40
0
 40
1
 40
1
 40
1
 40
1
 10
612.168046
 20
-382.428807
 30
0.0
 10
614.579194
 20
-382.428807
 30
0.0
 10
616.533671
 20
-384.384078
 30
0.0
 10
616.533671
 20
-386.794432
 30
0.0
  0
SPLINE
  5
1db
100
AcDbEntity
  8
0
 62
7
100
AcDbSpline
 70
8
 71
3
 72
8
 73
4
 74
0
 40
0
 40
0
 40
0
 40
0
 40
1
 40
1
 40
1
 40
1
 10
503.447579
 20
-386.794432
 30
0.0
 10
503.447579
 20
-389.207458
 30
0.0
 10
501.493102
 20
-391.160057
 30
0.0
 10
499.081954
 20
-391.160057
 30
0.0
  0
SPLINE
  5
1dc
100
AcDbEntity
  8
0
 62
7
100
AcDbSpline
 70
8
 71
3
 72
8
 73
4
 74
0
 40
0
 40
0
 40
0
 40
0
 40
1
 40
1
 40
1
 40
1
 10
499.081954
 20
-391.160057
 30
0.0
 10
496.670806
 20
-391.160057
 30
0.0
 10
494.716329
 20
-389.207458
 30
0.0
 10
494.716329
 20
-386.794432
 30
0.0
  0
SPLINE
  5
1dd
100
AcDbEntity
  8
0
 62
7
100
AcDbSpline
 70
8
 71
3
 72
8
 73
4
 74
0
 40
0
 40
0
 40
0
 40
0
 40
1
 40
1
 40
1
 40
1
 10
494.716329
 20
-386.794432
 30
0.0
 10
494.716329
 20
-384.384078
 30
0.0
 10
496.670806
 20
-382.428807
 30
0.0
 10
499.081954
 20
-382.428807
 30
0.0
  0
SPLINE
  5
1de
100
AcDbEntity
  8
0
 62
7
100
AcDbSpline
 70
8
 71
3
 72
8
 73
4
 74
0
 40
0
 40
0
 40
0
 40
0
 40
1
 40
1
 40
1
 40
1
 10
499.081954
 20
-382.428807
 30
0.0
 10
501.493102
 20
-382.428807
 30
0.0
 10
503.447579
 20
-384.384078
 30
0.0
 10
503.447579
 20
-386.794432
 30
0.0
  0
SPLINE
  5
1df
100
AcDbEntity
  8
0
 62
7
100
AcDbSpline
 70
8
 71
3
 72
8
 73
4
 74
0
 40
0
 40
0
 40
0
 40
0
 40
1
 40
1
 40
1
 40
1
 10
783.636276
 20
-290.318379
 30
0.0
 10
783.636276
 20
-292.729527
 30
0.0
 10
781.681560
 20
-294.684004
 30
0.0
 10
779.270677
 20
-294.684004
 30
0.0
  0
SPLINE
  5
1e0
100
AcDbEntity
  8
0
 62
7
100
AcDbSpline
 70
8
 71
3
 72
8
 73
4
 74
0
 40
0
 40
0
 40
0
 40
0
 40
1
 40
1
 40
1
 40
1
 10
779.270677
 20
-294.684004
 30
0.0
 10
776.859529
 20
-294.684004
 30
0.0
 10
774.905052
 20
-292.729527
 30
0.0
 10
774.905052
 20
-290.318379
 30
0.0
  0
SPLINE
  5
1e1
100
AcDbEntity
  8
0
 62
7
100
AcDbSpline
 70
8
 71
3
 72
8
 73
4
 74
0
 40
0
 40
0
 40
0
 40
0
 40
1
 40
1
 40
1
 40
1
 10
774.905052
 20
-290.318379
 30
0.0
 10
774.905052
 20
-287.907231
 30
0.0
 10
776.859529
 20
-285.952754
 30
0.0
 10
779.270677
 20
-285.952754
 30
0.0
  0
SPLINE
  5
1e2
100
AcDbEntity
  8
0
 62
7
100
AcDbSpline
 70
8
 71
3
 72
8
 73
4
 74
0
 40
0
 40
0
 40
0
 40
0
 40
1
 40
1
 40
1
 40
1
 10
779.270677
 20
-285.952754
 30
0.0
 10
781.681560
 20
-285.952754
 30
0.0
 10
783.636276
 20
-287.907231
 30
0.0
 10
783.636276
 20
-290.318379
 30
0.0
  0
SPLINE
  5
1e3
100
AcDbEntity
  8
0
 62
7
100
AcDbSpline
 70
8
 71
3
 72
8
 73
4
 74
0
 40
0
 40
0
 40
0
 40
0
 40
1
 40
1
 40
1
 40
1
 10
840.179057
 20
-192.382858
 30
0.0
 10
840.179057
 20
-194.794006
 30
0.0
 10
838.223786
 20
-196.748483
 30
0.0
 10
835.813432
 20
-196.748483
 30
0.0
  0
SPLINE
  5
1e4
100
AcDbEntity
  8
0
 62
7
100
AcDbSpline
 70
8
 71
3
 72
8
 73
4
 74
0
 40
0
 40
0
 40
0
 40
0
 40
1
 40
1
 40
1
 40
1
 10
835.813432
 20
-196.748483
 30
0.0
 10
833.403078
 20
-196.748483
 30
0.0
 10
831.447807
 20
-194.794006
 30
0.0
 10
831.447807
 20
-192.382858
 30
0.0
  0
SPLINE
  5
1e5
100
AcDbEntity
  8
0
 62
7
100
AcDbSpline
 70
8
 71
3
 72
8
 73
4
 74
0
 40
0
 40
0
 40
0
 40
0
 40
1
 40
1
 40
1
 40
1
 10
831.447807
 20
-192.382858
 30
0.0
 10
831.447807
 20
-189.971975
 30
0.0
 10
833.403078
 20
-188.017233
 30
0.0
 10
835.813432
 20
-188.017233
 30
0.0
  0
SPLINE
  5
1e6
100
AcDbEntity
  8
0
 62
7
100
AcDbSpline
 70
8
 71
3
 72
8
 73
4
 74
0
 40
0
 40
0
 40
0
 40
0
 40
1
 40
1
 40
1
 40
1
 10
835.813432
 20
-188.017233
 30
0.0
 10
838.223786
 20
-188.017233
 30
0.0
 10
840.179057
 20
-189.971975
 30
0.0
 10
840.179057
 20
-192.382858
 30
0.0
  0
SPLINE
  5
1e7
100
AcDbEntity
  8
0
 62
7
100
AcDbSpline
 70
8
 71
3
 72
8
 73
4
 74
0
 40
0
 40
0
 40
0
 40
0
 40
1
 40
1
 40
1
 40
1
 10
616.533671
 20
194.981966
 30
0.0
 10
616.533671
 20
192.571612
 30
0.0
 10
614.579194
 20
190.616341
 30
0.0
 10
612.168046
 20
190.616341
 30
0.0
  0
SPLINE
  5
1e8
100
AcDbEntity
  8
0
 62
7
100
AcDbSpline
 70
8
 71
3
 72
8
 73
4
 74
0
 40
0
 40
0
 40
0
 40
0
 40
1
 40
1
 40
1
 40
1
 10
612.168046
 20
190.616341
 30
0.0
 10
609.756898
 20
190.616341
 30
0.0
 10
607.802421
 20
192.571612
 30
0.0
 10
607.802421
 20
194.981966
 30
0.0
  0
SPLINE
  5
1e9
100
AcDbEntity
  8
0
 62
7
100
AcDbSpline
 70
8
 71
3
 72
8
 73
4
 74
0
 40
0
 40
0
 40
0
 40
0
 40
1
 40
1
 40
1
 40
1
 10
607.802421
 20
194.981966
 30
0.0
 10
607.802421
 20
197.394964
 30
0.0
 10
609.756898
 20
199.347589
 30
0.0
 10
612.168046
 20
199.347589
 30
0.0
  0
SPLINE
  5
1ea
100
AcDbEntity
  8
0
 62
7
100
AcDbSpline
 70
8
 71
3
 72
8
 73
4
 74
0
 40
0
 40
0
 40
0
 40
0
 40
1
 40
1
 40
1
 40
1
 10
612.168046
 20
199.347589
 30
0.0
 10
614.579194
 20
199.347589
 30
0.0
 10
616.533671
 20
197.394964
 30
0.0
 10
616.533671
 20
194.981966
 30
0.0
  0
SPLINE
  5
1eb
100
AcDbEntity
  8
0
 62
7
100
AcDbSpline
 70
8
 71
3
 72
8
 73
4
 74
0
 40
0
 40
0
 40
0
 40
0
 40
1
 40
1
 40
1
 40
1
 10
783.636276
 20
98.505887
 30
0.0
 10
783.636276
 20
96.094742
 30
0.0
 10
781.681560
 20
94.140262
 30
0.0
 10
779.270677
 20
94.140262
 30
0.0
  0
SPLINE
  5
1ec
100
AcDbEntity
  8
0
 62
7
100
AcDbSpline
 70
8
 71
3
 72
8
 73
4
 74
0
 40
0
 40
0
 40
0
 40
0
 40
1
 40
1
 40
1
 40
1
 10
779.270677
 20
94.140262
 30
0.0
 10
776.859529
 20
94.140262
 30
0.0
 10
774.905052
 20
96.094742
 30
0.0
 10
774.905052
 20
98.505887
 30
0.0
  0
SPLINE
  5
1ed
100
AcDbEntity
  8
0
 62
7
100
AcDbSpline
 70
8
 71
3
 72
8
 73
4
 74
0
 40
0
 40
0
 40
0
 40
0
 40
1
 40
1
 40
1
 40
1
 10
774.905052
 20
98.505887
 30
0.0
 10
774.905052
 20
100.917032
 30
0.0
 10
776.859529
 20
102.871512
 30
0.0
 10
779.270677
 20
102.871512
 30
0.0
  0
SPLINE
  5
1ee
100
AcDbEntity
  8
0
 62
7
100
AcDbSpline
 70
8
 71
3
 72
8
 73
4
 74
0
 40
0
 40
0
 40
0
 40
0
 40
1
 40
1
 40
1
 40
1
 10
779.270677
 20
102.871512
 30
0.0
 10
781.681560
 20
102.871512
 30
0.0
 10
783.636276
 20
100.917032
 30
0.0
 10
783.636276
 20
98.505887
 30
0.0
  0
SPLINE
  5
1ef
100
AcDbEntity
  8
0
 62
7
100
AcDbSpline
 70
8
 71
3
 72
8
 73
4
 74
0
 40
0
 40
0
 40
0
 40
0
 40
1
 40
1
 40
1
 40
1
 10
336.344948
 20
98.505887
 30
0.0
 10
336.344948
 20
96.094742
 30
0.0
 10
334.390471
 20
94.140262
 30
0.0
 10
331.979323
 20
94.140262
 30
0.0
  0
SPLINE
  5
1f0
100
AcDbEntity
  8
0
 62
7
100
AcDbSpline
 70
8
 71
3
 72
8
 73
4
 74
0
 40
0
 40
0
 40
0
 40
0
 40
1
 40
1
 40
1
 40
1
 10
331.979323
 20
94.140262
 30
0.0
 10
329.568440
 20
94.140262
 30
0.0
 10
327.613698
 20
96.094742
 30
0.0
 10
327.613698
 20
98.505887
 30
0.0
  0
SPLINE
  5
1f1
100
AcDbEntity
  8
0
 62
7
100
AcDbSpline
 70
8
 71
3
 72
8
 73
4
 74
0
 40
0
 40
0
 40
0
 40
0
 40
1
 40
1
 40
1
 40
1
 10
327.613698
 20
98.505887
 30
0.0
 10
327.613698
 20
100.917032
 30
0.0
 10
329.568440
 20
102.871512
 30
0.0
 10
331.979323
 20
102.871512
 30
0.0
  0
SPLINE
  5
1f2
100
AcDbEntity
  8
0
 62
7
100
AcDbSpline
 70
8
 71
3
 72
8
 73
4
 74
0
 40
0
 40
0
 40
0
 40
0
 40
1
 40
1
 40
1
 40
1
 10
331.979323
 20
102.871512
 30
0.0
 10
334.390471
 20
102.871512
 30
0.0
 10
336.344948
 20
100.917032
 30
0.0
 10
336.344948
 20
98.505887
 30
0.0
  0
SPLINE
  5
1f3
100
AcDbEntity
  8
0
 62
7
100
AcDbSpline
 70
8
 71
3
 72
8
 73
4
 74
0
 40
0
 40
0
 40
0
 40
0
 40
1
 40
1
 40
1
 40
1
 10
336.344948
 20
-290.318379
 30
0.0
 10
336.344948
 20
-292.729527
 30
0.0
 10
334.390471
 20
-294.684004
 30
0.0
 10
331.979323
 20
-294.684004
 30
0.0
  0
SPLINE
  5
1f4
100
AcDbEntity
  8
0
 62
7
100
AcDbSpline
 70
8
 71
3
 72
8
 73
4
 74
0
 40
0
 40
0
 40
0
 40
0
 40
1
 40
1
 40
1
 40
1
 10
331.979323
 20
-294.684004
 30
0.0
 10
329.568440
 20
-294.684004
 30
0.0
 10
327.613698
 20
-292.729527
 30
0.0
 10
327.613698
 20
-290.318379
 30
0.0
  0
SPLINE
  5
1f5
100
AcDbEntity
  8
0
 62
7
100
AcDbSpline
 70
8
 71
3
 72
8
 73
4
 74
0
 40
0
 40
0
 40
0
 40
0
 40
1
 40
1
 40
1
 40
1
 10
327.613698
 20
-290.318379
 30
0.0
 10
327.613698
 20
-287.907231
 30
0.0
 10
329.568440
 20
-285.952754
 30
0.0
 10
331.979323
 20
-285.952754
 30
0.0
  0
SPLINE
  5
1f6
100
AcDbEntity
  8
0
 62
7
100
AcDbSpline
 70
8
 71
3
 72
8
 73
4
 74
0
 40
0
 40
0
 40
0
 40
0
 40
1
 40
1
 40
1
 40
1
 10
331.979323
 20
-285.952754
 30
0.0
 10
334.390471
 20
-285.952754
 30
0.0
 10
336.344948
 20
-287.907231
 30
0.0
 10
336.344948
 20
-290.318379
 30
0.0
  0
ENDSEC
  0
SECTION
  2
OBJECTS
  0
DICTIONARY
  5
C
330
0
100
AcDbDictionary
  3
ACAD_GROUP
350
D
  3
ACAD_MLINESTYLE
350
17
  0
DICTIONARY
  5
D
330
C
100
AcDbDictionary
  0
DICTIONARY
  5
1A
330
C
100
AcDbDictionary
  0
DICTIONARY
  5
17
330
C
100
AcDbDictionary
  3
STANDARD
350
18
  0
DICTIONARY
  5
19
330
C
100
AcDbDictionary
  0
ENDSEC
  0
EOF
