<?xml version="1.0" encoding="UTF-8" standalone="no"?>
<svg
   xmlns:dc="http://purl.org/dc/elements/1.1/"
   xmlns:cc="http://creativecommons.org/ns#"
   xmlns:rdf="http://www.w3.org/1999/02/22-rdf-syntax-ns#"
   xmlns:svg="http://www.w3.org/2000/svg"
   xmlns="http://www.w3.org/2000/svg"
   xmlns:sodipodi="http://sodipodi.sourceforge.net/DTD/sodipodi-0.dtd"
   xmlns:inkscape="http://www.inkscape.org/namespaces/inkscape"
   width="420mm"
   height="297mm"
   viewBox="0 0 4200 2970"
   version="1.2"
   id="svg5060"
   sodipodi:docname="center_base.svg"
   inkscape:version="0.92.2 (5c3e80d, 2017-08-06)">
  <metadata
     id="metadata5064">
    <rdf:RDF>
      <cc:Work
         rdf:about="">
        <dc:format>image/svg+xml</dc:format>
        <dc:type
           rdf:resource="http://purl.org/dc/dcmitype/StillImage" />
      </cc:Work>
    </rdf:RDF>
  </metadata>
  <sodipodi:namedview
     pagecolor="#ffffff"
     bordercolor="#666666"
     borderopacity="1"
     objecttolerance="10"
     gridtolerance="10"
     guidetolerance="10"
     inkscape:pageopacity="0"
     inkscape:pageshadow="2"
     inkscape:window-width="1920"
     inkscape:window-height="1015"
     id="namedview5062"
     showgrid="false"
     inkscape:zoom="0.58442937"
     inkscape:cx="657.57276"
     inkscape:cy="121.08455"
     inkscape:window-x="0"
     inkscape:window-y="0"
     inkscape:window-maximized="1"
     inkscape:current-layer="svg5060" />
  <title
     id="title2">FreeCAD SVG Export</title>
  <desc
     id="desc4">Drawing page: Page005 exported from FreeCAD document: mounting_sun</desc>
  <defs
     id="defs6" />
  <path
     d="m 3300,1485 c 0,662.742 -537.258,1200 -1200,1200 -662.742,0 -1200,-537.258 -1200,-1200 0,-662.742 537.258,-1200 1200,-1200 662.742,0 1200,537.258 1200,1200"
     id="path50"
     inkscape:connector-curvature="0"
     style="font-style:normal;font-weight:400;font-size:medium;font-family:'Sans Serif';vector-effect:non-scaling-stroke;fill:none;fill-opacity:1;fill-rule:evenodd;stroke:#000000;stroke-width:1;stroke-linecap:square;stroke-linejoin:bevel;stroke-opacity:1" />
  <path
     d="m 2216.409,1411.458 c 24.287,7.4432 50.682,-0.026 67.467,-19.0923 16.785,-19.0657 20.848,-46.1947 10.387,-69.3427 -10.461,-23.147 -33.509,-38.023 -58.911,-38.023 h -270.704 c -25.402,0 -48.45,14.876 -58.911,38.023 -10.461,23.148 -6.398,50.277 10.387,69.3427 16.785,19.066 43.18,26.5355 67.467,19.0923 21.8569,-6.6985 45.5911,0.5609 59.9614,18.3399 14.3702,17.7789 16.4911,42.5078 5.3581,62.4741 -11.133,19.9663 -33.2845,31.1611 -55.9625,28.2822 -30.493,-3.871 -60.612,9.5204 -78.165,34.7536 -17.552,25.2332 -19.632,58.1292 -5.397,85.3712 14.236,27.243 42.428,44.321 73.166,44.321 h 234.896 c 30.738,0 58.93,-17.078 73.166,-44.321 14.235,-27.242 12.155,-60.138 -5.397,-85.3712 -17.553,-25.2332 -47.672,-38.6246 -78.165,-34.7536 -22.678,2.8789 -44.8295,-8.3159 -55.9625,-28.2822 -11.133,-19.9663 -9.0121,-44.6952 5.3581,-62.4741 14.3703,-17.779 38.1045,-25.0384 59.9614,-18.3399"
     id="path66"
     inkscape:connector-curvature="0"
     style="font-style:normal;font-weight:400;font-size:medium;font-family:'Sans Serif';vector-effect:non-scaling-stroke;fill:none;fill-opacity:1;fill-rule:evenodd;stroke:#000000;stroke-width:1;stroke-linecap:square;stroke-linejoin:bevel;stroke-opacity:1" />
  <path
     d="m 1600.951,1320.487 c -18.599,24.472 -22.061,57.251 -8.985,85.0691 13.076,27.8176 40.525,46.0665 71.236,47.3599 30.71,1.2934 59.596,-14.583 74.965,-41.2026 l 117.448,-203.4264 c 15.369,-26.62 14.676,-59.574 -1.8,-85.524 -16.475,-25.949 -46.003,-40.596 -76.632,-38.011 -30.629,2.584 -57.286,21.972 -69.18,50.315 -9.543,22.741 -32.841,36.562 -57.374,34.036 -24.533,-2.526 -44.525,-20.805 -49.233,-45.014 -4.709,-24.209 6.974,-48.648 28.772,-60.186 v 0 c 16.084,-8.513 25.613,-25.732 24.283,-43.883 -1.329,-18.15 -13.265,-33.797 -30.418,-39.876 -17.154,-6.079 -36.279,-1.44 -48.741,11.823 v 0 c -76.162,81.055 -132.51,178.653 -164.625,285.139 v 0 c -5.255,17.424 0.29,36.306 14.132,48.122 13.841,11.816 33.359,14.329 49.743,6.405 16.383,-7.923 26.531,-24.785 25.861,-42.971 v 0 c -0.906,-24.646 14.417,-46.984 37.737,-55.011 23.32,-8.026 49.145,0.148 63.6,20.131 14.454,19.983 14.134,47.07 -0.789,66.705"
     id="path82"
     inkscape:connector-curvature="0"
     style="font-style:normal;font-weight:400;font-size:medium;font-family:'Sans Serif';vector-effect:non-scaling-stroke;fill:none;fill-opacity:1;fill-rule:evenodd;stroke:#000000;stroke-width:1;stroke-linecap:square;stroke-linejoin:bevel;stroke-opacity:1" />
  <path
     d="m 1708.003,1834.933 c 11.894,28.343 38.551,47.731 69.18,50.315 30.629,2.585 60.157,-12.062 76.632,-38.011 16.476,-25.95 17.169,-58.904 1.8,-85.524 l -117.448,-203.4264 c -15.369,-26.6196 -44.255,-42.496 -74.965,-41.2026 -30.711,1.2934 -58.16,19.5423 -71.236,47.3599 -13.076,27.8181 -9.614,60.5971 8.985,85.0691 14.923,19.635 15.243,46.722 0.789,66.705 -14.455,19.983 -40.28,28.157 -63.6,20.131 -23.32,-8.027 -38.643,-30.365 -37.737,-55.011 v 0 c 0.67,-18.186 -9.478,-35.048 -25.861,-42.971 -16.384,-7.924 -35.902,-5.411 -49.743,6.405 -13.842,11.816 -19.387,30.698 -14.132,48.122 v 0 c 32.115,106.486 88.463,204.084 164.625,285.139 v 0 c 12.462,13.263 31.587,17.902 48.741,11.823 17.153,-6.079 29.089,-21.726 30.418,-39.876 1.33,-18.151 -8.199,-35.37 -24.283,-43.883 v 0 c -21.798,-11.538 -33.481,-35.977 -28.772,-60.186 4.708,-24.209 24.7,-42.488 49.233,-45.014 24.533,-2.526 47.831,11.295 57.374,34.036"
     id="path98"
     inkscape:connector-curvature="0"
     style="font-style:normal;font-weight:400;font-size:medium;font-family:'Sans Serif';vector-effect:non-scaling-stroke;fill:none;fill-opacity:1;fill-rule:evenodd;stroke:#000000;stroke-width:1;stroke-linecap:square;stroke-linejoin:bevel;stroke-opacity:1" />
  <path
     d="m 2699.597,1288.662 c -0.67,18.186 9.478,35.048 25.861,42.971 16.384,7.924 35.902,5.411 49.743,-6.405 13.842,-11.816 19.387,-30.698 14.132,-48.122 v 0 C 2757.218,1170.62 2700.87,1073.022 2624.708,991.967 v 0 c -12.462,-13.263 -31.587,-17.902 -48.741,-11.823 -17.153,6.079 -29.089,21.726 -30.418,39.876 -1.33,18.151 8.199,35.37 24.283,43.883 v 0 c 21.798,11.538 33.481,35.977 28.772,60.186 -4.708,24.209 -24.7,42.488 -49.233,45.014 -24.533,2.526 -47.831,-11.295 -57.374,-34.036 -11.894,-28.343 -38.551,-47.731 -69.18,-50.315 -30.629,-2.585 -60.157,12.062 -76.632,38.011 -16.476,25.95 -17.169,58.904 -1.8,85.524 l 117.448,203.4264 c 15.369,26.6196 44.255,42.496 74.965,41.2026 30.711,-1.2934 58.16,-19.5423 71.236,-47.3599 13.076,-27.8181 9.614,-60.5971 -8.985,-85.0691 -14.923,-19.635 -15.243,-46.722 -0.789,-66.705 14.455,-19.983 40.28,-28.157 63.6,-20.131 23.32,8.027 38.643,30.365 37.737,55.011"
     id="path114"
     inkscape:connector-curvature="0"
     style="font-style:normal;font-weight:400;font-size:medium;font-family:'Sans Serif';vector-effect:non-scaling-stroke;fill:none;fill-opacity:1;fill-rule:evenodd;stroke:#000000;stroke-width:1;stroke-linecap:square;stroke-linejoin:bevel;stroke-opacity:1" />
  <path
     d="m 2569.832,1906.097 c -16.084,8.513 -25.613,25.732 -24.283,43.883 1.329,18.15 13.265,33.797 30.418,39.876 17.154,6.079 36.279,1.44 48.741,-11.823 v 0 c 76.162,-81.055 132.51,-178.653 164.625,-285.139 v 0 c 5.255,-17.424 -0.29,-36.306 -14.132,-48.122 -13.841,-11.816 -33.359,-14.329 -49.743,-6.405 -16.383,7.923 -26.531,24.785 -25.861,42.971 v 0 c 0.906,24.646 -14.417,46.984 -37.737,55.011 -23.32,8.026 -49.145,-0.148 -63.6,-20.131 -14.454,-19.983 -14.134,-47.07 0.789,-66.705 18.599,-24.472 22.061,-57.251 8.985,-85.0691 -13.076,-27.8176 -40.525,-46.0665 -71.236,-47.3599 -30.71,-1.2934 -59.596,14.583 -74.965,41.2026 l -117.448,203.4264 c -15.369,26.62 -14.676,59.574 1.8,85.524 16.475,25.949 46.003,40.596 76.632,38.011 30.629,-2.584 57.286,-21.972 69.18,-50.315 9.543,-22.741 32.841,-36.562 57.374,-34.036 24.533,2.526 44.525,20.805 49.233,45.014 4.709,24.209 -6.974,48.648 -28.772,60.186"
     id="path130"
     inkscape:connector-curvature="0"
     style="font-style:normal;font-weight:400;font-size:medium;font-family:'Sans Serif';vector-effect:non-scaling-stroke;fill:none;fill-opacity:1;fill-rule:evenodd;stroke:#000000;stroke-width:1;stroke-linecap:square;stroke-linejoin:bevel;stroke-opacity:1" />
  <path
     d="m 2229.764,867.565 c 15.416,9.673 35.092,9.315 50.146,-0.911 15.054,-10.227 22.636,-28.387 19.324,-46.282 -3.312,-17.894 -16.892,-32.138 -34.609,-36.299 v 0 c -108.2767,-25.431 -220.9733,-25.431 -329.25,0 v 0 c -17.717,4.161 -31.297,18.405 -34.609,36.299 -3.312,17.895 4.27,36.055 19.324,46.282 15.054,10.226 34.73,10.584 50.146,0.911 v 0 c 20.89,-13.108 47.8971,-11.007 66.5082,5.176 18.6112,16.182 24.4449,42.635 14.3662,65.144 -10.0786,22.509 -33.6965,35.775 -58.1624,32.669 -30.493,-3.871 -60.612,9.521 -78.165,34.754 -17.552,25.233 -19.632,58.129 -5.397,85.371 14.236,27.243 42.428,44.321 73.166,44.321 h 234.896 c 30.738,0 58.93,-17.078 73.166,-44.321 14.235,-27.242 12.155,-60.138 -5.397,-85.371 -17.553,-25.233 -47.672,-38.625 -78.165,-34.754 -24.4659,3.106 -48.0838,-10.16 -58.1624,-32.669 -10.0787,-22.509 -4.245,-48.962 14.3662,-65.144 18.6111,-16.183 45.6182,-18.284 66.5082,-5.176"
     id="path146"
     inkscape:connector-curvature="0"
     style="font-style:normal;font-weight:400;font-size:medium;font-family:'Sans Serif';vector-effect:non-scaling-stroke;fill:none;fill-opacity:1;fill-rule:evenodd;stroke:#000000;stroke-width:1;stroke-linecap:square;stroke-linejoin:bevel;stroke-opacity:1" />
  <path
     d="m 1970.236,2102.435 c -15.416,-9.673 -35.092,-9.315 -50.146,0.911 -15.054,10.227 -22.636,28.387 -19.324,46.282 3.312,17.894 16.892,32.138 34.609,36.299 v 0 c 108.2767,25.431 220.9733,25.431 329.25,0 v 0 c 17.717,-4.161 31.297,-18.405 34.609,-36.299 3.312,-17.895 -4.27,-36.055 -19.324,-46.282 -15.054,-10.226 -34.73,-10.584 -50.146,-0.911 v 0 c -20.89,13.108 -47.8971,11.007 -66.5082,-5.176 -18.6112,-16.182 -24.4449,-42.635 -14.3662,-65.144 10.0786,-22.509 33.6965,-35.775 58.1624,-32.669 30.493,3.871 60.612,-9.521 78.165,-34.754 17.552,-25.233 19.632,-58.129 5.397,-85.371 -14.236,-27.243 -42.428,-44.321 -73.166,-44.321 h -234.896 c -30.738,0 -58.93,17.078 -73.166,44.321 -14.235,27.242 -12.155,60.138 5.397,85.371 17.553,25.233 47.672,38.625 78.165,34.754 24.4659,-3.106 48.0838,10.16 58.1624,32.669 10.0787,22.509 4.245,48.962 -14.3662,65.144 -18.6111,16.183 -45.6182,18.284 -66.5082,5.176"
     id="path162"
     inkscape:connector-curvature="0"
     style="font-style:normal;font-weight:400;font-size:medium;font-family:'Sans Serif';vector-effect:non-scaling-stroke;fill:none;fill-opacity:1;fill-rule:evenodd;stroke:#000000;stroke-width:1;stroke-linecap:square;stroke-linejoin:bevel;stroke-opacity:1" />
  <path
     d="m 2983.855,2086.012 c 9.168,9.169 11.409,23.189 5.555,34.758 -5.853,11.569 -18.477,18.068 -31.294,16.112 -12.817,-1.956 -22.928,-11.925 -25.064,-24.713 -4.248,-25.431 -25.311,-44.674 -51.021,-46.614 -25.711,-1.94 -49.422,13.925 -57.438,38.431 -8.016,24.505 1.736,51.317 23.622,64.946 v 0 c 13.082,8.147 22.182,21.372 25.115,36.501 2.933,15.13 -0.565,30.797 -9.655,43.242 l -60.043,82.209 c -4.501,6.162 -12.116,9.226 -19.63,7.899 -7.514,-1.328 -13.619,-6.815 -15.736,-14.146 -2.117,-7.331 0.122,-15.228 5.772,-20.357 15.678,-14.234 21.987,-36.093 16.304,-56.492 -5.684,-20.399 -22.387,-35.847 -43.166,-39.923 -20.779,-4.076 -42.081,3.917 -55.049,20.657 -18.825,24.298 -49.591,36.126 -79.845,30.695 -30.254,-5.431 -54.986,-27.221 -64.184,-56.55 -9.197,-29.329 -1.338,-61.34 20.397,-83.075 l 166.097,-166.097 c 32.238,-32.239 84.507,-32.239 116.745,0 l 132.518,132.517"
     id="path178"
     inkscape:connector-curvature="0"
     style="font-style:normal;font-weight:400;font-size:medium;font-family:'Sans Serif';vector-effect:non-scaling-stroke;fill:none;fill-opacity:1;fill-rule:evenodd;stroke:#000000;stroke-width:1;stroke-linecap:square;stroke-linejoin:bevel;stroke-opacity:1" />
  <path
     d="m 1160.028,1343.964 c -11.631,28.452 -6.491,61.0104 13.339,84.4958 19.831,23.4853 51.067,34.0082 81.066,27.309 29.999,-6.6992 53.791,-29.5108 61.747,-59.2012 l 60.796,-226.8926 c 11.8,-44.039 -14.335,-89.305 -58.373,-101.105 l -181.023,-48.505 c -12.524,-3.356 -25.786,1.714 -32.878,12.568 -7.092,10.854 -6.412,25.036 1.693,35.158 8.103,10.122 21.792,13.893 33.935,9.349 24.148,-9.036 51.345,-0.417 65.88,20.879 14.534,21.296 12.651,49.764 -4.564,68.958 -17.214,19.195 -45.31,24.155 -68.056,12.016 v 0 c -13.596,-7.256 -29.599,-8.524 -44.17,-3.5 -14.57,5.025 -26.39,15.888 -32.62,29.982 l -41.17,93.104 c -3.09,6.979 -1.94,15.105 2.97,20.949 4.91,5.844 12.71,8.387 20.12,6.555 7.41,-1.832 13.13,-7.719 14.74,-15.177 4.49,-20.694 20.27,-37.088 40.78,-42.365 20.503,-5.278 42.233,1.463 56.153,17.421 13.92,15.957 17.648,38.401 9.635,58.002"
     id="path194"
     inkscape:connector-curvature="0"
     style="font-style:normal;font-weight:400;font-size:medium;font-family:'Sans Serif';vector-effect:non-scaling-stroke;fill:none;fill-opacity:1;fill-rule:evenodd;stroke:#000000;stroke-width:1;stroke-linecap:square;stroke-linejoin:bevel;stroke-opacity:1" />
  <path
     d="m 2021.4355,2550.95 48.5049,-181.025 c 11.8001,-44.039 -14.3343,-89.305 -58.3728,-101.105 l -226.8926,-60.796 c -29.691,-7.955 -61.342,1.244 -82.144,23.874 -20.801,22.63 -27.306,54.943 -16.882,83.86 10.424,28.916 36.05,49.646 66.506,53.799 20.981,2.862 38.554,17.313 45.414,37.346 6.859,20.034 1.832,42.223 -12.992,57.344 -14.824,15.121 -36.91,20.588 -57.075,14.127 -7.267,-2.329 -15.225,-0.319 -20.516,5.18 -5.29,5.496 -6.99,13.526 -4.383,20.696 2.608,7.18 9.069,12.24 16.656,13.05 l 101.216,10.9 c 15.323,1.65 30.64,-3.16 42.276,-13.26 11.636,-10.11 18.54,-24.6 19.054,-40.001 v 0 c 0.86,-25.768 19.203,-47.62 44.434,-52.93 25.23,-5.311 50.826,7.291 62.001,30.527 11.175,23.235 5.041,51.094 -14.858,67.494 -10.007,8.24 -13.585,21.98 -8.871,34.06 4.715,12.08 16.655,19.76 29.601,19.05 12.9461,-0.72 23.9678,-9.67 27.3235,-22.19"
     id="path210"
     inkscape:connector-curvature="0"
     style="font-style:normal;font-weight:400;font-size:medium;font-family:'Sans Serif';vector-effect:non-scaling-stroke;fill:none;fill-opacity:1;fill-rule:evenodd;stroke:#000000;stroke-width:1;stroke-linecap:square;stroke-linejoin:bevel;stroke-opacity:1" />
  <path
     d="m 3184.37,1298.579 c 3.09,6.979 1.94,15.105 -2.97,20.949 -4.91,5.844 -12.71,8.387 -20.12,6.555 -7.41,-1.832 -13.13,-7.719 -14.74,-15.177 -4.49,-20.694 -20.27,-37.088 -40.78,-42.365 -20.503,-5.278 -42.233,1.463 -56.153,17.421 -13.92,15.957 -17.648,38.401 -9.635,58.002 11.631,28.452 6.491,61.0104 -13.339,84.4958 -19.831,23.4853 -51.067,34.0082 -81.066,27.309 -29.999,-6.6992 -53.791,-29.5108 -61.747,-59.2012 l -60.796,-226.8926 c -11.8,-44.039 14.335,-89.305 58.373,-101.105 l 181.023,-48.505 c 12.524,-3.356 25.786,1.714 32.878,12.568 7.092,10.854 6.412,25.036 -1.693,35.158 -8.103,10.122 -21.792,13.893 -33.935,9.349 -24.148,-9.036 -51.345,-0.417 -65.88,20.879 -14.534,21.296 -12.651,49.764 4.564,68.958 17.214,19.195 45.31,24.155 68.056,12.016 v 0 c 13.596,-7.256 29.599,-8.524 44.17,-3.5 14.57,5.025 26.39,15.888 32.62,29.982 l 41.17,93.104"
     id="path226"
     inkscape:connector-curvature="0"
     style="font-style:normal;font-weight:400;font-size:medium;font-family:'Sans Serif';vector-effect:non-scaling-stroke;fill:none;fill-opacity:1;fill-rule:evenodd;stroke:#000000;stroke-width:1;stroke-linecap:square;stroke-linejoin:bevel;stroke-opacity:1" />
  <path
     d="m 2480.741,2517.3 c 7.587,-0.81 14.048,-5.87 16.656,-13.05 2.607,-7.17 0.907,-15.2 -4.383,-20.696 -5.291,-5.499 -13.249,-7.509 -20.516,-5.18 -20.165,6.461 -42.251,0.994 -57.075,-14.127 -14.824,-15.121 -19.851,-37.31 -12.992,-57.344 6.86,-20.033 24.433,-34.484 45.414,-37.346 30.456,-4.153 56.082,-24.883 66.506,-53.799 10.424,-28.917 3.919,-61.23 -16.882,-83.86 -20.802,-22.63 -52.453,-31.829 -82.144,-23.874 l -226.8926,60.796 c -44.0385,11.8 -70.1729,57.066 -58.3728,101.105 l 48.5049,181.025 c 3.3557,12.52 14.3774,21.47 27.3235,22.19 12.946,0.71 24.886,-6.97 29.601,-19.05 4.714,-12.08 1.136,-25.82 -8.871,-34.06 -19.899,-16.4 -26.033,-44.259 -14.858,-67.494 11.175,-23.236 36.771,-35.838 62.001,-30.527 25.231,5.31 43.574,27.162 44.434,52.93 v 0 c 0.514,15.401 7.418,29.891 19.054,40.001 11.636,10.1 26.953,14.91 42.276,13.26 l 101.216,-10.9"
     id="path242"
     inkscape:connector-curvature="0"
     style="font-style:normal;font-weight:400;font-size:medium;font-family:'Sans Serif';vector-effect:non-scaling-stroke;fill:none;fill-opacity:1;fill-rule:evenodd;stroke:#000000;stroke-width:1;stroke-linecap:square;stroke-linejoin:bevel;stroke-opacity:1" />
  <path
     d="m 2021.4355,419.05 48.5049,181.025 c 11.8001,44.039 -14.3343,89.305 -58.3728,101.105 l -226.8926,60.796 c -29.691,7.955 -61.342,-1.244 -82.144,-23.874 -20.801,-22.63 -27.306,-54.943 -16.882,-83.86 10.424,-28.916 36.05,-49.646 66.506,-53.799 20.981,-2.862 38.554,-17.313 45.414,-37.346 6.859,-20.034 1.832,-42.223 -12.992,-57.344 -14.824,-15.121 -36.91,-20.588 -57.075,-14.127 -7.267,2.329 -15.225,0.319 -20.516,-5.18 -5.29,-5.496 -6.99,-13.526 -4.383,-20.696 2.608,-7.18 9.069,-12.24 16.656,-13.05 l 101.216,-10.9 c 15.323,-1.65 30.64,3.16 42.276,13.26 11.636,10.11 18.54,24.6 19.054,40.001 v 0 c 0.86,25.768 19.203,47.62 44.434,52.93 25.23,5.311 50.826,-7.291 62.001,-30.527 11.175,-23.235 5.041,-51.094 -14.858,-67.494 -10.007,-8.24 -13.585,-21.98 -8.871,-34.06 4.715,-12.08 16.655,-19.76 29.601,-19.05 12.9461,0.72 23.9678,9.67 27.3235,22.19"
     id="path258"
     inkscape:connector-curvature="0"
     style="font-style:normal;font-weight:400;font-size:medium;font-family:'Sans Serif';vector-effect:non-scaling-stroke;fill:none;fill-opacity:1;fill-rule:evenodd;stroke:#000000;stroke-width:1;stroke-linecap:square;stroke-linejoin:bevel;stroke-opacity:1" />
  <path
     d="m 1507.873,741.478 c 18.825,-24.298 49.591,-36.126 79.845,-30.695 30.254,5.431 54.986,27.221 64.184,56.55 9.197,29.329 1.338,61.34 -20.397,83.075 l -166.097,166.097 c -32.238,32.239 -84.507,32.239 -116.745,0 L 1216.145,883.988 c -9.168,-9.169 -11.409,-23.189 -5.555,-34.758 5.853,-11.569 18.477,-18.068 31.294,-16.112 12.817,1.956 22.928,11.925 25.064,24.713 4.248,25.431 25.311,44.674 51.021,46.614 25.711,1.94 49.422,-13.925 57.438,-38.431 8.016,-24.505 -1.736,-51.317 -23.622,-64.946 v 0 c -13.082,-8.147 -22.182,-21.372 -25.115,-36.501 -2.933,-15.13 0.565,-30.797 9.655,-43.242 l 60.043,-82.209 c 4.501,-6.162 12.116,-9.226 19.63,-7.899 7.514,1.328 13.619,6.815 15.736,14.146 2.117,7.331 -0.122,15.228 -5.772,20.357 -15.678,14.234 -21.987,36.093 -16.304,56.492 5.684,20.399 22.387,35.847 43.166,39.923 20.779,4.076 42.081,-3.917 55.049,-20.657"
     id="path274"
     inkscape:connector-curvature="0"
     style="font-style:normal;font-weight:400;font-size:medium;font-family:'Sans Serif';vector-effect:non-scaling-stroke;fill:none;fill-opacity:1;fill-rule:evenodd;stroke:#000000;stroke-width:1;stroke-linecap:square;stroke-linejoin:bevel;stroke-opacity:1" />
  <path
     d="m 2983.855,883.988 c 9.168,-9.169 11.409,-23.189 5.555,-34.758 -5.853,-11.569 -18.477,-18.068 -31.294,-16.112 -12.817,1.956 -22.928,11.925 -25.064,24.713 -4.248,25.431 -25.311,44.674 -51.021,46.614 -25.711,1.94 -49.422,-13.925 -57.438,-38.431 -8.016,-24.505 1.736,-51.317 23.622,-64.946 v 0 c 13.082,-8.147 22.182,-21.372 25.115,-36.501 2.933,-15.13 -0.565,-30.797 -9.655,-43.242 l -60.043,-82.209 c -4.501,-6.162 -12.116,-9.226 -19.63,-7.899 -7.514,1.328 -13.619,6.815 -15.736,14.146 -2.117,7.331 0.122,15.228 5.772,20.357 15.678,14.234 21.987,36.093 16.304,56.492 -5.684,20.399 -22.387,35.847 -43.166,39.923 -20.779,4.076 -42.081,-3.917 -55.049,-20.657 -18.825,-24.298 -49.591,-36.126 -79.845,-30.695 -30.254,5.431 -54.986,27.221 -64.184,56.55 -9.197,29.329 -1.338,61.34 20.397,83.075 l 166.097,166.097 c 32.238,32.239 84.507,32.239 116.745,0 l 132.518,-132.517"
     id="path290"
     inkscape:connector-curvature="0"
     style="font-style:normal;font-weight:400;font-size:medium;font-family:'Sans Serif';vector-effect:non-scaling-stroke;fill:none;fill-opacity:1;fill-rule:evenodd;stroke:#000000;stroke-width:1;stroke-linecap:square;stroke-linejoin:bevel;stroke-opacity:1" />
  <path
     d="m 3184.37,1671.421 c 3.09,-6.979 1.94,-15.105 -2.97,-20.949 -4.91,-5.844 -12.71,-8.387 -20.12,-6.555 -7.41,1.832 -13.13,7.719 -14.74,15.177 -4.49,20.694 -20.27,37.088 -40.78,42.365 -20.503,5.278 -42.233,-1.463 -56.153,-17.421 -13.92,-15.957 -17.648,-38.401 -9.635,-58.002 11.631,-28.452 6.491,-61.0104 -13.339,-84.4958 -19.831,-23.4853 -51.067,-34.0082 -81.066,-27.309 -29.999,6.6992 -53.791,29.5108 -61.747,59.2012 l -60.796,226.8926 c -11.8,44.039 14.335,89.305 58.373,101.105 l 181.023,48.505 c 12.524,3.356 25.786,-1.714 32.878,-12.568 7.092,-10.854 6.412,-25.036 -1.693,-35.158 -8.103,-10.122 -21.792,-13.893 -33.935,-9.349 -24.148,9.036 -51.345,0.417 -65.88,-20.879 -14.534,-21.296 -12.651,-49.764 4.564,-68.958 17.214,-19.195 45.31,-24.155 68.056,-12.016 v 0 c 13.596,7.256 29.599,8.524 44.17,3.5 14.57,-5.025 26.39,-15.888 32.62,-29.982 l 41.17,-93.104"
     id="path306"
     inkscape:connector-curvature="0"
     style="font-style:normal;font-weight:400;font-size:medium;font-family:'Sans Serif';vector-effect:non-scaling-stroke;fill:none;fill-opacity:1;fill-rule:evenodd;stroke:#000000;stroke-width:1;stroke-linecap:square;stroke-linejoin:bevel;stroke-opacity:1" />
  <path
     d="m 1507.873,2228.522 c 18.825,24.298 49.591,36.126 79.845,30.695 30.254,-5.431 54.986,-27.221 64.184,-56.55 9.197,-29.329 1.338,-61.34 -20.397,-83.075 l -166.097,-166.097 c -32.238,-32.239 -84.507,-32.239 -116.745,0 l -132.518,132.517 c -9.168,9.169 -11.409,23.189 -5.555,34.758 5.853,11.569 18.477,18.068 31.294,16.112 12.817,-1.956 22.928,-11.925 25.064,-24.713 4.248,-25.431 25.311,-44.674 51.021,-46.614 25.711,-1.94 49.422,13.925 57.438,38.431 8.016,24.505 -1.736,51.317 -23.622,64.946 v 0 c -13.082,8.147 -22.182,21.372 -25.115,36.501 -2.933,15.13 0.565,30.797 9.655,43.242 l 60.043,82.209 c 4.501,6.162 12.116,9.226 19.63,7.899 7.514,-1.328 13.619,-6.815 15.736,-14.146 2.117,-7.331 -0.122,-15.228 -5.772,-20.357 -15.678,-14.234 -21.987,-36.093 -16.304,-56.492 5.684,-20.399 22.387,-35.847 43.166,-39.923 20.779,-4.076 42.081,3.917 55.049,20.657"
     id="path322"
     inkscape:connector-curvature="0"
     style="font-style:normal;font-weight:400;font-size:medium;font-family:'Sans Serif';vector-effect:non-scaling-stroke;fill:none;fill-opacity:1;fill-rule:evenodd;stroke:#000000;stroke-width:1;stroke-linecap:square;stroke-linejoin:bevel;stroke-opacity:1" />
  <path
     d="m 2480.741,452.7 c 7.587,0.81 14.048,5.87 16.656,13.05 2.607,7.17 0.907,15.2 -4.383,20.696 -5.291,5.499 -13.249,7.509 -20.516,5.18 -20.165,-6.461 -42.251,-0.994 -57.075,14.127 -14.824,15.121 -19.851,37.31 -12.992,57.344 6.86,20.033 24.433,34.484 45.414,37.346 30.456,4.153 56.082,24.883 66.506,53.799 10.424,28.917 3.919,61.23 -16.882,83.86 -20.802,22.63 -52.453,31.829 -82.144,23.874 L 2188.4324,701.18 c -44.0385,-11.8 -70.1729,-57.066 -58.3728,-101.105 l 48.5049,-181.025 c 3.3557,-12.52 14.3774,-21.47 27.3235,-22.19 12.946,-0.71 24.886,6.97 29.601,19.05 4.714,12.08 1.136,25.82 -8.871,34.06 -19.899,16.4 -26.033,44.259 -14.858,67.494 11.175,23.236 36.771,35.838 62.001,30.527 25.231,-5.31 43.574,-27.162 44.434,-52.93 v 0 c 0.514,-15.401 7.418,-29.891 19.054,-40.001 11.636,-10.1 26.953,-14.91 42.276,-13.26 l 101.216,10.9"
     id="path338"
     inkscape:connector-curvature="0"
     style="font-style:normal;font-weight:400;font-size:medium;font-family:'Sans Serif';vector-effect:non-scaling-stroke;fill:none;fill-opacity:1;fill-rule:evenodd;stroke:#000000;stroke-width:1;stroke-linecap:square;stroke-linejoin:bevel;stroke-opacity:1" />
  <path
     d="m 1160.028,1626.036 c -11.631,-28.452 -6.491,-61.0104 13.339,-84.4958 19.831,-23.4853 51.067,-34.0082 81.066,-27.309 29.999,6.6992 53.791,29.5108 61.747,59.2012 l 60.796,226.8926 c 11.8,44.039 -14.335,89.305 -58.373,101.105 l -181.023,48.505 c -12.524,3.356 -25.786,-1.714 -32.878,-12.568 -7.092,-10.854 -6.412,-25.036 1.693,-35.158 8.103,-10.122 21.792,-13.893 33.935,-9.349 24.148,9.036 51.345,0.417 65.88,-20.879 14.534,-21.296 12.651,-49.764 -4.564,-68.958 -17.214,-19.195 -45.31,-24.155 -68.056,-12.016 v 0 c -13.596,7.256 -29.599,8.524 -44.17,3.5 -14.57,-5.025 -26.39,-15.888 -32.62,-29.982 l -41.17,-93.104 c -3.09,-6.979 -1.94,-15.105 2.97,-20.949 4.91,-5.844 12.71,-8.387 20.12,-6.555 7.41,1.832 13.13,7.719 14.74,15.177 4.49,20.694 20.27,37.088 40.78,42.365 20.503,5.278 42.233,-1.463 56.153,-17.421 13.92,-15.957 17.648,-38.401 9.635,-58.002"
     id="path354"
     inkscape:connector-curvature="0"
     style="font-style:normal;font-weight:400;font-size:medium;font-family:'Sans Serif';vector-effect:non-scaling-stroke;fill:none;fill-opacity:1;fill-rule:evenodd;stroke:#000000;stroke-width:1;stroke-linecap:square;stroke-linejoin:bevel;stroke-opacity:1" />
  <path
     d="m 1282.225,2235.663 v -31.754 l -27.5,-15.877 -27.5,15.877 v 31.754 l 27.5,15.877 27.5,-15.877"
     id="path370"
     inkscape:connector-curvature="0"
     style="font-style:normal;font-weight:400;font-size:medium;font-family:'Sans Serif';vector-effect:non-scaling-stroke;fill:none;fill-opacity:1;fill-rule:evenodd;stroke:#000000;stroke-width:1;stroke-linecap:square;stroke-linejoin:bevel;stroke-opacity:1" />
  <path
     d="m 1068.52,1136.241 v -31.754 l -27.5,-15.878 -27.5,15.878 v 31.754 l 27.5,15.877 27.5,-15.877"
     id="path386"
     inkscape:connector-curvature="0"
     style="font-style:normal;font-weight:400;font-size:medium;font-family:'Sans Serif';vector-effect:non-scaling-stroke;fill:none;fill-opacity:1;fill-rule:evenodd;stroke:#000000;stroke-width:1;stroke-linecap:square;stroke-linejoin:bevel;stroke-opacity:1" />
  <path
     d="m 1282.225,766.091 v -31.754 l -27.5,-15.877 -27.5,15.877 v 31.754 l 27.5,15.877 27.5,-15.877"
     id="path402"
     inkscape:connector-curvature="0"
     style="font-style:normal;font-weight:400;font-size:medium;font-family:'Sans Serif';vector-effect:non-scaling-stroke;fill:none;fill-opacity:1;fill-rule:evenodd;stroke:#000000;stroke-width:1;stroke-linecap:square;stroke-linejoin:bevel;stroke-opacity:1" />
  <path
     d="M 2341.206,401.45 V 369.7 l -27.5,-15.88 -27.5,15.88 v 31.75 l 27.5,15.88 27.5,-15.88"
     id="path418"
     inkscape:connector-curvature="0"
     style="font-style:normal;font-weight:400;font-size:medium;font-family:'Sans Serif';vector-effect:non-scaling-stroke;fill:none;fill-opacity:1;fill-rule:evenodd;stroke:#000000;stroke-width:1;stroke-linecap:square;stroke-linejoin:bevel;stroke-opacity:1" />
  <path
     d="m 3186.48,1136.241 v -31.754 l -27.5,-15.878 -27.5,15.878 v 31.754 l 27.5,15.877 27.5,-15.877"
     id="path434"
     inkscape:connector-curvature="0"
     style="font-style:normal;font-weight:400;font-size:medium;font-family:'Sans Serif';vector-effect:non-scaling-stroke;fill:none;fill-opacity:1;fill-rule:evenodd;stroke:#000000;stroke-width:1;stroke-linecap:square;stroke-linejoin:bevel;stroke-opacity:1" />
  <path
     d="m 1913.794,2600.3 v -31.75 l -27.5,-15.88 -27.5,15.88 v 31.75 l 27.5,15.88 27.5,-15.88"
     id="path450"
     inkscape:connector-curvature="0"
     style="font-style:normal;font-weight:400;font-size:medium;font-family:'Sans Serif';vector-effect:non-scaling-stroke;fill:none;fill-opacity:1;fill-rule:evenodd;stroke:#000000;stroke-width:1;stroke-linecap:square;stroke-linejoin:bevel;stroke-opacity:1" />
  <path
     d="m 2341.206,2600.3 v -31.75 l -27.5,-15.88 -27.5,15.88 v 31.75 l 27.5,15.88 27.5,-15.88"
     id="path466"
     inkscape:connector-curvature="0"
     style="font-style:normal;font-weight:400;font-size:medium;font-family:'Sans Serif';vector-effect:non-scaling-stroke;fill:none;fill-opacity:1;fill-rule:evenodd;stroke:#000000;stroke-width:1;stroke-linecap:square;stroke-linejoin:bevel;stroke-opacity:1" />
  <path
     d="m 2972.775,766.091 v -31.754 l -27.5,-15.877 -27.5,15.877 v 31.754 l 27.5,15.877 27.5,-15.877"
     id="path482"
     inkscape:connector-curvature="0"
     style="font-style:normal;font-weight:400;font-size:medium;font-family:'Sans Serif';vector-effect:non-scaling-stroke;fill:none;fill-opacity:1;fill-rule:evenodd;stroke:#000000;stroke-width:1;stroke-linecap:square;stroke-linejoin:bevel;stroke-opacity:1" />
  <path
     d="m 1068.52,1865.513 v -31.754 l -27.5,-15.877 -27.5,15.877 v 31.754 l 27.5,15.878 27.5,-15.878"
     id="path498"
     inkscape:connector-curvature="0"
     style="font-style:normal;font-weight:400;font-size:medium;font-family:'Sans Serif';vector-effect:non-scaling-stroke;fill:none;fill-opacity:1;fill-rule:evenodd;stroke:#000000;stroke-width:1;stroke-linecap:square;stroke-linejoin:bevel;stroke-opacity:1" />
  <path
     d="M 1913.794,401.45 V 369.7 l -27.5,-15.88 -27.5,15.88 v 31.75 l 27.5,15.88 27.5,-15.88"
     id="path514"
     inkscape:connector-curvature="0"
     style="font-style:normal;font-weight:400;font-size:medium;font-family:'Sans Serif';vector-effect:non-scaling-stroke;fill:none;fill-opacity:1;fill-rule:evenodd;stroke:#000000;stroke-width:1;stroke-linecap:square;stroke-linejoin:bevel;stroke-opacity:1" />
  <path
     d="m 2972.775,2235.663 v -31.754 l -27.5,-15.877 -27.5,15.877 v 31.754 l 27.5,15.877 27.5,-15.877"
     id="path530"
     inkscape:connector-curvature="0"
     style="font-style:normal;font-weight:400;font-size:medium;font-family:'Sans Serif';vector-effect:non-scaling-stroke;fill:none;fill-opacity:1;fill-rule:evenodd;stroke:#000000;stroke-width:1;stroke-linecap:square;stroke-linejoin:bevel;stroke-opacity:1" />
  <path
     d="m 3186.48,1865.513 v -31.754 l -27.5,-15.877 -27.5,15.877 v 31.754 l 27.5,15.878 27.5,-15.878"
     id="path546"
     inkscape:connector-curvature="0"
     style="font-style:normal;font-weight:400;font-size:medium;font-family:'Sans Serif';vector-effect:non-scaling-stroke;fill:none;fill-opacity:1;fill-rule:evenodd;stroke:#000000;stroke-width:1;stroke-linecap:square;stroke-linejoin:bevel;stroke-opacity:1" />
  <path
     d="m 1129.231,2055 c 0,9.113 -7.387,16.5 -16.5,16.5 -9.113,0 -16.501,-7.387 -16.501,-16.5 0,-9.113 7.388,-16.5 16.501,-16.5 9.113,0 16.5,7.387 16.5,16.5"
     id="path562"
     inkscape:connector-curvature="0"
     style="font-style:normal;font-weight:400;font-size:medium;font-family:'Sans Serif';vector-effect:non-scaling-stroke;fill:none;fill-opacity:1;fill-rule:evenodd;stroke:#000000;stroke-width:1;stroke-linecap:square;stroke-linejoin:bevel;stroke-opacity:1" />
  <path
     d="m 3103.77,2055 c 0,9.113 -7.388,16.5 -16.501,16.5 -9.113,0 -16.5,-7.387 -16.5,-16.5 0,-9.113 7.387,-16.5 16.5,-16.5 9.113,0 16.501,7.387 16.501,16.5"
     id="path578"
     inkscape:connector-curvature="0"
     style="font-style:normal;font-weight:400;font-size:medium;font-family:'Sans Serif';vector-effect:non-scaling-stroke;fill:none;fill-opacity:1;fill-rule:evenodd;stroke:#000000;stroke-width:1;stroke-linecap:square;stroke-linejoin:bevel;stroke-opacity:1" />
  <path
     d="m 1556.5,2454.948 c 0,9.113 -7.387,16.5 -16.5,16.5 -9.113,0 -16.5,-7.387 -16.5,-16.5 0,-9.112 7.387,-16.5 16.5,-16.5 9.113,0 16.5,7.388 16.5,16.5"
     id="path594"
     inkscape:connector-curvature="0"
     style="font-style:normal;font-weight:400;font-size:medium;font-family:'Sans Serif';vector-effect:non-scaling-stroke;fill:none;fill-opacity:1;fill-rule:evenodd;stroke:#000000;stroke-width:1;stroke-linecap:square;stroke-linejoin:bevel;stroke-opacity:1" />
  <path
     d="m 2278.726,2476.808 c 0,9.112 -7.387,16.502 -16.5,16.502 -9.112,0 -16.5,-7.39 -16.5,-16.502 0,-9.113 7.388,-16.5 16.5,-16.5 9.113,0 16.5,7.387 16.5,16.5"
     id="path610"
     inkscape:connector-curvature="0"
     style="font-style:normal;font-weight:400;font-size:medium;font-family:'Sans Serif';vector-effect:non-scaling-stroke;fill:none;fill-opacity:1;fill-rule:evenodd;stroke:#000000;stroke-width:1;stroke-linecap:square;stroke-linejoin:bevel;stroke-opacity:1" />
  <path
     d="m 1954.274,493.192 c 0,9.113 -7.388,16.5 -16.5,16.5 -9.113,0 -16.5,-7.387 -16.5,-16.5 0,-9.112 7.387,-16.502 16.5,-16.502 9.112,0 16.5,7.39 16.5,16.502"
     id="path626"
     inkscape:connector-curvature="0"
     style="font-style:normal;font-weight:400;font-size:medium;font-family:'Sans Serif';vector-effect:non-scaling-stroke;fill:none;fill-opacity:1;fill-rule:evenodd;stroke:#000000;stroke-width:1;stroke-linecap:square;stroke-linejoin:bevel;stroke-opacity:1" />
  <path
     d="m 3108.31,1322.774 c 0,9.112 -7.39,16.5 -16.502,16.5 -9.113,0 -16.5,-7.388 -16.5,-16.5 0,-9.113 7.387,-16.5 16.5,-16.5 9.112,0 16.502,7.387 16.502,16.5"
     id="path642"
     inkscape:connector-curvature="0"
     style="font-style:normal;font-weight:400;font-size:medium;font-family:'Sans Serif';vector-effect:non-scaling-stroke;fill:none;fill-opacity:1;fill-rule:evenodd;stroke:#000000;stroke-width:1;stroke-linecap:square;stroke-linejoin:bevel;stroke-opacity:1" />
  <path
     d="m 1124.692,1647.226 c 0,9.113 -7.387,16.5 -16.5,16.5 -9.112,0 -16.502,-7.387 -16.502,-16.5 0,-9.112 7.39,-16.5 16.502,-16.5 9.113,0 16.5,7.388 16.5,16.5"
     id="path658"
     inkscape:connector-curvature="0"
     style="font-style:normal;font-weight:400;font-size:medium;font-family:'Sans Serif';vector-effect:non-scaling-stroke;fill:none;fill-opacity:1;fill-rule:evenodd;stroke:#000000;stroke-width:1;stroke-linecap:square;stroke-linejoin:bevel;stroke-opacity:1" />
  <path
     d="m 1672.866,1113.397 c 0,9.113 -7.388,16.5 -16.5,16.5 -9.113,0 -16.5,-7.387 -16.5,-16.5 0,-9.112 7.387,-16.5 16.5,-16.5 9.112,0 16.5,7.388 16.5,16.5"
     id="path674"
     inkscape:connector-curvature="0"
     style="font-style:normal;font-weight:400;font-size:medium;font-family:'Sans Serif';vector-effect:non-scaling-stroke;fill:none;fill-opacity:1;fill-rule:evenodd;stroke:#000000;stroke-width:1;stroke-linecap:square;stroke-linejoin:bevel;stroke-opacity:1" />
  <path
     d="m 2471.912,544.956 c 0,9.113 -7.388,16.5 -16.5,16.5 -9.113,0 -16.5,-7.387 -16.5,-16.5 0,-9.113 7.387,-16.5 16.5,-16.5 9.112,0 16.5,7.387 16.5,16.5"
     id="path690"
     inkscape:connector-curvature="0"
     style="font-style:normal;font-weight:400;font-size:medium;font-family:'Sans Serif';vector-effect:non-scaling-stroke;fill:none;fill-opacity:1;fill-rule:evenodd;stroke:#000000;stroke-width:1;stroke-linecap:square;stroke-linejoin:bevel;stroke-opacity:1" />
  <path
     d="m 1761.088,2425.044 c 0,9.113 -7.387,16.5 -16.5,16.5 -9.112,0 -16.5,-7.387 -16.5,-16.5 0,-9.113 7.388,-16.5 16.5,-16.5 9.113,0 16.5,7.387 16.5,16.5"
     id="path706"
     inkscape:connector-curvature="0"
     style="font-style:normal;font-weight:400;font-size:medium;font-family:'Sans Serif';vector-effect:non-scaling-stroke;fill:none;fill-opacity:1;fill-rule:evenodd;stroke:#000000;stroke-width:1;stroke-linecap:square;stroke-linejoin:bevel;stroke-opacity:1" />
  <path
     d="m 1572.866,1286.603 c 0,9.112 -7.388,16.5 -16.5,16.5 -9.113,0 -16.5,-7.388 -16.5,-16.5 0,-9.113 7.387,-16.5 16.5,-16.5 9.112,0 16.5,7.387 16.5,16.5"
     id="path722"
     inkscape:connector-curvature="0"
     style="font-style:normal;font-weight:400;font-size:medium;font-family:'Sans Serif';vector-effect:non-scaling-stroke;fill:none;fill-opacity:1;fill-rule:evenodd;stroke:#000000;stroke-width:1;stroke-linecap:square;stroke-linejoin:bevel;stroke-opacity:1" />
  <path
     d="m 1572.866,1683.397 c 0,9.113 -7.388,16.5 -16.5,16.5 -9.113,0 -16.5,-7.387 -16.5,-16.5 0,-9.112 7.387,-16.5 16.5,-16.5 9.112,0 16.5,7.388 16.5,16.5"
     id="path738"
     inkscape:connector-curvature="0"
     style="font-style:normal;font-weight:400;font-size:medium;font-family:'Sans Serif';vector-effect:non-scaling-stroke;fill:none;fill-opacity:1;fill-rule:evenodd;stroke:#000000;stroke-width:1;stroke-linecap:square;stroke-linejoin:bevel;stroke-opacity:1" />
  <path
     d="m 1338.683,848.604 c 0,9.113 -7.388,16.5 -16.5,16.5 -9.113,0 -16.5,-7.387 -16.5,-16.5 0,-9.113 7.387,-16.5 16.5,-16.5 9.112,0 16.5,7.387 16.5,16.5"
     id="path754"
     inkscape:connector-curvature="0"
     style="font-style:normal;font-weight:400;font-size:medium;font-family:'Sans Serif';vector-effect:non-scaling-stroke;fill:none;fill-opacity:1;fill-rule:evenodd;stroke:#000000;stroke-width:1;stroke-linecap:square;stroke-linejoin:bevel;stroke-opacity:1" />
  <path
     d="m 3103.77,915 c 0,9.113 -7.388,16.5 -16.501,16.5 -9.113,0 -16.5,-7.387 -16.5,-16.5 0,-9.113 7.387,-16.5 16.5,-16.5 9.113,0 16.501,7.387 16.501,16.5"
     id="path770"
     inkscape:connector-curvature="0"
     style="font-style:normal;font-weight:400;font-size:medium;font-family:'Sans Serif';vector-effect:non-scaling-stroke;fill:none;fill-opacity:1;fill-rule:evenodd;stroke:#000000;stroke-width:1;stroke-linecap:square;stroke-linejoin:bevel;stroke-opacity:1" />
  <path
     d="m 2894.317,2121.396 c 0,9.113 -7.387,16.5 -16.5,16.5 -9.112,0 -16.5,-7.387 -16.5,-16.5 0,-9.113 7.388,-16.5 16.5,-16.5 9.113,0 16.5,7.387 16.5,16.5"
     id="path786"
     inkscape:connector-curvature="0"
     style="font-style:normal;font-weight:400;font-size:medium;font-family:'Sans Serif';vector-effect:non-scaling-stroke;fill:none;fill-opacity:1;fill-rule:evenodd;stroke:#000000;stroke-width:1;stroke-linecap:square;stroke-linejoin:bevel;stroke-opacity:1" />
  <path
     d="m 2660.134,1683.397 c 0,9.113 -7.387,16.5 -16.5,16.5 -9.112,0 -16.5,-7.387 -16.5,-16.5 0,-9.112 7.388,-16.5 16.5,-16.5 9.113,0 16.5,7.388 16.5,16.5"
     id="path802"
     inkscape:connector-curvature="0"
     style="font-style:normal;font-weight:400;font-size:medium;font-family:'Sans Serif';vector-effect:non-scaling-stroke;fill:none;fill-opacity:1;fill-rule:evenodd;stroke:#000000;stroke-width:1;stroke-linecap:square;stroke-linejoin:bevel;stroke-opacity:1" />
  <path
     d="m 2416.5,965.385 c 0,9.112 -7.387,16.5 -16.5,16.5 -9.113,0 -16.5,-7.388 -16.5,-16.5 0,-9.113 7.387,-16.5 16.5,-16.5 9.113,0 16.5,7.387 16.5,16.5"
     id="path818"
     inkscape:connector-curvature="0"
     style="font-style:normal;font-weight:400;font-size:medium;font-family:'Sans Serif';vector-effect:non-scaling-stroke;fill:none;fill-opacity:1;fill-rule:evenodd;stroke:#000000;stroke-width:1;stroke-linecap:square;stroke-linejoin:bevel;stroke-opacity:1" />
  <path
     d="m 2278.726,493.192 c 0,9.113 -7.387,16.5 -16.5,16.5 -9.112,0 -16.5,-7.387 -16.5,-16.5 0,-9.112 7.388,-16.502 16.5,-16.502 9.113,0 16.5,7.39 16.5,16.502"
     id="path834"
     inkscape:connector-curvature="0"
     style="font-style:normal;font-weight:400;font-size:medium;font-family:'Sans Serif';vector-effect:non-scaling-stroke;fill:none;fill-opacity:1;fill-rule:evenodd;stroke:#000000;stroke-width:1;stroke-linecap:square;stroke-linejoin:bevel;stroke-opacity:1" />
  <path
     d="m 2416.5,2004.615 c 0,9.113 -7.387,16.5 -16.5,16.5 -9.113,0 -16.5,-7.387 -16.5,-16.5 0,-9.112 7.387,-16.5 16.5,-16.5 9.113,0 16.5,7.388 16.5,16.5"
     id="path850"
     inkscape:connector-curvature="0"
     style="font-style:normal;font-weight:400;font-size:medium;font-family:'Sans Serif';vector-effect:non-scaling-stroke;fill:none;fill-opacity:1;fill-rule:evenodd;stroke:#000000;stroke-width:1;stroke-linecap:square;stroke-linejoin:bevel;stroke-opacity:1" />
  <path
     d="m 1954.274,2476.808 c 0,9.112 -7.388,16.502 -16.5,16.502 -9.113,0 -16.5,-7.39 -16.5,-16.502 0,-9.113 7.387,-16.5 16.5,-16.5 9.112,0 16.5,7.387 16.5,16.5"
     id="path866"
     inkscape:connector-curvature="0"
     style="font-style:normal;font-weight:400;font-size:medium;font-family:'Sans Serif';vector-effect:non-scaling-stroke;fill:none;fill-opacity:1;fill-rule:evenodd;stroke:#000000;stroke-width:1;stroke-linecap:square;stroke-linejoin:bevel;stroke-opacity:1" />
  <path
     d="m 3236.5,1485 c 0,9.1127 -7.39,16.5 -16.5,16.5 -9.11,0 -16.5,-7.3873 -16.5,-16.5 0,-9.1127 7.39,-16.5 16.5,-16.5 9.11,0 16.5,7.3873 16.5,16.5"
     id="path882"
     inkscape:connector-curvature="0"
     style="font-style:normal;font-weight:400;font-size:medium;font-family:'Sans Serif';vector-effect:non-scaling-stroke;fill:none;fill-opacity:1;fill-rule:evenodd;stroke:#000000;stroke-width:1;stroke-linecap:square;stroke-linejoin:bevel;stroke-opacity:1" />
  <path
     d="m 2752.896,707.183 c 0,9.112 -7.387,16.5 -16.5,16.5 -9.113,0 -16.5,-7.388 -16.5,-16.5 0,-9.113 7.387,-16.5 16.5,-16.5 9.113,0 16.5,7.387 16.5,16.5"
     id="path898"
     inkscape:connector-curvature="0"
     style="font-style:normal;font-weight:400;font-size:medium;font-family:'Sans Serif';vector-effect:non-scaling-stroke;fill:none;fill-opacity:1;fill-rule:evenodd;stroke:#000000;stroke-width:1;stroke-linecap:square;stroke-linejoin:bevel;stroke-opacity:1" />
  <path
     d="m 1480.104,707.183 c 0,9.112 -7.387,16.5 -16.5,16.5 -9.113,0 -16.5,-7.388 -16.5,-16.5 0,-9.113 7.387,-16.5 16.5,-16.5 9.113,0 16.5,7.387 16.5,16.5"
     id="path914"
     inkscape:connector-curvature="0"
     style="font-style:normal;font-weight:400;font-size:medium;font-family:'Sans Serif';vector-effect:non-scaling-stroke;fill:none;fill-opacity:1;fill-rule:evenodd;stroke:#000000;stroke-width:1;stroke-linecap:square;stroke-linejoin:bevel;stroke-opacity:1" />
  <path
     d="m 2752.896,2262.817 c 0,9.113 -7.387,16.5 -16.5,16.5 -9.113,0 -16.5,-7.387 -16.5,-16.5 0,-9.112 7.387,-16.5 16.5,-16.5 9.113,0 16.5,7.388 16.5,16.5"
     id="path930"
     inkscape:connector-curvature="0"
     style="font-style:normal;font-weight:400;font-size:medium;font-family:'Sans Serif';vector-effect:non-scaling-stroke;fill:none;fill-opacity:1;fill-rule:evenodd;stroke:#000000;stroke-width:1;stroke-linecap:square;stroke-linejoin:bevel;stroke-opacity:1" />
  <path
     d="m 2660.134,1286.603 c 0,9.112 -7.387,16.5 -16.5,16.5 -9.112,0 -16.5,-7.388 -16.5,-16.5 0,-9.113 7.388,-16.5 16.5,-16.5 9.113,0 16.5,7.387 16.5,16.5"
     id="path946"
     inkscape:connector-curvature="0"
     style="font-style:normal;font-weight:400;font-size:medium;font-family:'Sans Serif';vector-effect:non-scaling-stroke;fill:none;fill-opacity:1;fill-rule:evenodd;stroke:#000000;stroke-width:1;stroke-linecap:square;stroke-linejoin:bevel;stroke-opacity:1" />
  <path
     d="m 1516.5,1485 c 0,9.1127 -7.387,16.5 -16.5,16.5 -9.113,0 -16.5,-7.3873 -16.5,-16.5 0,-9.1127 7.387,-16.5 16.5,-16.5 9.113,0 16.5,7.3873 16.5,16.5"
     id="path962"
     inkscape:connector-curvature="0"
     style="font-style:normal;font-weight:400;font-size:medium;font-family:'Sans Serif';vector-effect:non-scaling-stroke;fill:none;fill-opacity:1;fill-rule:evenodd;stroke:#000000;stroke-width:1;stroke-linecap:square;stroke-linejoin:bevel;stroke-opacity:1" />
  <path
     d="m 996.5,1485 c 0,9.1127 -7.39,16.5 -16.5,16.5 -9.11,0 -16.5,-7.3873 -16.5,-16.5 0,-9.1127 7.39,-16.5 16.5,-16.5 9.11,0 16.5,7.3873 16.5,16.5"
     id="path978"
     inkscape:connector-curvature="0"
     style="font-style:normal;font-weight:400;font-size:medium;font-family:'Sans Serif';vector-effect:non-scaling-stroke;fill:none;fill-opacity:1;fill-rule:evenodd;stroke:#000000;stroke-width:1;stroke-linecap:square;stroke-linejoin:bevel;stroke-opacity:1" />
  <path
     d="m 2216.5,1465 c 0,9.1127 -7.387,16.5 -16.5,16.5 -9.1127,0 -16.5,-7.3873 -16.5,-16.5 0,-9.1127 7.3873,-16.5 16.5,-16.5 9.113,0 16.5,7.3873 16.5,16.5"
     id="path994"
     inkscape:connector-curvature="0"
     style="font-style:normal;font-weight:400;font-size:medium;font-family:'Sans Serif';vector-effect:non-scaling-stroke;fill:none;fill-opacity:1;fill-rule:evenodd;stroke:#000000;stroke-width:1;stroke-linecap:square;stroke-linejoin:bevel;stroke-opacity:1" />
  <path
     d="m 2016.5,1465 c 0,9.1127 -7.3873,16.5 -16.5,16.5 -9.113,0 -16.5,-7.3873 -16.5,-16.5 0,-9.1127 7.387,-16.5 16.5,-16.5 9.1127,0 16.5,7.3873 16.5,16.5"
     id="path1010"
     inkscape:connector-curvature="0"
     style="font-style:normal;font-weight:400;font-size:medium;font-family:'Sans Serif';vector-effect:non-scaling-stroke;fill:none;fill-opacity:1;fill-rule:evenodd;stroke:#000000;stroke-width:1;stroke-linecap:square;stroke-linejoin:bevel;stroke-opacity:1" />
  <path
     d="m 2016.5,915 c 0,9.113 -7.3873,16.5 -16.5,16.5 -9.113,0 -16.5,-7.387 -16.5,-16.5 0,-9.113 7.387,-16.5 16.5,-16.5 9.1127,0 16.5,7.387 16.5,16.5"
     id="path1026"
     inkscape:connector-curvature="0"
     style="font-style:normal;font-weight:400;font-size:medium;font-family:'Sans Serif';vector-effect:non-scaling-stroke;fill:none;fill-opacity:1;fill-rule:evenodd;stroke:#000000;stroke-width:1;stroke-linecap:square;stroke-linejoin:bevel;stroke-opacity:1" />
  <path
     d="m 2216.5,2055 c 0,9.113 -7.387,16.5 -16.5,16.5 -9.1127,0 -16.5,-7.387 -16.5,-16.5 0,-9.113 7.3873,-16.5 16.5,-16.5 9.113,0 16.5,7.387 16.5,16.5"
     id="path1042"
     inkscape:connector-curvature="0"
     style="font-style:normal;font-weight:400;font-size:medium;font-family:'Sans Serif';vector-effect:non-scaling-stroke;fill:none;fill-opacity:1;fill-rule:evenodd;stroke:#000000;stroke-width:1;stroke-linecap:square;stroke-linejoin:bevel;stroke-opacity:1" />
  <path
     d="m 2716.5,1485 c 0,9.1127 -7.387,16.5 -16.5,16.5 -9.113,0 -16.5,-7.3873 -16.5,-16.5 0,-9.1127 7.387,-16.5 16.5,-16.5 9.113,0 16.5,7.3873 16.5,16.5"
     id="path1058"
     inkscape:connector-curvature="0"
     style="font-style:normal;font-weight:400;font-size:medium;font-family:'Sans Serif';vector-effect:non-scaling-stroke;fill:none;fill-opacity:1;fill-rule:evenodd;stroke:#000000;stroke-width:1;stroke-linecap:square;stroke-linejoin:bevel;stroke-opacity:1" />
  <path
     d="m 2016.5,2055 c 0,9.113 -7.3873,16.5 -16.5,16.5 -9.113,0 -16.5,-7.387 -16.5,-16.5 0,-9.113 7.387,-16.5 16.5,-16.5 9.1127,0 16.5,7.387 16.5,16.5"
     id="path1074"
     inkscape:connector-curvature="0"
     style="font-style:normal;font-weight:400;font-size:medium;font-family:'Sans Serif';vector-effect:non-scaling-stroke;fill:none;fill-opacity:1;fill-rule:evenodd;stroke:#000000;stroke-width:1;stroke-linecap:square;stroke-linejoin:bevel;stroke-opacity:1" />
  <path
     d="m 2216.5,915 c 0,9.113 -7.387,16.5 -16.5,16.5 -9.1127,0 -16.5,-7.387 -16.5,-16.5 0,-9.113 7.3873,-16.5 16.5,-16.5 9.113,0 16.5,7.387 16.5,16.5"
     id="path1090"
     inkscape:connector-curvature="0"
     style="font-style:normal;font-weight:400;font-size:medium;font-family:'Sans Serif';vector-effect:non-scaling-stroke;fill:none;fill-opacity:1;fill-rule:evenodd;stroke:#000000;stroke-width:1;stroke-linecap:square;stroke-linejoin:bevel;stroke-opacity:1" />
  <path
     d="m 2116.5,2625 c 0,9.11 -7.3873,16.5 -16.5,16.5 -9.1127,0 -16.5,-7.39 -16.5,-16.5 0,-9.11 7.3873,-16.5 16.5,-16.5 9.1127,0 16.5,7.39 16.5,16.5"
     id="path1106"
     inkscape:connector-curvature="0"
     style="font-style:normal;font-weight:400;font-size:medium;font-family:'Sans Serif';vector-effect:non-scaling-stroke;fill:none;fill-opacity:1;fill-rule:evenodd;stroke:#000000;stroke-width:1;stroke-linecap:square;stroke-linejoin:bevel;stroke-opacity:1" />
  <path
     d="m 2116.5,345 c 0,9.11 -7.3873,16.5 -16.5,16.5 -9.1127,0 -16.5,-7.39 -16.5,-16.5 0,-9.11 7.3873,-16.5 16.5,-16.5 9.1127,0 16.5,7.39 16.5,16.5"
     id="path1122"
     inkscape:connector-curvature="0"
     style="font-style:normal;font-weight:400;font-size:medium;font-family:'Sans Serif';vector-effect:non-scaling-stroke;fill:none;fill-opacity:1;fill-rule:evenodd;stroke:#000000;stroke-width:1;stroke-linecap:square;stroke-linejoin:bevel;stroke-opacity:1" />
  <path
     d="m 1816.5,2004.615 c 0,9.113 -7.387,16.5 -16.5,16.5 -9.113,0 -16.5,-7.387 -16.5,-16.5 0,-9.112 7.387,-16.5 16.5,-16.5 9.113,0 16.5,7.388 16.5,16.5"
     id="path1138"
     inkscape:connector-curvature="0"
     style="font-style:normal;font-weight:400;font-size:medium;font-family:'Sans Serif';vector-effect:non-scaling-stroke;fill:none;fill-opacity:1;fill-rule:evenodd;stroke:#000000;stroke-width:1;stroke-linecap:square;stroke-linejoin:bevel;stroke-opacity:1" />
  <path
     d="m 1672.866,1856.603 c 0,9.112 -7.388,16.5 -16.5,16.5 -9.113,0 -16.5,-7.388 -16.5,-16.5 0,-9.113 7.387,-16.5 16.5,-16.5 9.112,0 16.5,7.387 16.5,16.5"
     id="path1154"
     inkscape:connector-curvature="0"
     style="font-style:normal;font-weight:400;font-size:medium;font-family:'Sans Serif';vector-effect:non-scaling-stroke;fill:none;fill-opacity:1;fill-rule:evenodd;stroke:#000000;stroke-width:1;stroke-linecap:square;stroke-linejoin:bevel;stroke-opacity:1" />
  <path
     d="m 2560.134,1856.603 c 0,9.112 -7.387,16.5 -16.5,16.5 -9.112,0 -16.5,-7.388 -16.5,-16.5 0,-9.113 7.388,-16.5 16.5,-16.5 9.113,0 16.5,7.387 16.5,16.5"
     id="path1170"
     inkscape:connector-curvature="0"
     style="font-style:normal;font-weight:400;font-size:medium;font-family:'Sans Serif';vector-effect:non-scaling-stroke;fill:none;fill-opacity:1;fill-rule:evenodd;stroke:#000000;stroke-width:1;stroke-linecap:square;stroke-linejoin:bevel;stroke-opacity:1" />
  <path
     d="m 1480.104,2262.817 c 0,9.113 -7.387,16.5 -16.5,16.5 -9.113,0 -16.5,-7.387 -16.5,-16.5 0,-9.112 7.387,-16.5 16.5,-16.5 9.113,0 16.5,7.388 16.5,16.5"
     id="path1186"
     inkscape:connector-curvature="0"
     style="font-style:normal;font-weight:400;font-size:medium;font-family:'Sans Serif';vector-effect:non-scaling-stroke;fill:none;fill-opacity:1;fill-rule:evenodd;stroke:#000000;stroke-width:1;stroke-linecap:square;stroke-linejoin:bevel;stroke-opacity:1" />
  <path
     d="m 1816.5,965.385 c 0,9.112 -7.387,16.5 -16.5,16.5 -9.113,0 -16.5,-7.388 -16.5,-16.5 0,-9.113 7.387,-16.5 16.5,-16.5 9.113,0 16.5,7.387 16.5,16.5"
     id="path1202"
     inkscape:connector-curvature="0"
     style="font-style:normal;font-weight:400;font-size:medium;font-family:'Sans Serif';vector-effect:non-scaling-stroke;fill:none;fill-opacity:1;fill-rule:evenodd;stroke:#000000;stroke-width:1;stroke-linecap:square;stroke-linejoin:bevel;stroke-opacity:1" />
  <path
     d="m 2560.134,1113.397 c 0,9.113 -7.387,16.5 -16.5,16.5 -9.112,0 -16.5,-7.387 -16.5,-16.5 0,-9.112 7.388,-16.5 16.5,-16.5 9.113,0 16.5,7.388 16.5,16.5"
     id="path1218"
     inkscape:connector-curvature="0"
     style="font-style:normal;font-weight:400;font-size:medium;font-family:'Sans Serif';vector-effect:non-scaling-stroke;fill:none;fill-opacity:1;fill-rule:evenodd;stroke:#000000;stroke-width:1;stroke-linecap:square;stroke-linejoin:bevel;stroke-opacity:1" />
  <path
     d="m 2894.317,848.604 c 0,9.113 -7.387,16.5 -16.5,16.5 -9.112,0 -16.5,-7.387 -16.5,-16.5 0,-9.113 7.388,-16.5 16.5,-16.5 9.113,0 16.5,7.387 16.5,16.5"
     id="path1234"
     inkscape:connector-curvature="0"
     style="font-style:normal;font-weight:400;font-size:medium;font-family:'Sans Serif';vector-effect:non-scaling-stroke;fill:none;fill-opacity:1;fill-rule:evenodd;stroke:#000000;stroke-width:1;stroke-linecap:square;stroke-linejoin:bevel;stroke-opacity:1" />
  <path
     d="m 1124.692,1322.774 c 0,9.112 -7.387,16.5 -16.5,16.5 -9.112,0 -16.502,-7.388 -16.502,-16.5 0,-9.113 7.39,-16.5 16.502,-16.5 9.113,0 16.5,7.387 16.5,16.5"
     id="path1250"
     inkscape:connector-curvature="0"
     style="font-style:normal;font-weight:400;font-size:medium;font-family:'Sans Serif';vector-effect:non-scaling-stroke;fill:none;fill-opacity:1;fill-rule:evenodd;stroke:#000000;stroke-width:1;stroke-linecap:square;stroke-linejoin:bevel;stroke-opacity:1" />
  <path
     d="m 1129.231,915 c 0,9.113 -7.387,16.5 -16.5,16.5 -9.113,0 -16.501,-7.387 -16.501,-16.5 0,-9.113 7.388,-16.5 16.501,-16.5 9.113,0 16.5,7.387 16.5,16.5"
     id="path1266"
     inkscape:connector-curvature="0"
     style="font-style:normal;font-weight:400;font-size:medium;font-family:'Sans Serif';vector-effect:non-scaling-stroke;fill:none;fill-opacity:1;fill-rule:evenodd;stroke:#000000;stroke-width:1;stroke-linecap:square;stroke-linejoin:bevel;stroke-opacity:1" />
  <path
     d="m 2676.5,515.052 c 0,9.112 -7.387,16.5 -16.5,16.5 -9.113,0 -16.5,-7.388 -16.5,-16.5 0,-9.113 7.387,-16.5 16.5,-16.5 9.113,0 16.5,7.387 16.5,16.5"
     id="path1282"
     inkscape:connector-curvature="0"
     style="font-style:normal;font-weight:400;font-size:medium;font-family:'Sans Serif';vector-effect:non-scaling-stroke;fill:none;fill-opacity:1;fill-rule:evenodd;stroke:#000000;stroke-width:1;stroke-linecap:square;stroke-linejoin:bevel;stroke-opacity:1" />
  <path
     d="m 1176.456,1129.588 c 0,9.113 -7.387,16.5 -16.5,16.5 -9.113,0 -16.5,-7.387 -16.5,-16.5 0,-9.112 7.387,-16.5 16.5,-16.5 9.113,0 16.5,7.388 16.5,16.5"
     id="path1298"
     inkscape:connector-curvature="0"
     style="font-style:normal;font-weight:400;font-size:medium;font-family:'Sans Serif';vector-effect:non-scaling-stroke;fill:none;fill-opacity:1;fill-rule:evenodd;stroke:#000000;stroke-width:1;stroke-linecap:square;stroke-linejoin:bevel;stroke-opacity:1" />
  <path
     d="m 3108.31,1647.226 c 0,9.113 -7.39,16.5 -16.502,16.5 -9.113,0 -16.5,-7.387 -16.5,-16.5 0,-9.112 7.387,-16.5 16.5,-16.5 9.112,0 16.502,7.388 16.502,16.5"
     id="path1314"
     inkscape:connector-curvature="0"
     style="font-style:normal;font-weight:400;font-size:medium;font-family:'Sans Serif';vector-effect:non-scaling-stroke;fill:none;fill-opacity:1;fill-rule:evenodd;stroke:#000000;stroke-width:1;stroke-linecap:square;stroke-linejoin:bevel;stroke-opacity:1" />
  <path
     d="m 1338.683,2121.396 c 0,9.113 -7.388,16.5 -16.5,16.5 -9.113,0 -16.5,-7.387 -16.5,-16.5 0,-9.113 7.387,-16.5 16.5,-16.5 9.112,0 16.5,7.387 16.5,16.5"
     id="path1330"
     inkscape:connector-curvature="0"
     style="font-style:normal;font-weight:400;font-size:medium;font-family:'Sans Serif';vector-effect:non-scaling-stroke;fill:none;fill-opacity:1;fill-rule:evenodd;stroke:#000000;stroke-width:1;stroke-linecap:square;stroke-linejoin:bevel;stroke-opacity:1" />
  <path
     d="m 3056.544,1840.412 c 0,9.112 -7.387,16.5 -16.5,16.5 -9.113,0 -16.5,-7.388 -16.5,-16.5 0,-9.113 7.387,-16.5 16.5,-16.5 9.113,0 16.5,7.387 16.5,16.5"
     id="path1346"
     inkscape:connector-curvature="0"
     style="font-style:normal;font-weight:400;font-size:medium;font-family:'Sans Serif';vector-effect:non-scaling-stroke;fill:none;fill-opacity:1;fill-rule:evenodd;stroke:#000000;stroke-width:1;stroke-linecap:square;stroke-linejoin:bevel;stroke-opacity:1" />
  <path
     d="m 1176.456,1840.412 c 0,9.112 -7.387,16.5 -16.5,16.5 -9.113,0 -16.5,-7.388 -16.5,-16.5 0,-9.113 7.387,-16.5 16.5,-16.5 9.113,0 16.5,7.387 16.5,16.5"
     id="path1362"
     inkscape:connector-curvature="0"
     style="font-style:normal;font-weight:400;font-size:medium;font-family:'Sans Serif';vector-effect:non-scaling-stroke;fill:none;fill-opacity:1;fill-rule:evenodd;stroke:#000000;stroke-width:1;stroke-linecap:square;stroke-linejoin:bevel;stroke-opacity:1" />
  <path
     d="m 2471.912,2425.044 c 0,9.113 -7.388,16.5 -16.5,16.5 -9.113,0 -16.5,-7.387 -16.5,-16.5 0,-9.113 7.387,-16.5 16.5,-16.5 9.112,0 16.5,7.387 16.5,16.5"
     id="path1378"
     inkscape:connector-curvature="0"
     style="font-style:normal;font-weight:400;font-size:medium;font-family:'Sans Serif';vector-effect:non-scaling-stroke;fill:none;fill-opacity:1;fill-rule:evenodd;stroke:#000000;stroke-width:1;stroke-linecap:square;stroke-linejoin:bevel;stroke-opacity:1" />
  <path
     d="m 3056.544,1129.588 c 0,9.113 -7.387,16.5 -16.5,16.5 -9.113,0 -16.5,-7.387 -16.5,-16.5 0,-9.112 7.387,-16.5 16.5,-16.5 9.113,0 16.5,7.388 16.5,16.5"
     id="path1394"
     inkscape:connector-curvature="0"
     style="font-style:normal;font-weight:400;font-size:medium;font-family:'Sans Serif';vector-effect:non-scaling-stroke;fill:none;fill-opacity:1;fill-rule:evenodd;stroke:#000000;stroke-width:1;stroke-linecap:square;stroke-linejoin:bevel;stroke-opacity:1" />
  <path
     d="m 1761.088,544.956 c 0,9.113 -7.387,16.5 -16.5,16.5 -9.112,0 -16.5,-7.387 -16.5,-16.5 0,-9.113 7.388,-16.5 16.5,-16.5 9.113,0 16.5,7.387 16.5,16.5"
     id="path1410"
     inkscape:connector-curvature="0"
     style="font-style:normal;font-weight:400;font-size:medium;font-family:'Sans Serif';vector-effect:non-scaling-stroke;fill:none;fill-opacity:1;fill-rule:evenodd;stroke:#000000;stroke-width:1;stroke-linecap:square;stroke-linejoin:bevel;stroke-opacity:1" />
  <path
     d="m 1556.5,515.052 c 0,9.112 -7.387,16.5 -16.5,16.5 -9.113,0 -16.5,-7.388 -16.5,-16.5 0,-9.113 7.387,-16.5 16.5,-16.5 9.113,0 16.5,7.387 16.5,16.5"
     id="path1426"
     inkscape:connector-curvature="0"
     style="font-style:normal;font-weight:400;font-size:medium;font-family:'Sans Serif';vector-effect:non-scaling-stroke;fill:none;fill-opacity:1;fill-rule:evenodd;stroke:#000000;stroke-width:1;stroke-linecap:square;stroke-linejoin:bevel;stroke-opacity:1" />
  <path
     d="m 2676.5,2454.948 c 0,9.113 -7.387,16.5 -16.5,16.5 -9.113,0 -16.5,-7.387 -16.5,-16.5 0,-9.112 7.387,-16.5 16.5,-16.5 9.113,0 16.5,7.388 16.5,16.5"
     id="path1442"
     inkscape:connector-curvature="0"
     style="font-style:normal;font-weight:400;font-size:medium;font-family:'Sans Serif';vector-effect:non-scaling-stroke;fill:none;fill-opacity:1;fill-rule:evenodd;stroke:#000000;stroke-width:1;stroke-linecap:square;stroke-linejoin:bevel;stroke-opacity:1" />
</svg>
