  0
SECTION
  2
HEADER
  9
$ACADVER
  1
AC1014
  9
$HANDSEED
  5
FFFF
  9
$MEASUREMENT
 70
     1
  0
ENDSEC
  0
SECTION
  2
TABLES
  0
TABLE
  2
VPORT
  5
8
330
0
100
AcDbSymbolTable
 70
     4
  0
VPORT
  5
2E
330
8
100
AcDbSymbolTableRecord
100
AcDbViewportTableRecord
  2
*ACTIVE
 70
     0
 10
0.0
 20
0.0
 11
1.0
 21
1.0
 12
210.0
 22
148.5
 13
0.0
 23
0.0
 14
10.0
 24
10.0
 15
10.0
 25
10.0
 16
0.0
 26
0.0
 36
1.0
 17
0.0
 27
0.0
 37
0.0
 40
341.0
 41
1.24
 42
50.0
 43
0.0
 44
0.0
 50
0.0
 51
0.0
 71
     0
 72
   100
 73
     1
 74
     3
 75
     0
 76
     0
 77
     0
 78
     0
  0
ENDTAB
  0
TABLE
  2
LTYPE
  5
5
330
0
100
AcDbSymbolTable
 70
     1
  0
LTYPE
  5
14
330
5
100
AcDbSymbolTableRecord
100
AcDbLinetypeTableRecord
  2
BYBLOCK
 70
     0
  3

 72
    65
 73
     0
 40
0.0
  0
LTYPE
  5
15
330
5
100
AcDbSymbolTableRecord
100
AcDbLinetypeTableRecord
  2
BYLAYER
 70
     0
  3

 72
    65
 73
     0
 40
0.0
  0
LTYPE
  5
16
330
5
100
AcDbSymbolTableRecord
100
AcDbLinetypeTableRecord
  2
CONTINUOUS
 70
     0
  3
Solid line
 72
    65
 73
     0
 40
0.0
  0
ENDTAB
  0
TABLE
  2
LAYER
  5
2
100
AcDbSymbolTable
 70
1
  0
LAYER
  5
50
100
AcDbSymbolTableRecord
100
AcDbLayerTableRecord
  2
0
 70
0
  6
CONTINUOUS
  0
ENDTAB
  0
TABLE
  2
STYLE
  5
3
330
0
100
AcDbSymbolTable
 70
     1
  0
STYLE
  5
11
330
3
100
AcDbSymbolTableRecord
100
AcDbTextStyleTableRecord
  2
STANDARD
 70
     0
 40
0.0
 41
1.0
 50
0.0
 71
     0
 42
2.5
  3
txt
  4

  0
ENDTAB
  0
TABLE
  2
VIEW
  5
6
330
0
100
AcDbSymbolTable
 70
     0
  0
ENDTAB
  0
TABLE
  2
UCS
  5
7
330
0
100
AcDbSymbolTable
 70
     0
  0
ENDTAB
  0
TABLE
  2
APPID
  5
9
330
0
100
AcDbSymbolTable
 70
     2
  0
APPID
  5
12
330
9
100
AcDbSymbolTableRecord
100
AcDbRegAppTableRecord
  2
ACAD
 70
     0
  0
ENDTAB
  0
TABLE
  2
DIMSTYLE
  5
A
330
0
100
AcDbSymbolTable
 70
     1
  0
DIMSTYLE
105
27
330
A
100
AcDbSymbolTableRecord
100
AcDbDimStyleTableRecord
  2
ISO-25
 70
     0
  3

  4

  5

  6

  7

 40
1.0
 41
2.5
 42
0.625
 43
3.75
 44
1.25
 45
0.0
 46
0.0
 47
0.0
 48
0.0
140
2.5
141
2.5
142
0.0
143
0.03937007874016
144
1.0
145
0.0
146
1.0
147
0.625
 71
     0
 72
     0
 73
     0
 74
     0
 75
     0
 76
     0
 77
     1
 78
     8
170
     0
171
     3
172
     1
173
     0
174
     0
175
     0
176
     0
177
     0
178
     0
270
     2
271
     2
272
     2
273
     2
274
     3
340
11
275
     0
280
     0
281
     0
282
     0
283
     0
284
     8
285
     0
286
     0
287
     3
288
     0
  0
ENDTAB
  0
TABLE
  2
BLOCK_RECORD
  5
1
330
0
100
AcDbSymbolTable
 70
     1
  0
BLOCK_RECORD
  5
1F
330
1
100
AcDbSymbolTableRecord
100
AcDbBlockTableRecord
  2
*MODEL_SPACE
  0
BLOCK_RECORD
  5
1B
330
1
100
AcDbSymbolTableRecord
100
AcDbBlockTableRecord
  2
*PAPER_SPACE
  0
ENDTAB
  0
ENDSEC
  0
SECTION
  2
BLOCKS
  0
BLOCK
  5
20
330
1F
100
AcDbEntity
  8
0
100
AcDbBlockBegin
  2
*MODEL_SPACE
 70
     0
 10
0.0
 20
0.0
 30
0.0
  3
*MODEL_SPACE
  1

  0
ENDBLK
  5
21
330
1F
100
AcDbEntity
  8
0
100
AcDbBlockEnd
  0
BLOCK
  5
1C
330
1B
100
AcDbEntity
 67
     1
  8
0
100
AcDbBlockBegin
  2
*PAPER_SPACE
  1

  0
ENDBLK
  5
1D
330
1B
100
AcDbEntity
 67
     1
  8
0
100
AcDbBlockEnd
  0
ENDSEC
  0
SECTION
  2
ENTITIES
  0
LINE
  5
100
100
AcDbEntity
  8
0
 62
7
100
AcDbLine
 10
818.633004
 20
-232.478346
 30
0.0
 11
836.964396
 21
-243.061679
 31
0.0
  0
SPLINE
  5
101
100
AcDbEntity
  8
0
 62
7
100
AcDbSpline
 70
8
 71
3
 72
8
 73
4
 74
0
 40
0
 40
0
 40
0
 40
0
 40
1
 40
1
 40
1
 40
1
 10
836.964396
 20
-243.061679
 30
0.0
 10
860.718688
 20
-197.647273
 30
0.0
 10
873.125000
 20
-147.157629
 30
0.0
 10
873.125000
 20
-95.906250
 30
0.0
  0
SPLINE
  5
102
100
AcDbEntity
  8
0
 62
7
100
AcDbSpline
 70
8
 71
3
 72
8
 73
4
 74
0
 40
0
 40
0
 40
0
 40
0
 40
1
 40
1
 40
1
 40
1
 10
873.125000
 20
-95.906250
 30
0.0
 10
873.125000
 20
-44.654871
 30
0.0
 10
860.718688
 20
5.834773
 30
0.0
 10
836.964396
 20
51.249179
 30
0.0
  0
LINE
  5
103
100
AcDbEntity
  8
0
 62
7
100
AcDbLine
 10
836.964396
 20
51.249179
 30
0.0
 11
818.633004
 21
40.665846
 31
0.0
  0
SPLINE
  5
104
100
AcDbEntity
  8
0
 62
7
100
AcDbSpline
 70
8
 71
3
 72
8
 73
4
 74
0
 40
0
 40
0
 40
0
 40
0
 40
1
 40
1
 40
1
 40
1
 10
818.633004
 20
40.665846
 30
0.0
 10
817.909369
 20
40.248069
 30
0.0
 10
817.425710
 20
39.512792
 30
0.0
 10
817.328079
 20
38.683058
 30
0.0
  0
SPLINE
  5
105
100
AcDbEntity
  8
0
 62
7
100
AcDbSpline
 70
8
 71
3
 72
8
 73
4
 74
0
 40
0
 40
0
 40
0
 40
0
 40
1
 40
1
 40
1
 40
1
 10
817.328079
 20
38.683058
 30
0.0
 10
817.230712
 20
37.853060
 30
0.0
 10
817.531015
 20
37.025973
 30
0.0
 10
818.137969
 20
36.451827
 30
0.0
  0
SPLINE
  5
106
100
AcDbEntity
  8
0
 62
7
100
AcDbSpline
 70
8
 71
3
 72
8
 73
4
 74
0
 40
0
 40
0
 40
0
 40
0
 40
1
 40
1
 40
1
 40
1
 10
818.137969
 20
36.451827
 30
0.0
 10
822.928250
 20
31.923219
 30
0.0
 10
824.420500
 20
24.905940
 30
0.0
 10
821.888438
 20
18.819994
 30
0.0
  0
SPLINE
  5
107
100
AcDbEntity
  8
0
 62
7
100
AcDbSpline
 70
8
 71
3
 72
8
 73
4
 74
0
 40
0
 40
0
 40
0
 40
0
 40
1
 40
1
 40
1
 40
1
 10
821.888438
 20
18.819994
 30
0.0
 10
819.356640
 20
12.734048
 30
0.0
 10
813.327579
 20
8.845731
 30
0.0
 10
806.739190
 20
9.049990
 30
0.0
  0
SPLINE
  5
108
100
AcDbEntity
  8
0
 62
7
100
AcDbSpline
 70
8
 71
3
 72
8
 73
4
 74
0
 40
0
 40
0
 40
0
 40
0
 40
1
 40
1
 40
1
 40
1
 10
806.739190
 20
9.049990
 30
0.0
 10
800.150800
 20
9.253983
 30
0.0
 10
794.374152
 20
13.508219
 30
0.0
 10
792.224148
 20
19.739156
 30
0.0
  0
SPLINE
  5
109
100
AcDbEntity
  8
0
 62
7
100
AcDbSpline
 70
8
 71
3
 72
8
 73
4
 74
0
 40
0
 40
0
 40
0
 40
0
 40
1
 40
1
 40
1
 40
1
 10
792.224148
 20
19.739156
 30
0.0
 10
791.919348
 20
20.622335
 30
0.0
 10
791.171635
 20
21.279296
 30
0.0
 10
790.256442
 20
21.467679
 30
0.0
  0
SPLINE
  5
10a
100
AcDbEntity
  8
0
 62
7
100
AcDbSpline
 70
8
 71
3
 72
8
 73
4
 74
0
 40
0
 40
0
 40
0
 40
0
 40
1
 40
1
 40
1
 40
1
 10
790.256442
 20
21.467679
 30
0.0
 10
789.341513
 20
21.656063
 30
0.0
 10
788.394833
 20
21.347823
 30
0.0
 10
787.766183
 20
20.656996
 30
0.0
  0
SPLINE
  5
10b
100
AcDbEntity
  8
0
 62
7
100
AcDbSpline
 70
8
 71
3
 72
8
 73
4
 74
0
 40
0
 40
0
 40
0
 40
0
 40
1
 40
1
 40
1
 40
1
 10
787.766183
 20
20.656996
 30
0.0
 10
783.151056
 20
15.585727
 30
0.0
 10
775.801725
 20
14.050879
 30
0.0
 10
769.542742
 20
16.850700
 30
0.0
  0
SPLINE
  5
10c
100
AcDbEntity
  8
0
 62
7
100
AcDbSpline
 70
8
 71
3
 72
8
 73
4
 74
0
 40
0
 40
0
 40
0
 40
0
 40
1
 40
1
 40
1
 40
1
 10
769.542742
 20
16.850700
 30
0.0
 10
763.283758
 20
19.650785
 30
0.0
 10
759.529585
 20
26.152921
 30
0.0
 10
760.234435
 20
32.973350
 30
0.0
  0
SPLINE
  5
10d
100
AcDbEntity
  8
0
 62
7
100
AcDbSpline
 70
8
 71
3
 72
8
 73
4
 74
0
 40
0
 40
0
 40
0
 40
0
 40
1
 40
1
 40
1
 40
1
 10
760.234435
 20
32.973350
 30
0.0
 10
760.939021
 20
39.793779
 30
0.0
 10
765.943085
 20
45.391040
 30
0.0
 10
772.642335
 20
46.852333
 30
0.0
  0
SPLINE
  5
10e
100
AcDbEntity
  8
0
 62
7
100
AcDbSpline
 70
8
 71
3
 72
8
 73
4
 74
0
 40
0
 40
0
 40
0
 40
0
 40
1
 40
1
 40
1
 40
1
 10
772.642335
 20
46.852333
 30
0.0
 10
773.555148
 20
47.051300
 30
0.0
 10
774.295188
 20
47.716992
 30
0.0
 10
774.589404
 20
48.603610
 30
0.0
  0
SPLINE
  5
10f
100
AcDbEntity
  8
0
 62
7
100
AcDbSpline
 70
8
 71
3
 72
8
 73
4
 74
0
 40
0
 40
0
 40
0
 40
0
 40
1
 40
1
 40
1
 40
1
 10
774.589404
 20
48.603610
 30
0.0
 10
774.883885
 20
49.490229
 30
0.0
 10
774.688888
 20
50.466277
 30
0.0
 10
774.076377
 20
51.171921
 30
0.0
  0
SPLINE
  5
110
100
AcDbEntity
  8
0
 62
7
100
AcDbSpline
 70
8
 71
3
 72
8
 73
4
 74
0
 40
0
 40
0
 40
0
 40
0
 40
1
 40
1
 40
1
 40
1
 10
774.076377
 20
51.171921
 30
0.0
 10
769.755202
 20
56.149263
 30
0.0
 10
768.959335
 20
63.279254
 30
0.0
 10
772.076656
 20
69.086858
 30
0.0
  0
SPLINE
  5
111
100
AcDbEntity
  8
0
 62
7
100
AcDbSpline
 70
8
 71
3
 72
8
 73
4
 74
0
 40
0
 40
0
 40
0
 40
0
 40
1
 40
1
 40
1
 40
1
 10
772.076656
 20
69.086858
 30
0.0
 10
775.194242
 20
74.894727
 30
0.0
 10
781.575992
 20
78.171856
 30
0.0
 10
788.112523
 20
77.321221
 30
0.0
  0
SPLINE
  5
112
100
AcDbEntity
  8
0
 62
7
100
AcDbSpline
 70
8
 71
3
 72
8
 73
4
 74
0
 40
0
 40
0
 40
0
 40
0
 40
1
 40
1
 40
1
 40
1
 10
788.112523
 20
77.321221
 30
0.0
 10
794.648790
 20
76.470850
 30
0.0
 10
799.979615
 20
71.669721
 30
0.0
 10
801.507054
 20
65.257544
 30
0.0
  0
SPLINE
  5
113
100
AcDbEntity
  8
0
 62
7
100
AcDbSpline
 70
8
 71
3
 72
8
 73
4
 74
0
 40
0
 40
0
 40
0
 40
0
 40
1
 40
1
 40
1
 40
1
 10
801.507054
 20
65.257544
 30
0.0
 10
801.700729
 20
64.444744
 30
0.0
 10
802.266938
 20
63.771115
 30
0.0
 10
803.034229
 20
63.440650
 30
0.0
  0
SPLINE
  5
114
100
AcDbEntity
  8
0
 62
7
100
AcDbSpline
 70
8
 71
3
 72
8
 73
4
 74
0
 40
0
 40
0
 40
0
 40
0
 40
1
 40
1
 40
1
 40
1
 10
803.034229
 20
63.440650
 30
0.0
 10
803.801785
 20
63.110185
 30
0.0
 10
804.680202
 20
63.161515
 30
0.0
 10
805.403838
 20
63.579292
 30
0.0
  0
LINE
  5
115
100
AcDbEntity
  8
0
 62
7
100
AcDbLine
 10
805.403838
 20
63.579292
 30
0.0
 11
823.735229
 21
74.162625
 31
0.0
  0
SPLINE
  5
116
100
AcDbEntity
  8
0
 62
7
100
AcDbSpline
 70
8
 71
3
 72
8
 73
4
 74
0
 40
0
 40
0
 40
0
 40
0
 40
1
 40
1
 40
1
 40
1
 10
823.735229
 20
74.162625
 30
0.0
 10
768.012392
 20
162.007731
 30
0.0
 10
672.791496
 20
216.984708
 30
0.0
 10
568.854167
 20
221.318583
 30
0.0
  0
LINE
  5
117
100
AcDbEntity
  8
0
 62
7
100
AcDbLine
 10
568.854167
 20
221.318583
 30
0.0
 11
568.854167
 21
200.151917
 31
0.0
  0
SPLINE
  5
118
100
AcDbEntity
  8
0
 62
7
100
AcDbSpline
 70
8
 71
3
 72
8
 73
4
 74
0
 40
0
 40
0
 40
0
 40
0
 40
1
 40
1
 40
1
 40
1
 10
568.854167
 20
200.151917
 30
0.0
 10
568.854167
 20
199.315833
 30
0.0
 10
569.248872
 20
198.530021
 30
0.0
 10
569.918824
 20
198.029958
 30
0.0
  0
SPLINE
  5
119
100
AcDbEntity
  8
0
 62
7
100
AcDbSpline
 70
8
 71
3
 72
8
 73
4
 74
0
 40
0
 40
0
 40
0
 40
0
 40
1
 40
1
 40
1
 40
1
 10
569.918824
 20
198.029958
 30
0.0
 10
570.588749
 20
197.529896
 30
0.0
 10
571.455206
 20
197.376438
 30
0.0
 10
572.255941
 20
197.614563
 30
0.0
  0
SPLINE
  5
11a
100
AcDbEntity
  8
0
 62
7
100
AcDbSpline
 70
8
 71
3
 72
8
 73
4
 74
0
 40
0
 40
0
 40
0
 40
0
 40
1
 40
1
 40
1
 40
1
 10
572.255941
 20
197.614563
 30
0.0
 10
578.572656
 20
199.498396
 30
0.0
 10
585.395917
 20
197.283833
 30
0.0
 10
589.400650
 20
192.047729
 30
0.0
  0
SPLINE
  5
11b
100
AcDbEntity
  8
0
 62
7
100
AcDbSpline
 70
8
 71
3
 72
8
 73
4
 74
0
 40
0
 40
0
 40
0
 40
0
 40
1
 40
1
 40
1
 40
1
 10
589.400650
 20
192.047729
 30
0.0
 10
593.405383
 20
186.811625
 30
0.0
 10
593.758337
 20
179.646708
 30
0.0
 10
590.287269
 20
174.042833
 30
0.0
  0
SPLINE
  5
11c
100
AcDbEntity
  8
0
 62
7
100
AcDbSpline
 70
8
 71
3
 72
8
 73
4
 74
0
 40
0
 40
0
 40
0
 40
0
 40
1
 40
1
 40
1
 40
1
 10
590.287269
 20
174.042833
 30
0.0
 10
586.816465
 20
168.439488
 30
0.0
 10
580.243844
 20
165.563731
 30
0.0
 10
573.772665
 20
166.817327
 30
0.0
  0
SPLINE
  5
11d
100
AcDbEntity
  8
0
 62
7
100
AcDbSpline
 70
8
 71
3
 72
8
 73
4
 74
0
 40
0
 40
0
 40
0
 40
0
 40
1
 40
1
 40
1
 40
1
 10
573.772665
 20
166.817327
 30
0.0
 10
572.855513
 20
166.994863
 30
0.0
 10
571.912618
 20
166.675775
 30
0.0
 10
571.291985
 20
165.977540
 30
0.0
  0
SPLINE
  5
11e
100
AcDbEntity
  8
0
 62
7
100
AcDbSpline
 70
8
 71
3
 72
8
 73
4
 74
0
 40
0
 40
0
 40
0
 40
0
 40
1
 40
1
 40
1
 40
1
 10
571.291985
 20
165.977540
 30
0.0
 10
570.671325
 20
165.279304
 30
0.0
 10
570.464897
 20
164.305373
 30
0.0
 10
570.748848
 20
163.415579
 30
0.0
  0
SPLINE
  5
11f
100
AcDbEntity
  8
0
 62
7
100
AcDbSpline
 70
8
 71
3
 72
8
 73
4
 74
0
 40
0
 40
0
 40
0
 40
0
 40
1
 40
1
 40
1
 40
1
 10
570.748848
 20
163.415579
 30
0.0
 10
572.833050
 20
156.883281
 30
0.0
 10
570.487704
 20
149.750908
 30
0.0
 10
564.933359
 20
145.730300
 30
0.0
  0
SPLINE
  5
120
100
AcDbEntity
  8
0
 62
7
100
AcDbSpline
 70
8
 71
3
 72
8
 73
4
 74
0
 40
0
 40
0
 40
0
 40
0
 40
1
 40
1
 40
1
 40
1
 10
564.933359
 20
145.730300
 30
0.0
 10
559.378988
 20
141.709956
 30
0.0
 10
551.871012
 20
141.709956
 30
0.0
 10
546.316641
 20
145.730300
 30
0.0
  0
SPLINE
  5
121
100
AcDbEntity
  8
0
 62
7
100
AcDbSpline
 70
8
 71
3
 72
8
 73
4
 74
0
 40
0
 40
0
 40
0
 40
0
 40
1
 40
1
 40
1
 40
1
 10
546.316641
 20
145.730300
 30
0.0
 10
540.762296
 20
149.750908
 30
0.0
 10
538.416950
 20
156.883281
 30
0.0
 10
540.501152
 20
163.415579
 30
0.0
  0
SPLINE
  5
122
100
AcDbEntity
  8
0
 62
7
100
AcDbSpline
 70
8
 71
3
 72
8
 73
4
 74
0
 40
0
 40
0
 40
0
 40
0
 40
1
 40
1
 40
1
 40
1
 10
540.501152
 20
163.415579
 30
0.0
 10
540.785103
 20
164.305373
 30
0.0
 10
540.578675
 20
165.279304
 30
0.0
 10
539.958015
 20
165.977540
 30
0.0
  0
SPLINE
  5
123
100
AcDbEntity
  8
0
 62
7
100
AcDbSpline
 70
8
 71
3
 72
8
 73
4
 74
0
 40
0
 40
0
 40
0
 40
0
 40
1
 40
1
 40
1
 40
1
 10
539.958015
 20
165.977540
 30
0.0
 10
539.337382
 20
166.675775
 30
0.0
 10
538.394487
 20
166.994863
 30
0.0
 10
537.477335
 20
166.817327
 30
0.0
  0
SPLINE
  5
124
100
AcDbEntity
  8
0
 62
7
100
AcDbSpline
 70
8
 71
3
 72
8
 73
4
 74
0
 40
0
 40
0
 40
0
 40
0
 40
1
 40
1
 40
1
 40
1
 10
537.477335
 20
166.817327
 30
0.0
 10
531.006156
 20
165.563731
 30
0.0
 10
524.433535
 20
168.439488
 30
0.0
 10
520.962731
 20
174.042833
 30
0.0
  0
SPLINE
  5
125
100
AcDbEntity
  8
0
 62
7
100
AcDbSpline
 70
8
 71
3
 72
8
 73
4
 74
0
 40
0
 40
0
 40
0
 40
0
 40
1
 40
1
 40
1
 40
1
 10
520.962731
 20
174.042833
 30
0.0
 10
517.491663
 20
179.646708
 30
0.0
 10
517.844617
 20
186.811625
 30
0.0
 10
521.849350
 20
192.047729
 30
0.0
  0
SPLINE
  5
126
100
AcDbEntity
  8
0
 62
7
100
AcDbSpline
 70
8
 71
3
 72
8
 73
4
 74
0
 40
0
 40
0
 40
0
 40
0
 40
1
 40
1
 40
1
 40
1
 10
521.849350
 20
192.047729
 30
0.0
 10
525.854083
 20
197.283833
 30
0.0
 10
532.677344
 20
199.498396
 30
0.0
 10
538.994059
 20
197.614563
 30
0.0
  0
SPLINE
  5
127
100
AcDbEntity
  8
0
 62
7
100
AcDbSpline
 70
8
 71
3
 72
8
 73
4
 74
0
 40
0
 40
0
 40
0
 40
0
 40
1
 40
1
 40
1
 40
1
 10
538.994059
 20
197.614563
 30
0.0
 10
539.794794
 20
197.376438
 30
0.0
 10
540.661251
 20
197.529896
 30
0.0
 10
541.331176
 20
198.029958
 30
0.0
  0
SPLINE
  5
128
100
AcDbEntity
  8
0
 62
7
100
AcDbSpline
 70
8
 71
3
 72
8
 73
4
 74
0
 40
0
 40
0
 40
0
 40
0
 40
1
 40
1
 40
1
 40
1
 10
541.331176
 20
198.029958
 30
0.0
 10
542.001128
 20
198.530021
 30
0.0
 10
542.395833
 20
199.315833
 30
0.0
 10
542.395833
 20
200.151917
 30
0.0
  0
LINE
  5
129
100
AcDbEntity
  8
0
 62
7
100
AcDbLine
 10
542.395833
 20
200.151917
 30
0.0
 11
542.395833
 21
221.318583
 31
0.0
  0
SPLINE
  5
12a
100
AcDbEntity
  8
0
 62
7
100
AcDbSpline
 70
8
 71
3
 72
8
 73
4
 74
0
 40
0
 40
0
 40
0
 40
0
 40
1
 40
1
 40
1
 40
1
 10
542.395833
 20
221.318583
 30
0.0
 10
438.458504
 20
216.984708
 30
0.0
 10
343.237608
 20
162.007731
 30
0.0
 10
287.514771
 20
74.162625
 30
0.0
  0
LINE
  5
12b
100
AcDbEntity
  8
0
 62
7
100
AcDbLine
 10
287.514771
 20
74.162625
 30
0.0
 11
305.846163
 21
63.579292
 31
0.0
  0
SPLINE
  5
12c
100
AcDbEntity
  8
0
 62
7
100
AcDbSpline
 70
8
 71
3
 72
8
 73
4
 74
0
 40
0
 40
0
 40
0
 40
0
 40
1
 40
1
 40
1
 40
1
 10
305.846163
 20
63.579292
 30
0.0
 10
306.569798
 20
63.161515
 30
0.0
 10
307.448215
 20
63.110185
 30
0.0
 10
308.215771
 20
63.440650
 30
0.0
  0
SPLINE
  5
12d
100
AcDbEntity
  8
0
 62
7
100
AcDbSpline
 70
8
 71
3
 72
8
 73
4
 74
0
 40
0
 40
0
 40
0
 40
0
 40
1
 40
1
 40
1
 40
1
 10
308.215771
 20
63.440650
 30
0.0
 10
308.983063
 20
63.771115
 30
0.0
 10
309.549271
 20
64.444744
 30
0.0
 10
309.742946
 20
65.257544
 30
0.0
  0
SPLINE
  5
12e
100
AcDbEntity
  8
0
 62
7
100
AcDbSpline
 70
8
 71
3
 72
8
 73
4
 74
0
 40
0
 40
0
 40
0
 40
0
 40
1
 40
1
 40
1
 40
1
 10
309.742946
 20
65.257544
 30
0.0
 10
311.270385
 20
71.669721
 30
0.0
 10
316.601210
 20
76.470850
 30
0.0
 10
323.137477
 20
77.321221
 30
0.0
  0
SPLINE
  5
12f
100
AcDbEntity
  8
0
 62
7
100
AcDbSpline
 70
8
 71
3
 72
8
 73
4
 74
0
 40
0
 40
0
 40
0
 40
0
 40
1
 40
1
 40
1
 40
1
 10
323.137477
 20
77.321221
 30
0.0
 10
329.674008
 20
78.171856
 30
0.0
 10
336.055758
 20
74.894727
 30
0.0
 10
339.173344
 20
69.086858
 30
0.0
  0
SPLINE
  5
130
100
AcDbEntity
  8
0
 62
7
100
AcDbSpline
 70
8
 71
3
 72
8
 73
4
 74
0
 40
0
 40
0
 40
0
 40
0
 40
1
 40
1
 40
1
 40
1
 10
339.173344
 20
69.086858
 30
0.0
 10
342.290665
 20
63.279254
 30
0.0
 10
341.494798
 20
56.149263
 30
0.0
 10
337.173623
 20
51.171921
 30
0.0
  0
SPLINE
  5
131
100
AcDbEntity
  8
0
 62
7
100
AcDbSpline
 70
8
 71
3
 72
8
 73
4
 74
0
 40
0
 40
0
 40
0
 40
0
 40
1
 40
1
 40
1
 40
1
 10
337.173623
 20
51.171921
 30
0.0
 10
336.561113
 20
50.466277
 30
0.0
 10
336.366115
 20
49.490229
 30
0.0
 10
336.660596
 20
48.603610
 30
0.0
  0
SPLINE
  5
132
100
AcDbEntity
  8
0
 62
7
100
AcDbSpline
 70
8
 71
3
 72
8
 73
4
 74
0
 40
0
 40
0
 40
0
 40
0
 40
1
 40
1
 40
1
 40
1
 10
336.660596
 20
48.603610
 30
0.0
 10
336.954813
 20
47.716992
 30
0.0
 10
337.694852
 20
47.051300
 30
0.0
 10
338.607665
 20
46.852333
 30
0.0
  0
SPLINE
  5
133
100
AcDbEntity
  8
0
 62
7
100
AcDbSpline
 70
8
 71
3
 72
8
 73
4
 74
0
 40
0
 40
0
 40
0
 40
0
 40
1
 40
1
 40
1
 40
1
 10
338.607665
 20
46.852333
 30
0.0
 10
345.306915
 20
45.391040
 30
0.0
 10
350.310979
 20
39.793779
 30
0.0
 10
351.015565
 20
32.973350
 30
0.0
  0
SPLINE
  5
134
100
AcDbEntity
  8
0
 62
7
100
AcDbSpline
 70
8
 71
3
 72
8
 73
4
 74
0
 40
0
 40
0
 40
0
 40
0
 40
1
 40
1
 40
1
 40
1
 10
351.015565
 20
32.973350
 30
0.0
 10
351.720415
 20
26.152921
 30
0.0
 10
347.966242
 20
19.650785
 30
0.0
 10
341.707258
 20
16.850700
 30
0.0
  0
SPLINE
  5
135
100
AcDbEntity
  8
0
 62
7
100
AcDbSpline
 70
8
 71
3
 72
8
 73
4
 74
0
 40
0
 40
0
 40
0
 40
0
 40
1
 40
1
 40
1
 40
1
 10
341.707258
 20
16.850700
 30
0.0
 10
335.448275
 20
14.050879
 30
0.0
 10
328.098944
 20
15.585727
 30
0.0
 10
323.483817
 20
20.656996
 30
0.0
  0
SPLINE
  5
136
100
AcDbEntity
  8
0
 62
7
100
AcDbSpline
 70
8
 71
3
 72
8
 73
4
 74
0
 40
0
 40
0
 40
0
 40
0
 40
1
 40
1
 40
1
 40
1
 10
323.483817
 20
20.656996
 30
0.0
 10
322.855167
 20
21.347823
 30
0.0
 10
321.908488
 20
21.656063
 30
0.0
 10
320.993558
 20
21.467679
 30
0.0
  0
SPLINE
  5
137
100
AcDbEntity
  8
0
 62
7
100
AcDbSpline
 70
8
 71
3
 72
8
 73
4
 74
0
 40
0
 40
0
 40
0
 40
0
 40
1
 40
1
 40
1
 40
1
 10
320.993558
 20
21.467679
 30
0.0
 10
320.078365
 20
21.279296
 30
0.0
 10
319.330652
 20
20.622335
 30
0.0
 10
319.025852
 20
19.739156
 30
0.0
  0
SPLINE
  5
138
100
AcDbEntity
  8
0
 62
7
100
AcDbSpline
 70
8
 71
3
 72
8
 73
4
 74
0
 40
0
 40
0
 40
0
 40
0
 40
1
 40
1
 40
1
 40
1
 10
319.025852
 20
19.739156
 30
0.0
 10
316.875848
 20
13.508219
 30
0.0
 10
311.099200
 20
9.253983
 30
0.0
 10
304.510810
 20
9.049990
 30
0.0
  0
SPLINE
  5
139
100
AcDbEntity
  8
0
 62
7
100
AcDbSpline
 70
8
 71
3
 72
8
 73
4
 74
0
 40
0
 40
0
 40
0
 40
0
 40
1
 40
1
 40
1
 40
1
 10
304.510810
 20
9.049990
 30
0.0
 10
297.922421
 20
8.845731
 30
0.0
 10
291.893360
 20
12.734048
 30
0.0
 10
289.361563
 20
18.819994
 30
0.0
  0
SPLINE
  5
13a
100
AcDbEntity
  8
0
 62
7
100
AcDbSpline
 70
8
 71
3
 72
8
 73
4
 74
0
 40
0
 40
0
 40
0
 40
0
 40
1
 40
1
 40
1
 40
1
 10
289.361563
 20
18.819994
 30
0.0
 10
286.829500
 20
24.905940
 30
0.0
 10
288.321750
 20
31.923219
 30
0.0
 10
293.112031
 20
36.451827
 30
0.0
  0
SPLINE
  5
13b
100
AcDbEntity
  8
0
 62
7
100
AcDbSpline
 70
8
 71
3
 72
8
 73
4
 74
0
 40
0
 40
0
 40
0
 40
0
 40
1
 40
1
 40
1
 40
1
 10
293.112031
 20
36.451827
 30
0.0
 10
293.718985
 20
37.025973
 30
0.0
 10
294.019288
 20
37.853060
 30
0.0
 10
293.921921
 20
38.683058
 30
0.0
  0
SPLINE
  5
13c
100
AcDbEntity
  8
0
 62
7
100
AcDbSpline
 70
8
 71
3
 72
8
 73
4
 74
0
 40
0
 40
0
 40
0
 40
0
 40
1
 40
1
 40
1
 40
1
 10
293.921921
 20
38.683058
 30
0.0
 10
293.824290
 20
39.512792
 30
0.0
 10
293.340631
 20
40.248069
 30
0.0
 10
292.616996
 20
40.665846
 30
0.0
  0
LINE
  5
13d
100
AcDbEntity
  8
0
 62
7
100
AcDbLine
 10
292.616996
 20
40.665846
 30
0.0
 11
274.285604
 21
51.249179
 31
0.0
  0
SPLINE
  5
13e
100
AcDbEntity
  8
0
 62
7
100
AcDbSpline
 70
8
 71
3
 72
8
 73
4
 74
0
 40
0
 40
0
 40
0
 40
0
 40
1
 40
1
 40
1
 40
1
 10
274.285604
 20
51.249179
 30
0.0
 10
226.070583
 20
-40.930331
 30
0.0
 10
226.070583
 20
-150.882169
 30
0.0
 10
274.285604
 20
-243.061679
 30
0.0
  0
LINE
  5
13f
100
AcDbEntity
  8
0
 62
7
100
AcDbLine
 10
274.285604
 20
-243.061679
 30
0.0
 11
292.616996
 21
-232.478346
 31
0.0
  0
SPLINE
  5
140
100
AcDbEntity
  8
0
 62
7
100
AcDbSpline
 70
8
 71
3
 72
8
 73
4
 74
0
 40
0
 40
0
 40
0
 40
0
 40
1
 40
1
 40
1
 40
1
 10
292.616996
 20
-232.478346
 30
0.0
 10
293.340631
 20
-232.060569
 30
0.0
 10
293.824290
 20
-231.325292
 30
0.0
 10
293.921921
 20
-230.495558
 30
0.0
  0
SPLINE
  5
141
100
AcDbEntity
  8
0
 62
7
100
AcDbSpline
 70
8
 71
3
 72
8
 73
4
 74
0
 40
0
 40
0
 40
0
 40
0
 40
1
 40
1
 40
1
 40
1
 10
293.921921
 20
-230.495558
 30
0.0
 10
294.019288
 20
-229.665560
 30
0.0
 10
293.718985
 20
-228.838473
 30
0.0
 10
293.112031
 20
-228.264327
 30
0.0
  0
SPLINE
  5
142
100
AcDbEntity
  8
0
 62
7
100
AcDbSpline
 70
8
 71
3
 72
8
 73
4
 74
0
 40
0
 40
0
 40
0
 40
0
 40
1
 40
1
 40
1
 40
1
 10
293.112031
 20
-228.264327
 30
0.0
 10
288.321750
 20
-223.735719
 30
0.0
 10
286.829500
 20
-216.718440
 30
0.0
 10
289.361563
 20
-210.632494
 30
0.0
  0
SPLINE
  5
143
100
AcDbEntity
  8
0
 62
7
100
AcDbSpline
 70
8
 71
3
 72
8
 73
4
 74
0
 40
0
 40
0
 40
0
 40
0
 40
1
 40
1
 40
1
 40
1
 10
289.361563
 20
-210.632494
 30
0.0
 10
291.893360
 20
-204.546548
 30
0.0
 10
297.922421
 20
-200.658231
 30
0.0
 10
304.510810
 20
-200.862490
 30
0.0
  0
SPLINE
  5
144
100
AcDbEntity
  8
0
 62
7
100
AcDbSpline
 70
8
 71
3
 72
8
 73
4
 74
0
 40
0
 40
0
 40
0
 40
0
 40
1
 40
1
 40
1
 40
1
 10
304.510810
 20
-200.862490
 30
0.0
 10
311.099200
 20
-201.066483
 30
0.0
 10
316.875848
 20
-205.320719
 30
0.0
 10
319.025852
 20
-211.551656
 30
0.0
  0
SPLINE
  5
145
100
AcDbEntity
  8
0
 62
7
100
AcDbSpline
 70
8
 71
3
 72
8
 73
4
 74
0
 40
0
 40
0
 40
0
 40
0
 40
1
 40
1
 40
1
 40
1
 10
319.025852
 20
-211.551656
 30
0.0
 10
319.330652
 20
-212.434835
 30
0.0
 10
320.078365
 20
-213.091796
 30
0.0
 10
320.993558
 20
-213.280179
 30
0.0
  0
SPLINE
  5
146
100
AcDbEntity
  8
0
 62
7
100
AcDbSpline
 70
8
 71
3
 72
8
 73
4
 74
0
 40
0
 40
0
 40
0
 40
0
 40
1
 40
1
 40
1
 40
1
 10
320.993558
 20
-213.280179
 30
0.0
 10
321.908488
 20
-213.468562
 30
0.0
 10
322.855167
 20
-213.160323
 30
0.0
 10
323.483817
 20
-212.469496
 30
0.0
  0
SPLINE
  5
147
100
AcDbEntity
  8
0
 62
7
100
AcDbSpline
 70
8
 71
3
 72
8
 73
4
 74
0
 40
0
 40
0
 40
0
 40
0
 40
1
 40
1
 40
1
 40
1
 10
323.483817
 20
-212.469496
 30
0.0
 10
328.098944
 20
-207.398227
 30
0.0
 10
335.448275
 20
-205.863379
 30
0.0
 10
341.707258
 20
-208.663200
 30
0.0
  0
SPLINE
  5
148
100
AcDbEntity
  8
0
 62
7
100
AcDbSpline
 70
8
 71
3
 72
8
 73
4
 74
0
 40
0
 40
0
 40
0
 40
0
 40
1
 40
1
 40
1
 40
1
 10
341.707258
 20
-208.663200
 30
0.0
 10
347.966242
 20
-211.463285
 30
0.0
 10
351.720415
 20
-217.965421
 30
0.0
 10
351.015565
 20
-224.785850
 30
0.0
  0
SPLINE
  5
149
100
AcDbEntity
  8
0
 62
7
100
AcDbSpline
 70
8
 71
3
 72
8
 73
4
 74
0
 40
0
 40
0
 40
0
 40
0
 40
1
 40
1
 40
1
 40
1
 10
351.015565
 20
-224.785850
 30
0.0
 10
350.310979
 20
-231.606279
 30
0.0
 10
345.306915
 20
-237.203540
 30
0.0
 10
338.607665
 20
-238.664833
 30
0.0
  0
SPLINE
  5
14a
100
AcDbEntity
  8
0
 62
7
100
AcDbSpline
 70
8
 71
3
 72
8
 73
4
 74
0
 40
0
 40
0
 40
0
 40
0
 40
1
 40
1
 40
1
 40
1
 10
338.607665
 20
-238.664833
 30
0.0
 10
337.694852
 20
-238.863800
 30
0.0
 10
336.954813
 20
-239.529492
 30
0.0
 10
336.660596
 20
-240.416110
 30
0.0
  0
SPLINE
  5
14b
100
AcDbEntity
  8
0
 62
7
100
AcDbSpline
 70
8
 71
3
 72
8
 73
4
 74
0
 40
0
 40
0
 40
0
 40
0
 40
1
 40
1
 40
1
 40
1
 10
336.660596
 20
-240.416110
 30
0.0
 10
336.366115
 20
-241.302729
 30
0.0
 10
336.561113
 20
-242.278777
 30
0.0
 10
337.173623
 20
-242.984421
 30
0.0
  0
SPLINE
  5
14c
100
AcDbEntity
  8
0
 62
7
100
AcDbSpline
 70
8
 71
3
 72
8
 73
4
 74
0
 40
0
 40
0
 40
0
 40
0
 40
1
 40
1
 40
1
 40
1
 10
337.173623
 20
-242.984421
 30
0.0
 10
341.494798
 20
-247.961762
 30
0.0
 10
342.290665
 20
-255.091754
 30
0.0
 10
339.173344
 20
-260.899358
 30
0.0
  0
SPLINE
  5
14d
100
AcDbEntity
  8
0
 62
7
100
AcDbSpline
 70
8
 71
3
 72
8
 73
4
 74
0
 40
0
 40
0
 40
0
 40
0
 40
1
 40
1
 40
1
 40
1
 10
339.173344
 20
-260.899358
 30
0.0
 10
336.055758
 20
-266.707227
 30
0.0
 10
329.674008
 20
-269.984356
 30
0.0
 10
323.137477
 20
-269.133721
 30
0.0
  0
SPLINE
  5
14e
100
AcDbEntity
  8
0
 62
7
100
AcDbSpline
 70
8
 71
3
 72
8
 73
4
 74
0
 40
0
 40
0
 40
0
 40
0
 40
1
 40
1
 40
1
 40
1
 10
323.137477
 20
-269.133721
 30
0.0
 10
316.601210
 20
-268.283350
 30
0.0
 10
311.270385
 20
-263.482221
 30
0.0
 10
309.742946
 20
-257.070044
 30
0.0
  0
SPLINE
  5
14f
100
AcDbEntity
  8
0
 62
7
100
AcDbSpline
 70
8
 71
3
 72
8
 73
4
 74
0
 40
0
 40
0
 40
0
 40
0
 40
1
 40
1
 40
1
 40
1
 10
309.742946
 20
-257.070044
 30
0.0
 10
309.549271
 20
-256.257244
 30
0.0
 10
308.983063
 20
-255.583615
 30
0.0
 10
308.215771
 20
-255.253150
 30
0.0
  0
SPLINE
  5
150
100
AcDbEntity
  8
0
 62
7
100
AcDbSpline
 70
8
 71
3
 72
8
 73
4
 74
0
 40
0
 40
0
 40
0
 40
0
 40
1
 40
1
 40
1
 40
1
 10
308.215771
 20
-255.253150
 30
0.0
 10
307.448215
 20
-254.922685
 30
0.0
 10
306.569798
 20
-254.974015
 30
0.0
 10
305.846163
 20
-255.391792
 30
0.0
  0
LINE
  5
151
100
AcDbEntity
  8
0
 62
7
100
AcDbLine
 10
305.846163
 20
-255.391792
 30
0.0
 11
287.514771
 21
-265.975125
 31
0.0
  0
SPLINE
  5
152
100
AcDbEntity
  8
0
 62
7
100
AcDbSpline
 70
8
 71
3
 72
8
 73
4
 74
0
 40
0
 40
0
 40
0
 40
0
 40
1
 40
1
 40
1
 40
1
 10
287.514771
 20
-265.975125
 30
0.0
 10
343.237608
 20
-353.820231
 30
0.0
 10
438.458504
 20
-408.797208
 30
0.0
 10
542.395833
 20
-413.131083
 30
0.0
  0
LINE
  5
153
100
AcDbEntity
  8
0
 62
7
100
AcDbLine
 10
542.395833
 20
-413.131083
 30
0.0
 11
542.395833
 21
-391.964417
 31
0.0
  0
SPLINE
  5
154
100
AcDbEntity
  8
0
 62
7
100
AcDbSpline
 70
8
 71
3
 72
8
 73
4
 74
0
 40
0
 40
0
 40
0
 40
0
 40
1
 40
1
 40
1
 40
1
 10
542.395833
 20
-391.964417
 30
0.0
 10
542.395833
 20
-391.128333
 30
0.0
 10
542.001128
 20
-390.342521
 30
0.0
 10
541.331176
 20
-389.842458
 30
0.0
  0
SPLINE
  5
155
100
AcDbEntity
  8
0
 62
7
100
AcDbSpline
 70
8
 71
3
 72
8
 73
4
 74
0
 40
0
 40
0
 40
0
 40
0
 40
1
 40
1
 40
1
 40
1
 10
541.331176
 20
-389.842458
 30
0.0
 10
540.661251
 20
-389.342396
 30
0.0
 10
539.794794
 20
-389.188937
 30
0.0
 10
538.994059
 20
-389.427062
 30
0.0
  0
SPLINE
  5
156
100
AcDbEntity
  8
0
 62
7
100
AcDbSpline
 70
8
 71
3
 72
8
 73
4
 74
0
 40
0
 40
0
 40
0
 40
0
 40
1
 40
1
 40
1
 40
1
 10
538.994059
 20
-389.427062
 30
0.0
 10
532.677344
 20
-391.310896
 30
0.0
 10
525.854083
 20
-389.096333
 30
0.0
 10
521.849350
 20
-383.860229
 30
0.0
  0
SPLINE
  5
157
100
AcDbEntity
  8
0
 62
7
100
AcDbSpline
 70
8
 71
3
 72
8
 73
4
 74
0
 40
0
 40
0
 40
0
 40
0
 40
1
 40
1
 40
1
 40
1
 10
521.849350
 20
-383.860229
 30
0.0
 10
517.844617
 20
-378.624125
 30
0.0
 10
517.491663
 20
-371.459208
 30
0.0
 10
520.962731
 20
-365.855333
 30
0.0
  0
SPLINE
  5
158
100
AcDbEntity
  8
0
 62
7
100
AcDbSpline
 70
8
 71
3
 72
8
 73
4
 74
0
 40
0
 40
0
 40
0
 40
0
 40
1
 40
1
 40
1
 40
1
 10
520.962731
 20
-365.855333
 30
0.0
 10
524.433535
 20
-360.251987
 30
0.0
 10
531.006156
 20
-357.376231
 30
0.0
 10
537.477335
 20
-358.629827
 30
0.0
  0
SPLINE
  5
159
100
AcDbEntity
  8
0
 62
7
100
AcDbSpline
 70
8
 71
3
 72
8
 73
4
 74
0
 40
0
 40
0
 40
0
 40
0
 40
1
 40
1
 40
1
 40
1
 10
537.477335
 20
-358.629827
 30
0.0
 10
538.394487
 20
-358.807362
 30
0.0
 10
539.337382
 20
-358.488275
 30
0.0
 10
539.958015
 20
-357.790040
 30
0.0
  0
SPLINE
  5
15a
100
AcDbEntity
  8
0
 62
7
100
AcDbSpline
 70
8
 71
3
 72
8
 73
4
 74
0
 40
0
 40
0
 40
0
 40
0
 40
1
 40
1
 40
1
 40
1
 10
539.958015
 20
-357.790040
 30
0.0
 10
540.578675
 20
-357.091804
 30
0.0
 10
540.785103
 20
-356.117873
 30
0.0
 10
540.501152
 20
-355.228079
 30
0.0
  0
SPLINE
  5
15b
100
AcDbEntity
  8
0
 62
7
100
AcDbSpline
 70
8
 71
3
 72
8
 73
4
 74
0
 40
0
 40
0
 40
0
 40
0
 40
1
 40
1
 40
1
 40
1
 10
540.501152
 20
-355.228079
 30
0.0
 10
538.416950
 20
-348.695781
 30
0.0
 10
540.762296
 20
-341.563408
 30
0.0
 10
546.316641
 20
-337.542800
 30
0.0
  0
SPLINE
  5
15c
100
AcDbEntity
  8
0
 62
7
100
AcDbSpline
 70
8
 71
3
 72
8
 73
4
 74
0
 40
0
 40
0
 40
0
 40
0
 40
1
 40
1
 40
1
 40
1
 10
546.316641
 20
-337.542800
 30
0.0
 10
551.871012
 20
-333.522456
 30
0.0
 10
559.378988
 20
-333.522456
 30
0.0
 10
564.933359
 20
-337.542800
 30
0.0
  0
SPLINE
  5
15d
100
AcDbEntity
  8
0
 62
7
100
AcDbSpline
 70
8
 71
3
 72
8
 73
4
 74
0
 40
0
 40
0
 40
0
 40
0
 40
1
 40
1
 40
1
 40
1
 10
564.933359
 20
-337.542800
 30
0.0
 10
570.487704
 20
-341.563408
 30
0.0
 10
572.833050
 20
-348.695781
 30
0.0
 10
570.748848
 20
-355.228079
 30
0.0
  0
SPLINE
  5
15e
100
AcDbEntity
  8
0
 62
7
100
AcDbSpline
 70
8
 71
3
 72
8
 73
4
 74
0
 40
0
 40
0
 40
0
 40
0
 40
1
 40
1
 40
1
 40
1
 10
570.748848
 20
-355.228079
 30
0.0
 10
570.464897
 20
-356.117873
 30
0.0
 10
570.671325
 20
-357.091804
 30
0.0
 10
571.291985
 20
-357.790040
 30
0.0
  0
SPLINE
  5
15f
100
AcDbEntity
  8
0
 62
7
100
AcDbSpline
 70
8
 71
3
 72
8
 73
4
 74
0
 40
0
 40
0
 40
0
 40
0
 40
1
 40
1
 40
1
 40
1
 10
571.291985
 20
-357.790040
 30
0.0
 10
571.912618
 20
-358.488275
 30
0.0
 10
572.855513
 20
-358.807362
 30
0.0
 10
573.772665
 20
-358.629827
 30
0.0
  0
SPLINE
  5
160
100
AcDbEntity
  8
0
 62
7
100
AcDbSpline
 70
8
 71
3
 72
8
 73
4
 74
0
 40
0
 40
0
 40
0
 40
0
 40
1
 40
1
 40
1
 40
1
 10
573.772665
 20
-358.629827
 30
0.0
 10
580.243844
 20
-357.376231
 30
0.0
 10
586.816465
 20
-360.251987
 30
0.0
 10
590.287269
 20
-365.855333
 30
0.0
  0
SPLINE
  5
161
100
AcDbEntity
  8
0
 62
7
100
AcDbSpline
 70
8
 71
3
 72
8
 73
4
 74
0
 40
0
 40
0
 40
0
 40
0
 40
1
 40
1
 40
1
 40
1
 10
590.287269
 20
-365.855333
 30
0.0
 10
593.758338
 20
-371.459208
 30
0.0
 10
593.405383
 20
-378.624125
 30
0.0
 10
589.400650
 20
-383.860229
 30
0.0
  0
SPLINE
  5
162
100
AcDbEntity
  8
0
 62
7
100
AcDbSpline
 70
8
 71
3
 72
8
 73
4
 74
0
 40
0
 40
0
 40
0
 40
0
 40
1
 40
1
 40
1
 40
1
 10
589.400650
 20
-383.860229
 30
0.0
 10
585.395917
 20
-389.096333
 30
0.0
 10
578.572656
 20
-391.310896
 30
0.0
 10
572.255941
 20
-389.427062
 30
0.0
  0
SPLINE
  5
163
100
AcDbEntity
  8
0
 62
7
100
AcDbSpline
 70
8
 71
3
 72
8
 73
4
 74
0
 40
0
 40
0
 40
0
 40
0
 40
1
 40
1
 40
1
 40
1
 10
572.255941
 20
-389.427062
 30
0.0
 10
571.455206
 20
-389.188937
 30
0.0
 10
570.588749
 20
-389.342396
 30
0.0
 10
569.918824
 20
-389.842458
 30
0.0
  0
SPLINE
  5
164
100
AcDbEntity
  8
0
 62
7
100
AcDbSpline
 70
8
 71
3
 72
8
 73
4
 74
0
 40
0
 40
0
 40
0
 40
0
 40
1
 40
1
 40
1
 40
1
 10
569.918824
 20
-389.842458
 30
0.0
 10
569.248872
 20
-390.342521
 30
0.0
 10
568.854167
 20
-391.128333
 30
0.0
 10
568.854167
 20
-391.964417
 30
0.0
  0
LINE
  5
165
100
AcDbEntity
  8
0
 62
7
100
AcDbLine
 10
568.854167
 20
-391.964417
 30
0.0
 11
568.854167
 21
-413.131083
 31
0.0
  0
SPLINE
  5
166
100
AcDbEntity
  8
0
 62
7
100
AcDbSpline
 70
8
 71
3
 72
8
 73
4
 74
0
 40
0
 40
0
 40
0
 40
0
 40
1
 40
1
 40
1
 40
1
 10
568.854167
 20
-413.131083
 30
0.0
 10
672.791496
 20
-408.797208
 30
0.0
 10
768.012392
 20
-353.820231
 30
0.0
 10
823.735229
 20
-265.975125
 30
0.0
  0
LINE
  5
167
100
AcDbEntity
  8
0
 62
7
100
AcDbLine
 10
823.735229
 20
-265.975125
 30
0.0
 11
805.403838
 21
-255.391792
 31
0.0
  0
SPLINE
  5
168
100
AcDbEntity
  8
0
 62
7
100
AcDbSpline
 70
8
 71
3
 72
8
 73
4
 74
0
 40
0
 40
0
 40
0
 40
0
 40
1
 40
1
 40
1
 40
1
 10
805.403838
 20
-255.391792
 30
0.0
 10
804.680202
 20
-254.974015
 30
0.0
 10
803.801785
 20
-254.922685
 30
0.0
 10
803.034229
 20
-255.253150
 30
0.0
  0
SPLINE
  5
169
100
AcDbEntity
  8
0
 62
7
100
AcDbSpline
 70
8
 71
3
 72
8
 73
4
 74
0
 40
0
 40
0
 40
0
 40
0
 40
1
 40
1
 40
1
 40
1
 10
803.034229
 20
-255.253150
 30
0.0
 10
802.266937
 20
-255.583615
 30
0.0
 10
801.700729
 20
-256.257244
 30
0.0
 10
801.507054
 20
-257.070044
 30
0.0
  0
SPLINE
  5
16a
100
AcDbEntity
  8
0
 62
7
100
AcDbSpline
 70
8
 71
3
 72
8
 73
4
 74
0
 40
0
 40
0
 40
0
 40
0
 40
1
 40
1
 40
1
 40
1
 10
801.507054
 20
-257.070044
 30
0.0
 10
799.979615
 20
-263.482221
 30
0.0
 10
794.648790
 20
-268.283350
 30
0.0
 10
788.112523
 20
-269.133721
 30
0.0
  0
SPLINE
  5
16b
100
AcDbEntity
  8
0
 62
7
100
AcDbSpline
 70
8
 71
3
 72
8
 73
4
 74
0
 40
0
 40
0
 40
0
 40
0
 40
1
 40
1
 40
1
 40
1
 10
788.112523
 20
-269.133721
 30
0.0
 10
781.575992
 20
-269.984356
 30
0.0
 10
775.194242
 20
-266.707227
 30
0.0
 10
772.076656
 20
-260.899358
 30
0.0
  0
SPLINE
  5
16c
100
AcDbEntity
  8
0
 62
7
100
AcDbSpline
 70
8
 71
3
 72
8
 73
4
 74
0
 40
0
 40
0
 40
0
 40
0
 40
1
 40
1
 40
1
 40
1
 10
772.076656
 20
-260.899358
 30
0.0
 10
768.959335
 20
-255.091754
 30
0.0
 10
769.755202
 20
-247.961762
 30
0.0
 10
774.076377
 20
-242.984421
 30
0.0
  0
SPLINE
  5
16d
100
AcDbEntity
  8
0
 62
7
100
AcDbSpline
 70
8
 71
3
 72
8
 73
4
 74
0
 40
0
 40
0
 40
0
 40
0
 40
1
 40
1
 40
1
 40
1
 10
774.076377
 20
-242.984421
 30
0.0
 10
774.688887
 20
-242.278777
 30
0.0
 10
774.883885
 20
-241.302729
 30
0.0
 10
774.589404
 20
-240.416110
 30
0.0
  0
SPLINE
  5
16e
100
AcDbEntity
  8
0
 62
7
100
AcDbSpline
 70
8
 71
3
 72
8
 73
4
 74
0
 40
0
 40
0
 40
0
 40
0
 40
1
 40
1
 40
1
 40
1
 10
774.589404
 20
-240.416110
 30
0.0
 10
774.295187
 20
-239.529492
 30
0.0
 10
773.555148
 20
-238.863800
 30
0.0
 10
772.642335
 20
-238.664833
 30
0.0
  0
SPLINE
  5
16f
100
AcDbEntity
  8
0
 62
7
100
AcDbSpline
 70
8
 71
3
 72
8
 73
4
 74
0
 40
0
 40
0
 40
0
 40
0
 40
1
 40
1
 40
1
 40
1
 10
772.642335
 20
-238.664833
 30
0.0
 10
765.943085
 20
-237.203540
 30
0.0
 10
760.939021
 20
-231.606279
 30
0.0
 10
760.234435
 20
-224.785850
 30
0.0
  0
SPLINE
  5
170
100
AcDbEntity
  8
0
 62
7
100
AcDbSpline
 70
8
 71
3
 72
8
 73
4
 74
0
 40
0
 40
0
 40
0
 40
0
 40
1
 40
1
 40
1
 40
1
 10
760.234435
 20
-224.785850
 30
0.0
 10
759.529585
 20
-217.965421
 30
0.0
 10
763.283758
 20
-211.463285
 30
0.0
 10
769.542742
 20
-208.663200
 30
0.0
  0
SPLINE
  5
171
100
AcDbEntity
  8
0
 62
7
100
AcDbSpline
 70
8
 71
3
 72
8
 73
4
 74
0
 40
0
 40
0
 40
0
 40
0
 40
1
 40
1
 40
1
 40
1
 10
769.542742
 20
-208.663200
 30
0.0
 10
775.801725
 20
-205.863379
 30
0.0
 10
783.151056
 20
-207.398227
 30
0.0
 10
787.766183
 20
-212.469496
 30
0.0
  0
SPLINE
  5
172
100
AcDbEntity
  8
0
 62
7
100
AcDbSpline
 70
8
 71
3
 72
8
 73
4
 74
0
 40
0
 40
0
 40
0
 40
0
 40
1
 40
1
 40
1
 40
1
 10
787.766183
 20
-212.469496
 30
0.0
 10
788.394833
 20
-213.160323
 30
0.0
 10
789.341512
 20
-213.468562
 30
0.0
 10
790.256442
 20
-213.280179
 30
0.0
  0
SPLINE
  5
173
100
AcDbEntity
  8
0
 62
7
100
AcDbSpline
 70
8
 71
3
 72
8
 73
4
 74
0
 40
0
 40
0
 40
0
 40
0
 40
1
 40
1
 40
1
 40
1
 10
790.256442
 20
-213.280179
 30
0.0
 10
791.171635
 20
-213.091796
 30
0.0
 10
791.919348
 20
-212.434835
 30
0.0
 10
792.224148
 20
-211.551656
 30
0.0
  0
SPLINE
  5
174
100
AcDbEntity
  8
0
 62
7
100
AcDbSpline
 70
8
 71
3
 72
8
 73
4
 74
0
 40
0
 40
0
 40
0
 40
0
 40
1
 40
1
 40
1
 40
1
 10
792.224148
 20
-211.551656
 30
0.0
 10
794.374152
 20
-205.320719
 30
0.0
 10
800.150800
 20
-201.066483
 30
0.0
 10
806.739190
 20
-200.862490
 30
0.0
  0
SPLINE
  5
175
100
AcDbEntity
  8
0
 62
7
100
AcDbSpline
 70
8
 71
3
 72
8
 73
4
 74
0
 40
0
 40
0
 40
0
 40
0
 40
1
 40
1
 40
1
 40
1
 10
806.739190
 20
-200.862490
 30
0.0
 10
813.327579
 20
-200.658231
 30
0.0
 10
819.356640
 20
-204.546548
 30
0.0
 10
821.888437
 20
-210.632494
 30
0.0
  0
SPLINE
  5
176
100
AcDbEntity
  8
0
 62
7
100
AcDbSpline
 70
8
 71
3
 72
8
 73
4
 74
0
 40
0
 40
0
 40
0
 40
0
 40
1
 40
1
 40
1
 40
1
 10
821.888437
 20
-210.632494
 30
0.0
 10
824.420500
 20
-216.718440
 30
0.0
 10
822.928250
 20
-223.735719
 30
0.0
 10
818.137969
 20
-228.264327
 30
0.0
  0
SPLINE
  5
177
100
AcDbEntity
  8
0
 62
7
100
AcDbSpline
 70
8
 71
3
 72
8
 73
4
 74
0
 40
0
 40
0
 40
0
 40
0
 40
1
 40
1
 40
1
 40
1
 10
818.137969
 20
-228.264327
 30
0.0
 10
817.531015
 20
-228.838473
 30
0.0
 10
817.230712
 20
-229.665560
 30
0.0
 10
817.328079
 20
-230.495558
 30
0.0
  0
SPLINE
  5
178
100
AcDbEntity
  8
0
 62
7
100
AcDbSpline
 70
8
 71
3
 72
8
 73
4
 74
0
 40
0
 40
0
 40
0
 40
0
 40
1
 40
1
 40
1
 40
1
 10
817.328079
 20
-230.495558
 30
0.0
 10
817.425710
 20
-231.325292
 30
0.0
 10
817.909369
 20
-232.060569
 30
0.0
 10
818.633004
 20
-232.478346
 30
0.0
  0
LINE
  5
179
100
AcDbEntity
  8
0
 62
7
100
AcDbLine
 10
608.541667
 20
-60.094367
 30
0.0
 11
608.541667
 21
-126.981298
 31
0.0
  0
SPLINE
  5
17a
100
AcDbEntity
  8
0
 62
7
100
AcDbSpline
 70
8
 71
3
 72
8
 73
4
 74
0
 40
0
 40
0
 40
0
 40
0
 40
1
 40
1
 40
1
 40
1
 10
608.541667
 20
-126.981298
 30
0.0
 10
608.541667
 20
-139.044181
 30
0.0
 10
598.762931
 20
-148.822917
 30
0.0
 10
586.700048
 20
-148.822917
 30
0.0
  0
LINE
  5
17b
100
AcDbEntity
  8
0
 62
7
100
AcDbLine
 10
586.700048
 20
-148.822917
 30
0.0
 11
524.550217
 21
-148.822917
 31
0.0
  0
SPLINE
  5
17c
100
AcDbEntity
  8
0
 62
7
100
AcDbSpline
 70
8
 71
3
 72
8
 73
4
 74
0
 40
0
 40
0
 40
0
 40
0
 40
1
 40
1
 40
1
 40
1
 10
524.550217
 20
-148.822917
 30
0.0
 10
512.487333
 20
-148.822917
 30
0.0
 10
502.708333
 20
-139.043917
 30
0.0
 10
502.708333
 20
-126.981033
 30
0.0
  0
LINE
  5
17d
100
AcDbEntity
  8
0
 62
7
100
AcDbLine
 10
502.708333
 20
-126.981033
 30
0.0
 11
502.708333
 21
-60.094367
 31
0.0
  0
SPLINE
  5
17e
100
AcDbEntity
  8
0
 62
7
100
AcDbSpline
 70
8
 71
3
 72
8
 73
4
 74
0
 40
0
 40
0
 40
0
 40
0
 40
1
 40
1
 40
1
 40
1
 10
502.708333
 20
-60.094367
 30
0.0
 10
502.708333
 20
-50.647683
 30
0.0
 10
510.366433
 20
-42.989583
 30
0.0
 10
519.813117
 20
-42.989583
 30
0.0
  0
LINE
  5
17f
100
AcDbEntity
  8
0
 62
7
100
AcDbLine
 10
519.813117
 20
-42.989583
 30
0.0
 11
591.436883
 21
-42.989583
 31
0.0
  0
SPLINE
  5
180
100
AcDbEntity
  8
0
 62
7
100
AcDbSpline
 70
8
 71
3
 72
8
 73
4
 74
0
 40
0
 40
0
 40
0
 40
0
 40
1
 40
1
 40
1
 40
1
 10
591.436883
 20
-42.989583
 30
0.0
 10
600.883567
 20
-42.989583
 30
0.0
 10
608.541667
 20
-50.647683
 30
0.0
 10
608.541667
 20
-60.094367
 30
0.0
  0
SPLINE
  5
181
100
AcDbEntity
  8
0
 62
7
100
AcDbSpline
 70
8
 71
3
 72
8
 73
4
 74
0
 40
0
 40
0
 40
0
 40
0
 40
1
 40
1
 40
1
 40
1
 10
586.699783
 20
-188.510417
 30
0.0
 10
598.762667
 20
-188.510417
 30
0.0
 10
608.541667
 20
-198.289417
 30
0.0
 10
608.541667
 20
-210.352300
 30
0.0
  0
LINE
  5
182
100
AcDbEntity
  8
0
 62
7
100
AcDbLine
 10
608.541667
 20
-210.352300
 30
0.0
 11
608.541667
 21
-269.547265
 31
0.0
  0
SPLINE
  5
183
100
AcDbEntity
  8
0
 62
7
100
AcDbSpline
 70
8
 71
3
 72
8
 73
4
 74
0
 40
0
 40
0
 40
0
 40
0
 40
1
 40
1
 40
1
 40
1
 10
608.541667
 20
-269.547265
 30
0.0
 10
608.541667
 20
-275.179979
 30
0.0
 10
604.665521
 20
-280.071860
 30
0.0
 10
599.182031
 20
-281.359852
 30
0.0
  0
SPLINE
  5
184
100
AcDbEntity
  8
0
 62
7
100
AcDbSpline
 70
8
 71
3
 72
8
 73
4
 74
0
 40
0
 40
0
 40
0
 40
0
 40
1
 40
1
 40
1
 40
1
 10
599.182031
 20
-281.359852
 30
0.0
 10
570.533821
 20
-288.088471
 30
0.0
 10
540.716179
 20
-288.088471
 30
0.0
 10
512.067969
 20
-281.359852
 30
0.0
  0
SPLINE
  5
185
100
AcDbEntity
  8
0
 62
7
100
AcDbSpline
 70
8
 71
3
 72
8
 73
4
 74
0
 40
0
 40
0
 40
0
 40
0
 40
1
 40
1
 40
1
 40
1
 10
512.067969
 20
-281.359852
 30
0.0
 10
506.584479
 20
-280.071860
 30
0.0
 10
502.708333
 20
-275.179979
 30
0.0
 10
502.708333
 20
-269.547265
 30
0.0
  0
LINE
  5
186
100
AcDbEntity
  8
0
 62
7
100
AcDbLine
 10
502.708333
 20
-269.547265
 30
0.0
 11
502.708333
 21
-210.352300
 31
0.0
  0
SPLINE
  5
187
100
AcDbEntity
  8
0
 62
7
100
AcDbSpline
 70
8
 71
3
 72
8
 73
4
 74
0
 40
0
 40
0
 40
0
 40
0
 40
1
 40
1
 40
1
 40
1
 10
502.708333
 20
-210.352300
 30
0.0
 10
502.708333
 20
-198.289417
 30
0.0
 10
512.487333
 20
-188.510417
 30
0.0
 10
524.550217
 20
-188.510417
 30
0.0
  0
LINE
  5
188
100
AcDbEntity
  8
0
 62
7
100
AcDbLine
 10
524.550217
 20
-188.510417
 30
0.0
 11
586.699783
 21
-188.510417
 31
0.0
  0
LINE
  5
189
100
AcDbEntity
  8
0
 62
7
100
AcDbLine
 10
608.541667
 20
18.539800
 30
0.0
 11
608.541667
 21
77.734765
 31
0.0
  0
SPLINE
  5
18a
100
AcDbEntity
  8
0
 62
7
100
AcDbSpline
 70
8
 71
3
 72
8
 73
4
 74
0
 40
0
 40
0
 40
0
 40
0
 40
1
 40
1
 40
1
 40
1
 10
608.541667
 20
77.734765
 30
0.0
 10
608.541667
 20
83.367479
 30
0.0
 10
604.665521
 20
88.259360
 30
0.0
 10
599.182031
 20
89.547352
 30
0.0
  0
SPLINE
  5
18b
100
AcDbEntity
  8
0
 62
7
100
AcDbSpline
 70
8
 71
3
 72
8
 73
4
 74
0
 40
0
 40
0
 40
0
 40
0
 40
1
 40
1
 40
1
 40
1
 10
599.182031
 20
89.547352
 30
0.0
 10
570.533821
 20
96.275971
 30
0.0
 10
540.716179
 20
96.275971
 30
0.0
 10
512.067969
 20
89.547352
 30
0.0
  0
SPLINE
  5
18c
100
AcDbEntity
  8
0
 62
7
100
AcDbSpline
 70
8
 71
3
 72
8
 73
4
 74
0
 40
0
 40
0
 40
0
 40
0
 40
1
 40
1
 40
1
 40
1
 10
512.067969
 20
89.547352
 30
0.0
 10
506.584479
 20
88.259360
 30
0.0
 10
502.708333
 20
83.367479
 30
0.0
 10
502.708333
 20
77.734765
 30
0.0
  0
LINE
  5
18d
100
AcDbEntity
  8
0
 62
7
100
AcDbLine
 10
502.708333
 20
77.734765
 30
0.0
 11
502.708333
 21
18.539800
 31
0.0
  0
SPLINE
  5
18e
100
AcDbEntity
  8
0
 62
7
100
AcDbSpline
 70
8
 71
3
 72
8
 73
4
 74
0
 40
0
 40
0
 40
0
 40
0
 40
1
 40
1
 40
1
 40
1
 10
502.708333
 20
18.539800
 30
0.0
 10
502.708333
 20
6.476917
 30
0.0
 10
512.487333
 20
-3.302083
 30
0.0
 10
524.550217
 20
-3.302083
 30
0.0
  0
LINE
  5
18f
100
AcDbEntity
  8
0
 62
7
100
AcDbLine
 10
524.550217
 20
-3.302083
 30
0.0
 11
586.699783
 21
-3.302083
 31
0.0
  0
SPLINE
  5
190
100
AcDbEntity
  8
0
 62
7
100
AcDbSpline
 70
8
 71
3
 72
8
 73
4
 74
0
 40
0
 40
0
 40
0
 40
0
 40
1
 40
1
 40
1
 40
1
 10
586.699783
 20
-3.302083
 30
0.0
 10
598.762667
 20
-3.302083
 30
0.0
 10
608.541667
 20
6.476917
 30
0.0
 10
608.541667
 20
18.539800
 30
0.0
  0
SPLINE
  5
191
100
AcDbEntity
  8
0
 62
7
100
AcDbSpline
 70
8
 71
3
 72
8
 73
4
 74
0
 40
0
 40
0
 40
0
 40
0
 40
1
 40
1
 40
1
 40
1
 10
490.964802
 20
-169.119898
 30
0.0
 10
496.996244
 20
-179.566706
 30
0.0
 10
493.416960
 20
-192.924990
 30
0.0
 10
482.970152
 20
-198.956431
 30
0.0
  0
LINE
  5
192
100
AcDbEntity
  8
0
 62
7
100
AcDbLine
 10
482.970152
 20
-198.956431
 30
0.0
 11
431.705808
 21
-228.554046
 31
0.0
  0
SPLINE
  5
193
100
AcDbEntity
  8
0
 62
7
100
AcDbSpline
 70
8
 71
3
 72
8
 73
4
 74
0
 40
0
 40
0
 40
0
 40
0
 40
1
 40
1
 40
1
 40
1
 10
431.705808
 20
-228.554046
 30
0.0
 10
426.827685
 20
-231.370271
 30
0.0
 10
420.653104
 20
-230.459310
 30
0.0
 10
416.796008
 20
-226.354565
 30
0.0
  0
SPLINE
  5
194
100
AcDbEntity
  8
0
 62
7
100
AcDbSpline
 70
8
 71
3
 72
8
 73
4
 74
0
 40
0
 40
0
 40
0
 40
0
 40
1
 40
1
 40
1
 40
1
 10
416.796008
 20
-226.354565
 30
0.0
 10
396.644813
 20
-204.908762
 30
0.0
 10
381.736071
 20
-179.085958
 30
0.0
 10
373.238977
 20
-150.911537
 30
0.0
  0
SPLINE
  5
195
100
AcDbEntity
  8
0
 62
7
100
AcDbSpline
 70
8
 71
3
 72
8
 73
4
 74
0
 40
0
 40
0
 40
0
 40
0
 40
1
 40
1
 40
1
 40
1
 10
373.238977
 20
-150.911537
 30
0.0
 10
371.612583
 20
-145.518800
 30
0.0
 10
373.911019
 20
-139.715958
 30
0.0
 10
378.789142
 20
-136.899733
 30
0.0
  0
LINE
  5
196
100
AcDbEntity
  8
0
 62
7
100
AcDbLine
 10
378.789142
 20
-136.899733
 30
0.0
 11
430.053485
 21
-107.302039
 31
0.0
  0
SPLINE
  5
197
100
AcDbEntity
  8
0
 62
7
100
AcDbSpline
 70
8
 71
3
 72
8
 73
4
 74
0
 40
0
 40
0
 40
0
 40
0
 40
1
 40
1
 40
1
 40
1
 10
430.053485
 20
-107.302039
 30
0.0
 10
440.500294
 20
-101.270598
 30
0.0
 10
453.858577
 20
-104.849934
 30
0.0
 10
459.890019
 20
-115.296663
 30
0.0
  0
LINE
  5
198
100
AcDbEntity
  8
0
 62
7
100
AcDbLine
 10
459.890019
 20
-115.296663
 30
0.0
 11
490.964802
 21
-169.119898
 31
0.0
  0
SPLINE
  5
199
100
AcDbEntity
  8
0
 62
7
100
AcDbSpline
 70
8
 71
3
 72
8
 73
4
 74
0
 40
0
 40
0
 40
0
 40
0
 40
1
 40
1
 40
1
 40
1
 10
482.970152
 20
7.143931
 30
0.0
 10
493.416960
 20
1.112490
 30
0.0
 10
496.996244
 20
-12.245794
 30
0.0
 10
490.964802
 20
-22.692602
 30
0.0
  0
LINE
  5
19a
100
AcDbEntity
  8
0
 62
7
100
AcDbLine
 10
490.964802
 20
-22.692602
 30
0.0
 11
459.890019
 21
-76.515837
 31
0.0
  0
SPLINE
  5
19b
100
AcDbEntity
  8
0
 62
7
100
AcDbSpline
 70
8
 71
3
 72
8
 73
4
 74
0
 40
0
 40
0
 40
0
 40
0
 40
1
 40
1
 40
1
 40
1
 10
459.890019
 20
-76.515837
 30
0.0
 10
453.858577
 20
-86.962566
 30
0.0
 10
440.500294
 20
-90.541902
 30
0.0
 10
430.053485
 20
-84.510461
 30
0.0
  0
LINE
  5
19c
100
AcDbEntity
  8
0
 62
7
100
AcDbLine
 10
430.053485
 20
-84.510461
 30
0.0
 11
378.789142
 21
-54.912767
 31
0.0
  0
SPLINE
  5
19d
100
AcDbEntity
  8
0
 62
7
100
AcDbSpline
 70
8
 71
3
 72
8
 73
4
 74
0
 40
0
 40
0
 40
0
 40
0
 40
1
 40
1
 40
1
 40
1
 10
378.789142
 20
-54.912767
 30
0.0
 10
373.911019
 20
-52.096542
 30
0.0
 10
371.612583
 20
-46.293700
 30
0.0
 10
373.238977
 20
-40.900962
 30
0.0
  0
SPLINE
  5
19e
100
AcDbEntity
  8
0
 62
7
100
AcDbSpline
 70
8
 71
3
 72
8
 73
4
 74
0
 40
0
 40
0
 40
0
 40
0
 40
1
 40
1
 40
1
 40
1
 10
373.238977
 20
-40.900962
 30
0.0
 10
381.736071
 20
-12.726542
 30
0.0
 10
396.644813
 20
13.096263
 30
0.0
 10
416.796008
 20
34.542065
 30
0.0
  0
SPLINE
  5
19f
100
AcDbEntity
  8
0
 62
7
100
AcDbSpline
 70
8
 71
3
 72
8
 73
4
 74
0
 40
0
 40
0
 40
0
 40
0
 40
1
 40
1
 40
1
 40
1
 10
416.796008
 20
34.542065
 30
0.0
 10
420.653104
 20
38.646810
 30
0.0
 10
426.827685
 20
39.557771
 30
0.0
 10
431.705808
 20
36.741546
 30
0.0
  0
LINE
  5
1a0
100
AcDbEntity
  8
0
 62
7
100
AcDbLine
 10
431.705808
 20
36.741546
 30
0.0
 11
482.970152
 21
7.143931
 31
0.0
  0
SPLINE
  5
1a1
100
AcDbEntity
  8
0
 62
7
100
AcDbSpline
 70
8
 71
3
 72
8
 73
4
 74
0
 40
0
 40
0
 40
0
 40
0
 40
1
 40
1
 40
1
 40
1
 10
620.285198
 20
-22.692602
 30
0.0
 10
614.253756
 20
-12.245794
 30
0.0
 10
617.833040
 20
1.112490
 30
0.0
 10
628.279848
 20
7.143931
 30
0.0
  0
LINE
  5
1a2
100
AcDbEntity
  8
0
 62
7
100
AcDbLine
 10
628.279848
 20
7.143931
 30
0.0
 11
679.544192
 21
36.741546
 31
0.0
  0
SPLINE
  5
1a3
100
AcDbEntity
  8
0
 62
7
100
AcDbSpline
 70
8
 71
3
 72
8
 73
4
 74
0
 40
0
 40
0
 40
0
 40
0
 40
1
 40
1
 40
1
 40
1
 10
679.544192
 20
36.741546
 30
0.0
 10
684.422315
 20
39.557771
 30
0.0
 10
690.596896
 20
38.646810
 30
0.0
 10
694.453992
 20
34.542065
 30
0.0
  0
SPLINE
  5
1a4
100
AcDbEntity
  8
0
 62
7
100
AcDbSpline
 70
8
 71
3
 72
8
 73
4
 74
0
 40
0
 40
0
 40
0
 40
0
 40
1
 40
1
 40
1
 40
1
 10
694.453992
 20
34.542065
 30
0.0
 10
714.605187
 20
13.096263
 30
0.0
 10
729.513929
 20
-12.726542
 30
0.0
 10
738.011023
 20
-40.900962
 30
0.0
  0
SPLINE
  5
1a5
100
AcDbEntity
  8
0
 62
7
100
AcDbSpline
 70
8
 71
3
 72
8
 73
4
 74
0
 40
0
 40
0
 40
0
 40
0
 40
1
 40
1
 40
1
 40
1
 10
738.011023
 20
-40.900962
 30
0.0
 10
739.637417
 20
-46.293700
 30
0.0
 10
737.338981
 20
-52.096542
 30
0.0
 10
732.460858
 20
-54.912767
 30
0.0
  0
LINE
  5
1a6
100
AcDbEntity
  8
0
 62
7
100
AcDbLine
 10
732.460858
 20
-54.912767
 30
0.0
 11
681.196515
 21
-84.510461
 31
0.0
  0
SPLINE
  5
1a7
100
AcDbEntity
  8
0
 62
7
100
AcDbSpline
 70
8
 71
3
 72
8
 73
4
 74
0
 40
0
 40
0
 40
0
 40
0
 40
1
 40
1
 40
1
 40
1
 10
681.196515
 20
-84.510461
 30
0.0
 10
670.749706
 20
-90.541902
 30
0.0
 10
657.391423
 20
-86.962566
 30
0.0
 10
651.359981
 20
-76.515837
 30
0.0
  0
LINE
  5
1a8
100
AcDbEntity
  8
0
 62
7
100
AcDbLine
 10
651.359981
 20
-76.515837
 30
0.0
 11
620.285198
 21
-22.692602
 31
0.0
  0
SPLINE
  5
1a9
100
AcDbEntity
  8
0
 62
7
100
AcDbSpline
 70
8
 71
3
 72
8
 73
4
 74
0
 40
0
 40
0
 40
0
 40
0
 40
1
 40
1
 40
1
 40
1
 10
651.359981
 20
-115.296663
 30
0.0
 10
657.391423
 20
-104.849934
 30
0.0
 10
670.749706
 20
-101.270598
 30
0.0
 10
681.196515
 20
-107.302039
 30
0.0
  0
LINE
  5
1aa
100
AcDbEntity
  8
0
 62
7
100
AcDbLine
 10
681.196515
 20
-107.302039
 30
0.0
 11
732.460858
 21
-136.899733
 31
0.0
  0
SPLINE
  5
1ab
100
AcDbEntity
  8
0
 62
7
100
AcDbSpline
 70
8
 71
3
 72
8
 73
4
 74
0
 40
0
 40
0
 40
0
 40
0
 40
1
 40
1
 40
1
 40
1
 10
732.460858
 20
-136.899733
 30
0.0
 10
737.338981
 20
-139.715958
 30
0.0
 10
739.637417
 20
-145.518800
 30
0.0
 10
738.011023
 20
-150.911537
 30
0.0
  0
SPLINE
  5
1ac
100
AcDbEntity
  8
0
 62
7
100
AcDbSpline
 70
8
 71
3
 72
8
 73
4
 74
0
 40
0
 40
0
 40
0
 40
0
 40
1
 40
1
 40
1
 40
1
 10
738.011023
 20
-150.911537
 30
0.0
 10
729.513929
 20
-179.085958
 30
0.0
 10
714.605187
 20
-204.908762
 30
0.0
 10
694.453992
 20
-226.354565
 30
0.0
  0
SPLINE
  5
1ad
100
AcDbEntity
  8
0
 62
7
100
AcDbSpline
 70
8
 71
3
 72
8
 73
4
 74
0
 40
0
 40
0
 40
0
 40
0
 40
1
 40
1
 40
1
 40
1
 10
694.453992
 20
-226.354565
 30
0.0
 10
690.596896
 20
-230.459310
 30
0.0
 10
684.422315
 20
-231.370271
 30
0.0
 10
679.544192
 20
-228.554046
 30
0.0
  0
LINE
  5
1ae
100
AcDbEntity
  8
0
 62
7
100
AcDbLine
 10
679.544192
 20
-228.554046
 30
0.0
 11
628.279848
 21
-198.956431
 31
0.0
  0
SPLINE
  5
1af
100
AcDbEntity
  8
0
 62
7
100
AcDbSpline
 70
8
 71
3
 72
8
 73
4
 74
0
 40
0
 40
0
 40
0
 40
0
 40
1
 40
1
 40
1
 40
1
 10
628.279848
 20
-198.956431
 30
0.0
 10
617.833040
 20
-192.924990
 30
0.0
 10
614.253756
 20
-179.566706
 30
0.0
 10
620.285198
 20
-169.119898
 30
0.0
  0
LINE
  5
1b0
100
AcDbEntity
  8
0
 62
7
100
AcDbLine
 10
620.285198
 20
-169.119898
 30
0.0
 11
651.359981
 21
-115.296663
 31
0.0
  0
SPLINE
  5
1b1
100
AcDbEntity
  8
0
 62
7
100
AcDbSpline
 70
8
 71
3
 72
8
 73
4
 74
0
 40
0
 40
0
 40
0
 40
0
 40
1
 40
1
 40
1
 40
1
 10
809.800948
 20
-15.645690
 30
0.0
 10
811.887452
 20
-14.819396
 30
0.0
 10
814.226369
 20
-14.914910
 30
0.0
 10
816.238790
 20
-15.908685
 30
0.0
  0
SPLINE
  5
1b2
100
AcDbEntity
  8
0
 62
7
100
AcDbSpline
 70
8
 71
3
 72
8
 73
4
 74
0
 40
0
 40
0
 40
0
 40
0
 40
1
 40
1
 40
1
 40
1
 10
816.238790
 20
-15.908685
 30
0.0
 10
818.250946
 20
-16.902460
 30
0.0
 10
819.748487
 20
-18.701627
 30
0.0
 10
820.361792
 20
-20.860892
 30
0.0
  0
SPLINE
  5
1b3
100
AcDbEntity
  8
0
 62
7
100
AcDbSpline
 70
8
 71
3
 72
8
 73
4
 74
0
 40
0
 40
0
 40
0
 40
0
 40
1
 40
1
 40
1
 40
1
 10
820.361792
 20
-20.860892
 30
0.0
 10
824.703604
 20
-36.182119
 30
0.0
 10
827.709271
 20
-51.851537
 30
0.0
 10
829.341750
 20
-67.692671
 30
0.0
  0
SPLINE
  5
1b4
100
AcDbEntity
  8
0
 62
7
100
AcDbSpline
 70
8
 71
3
 72
8
 73
4
 74
0
 40
0
 40
0
 40
0
 40
0
 40
1
 40
1
 40
1
 40
1
 10
829.341750
 20
-67.692671
 30
0.0
 10
829.741271
 20
-71.570457
 30
0.0
 10
827.264771
 20
-75.164557
 30
0.0
 10
823.499750
 20
-76.173519
 30
0.0
  0
LINE
  5
1b5
100
AcDbEntity
  8
0
 62
7
100
AcDbLine
 10
823.499750
 20
-76.173519
 30
0.0
 11
775.646150
 21
-88.995995
 31
0.0
  0
SPLINE
  5
1b6
100
AcDbEntity
  8
0
 62
7
100
AcDbSpline
 70
8
 71
3
 72
8
 73
4
 74
0
 40
0
 40
0
 40
0
 40
0
 40
1
 40
1
 40
1
 40
1
 10
775.646150
 20
-88.995995
 30
0.0
 10
771.411758
 20
-90.130581
 30
0.0
 10
767.059098
 20
-87.617727
 30
0.0
 10
765.924565
 20
-83.383336
 30
0.0
  0
LINE
  5
1b7
100
AcDbEntity
  8
0
 62
7
100
AcDbLine
 10
765.924565
 20
-83.383336
 30
0.0
 11
744.353615
 21
-2.879544
 31
0.0
  0
SPLINE
  5
1b8
100
AcDbEntity
  8
0
 62
7
100
AcDbSpline
 70
8
 71
3
 72
8
 73
4
 74
0
 40
0
 40
0
 40
0
 40
0
 40
1
 40
1
 40
1
 40
1
 10
744.353615
 20
-2.879544
 30
0.0
 10
743.309833
 20
1.015917
 30
0.0
 10
745.352946
 20
5.074625
 30
0.0
 10
749.103415
 20
6.556821
 30
0.0
  0
SPLINE
  5
1b9
100
AcDbEntity
  8
0
 62
7
100
AcDbSpline
 70
8
 71
3
 72
8
 73
4
 74
0
 40
0
 40
0
 40
0
 40
0
 40
1
 40
1
 40
1
 40
1
 10
749.103415
 20
6.556821
 30
0.0
 10
752.853883
 20
8.039017
 30
0.0
 10
757.119760
 20
6.473477
 30
0.0
 10
759.020792
 20
2.916948
 30
0.0
  0
SPLINE
  5
1ba
100
AcDbEntity
  8
0
 62
7
100
AcDbSpline
 70
8
 71
3
 72
8
 73
4
 74
0
 40
0
 40
0
 40
0
 40
0
 40
1
 40
1
 40
1
 40
1
 10
759.020792
 20
2.916948
 30
0.0
 10
763.735931
 20
-5.903731
 30
0.0
 10
773.981921
 20
-10.220144
 30
0.0
 10
783.587619
 20
-7.432229
 30
0.0
  0
SPLINE
  5
1bb
100
AcDbEntity
  8
0
 62
7
100
AcDbSpline
 70
8
 71
3
 72
8
 73
4
 74
0
 40
0
 40
0
 40
0
 40
0
 40
1
 40
1
 40
1
 40
1
 10
783.587619
 20
-7.432229
 30
0.0
 10
786.830088
 20
-6.491106
 30
0.0
 10
790.312798
 20
-7.703956
 30
0.0
 10
792.269127
 20
-10.455623
 30
0.0
  0
SPLINE
  5
1bc
100
AcDbEntity
  8
0
 62
7
100
AcDbSpline
 70
8
 71
3
 72
8
 73
4
 74
0
 40
0
 40
0
 40
0
 40
0
 40
1
 40
1
 40
1
 40
1
 10
792.269127
 20
-10.455623
 30
0.0
 10
796.221738
 20
-16.015048
 30
0.0
 10
803.459150
 20
-18.157644
 30
0.0
 10
809.800948
 20
-15.645690
 30
0.0
  0
SPLINE
  5
1bd
100
AcDbEntity
  8
0
 62
7
100
AcDbSpline
 70
8
 71
3
 72
8
 73
4
 74
0
 40
0
 40
0
 40
0
 40
0
 40
1
 40
1
 40
1
 40
1
 10
439.630079
 20
91.182477
 30
0.0
 10
442.729938
 20
88.082619
 30
0.0
 10
442.729938
 20
83.056858
 30
0.0
 10
439.630079
 20
79.957000
 30
0.0
  0
LINE
  5
1be
100
AcDbEntity
  8
0
 62
7
100
AcDbLine
 10
439.630079
 20
79.957000
 30
0.0
 11
380.697052
 21
21.024238
 31
0.0
  0
SPLINE
  5
1bf
100
AcDbEntity
  8
0
 62
7
100
AcDbSpline
 70
8
 71
3
 72
8
 73
4
 74
0
 40
0
 40
0
 40
0
 40
0
 40
1
 40
1
 40
1
 40
1
 10
380.697052
 20
21.024238
 30
0.0
 10
377.845638
 20
18.172558
 30
0.0
 10
373.309092
 20
17.912473
 30
0.0
 10
370.150231
 20
20.419400
 30
0.0
  0
SPLINE
  5
1c0
100
AcDbEntity
  8
0
 62
7
100
AcDbSpline
 70
8
 71
3
 72
8
 73
4
 74
0
 40
0
 40
0
 40
0
 40
0
 40
1
 40
1
 40
1
 40
1
 10
370.150231
 20
20.419400
 30
0.0
 10
366.991371
 20
22.926327
 30
0.0
 10
366.214290
 20
27.403342
 30
0.0
 10
368.343656
 20
30.828108
 30
0.0
  0
SPLINE
  5
1c1
100
AcDbEntity
  8
0
 62
7
100
AcDbSpline
 70
8
 71
3
 72
8
 73
4
 74
0
 40
0
 40
0
 40
0
 40
0
 40
1
 40
1
 40
1
 40
1
 10
368.343656
 20
30.828108
 30
0.0
 10
373.625004
 20
39.322027
 30
0.0
 10
372.240175
 20
50.353300
 30
0.0
 10
365.022871
 20
57.278240
 30
0.0
  0
SPLINE
  5
1c2
100
AcDbEntity
  8
0
 62
7
100
AcDbSpline
 70
8
 71
3
 72
8
 73
4
 74
0
 40
0
 40
0
 40
0
 40
0
 40
1
 40
1
 40
1
 40
1
 10
365.022871
 20
57.278240
 30
0.0
 10
362.586588
 20
59.615569
 30
0.0
 10
361.895760
 20
63.238244
 30
0.0
 10
363.300698
 20
66.308469
 30
0.0
  0
SPLINE
  5
1c3
100
AcDbEntity
  8
0
 62
7
100
AcDbSpline
 70
8
 71
3
 72
8
 73
4
 74
0
 40
0
 40
0
 40
0
 40
0
 40
1
 40
1
 40
1
 40
1
 10
363.300698
 20
66.308469
 30
0.0
 10
366.138883
 20
72.511096
 30
0.0
 10
364.375700
 20
79.850108
 30
0.0
 10
359.029529
 20
84.086352
 30
0.0
  0
SPLINE
  5
1c4
100
AcDbEntity
  8
0
 62
7
100
AcDbSpline
 70
8
 71
3
 72
8
 73
4
 74
0
 40
0
 40
0
 40
0
 40
0
 40
1
 40
1
 40
1
 40
1
 10
359.029529
 20
84.086352
 30
0.0
 10
357.270315
 20
85.480177
 30
0.0
 10
356.183671
 20
87.553452
 30
0.0
 10
356.038150
 20
89.792885
 30
0.0
  0
SPLINE
  5
1c5
100
AcDbEntity
  8
0
 62
7
100
AcDbSpline
 70
8
 71
3
 72
8
 73
4
 74
0
 40
0
 40
0
 40
0
 40
0
 40
1
 40
1
 40
1
 40
1
 10
356.038150
 20
89.792885
 30
0.0
 10
355.892629
 20
92.032583
 30
0.0
 10
356.701990
 20
94.228890
 30
0.0
 10
358.265942
 20
95.838615
 30
0.0
  0
SPLINE
  5
1c6
100
AcDbEntity
  8
0
 62
7
100
AcDbSpline
 70
8
 71
3
 72
8
 73
4
 74
0
 40
0
 40
0
 40
0
 40
0
 40
1
 40
1
 40
1
 40
1
 10
358.265942
 20
95.838615
 30
0.0
 10
369.363096
 20
107.260677
 30
0.0
 10
381.430742
 20
117.697696
 30
0.0
 10
394.333148
 20
127.032196
 30
0.0
  0
SPLINE
  5
1c7
100
AcDbEntity
  8
0
 62
7
100
AcDbSpline
 70
8
 71
3
 72
8
 73
4
 74
0
 40
0
 40
0
 40
0
 40
0
 40
1
 40
1
 40
1
 40
1
 10
394.333148
 20
127.032196
 30
0.0
 10
397.491479
 20
129.317402
 30
0.0
 10
401.841758
 20
128.970533
 30
0.0
 10
404.598452
 20
126.214104
 30
0.0
  0
LINE
  5
1c8
100
AcDbEntity
  8
0
 62
7
100
AcDbLine
 10
404.598452
 20
126.214104
 30
0.0
 11
439.630079
 21
91.182477
 31
0.0
  0
SPLINE
  5
1c9
100
AcDbEntity
  8
0
 62
7
100
AcDbSpline
 70
8
 71
3
 72
8
 73
4
 74
0
 40
0
 40
0
 40
0
 40
0
 40
1
 40
1
 40
1
 40
1
 10
541.824228
 20
-305.863444
 30
0.0
 10
545.719556
 20
-306.907225
 30
0.0
 10
548.213121
 20
-310.705848
 30
0.0
 10
547.621486
 20
-314.694971
 30
0.0
  0
SPLINE
  5
1ca
100
AcDbEntity
  8
0
 62
7
100
AcDbSpline
 70
8
 71
3
 72
8
 73
4
 74
0
 40
0
 40
0
 40
0
 40
0
 40
1
 40
1
 40
1
 40
1
 10
547.621486
 20
-314.694971
 30
0.0
 10
547.029825
 20
-318.684094
 30
0.0
 10
543.541056
 20
-321.595569
 30
0.0
 10
539.510499
 20
-321.463806
 30
0.0
  0
SPLINE
  5
1cb
100
AcDbEntity
  8
0
 62
7
100
AcDbSpline
 70
8
 71
3
 72
8
 73
4
 74
0
 40
0
 40
0
 40
0
 40
0
 40
1
 40
1
 40
1
 40
1
 10
539.510499
 20
-321.463806
 30
0.0
 10
529.513879
 20
-321.137046
 30
0.0
 10
520.652904
 20
-327.852171
 30
0.0
 10
518.264510
 20
-337.564760
 30
0.0
  0
SPLINE
  5
1cc
100
AcDbEntity
  8
0
 62
7
100
AcDbSpline
 70
8
 71
3
 72
8
 73
4
 74
0
 40
0
 40
0
 40
0
 40
0
 40
1
 40
1
 40
1
 40
1
 10
518.264510
 20
-337.564760
 30
0.0
 10
517.458325
 20
-340.843212
 30
0.0
 10
514.666442
 20
-343.253037
 30
0.0
 10
511.305175
 20
-343.571331
 30
0.0
  0
SPLINE
  5
1cd
100
AcDbEntity
  8
0
 62
7
100
AcDbSpline
 70
8
 71
3
 72
8
 73
4
 74
0
 40
0
 40
0
 40
0
 40
0
 40
1
 40
1
 40
1
 40
1
 10
511.305175
 20
-343.571331
 30
0.0
 10
504.514379
 20
-344.214798
 30
0.0
 10
499.040150
 20
-349.411215
 30
0.0
 10
498.044523
 20
-356.159412
 30
0.0
  0
SPLINE
  5
1ce
100
AcDbEntity
  8
0
 62
7
100
AcDbSpline
 70
8
 71
3
 72
8
 73
4
 74
0
 40
0
 40
0
 40
0
 40
0
 40
1
 40
1
 40
1
 40
1
 10
498.044523
 20
-356.159412
 30
0.0
 10
497.716969
 20
-358.379531
 30
0.0
 10
496.464960
 20
-360.357292
 30
0.0
 10
494.598060
 20
-361.603479
 30
0.0
  0
SPLINE
  5
1cf
100
AcDbEntity
  8
0
 62
7
100
AcDbSpline
 70
8
 71
3
 72
8
 73
4
 74
0
 40
0
 40
0
 40
0
 40
0
 40
1
 40
1
 40
1
 40
1
 10
494.598060
 20
-361.603479
 30
0.0
 10
492.731425
 20
-362.849667
 30
0.0
 10
490.424523
 20
-363.246542
 30
0.0
 10
488.248590
 20
-362.696208
 30
0.0
  0
SPLINE
  5
1d0
100
AcDbEntity
  8
0
 62
7
100
AcDbSpline
 70
8
 71
3
 72
8
 73
4
 74
0
 40
0
 40
0
 40
0
 40
0
 40
1
 40
1
 40
1
 40
1
 10
488.248590
 20
-362.696208
 30
0.0
 10
472.808300
 20
-358.797308
 30
0.0
 10
457.735781
 20
-353.564908
 30
0.0
 10
443.200367
 20
-347.058540
 30
0.0
  0
SPLINE
  5
1d1
100
AcDbEntity
  8
0
 62
7
100
AcDbSpline
 70
8
 71
3
 72
8
 73
4
 74
0
 40
0
 40
0
 40
0
 40
0
 40
1
 40
1
 40
1
 40
1
 10
443.200367
 20
-347.058540
 30
0.0
 10
439.642250
 20
-345.465748
 30
0.0
 10
437.767412
 20
-341.524779
 30
0.0
 10
438.776533
 20
-337.759229
 30
0.0
  0
LINE
  5
1d2
100
AcDbEntity
  8
0
 62
7
100
AcDbLine
 10
438.776533
 20
-337.759229
 30
0.0
 11
451.599035
 21
-289.905100
 31
0.0
  0
SPLINE
  5
1d3
100
AcDbEntity
  8
0
 62
7
100
AcDbSpline
 70
8
 71
3
 72
8
 73
4
 74
0
 40
0
 40
0
 40
0
 40
0
 40
1
 40
1
 40
1
 40
1
 10
451.599035
 20
-289.905100
 30
0.0
 10
452.733569
 20
-285.670708
 30
0.0
 10
457.085965
 20
-283.157960
 30
0.0
 10
461.320356
 20
-284.292494
 30
0.0
  0
LINE
  5
1d4
100
AcDbEntity
  8
0
 62
7
100
AcDbLine
 10
461.320356
 20
-284.292494
 30
0.0
 11
541.824228
 21
-305.863444
 31
0.0
  0
SPLINE
  5
1d5
100
AcDbEntity
  8
0
 62
7
100
AcDbSpline
 70
8
 71
3
 72
8
 73
4
 74
0
 40
0
 40
0
 40
0
 40
0
 40
1
 40
1
 40
1
 40
1
 10
613.205477
 20
164.346913
 30
0.0
 10
613.533031
 20
166.567031
 30
0.0
 10
614.785040
 20
168.544792
 30
0.0
 10
616.651940
 20
169.790979
 30
0.0
  0
SPLINE
  5
1d6
100
AcDbEntity
  8
0
 62
7
100
AcDbSpline
 70
8
 71
3
 72
8
 73
4
 74
0
 40
0
 40
0
 40
0
 40
0
 40
1
 40
1
 40
1
 40
1
 10
616.651940
 20
169.790979
 30
0.0
 10
618.518575
 20
171.037167
 30
0.0
 10
620.825477
 20
171.434042
 30
0.0
 10
623.001410
 20
170.883708
 30
0.0
  0
SPLINE
  5
1d7
100
AcDbEntity
  8
0
 62
7
100
AcDbSpline
 70
8
 71
3
 72
8
 73
4
 74
0
 40
0
 40
0
 40
0
 40
0
 40
1
 40
1
 40
1
 40
1
 10
623.001410
 20
170.883708
 30
0.0
 10
638.441700
 20
166.984808
 30
0.0
 10
653.514219
 20
161.752408
 30
0.0
 10
668.049633
 20
155.246040
 30
0.0
  0
SPLINE
  5
1d8
100
AcDbEntity
  8
0
 62
7
100
AcDbSpline
 70
8
 71
3
 72
8
 73
4
 74
0
 40
0
 40
0
 40
0
 40
0
 40
1
 40
1
 40
1
 40
1
 10
668.049633
 20
155.246040
 30
0.0
 10
671.607750
 20
153.653248
 30
0.0
 10
673.482588
 20
149.712279
 30
0.0
 10
672.473467
 20
145.946729
 30
0.0
  0
LINE
  5
1d9
100
AcDbEntity
  8
0
 62
7
100
AcDbLine
 10
672.473467
 20
145.946729
 30
0.0
 11
659.650965
 21
98.092600
 31
0.0
  0
SPLINE
  5
1da
100
AcDbEntity
  8
0
 62
7
100
AcDbSpline
 70
8
 71
3
 72
8
 73
4
 74
0
 40
0
 40
0
 40
0
 40
0
 40
1
 40
1
 40
1
 40
1
 10
659.650965
 20
98.092600
 30
0.0
 10
658.516431
 20
93.858208
 30
0.0
 10
654.164035
 20
91.345460
 30
0.0
 10
649.929644
 20
92.479994
 30
0.0
  0
LINE
  5
1db
100
AcDbEntity
  8
0
 62
7
100
AcDbLine
 10
649.929644
 20
92.479994
 30
0.0
 11
569.425772
 21
114.050944
 31
0.0
  0
SPLINE
  5
1dc
100
AcDbEntity
  8
0
 62
7
100
AcDbSpline
 70
8
 71
3
 72
8
 73
4
 74
0
 40
0
 40
0
 40
0
 40
0
 40
1
 40
1
 40
1
 40
1
 10
569.425772
 20
114.050944
 30
0.0
 10
565.530444
 20
115.094725
 30
0.0
 10
563.036879
 20
118.893348
 30
0.0
 10
563.628514
 20
122.882471
 30
0.0
  0
SPLINE
  5
1dd
100
AcDbEntity
  8
0
 62
7
100
AcDbSpline
 70
8
 71
3
 72
8
 73
4
 74
0
 40
0
 40
0
 40
0
 40
0
 40
1
 40
1
 40
1
 40
1
 10
563.628514
 20
122.882471
 30
0.0
 10
564.220175
 20
126.871594
 30
0.0
 10
567.708944
 20
129.783069
 30
0.0
 10
571.739501
 20
129.651306
 30
0.0
  0
SPLINE
  5
1de
100
AcDbEntity
  8
0
 62
7
100
AcDbSpline
 70
8
 71
3
 72
8
 73
4
 74
0
 40
0
 40
0
 40
0
 40
0
 40
1
 40
1
 40
1
 40
1
 10
571.739501
 20
129.651306
 30
0.0
 10
581.736121
 20
129.324546
 30
0.0
 10
590.597096
 20
136.039671
 30
0.0
 10
592.985490
 20
145.752260
 30
0.0
  0
SPLINE
  5
1df
100
AcDbEntity
  8
0
 62
7
100
AcDbSpline
 70
8
 71
3
 72
8
 73
4
 74
0
 40
0
 40
0
 40
0
 40
0
 40
1
 40
1
 40
1
 40
1
 10
592.985490
 20
145.752260
 30
0.0
 10
593.791675
 20
149.030713
 30
0.0
 10
596.583558
 20
151.440538
 30
0.0
 10
599.944825
 20
151.758831
 30
0.0
  0
SPLINE
  5
1e0
100
AcDbEntity
  8
0
 62
7
100
AcDbSpline
 70
8
 71
3
 72
8
 73
4
 74
0
 40
0
 40
0
 40
0
 40
0
 40
1
 40
1
 40
1
 40
1
 10
599.944825
 20
151.758831
 30
0.0
 10
606.735621
 20
152.402298
 30
0.0
 10
612.209850
 20
157.598715
 30
0.0
 10
613.205477
 20
164.346913
 30
0.0
  0
SPLINE
  5
1e1
100
AcDbEntity
  8
0
 62
7
100
AcDbSpline
 70
8
 71
3
 72
8
 73
4
 74
0
 40
0
 40
0
 40
0
 40
0
 40
1
 40
1
 40
1
 40
1
 10
366.896385
 20
-188.932956
 30
0.0
 10
367.940167
 20
-192.828417
 30
0.0
 10
365.897054
 20
-196.887125
 30
0.0
 10
362.146585
 20
-198.369321
 30
0.0
  0
SPLINE
  5
1e2
100
AcDbEntity
  8
0
 62
7
100
AcDbSpline
 70
8
 71
3
 72
8
 73
4
 74
0
 40
0
 40
0
 40
0
 40
0
 40
1
 40
1
 40
1
 40
1
 10
362.146585
 20
-198.369321
 30
0.0
 10
358.396117
 20
-199.851517
 30
0.0
 10
354.130240
 20
-198.285977
 30
0.0
 10
352.229208
 20
-194.729448
 30
0.0
  0
SPLINE
  5
1e3
100
AcDbEntity
  8
0
 62
7
100
AcDbSpline
 70
8
 71
3
 72
8
 73
4
 74
0
 40
0
 40
0
 40
0
 40
0
 40
1
 40
1
 40
1
 40
1
 10
352.229208
 20
-194.729448
 30
0.0
 10
347.514069
 20
-185.908769
 30
0.0
 10
337.268079
 20
-181.592356
 30
0.0
 10
327.662381
 20
-184.380271
 30
0.0
  0
SPLINE
  5
1e4
100
AcDbEntity
  8
0
 62
7
100
AcDbSpline
 70
8
 71
3
 72
8
 73
4
 74
0
 40
0
 40
0
 40
0
 40
0
 40
1
 40
1
 40
1
 40
1
 10
327.662381
 20
-184.380271
 30
0.0
 10
324.419913
 20
-185.321394
 30
0.0
 10
320.937202
 20
-184.108544
 30
0.0
 10
318.980873
 20
-181.356877
 30
0.0
  0
SPLINE
  5
1e5
100
AcDbEntity
  8
0
 62
7
100
AcDbSpline
 70
8
 71
3
 72
8
 73
4
 74
0
 40
0
 40
0
 40
0
 40
0
 40
1
 40
1
 40
1
 40
1
 10
318.980873
 20
-181.356877
 30
0.0
 10
315.028263
 20
-175.797452
 30
0.0
 10
307.790850
 20
-173.654856
 30
0.0
 10
301.449052
 20
-176.166810
 30
0.0
  0
SPLINE
  5
1e6
100
AcDbEntity
  8
0
 62
7
100
AcDbSpline
 70
8
 71
3
 72
8
 73
4
 74
0
 40
0
 40
0
 40
0
 40
0
 40
1
 40
1
 40
1
 40
1
 10
301.449052
 20
-176.166810
 30
0.0
 10
299.362548
 20
-176.993104
 30
0.0
 10
297.023631
 20
-176.897590
 30
0.0
 10
295.011210
 20
-175.903815
 30
0.0
  0
SPLINE
  5
1e7
100
AcDbEntity
  8
0
 62
7
100
AcDbSpline
 70
8
 71
3
 72
8
 73
4
 74
0
 40
0
 40
0
 40
0
 40
0
 40
1
 40
1
 40
1
 40
1
 10
295.011210
 20
-175.903815
 30
0.0
 10
292.999054
 20
-174.910040
 30
0.0
 10
291.501513
 20
-173.110873
 30
0.0
 10
290.888208
 20
-170.951608
 30
0.0
  0
SPLINE
  5
1e8
100
AcDbEntity
  8
0
 62
7
100
AcDbSpline
 70
8
 71
3
 72
8
 73
4
 74
0
 40
0
 40
0
 40
0
 40
0
 40
1
 40
1
 40
1
 40
1
 10
290.888208
 20
-170.951608
 30
0.0
 10
286.546396
 20
-155.630381
 30
0.0
 10
283.540729
 20
-139.960962
 30
0.0
 10
281.908250
 20
-124.119829
 30
0.0
  0
SPLINE
  5
1e9
100
AcDbEntity
  8
0
 62
7
100
AcDbSpline
 70
8
 71
3
 72
8
 73
4
 74
0
 40
0
 40
0
 40
0
 40
0
 40
1
 40
1
 40
1
 40
1
 10
281.908250
 20
-124.119829
 30
0.0
 10
281.508729
 20
-120.242043
 30
0.0
 10
283.985229
 20
-116.647943
 30
0.0
 10
287.750250
 20
-115.638981
 30
0.0
  0
LINE
  5
1ea
100
AcDbEntity
  8
0
 62
7
100
AcDbLine
 10
287.750250
 20
-115.638981
 30
0.0
 11
335.603850
 21
-102.816505
 31
0.0
  0
SPLINE
  5
1eb
100
AcDbEntity
  8
0
 62
7
100
AcDbSpline
 70
8
 71
3
 72
8
 73
4
 74
0
 40
0
 40
0
 40
0
 40
0
 40
1
 40
1
 40
1
 40
1
 10
335.603850
 20
-102.816505
 30
0.0
 10
339.838242
 20
-101.681919
 30
0.0
 10
344.190902
 20
-104.194773
 30
0.0
 10
345.325435
 20
-108.429164
 30
0.0
  0
LINE
  5
1ec
100
AcDbEntity
  8
0
 62
7
100
AcDbLine
 10
345.325435
 20
-108.429164
 30
0.0
 11
366.896385
 21
-188.932956
 31
0.0
  0
SPLINE
  5
1ed
100
AcDbEntity
  8
0
 62
7
100
AcDbSpline
 70
8
 71
3
 72
8
 73
4
 74
0
 40
0
 40
0
 40
0
 40
0
 40
1
 40
1
 40
1
 40
1
 10
752.220471
 20
-275.898852
 30
0.0
 10
753.979685
 20
-277.292677
 30
0.0
 10
755.066329
 20
-279.365952
 30
0.0
 10
755.211850
 20
-281.605385
 30
0.0
  0
SPLINE
  5
1ee
100
AcDbEntity
  8
0
 62
7
100
AcDbSpline
 70
8
 71
3
 72
8
 73
4
 74
0
 40
0
 40
0
 40
0
 40
0
 40
1
 40
1
 40
1
 40
1
 10
755.211850
 20
-281.605385
 30
0.0
 10
755.357371
 20
-283.845083
 30
0.0
 10
754.548010
 20
-286.041390
 30
0.0
 10
752.984058
 20
-287.651115
 30
0.0
  0
SPLINE
  5
1ef
100
AcDbEntity
  8
0
 62
7
100
AcDbSpline
 70
8
 71
3
 72
8
 73
4
 74
0
 40
0
 40
0
 40
0
 40
0
 40
1
 40
1
 40
1
 40
1
 10
752.984058
 20
-287.651115
 30
0.0
 10
741.886904
 20
-299.073177
 30
0.0
 10
729.819258
 20
-309.510196
 30
0.0
 10
716.916852
 20
-318.844696
 30
0.0
  0
SPLINE
  5
1f0
100
AcDbEntity
  8
0
 62
7
100
AcDbSpline
 70
8
 71
3
 72
8
 73
4
 74
0
 40
0
 40
0
 40
0
 40
0
 40
1
 40
1
 40
1
 40
1
 10
716.916852
 20
-318.844696
 30
0.0
 10
713.758521
 20
-321.129902
 30
0.0
 10
709.408242
 20
-320.783033
 30
0.0
 10
706.651548
 20
-318.026604
 30
0.0
  0
LINE
  5
1f1
100
AcDbEntity
  8
0
 62
7
100
AcDbLine
 10
706.651548
 20
-318.026604
 30
0.0
 11
671.619921
 21
-282.994977
 31
0.0
  0
SPLINE
  5
1f2
100
AcDbEntity
  8
0
 62
7
100
AcDbSpline
 70
8
 71
3
 72
8
 73
4
 74
0
 40
0
 40
0
 40
0
 40
0
 40
1
 40
1
 40
1
 40
1
 10
671.619921
 20
-282.994977
 30
0.0
 10
668.520063
 20
-279.895119
 30
0.0
 10
668.520063
 20
-274.869358
 30
0.0
 10
671.619921
 20
-271.769500
 30
0.0
  0
LINE
  5
1f3
100
AcDbEntity
  8
0
 62
7
100
AcDbLine
 10
671.619921
 20
-271.769500
 30
0.0
 11
730.552948
 21
-212.836737
 31
0.0
  0
SPLINE
  5
1f4
100
AcDbEntity
  8
0
 62
7
100
AcDbSpline
 70
8
 71
3
 72
8
 73
4
 74
0
 40
0
 40
0
 40
0
 40
0
 40
1
 40
1
 40
1
 40
1
 10
730.552948
 20
-212.836737
 30
0.0
 10
733.404363
 20
-209.985058
 30
0.0
 10
737.940908
 20
-209.724973
 30
0.0
 10
741.099769
 20
-212.231900
 30
0.0
  0
SPLINE
  5
1f5
100
AcDbEntity
  8
0
 62
7
100
AcDbSpline
 70
8
 71
3
 72
8
 73
4
 74
0
 40
0
 40
0
 40
0
 40
0
 40
1
 40
1
 40
1
 40
1
 10
741.099769
 20
-212.231900
 30
0.0
 10
744.258629
 20
-214.738827
 30
0.0
 10
745.035710
 20
-219.215842
 30
0.0
 10
742.906344
 20
-222.640608
 30
0.0
  0
SPLINE
  5
1f6
100
AcDbEntity
  8
0
 62
7
100
AcDbSpline
 70
8
 71
3
 72
8
 73
4
 74
0
 40
0
 40
0
 40
0
 40
0
 40
1
 40
1
 40
1
 40
1
 10
742.906344
 20
-222.640608
 30
0.0
 10
737.624996
 20
-231.134527
 30
0.0
 10
739.009825
 20
-242.165800
 30
0.0
 10
746.227129
 20
-249.090740
 30
0.0
  0
SPLINE
  5
1f7
100
AcDbEntity
  8
0
 62
7
100
AcDbSpline
 70
8
 71
3
 72
8
 73
4
 74
0
 40
0
 40
0
 40
0
 40
0
 40
1
 40
1
 40
1
 40
1
 10
746.227129
 20
-249.090740
 30
0.0
 10
748.663413
 20
-251.428069
 30
0.0
 10
749.354240
 20
-255.050744
 30
0.0
 10
747.949302
 20
-258.120969
 30
0.0
  0
SPLINE
  5
1f8
100
AcDbEntity
  8
0
 62
7
100
AcDbSpline
 70
8
 71
3
 72
8
 73
4
 74
0
 40
0
 40
0
 40
0
 40
0
 40
1
 40
1
 40
1
 40
1
 10
747.949302
 20
-258.120969
 30
0.0
 10
745.111117
 20
-264.323596
 30
0.0
 10
746.874300
 20
-271.662608
 30
0.0
 10
752.220471
 20
-275.898852
 30
0.0
  0
SPLINE
  5
1f9
100
AcDbEntity
  8
0
 62
7
100
AcDbSpline
 70
8
 71
3
 72
8
 73
4
 74
0
 40
0
 40
0
 40
0
 40
0
 40
1
 40
1
 40
1
 40
1
 10
439.630079
 20
-271.769500
 30
0.0
 10
442.729938
 20
-274.869358
 30
0.0
 10
442.729938
 20
-279.895119
 30
0.0
 10
439.630079
 20
-282.994977
 30
0.0
  0
LINE
  5
1fa
100
AcDbEntity
  8
0
 62
7
100
AcDbLine
 10
439.630079
 20
-282.994977
 30
0.0
 11
404.598452
 21
-318.026604
 31
0.0
  0
SPLINE
  5
1fb
100
AcDbEntity
  8
0
 62
7
100
AcDbSpline
 70
8
 71
3
 72
8
 73
4
 74
0
 40
0
 40
0
 40
0
 40
0
 40
1
 40
1
 40
1
 40
1
 10
404.598452
 20
-318.026604
 30
0.0
 10
401.841758
 20
-320.783033
 30
0.0
 10
397.491479
 20
-321.129902
 30
0.0
 10
394.333148
 20
-318.844696
 30
0.0
  0
SPLINE
  5
1fc
100
AcDbEntity
  8
0
 62
7
100
AcDbSpline
 70
8
 71
3
 72
8
 73
4
 74
0
 40
0
 40
0
 40
0
 40
0
 40
1
 40
1
 40
1
 40
1
 10
394.333148
 20
-318.844696
 30
0.0
 10
381.430742
 20
-309.510196
 30
0.0
 10
369.363096
 20
-299.073177
 30
0.0
 10
358.265942
 20
-287.651115
 30
0.0
  0
SPLINE
  5
1fd
100
AcDbEntity
  8
0
 62
7
100
AcDbSpline
 70
8
 71
3
 72
8
 73
4
 74
0
 40
0
 40
0
 40
0
 40
0
 40
1
 40
1
 40
1
 40
1
 10
358.265942
 20
-287.651115
 30
0.0
 10
356.701990
 20
-286.041390
 30
0.0
 10
355.892629
 20
-283.845083
 30
0.0
 10
356.038150
 20
-281.605385
 30
0.0
  0
SPLINE
  5
1fe
100
AcDbEntity
  8
0
 62
7
100
AcDbSpline
 70
8
 71
3
 72
8
 73
4
 74
0
 40
0
 40
0
 40
0
 40
0
 40
1
 40
1
 40
1
 40
1
 10
356.038150
 20
-281.605385
 30
0.0
 10
356.183671
 20
-279.365952
 30
0.0
 10
357.270315
 20
-277.292677
 30
0.0
 10
359.029529
 20
-275.898852
 30
0.0
  0
SPLINE
  5
1ff
100
AcDbEntity
  8
0
 62
7
100
AcDbSpline
 70
8
 71
3
 72
8
 73
4
 74
0
 40
0
 40
0
 40
0
 40
0
 40
1
 40
1
 40
1
 40
1
 10
359.029529
 20
-275.898852
 30
0.0
 10
364.375700
 20
-271.662608
 30
0.0
 10
366.138883
 20
-264.323596
 30
0.0
 10
363.300698
 20
-258.120969
 30
0.0
  0
SPLINE
  5
200
100
AcDbEntity
  8
0
 62
7
100
AcDbSpline
 70
8
 71
3
 72
8
 73
4
 74
0
 40
0
 40
0
 40
0
 40
0
 40
1
 40
1
 40
1
 40
1
 10
363.300698
 20
-258.120969
 30
0.0
 10
361.895760
 20
-255.050744
 30
0.0
 10
362.586588
 20
-251.428069
 30
0.0
 10
365.022871
 20
-249.090740
 30
0.0
  0
SPLINE
  5
201
100
AcDbEntity
  8
0
 62
7
100
AcDbSpline
 70
8
 71
3
 72
8
 73
4
 74
0
 40
0
 40
0
 40
0
 40
0
 40
1
 40
1
 40
1
 40
1
 10
365.022871
 20
-249.090740
 30
0.0
 10
372.240175
 20
-242.165800
 30
0.0
 10
373.625004
 20
-231.134527
 30
0.0
 10
368.343656
 20
-222.640608
 30
0.0
  0
SPLINE
  5
202
100
AcDbEntity
  8
0
 62
7
100
AcDbSpline
 70
8
 71
3
 72
8
 73
4
 74
0
 40
0
 40
0
 40
0
 40
0
 40
1
 40
1
 40
1
 40
1
 10
368.343656
 20
-222.640608
 30
0.0
 10
366.214290
 20
-219.215842
 30
0.0
 10
366.991371
 20
-214.738827
 30
0.0
 10
370.150231
 20
-212.231900
 30
0.0
  0
SPLINE
  5
203
100
AcDbEntity
  8
0
 62
7
100
AcDbSpline
 70
8
 71
3
 72
8
 73
4
 74
0
 40
0
 40
0
 40
0
 40
0
 40
1
 40
1
 40
1
 40
1
 10
370.150231
 20
-212.231900
 30
0.0
 10
373.309092
 20
-209.724973
 30
0.0
 10
377.845638
 20
-209.985058
 30
0.0
 10
380.697052
 20
-212.836737
 30
0.0
  0
LINE
  5
204
100
AcDbEntity
  8
0
 62
7
100
AcDbLine
 10
380.697052
 20
-212.836737
 30
0.0
 11
439.630079
 21
-271.769500
 31
0.0
  0
SPLINE
  5
205
100
AcDbEntity
  8
0
 62
7
100
AcDbSpline
 70
8
 71
3
 72
8
 73
4
 74
0
 40
0
 40
0
 40
0
 40
0
 40
1
 40
1
 40
1
 40
1
 10
765.924565
 20
-108.429164
 30
0.0
 10
767.059098
 20
-104.194773
 30
0.0
 10
771.411758
 20
-101.681919
 30
0.0
 10
775.646150
 20
-102.816505
 30
0.0
  0
LINE
  5
206
100
AcDbEntity
  8
0
 62
7
100
AcDbLine
 10
775.646150
 20
-102.816505
 30
0.0
 11
823.499750
 21
-115.638981
 31
0.0
  0
SPLINE
  5
207
100
AcDbEntity
  8
0
 62
7
100
AcDbSpline
 70
8
 71
3
 72
8
 73
4
 74
0
 40
0
 40
0
 40
0
 40
0
 40
1
 40
1
 40
1
 40
1
 10
823.499750
 20
-115.638981
 30
0.0
 10
827.264771
 20
-116.647943
 30
0.0
 10
829.741271
 20
-120.242043
 30
0.0
 10
829.341750
 20
-124.119829
 30
0.0
  0
SPLINE
  5
208
100
AcDbEntity
  8
0
 62
7
100
AcDbSpline
 70
8
 71
3
 72
8
 73
4
 74
0
 40
0
 40
0
 40
0
 40
0
 40
1
 40
1
 40
1
 40
1
 10
829.341750
 20
-124.119829
 30
0.0
 10
827.709271
 20
-139.960962
 30
0.0
 10
824.703604
 20
-155.630381
 30
0.0
 10
820.361792
 20
-170.951608
 30
0.0
  0
SPLINE
  5
209
100
AcDbEntity
  8
0
 62
7
100
AcDbSpline
 70
8
 71
3
 72
8
 73
4
 74
0
 40
0
 40
0
 40
0
 40
0
 40
1
 40
1
 40
1
 40
1
 10
820.361792
 20
-170.951608
 30
0.0
 10
819.748487
 20
-173.110873
 30
0.0
 10
818.250946
 20
-174.910040
 30
0.0
 10
816.238790
 20
-175.903815
 30
0.0
  0
SPLINE
  5
20a
100
AcDbEntity
  8
0
 62
7
100
AcDbSpline
 70
8
 71
3
 72
8
 73
4
 74
0
 40
0
 40
0
 40
0
 40
0
 40
1
 40
1
 40
1
 40
1
 10
816.238790
 20
-175.903815
 30
0.0
 10
814.226369
 20
-176.897590
 30
0.0
 10
811.887452
 20
-176.993104
 30
0.0
 10
809.800948
 20
-176.166810
 30
0.0
  0
SPLINE
  5
20b
100
AcDbEntity
  8
0
 62
7
100
AcDbSpline
 70
8
 71
3
 72
8
 73
4
 74
0
 40
0
 40
0
 40
0
 40
0
 40
1
 40
1
 40
1
 40
1
 10
809.800948
 20
-176.166810
 30
0.0
 10
803.459150
 20
-173.654856
 30
0.0
 10
796.221738
 20
-175.797452
 30
0.0
 10
792.269127
 20
-181.356877
 30
0.0
  0
SPLINE
  5
20c
100
AcDbEntity
  8
0
 62
7
100
AcDbSpline
 70
8
 71
3
 72
8
 73
4
 74
0
 40
0
 40
0
 40
0
 40
0
 40
1
 40
1
 40
1
 40
1
 10
792.269127
 20
-181.356877
 30
0.0
 10
790.312798
 20
-184.108544
 30
0.0
 10
786.830087
 20
-185.321394
 30
0.0
 10
783.587619
 20
-184.380271
 30
0.0
  0
SPLINE
  5
20d
100
AcDbEntity
  8
0
 62
7
100
AcDbSpline
 70
8
 71
3
 72
8
 73
4
 74
0
 40
0
 40
0
 40
0
 40
0
 40
1
 40
1
 40
1
 40
1
 10
783.587619
 20
-184.380271
 30
0.0
 10
773.981921
 20
-181.592356
 30
0.0
 10
763.735931
 20
-185.908769
 30
0.0
 10
759.020792
 20
-194.729448
 30
0.0
  0
SPLINE
  5
20e
100
AcDbEntity
  8
0
 62
7
100
AcDbSpline
 70
8
 71
3
 72
8
 73
4
 74
0
 40
0
 40
0
 40
0
 40
0
 40
1
 40
1
 40
1
 40
1
 10
759.020792
 20
-194.729448
 30
0.0
 10
757.119760
 20
-198.285977
 30
0.0
 10
752.853883
 20
-199.851517
 30
0.0
 10
749.103415
 20
-198.369321
 30
0.0
  0
SPLINE
  5
20f
100
AcDbEntity
  8
0
 62
7
100
AcDbSpline
 70
8
 71
3
 72
8
 73
4
 74
0
 40
0
 40
0
 40
0
 40
0
 40
1
 40
1
 40
1
 40
1
 10
749.103415
 20
-198.369321
 30
0.0
 10
745.352946
 20
-196.887125
 30
0.0
 10
743.309833
 20
-192.828417
 30
0.0
 10
744.353615
 20
-188.932956
 30
0.0
  0
LINE
  5
210
100
AcDbEntity
  8
0
 62
7
100
AcDbLine
 10
744.353615
 20
-188.932956
 30
0.0
 11
765.924565
 21
-108.429164
 31
0.0
  0
SPLINE
  5
211
100
AcDbEntity
  8
0
 62
7
100
AcDbSpline
 70
8
 71
3
 72
8
 73
4
 74
0
 40
0
 40
0
 40
0
 40
0
 40
1
 40
1
 40
1
 40
1
 10
649.929644
 20
-284.292494
 30
0.0
 10
654.164035
 20
-283.157960
 30
0.0
 10
658.516431
 20
-285.670708
 30
0.0
 10
659.650965
 20
-289.905100
 30
0.0
  0
LINE
  5
212
100
AcDbEntity
  8
0
 62
7
100
AcDbLine
 10
659.650965
 20
-289.905100
 30
0.0
 11
672.473467
 21
-337.759229
 31
0.0
  0
SPLINE
  5
213
100
AcDbEntity
  8
0
 62
7
100
AcDbSpline
 70
8
 71
3
 72
8
 73
4
 74
0
 40
0
 40
0
 40
0
 40
0
 40
1
 40
1
 40
1
 40
1
 10
672.473467
 20
-337.759229
 30
0.0
 10
673.482588
 20
-341.524779
 30
0.0
 10
671.607750
 20
-345.465748
 30
0.0
 10
668.049633
 20
-347.058540
 30
0.0
  0
SPLINE
  5
214
100
AcDbEntity
  8
0
 62
7
100
AcDbSpline
 70
8
 71
3
 72
8
 73
4
 74
0
 40
0
 40
0
 40
0
 40
0
 40
1
 40
1
 40
1
 40
1
 10
668.049633
 20
-347.058540
 30
0.0
 10
653.514219
 20
-353.564908
 30
0.0
 10
638.441700
 20
-358.797308
 30
0.0
 10
623.001410
 20
-362.696208
 30
0.0
  0
SPLINE
  5
215
100
AcDbEntity
  8
0
 62
7
100
AcDbSpline
 70
8
 71
3
 72
8
 73
4
 74
0
 40
0
 40
0
 40
0
 40
0
 40
1
 40
1
 40
1
 40
1
 10
623.001410
 20
-362.696208
 30
0.0
 10
620.825477
 20
-363.246542
 30
0.0
 10
618.518575
 20
-362.849667
 30
0.0
 10
616.651940
 20
-361.603479
 30
0.0
  0
SPLINE
  5
216
100
AcDbEntity
  8
0
 62
7
100
AcDbSpline
 70
8
 71
3
 72
8
 73
4
 74
0
 40
0
 40
0
 40
0
 40
0
 40
1
 40
1
 40
1
 40
1
 10
616.651940
 20
-361.603479
 30
0.0
 10
614.785040
 20
-360.357292
 30
0.0
 10
613.533031
 20
-358.379531
 30
0.0
 10
613.205477
 20
-356.159412
 30
0.0
  0
SPLINE
  5
217
100
AcDbEntity
  8
0
 62
7
100
AcDbSpline
 70
8
 71
3
 72
8
 73
4
 74
0
 40
0
 40
0
 40
0
 40
0
 40
1
 40
1
 40
1
 40
1
 10
613.205477
 20
-356.159412
 30
0.0
 10
612.209850
 20
-349.411215
 30
0.0
 10
606.735621
 20
-344.214798
 30
0.0
 10
599.944825
 20
-343.571331
 30
0.0
  0
SPLINE
  5
218
100
AcDbEntity
  8
0
 62
7
100
AcDbSpline
 70
8
 71
3
 72
8
 73
4
 74
0
 40
0
 40
0
 40
0
 40
0
 40
1
 40
1
 40
1
 40
1
 10
599.944825
 20
-343.571331
 30
0.0
 10
596.583558
 20
-343.253037
 30
0.0
 10
593.791675
 20
-340.843212
 30
0.0
 10
592.985490
 20
-337.564760
 30
0.0
  0
SPLINE
  5
219
100
AcDbEntity
  8
0
 62
7
100
AcDbSpline
 70
8
 71
3
 72
8
 73
4
 74
0
 40
0
 40
0
 40
0
 40
0
 40
1
 40
1
 40
1
 40
1
 10
592.985490
 20
-337.564760
 30
0.0
 10
590.597096
 20
-327.852171
 30
0.0
 10
581.736121
 20
-321.137046
 30
0.0
 10
571.739501
 20
-321.463806
 30
0.0
  0
SPLINE
  5
21a
100
AcDbEntity
  8
0
 62
7
100
AcDbSpline
 70
8
 71
3
 72
8
 73
4
 74
0
 40
0
 40
0
 40
0
 40
0
 40
1
 40
1
 40
1
 40
1
 10
571.739501
 20
-321.463806
 30
0.0
 10
567.708944
 20
-321.595569
 30
0.0
 10
564.220175
 20
-318.684094
 30
0.0
 10
563.628514
 20
-314.694971
 30
0.0
  0
SPLINE
  5
21b
100
AcDbEntity
  8
0
 62
7
100
AcDbSpline
 70
8
 71
3
 72
8
 73
4
 74
0
 40
0
 40
0
 40
0
 40
0
 40
1
 40
1
 40
1
 40
1
 10
563.628514
 20
-314.694971
 30
0.0
 10
563.036879
 20
-310.705848
 30
0.0
 10
565.530444
 20
-306.907225
 30
0.0
 10
569.425773
 20
-305.863444
 30
0.0
  0
LINE
  5
21c
100
AcDbEntity
  8
0
 62
7
100
AcDbLine
 10
569.425773
 20
-305.863444
 30
0.0
 11
649.929644
 21
-284.292494
 31
0.0
  0
SPLINE
  5
21d
100
AcDbEntity
  8
0
 62
7
100
AcDbSpline
 70
8
 71
3
 72
8
 73
4
 74
0
 40
0
 40
0
 40
0
 40
0
 40
1
 40
1
 40
1
 40
1
 10
671.619921
 20
79.957000
 30
0.0
 10
668.520062
 20
83.056858
 30
0.0
 10
668.520062
 20
88.082619
 30
0.0
 10
671.619921
 20
91.182477
 30
0.0
  0
LINE
  5
21e
100
AcDbEntity
  8
0
 62
7
100
AcDbLine
 10
671.619921
 20
91.182477
 30
0.0
 11
706.651548
 21
126.214104
 31
0.0
  0
SPLINE
  5
21f
100
AcDbEntity
  8
0
 62
7
100
AcDbSpline
 70
8
 71
3
 72
8
 73
4
 74
0
 40
0
 40
0
 40
0
 40
0
 40
1
 40
1
 40
1
 40
1
 10
706.651548
 20
126.214104
 30
0.0
 10
709.408242
 20
128.970533
 30
0.0
 10
713.758521
 20
129.317402
 30
0.0
 10
716.916852
 20
127.032196
 30
0.0
  0
SPLINE
  5
220
100
AcDbEntity
  8
0
 62
7
100
AcDbSpline
 70
8
 71
3
 72
8
 73
4
 74
0
 40
0
 40
0
 40
0
 40
0
 40
1
 40
1
 40
1
 40
1
 10
716.916852
 20
127.032196
 30
0.0
 10
729.819258
 20
117.697696
 30
0.0
 10
741.886904
 20
107.260677
 30
0.0
 10
752.984058
 20
95.838615
 30
0.0
  0
SPLINE
  5
221
100
AcDbEntity
  8
0
 62
7
100
AcDbSpline
 70
8
 71
3
 72
8
 73
4
 74
0
 40
0
 40
0
 40
0
 40
0
 40
1
 40
1
 40
1
 40
1
 10
752.984058
 20
95.838615
 30
0.0
 10
754.548010
 20
94.228890
 30
0.0
 10
755.357371
 20
92.032583
 30
0.0
 10
755.211850
 20
89.792885
 30
0.0
  0
SPLINE
  5
222
100
AcDbEntity
  8
0
 62
7
100
AcDbSpline
 70
8
 71
3
 72
8
 73
4
 74
0
 40
0
 40
0
 40
0
 40
0
 40
1
 40
1
 40
1
 40
1
 10
755.211850
 20
89.792885
 30
0.0
 10
755.066329
 20
87.553452
 30
0.0
 10
753.979685
 20
85.480177
 30
0.0
 10
752.220471
 20
84.086352
 30
0.0
  0
SPLINE
  5
223
100
AcDbEntity
  8
0
 62
7
100
AcDbSpline
 70
8
 71
3
 72
8
 73
4
 74
0
 40
0
 40
0
 40
0
 40
0
 40
1
 40
1
 40
1
 40
1
 10
752.220471
 20
84.086352
 30
0.0
 10
746.874300
 20
79.850108
 30
0.0
 10
745.111117
 20
72.511096
 30
0.0
 10
747.949302
 20
66.308469
 30
0.0
  0
SPLINE
  5
224
100
AcDbEntity
  8
0
 62
7
100
AcDbSpline
 70
8
 71
3
 72
8
 73
4
 74
0
 40
0
 40
0
 40
0
 40
0
 40
1
 40
1
 40
1
 40
1
 10
747.949302
 20
66.308469
 30
0.0
 10
749.354240
 20
63.238244
 30
0.0
 10
748.663413
 20
59.615569
 30
0.0
 10
746.227129
 20
57.278240
 30
0.0
  0
SPLINE
  5
225
100
AcDbEntity
  8
0
 62
7
100
AcDbSpline
 70
8
 71
3
 72
8
 73
4
 74
0
 40
0
 40
0
 40
0
 40
0
 40
1
 40
1
 40
1
 40
1
 10
746.227129
 20
57.278240
 30
0.0
 10
739.009825
 20
50.353300
 30
0.0
 10
737.624996
 20
39.322027
 30
0.0
 10
742.906344
 20
30.828108
 30
0.0
  0
SPLINE
  5
226
100
AcDbEntity
  8
0
 62
7
100
AcDbSpline
 70
8
 71
3
 72
8
 73
4
 74
0
 40
0
 40
0
 40
0
 40
0
 40
1
 40
1
 40
1
 40
1
 10
742.906344
 20
30.828108
 30
0.0
 10
745.035710
 20
27.403342
 30
0.0
 10
744.258629
 20
22.926327
 30
0.0
 10
741.099769
 20
20.419400
 30
0.0
  0
SPLINE
  5
227
100
AcDbEntity
  8
0
 62
7
100
AcDbSpline
 70
8
 71
3
 72
8
 73
4
 74
0
 40
0
 40
0
 40
0
 40
0
 40
1
 40
1
 40
1
 40
1
 10
741.099769
 20
20.419400
 30
0.0
 10
737.940908
 20
17.912473
 30
0.0
 10
733.404363
 20
18.172558
 30
0.0
 10
730.552948
 20
21.024238
 30
0.0
  0
LINE
  5
228
100
AcDbEntity
  8
0
 62
7
100
AcDbLine
 10
730.552948
 20
21.024238
 30
0.0
 11
671.619921
 21
79.957000
 31
0.0
  0
SPLINE
  5
229
100
AcDbEntity
  8
0
 62
7
100
AcDbSpline
 70
8
 71
3
 72
8
 73
4
 74
0
 40
0
 40
0
 40
0
 40
0
 40
1
 40
1
 40
1
 40
1
 10
539.510499
 20
129.651306
 30
0.0
 10
543.541056
 20
129.783069
 30
0.0
 10
547.029825
 20
126.871594
 30
0.0
 10
547.621486
 20
122.882471
 30
0.0
  0
SPLINE
  5
22a
100
AcDbEntity
  8
0
 62
7
100
AcDbSpline
 70
8
 71
3
 72
8
 73
4
 74
0
 40
0
 40
0
 40
0
 40
0
 40
1
 40
1
 40
1
 40
1
 10
547.621486
 20
122.882471
 30
0.0
 10
548.213121
 20
118.893348
 30
0.0
 10
545.719556
 20
115.094725
 30
0.0
 10
541.824228
 20
114.050944
 30
0.0
  0
LINE
  5
22b
100
AcDbEntity
  8
0
 62
7
100
AcDbLine
 10
541.824228
 20
114.050944
 30
0.0
 11
461.320356
 21
92.479994
 31
0.0
  0
SPLINE
  5
22c
100
AcDbEntity
  8
0
 62
7
100
AcDbSpline
 70
8
 71
3
 72
8
 73
4
 74
0
 40
0
 40
0
 40
0
 40
0
 40
1
 40
1
 40
1
 40
1
 10
461.320356
 20
92.479994
 30
0.0
 10
457.085965
 20
91.345460
 30
0.0
 10
452.733569
 20
93.858208
 30
0.0
 10
451.599035
 20
98.092600
 30
0.0
  0
LINE
  5
22d
100
AcDbEntity
  8
0
 62
7
100
AcDbLine
 10
451.599035
 20
98.092600
 30
0.0
 11
438.776533
 21
145.946729
 31
0.0
  0
SPLINE
  5
22e
100
AcDbEntity
  8
0
 62
7
100
AcDbSpline
 70
8
 71
3
 72
8
 73
4
 74
0
 40
0
 40
0
 40
0
 40
0
 40
1
 40
1
 40
1
 40
1
 10
438.776533
 20
145.946729
 30
0.0
 10
437.767412
 20
149.712279
 30
0.0
 10
439.642250
 20
153.653248
 30
0.0
 10
443.200367
 20
155.246040
 30
0.0
  0
SPLINE
  5
22f
100
AcDbEntity
  8
0
 62
7
100
AcDbSpline
 70
8
 71
3
 72
8
 73
4
 74
0
 40
0
 40
0
 40
0
 40
0
 40
1
 40
1
 40
1
 40
1
 10
443.200367
 20
155.246040
 30
0.0
 10
457.735781
 20
161.752408
 30
0.0
 10
472.808300
 20
166.984808
 30
0.0
 10
488.248590
 20
170.883708
 30
0.0
  0
SPLINE
  5
230
100
AcDbEntity
  8
0
 62
7
100
AcDbSpline
 70
8
 71
3
 72
8
 73
4
 74
0
 40
0
 40
0
 40
0
 40
0
 40
1
 40
1
 40
1
 40
1
 10
488.248590
 20
170.883708
 30
0.0
 10
490.424523
 20
171.434042
 30
0.0
 10
492.731425
 20
171.037167
 30
0.0
 10
494.598060
 20
169.790979
 30
0.0
  0
SPLINE
  5
231
100
AcDbEntity
  8
0
 62
7
100
AcDbSpline
 70
8
 71
3
 72
8
 73
4
 74
0
 40
0
 40
0
 40
0
 40
0
 40
1
 40
1
 40
1
 40
1
 10
494.598060
 20
169.790979
 30
0.0
 10
496.464960
 20
168.544792
 30
0.0
 10
497.716969
 20
166.567031
 30
0.0
 10
498.044523
 20
164.346913
 30
0.0
  0
SPLINE
  5
232
100
AcDbEntity
  8
0
 62
7
100
AcDbSpline
 70
8
 71
3
 72
8
 73
4
 74
0
 40
0
 40
0
 40
0
 40
0
 40
1
 40
1
 40
1
 40
1
 10
498.044523
 20
164.346913
 30
0.0
 10
499.040150
 20
157.598715
 30
0.0
 10
504.514379
 20
152.402298
 30
0.0
 10
511.305175
 20
151.758831
 30
0.0
  0
SPLINE
  5
233
100
AcDbEntity
  8
0
 62
7
100
AcDbSpline
 70
8
 71
3
 72
8
 73
4
 74
0
 40
0
 40
0
 40
0
 40
0
 40
1
 40
1
 40
1
 40
1
 10
511.305175
 20
151.758831
 30
0.0
 10
514.666442
 20
151.440538
 30
0.0
 10
517.458325
 20
149.030713
 30
0.0
 10
518.264510
 20
145.752260
 30
0.0
  0
SPLINE
  5
234
100
AcDbEntity
  8
0
 62
7
100
AcDbSpline
 70
8
 71
3
 72
8
 73
4
 74
0
 40
0
 40
0
 40
0
 40
0
 40
1
 40
1
 40
1
 40
1
 10
518.264510
 20
145.752260
 30
0.0
 10
520.652904
 20
136.039671
 30
0.0
 10
529.513879
 20
129.324546
 30
0.0
 10
539.510499
 20
129.651306
 30
0.0
  0
SPLINE
  5
235
100
AcDbEntity
  8
0
 62
7
100
AcDbSpline
 70
8
 71
3
 72
8
 73
4
 74
0
 40
0
 40
0
 40
0
 40
0
 40
1
 40
1
 40
1
 40
1
 10
352.229208
 20
2.916948
 30
0.0
 10
354.130240
 20
6.473477
 30
0.0
 10
358.396117
 20
8.039017
 30
0.0
 10
362.146585
 20
6.556821
 30
0.0
  0
SPLINE
  5
236
100
AcDbEntity
  8
0
 62
7
100
AcDbSpline
 70
8
 71
3
 72
8
 73
4
 74
0
 40
0
 40
0
 40
0
 40
0
 40
1
 40
1
 40
1
 40
1
 10
362.146585
 20
6.556821
 30
0.0
 10
365.897054
 20
5.074625
 30
0.0
 10
367.940167
 20
1.015917
 30
0.0
 10
366.896385
 20
-2.879544
 30
0.0
  0
LINE
  5
237
100
AcDbEntity
  8
0
 62
7
100
AcDbLine
 10
366.896385
 20
-2.879544
 30
0.0
 11
345.325435
 21
-83.383336
 31
0.0
  0
SPLINE
  5
238
100
AcDbEntity
  8
0
 62
7
100
AcDbSpline
 70
8
 71
3
 72
8
 73
4
 74
0
 40
0
 40
0
 40
0
 40
0
 40
1
 40
1
 40
1
 40
1
 10
345.325435
 20
-83.383336
 30
0.0
 10
344.190902
 20
-87.617727
 30
0.0
 10
339.838242
 20
-90.130581
 30
0.0
 10
335.603850
 20
-88.995995
 30
0.0
  0
LINE
  5
239
100
AcDbEntity
  8
0
 62
7
100
AcDbLine
 10
335.603850
 20
-88.995995
 30
0.0
 11
287.750250
 21
-76.173519
 31
0.0
  0
SPLINE
  5
23a
100
AcDbEntity
  8
0
 62
7
100
AcDbSpline
 70
8
 71
3
 72
8
 73
4
 74
0
 40
0
 40
0
 40
0
 40
0
 40
1
 40
1
 40
1
 40
1
 10
287.750250
 20
-76.173519
 30
0.0
 10
283.985229
 20
-75.164557
 30
0.0
 10
281.508729
 20
-71.570457
 30
0.0
 10
281.908250
 20
-67.692671
 30
0.0
  0
SPLINE
  5
23b
100
AcDbEntity
  8
0
 62
7
100
AcDbSpline
 70
8
 71
3
 72
8
 73
4
 74
0
 40
0
 40
0
 40
0
 40
0
 40
1
 40
1
 40
1
 40
1
 10
281.908250
 20
-67.692671
 30
0.0
 10
283.540729
 20
-51.851537
 30
0.0
 10
286.546396
 20
-36.182119
 30
0.0
 10
290.888208
 20
-20.860892
 30
0.0
  0
SPLINE
  5
23c
100
AcDbEntity
  8
0
 62
7
100
AcDbSpline
 70
8
 71
3
 72
8
 73
4
 74
0
 40
0
 40
0
 40
0
 40
0
 40
1
 40
1
 40
1
 40
1
 10
290.888208
 20
-20.860892
 30
0.0
 10
291.501513
 20
-18.701627
 30
0.0
 10
292.999054
 20
-16.902460
 30
0.0
 10
295.011210
 20
-15.908685
 30
0.0
  0
SPLINE
  5
23d
100
AcDbEntity
  8
0
 62
7
100
AcDbSpline
 70
8
 71
3
 72
8
 73
4
 74
0
 40
0
 40
0
 40
0
 40
0
 40
1
 40
1
 40
1
 40
1
 10
295.011210
 20
-15.908685
 30
0.0
 10
297.023631
 20
-14.914910
 30
0.0
 10
299.362548
 20
-14.819396
 30
0.0
 10
301.449052
 20
-15.645690
 30
0.0
  0
SPLINE
  5
23e
100
AcDbEntity
  8
0
 62
7
100
AcDbSpline
 70
8
 71
3
 72
8
 73
4
 74
0
 40
0
 40
0
 40
0
 40
0
 40
1
 40
1
 40
1
 40
1
 10
301.449052
 20
-15.645690
 30
0.0
 10
307.790850
 20
-18.157644
 30
0.0
 10
315.028263
 20
-16.015048
 30
0.0
 10
318.980873
 20
-10.455623
 30
0.0
  0
SPLINE
  5
23f
100
AcDbEntity
  8
0
 62
7
100
AcDbSpline
 70
8
 71
3
 72
8
 73
4
 74
0
 40
0
 40
0
 40
0
 40
0
 40
1
 40
1
 40
1
 40
1
 10
318.980873
 20
-10.455623
 30
0.0
 10
320.937202
 20
-7.703956
 30
0.0
 10
324.419913
 20
-6.491106
 30
0.0
 10
327.662381
 20
-7.432229
 30
0.0
  0
SPLINE
  5
240
100
AcDbEntity
  8
0
 62
7
100
AcDbSpline
 70
8
 71
3
 72
8
 73
4
 74
0
 40
0
 40
0
 40
0
 40
0
 40
1
 40
1
 40
1
 40
1
 10
327.662381
 20
-7.432229
 30
0.0
 10
337.268079
 20
-10.220144
 30
0.0
 10
347.514069
 20
-5.903731
 30
0.0
 10
352.229208
 20
2.916948
 30
0.0
  0
SPLINE
  5
241
100
AcDbEntity
  8
0
 62
7
100
AcDbSpline
 70
8
 71
3
 72
8
 73
4
 74
0
 40
0
 40
0
 40
0
 40
0
 40
1
 40
1
 40
1
 40
1
 10
354.193210
 20
72.473525
 30
0.0
 10
354.193210
 20
70.062377
 30
0.0
 10
352.238469
 20
68.107900
 30
0.0
 10
349.827585
 20
68.107900
 30
0.0
  0
SPLINE
  5
242
100
AcDbEntity
  8
0
 62
7
100
AcDbSpline
 70
8
 71
3
 72
8
 73
4
 74
0
 40
0
 40
0
 40
0
 40
0
 40
1
 40
1
 40
1
 40
1
 10
349.827585
 20
68.107900
 30
0.0
 10
347.416437
 20
68.107900
 30
0.0
 10
345.461960
 20
70.062377
 30
0.0
 10
345.461960
 20
72.473525
 30
0.0
  0
SPLINE
  5
243
100
AcDbEntity
  8
0
 62
7
100
AcDbSpline
 70
8
 71
3
 72
8
 73
4
 74
0
 40
0
 40
0
 40
0
 40
0
 40
1
 40
1
 40
1
 40
1
 10
345.461960
 20
72.473525
 30
0.0
 10
345.461960
 20
74.884673
 30
0.0
 10
347.416437
 20
76.839150
 30
0.0
 10
349.827585
 20
76.839150
 30
0.0
  0
SPLINE
  5
244
100
AcDbEntity
  8
0
 62
7
100
AcDbSpline
 70
8
 71
3
 72
8
 73
4
 74
0
 40
0
 40
0
 40
0
 40
0
 40
1
 40
1
 40
1
 40
1
 10
349.827585
 20
76.839150
 30
0.0
 10
352.238469
 20
76.839150
 30
0.0
 10
354.193210
 20
74.884673
 30
0.0
 10
354.193210
 20
72.473525
 30
0.0
  0
SPLINE
  5
245
100
AcDbEntity
  8
0
 62
7
100
AcDbSpline
 70
8
 71
3
 72
8
 73
4
 74
0
 40
0
 40
0
 40
0
 40
0
 40
1
 40
1
 40
1
 40
1
 10
411.823958
 20
160.725825
 30
0.0
 10
411.823958
 20
158.314942
 30
0.0
 10
409.869481
 20
156.360200
 30
0.0
 10
407.458333
 20
156.360200
 30
0.0
  0
SPLINE
  5
246
100
AcDbEntity
  8
0
 62
7
100
AcDbSpline
 70
8
 71
3
 72
8
 73
4
 74
0
 40
0
 40
0
 40
0
 40
0
 40
1
 40
1
 40
1
 40
1
 10
407.458333
 20
156.360200
 30
0.0
 10
405.047185
 20
156.360200
 30
0.0
 10
403.092708
 20
158.314942
 30
0.0
 10
403.092708
 20
160.725825
 30
0.0
  0
SPLINE
  5
247
100
AcDbEntity
  8
0
 62
7
100
AcDbSpline
 70
8
 71
3
 72
8
 73
4
 74
0
 40
0
 40
0
 40
0
 40
0
 40
1
 40
1
 40
1
 40
1
 10
403.092708
 20
160.725825
 30
0.0
 10
403.092708
 20
163.136973
 30
0.0
 10
405.047185
 20
165.091450
 30
0.0
 10
407.458333
 20
165.091450
 30
0.0
  0
SPLINE
  5
248
100
AcDbEntity
  8
0
 62
7
100
AcDbSpline
 70
8
 71
3
 72
8
 73
4
 74
0
 40
0
 40
0
 40
0
 40
0
 40
1
 40
1
 40
1
 40
1
 10
407.458333
 20
165.091450
 30
0.0
 10
409.869481
 20
165.091450
 30
0.0
 10
411.823958
 20
163.136973
 30
0.0
 10
411.823958
 20
160.725825
 30
0.0
  0
SPLINE
  5
249
100
AcDbEntity
  8
0
 62
7
100
AcDbSpline
 70
8
 71
3
 72
8
 73
4
 74
0
 40
0
 40
0
 40
0
 40
0
 40
1
 40
1
 40
1
 40
1
 10
765.788040
 20
72.473525
 30
0.0
 10
765.788040
 20
70.062377
 30
0.0
 10
763.833562
 20
68.107900
 30
0.0
 10
761.422415
 20
68.107900
 30
0.0
  0
SPLINE
  5
24a
100
AcDbEntity
  8
0
 62
7
100
AcDbSpline
 70
8
 71
3
 72
8
 73
4
 74
0
 40
0
 40
0
 40
0
 40
0
 40
1
 40
1
 40
1
 40
1
 10
761.422415
 20
68.107900
 30
0.0
 10
759.011531
 20
68.107900
 30
0.0
 10
757.056790
 20
70.062377
 30
0.0
 10
757.056790
 20
72.473525
 30
0.0
  0
SPLINE
  5
24b
100
AcDbEntity
  8
0
 62
7
100
AcDbSpline
 70
8
 71
3
 72
8
 73
4
 74
0
 40
0
 40
0
 40
0
 40
0
 40
1
 40
1
 40
1
 40
1
 10
757.056790
 20
72.473525
 30
0.0
 10
757.056790
 20
74.884673
 30
0.0
 10
759.011531
 20
76.839150
 30
0.0
 10
761.422415
 20
76.839150
 30
0.0
  0
SPLINE
  5
24c
100
AcDbEntity
  8
0
 62
7
100
AcDbSpline
 70
8
 71
3
 72
8
 73
4
 74
0
 40
0
 40
0
 40
0
 40
0
 40
1
 40
1
 40
1
 40
1
 10
761.422415
 20
76.839150
 30
0.0
 10
763.833562
 20
76.839150
 30
0.0
 10
765.788040
 20
74.884673
 30
0.0
 10
765.788040
 20
72.473525
 30
0.0
  0
SPLINE
  5
24d
100
AcDbEntity
  8
0
 62
7
100
AcDbSpline
 70
8
 71
3
 72
8
 73
4
 74
0
 40
0
 40
0
 40
0
 40
0
 40
1
 40
1
 40
1
 40
1
 10
311.270650
 20
-1.870158
 30
0.0
 10
311.270650
 20
-4.281306
 30
0.0
 10
309.316173
 20
-6.235783
 30
0.0
 10
306.905025
 20
-6.235783
 30
0.0
  0
SPLINE
  5
24e
100
AcDbEntity
  8
0
 62
7
100
AcDbSpline
 70
8
 71
3
 72
8
 73
4
 74
0
 40
0
 40
0
 40
0
 40
0
 40
1
 40
1
 40
1
 40
1
 10
306.905025
 20
-6.235783
 30
0.0
 10
304.493877
 20
-6.235783
 30
0.0
 10
302.539400
 20
-4.281306
 30
0.0
 10
302.539400
 20
-1.870158
 30
0.0
  0
SPLINE
  5
24f
100
AcDbEntity
  8
0
 62
7
100
AcDbSpline
 70
8
 71
3
 72
8
 73
4
 74
0
 40
0
 40
0
 40
0
 40
0
 40
1
 40
1
 40
1
 40
1
 10
302.539400
 20
-1.870158
 30
0.0
 10
302.539400
 20
0.540725
 30
0.0
 10
304.493877
 20
2.495467
 30
0.0
 10
306.905025
 20
2.495467
 30
0.0
  0
SPLINE
  5
250
100
AcDbEntity
  8
0
 62
7
100
AcDbSpline
 70
8
 71
3
 72
8
 73
4
 74
0
 40
0
 40
0
 40
0
 40
0
 40
1
 40
1
 40
1
 40
1
 10
306.905025
 20
2.495467
 30
0.0
 10
309.316173
 20
2.495467
 30
0.0
 10
311.270650
 20
0.540725
 30
0.0
 10
311.270650
 20
-1.870158
 30
0.0
  0
SPLINE
  5
251
100
AcDbEntity
  8
0
 62
7
100
AcDbSpline
 70
8
 71
3
 72
8
 73
4
 74
0
 40
0
 40
0
 40
0
 40
0
 40
1
 40
1
 40
1
 40
1
 10
765.788040
 20
-264.286025
 30
0.0
 10
765.788040
 20
-266.697173
 30
0.0
 10
763.833562
 20
-268.651650
 30
0.0
 10
761.422415
 20
-268.651650
 30
0.0
  0
SPLINE
  5
252
100
AcDbEntity
  8
0
 62
7
100
AcDbSpline
 70
8
 71
3
 72
8
 73
4
 74
0
 40
0
 40
0
 40
0
 40
0
 40
1
 40
1
 40
1
 40
1
 10
761.422415
 20
-268.651650
 30
0.0
 10
759.011531
 20
-268.651650
 30
0.0
 10
757.056790
 20
-266.697173
 30
0.0
 10
757.056790
 20
-264.286025
 30
0.0
  0
SPLINE
  5
253
100
AcDbEntity
  8
0
 62
7
100
AcDbSpline
 70
8
 71
3
 72
8
 73
4
 74
0
 40
0
 40
0
 40
0
 40
0
 40
1
 40
1
 40
1
 40
1
 10
757.056790
 20
-264.286025
 30
0.0
 10
757.056790
 20
-261.874877
 30
0.0
 10
759.011531
 20
-259.920400
 30
0.0
 10
761.422415
 20
-259.920400
 30
0.0
  0
SPLINE
  5
254
100
AcDbEntity
  8
0
 62
7
100
AcDbSpline
 70
8
 71
3
 72
8
 73
4
 74
0
 40
0
 40
0
 40
0
 40
0
 40
1
 40
1
 40
1
 40
1
 10
761.422415
 20
-259.920400
 30
0.0
 10
763.833562
 20
-259.920400
 30
0.0
 10
765.788040
 20
-261.874877
 30
0.0
 10
765.788040
 20
-264.286025
 30
0.0
  0
SPLINE
  5
255
100
AcDbEntity
  8
0
 62
7
100
AcDbSpline
 70
8
 71
3
 72
8
 73
4
 74
0
 40
0
 40
0
 40
0
 40
0
 40
1
 40
1
 40
1
 40
1
 10
275.137563
 20
-177.586829
 30
0.0
 10
275.137563
 20
-179.997977
 30
0.0
 10
273.182292
 20
-181.952454
 30
0.0
 10
270.771938
 20
-181.952454
 30
0.0
  0
SPLINE
  5
256
100
AcDbEntity
  8
0
 62
7
100
AcDbSpline
 70
8
 71
3
 72
8
 73
4
 74
0
 40
0
 40
0
 40
0
 40
0
 40
1
 40
1
 40
1
 40
1
 10
270.771938
 20
-181.952454
 30
0.0
 10
268.358938
 20
-181.952454
 30
0.0
 10
266.406313
 20
-179.997977
 30
0.0
 10
266.406313
 20
-177.586829
 30
0.0
  0
SPLINE
  5
257
100
AcDbEntity
  8
0
 62
7
100
AcDbSpline
 70
8
 71
3
 72
8
 73
4
 74
0
 40
0
 40
0
 40
0
 40
0
 40
1
 40
1
 40
1
 40
1
 10
266.406313
 20
-177.586829
 30
0.0
 10
266.406313
 20
-175.175681
 30
0.0
 10
268.358938
 20
-173.221204
 30
0.0
 10
270.771938
 20
-173.221204
 30
0.0
  0
SPLINE
  5
258
100
AcDbEntity
  8
0
 62
7
100
AcDbSpline
 70
8
 71
3
 72
8
 73
4
 74
0
 40
0
 40
0
 40
0
 40
0
 40
1
 40
1
 40
1
 40
1
 10
270.771938
 20
-173.221204
 30
0.0
 10
273.182292
 20
-173.221204
 30
0.0
 10
275.137563
 20
-175.175681
 30
0.0
 10
275.137563
 20
-177.586829
 30
0.0
  0
SPLINE
  5
259
100
AcDbEntity
  8
0
 62
7
100
AcDbSpline
 70
8
 71
3
 72
8
 73
4
 74
0
 40
0
 40
0
 40
0
 40
0
 40
1
 40
1
 40
1
 40
1
 10
844.843688
 20
-177.586829
 30
0.0
 10
844.843688
 20
-179.997977
 30
0.0
 10
842.891062
 20
-181.952454
 30
0.0
 10
840.478063
 20
-181.952454
 30
0.0
  0
SPLINE
  5
25a
100
AcDbEntity
  8
0
 62
7
100
AcDbSpline
 70
8
 71
3
 72
8
 73
4
 74
0
 40
0
 40
0
 40
0
 40
0
 40
1
 40
1
 40
1
 40
1
 10
840.478063
 20
-181.952454
 30
0.0
 10
838.067708
 20
-181.952454
 30
0.0
 10
836.112438
 20
-179.997977
 30
0.0
 10
836.112438
 20
-177.586829
 30
0.0
  0
SPLINE
  5
25b
100
AcDbEntity
  8
0
 62
7
100
AcDbSpline
 70
8
 71
3
 72
8
 73
4
 74
0
 40
0
 40
0
 40
0
 40
0
 40
1
 40
1
 40
1
 40
1
 10
836.112438
 20
-177.586829
 30
0.0
 10
836.112438
 20
-175.175681
 30
0.0
 10
838.067708
 20
-173.221204
 30
0.0
 10
840.478063
 20
-173.221204
 30
0.0
  0
SPLINE
  5
25c
100
AcDbEntity
  8
0
 62
7
100
AcDbSpline
 70
8
 71
3
 72
8
 73
4
 74
0
 40
0
 40
0
 40
0
 40
0
 40
1
 40
1
 40
1
 40
1
 10
840.478063
 20
-173.221204
 30
0.0
 10
842.891062
 20
-173.221204
 30
0.0
 10
844.843688
 20
-175.175681
 30
0.0
 10
844.843688
 20
-177.586829
 30
0.0
  0
SPLINE
  5
25d
100
AcDbEntity
  8
0
 62
7
100
AcDbSpline
 70
8
 71
3
 72
8
 73
4
 74
0
 40
0
 40
0
 40
0
 40
0
 40
1
 40
1
 40
1
 40
1
 10
773.155098
 20
109.944081
 30
0.0
 10
773.155098
 20
107.533198
 30
0.0
 10
771.200356
 20
105.578456
 30
0.0
 10
768.789473
 20
105.578456
 30
0.0
  0
SPLINE
  5
25e
100
AcDbEntity
  8
0
 62
7
100
AcDbSpline
 70
8
 71
3
 72
8
 73
4
 74
0
 40
0
 40
0
 40
0
 40
0
 40
1
 40
1
 40
1
 40
1
 10
768.789473
 20
105.578456
 30
0.0
 10
766.378325
 20
105.578456
 30
0.0
 10
764.423848
 20
107.533198
 30
0.0
 10
764.423848
 20
109.944081
 30
0.0
  0
SPLINE
  5
25f
100
AcDbEntity
  8
0
 62
7
100
AcDbSpline
 70
8
 71
3
 72
8
 73
4
 74
0
 40
0
 40
0
 40
0
 40
0
 40
1
 40
1
 40
1
 40
1
 10
764.423848
 20
109.944081
 30
0.0
 10
764.423848
 20
112.355229
 30
0.0
 10
766.378325
 20
114.309706
 30
0.0
 10
768.789473
 20
114.309706
 30
0.0
  0
SPLINE
  5
260
100
AcDbEntity
  8
0
 62
7
100
AcDbSpline
 70
8
 71
3
 72
8
 73
4
 74
0
 40
0
 40
0
 40
0
 40
0
 40
1
 40
1
 40
1
 40
1
 10
768.789473
 20
114.309706
 30
0.0
 10
771.200356
 20
114.309706
 30
0.0
 10
773.155098
 20
112.355229
 30
0.0
 10
773.155098
 20
109.944081
 30
0.0
  0
SPLINE
  5
261
100
AcDbEntity
  8
0
 62
7
100
AcDbSpline
 70
8
 71
3
 72
8
 73
4
 74
0
 40
0
 40
0
 40
0
 40
0
 40
1
 40
1
 40
1
 40
1
 10
773.155098
 20
-301.756581
 30
0.0
 10
773.155098
 20
-304.167729
 30
0.0
 10
771.200356
 20
-306.122206
 30
0.0
 10
768.789473
 20
-306.122206
 30
0.0
  0
SPLINE
  5
262
100
AcDbEntity
  8
0
 62
7
100
AcDbSpline
 70
8
 71
3
 72
8
 73
4
 74
0
 40
0
 40
0
 40
0
 40
0
 40
1
 40
1
 40
1
 40
1
 10
768.789473
 20
-306.122206
 30
0.0
 10
766.378325
 20
-306.122206
 30
0.0
 10
764.423848
 20
-304.167729
 30
0.0
 10
764.423848
 20
-301.756581
 30
0.0
  0
SPLINE
  5
263
100
AcDbEntity
  8
0
 62
7
100
AcDbSpline
 70
8
 71
3
 72
8
 73
4
 74
0
 40
0
 40
0
 40
0
 40
0
 40
1
 40
1
 40
1
 40
1
 10
764.423848
 20
-301.756581
 30
0.0
 10
764.423848
 20
-299.345698
 30
0.0
 10
766.378325
 20
-297.390956
 30
0.0
 10
768.789473
 20
-297.390956
 30
0.0
  0
SPLINE
  5
264
100
AcDbEntity
  8
0
 62
7
100
AcDbSpline
 70
8
 71
3
 72
8
 73
4
 74
0
 40
0
 40
0
 40
0
 40
0
 40
1
 40
1
 40
1
 40
1
 10
768.789473
 20
-297.390956
 30
0.0
 10
771.200356
 20
-297.390956
 30
0.0
 10
773.155098
 20
-299.345698
 30
0.0
 10
773.155098
 20
-301.756581
 30
0.0
  0
SPLINE
  5
265
100
AcDbEntity
  8
0
 62
7
100
AcDbSpline
 70
8
 71
3
 72
8
 73
4
 74
0
 40
0
 40
0
 40
0
 40
0
 40
1
 40
1
 40
1
 40
1
 10
275.137563
 20
-14.225671
 30
0.0
 10
275.137563
 20
-16.636819
 30
0.0
 10
273.182292
 20
-18.591296
 30
0.0
 10
270.771938
 20
-18.591296
 30
0.0
  0
SPLINE
  5
266
100
AcDbEntity
  8
0
 62
7
100
AcDbSpline
 70
8
 71
3
 72
8
 73
4
 74
0
 40
0
 40
0
 40
0
 40
0
 40
1
 40
1
 40
1
 40
1
 10
270.771938
 20
-18.591296
 30
0.0
 10
268.358938
 20
-18.591296
 30
0.0
 10
266.406313
 20
-16.636819
 30
0.0
 10
266.406313
 20
-14.225671
 30
0.0
  0
SPLINE
  5
267
100
AcDbEntity
  8
0
 62
7
100
AcDbSpline
 70
8
 71
3
 72
8
 73
4
 74
0
 40
0
 40
0
 40
0
 40
0
 40
1
 40
1
 40
1
 40
1
 10
266.406313
 20
-14.225671
 30
0.0
 10
266.406313
 20
-11.814523
 30
0.0
 10
268.358938
 20
-9.860046
 30
0.0
 10
270.771938
 20
-9.860046
 30
0.0
  0
SPLINE
  5
268
100
AcDbEntity
  8
0
 62
7
100
AcDbSpline
 70
8
 71
3
 72
8
 73
4
 74
0
 40
0
 40
0
 40
0
 40
0
 40
1
 40
1
 40
1
 40
1
 10
270.771938
 20
-9.860046
 30
0.0
 10
273.182292
 20
-9.860046
 30
0.0
 10
275.137563
 20
-11.814523
 30
0.0
 10
275.137563
 20
-14.225671
 30
0.0
  0
SPLINE
  5
269
100
AcDbEntity
  8
0
 62
7
100
AcDbSpline
 70
8
 71
3
 72
8
 73
4
 74
0
 40
0
 40
0
 40
0
 40
0
 40
1
 40
1
 40
1
 40
1
 10
639.365625
 20
41.575219
 30
0.0
 10
639.365625
 20
39.164335
 30
0.0
 10
637.411148
 20
37.209594
 30
0.0
 10
635.000000
 20
37.209594
 30
0.0
  0
SPLINE
  5
26a
100
AcDbEntity
  8
0
 62
7
100
AcDbSpline
 70
8
 71
3
 72
8
 73
4
 74
0
 40
0
 40
0
 40
0
 40
0
 40
1
 40
1
 40
1
 40
1
 10
635.000000
 20
37.209594
 30
0.0
 10
632.588852
 20
37.209594
 30
0.0
 10
630.634375
 20
39.164335
 30
0.0
 10
630.634375
 20
41.575219
 30
0.0
  0
SPLINE
  5
26b
100
AcDbEntity
  8
0
 62
7
100
AcDbSpline
 70
8
 71
3
 72
8
 73
4
 74
0
 40
0
 40
0
 40
0
 40
0
 40
1
 40
1
 40
1
 40
1
 10
630.634375
 20
41.575219
 30
0.0
 10
630.634375
 20
43.986367
 30
0.0
 10
632.588852
 20
45.940844
 30
0.0
 10
635.000000
 20
45.940844
 30
0.0
  0
SPLINE
  5
26c
100
AcDbEntity
  8
0
 62
7
100
AcDbSpline
 70
8
 71
3
 72
8
 73
4
 74
0
 40
0
 40
0
 40
0
 40
0
 40
1
 40
1
 40
1
 40
1
 10
635.000000
 20
45.940844
 30
0.0
 10
637.411148
 20
45.940844
 30
0.0
 10
639.365625
 20
43.986367
 30
0.0
 10
639.365625
 20
41.575219
 30
0.0
  0
SPLINE
  5
26d
100
AcDbEntity
  8
0
 62
7
100
AcDbSpline
 70
8
 71
3
 72
8
 73
4
 74
0
 40
0
 40
0
 40
0
 40
0
 40
1
 40
1
 40
1
 40
1
 10
708.157292
 20
160.725825
 30
0.0
 10
708.157292
 20
158.314942
 30
0.0
 10
706.202815
 20
156.360200
 30
0.0
 10
703.791667
 20
156.360200
 30
0.0
  0
SPLINE
  5
26e
100
AcDbEntity
  8
0
 62
7
100
AcDbSpline
 70
8
 71
3
 72
8
 73
4
 74
0
 40
0
 40
0
 40
0
 40
0
 40
1
 40
1
 40
1
 40
1
 10
703.791667
 20
156.360200
 30
0.0
 10
701.380519
 20
156.360200
 30
0.0
 10
699.426042
 20
158.314942
 30
0.0
 10
699.426042
 20
160.725825
 30
0.0
  0
SPLINE
  5
26f
100
AcDbEntity
  8
0
 62
7
100
AcDbSpline
 70
8
 71
3
 72
8
 73
4
 74
0
 40
0
 40
0
 40
0
 40
0
 40
1
 40
1
 40
1
 40
1
 10
699.426042
 20
160.725825
 30
0.0
 10
699.426042
 20
163.136973
 30
0.0
 10
701.380519
 20
165.091450
 30
0.0
 10
703.791667
 20
165.091450
 30
0.0
  0
SPLINE
  5
270
100
AcDbEntity
  8
0
 62
7
100
AcDbSpline
 70
8
 71
3
 72
8
 73
4
 74
0
 40
0
 40
0
 40
0
 40
0
 40
1
 40
1
 40
1
 40
1
 10
703.791667
 20
165.091450
 30
0.0
 10
706.202815
 20
165.091450
 30
0.0
 10
708.157292
 20
163.136973
 30
0.0
 10
708.157292
 20
160.725825
 30
0.0
  0
SPLINE
  5
271
100
AcDbEntity
  8
0
 62
7
100
AcDbSpline
 70
8
 71
3
 72
8
 73
4
 74
0
 40
0
 40
0
 40
0
 40
0
 40
1
 40
1
 40
1
 40
1
 10
602.912921
 20
-358.322117
 30
0.0
 10
602.912921
 20
-360.733000
 30
0.0
 10
600.958444
 20
-362.688271
 30
0.0
 10
598.547296
 20
-362.688271
 30
0.0
  0
SPLINE
  5
272
100
AcDbEntity
  8
0
 62
7
100
AcDbSpline
 70
8
 71
3
 72
8
 73
4
 74
0
 40
0
 40
0
 40
0
 40
0
 40
1
 40
1
 40
1
 40
1
 10
598.547296
 20
-362.688271
 30
0.0
 10
596.136413
 20
-362.688271
 30
0.0
 10
594.181671
 20
-360.733000
 30
0.0
 10
594.181671
 20
-358.322117
 30
0.0
  0
SPLINE
  5
273
100
AcDbEntity
  8
0
 62
7
100
AcDbSpline
 70
8
 71
3
 72
8
 73
4
 74
0
 40
0
 40
0
 40
0
 40
0
 40
1
 40
1
 40
1
 40
1
 10
594.181671
 20
-358.322117
 30
0.0
 10
594.181671
 20
-355.910969
 30
0.0
 10
596.136413
 20
-353.956492
 30
0.0
 10
598.547296
 20
-353.956492
 30
0.0
  0
SPLINE
  5
274
100
AcDbEntity
  8
0
 62
7
100
AcDbSpline
 70
8
 71
3
 72
8
 73
4
 74
0
 40
0
 40
0
 40
0
 40
0
 40
1
 40
1
 40
1
 40
1
 10
598.547296
 20
-353.956492
 30
0.0
 10
600.958444
 20
-353.956492
 30
0.0
 10
602.912921
 20
-355.910969
 30
0.0
 10
602.912921
 20
-358.322117
 30
0.0
  0
SPLINE
  5
275
100
AcDbEntity
  8
0
 62
7
100
AcDbSpline
 70
8
 71
3
 72
8
 73
4
 74
0
 40
0
 40
0
 40
0
 40
0
 40
1
 40
1
 40
1
 40
1
 10
517.068329
 20
-358.322117
 30
0.0
 10
517.068329
 20
-360.733000
 30
0.0
 10
515.113587
 20
-362.688271
 30
0.0
 10
512.702704
 20
-362.688271
 30
0.0
  0
SPLINE
  5
276
100
AcDbEntity
  8
0
 62
7
100
AcDbSpline
 70
8
 71
3
 72
8
 73
4
 74
0
 40
0
 40
0
 40
0
 40
0
 40
1
 40
1
 40
1
 40
1
 10
512.702704
 20
-362.688271
 30
0.0
 10
510.291556
 20
-362.688271
 30
0.0
 10
508.337079
 20
-360.733000
 30
0.0
 10
508.337079
 20
-358.322117
 30
0.0
  0
SPLINE
  5
277
100
AcDbEntity
  8
0
 62
7
100
AcDbSpline
 70
8
 71
3
 72
8
 73
4
 74
0
 40
0
 40
0
 40
0
 40
0
 40
1
 40
1
 40
1
 40
1
 10
508.337079
 20
-358.322117
 30
0.0
 10
508.337079
 20
-355.910969
 30
0.0
 10
510.291556
 20
-353.956492
 30
0.0
 10
512.702704
 20
-353.956492
 30
0.0
  0
SPLINE
  5
278
100
AcDbEntity
  8
0
 62
7
100
AcDbSpline
 70
8
 71
3
 72
8
 73
4
 74
0
 40
0
 40
0
 40
0
 40
0
 40
1
 40
1
 40
1
 40
1
 10
512.702704
 20
-353.956492
 30
0.0
 10
515.113587
 20
-353.956492
 30
0.0
 10
517.068329
 20
-355.910969
 30
0.0
 10
517.068329
 20
-358.322117
 30
0.0
  0
SPLINE
  5
279
100
AcDbEntity
  8
0
 62
7
100
AcDbSpline
 70
8
 71
3
 72
8
 73
4
 74
0
 40
0
 40
0
 40
0
 40
0
 40
1
 40
1
 40
1
 40
1
 10
844.843688
 20
-14.225671
 30
0.0
 10
844.843688
 20
-16.636819
 30
0.0
 10
842.891062
 20
-18.591296
 30
0.0
 10
840.478063
 20
-18.591296
 30
0.0
  0
SPLINE
  5
27a
100
AcDbEntity
  8
0
 62
7
100
AcDbSpline
 70
8
 71
3
 72
8
 73
4
 74
0
 40
0
 40
0
 40
0
 40
0
 40
1
 40
1
 40
1
 40
1
 10
840.478063
 20
-18.591296
 30
0.0
 10
838.067708
 20
-18.591296
 30
0.0
 10
836.112438
 20
-16.636819
 30
0.0
 10
836.112438
 20
-14.225671
 30
0.0
  0
SPLINE
  5
27b
100
AcDbEntity
  8
0
 62
7
100
AcDbSpline
 70
8
 71
3
 72
8
 73
4
 74
0
 40
0
 40
0
 40
0
 40
0
 40
1
 40
1
 40
1
 40
1
 10
836.112438
 20
-14.225671
 30
0.0
 10
836.112438
 20
-11.814523
 30
0.0
 10
838.067708
 20
-9.860046
 30
0.0
 10
840.478063
 20
-9.860046
 30
0.0
  0
SPLINE
  5
27c
100
AcDbEntity
  8
0
 62
7
100
AcDbSpline
 70
8
 71
3
 72
8
 73
4
 74
0
 40
0
 40
0
 40
0
 40
0
 40
1
 40
1
 40
1
 40
1
 10
840.478063
 20
-9.860046
 30
0.0
 10
842.891062
 20
-9.860046
 30
0.0
 10
844.843688
 20
-11.814523
 30
0.0
 10
844.843688
 20
-14.225671
 30
0.0
  0
SPLINE
  5
27d
100
AcDbEntity
  8
0
 62
7
100
AcDbSpline
 70
8
 71
3
 72
8
 73
4
 74
0
 40
0
 40
0
 40
0
 40
0
 40
1
 40
1
 40
1
 40
1
 10
631.680273
 20
191.624396
 30
0.0
 10
631.680273
 20
189.214042
 30
0.0
 10
629.725531
 20
187.258771
 30
0.0
 10
627.314648
 20
187.258771
 30
0.0
  0
SPLINE
  5
27e
100
AcDbEntity
  8
0
 62
7
100
AcDbSpline
 70
8
 71
3
 72
8
 73
4
 74
0
 40
0
 40
0
 40
0
 40
0
 40
1
 40
1
 40
1
 40
1
 10
627.314648
 20
187.258771
 30
0.0
 10
624.903500
 20
187.258771
 30
0.0
 10
622.949023
 20
189.214042
 30
0.0
 10
622.949023
 20
191.624396
 30
0.0
  0
SPLINE
  5
27f
100
AcDbEntity
  8
0
 62
7
100
AcDbSpline
 70
8
 71
3
 72
8
 73
4
 74
0
 40
0
 40
0
 40
0
 40
0
 40
1
 40
1
 40
1
 40
1
 10
622.949023
 20
191.624396
 30
0.0
 10
622.949023
 20
194.034750
 30
0.0
 10
624.903500
 20
195.990021
 30
0.0
 10
627.314648
 20
195.990021
 30
0.0
  0
SPLINE
  5
280
100
AcDbEntity
  8
0
 62
7
100
AcDbSpline
 70
8
 71
3
 72
8
 73
4
 74
0
 40
0
 40
0
 40
0
 40
0
 40
1
 40
1
 40
1
 40
1
 10
627.314648
 20
195.990021
 30
0.0
 10
629.725531
 20
195.990021
 30
0.0
 10
631.680273
 20
194.034750
 30
0.0
 10
631.680273
 20
191.624396
 30
0.0
  0
SPLINE
  5
281
100
AcDbEntity
  8
0
 62
7
100
AcDbSpline
 70
8
 71
3
 72
8
 73
4
 74
0
 40
0
 40
0
 40
0
 40
0
 40
1
 40
1
 40
1
 40
1
 10
480.615625
 20
41.575219
 30
0.0
 10
480.615625
 20
39.164335
 30
0.0
 10
478.661148
 20
37.209594
 30
0.0
 10
476.250000
 20
37.209594
 30
0.0
  0
SPLINE
  5
282
100
AcDbEntity
  8
0
 62
7
100
AcDbSpline
 70
8
 71
3
 72
8
 73
4
 74
0
 40
0
 40
0
 40
0
 40
0
 40
1
 40
1
 40
1
 40
1
 10
476.250000
 20
37.209594
 30
0.0
 10
473.838852
 20
37.209594
 30
0.0
 10
471.884375
 20
39.164335
 30
0.0
 10
471.884375
 20
41.575219
 30
0.0
  0
SPLINE
  5
283
100
AcDbEntity
  8
0
 62
7
100
AcDbSpline
 70
8
 71
3
 72
8
 73
4
 74
0
 40
0
 40
0
 40
0
 40
0
 40
1
 40
1
 40
1
 40
1
 10
471.884375
 20
41.575219
 30
0.0
 10
471.884375
 20
43.986367
 30
0.0
 10
473.838852
 20
45.940844
 30
0.0
 10
476.250000
 20
45.940844
 30
0.0
  0
SPLINE
  5
284
100
AcDbEntity
  8
0
 62
7
100
AcDbSpline
 70
8
 71
3
 72
8
 73
4
 74
0
 40
0
 40
0
 40
0
 40
0
 40
1
 40
1
 40
1
 40
1
 10
476.250000
 20
45.940844
 30
0.0
 10
478.661148
 20
45.940844
 30
0.0
 10
480.615625
 20
43.986367
 30
0.0
 10
480.615625
 20
41.575219
 30
0.0
  0
SPLINE
  5
285
100
AcDbEntity
  8
0
 62
7
100
AcDbSpline
 70
8
 71
3
 72
8
 73
4
 74
0
 40
0
 40
0
 40
0
 40
0
 40
1
 40
1
 40
1
 40
1
 10
856.323958
 20
-95.906250
 30
0.0
 10
856.323958
 20
-98.317319
 30
0.0
 10
854.368688
 20
-100.271875
 30
0.0
 10
851.958333
 20
-100.271875
 30
0.0
  0
SPLINE
  5
286
100
AcDbEntity
  8
0
 62
7
100
AcDbSpline
 70
8
 71
3
 72
8
 73
4
 74
0
 40
0
 40
0
 40
0
 40
0
 40
1
 40
1
 40
1
 40
1
 10
851.958333
 20
-100.271875
 30
0.0
 10
849.547979
 20
-100.271875
 30
0.0
 10
847.592708
 20
-98.317319
 30
0.0
 10
847.592708
 20
-95.906250
 30
0.0
  0
SPLINE
  5
287
100
AcDbEntity
  8
0
 62
7
100
AcDbSpline
 70
8
 71
3
 72
8
 73
4
 74
0
 40
0
 40
0
 40
0
 40
0
 40
1
 40
1
 40
1
 40
1
 10
847.592708
 20
-95.906250
 30
0.0
 10
847.592708
 20
-93.495181
 30
0.0
 10
849.547979
 20
-91.540625
 30
0.0
 10
851.958333
 20
-91.540625
 30
0.0
  0
SPLINE
  5
288
100
AcDbEntity
  8
0
 62
7
100
AcDbSpline
 70
8
 71
3
 72
8
 73
4
 74
0
 40
0
 40
0
 40
0
 40
0
 40
1
 40
1
 40
1
 40
1
 10
851.958333
 20
-91.540625
 30
0.0
 10
854.368688
 20
-91.540625
 30
0.0
 10
856.323958
 20
-93.495181
 30
0.0
 10
856.323958
 20
-95.906250
 30
0.0
  0
SPLINE
  5
289
100
AcDbEntity
  8
0
 62
7
100
AcDbSpline
 70
8
 71
3
 72
8
 73
4
 74
0
 40
0
 40
0
 40
0
 40
0
 40
1
 40
1
 40
1
 40
1
 10
346.826152
 20
-301.756581
 30
0.0
 10
346.826152
 20
-304.167729
 30
0.0
 10
344.871675
 20
-306.122206
 30
0.0
 10
342.460527
 20
-306.122206
 30
0.0
  0
SPLINE
  5
28a
100
AcDbEntity
  8
0
 62
7
100
AcDbSpline
 70
8
 71
3
 72
8
 73
4
 74
0
 40
0
 40
0
 40
0
 40
0
 40
1
 40
1
 40
1
 40
1
 10
342.460527
 20
-306.122206
 30
0.0
 10
340.049644
 20
-306.122206
 30
0.0
 10
338.094902
 20
-304.167729
 30
0.0
 10
338.094902
 20
-301.756581
 30
0.0
  0
SPLINE
  5
28b
100
AcDbEntity
  8
0
 62
7
100
AcDbSpline
 70
8
 71
3
 72
8
 73
4
 74
0
 40
0
 40
0
 40
0
 40
0
 40
1
 40
1
 40
1
 40
1
 10
338.094902
 20
-301.756581
 30
0.0
 10
338.094902
 20
-299.345698
 30
0.0
 10
340.049644
 20
-297.390956
 30
0.0
 10
342.460527
 20
-297.390956
 30
0.0
  0
SPLINE
  5
28c
100
AcDbEntity
  8
0
 62
7
100
AcDbSpline
 70
8
 71
3
 72
8
 73
4
 74
0
 40
0
 40
0
 40
0
 40
0
 40
1
 40
1
 40
1
 40
1
 10
342.460527
 20
-297.390956
 30
0.0
 10
344.871675
 20
-297.390956
 30
0.0
 10
346.826152
 20
-299.345698
 30
0.0
 10
346.826152
 20
-301.756581
 30
0.0
  0
SPLINE
  5
28d
100
AcDbEntity
  8
0
 62
7
100
AcDbSpline
 70
8
 71
3
 72
8
 73
4
 74
0
 40
0
 40
0
 40
0
 40
0
 40
1
 40
1
 40
1
 40
1
 10
480.615625
 20
-233.387719
 30
0.0
 10
480.615625
 20
-235.798867
 30
0.0
 10
478.661148
 20
-237.753344
 30
0.0
 10
476.250000
 20
-237.753344
 30
0.0
  0
SPLINE
  5
28e
100
AcDbEntity
  8
0
 62
7
100
AcDbSpline
 70
8
 71
3
 72
8
 73
4
 74
0
 40
0
 40
0
 40
0
 40
0
 40
1
 40
1
 40
1
 40
1
 10
476.250000
 20
-237.753344
 30
0.0
 10
473.838852
 20
-237.753344
 30
0.0
 10
471.884375
 20
-235.798867
 30
0.0
 10
471.884375
 20
-233.387719
 30
0.0
  0
SPLINE
  5
28f
100
AcDbEntity
  8
0
 62
7
100
AcDbSpline
 70
8
 71
3
 72
8
 73
4
 74
0
 40
0
 40
0
 40
0
 40
0
 40
1
 40
1
 40
1
 40
1
 10
471.884375
 20
-233.387719
 30
0.0
 10
471.884375
 20
-230.976835
 30
0.0
 10
473.838852
 20
-229.022094
 30
0.0
 10
476.250000
 20
-229.022094
 30
0.0
  0
SPLINE
  5
290
100
AcDbEntity
  8
0
 62
7
100
AcDbSpline
 70
8
 71
3
 72
8
 73
4
 74
0
 40
0
 40
0
 40
0
 40
0
 40
1
 40
1
 40
1
 40
1
 10
476.250000
 20
-229.022094
 30
0.0
 10
478.661148
 20
-229.022094
 30
0.0
 10
480.615625
 20
-230.976835
 30
0.0
 10
480.615625
 20
-233.387719
 30
0.0
  0
SPLINE
  5
291
100
AcDbEntity
  8
0
 62
7
100
AcDbSpline
 70
8
 71
3
 72
8
 73
4
 74
0
 40
0
 40
0
 40
0
 40
0
 40
1
 40
1
 40
1
 40
1
 10
346.826152
 20
109.944081
 30
0.0
 10
346.826152
 20
107.533198
 30
0.0
 10
344.871675
 20
105.578456
 30
0.0
 10
342.460527
 20
105.578456
 30
0.0
  0
SPLINE
  5
292
100
AcDbEntity
  8
0
 62
7
100
AcDbSpline
 70
8
 71
3
 72
8
 73
4
 74
0
 40
0
 40
0
 40
0
 40
0
 40
1
 40
1
 40
1
 40
1
 10
342.460527
 20
105.578456
 30
0.0
 10
340.049644
 20
105.578456
 30
0.0
 10
338.094902
 20
107.533198
 30
0.0
 10
338.094902
 20
109.944081
 30
0.0
  0
SPLINE
  5
293
100
AcDbEntity
  8
0
 62
7
100
AcDbSpline
 70
8
 71
3
 72
8
 73
4
 74
0
 40
0
 40
0
 40
0
 40
0
 40
1
 40
1
 40
1
 40
1
 10
338.094902
 20
109.944081
 30
0.0
 10
338.094902
 20
112.355229
 30
0.0
 10
340.049644
 20
114.309706
 30
0.0
 10
342.460527
 20
114.309706
 30
0.0
  0
SPLINE
  5
294
100
AcDbEntity
  8
0
 62
7
100
AcDbSpline
 70
8
 71
3
 72
8
 73
4
 74
0
 40
0
 40
0
 40
0
 40
0
 40
1
 40
1
 40
1
 40
1
 10
342.460527
 20
114.309706
 30
0.0
 10
344.871675
 20
114.309706
 30
0.0
 10
346.826152
 20
112.355229
 30
0.0
 10
346.826152
 20
109.944081
 30
0.0
  0
SPLINE
  5
295
100
AcDbEntity
  8
0
 62
7
100
AcDbSpline
 70
8
 71
3
 72
8
 73
4
 74
0
 40
0
 40
0
 40
0
 40
0
 40
1
 40
1
 40
1
 40
1
 10
263.657292
 20
-95.906250
 30
0.0
 10
263.657292
 20
-98.317319
 30
0.0
 10
261.702021
 20
-100.271875
 30
0.0
 10
259.291667
 20
-100.271875
 30
0.0
  0
SPLINE
  5
296
100
AcDbEntity
  8
0
 62
7
100
AcDbSpline
 70
8
 71
3
 72
8
 73
4
 74
0
 40
0
 40
0
 40
0
 40
0
 40
1
 40
1
 40
1
 40
1
 10
259.291667
 20
-100.271875
 30
0.0
 10
256.881312
 20
-100.271875
 30
0.0
 10
254.926042
 20
-98.317319
 30
0.0
 10
254.926042
 20
-95.906250
 30
0.0
  0
SPLINE
  5
297
100
AcDbEntity
  8
0
 62
7
100
AcDbSpline
 70
8
 71
3
 72
8
 73
4
 74
0
 40
0
 40
0
 40
0
 40
0
 40
1
 40
1
 40
1
 40
1
 10
254.926042
 20
-95.906250
 30
0.0
 10
254.926042
 20
-93.495181
 30
0.0
 10
256.881312
 20
-91.540625
 30
0.0
 10
259.291667
 20
-91.540625
 30
0.0
  0
SPLINE
  5
298
100
AcDbEntity
  8
0
 62
7
100
AcDbSpline
 70
8
 71
3
 72
8
 73
4
 74
0
 40
0
 40
0
 40
0
 40
0
 40
1
 40
1
 40
1
 40
1
 10
259.291667
 20
-91.540625
 30
0.0
 10
261.702021
 20
-91.540625
 30
0.0
 10
263.657292
 20
-93.495181
 30
0.0
 10
263.657292
 20
-95.906250
 30
0.0
  0
SPLINE
  5
299
100
AcDbEntity
  8
0
 62
7
100
AcDbSpline
 70
8
 71
3
 72
8
 73
4
 74
0
 40
0
 40
0
 40
0
 40
0
 40
1
 40
1
 40
1
 40
1
 10
401.240625
 20
-95.906250
 30
0.0
 10
401.240625
 20
-98.317319
 30
0.0
 10
399.286148
 20
-100.271875
 30
0.0
 10
396.875000
 20
-100.271875
 30
0.0
  0
SPLINE
  5
29a
100
AcDbEntity
  8
0
 62
7
100
AcDbSpline
 70
8
 71
3
 72
8
 73
4
 74
0
 40
0
 40
0
 40
0
 40
0
 40
1
 40
1
 40
1
 40
1
 10
396.875000
 20
-100.271875
 30
0.0
 10
394.463852
 20
-100.271875
 30
0.0
 10
392.509375
 20
-98.317319
 30
0.0
 10
392.509375
 20
-95.906250
 30
0.0
  0
SPLINE
  5
29b
100
AcDbEntity
  8
0
 62
7
100
AcDbSpline
 70
8
 71
3
 72
8
 73
4
 74
0
 40
0
 40
0
 40
0
 40
0
 40
1
 40
1
 40
1
 40
1
 10
392.509375
 20
-95.906250
 30
0.0
 10
392.509375
 20
-93.495181
 30
0.0
 10
394.463852
 20
-91.540625
 30
0.0
 10
396.875000
 20
-91.540625
 30
0.0
  0
SPLINE
  5
29c
100
AcDbEntity
  8
0
 62
7
100
AcDbSpline
 70
8
 71
3
 72
8
 73
4
 74
0
 40
0
 40
0
 40
0
 40
0
 40
1
 40
1
 40
1
 40
1
 10
396.875000
 20
-91.540625
 30
0.0
 10
399.286148
 20
-91.540625
 30
0.0
 10
401.240625
 20
-93.495181
 30
0.0
 10
401.240625
 20
-95.906250
 30
0.0
  0
SPLINE
  5
29d
100
AcDbEntity
  8
0
 62
7
100
AcDbSpline
 70
8
 71
3
 72
8
 73
4
 74
0
 40
0
 40
0
 40
0
 40
0
 40
1
 40
1
 40
1
 40
1
 10
718.740625
 20
-95.906250
 30
0.0
 10
718.740625
 20
-98.317319
 30
0.0
 10
716.786148
 20
-100.271875
 30
0.0
 10
714.375000
 20
-100.271875
 30
0.0
  0
SPLINE
  5
29e
100
AcDbEntity
  8
0
 62
7
100
AcDbSpline
 70
8
 71
3
 72
8
 73
4
 74
0
 40
0
 40
0
 40
0
 40
0
 40
1
 40
1
 40
1
 40
1
 10
714.375000
 20
-100.271875
 30
0.0
 10
711.963852
 20
-100.271875
 30
0.0
 10
710.009375
 20
-98.317319
 30
0.0
 10
710.009375
 20
-95.906250
 30
0.0
  0
SPLINE
  5
29f
100
AcDbEntity
  8
0
 62
7
100
AcDbSpline
 70
8
 71
3
 72
8
 73
4
 74
0
 40
0
 40
0
 40
0
 40
0
 40
1
 40
1
 40
1
 40
1
 10
710.009375
 20
-95.906250
 30
0.0
 10
710.009375
 20
-93.495181
 30
0.0
 10
711.963852
 20
-91.540625
 30
0.0
 10
714.375000
 20
-91.540625
 30
0.0
  0
SPLINE
  5
2a0
100
AcDbEntity
  8
0
 62
7
100
AcDbSpline
 70
8
 71
3
 72
8
 73
4
 74
0
 40
0
 40
0
 40
0
 40
0
 40
1
 40
1
 40
1
 40
1
 10
714.375000
 20
-91.540625
 30
0.0
 10
716.786148
 20
-91.540625
 30
0.0
 10
718.740625
 20
-93.495181
 30
0.0
 10
718.740625
 20
-95.906250
 30
0.0
  0
SPLINE
  5
2a1
100
AcDbEntity
  8
0
 62
7
100
AcDbSpline
 70
8
 71
3
 72
8
 73
4
 74
0
 40
0
 40
0
 40
0
 40
0
 40
1
 40
1
 40
1
 40
1
 10
808.710600
 20
-1.870158
 30
0.0
 10
808.710600
 20
-4.281306
 30
0.0
 10
806.756123
 20
-6.235783
 30
0.0
 10
804.344975
 20
-6.235783
 30
0.0
  0
SPLINE
  5
2a2
100
AcDbEntity
  8
0
 62
7
100
AcDbSpline
 70
8
 71
3
 72
8
 73
4
 74
0
 40
0
 40
0
 40
0
 40
0
 40
1
 40
1
 40
1
 40
1
 10
804.344975
 20
-6.235783
 30
0.0
 10
801.933827
 20
-6.235783
 30
0.0
 10
799.979350
 20
-4.281306
 30
0.0
 10
799.979350
 20
-1.870158
 30
0.0
  0
SPLINE
  5
2a3
100
AcDbEntity
  8
0
 62
7
100
AcDbSpline
 70
8
 71
3
 72
8
 73
4
 74
0
 40
0
 40
0
 40
0
 40
0
 40
1
 40
1
 40
1
 40
1
 10
799.979350
 20
-1.870158
 30
0.0
 10
799.979350
 20
0.540725
 30
0.0
 10
801.933827
 20
2.495467
 30
0.0
 10
804.344975
 20
2.495467
 30
0.0
  0
SPLINE
  5
2a4
100
AcDbEntity
  8
0
 62
7
100
AcDbSpline
 70
8
 71
3
 72
8
 73
4
 74
0
 40
0
 40
0
 40
0
 40
0
 40
1
 40
1
 40
1
 40
1
 10
804.344975
 20
2.495467
 30
0.0
 10
806.756123
 20
2.495467
 30
0.0
 10
808.710600
 20
0.540725
 30
0.0
 10
808.710600
 20
-1.870158
 30
0.0
  0
SPLINE
  5
2a5
100
AcDbEntity
  8
0
 62
7
100
AcDbSpline
 70
8
 71
3
 72
8
 73
4
 74
0
 40
0
 40
0
 40
0
 40
0
 40
1
 40
1
 40
1
 40
1
 10
808.710600
 20
-189.942342
 30
0.0
 10
808.710600
 20
-192.353225
 30
0.0
 10
806.756123
 20
-194.307967
 30
0.0
 10
804.344975
 20
-194.307967
 30
0.0
  0
SPLINE
  5
2a6
100
AcDbEntity
  8
0
 62
7
100
AcDbSpline
 70
8
 71
3
 72
8
 73
4
 74
0
 40
0
 40
0
 40
0
 40
0
 40
1
 40
1
 40
1
 40
1
 10
804.344975
 20
-194.307967
 30
0.0
 10
801.933827
 20
-194.307967
 30
0.0
 10
799.979350
 20
-192.353225
 30
0.0
 10
799.979350
 20
-189.942342
 30
0.0
  0
SPLINE
  5
2a7
100
AcDbEntity
  8
0
 62
7
100
AcDbSpline
 70
8
 71
3
 72
8
 73
4
 74
0
 40
0
 40
0
 40
0
 40
0
 40
1
 40
1
 40
1
 40
1
 10
799.979350
 20
-189.942342
 30
0.0
 10
799.979350
 20
-187.531194
 30
0.0
 10
801.933827
 20
-185.576717
 30
0.0
 10
804.344975
 20
-185.576717
 30
0.0
  0
SPLINE
  5
2a8
100
AcDbEntity
  8
0
 62
7
100
AcDbSpline
 70
8
 71
3
 72
8
 73
4
 74
0
 40
0
 40
0
 40
0
 40
0
 40
1
 40
1
 40
1
 40
1
 10
804.344975
 20
-185.576717
 30
0.0
 10
806.756123
 20
-185.576717
 30
0.0
 10
808.710600
 20
-187.531194
 30
0.0
 10
808.710600
 20
-189.942342
 30
0.0
  0
SPLINE
  5
2a9
100
AcDbEntity
  8
0
 62
7
100
AcDbSpline
 70
8
 71
3
 72
8
 73
4
 74
0
 40
0
 40
0
 40
0
 40
0
 40
1
 40
1
 40
1
 40
1
 10
517.068329
 20
166.509617
 30
0.0
 10
517.068329
 20
164.098469
 30
0.0
 10
515.113587
 20
162.143992
 30
0.0
 10
512.702704
 20
162.143992
 30
0.0
  0
SPLINE
  5
2aa
100
AcDbEntity
  8
0
 62
7
100
AcDbSpline
 70
8
 71
3
 72
8
 73
4
 74
0
 40
0
 40
0
 40
0
 40
0
 40
1
 40
1
 40
1
 40
1
 10
512.702704
 20
162.143992
 30
0.0
 10
510.291556
 20
162.143992
 30
0.0
 10
508.337079
 20
164.098469
 30
0.0
 10
508.337079
 20
166.509617
 30
0.0
  0
SPLINE
  5
2ab
100
AcDbEntity
  8
0
 62
7
100
AcDbSpline
 70
8
 71
3
 72
8
 73
4
 74
0
 40
0
 40
0
 40
0
 40
0
 40
1
 40
1
 40
1
 40
1
 10
508.337079
 20
166.509617
 30
0.0
 10
508.337079
 20
168.920500
 30
0.0
 10
510.291556
 20
170.875771
 30
0.0
 10
512.702704
 20
170.875771
 30
0.0
  0
SPLINE
  5
2ac
100
AcDbEntity
  8
0
 62
7
100
AcDbSpline
 70
8
 71
3
 72
8
 73
4
 74
0
 40
0
 40
0
 40
0
 40
0
 40
1
 40
1
 40
1
 40
1
 10
512.702704
 20
170.875771
 30
0.0
 10
515.113587
 20
170.875771
 30
0.0
 10
517.068329
 20
168.920500
 30
0.0
 10
517.068329
 20
166.509617
 30
0.0
  0
SPLINE
  5
2ad
100
AcDbEntity
  8
0
 62
7
100
AcDbSpline
 70
8
 71
3
 72
8
 73
4
 74
0
 40
0
 40
0
 40
0
 40
0
 40
1
 40
1
 40
1
 40
1
 10
631.680273
 20
-383.436896
 30
0.0
 10
631.680273
 20
-385.847250
 30
0.0
 10
629.725531
 20
-387.802521
 30
0.0
 10
627.314648
 20
-387.802521
 30
0.0
  0
SPLINE
  5
2ae
100
AcDbEntity
  8
0
 62
7
100
AcDbSpline
 70
8
 71
3
 72
8
 73
4
 74
0
 40
0
 40
0
 40
0
 40
0
 40
1
 40
1
 40
1
 40
1
 10
627.314648
 20
-387.802521
 30
0.0
 10
624.903500
 20
-387.802521
 30
0.0
 10
622.949023
 20
-385.847250
 30
0.0
 10
622.949023
 20
-383.436896
 30
0.0
  0
SPLINE
  5
2af
100
AcDbEntity
  8
0
 62
7
100
AcDbSpline
 70
8
 71
3
 72
8
 73
4
 74
0
 40
0
 40
0
 40
0
 40
0
 40
1
 40
1
 40
1
 40
1
 10
622.949023
 20
-383.436896
 30
0.0
 10
622.949023
 20
-381.026542
 30
0.0
 10
624.903500
 20
-379.071271
 30
0.0
 10
627.314648
 20
-379.071271
 30
0.0
  0
SPLINE
  5
2b0
100
AcDbEntity
  8
0
 62
7
100
AcDbSpline
 70
8
 71
3
 72
8
 73
4
 74
0
 40
0
 40
0
 40
0
 40
0
 40
1
 40
1
 40
1
 40
1
 10
627.314648
 20
-379.071271
 30
0.0
 10
629.725531
 20
-379.071271
 30
0.0
 10
631.680273
 20
-381.026542
 30
0.0
 10
631.680273
 20
-383.436896
 30
0.0
  0
SPLINE
  5
2b1
100
AcDbEntity
  8
0
 62
7
100
AcDbSpline
 70
8
 71
3
 72
8
 73
4
 74
0
 40
0
 40
0
 40
0
 40
0
 40
1
 40
1
 40
1
 40
1
 10
602.912921
 20
166.509617
 30
0.0
 10
602.912921
 20
164.098469
 30
0.0
 10
600.958444
 20
162.143992
 30
0.0
 10
598.547296
 20
162.143992
 30
0.0
  0
SPLINE
  5
2b2
100
AcDbEntity
  8
0
 62
7
100
AcDbSpline
 70
8
 71
3
 72
8
 73
4
 74
0
 40
0
 40
0
 40
0
 40
0
 40
1
 40
1
 40
1
 40
1
 10
598.547296
 20
162.143992
 30
0.0
 10
596.136413
 20
162.143992
 30
0.0
 10
594.181671
 20
164.098469
 30
0.0
 10
594.181671
 20
166.509617
 30
0.0
  0
SPLINE
  5
2b3
100
AcDbEntity
  8
0
 62
7
100
AcDbSpline
 70
8
 71
3
 72
8
 73
4
 74
0
 40
0
 40
0
 40
0
 40
0
 40
1
 40
1
 40
1
 40
1
 10
594.181671
 20
166.509617
 30
0.0
 10
594.181671
 20
168.920500
 30
0.0
 10
596.136413
 20
170.875771
 30
0.0
 10
598.547296
 20
170.875771
 30
0.0
  0
SPLINE
  5
2b4
100
AcDbEntity
  8
0
 62
7
100
AcDbSpline
 70
8
 71
3
 72
8
 73
4
 74
0
 40
0
 40
0
 40
0
 40
0
 40
1
 40
1
 40
1
 40
1
 10
598.547296
 20
170.875771
 30
0.0
 10
600.958444
 20
170.875771
 30
0.0
 10
602.912921
 20
168.920500
 30
0.0
 10
602.912921
 20
166.509617
 30
0.0
  0
SPLINE
  5
2b5
100
AcDbEntity
  8
0
 62
7
100
AcDbSpline
 70
8
 71
3
 72
8
 73
4
 74
0
 40
0
 40
0
 40
0
 40
0
 40
1
 40
1
 40
1
 40
1
 10
488.300977
 20
-383.436896
 30
0.0
 10
488.300977
 20
-385.847250
 30
0.0
 10
486.346500
 20
-387.802521
 30
0.0
 10
483.935352
 20
-387.802521
 30
0.0
  0
SPLINE
  5
2b6
100
AcDbEntity
  8
0
 62
7
100
AcDbSpline
 70
8
 71
3
 72
8
 73
4
 74
0
 40
0
 40
0
 40
0
 40
0
 40
1
 40
1
 40
1
 40
1
 10
483.935352
 20
-387.802521
 30
0.0
 10
481.524469
 20
-387.802521
 30
0.0
 10
479.569727
 20
-385.847250
 30
0.0
 10
479.569727
 20
-383.436896
 30
0.0
  0
SPLINE
  5
2b7
100
AcDbEntity
  8
0
 62
7
100
AcDbSpline
 70
8
 71
3
 72
8
 73
4
 74
0
 40
0
 40
0
 40
0
 40
0
 40
1
 40
1
 40
1
 40
1
 10
479.569727
 20
-383.436896
 30
0.0
 10
479.569727
 20
-381.026542
 30
0.0
 10
481.524469
 20
-379.071271
 30
0.0
 10
483.935352
 20
-379.071271
 30
0.0
  0
SPLINE
  5
2b8
100
AcDbEntity
  8
0
 62
7
100
AcDbSpline
 70
8
 71
3
 72
8
 73
4
 74
0
 40
0
 40
0
 40
0
 40
0
 40
1
 40
1
 40
1
 40
1
 10
483.935352
 20
-379.071271
 30
0.0
 10
486.346500
 20
-379.071271
 30
0.0
 10
488.300977
 20
-381.026542
 30
0.0
 10
488.300977
 20
-383.436896
 30
0.0
  0
SPLINE
  5
2b9
100
AcDbEntity
  8
0
 62
7
100
AcDbSpline
 70
8
 71
3
 72
8
 73
4
 74
0
 40
0
 40
0
 40
0
 40
0
 40
1
 40
1
 40
1
 40
1
 10
639.365625
 20
-233.387719
 30
0.0
 10
639.365625
 20
-235.798867
 30
0.0
 10
637.411148
 20
-237.753344
 30
0.0
 10
635.000000
 20
-237.753344
 30
0.0
  0
SPLINE
  5
2ba
100
AcDbEntity
  8
0
 62
7
100
AcDbSpline
 70
8
 71
3
 72
8
 73
4
 74
0
 40
0
 40
0
 40
0
 40
0
 40
1
 40
1
 40
1
 40
1
 10
635.000000
 20
-237.753344
 30
0.0
 10
632.588852
 20
-237.753344
 30
0.0
 10
630.634375
 20
-235.798867
 30
0.0
 10
630.634375
 20
-233.387719
 30
0.0
  0
SPLINE
  5
2bb
100
AcDbEntity
  8
0
 62
7
100
AcDbSpline
 70
8
 71
3
 72
8
 73
4
 74
0
 40
0
 40
0
 40
0
 40
0
 40
1
 40
1
 40
1
 40
1
 10
630.634375
 20
-233.387719
 30
0.0
 10
630.634375
 20
-230.976835
 30
0.0
 10
632.588852
 20
-229.022094
 30
0.0
 10
635.000000
 20
-229.022094
 30
0.0
  0
SPLINE
  5
2bc
100
AcDbEntity
  8
0
 62
7
100
AcDbSpline
 70
8
 71
3
 72
8
 73
4
 74
0
 40
0
 40
0
 40
0
 40
0
 40
1
 40
1
 40
1
 40
1
 10
635.000000
 20
-229.022094
 30
0.0
 10
637.411148
 20
-229.022094
 30
0.0
 10
639.365625
 20
-230.976835
 30
0.0
 10
639.365625
 20
-233.387719
 30
0.0
  0
SPLINE
  5
2bd
100
AcDbEntity
  8
0
 62
7
100
AcDbSpline
 70
8
 71
3
 72
8
 73
4
 74
0
 40
0
 40
0
 40
0
 40
0
 40
1
 40
1
 40
1
 40
1
 10
488.300977
 20
191.624396
 30
0.0
 10
488.300977
 20
189.214042
 30
0.0
 10
486.346500
 20
187.258771
 30
0.0
 10
483.935352
 20
187.258771
 30
0.0
  0
SPLINE
  5
2be
100
AcDbEntity
  8
0
 62
7
100
AcDbSpline
 70
8
 71
3
 72
8
 73
4
 74
0
 40
0
 40
0
 40
0
 40
0
 40
1
 40
1
 40
1
 40
1
 10
483.935352
 20
187.258771
 30
0.0
 10
481.524469
 20
187.258771
 30
0.0
 10
479.569727
 20
189.214042
 30
0.0
 10
479.569727
 20
191.624396
 30
0.0
  0
SPLINE
  5
2bf
100
AcDbEntity
  8
0
 62
7
100
AcDbSpline
 70
8
 71
3
 72
8
 73
4
 74
0
 40
0
 40
0
 40
0
 40
0
 40
1
 40
1
 40
1
 40
1
 10
479.569727
 20
191.624396
 30
0.0
 10
479.569727
 20
194.034750
 30
0.0
 10
481.524469
 20
195.990021
 30
0.0
 10
483.935352
 20
195.990021
 30
0.0
  0
SPLINE
  5
2c0
100
AcDbEntity
  8
0
 62
7
100
AcDbSpline
 70
8
 71
3
 72
8
 73
4
 74
0
 40
0
 40
0
 40
0
 40
0
 40
1
 40
1
 40
1
 40
1
 10
483.935352
 20
195.990021
 30
0.0
 10
486.346500
 20
195.990021
 30
0.0
 10
488.300977
 20
194.034750
 30
0.0
 10
488.300977
 20
191.624396
 30
0.0
  0
SPLINE
  5
2c1
100
AcDbEntity
  8
0
 62
7
100
AcDbSpline
 70
8
 71
3
 72
8
 73
4
 74
0
 40
0
 40
0
 40
0
 40
0
 40
1
 40
1
 40
1
 40
1
 10
354.193210
 20
-264.286025
 30
0.0
 10
354.193210
 20
-266.697173
 30
0.0
 10
352.238469
 20
-268.651650
 30
0.0
 10
349.827585
 20
-268.651650
 30
0.0
  0
SPLINE
  5
2c2
100
AcDbEntity
  8
0
 62
7
100
AcDbSpline
 70
8
 71
3
 72
8
 73
4
 74
0
 40
0
 40
0
 40
0
 40
0
 40
1
 40
1
 40
1
 40
1
 10
349.827585
 20
-268.651650
 30
0.0
 10
347.416437
 20
-268.651650
 30
0.0
 10
345.461960
 20
-266.697173
 30
0.0
 10
345.461960
 20
-264.286025
 30
0.0
  0
SPLINE
  5
2c3
100
AcDbEntity
  8
0
 62
7
100
AcDbSpline
 70
8
 71
3
 72
8
 73
4
 74
0
 40
0
 40
0
 40
0
 40
0
 40
1
 40
1
 40
1
 40
1
 10
345.461960
 20
-264.286025
 30
0.0
 10
345.461960
 20
-261.874877
 30
0.0
 10
347.416437
 20
-259.920400
 30
0.0
 10
349.827585
 20
-259.920400
 30
0.0
  0
SPLINE
  5
2c4
100
AcDbEntity
  8
0
 62
7
100
AcDbSpline
 70
8
 71
3
 72
8
 73
4
 74
0
 40
0
 40
0
 40
0
 40
0
 40
1
 40
1
 40
1
 40
1
 10
349.827585
 20
-259.920400
 30
0.0
 10
352.238469
 20
-259.920400
 30
0.0
 10
354.193210
 20
-261.874877
 30
0.0
 10
354.193210
 20
-264.286025
 30
0.0
  0
SPLINE
  5
2c5
100
AcDbEntity
  8
0
 62
7
100
AcDbSpline
 70
8
 71
3
 72
8
 73
4
 74
0
 40
0
 40
0
 40
0
 40
0
 40
1
 40
1
 40
1
 40
1
 10
708.157292
 20
-352.538325
 30
0.0
 10
708.157292
 20
-354.949473
 30
0.0
 10
706.202815
 20
-356.903950
 30
0.0
 10
703.791667
 20
-356.903950
 30
0.0
  0
SPLINE
  5
2c6
100
AcDbEntity
  8
0
 62
7
100
AcDbSpline
 70
8
 71
3
 72
8
 73
4
 74
0
 40
0
 40
0
 40
0
 40
0
 40
1
 40
1
 40
1
 40
1
 10
703.791667
 20
-356.903950
 30
0.0
 10
701.380519
 20
-356.903950
 30
0.0
 10
699.426042
 20
-354.949473
 30
0.0
 10
699.426042
 20
-352.538325
 30
0.0
  0
SPLINE
  5
2c7
100
AcDbEntity
  8
0
 62
7
100
AcDbSpline
 70
8
 71
3
 72
8
 73
4
 74
0
 40
0
 40
0
 40
0
 40
0
 40
1
 40
1
 40
1
 40
1
 10
699.426042
 20
-352.538325
 30
0.0
 10
699.426042
 20
-350.127442
 30
0.0
 10
701.380519
 20
-348.172700
 30
0.0
 10
703.791667
 20
-348.172700
 30
0.0
  0
SPLINE
  5
2c8
100
AcDbEntity
  8
0
 62
7
100
AcDbSpline
 70
8
 71
3
 72
8
 73
4
 74
0
 40
0
 40
0
 40
0
 40
0
 40
1
 40
1
 40
1
 40
1
 10
703.791667
 20
-348.172700
 30
0.0
 10
706.202815
 20
-348.172700
 30
0.0
 10
708.157292
 20
-350.127442
 30
0.0
 10
708.157292
 20
-352.538325
 30
0.0
  0
SPLINE
  5
2c9
100
AcDbEntity
  8
0
 62
7
100
AcDbSpline
 70
8
 71
3
 72
8
 73
4
 74
0
 40
0
 40
0
 40
0
 40
0
 40
1
 40
1
 40
1
 40
1
 10
311.270650
 20
-189.942342
 30
0.0
 10
311.270650
 20
-192.353225
 30
0.0
 10
309.316173
 20
-194.307967
 30
0.0
 10
306.905025
 20
-194.307967
 30
0.0
  0
SPLINE
  5
2ca
100
AcDbEntity
  8
0
 62
7
100
AcDbSpline
 70
8
 71
3
 72
8
 73
4
 74
0
 40
0
 40
0
 40
0
 40
0
 40
1
 40
1
 40
1
 40
1
 10
306.905025
 20
-194.307967
 30
0.0
 10
304.493877
 20
-194.307967
 30
0.0
 10
302.539400
 20
-192.353225
 30
0.0
 10
302.539400
 20
-189.942342
 30
0.0
  0
SPLINE
  5
2cb
100
AcDbEntity
  8
0
 62
7
100
AcDbSpline
 70
8
 71
3
 72
8
 73
4
 74
0
 40
0
 40
0
 40
0
 40
0
 40
1
 40
1
 40
1
 40
1
 10
302.539400
 20
-189.942342
 30
0.0
 10
302.539400
 20
-187.531194
 30
0.0
 10
304.493877
 20
-185.576717
 30
0.0
 10
306.905025
 20
-185.576717
 30
0.0
  0
SPLINE
  5
2cc
100
AcDbEntity
  8
0
 62
7
100
AcDbSpline
 70
8
 71
3
 72
8
 73
4
 74
0
 40
0
 40
0
 40
0
 40
0
 40
1
 40
1
 40
1
 40
1
 10
306.905025
 20
-185.576717
 30
0.0
 10
309.316173
 20
-185.576717
 30
0.0
 10
311.270650
 20
-187.531194
 30
0.0
 10
311.270650
 20
-189.942342
 30
0.0
  0
SPLINE
  5
2cd
100
AcDbEntity
  8
0
 62
7
100
AcDbSpline
 70
8
 71
3
 72
8
 73
4
 74
0
 40
0
 40
0
 40
0
 40
0
 40
1
 40
1
 40
1
 40
1
 10
411.823958
 20
-352.538325
 30
0.0
 10
411.823958
 20
-354.949473
 30
0.0
 10
409.869481
 20
-356.903950
 30
0.0
 10
407.458333
 20
-356.903950
 30
0.0
  0
SPLINE
  5
2ce
100
AcDbEntity
  8
0
 62
7
100
AcDbSpline
 70
8
 71
3
 72
8
 73
4
 74
0
 40
0
 40
0
 40
0
 40
0
 40
1
 40
1
 40
1
 40
1
 10
407.458333
 20
-356.903950
 30
0.0
 10
405.047185
 20
-356.903950
 30
0.0
 10
403.092708
 20
-354.949473
 30
0.0
 10
403.092708
 20
-352.538325
 30
0.0
  0
SPLINE
  5
2cf
100
AcDbEntity
  8
0
 62
7
100
AcDbSpline
 70
8
 71
3
 72
8
 73
4
 74
0
 40
0
 40
0
 40
0
 40
0
 40
1
 40
1
 40
1
 40
1
 10
403.092708
 20
-352.538325
 30
0.0
 10
403.092708
 20
-350.127442
 30
0.0
 10
405.047185
 20
-348.172700
 30
0.0
 10
407.458333
 20
-348.172700
 30
0.0
  0
SPLINE
  5
2d0
100
AcDbEntity
  8
0
 62
7
100
AcDbSpline
 70
8
 71
3
 72
8
 73
4
 74
0
 40
0
 40
0
 40
0
 40
0
 40
1
 40
1
 40
1
 40
1
 10
407.458333
 20
-348.172700
 30
0.0
 10
409.869481
 20
-348.172700
 30
0.0
 10
411.823958
 20
-350.127442
 30
0.0
 10
411.823958
 20
-352.538325
 30
0.0
  0
ENDSEC
  0
SECTION
  2
OBJECTS
  0
DICTIONARY
  5
C
330
0
100
AcDbDictionary
  3
ACAD_GROUP
350
D
  3
ACAD_MLINESTYLE
350
17
  0
DICTIONARY
  5
D
330
C
100
AcDbDictionary
  0
DICTIONARY
  5
1A
330
C
100
AcDbDictionary
  0
DICTIONARY
  5
17
330
C
100
AcDbDictionary
  3
STANDARD
350
18
  0
DICTIONARY
  5
19
330
C
100
AcDbDictionary
  0
ENDSEC
  0
EOF
