<?xml version="1.0" encoding="UTF-8" standalone="no"?>
<svg
   xmlns:dc="http://purl.org/dc/elements/1.1/"
   xmlns:cc="http://creativecommons.org/ns#"
   xmlns:rdf="http://www.w3.org/1999/02/22-rdf-syntax-ns#"
   xmlns:svg="http://www.w3.org/2000/svg"
   xmlns="http://www.w3.org/2000/svg"
   xmlns:sodipodi="http://sodipodi.sourceforge.net/DTD/sodipodi-0.dtd"
   xmlns:inkscape="http://www.inkscape.org/namespaces/inkscape"
   width="420mm"
   height="297mm"
   viewBox="0 0 4200 2970"
   version="1.2"
   id="svg204"
   sodipodi:docname="center_lock.svg"
   inkscape:version="0.92.2 (5c3e80d, 2017-08-06)">
  <metadata
     id="metadata208">
    <rdf:RDF>
      <cc:Work
         rdf:about="">
        <dc:format>image/svg+xml</dc:format>
        <dc:type
           rdf:resource="http://purl.org/dc/dcmitype/StillImage" />
      </cc:Work>
    </rdf:RDF>
  </metadata>
  <sodipodi:namedview
     pagecolor="#ffffff"
     bordercolor="#666666"
     borderopacity="1"
     objecttolerance="10"
     gridtolerance="10"
     guidetolerance="10"
     inkscape:pageopacity="0"
     inkscape:pageshadow="2"
     inkscape:window-width="1920"
     inkscape:window-height="1015"
     id="namedview206"
     showgrid="false"
     inkscape:zoom="1.1688587"
     inkscape:cx="806.17722"
     inkscape:cy="522.34064"
     inkscape:window-x="0"
     inkscape:window-y="0"
     inkscape:window-maximized="1"
     inkscape:current-layer="svg204" />
  <title
     id="title2">FreeCAD SVG Export</title>
  <desc
     id="desc4">Drawing page: Page007 exported from FreeCAD document: mounting_sun</desc>
  <defs
     id="defs6" />
  <path
     d="m 2328.209,1511.4356 c -0.83,-7.7948 2.97,-15.3558 9.721,-19.3405 6.75,-3.9848 15.206,-3.6586 21.63,0.8344 26.312,18.4046 39.07,50.7582 32.402,82.1685 -6.668,31.41 -31.471,55.79 -62.991,61.917 -151.2321,29.396 -306.7099,29.396 -457.942,0 -39.634,-7.704 -67.316,-43.735 -64.547,-84.0168 2.769,-40.2813 35.12,-72.1856 75.436,-74.3939 18.44,-1.0101 35.252,-10.8764 45.127,-26.4822 v 0 c 10.817,-17.0964 26.14,-30.8784 44.283,-39.8302 11.678,-5.7618 20.647,-15.8522 25,-28.1249 15.5693,-43.896 57.0965,-73.229 103.672,-73.229 46.5755,0 88.1027,29.333 103.672,73.229 4.353,12.2727 13.322,22.3631 25,28.1249 18.143,8.9519 33.466,22.7339 44.283,39.8304 11.47,18.1273 18.689,38.6153 21.116,59.9288 1.755,15.4155 2.635,30.9182 2.635,46.4334 0,9.3889 7.611,17 17,17 9.389,0 17,-7.6111 17,-17 v 0 c 0,-15.7161 -0.834,-31.4211 -2.497,-47.0489"
     id="path50"
     inkscape:connector-curvature="0"
     style="font-style:normal;font-weight:400;font-size:medium;font-family:'Sans Serif';vector-effect:non-scaling-stroke;fill:#ffffff;fill-opacity:1;fill-rule:evenodd;stroke:#000000;stroke-width:1;stroke-linecap:square;stroke-linejoin:bevel;stroke-opacity:1" />
  <path
     d="m 1902.794,1558.4845 c 0,9.1127 -7.387,16.5 -16.5,16.5 -9.113,0 -16.5,-7.3873 -16.5,-16.5 0,-9.1127 7.387,-16.5 16.5,-16.5 9.113,0 16.5,7.3873 16.5,16.5"
     id="path66"
     inkscape:connector-curvature="0"
     style="font-style:normal;font-weight:400;font-size:medium;font-family:'Sans Serif';vector-effect:non-scaling-stroke;fill:#ffffff;fill-opacity:1;fill-rule:evenodd;stroke:#000000;stroke-width:1;stroke-linecap:square;stroke-linejoin:bevel;stroke-opacity:1" />
</svg>
