  0
SECTION
  2
HEADER
  9
$ACADVER
  1
AC1014
  9
$HANDSEED
  5
FFFF
  9
$MEASUREMENT
 70
     1
  0
ENDSEC
  0
SECTION
  2
TABLES
  0
TABLE
  2
VPORT
  5
8
330
0
100
AcDbSymbolTable
 70
     4
  0
VPORT
  5
2E
330
8
100
AcDbSymbolTableRecord
100
AcDbViewportTableRecord
  2
*ACTIVE
 70
     0
 10
0.0
 20
0.0
 11
1.0
 21
1.0
 12
210.0
 22
148.5
 13
0.0
 23
0.0
 14
10.0
 24
10.0
 15
10.0
 25
10.0
 16
0.0
 26
0.0
 36
1.0
 17
0.0
 27
0.0
 37
0.0
 40
341.0
 41
1.24
 42
50.0
 43
0.0
 44
0.0
 50
0.0
 51
0.0
 71
     0
 72
   100
 73
     1
 74
     3
 75
     0
 76
     0
 77
     0
 78
     0
  0
ENDTAB
  0
TABLE
  2
LTYPE
  5
5
330
0
100
AcDbSymbolTable
 70
     1
  0
LTYPE
  5
14
330
5
100
AcDbSymbolTableRecord
100
AcDbLinetypeTableRecord
  2
BYBLOCK
 70
     0
  3

 72
    65
 73
     0
 40
0.0
  0
LTYPE
  5
15
330
5
100
AcDbSymbolTableRecord
100
AcDbLinetypeTableRecord
  2
BYLAYER
 70
     0
  3

 72
    65
 73
     0
 40
0.0
  0
LTYPE
  5
16
330
5
100
AcDbSymbolTableRecord
100
AcDbLinetypeTableRecord
  2
CONTINUOUS
 70
     0
  3
Solid line
 72
    65
 73
     0
 40
0.0
  0
ENDTAB
  0
TABLE
  2
LAYER
  5
2
100
AcDbSymbolTable
 70
1
  0
LAYER
  5
50
100
AcDbSymbolTableRecord
100
AcDbLayerTableRecord
  2
0
 70
0
  6
CONTINUOUS
  0
ENDTAB
  0
TABLE
  2
STYLE
  5
3
330
0
100
AcDbSymbolTable
 70
     1
  0
STYLE
  5
11
330
3
100
AcDbSymbolTableRecord
100
AcDbTextStyleTableRecord
  2
STANDARD
 70
     0
 40
0.0
 41
1.0
 50
0.0
 71
     0
 42
2.5
  3
txt
  4

  0
ENDTAB
  0
TABLE
  2
VIEW
  5
6
330
0
100
AcDbSymbolTable
 70
     0
  0
ENDTAB
  0
TABLE
  2
UCS
  5
7
330
0
100
AcDbSymbolTable
 70
     0
  0
ENDTAB
  0
TABLE
  2
APPID
  5
9
330
0
100
AcDbSymbolTable
 70
     2
  0
APPID
  5
12
330
9
100
AcDbSymbolTableRecord
100
AcDbRegAppTableRecord
  2
ACAD
 70
     0
  0
ENDTAB
  0
TABLE
  2
DIMSTYLE
  5
A
330
0
100
AcDbSymbolTable
 70
     1
  0
DIMSTYLE
105
27
330
A
100
AcDbSymbolTableRecord
100
AcDbDimStyleTableRecord
  2
ISO-25
 70
     0
  3

  4

  5

  6

  7

 40
1.0
 41
2.5
 42
0.625
 43
3.75
 44
1.25
 45
0.0
 46
0.0
 47
0.0
 48
0.0
140
2.5
141
2.5
142
0.0
143
0.03937007874016
144
1.0
145
0.0
146
1.0
147
0.625
 71
     0
 72
     0
 73
     0
 74
     0
 75
     0
 76
     0
 77
     1
 78
     8
170
     0
171
     3
172
     1
173
     0
174
     0
175
     0
176
     0
177
     0
178
     0
270
     2
271
     2
272
     2
273
     2
274
     3
340
11
275
     0
280
     0
281
     0
282
     0
283
     0
284
     8
285
     0
286
     0
287
     3
288
     0
  0
ENDTAB
  0
TABLE
  2
BLOCK_RECORD
  5
1
330
0
100
AcDbSymbolTable
 70
     1
  0
BLOCK_RECORD
  5
1F
330
1
100
AcDbSymbolTableRecord
100
AcDbBlockTableRecord
  2
*MODEL_SPACE
  0
BLOCK_RECORD
  5
1B
330
1
100
AcDbSymbolTableRecord
100
AcDbBlockTableRecord
  2
*PAPER_SPACE
  0
ENDTAB
  0
ENDSEC
  0
SECTION
  2
BLOCKS
  0
BLOCK
  5
20
330
1F
100
AcDbEntity
  8
0
100
AcDbBlockBegin
  2
*MODEL_SPACE
 70
     0
 10
0.0
 20
0.0
 30
0.0
  3
*MODEL_SPACE
  1

  0
ENDBLK
  5
21
330
1F
100
AcDbEntity
  8
0
100
AcDbBlockEnd
  0
BLOCK
  5
1C
330
1B
100
AcDbEntity
 67
     1
  8
0
100
AcDbBlockBegin
  2
*PAPER_SPACE
  1

  0
ENDBLK
  5
1D
330
1B
100
AcDbEntity
 67
     1
  8
0
100
AcDbBlockEnd
  0
ENDSEC
  0
SECTION
  2
ENTITIES
  0
SPLINE
  5
100
100
AcDbEntity
  8
0
 62
7
100
AcDbSpline
 70
8
 71
3
 72
8
 73
4
 74
0
 40
0
 40
0
 40
0
 40
0
 40
1
 40
1
 40
1
 40
1
 10
873.125000
 20
-95.906250
 30
0.0
 10
873.125000
 20
-271.256737
 30
0.0
 10
730.975488
 20
-413.406250
 30
0.0
 10
555.625000
 20
-413.406250
 30
0.0
  0
SPLINE
  5
101
100
AcDbEntity
  8
0
 62
7
100
AcDbSpline
 70
8
 71
3
 72
8
 73
4
 74
0
 40
0
 40
0
 40
0
 40
0
 40
1
 40
1
 40
1
 40
1
 10
555.625000
 20
-413.406250
 30
0.0
 10
380.274513
 20
-413.406250
 30
0.0
 10
238.125000
 20
-271.256737
 30
0.0
 10
238.125000
 20
-95.906250
 30
0.0
  0
SPLINE
  5
102
100
AcDbEntity
  8
0
 62
7
100
AcDbSpline
 70
8
 71
3
 72
8
 73
4
 74
0
 40
0
 40
0
 40
0
 40
0
 40
1
 40
1
 40
1
 40
1
 10
238.125000
 20
-95.906250
 30
0.0
 10
238.125000
 20
79.444238
 30
0.0
 10
380.274513
 20
221.593750
 30
0.0
 10
555.625000
 20
221.593750
 30
0.0
  0
SPLINE
  5
103
100
AcDbEntity
  8
0
 62
7
100
AcDbSpline
 70
8
 71
3
 72
8
 73
4
 74
0
 40
0
 40
0
 40
0
 40
0
 40
1
 40
1
 40
1
 40
1
 10
555.625000
 20
221.593750
 30
0.0
 10
730.975488
 20
221.593750
 30
0.0
 10
873.125000
 20
79.444238
 30
0.0
 10
873.125000
 20
-95.906250
 30
0.0
  0
SPLINE
  5
104
100
AcDbEntity
  8
0
 62
7
100
AcDbSpline
 70
8
 71
3
 72
8
 73
4
 74
0
 40
0
 40
0
 40
0
 40
0
 40
1
 40
1
 40
1
 40
1
 10
586.424881
 20
-76.448262
 30
0.0
 10
592.850817
 20
-78.417609
 30
0.0
 10
599.834494
 20
-76.441383
 30
0.0
 10
604.275525
 20
-71.396758
 30
0.0
  0
SPLINE
  5
105
100
AcDbEntity
  8
0
 62
7
100
AcDbSpline
 70
8
 71
3
 72
8
 73
4
 74
0
 40
0
 40
0
 40
0
 40
0
 40
1
 40
1
 40
1
 40
1
 10
604.275525
 20
-71.396758
 30
0.0
 10
608.716556
 20
-66.352292
 30
0.0
 10
609.791558
 20
-59.174410
 30
0.0
 10
607.023752
 20
-53.049835
 30
0.0
  0
SPLINE
  5
106
100
AcDbEntity
  8
0
 62
7
100
AcDbSpline
 70
8
 71
3
 72
8
 73
4
 74
0
 40
0
 40
0
 40
0
 40
0
 40
1
 40
1
 40
1
 40
1
 10
607.023752
 20
-53.049835
 30
0.0
 10
604.255946
 20
-46.925525
 30
0.0
 10
598.157829
 20
-42.989583
 30
0.0
 10
591.436883
 20
-42.989583
 30
0.0
  0
LINE
  5
107
100
AcDbEntity
  8
0
 62
7
100
AcDbLine
 10
591.436883
 20
-42.989583
 30
0.0
 11
591.436883
 21
-42.989583
 31
0.0
  0
LINE
  5
108
100
AcDbEntity
  8
0
 62
7
100
AcDbLine
 10
591.436883
 20
-42.989583
 30
0.0
 11
519.813117
 21
-42.989583
 31
0.0
  0
LINE
  5
109
100
AcDbEntity
  8
0
 62
7
100
AcDbLine
 10
519.813117
 20
-42.989583
 30
0.0
 11
519.813117
 21
-42.989583
 31
0.0
  0
SPLINE
  5
10a
100
AcDbEntity
  8
0
 62
7
100
AcDbSpline
 70
8
 71
3
 72
8
 73
4
 74
0
 40
0
 40
0
 40
0
 40
0
 40
1
 40
1
 40
1
 40
1
 10
519.813117
 20
-42.989583
 30
0.0
 10
513.092171
 20
-42.989583
 30
0.0
 10
506.994054
 20
-46.925525
 30
0.0
 10
504.226248
 20
-53.049835
 30
0.0
  0
SPLINE
  5
10b
100
AcDbEntity
  8
0
 62
7
100
AcDbSpline
 70
8
 71
3
 72
8
 73
4
 74
0
 40
0
 40
0
 40
0
 40
0
 40
1
 40
1
 40
1
 40
1
 10
504.226248
 20
-53.049835
 30
0.0
 10
501.458442
 20
-59.174410
 30
0.0
 10
502.533444
 20
-66.352292
 30
0.0
 10
506.974475
 20
-71.396758
 30
0.0
  0
SPLINE
  5
10c
100
AcDbEntity
  8
0
 62
7
100
AcDbSpline
 70
8
 71
3
 72
8
 73
4
 74
0
 40
0
 40
0
 40
0
 40
0
 40
1
 40
1
 40
1
 40
1
 10
506.974475
 20
-71.396758
 30
0.0
 10
511.415506
 20
-76.441304
 30
0.0
 10
518.399183
 20
-78.417609
 30
0.0
 10
524.825119
 20
-76.448262
 30
0.0
  0
LINE
  5
10d
100
AcDbEntity
  8
0
 62
7
100
AcDbLine
 10
524.825119
 20
-76.448262
 30
0.0
 11
524.825119
 21
-76.448262
 31
0.0
  0
SPLINE
  5
10e
100
AcDbEntity
  8
0
 62
7
100
AcDbSpline
 70
8
 71
3
 72
8
 73
4
 74
0
 40
0
 40
0
 40
0
 40
0
 40
1
 40
1
 40
1
 40
1
 10
524.825119
 20
-76.448262
 30
0.0
 10
530.608090
 20
-74.675951
 30
0.0
 10
536.887764
 20
-76.596667
 30
0.0
 10
540.689906
 20
-81.300694
 30
0.0
  0
SPLINE
  5
10f
100
AcDbEntity
  8
0
 62
7
100
AcDbSpline
 70
8
 71
3
 72
8
 73
4
 74
0
 40
0
 40
0
 40
0
 40
0
 40
1
 40
1
 40
1
 40
1
 10
540.689906
 20
-81.300694
 30
0.0
 10
544.492021
 20
-86.004695
 30
0.0
 10
545.053176
 20
-92.547550
 30
0.0
 10
542.107570
 20
-97.830300
 30
0.0
  0
SPLINE
  5
110
100
AcDbEntity
  8
0
 62
7
100
AcDbSpline
 70
8
 71
3
 72
8
 73
4
 74
0
 40
0
 40
0
 40
0
 40
0
 40
1
 40
1
 40
1
 40
1
 10
542.107570
 20
-97.830300
 30
0.0
 10
539.161964
 20
-103.113050
 30
0.0
 10
533.301046
 20
-106.075008
 30
0.0
 10
527.300825
 20
-105.313299
 30
0.0
  0
LINE
  5
111
100
AcDbEntity
  8
0
 62
7
100
AcDbLine
 10
527.300825
 20
-105.313299
 30
0.0
 11
527.300825
 21
-105.313299
 31
0.0
  0
SPLINE
  5
112
100
AcDbEntity
  8
0
 62
7
100
AcDbSpline
 70
8
 71
3
 72
8
 73
4
 74
0
 40
0
 40
0
 40
0
 40
0
 40
1
 40
1
 40
1
 40
1
 10
527.300825
 20
-105.313299
 30
0.0
 10
519.232885
 20
-104.289097
 30
0.0
 10
511.263900
 20
-107.832238
 30
0.0
 10
506.619669
 20
-114.508522
 30
0.0
  0
SPLINE
  5
113
100
AcDbEntity
  8
0
 62
7
100
AcDbSpline
 70
8
 71
3
 72
8
 73
4
 74
0
 40
0
 40
0
 40
0
 40
0
 40
1
 40
1
 40
1
 40
1
 10
506.619669
 20
-114.508522
 30
0.0
 10
501.975702
 20
-121.184806
 30
0.0
 10
501.425369
 20
-129.888540
 30
0.0
 10
505.191713
 20
-137.096319
 30
0.0
  0
SPLINE
  5
114
100
AcDbEntity
  8
0
 62
7
100
AcDbSpline
 70
8
 71
3
 72
8
 73
4
 74
0
 40
0
 40
0
 40
0
 40
0
 40
1
 40
1
 40
1
 40
1
 10
505.191713
 20
-137.096319
 30
0.0
 10
508.958321
 20
-144.304362
 30
0.0
 10
516.417454
 20
-148.822917
 30
0.0
 10
524.550217
 20
-148.822917
 30
0.0
  0
LINE
  5
115
100
AcDbEntity
  8
0
 62
7
100
AcDbLine
 10
524.550217
 20
-148.822917
 30
0.0
 11
524.550217
 21
-148.822917
 31
0.0
  0
LINE
  5
116
100
AcDbEntity
  8
0
 62
7
100
AcDbLine
 10
524.550217
 20
-148.822917
 30
0.0
 11
586.699783
 21
-148.822917
 31
0.0
  0
LINE
  5
117
100
AcDbEntity
  8
0
 62
7
100
AcDbLine
 10
586.699783
 20
-148.822917
 30
0.0
 11
586.699783
 21
-148.822917
 31
0.0
  0
SPLINE
  5
118
100
AcDbEntity
  8
0
 62
7
100
AcDbSpline
 70
8
 71
3
 72
8
 73
4
 74
0
 40
0
 40
0
 40
0
 40
0
 40
1
 40
1
 40
1
 40
1
 10
586.699783
 20
-148.822917
 30
0.0
 10
594.832546
 20
-148.822917
 30
0.0
 10
602.291679
 20
-144.304362
 30
0.0
 10
606.058288
 20
-137.096319
 30
0.0
  0
SPLINE
  5
119
100
AcDbEntity
  8
0
 62
7
100
AcDbSpline
 70
8
 71
3
 72
8
 73
4
 74
0
 40
0
 40
0
 40
0
 40
0
 40
1
 40
1
 40
1
 40
1
 10
606.058288
 20
-137.096319
 30
0.0
 10
609.824631
 20
-129.888540
 30
0.0
 10
609.274298
 20
-121.184806
 30
0.0
 10
604.630331
 20
-114.508522
 30
0.0
  0
SPLINE
  5
11a
100
AcDbEntity
  8
0
 62
7
100
AcDbSpline
 70
8
 71
3
 72
8
 73
4
 74
0
 40
0
 40
0
 40
0
 40
0
 40
1
 40
1
 40
1
 40
1
 10
604.630331
 20
-114.508522
 30
0.0
 10
599.986100
 20
-107.832238
 30
0.0
 10
592.017115
 20
-104.289097
 30
0.0
 10
583.949175
 20
-105.313299
 30
0.0
  0
LINE
  5
11b
100
AcDbEntity
  8
0
 62
7
100
AcDbLine
 10
583.949175
 20
-105.313299
 30
0.0
 11
583.949175
 21
-105.313299
 31
0.0
  0
SPLINE
  5
11c
100
AcDbEntity
  8
0
 62
7
100
AcDbSpline
 70
8
 71
3
 72
8
 73
4
 74
0
 40
0
 40
0
 40
0
 40
0
 40
1
 40
1
 40
1
 40
1
 10
583.949175
 20
-105.313299
 30
0.0
 10
577.948954
 20
-106.075008
 30
0.0
 10
572.088036
 20
-103.113050
 30
0.0
 10
569.142430
 20
-97.830300
 30
0.0
  0
SPLINE
  5
11d
100
AcDbEntity
  8
0
 62
7
100
AcDbSpline
 70
8
 71
3
 72
8
 73
4
 74
0
 40
0
 40
0
 40
0
 40
0
 40
1
 40
1
 40
1
 40
1
 10
569.142430
 20
-97.830300
 30
0.0
 10
566.196824
 20
-92.547550
 30
0.0
 10
566.757979
 20
-86.004695
 30
0.0
 10
570.560094
 20
-81.300694
 30
0.0
  0
SPLINE
  5
11e
100
AcDbEntity
  8
0
 62
7
100
AcDbSpline
 70
8
 71
3
 72
8
 73
4
 74
0
 40
0
 40
0
 40
0
 40
0
 40
1
 40
1
 40
1
 40
1
 10
570.560094
 20
-81.300694
 30
0.0
 10
574.362236
 20
-76.596667
 30
0.0
 10
580.641910
 20
-74.675951
 30
0.0
 10
586.424881
 20
-76.448262
 30
0.0
  0
SPLINE
  5
11f
100
AcDbEntity
  8
0
 62
7
100
AcDbSpline
 70
8
 71
3
 72
8
 73
4
 74
0
 40
0
 40
0
 40
0
 40
0
 40
1
 40
1
 40
1
 40
1
 10
589.958392
 20
67.456760
 30
0.0
 10
594.037208
 20
64.897446
 30
0.0
 10
599.243150
 20
64.992167
 30
0.0
 10
603.226188
 20
67.697796
 30
0.0
  0
SPLINE
  5
120
100
AcDbEntity
  8
0
 62
7
100
AcDbSpline
 70
8
 71
3
 72
8
 73
4
 74
0
 40
0
 40
0
 40
0
 40
0
 40
1
 40
1
 40
1
 40
1
 10
603.226188
 20
67.697796
 30
0.0
 10
607.209225
 20
70.403690
 30
0.0
 10
609.215296
 20
75.208523
 30
0.0
 10
608.338996
 20
79.943242
 30
0.0
  0
SPLINE
  5
121
100
AcDbEntity
  8
0
 62
7
100
AcDbSpline
 70
8
 71
3
 72
8
 73
4
 74
0
 40
0
 40
0
 40
0
 40
0
 40
1
 40
1
 40
1
 40
1
 10
608.338996
 20
79.943242
 30
0.0
 10
607.462696
 20
84.677696
 30
0.0
 10
603.869654
 20
88.446421
 30
0.0
 10
599.182031
 20
89.547352
 30
0.0
  0
LINE
  5
122
100
AcDbEntity
  8
0
 62
7
100
AcDbLine
 10
599.182031
 20
89.547352
 30
0.0
 11
599.182031
 21
89.547352
 31
0.0
  0
SPLINE
  5
123
100
AcDbEntity
  8
0
 62
7
100
AcDbSpline
 70
8
 71
3
 72
8
 73
4
 74
0
 40
0
 40
0
 40
0
 40
0
 40
1
 40
1
 40
1
 40
1
 10
599.182031
 20
89.547352
 30
0.0
 10
570.533821
 20
96.275971
 30
0.0
 10
540.716179
 20
96.275971
 30
0.0
 10
512.067969
 20
89.547352
 30
0.0
  0
LINE
  5
124
100
AcDbEntity
  8
0
 62
7
100
AcDbLine
 10
512.067969
 20
89.547352
 30
0.0
 11
512.067969
 21
89.547352
 31
0.0
  0
SPLINE
  5
125
100
AcDbEntity
  8
0
 62
7
100
AcDbSpline
 70
8
 71
3
 72
8
 73
4
 74
0
 40
0
 40
0
 40
0
 40
0
 40
1
 40
1
 40
1
 40
1
 10
512.067969
 20
89.547352
 30
0.0
 10
507.380346
 20
88.446421
 30
0.0
 10
503.787304
 20
84.677696
 30
0.0
 10
502.911004
 20
79.943242
 30
0.0
  0
SPLINE
  5
126
100
AcDbEntity
  8
0
 62
7
100
AcDbSpline
 70
8
 71
3
 72
8
 73
4
 74
0
 40
0
 40
0
 40
0
 40
0
 40
1
 40
1
 40
1
 40
1
 10
502.911004
 20
79.943242
 30
0.0
 10
502.034704
 20
75.208523
 30
0.0
 10
504.040775
 20
70.403690
 30
0.0
 10
508.023813
 20
67.697796
 30
0.0
  0
SPLINE
  5
127
100
AcDbEntity
  8
0
 62
7
100
AcDbSpline
 70
8
 71
3
 72
8
 73
4
 74
0
 40
0
 40
0
 40
0
 40
0
 40
1
 40
1
 40
1
 40
1
 10
508.023813
 20
67.697796
 30
0.0
 10
512.006850
 20
64.992167
 30
0.0
 10
517.212792
 20
64.897446
 30
0.0
 10
521.291608
 20
67.456760
 30
0.0
  0
LINE
  5
128
100
AcDbEntity
  8
0
 62
7
100
AcDbLine
 10
521.291608
 20
67.456760
 30
0.0
 11
521.291608
 21
67.456760
 31
0.0
  0
SPLINE
  5
129
100
AcDbEntity
  8
0
 62
7
100
AcDbSpline
 70
8
 71
3
 72
8
 73
4
 74
0
 40
0
 40
0
 40
0
 40
0
 40
1
 40
1
 40
1
 40
1
 10
521.291608
 20
67.456760
 30
0.0
 10
526.818754
 20
70.924919
 30
0.0
 10
533.964383
 20
70.369029
 30
0.0
 10
538.888570
 20
66.087277
 30
0.0
  0
SPLINE
  5
12a
100
AcDbEntity
  8
0
 62
7
100
AcDbSpline
 70
8
 71
3
 72
8
 73
4
 74
0
 40
0
 40
0
 40
0
 40
0
 40
1
 40
1
 40
1
 40
1
 10
538.888570
 20
66.087277
 30
0.0
 10
543.812783
 20
61.805790
 30
0.0
 10
545.356283
 20
54.806767
 30
0.0
 10
542.689627
 20
48.851260
 30
0.0
  0
SPLINE
  5
12b
100
AcDbEntity
  8
0
 62
7
100
AcDbSpline
 70
8
 71
3
 72
8
 73
4
 74
0
 40
0
 40
0
 40
0
 40
0
 40
1
 40
1
 40
1
 40
1
 10
542.689627
 20
48.851260
 30
0.0
 10
540.022997
 20
42.895754
 30
0.0
 10
533.774094
 20
39.385792
 30
0.0
 10
527.300825
 20
40.207588
 30
0.0
  0
LINE
  5
12c
100
AcDbEntity
  8
0
 62
7
100
AcDbLine
 10
527.300825
 20
40.207588
 30
0.0
 11
527.300825
 21
40.207588
 31
0.0
  0
SPLINE
  5
12d
100
AcDbEntity
  8
0
 62
7
100
AcDbSpline
 70
8
 71
3
 72
8
 73
4
 74
0
 40
0
 40
0
 40
0
 40
0
 40
1
 40
1
 40
1
 40
1
 10
527.300825
 20
40.207588
 30
0.0
 10
519.232885
 20
41.231790
 30
0.0
 10
511.263900
 20
37.688490
 30
0.0
 10
506.619669
 20
31.012258
 30
0.0
  0
SPLINE
  5
12e
100
AcDbEntity
  8
0
 62
7
100
AcDbSpline
 70
8
 71
3
 72
8
 73
4
 74
0
 40
0
 40
0
 40
0
 40
0
 40
1
 40
1
 40
1
 40
1
 10
506.619669
 20
31.012258
 30
0.0
 10
501.975702
 20
24.336027
 30
0.0
 10
501.425369
 20
15.632294
 30
0.0
 10
505.191713
 20
8.424515
 30
0.0
  0
SPLINE
  5
12f
100
AcDbEntity
  8
0
 62
7
100
AcDbSpline
 70
8
 71
3
 72
8
 73
4
 74
0
 40
0
 40
0
 40
0
 40
0
 40
1
 40
1
 40
1
 40
1
 10
505.191713
 20
8.424515
 30
0.0
 10
508.958321
 20
1.216471
 30
0.0
 10
516.417454
 20
-3.302083
 30
0.0
 10
524.550217
 20
-3.302083
 30
0.0
  0
LINE
  5
130
100
AcDbEntity
  8
0
 62
7
100
AcDbLine
 10
524.550217
 20
-3.302083
 30
0.0
 11
524.550217
 21
-3.302083
 31
0.0
  0
LINE
  5
131
100
AcDbEntity
  8
0
 62
7
100
AcDbLine
 10
524.550217
 20
-3.302083
 30
0.0
 11
586.699783
 21
-3.302083
 31
0.0
  0
LINE
  5
132
100
AcDbEntity
  8
0
 62
7
100
AcDbLine
 10
586.699783
 20
-3.302083
 30
0.0
 11
586.699783
 21
-3.302083
 31
0.0
  0
SPLINE
  5
133
100
AcDbEntity
  8
0
 62
7
100
AcDbSpline
 70
8
 71
3
 72
8
 73
4
 74
0
 40
0
 40
0
 40
0
 40
0
 40
1
 40
1
 40
1
 40
1
 10
586.699783
 20
-3.302083
 30
0.0
 10
594.832546
 20
-3.302083
 30
0.0
 10
602.291679
 20
1.216471
 30
0.0
 10
606.058288
 20
8.424515
 30
0.0
  0
SPLINE
  5
134
100
AcDbEntity
  8
0
 62
7
100
AcDbSpline
 70
8
 71
3
 72
8
 73
4
 74
0
 40
0
 40
0
 40
0
 40
0
 40
1
 40
1
 40
1
 40
1
 10
606.058288
 20
8.424515
 30
0.0
 10
609.824631
 20
15.632294
 30
0.0
 10
609.274298
 20
24.336027
 30
0.0
 10
604.630331
 20
31.012258
 30
0.0
  0
SPLINE
  5
135
100
AcDbEntity
  8
0
 62
7
100
AcDbSpline
 70
8
 71
3
 72
8
 73
4
 74
0
 40
0
 40
0
 40
0
 40
0
 40
1
 40
1
 40
1
 40
1
 10
604.630331
 20
31.012258
 30
0.0
 10
599.986100
 20
37.688490
 30
0.0
 10
592.017115
 20
41.231790
 30
0.0
 10
583.949175
 20
40.207588
 30
0.0
  0
LINE
  5
136
100
AcDbEntity
  8
0
 62
7
100
AcDbLine
 10
583.949175
 20
40.207588
 30
0.0
 11
583.949175
 21
40.207588
 31
0.0
  0
SPLINE
  5
137
100
AcDbEntity
  8
0
 62
7
100
AcDbSpline
 70
8
 71
3
 72
8
 73
4
 74
0
 40
0
 40
0
 40
0
 40
0
 40
1
 40
1
 40
1
 40
1
 10
583.949175
 20
40.207588
 30
0.0
 10
577.475906
 20
39.385792
 30
0.0
 10
571.227003
 20
42.895754
 30
0.0
 10
568.560373
 20
48.851260
 30
0.0
  0
SPLINE
  5
138
100
AcDbEntity
  8
0
 62
7
100
AcDbSpline
 70
8
 71
3
 72
8
 73
4
 74
0
 40
0
 40
0
 40
0
 40
0
 40
1
 40
1
 40
1
 40
1
 10
568.560373
 20
48.851260
 30
0.0
 10
565.893717
 20
54.806767
 30
0.0
 10
567.437217
 20
61.805790
 30
0.0
 10
572.361430
 20
66.087277
 30
0.0
  0
SPLINE
  5
139
100
AcDbEntity
  8
0
 62
7
100
AcDbSpline
 70
8
 71
3
 72
8
 73
4
 74
0
 40
0
 40
0
 40
0
 40
0
 40
1
 40
1
 40
1
 40
1
 10
572.361430
 20
66.087277
 30
0.0
 10
577.285617
 20
70.369029
 30
0.0
 10
584.431246
 20
70.924919
 30
0.0
 10
589.958392
 20
67.456760
 30
0.0
  0
SPLINE
  5
13a
100
AcDbEntity
  8
0
 62
7
100
AcDbSpline
 70
8
 71
3
 72
8
 73
4
 74
0
 40
0
 40
0
 40
0
 40
0
 40
1
 40
1
 40
1
 40
1
 10
714.268373
 20
-43.958487
 30
0.0
 10
714.091102
 20
-48.770200
 30
0.0
 10
716.776094
 20
-53.231604
 30
0.0
 10
721.110763
 20
-55.327898
 30
0.0
  0
SPLINE
  5
13b
100
AcDbEntity
  8
0
 62
7
100
AcDbSpline
 70
8
 71
3
 72
8
 73
4
 74
0
 40
0
 40
0
 40
0
 40
0
 40
1
 40
1
 40
1
 40
1
 10
721.110763
 20
-55.327898
 30
0.0
 10
725.445696
 20
-57.424456
 30
0.0
 10
730.609833
 20
-56.759558
 30
0.0
 10
734.271931
 20
-53.633242
 30
0.0
  0
SPLINE
  5
13c
100
AcDbEntity
  8
0
 62
7
100
AcDbSpline
 70
8
 71
3
 72
8
 73
4
 74
0
 40
0
 40
0
 40
0
 40
0
 40
1
 40
1
 40
1
 40
1
 10
734.271931
 20
-53.633242
 30
0.0
 10
737.934294
 20
-50.506925
 30
0.0
 10
739.401408
 20
-45.511062
 30
0.0
 10
738.011023
 20
-40.900962
 30
0.0
  0
LINE
  5
13d
100
AcDbEntity
  8
0
 62
7
100
AcDbLine
 10
738.011023
 20
-40.900962
 30
0.0
 11
738.011023
 21
-40.900962
 31
0.0
  0
SPLINE
  5
13e
100
AcDbEntity
  8
0
 62
7
100
AcDbSpline
 70
8
 71
3
 72
8
 73
4
 74
0
 40
0
 40
0
 40
0
 40
0
 40
1
 40
1
 40
1
 40
1
 10
738.011023
 20
-40.900962
 30
0.0
 10
729.513929
 20
-12.726542
 30
0.0
 10
714.605187
 20
13.096263
 30
0.0
 10
694.453992
 20
34.542065
 30
0.0
  0
LINE
  5
13f
100
AcDbEntity
  8
0
 62
7
100
AcDbLine
 10
694.453992
 20
34.542065
 30
0.0
 11
694.453992
 21
34.542065
 31
0.0
  0
SPLINE
  5
140
100
AcDbEntity
  8
0
 62
7
100
AcDbSpline
 70
8
 71
3
 72
8
 73
4
 74
0
 40
0
 40
0
 40
0
 40
0
 40
1
 40
1
 40
1
 40
1
 10
694.453992
 20
34.542065
 30
0.0
 10
691.156754
 20
38.051233
 30
0.0
 10
686.096598
 20
39.278635
 30
0.0
 10
681.557935
 20
37.670233
 30
0.0
  0
SPLINE
  5
141
100
AcDbEntity
  8
0
 62
7
100
AcDbSpline
 70
8
 71
3
 72
8
 73
4
 74
0
 40
0
 40
0
 40
0
 40
0
 40
1
 40
1
 40
1
 40
1
 10
681.557935
 20
37.670233
 30
0.0
 10
677.019538
 20
36.061831
 30
0.0
 10
673.861471
 20
31.921896
 30
0.0
 10
673.509840
 20
27.119708
 30
0.0
  0
SPLINE
  5
142
100
AcDbEntity
  8
0
 62
7
100
AcDbSpline
 70
8
 71
3
 72
8
 73
4
 74
0
 40
0
 40
0
 40
0
 40
0
 40
1
 40
1
 40
1
 40
1
 10
673.509840
 20
27.119708
 30
0.0
 10
673.157944
 20
22.317256
 30
0.0
 10
675.679158
 20
17.761396
 30
0.0
 10
679.934717
 20
15.508998
 30
0.0
  0
LINE
  5
143
100
AcDbEntity
  8
0
 62
7
100
AcDbLine
 10
679.934717
 20
15.508998
 30
0.0
 11
679.934717
 21
15.508998
 31
0.0
  0
SPLINE
  5
144
100
AcDbEntity
  8
0
 62
7
100
AcDbSpline
 70
8
 71
3
 72
8
 73
4
 74
0
 40
0
 40
0
 40
0
 40
0
 40
1
 40
1
 40
1
 40
1
 10
679.934717
 20
15.508998
 30
0.0
 10
685.702104
 20
12.456235
 30
0.0
 10
688.793231
 20
5.990083
 30
0.0
 10
687.547308
 20
-0.415215
 30
0.0
  0
SPLINE
  5
145
100
AcDbEntity
  8
0
 62
7
100
AcDbSpline
 70
8
 71
3
 72
8
 73
4
 74
0
 40
0
 40
0
 40
0
 40
0
 40
1
 40
1
 40
1
 40
1
 10
687.547308
 20
-0.415215
 30
0.0
 10
686.301650
 20
-6.820512
 30
0.0
 10
681.012100
 20
-11.656831
 30
0.0
 10
674.521077
 20
-12.325169
 30
0.0
  0
SPLINE
  5
146
100
AcDbEntity
  8
0
 62
7
100
AcDbSpline
 70
8
 71
3
 72
8
 73
4
 74
0
 40
0
 40
0
 40
0
 40
0
 40
1
 40
1
 40
1
 40
1
 10
674.521077
 20
-12.325169
 30
0.0
 10
668.030054
 20
-12.993506
 30
0.0
 10
661.865792
 20
-9.336700
 30
0.0
 10
659.340873
 20
-3.319810
 30
0.0
  0
LINE
  5
147
100
AcDbEntity
  8
0
 62
7
100
AcDbLine
 10
659.340873
 20
-3.319810
 30
0.0
 11
659.340873
 21
-3.319810
 31
0.0
  0
SPLINE
  5
148
100
AcDbEntity
  8
0
 62
7
100
AcDbSpline
 70
8
 71
3
 72
8
 73
4
 74
0
 40
0
 40
0
 40
0
 40
0
 40
1
 40
1
 40
1
 40
1
 10
659.340873
 20
-3.319810
 30
0.0
 10
656.193919
 20
4.179275
 30
0.0
 10
649.140921
 20
9.309017
 30
0.0
 10
641.036998
 20
9.992700
 30
0.0
  0
SPLINE
  5
149
100
AcDbEntity
  8
0
 62
7
100
AcDbSpline
 70
8
 71
3
 72
8
 73
4
 74
0
 40
0
 40
0
 40
0
 40
0
 40
1
 40
1
 40
1
 40
1
 10
641.036998
 20
9.992700
 30
0.0
 10
632.933075
 20
10.676648
 30
0.0
 10
625.120458
 20
6.801296
 30
0.0
 10
620.761448
 20
-0.064377
 30
0.0
  0
SPLINE
  5
14a
100
AcDbEntity
  8
0
 62
7
100
AcDbSpline
 70
8
 71
3
 72
8
 73
4
 74
0
 40
0
 40
0
 40
0
 40
0
 40
1
 40
1
 40
1
 40
1
 10
620.761448
 20
-0.064377
 30
0.0
 10
616.402173
 20
-6.930315
 30
0.0
 10
616.218817
 20
-15.649394
 30
0.0
 10
620.285198
 20
-22.692602
 30
0.0
  0
LINE
  5
14b
100
AcDbEntity
  8
0
 62
7
100
AcDbLine
 10
620.285198
 20
-22.692602
 30
0.0
 11
620.285198
 21
-22.692602
 31
0.0
  0
LINE
  5
14c
100
AcDbEntity
  8
0
 62
7
100
AcDbLine
 10
620.285198
 20
-22.692602
 30
0.0
 11
651.359981
 21
-76.515837
 31
0.0
  0
LINE
  5
14d
100
AcDbEntity
  8
0
 62
7
100
AcDbLine
 10
651.359981
 20
-76.515837
 30
0.0
 11
651.359981
 21
-76.515837
 31
0.0
  0
SPLINE
  5
14e
100
AcDbEntity
  8
0
 62
7
100
AcDbSpline
 70
8
 71
3
 72
8
 73
4
 74
0
 40
0
 40
0
 40
0
 40
0
 40
1
 40
1
 40
1
 40
1
 10
651.359981
 20
-76.515837
 30
0.0
 10
655.426362
 20
-83.558940
 30
0.0
 10
663.069117
 20
-87.759570
 30
0.0
 10
671.194471
 20
-87.417358
 30
0.0
  0
SPLINE
  5
14f
100
AcDbEntity
  8
0
 62
7
100
AcDbSpline
 70
8
 71
3
 72
8
 73
4
 74
0
 40
0
 40
0
 40
0
 40
0
 40
1
 40
1
 40
1
 40
1
 10
671.194471
 20
-87.417358
 30
0.0
 10
679.320090
 20
-87.075146
 30
0.0
 10
686.582637
 20
-82.246791
 30
0.0
 10
690.042329
 20
-74.886718
 30
0.0
  0
SPLINE
  5
150
100
AcDbEntity
  8
0
 62
7
100
AcDbSpline
 70
8
 71
3
 72
8
 73
4
 74
0
 40
0
 40
0
 40
0
 40
0
 40
1
 40
1
 40
1
 40
1
 10
690.042329
 20
-74.886718
 30
0.0
 10
693.502021
 20
-67.526512
 30
0.0
 10
692.586033
 20
-58.853735
 30
0.0
 10
687.665048
 20
-52.378852
 30
0.0
  0
LINE
  5
151
100
AcDbEntity
  8
0
 62
7
100
AcDbLine
 10
687.665048
 20
-52.378852
 30
0.0
 11
687.665048
 21
-52.378852
 31
0.0
  0
SPLINE
  5
152
100
AcDbEntity
  8
0
 62
7
100
AcDbSpline
 70
8
 71
3
 72
8
 73
4
 74
0
 40
0
 40
0
 40
0
 40
0
 40
1
 40
1
 40
1
 40
1
 10
687.665048
 20
-52.378852
 30
0.0
 10
683.716671
 20
-47.183758
 30
0.0
 10
683.632004
 20
-40.016990
 30
0.0
 10
687.456292
 20
-34.729821
 30
0.0
  0
SPLINE
  5
153
100
AcDbEntity
  8
0
 62
7
100
AcDbSpline
 70
8
 71
3
 72
8
 73
4
 74
0
 40
0
 40
0
 40
0
 40
0
 40
1
 40
1
 40
1
 40
1
 10
687.456292
 20
-34.729821
 30
0.0
 10
691.280844
 20
-29.442652
 30
0.0
 10
698.113708
 20
-27.279948
 30
0.0
 10
704.283792
 20
-29.403494
 30
0.0
  0
SPLINE
  5
154
100
AcDbEntity
  8
0
 62
7
100
AcDbSpline
 70
8
 71
3
 72
8
 73
4
 74
0
 40
0
 40
0
 40
0
 40
0
 40
1
 40
1
 40
1
 40
1
 10
704.283792
 20
-29.403494
 30
0.0
 10
710.453875
 20
-31.527304
 30
0.0
 10
714.508085
 20
-37.437567
 30
0.0
 10
714.268373
 20
-43.958487
 30
0.0
  0
SPLINE
  5
155
100
AcDbEntity
  8
0
 62
7
100
AcDbSpline
 70
8
 71
3
 72
8
 73
4
 74
0
 40
0
 40
0
 40
0
 40
0
 40
1
 40
1
 40
1
 40
1
 10
423.584952
 20
-52.378852
 30
0.0
 10
418.663967
 20
-58.853735
 30
0.0
 10
417.747979
 20
-67.526512
 30
0.0
 10
421.207671
 20
-74.886718
 30
0.0
  0
SPLINE
  5
156
100
AcDbEntity
  8
0
 62
7
100
AcDbSpline
 70
8
 71
3
 72
8
 73
4
 74
0
 40
0
 40
0
 40
0
 40
0
 40
1
 40
1
 40
1
 40
1
 10
421.207671
 20
-74.886718
 30
0.0
 10
424.667363
 20
-82.246791
 30
0.0
 10
431.929910
 20
-87.075146
 30
0.0
 10
440.055529
 20
-87.417358
 30
0.0
  0
SPLINE
  5
157
100
AcDbEntity
  8
0
 62
7
100
AcDbSpline
 70
8
 71
3
 72
8
 73
4
 74
0
 40
0
 40
0
 40
0
 40
0
 40
1
 40
1
 40
1
 40
1
 10
440.055529
 20
-87.417358
 30
0.0
 10
448.180883
 20
-87.759570
 30
0.0
 10
455.823638
 20
-83.558940
 30
0.0
 10
459.890019
 20
-76.515837
 30
0.0
  0
LINE
  5
158
100
AcDbEntity
  8
0
 62
7
100
AcDbLine
 10
459.890019
 20
-76.515837
 30
0.0
 11
459.890019
 21
-76.515837
 31
0.0
  0
LINE
  5
159
100
AcDbEntity
  8
0
 62
7
100
AcDbLine
 10
459.890019
 20
-76.515837
 30
0.0
 11
490.964802
 21
-22.692602
 31
0.0
  0
LINE
  5
15a
100
AcDbEntity
  8
0
 62
7
100
AcDbLine
 10
490.964802
 20
-22.692602
 30
0.0
 11
490.964802
 21
-22.692602
 31
0.0
  0
SPLINE
  5
15b
100
AcDbEntity
  8
0
 62
7
100
AcDbSpline
 70
8
 71
3
 72
8
 73
4
 74
0
 40
0
 40
0
 40
0
 40
0
 40
1
 40
1
 40
1
 40
1
 10
490.964802
 20
-22.692602
 30
0.0
 10
495.031183
 20
-15.649394
 30
0.0
 10
494.847827
 20
-6.930315
 30
0.0
 10
490.488552
 20
-0.064377
 30
0.0
  0
SPLINE
  5
15c
100
AcDbEntity
  8
0
 62
7
100
AcDbSpline
 70
8
 71
3
 72
8
 73
4
 74
0
 40
0
 40
0
 40
0
 40
0
 40
1
 40
1
 40
1
 40
1
 10
490.488552
 20
-0.064377
 30
0.0
 10
486.129542
 20
6.801296
 30
0.0
 10
478.316925
 20
10.676648
 30
0.0
 10
470.213002
 20
9.992700
 30
0.0
  0
SPLINE
  5
15d
100
AcDbEntity
  8
0
 62
7
100
AcDbSpline
 70
8
 71
3
 72
8
 73
4
 74
0
 40
0
 40
0
 40
0
 40
0
 40
1
 40
1
 40
1
 40
1
 10
470.213002
 20
9.992700
 30
0.0
 10
462.109079
 20
9.309017
 30
0.0
 10
455.056081
 20
4.179275
 30
0.0
 10
451.909127
 20
-3.319810
 30
0.0
  0
LINE
  5
15e
100
AcDbEntity
  8
0
 62
7
100
AcDbLine
 10
451.909127
 20
-3.319810
 30
0.0
 11
451.909127
 21
-3.319810
 31
0.0
  0
SPLINE
  5
15f
100
AcDbEntity
  8
0
 62
7
100
AcDbSpline
 70
8
 71
3
 72
8
 73
4
 74
0
 40
0
 40
0
 40
0
 40
0
 40
1
 40
1
 40
1
 40
1
 10
451.909127
 20
-3.319810
 30
0.0
 10
449.384208
 20
-9.336700
 30
0.0
 10
443.219946
 20
-12.993506
 30
0.0
 10
436.728923
 20
-12.325169
 30
0.0
  0
SPLINE
  5
160
100
AcDbEntity
  8
0
 62
7
100
AcDbSpline
 70
8
 71
3
 72
8
 73
4
 74
0
 40
0
 40
0
 40
0
 40
0
 40
1
 40
1
 40
1
 40
1
 10
436.728923
 20
-12.325169
 30
0.0
 10
430.237900
 20
-11.656831
 30
0.0
 10
424.948350
 20
-6.820512
 30
0.0
 10
423.702692
 20
-0.415215
 30
0.0
  0
SPLINE
  5
161
100
AcDbEntity
  8
0
 62
7
100
AcDbSpline
 70
8
 71
3
 72
8
 73
4
 74
0
 40
0
 40
0
 40
0
 40
0
 40
1
 40
1
 40
1
 40
1
 10
423.702692
 20
-0.415215
 30
0.0
 10
422.456769
 20
5.990083
 30
0.0
 10
425.547896
 20
12.456235
 30
0.0
 10
431.315283
 20
15.508998
 30
0.0
  0
LINE
  5
162
100
AcDbEntity
  8
0
 62
7
100
AcDbLine
 10
431.315283
 20
15.508998
 30
0.0
 11
431.315283
 21
15.508998
 31
0.0
  0
SPLINE
  5
163
100
AcDbEntity
  8
0
 62
7
100
AcDbSpline
 70
8
 71
3
 72
8
 73
4
 74
0
 40
0
 40
0
 40
0
 40
0
 40
1
 40
1
 40
1
 40
1
 10
431.315283
 20
15.508998
 30
0.0
 10
435.570842
 20
17.761396
 30
0.0
 10
438.092056
 20
22.317256
 30
0.0
 10
437.740160
 20
27.119708
 30
0.0
  0
SPLINE
  5
164
100
AcDbEntity
  8
0
 62
7
100
AcDbSpline
 70
8
 71
3
 72
8
 73
4
 74
0
 40
0
 40
0
 40
0
 40
0
 40
1
 40
1
 40
1
 40
1
 10
437.740160
 20
27.119708
 30
0.0
 10
437.388529
 20
31.921896
 30
0.0
 10
434.230462
 20
36.061831
 30
0.0
 10
429.692065
 20
37.670233
 30
0.0
  0
SPLINE
  5
165
100
AcDbEntity
  8
0
 62
7
100
AcDbSpline
 70
8
 71
3
 72
8
 73
4
 74
0
 40
0
 40
0
 40
0
 40
0
 40
1
 40
1
 40
1
 40
1
 10
429.692065
 20
37.670233
 30
0.0
 10
425.153402
 20
39.278635
 30
0.0
 10
420.093246
 20
38.051233
 30
0.0
 10
416.796008
 20
34.542065
 30
0.0
  0
LINE
  5
166
100
AcDbEntity
  8
0
 62
7
100
AcDbLine
 10
416.796008
 20
34.542065
 30
0.0
 11
416.796008
 21
34.542065
 31
0.0
  0
SPLINE
  5
167
100
AcDbEntity
  8
0
 62
7
100
AcDbSpline
 70
8
 71
3
 72
8
 73
4
 74
0
 40
0
 40
0
 40
0
 40
0
 40
1
 40
1
 40
1
 40
1
 10
416.796008
 20
34.542065
 30
0.0
 10
396.644813
 20
13.096263
 30
0.0
 10
381.736071
 20
-12.726542
 30
0.0
 10
373.238977
 20
-40.900962
 30
0.0
  0
LINE
  5
168
100
AcDbEntity
  8
0
 62
7
100
AcDbLine
 10
373.238977
 20
-40.900962
 30
0.0
 11
373.238977
 21
-40.900962
 31
0.0
  0
SPLINE
  5
169
100
AcDbEntity
  8
0
 62
7
100
AcDbSpline
 70
8
 71
3
 72
8
 73
4
 74
0
 40
0
 40
0
 40
0
 40
0
 40
1
 40
1
 40
1
 40
1
 10
373.238977
 20
-40.900962
 30
0.0
 10
371.848592
 20
-45.511062
 30
0.0
 10
373.315706
 20
-50.506925
 30
0.0
 10
376.978069
 20
-53.633242
 30
0.0
  0
SPLINE
  5
16a
100
AcDbEntity
  8
0
 62
7
100
AcDbSpline
 70
8
 71
3
 72
8
 73
4
 74
0
 40
0
 40
0
 40
0
 40
0
 40
1
 40
1
 40
1
 40
1
 10
376.978069
 20
-53.633242
 30
0.0
 10
380.640167
 20
-56.759558
 30
0.0
 10
385.804304
 20
-57.424456
 30
0.0
 10
390.139238
 20
-55.327898
 30
0.0
  0
SPLINE
  5
16b
100
AcDbEntity
  8
0
 62
7
100
AcDbSpline
 70
8
 71
3
 72
8
 73
4
 74
0
 40
0
 40
0
 40
0
 40
0
 40
1
 40
1
 40
1
 40
1
 10
390.139238
 20
-55.327898
 30
0.0
 10
394.473906
 20
-53.231604
 30
0.0
 10
397.158898
 20
-48.770200
 30
0.0
 10
396.981627
 20
-43.958487
 30
0.0
  0
LINE
  5
16c
100
AcDbEntity
  8
0
 62
7
100
AcDbLine
 10
396.981627
 20
-43.958487
 30
0.0
 11
396.981627
 21
-43.958487
 31
0.0
  0
SPLINE
  5
16d
100
AcDbEntity
  8
0
 62
7
100
AcDbSpline
 70
8
 71
3
 72
8
 73
4
 74
0
 40
0
 40
0
 40
0
 40
0
 40
1
 40
1
 40
1
 40
1
 10
396.981627
 20
-43.958487
 30
0.0
 10
396.741915
 20
-37.437567
 30
0.0
 10
400.796125
 20
-31.527304
 30
0.0
 10
406.966208
 20
-29.403494
 30
0.0
  0
SPLINE
  5
16e
100
AcDbEntity
  8
0
 62
7
100
AcDbSpline
 70
8
 71
3
 72
8
 73
4
 74
0
 40
0
 40
0
 40
0
 40
0
 40
1
 40
1
 40
1
 40
1
 10
406.966208
 20
-29.403494
 30
0.0
 10
413.136292
 20
-27.279948
 30
0.0
 10
419.969156
 20
-29.442652
 30
0.0
 10
423.793708
 20
-34.729821
 30
0.0
  0
SPLINE
  5
16f
100
AcDbEntity
  8
0
 62
7
100
AcDbSpline
 70
8
 71
3
 72
8
 73
4
 74
0
 40
0
 40
0
 40
0
 40
0
 40
1
 40
1
 40
1
 40
1
 10
423.793708
 20
-34.729821
 30
0.0
 10
427.617996
 20
-40.016990
 30
0.0
 10
427.533329
 20
-47.183758
 30
0.0
 10
423.584952
 20
-52.378852
 30
0.0
  0
SPLINE
  5
170
100
AcDbEntity
  8
0
 62
7
100
AcDbSpline
 70
8
 71
3
 72
8
 73
4
 74
0
 40
0
 40
0
 40
0
 40
0
 40
1
 40
1
 40
1
 40
1
 10
679.934717
 20
-207.321498
 30
0.0
 10
675.679158
 20
-209.573896
 30
0.0
 10
673.157944
 20
-214.129756
 30
0.0
 10
673.509840
 20
-218.932208
 30
0.0
  0
SPLINE
  5
171
100
AcDbEntity
  8
0
 62
7
100
AcDbSpline
 70
8
 71
3
 72
8
 73
4
 74
0
 40
0
 40
0
 40
0
 40
0
 40
1
 40
1
 40
1
 40
1
 10
673.509840
 20
-218.932208
 30
0.0
 10
673.861471
 20
-223.734396
 30
0.0
 10
677.019537
 20
-227.874331
 30
0.0
 10
681.557935
 20
-229.482733
 30
0.0
  0
SPLINE
  5
172
100
AcDbEntity
  8
0
 62
7
100
AcDbSpline
 70
8
 71
3
 72
8
 73
4
 74
0
 40
0
 40
0
 40
0
 40
0
 40
1
 40
1
 40
1
 40
1
 10
681.557935
 20
-229.482733
 30
0.0
 10
686.096598
 20
-231.091135
 30
0.0
 10
691.156754
 20
-229.863733
 30
0.0
 10
694.453992
 20
-226.354565
 30
0.0
  0
LINE
  5
173
100
AcDbEntity
  8
0
 62
7
100
AcDbLine
 10
694.453992
 20
-226.354565
 30
0.0
 11
694.453992
 21
-226.354565
 31
0.0
  0
SPLINE
  5
174
100
AcDbEntity
  8
0
 62
7
100
AcDbSpline
 70
8
 71
3
 72
8
 73
4
 74
0
 40
0
 40
0
 40
0
 40
0
 40
1
 40
1
 40
1
 40
1
 10
694.453992
 20
-226.354565
 30
0.0
 10
714.605187
 20
-204.908762
 30
0.0
 10
729.513929
 20
-179.085958
 30
0.0
 10
738.011023
 20
-150.911537
 30
0.0
  0
LINE
  5
175
100
AcDbEntity
  8
0
 62
7
100
AcDbLine
 10
738.011023
 20
-150.911537
 30
0.0
 11
738.011023
 21
-150.911537
 31
0.0
  0
SPLINE
  5
176
100
AcDbEntity
  8
0
 62
7
100
AcDbSpline
 70
8
 71
3
 72
8
 73
4
 74
0
 40
0
 40
0
 40
0
 40
0
 40
1
 40
1
 40
1
 40
1
 10
738.011023
 20
-150.911537
 30
0.0
 10
739.401408
 20
-146.301437
 30
0.0
 10
737.934294
 20
-141.305575
 30
0.0
 10
734.271931
 20
-138.179258
 30
0.0
  0
SPLINE
  5
177
100
AcDbEntity
  8
0
 62
7
100
AcDbSpline
 70
8
 71
3
 72
8
 73
4
 74
0
 40
0
 40
0
 40
0
 40
0
 40
1
 40
1
 40
1
 40
1
 10
734.271931
 20
-138.179258
 30
0.0
 10
730.609833
 20
-135.052942
 30
0.0
 10
725.445696
 20
-134.388044
 30
0.0
 10
721.110763
 20
-136.484602
 30
0.0
  0
SPLINE
  5
178
100
AcDbEntity
  8
0
 62
7
100
AcDbSpline
 70
8
 71
3
 72
8
 73
4
 74
0
 40
0
 40
0
 40
0
 40
0
 40
1
 40
1
 40
1
 40
1
 10
721.110763
 20
-136.484602
 30
0.0
 10
716.776094
 20
-138.580896
 30
0.0
 10
714.091102
 20
-143.042300
 30
0.0
 10
714.268373
 20
-147.854012
 30
0.0
  0
LINE
  5
179
100
AcDbEntity
  8
0
 62
7
100
AcDbLine
 10
714.268373
 20
-147.854012
 30
0.0
 11
714.268373
 21
-147.854012
 31
0.0
  0
SPLINE
  5
17a
100
AcDbEntity
  8
0
 62
7
100
AcDbSpline
 70
8
 71
3
 72
8
 73
4
 74
0
 40
0
 40
0
 40
0
 40
0
 40
1
 40
1
 40
1
 40
1
 10
714.268373
 20
-147.854012
 30
0.0
 10
714.508085
 20
-154.374933
 30
0.0
 10
710.453875
 20
-160.285196
 30
0.0
 10
704.283792
 20
-162.409006
 30
0.0
  0
SPLINE
  5
17b
100
AcDbEntity
  8
0
 62
7
100
AcDbSpline
 70
8
 71
3
 72
8
 73
4
 74
0
 40
0
 40
0
 40
0
 40
0
 40
1
 40
1
 40
1
 40
1
 10
704.283792
 20
-162.409006
 30
0.0
 10
698.113708
 20
-164.532552
 30
0.0
 10
691.280844
 20
-162.369848
 30
0.0
 10
687.456292
 20
-157.082679
 30
0.0
  0
SPLINE
  5
17c
100
AcDbEntity
  8
0
 62
7
100
AcDbSpline
 70
8
 71
3
 72
8
 73
4
 74
0
 40
0
 40
0
 40
0
 40
0
 40
1
 40
1
 40
1
 40
1
 10
687.456292
 20
-157.082679
 30
0.0
 10
683.632004
 20
-151.795510
 30
0.0
 10
683.716671
 20
-144.628742
 30
0.0
 10
687.665048
 20
-139.433648
 30
0.0
  0
LINE
  5
17d
100
AcDbEntity
  8
0
 62
7
100
AcDbLine
 10
687.665048
 20
-139.433648
 30
0.0
 11
687.665048
 21
-139.433648
 31
0.0
  0
SPLINE
  5
17e
100
AcDbEntity
  8
0
 62
7
100
AcDbSpline
 70
8
 71
3
 72
8
 73
4
 74
0
 40
0
 40
0
 40
0
 40
0
 40
1
 40
1
 40
1
 40
1
 10
687.665048
 20
-139.433648
 30
0.0
 10
692.586033
 20
-132.958765
 30
0.0
 10
693.502021
 20
-124.285987
 30
0.0
 10
690.042329
 20
-116.925782
 30
0.0
  0
SPLINE
  5
17f
100
AcDbEntity
  8
0
 62
7
100
AcDbSpline
 70
8
 71
3
 72
8
 73
4
 74
0
 40
0
 40
0
 40
0
 40
0
 40
1
 40
1
 40
1
 40
1
 10
690.042329
 20
-116.925782
 30
0.0
 10
686.582638
 20
-109.565709
 30
0.0
 10
679.320090
 20
-104.737354
 30
0.0
 10
671.194471
 20
-104.395142
 30
0.0
  0
SPLINE
  5
180
100
AcDbEntity
  8
0
 62
7
100
AcDbSpline
 70
8
 71
3
 72
8
 73
4
 74
0
 40
0
 40
0
 40
0
 40
0
 40
1
 40
1
 40
1
 40
1
 10
671.194471
 20
-104.395142
 30
0.0
 10
663.069117
 20
-104.052930
 30
0.0
 10
655.426363
 20
-108.253560
 30
0.0
 10
651.359981
 20
-115.296663
 30
0.0
  0
LINE
  5
181
100
AcDbEntity
  8
0
 62
7
100
AcDbLine
 10
651.359981
 20
-115.296663
 30
0.0
 11
651.359981
 21
-115.296663
 31
0.0
  0
LINE
  5
182
100
AcDbEntity
  8
0
 62
7
100
AcDbLine
 10
651.359981
 20
-115.296663
 30
0.0
 11
620.285198
 21
-169.119898
 31
0.0
  0
LINE
  5
183
100
AcDbEntity
  8
0
 62
7
100
AcDbLine
 10
620.285198
 20
-169.119898
 30
0.0
 11
620.285198
 21
-169.119898
 31
0.0
  0
SPLINE
  5
184
100
AcDbEntity
  8
0
 62
7
100
AcDbSpline
 70
8
 71
3
 72
8
 73
4
 74
0
 40
0
 40
0
 40
0
 40
0
 40
1
 40
1
 40
1
 40
1
 10
620.285198
 20
-169.119898
 30
0.0
 10
616.218817
 20
-176.163106
 30
0.0
 10
616.402173
 20
-184.882185
 30
0.0
 10
620.761448
 20
-191.748123
 30
0.0
  0
SPLINE
  5
185
100
AcDbEntity
  8
0
 62
7
100
AcDbSpline
 70
8
 71
3
 72
8
 73
4
 74
0
 40
0
 40
0
 40
0
 40
0
 40
1
 40
1
 40
1
 40
1
 10
620.761448
 20
-191.748123
 30
0.0
 10
625.120458
 20
-198.613796
 30
0.0
 10
632.933075
 20
-202.489148
 30
0.0
 10
641.036998
 20
-201.805200
 30
0.0
  0
SPLINE
  5
186
100
AcDbEntity
  8
0
 62
7
100
AcDbSpline
 70
8
 71
3
 72
8
 73
4
 74
0
 40
0
 40
0
 40
0
 40
0
 40
1
 40
1
 40
1
 40
1
 10
641.036998
 20
-201.805200
 30
0.0
 10
649.140921
 20
-201.121517
 30
0.0
 10
656.193919
 20
-195.991775
 30
0.0
 10
659.340873
 20
-188.492690
 30
0.0
  0
LINE
  5
187
100
AcDbEntity
  8
0
 62
7
100
AcDbLine
 10
659.340873
 20
-188.492690
 30
0.0
 11
659.340873
 21
-188.492690
 31
0.0
  0
SPLINE
  5
188
100
AcDbEntity
  8
0
 62
7
100
AcDbSpline
 70
8
 71
3
 72
8
 73
4
 74
0
 40
0
 40
0
 40
0
 40
0
 40
1
 40
1
 40
1
 40
1
 10
659.340873
 20
-188.492690
 30
0.0
 10
661.865792
 20
-182.475800
 30
0.0
 10
668.030054
 20
-178.818994
 30
0.0
 10
674.521077
 20
-179.487331
 30
0.0
  0
SPLINE
  5
189
100
AcDbEntity
  8
0
 62
7
100
AcDbSpline
 70
8
 71
3
 72
8
 73
4
 74
0
 40
0
 40
0
 40
0
 40
0
 40
1
 40
1
 40
1
 40
1
 10
674.521077
 20
-179.487331
 30
0.0
 10
681.012100
 20
-180.155669
 30
0.0
 10
686.301650
 20
-184.991987
 30
0.0
 10
687.547308
 20
-191.397285
 30
0.0
  0
SPLINE
  5
18a
100
AcDbEntity
  8
0
 62
7
100
AcDbSpline
 70
8
 71
3
 72
8
 73
4
 74
0
 40
0
 40
0
 40
0
 40
0
 40
1
 40
1
 40
1
 40
1
 10
687.547308
 20
-191.397285
 30
0.0
 10
688.793231
 20
-197.802583
 30
0.0
 10
685.702104
 20
-204.268735
 30
0.0
 10
679.934717
 20
-207.321498
 30
0.0
  0
SPLINE
  5
18b
100
AcDbEntity
  8
0
 62
7
100
AcDbSpline
 70
8
 71
3
 72
8
 73
4
 74
0
 40
0
 40
0
 40
0
 40
0
 40
1
 40
1
 40
1
 40
1
 10
521.291608
 20
-259.269260
 30
0.0
 10
517.212792
 20
-256.709946
 30
0.0
 10
512.006850
 20
-256.804667
 30
0.0
 10
508.023813
 20
-259.510296
 30
0.0
  0
SPLINE
  5
18c
100
AcDbEntity
  8
0
 62
7
100
AcDbSpline
 70
8
 71
3
 72
8
 73
4
 74
0
 40
0
 40
0
 40
0
 40
0
 40
1
 40
1
 40
1
 40
1
 10
508.023813
 20
-259.510296
 30
0.0
 10
504.040775
 20
-262.216190
 30
0.0
 10
502.034704
 20
-267.021023
 30
0.0
 10
502.911004
 20
-271.755742
 30
0.0
  0
SPLINE
  5
18d
100
AcDbEntity
  8
0
 62
7
100
AcDbSpline
 70
8
 71
3
 72
8
 73
4
 74
0
 40
0
 40
0
 40
0
 40
0
 40
1
 40
1
 40
1
 40
1
 10
502.911004
 20
-271.755742
 30
0.0
 10
503.787304
 20
-276.490196
 30
0.0
 10
507.380346
 20
-280.258921
 30
0.0
 10
512.067969
 20
-281.359852
 30
0.0
  0
LINE
  5
18e
100
AcDbEntity
  8
0
 62
7
100
AcDbLine
 10
512.067969
 20
-281.359852
 30
0.0
 11
512.067969
 21
-281.359852
 31
0.0
  0
SPLINE
  5
18f
100
AcDbEntity
  8
0
 62
7
100
AcDbSpline
 70
8
 71
3
 72
8
 73
4
 74
0
 40
0
 40
0
 40
0
 40
0
 40
1
 40
1
 40
1
 40
1
 10
512.067969
 20
-281.359852
 30
0.0
 10
540.716179
 20
-288.088471
 30
0.0
 10
570.533821
 20
-288.088471
 30
0.0
 10
599.182031
 20
-281.359852
 30
0.0
  0
LINE
  5
190
100
AcDbEntity
  8
0
 62
7
100
AcDbLine
 10
599.182031
 20
-281.359852
 30
0.0
 11
599.182031
 21
-281.359852
 31
0.0
  0
SPLINE
  5
191
100
AcDbEntity
  8
0
 62
7
100
AcDbSpline
 70
8
 71
3
 72
8
 73
4
 74
0
 40
0
 40
0
 40
0
 40
0
 40
1
 40
1
 40
1
 40
1
 10
599.182031
 20
-281.359852
 30
0.0
 10
603.869654
 20
-280.258921
 30
0.0
 10
607.462696
 20
-276.490196
 30
0.0
 10
608.338996
 20
-271.755742
 30
0.0
  0
SPLINE
  5
192
100
AcDbEntity
  8
0
 62
7
100
AcDbSpline
 70
8
 71
3
 72
8
 73
4
 74
0
 40
0
 40
0
 40
0
 40
0
 40
1
 40
1
 40
1
 40
1
 10
608.338996
 20
-271.755742
 30
0.0
 10
609.215296
 20
-267.021023
 30
0.0
 10
607.209225
 20
-262.216190
 30
0.0
 10
603.226187
 20
-259.510296
 30
0.0
  0
SPLINE
  5
193
100
AcDbEntity
  8
0
 62
7
100
AcDbSpline
 70
8
 71
3
 72
8
 73
4
 74
0
 40
0
 40
0
 40
0
 40
0
 40
1
 40
1
 40
1
 40
1
 10
603.226187
 20
-259.510296
 30
0.0
 10
599.243150
 20
-256.804667
 30
0.0
 10
594.037208
 20
-256.709946
 30
0.0
 10
589.958392
 20
-259.269260
 30
0.0
  0
LINE
  5
194
100
AcDbEntity
  8
0
 62
7
100
AcDbLine
 10
589.958392
 20
-259.269260
 30
0.0
 11
589.958392
 21
-259.269260
 31
0.0
  0
SPLINE
  5
195
100
AcDbEntity
  8
0
 62
7
100
AcDbSpline
 70
8
 71
3
 72
8
 73
4
 74
0
 40
0
 40
0
 40
0
 40
0
 40
1
 40
1
 40
1
 40
1
 10
589.958392
 20
-259.269260
 30
0.0
 10
584.431246
 20
-262.737419
 30
0.0
 10
577.285617
 20
-262.181529
 30
0.0
 10
572.361430
 20
-257.899777
 30
0.0
  0
SPLINE
  5
196
100
AcDbEntity
  8
0
 62
7
100
AcDbSpline
 70
8
 71
3
 72
8
 73
4
 74
0
 40
0
 40
0
 40
0
 40
0
 40
1
 40
1
 40
1
 40
1
 10
572.361430
 20
-257.899777
 30
0.0
 10
567.437217
 20
-253.618290
 30
0.0
 10
565.893717
 20
-246.619267
 30
0.0
 10
568.560373
 20
-240.663760
 30
0.0
  0
SPLINE
  5
197
100
AcDbEntity
  8
0
 62
7
100
AcDbSpline
 70
8
 71
3
 72
8
 73
4
 74
0
 40
0
 40
0
 40
0
 40
0
 40
1
 40
1
 40
1
 40
1
 10
568.560373
 20
-240.663760
 30
0.0
 10
571.227003
 20
-234.708254
 30
0.0
 10
577.475906
 20
-231.198292
 30
0.0
 10
583.949175
 20
-232.020087
 30
0.0
  0
LINE
  5
198
100
AcDbEntity
  8
0
 62
7
100
AcDbLine
 10
583.949175
 20
-232.020087
 30
0.0
 11
583.949175
 21
-232.020087
 31
0.0
  0
SPLINE
  5
199
100
AcDbEntity
  8
0
 62
7
100
AcDbSpline
 70
8
 71
3
 72
8
 73
4
 74
0
 40
0
 40
0
 40
0
 40
0
 40
1
 40
1
 40
1
 40
1
 10
583.949175
 20
-232.020087
 30
0.0
 10
592.017115
 20
-233.044290
 30
0.0
 10
599.986100
 20
-229.500990
 30
0.0
 10
604.630331
 20
-222.824758
 30
0.0
  0
SPLINE
  5
19a
100
AcDbEntity
  8
0
 62
7
100
AcDbSpline
 70
8
 71
3
 72
8
 73
4
 74
0
 40
0
 40
0
 40
0
 40
0
 40
1
 40
1
 40
1
 40
1
 10
604.630331
 20
-222.824758
 30
0.0
 10
609.274298
 20
-216.148527
 30
0.0
 10
609.824631
 20
-207.444794
 30
0.0
 10
606.058287
 20
-200.237015
 30
0.0
  0
SPLINE
  5
19b
100
AcDbEntity
  8
0
 62
7
100
AcDbSpline
 70
8
 71
3
 72
8
 73
4
 74
0
 40
0
 40
0
 40
0
 40
0
 40
1
 40
1
 40
1
 40
1
 10
606.058287
 20
-200.237015
 30
0.0
 10
602.291679
 20
-193.028971
 30
0.0
 10
594.832546
 20
-188.510417
 30
0.0
 10
586.699783
 20
-188.510417
 30
0.0
  0
LINE
  5
19c
100
AcDbEntity
  8
0
 62
7
100
AcDbLine
 10
586.699783
 20
-188.510417
 30
0.0
 11
586.699783
 21
-188.510417
 31
0.0
  0
LINE
  5
19d
100
AcDbEntity
  8
0
 62
7
100
AcDbLine
 10
586.699783
 20
-188.510417
 30
0.0
 11
524.550217
 21
-188.510417
 31
0.0
  0
LINE
  5
19e
100
AcDbEntity
  8
0
 62
7
100
AcDbLine
 10
524.550217
 20
-188.510417
 30
0.0
 11
524.550217
 21
-188.510417
 31
0.0
  0
SPLINE
  5
19f
100
AcDbEntity
  8
0
 62
7
100
AcDbSpline
 70
8
 71
3
 72
8
 73
4
 74
0
 40
0
 40
0
 40
0
 40
0
 40
1
 40
1
 40
1
 40
1
 10
524.550217
 20
-188.510417
 30
0.0
 10
516.417454
 20
-188.510417
 30
0.0
 10
508.958321
 20
-193.028971
 30
0.0
 10
505.191712
 20
-200.237015
 30
0.0
  0
SPLINE
  5
1a0
100
AcDbEntity
  8
0
 62
7
100
AcDbSpline
 70
8
 71
3
 72
8
 73
4
 74
0
 40
0
 40
0
 40
0
 40
0
 40
1
 40
1
 40
1
 40
1
 10
505.191712
 20
-200.237015
 30
0.0
 10
501.425369
 20
-207.444794
 30
0.0
 10
501.975702
 20
-216.148527
 30
0.0
 10
506.619669
 20
-222.824758
 30
0.0
  0
SPLINE
  5
1a1
100
AcDbEntity
  8
0
 62
7
100
AcDbSpline
 70
8
 71
3
 72
8
 73
4
 74
0
 40
0
 40
0
 40
0
 40
0
 40
1
 40
1
 40
1
 40
1
 10
506.619669
 20
-222.824758
 30
0.0
 10
511.263900
 20
-229.500990
 30
0.0
 10
519.232885
 20
-233.044290
 30
0.0
 10
527.300825
 20
-232.020087
 30
0.0
  0
LINE
  5
1a2
100
AcDbEntity
  8
0
 62
7
100
AcDbLine
 10
527.300825
 20
-232.020087
 30
0.0
 11
527.300825
 21
-232.020087
 31
0.0
  0
SPLINE
  5
1a3
100
AcDbEntity
  8
0
 62
7
100
AcDbSpline
 70
8
 71
3
 72
8
 73
4
 74
0
 40
0
 40
0
 40
0
 40
0
 40
1
 40
1
 40
1
 40
1
 10
527.300825
 20
-232.020087
 30
0.0
 10
533.774094
 20
-231.198292
 30
0.0
 10
540.022997
 20
-234.708254
 30
0.0
 10
542.689627
 20
-240.663760
 30
0.0
  0
SPLINE
  5
1a4
100
AcDbEntity
  8
0
 62
7
100
AcDbSpline
 70
8
 71
3
 72
8
 73
4
 74
0
 40
0
 40
0
 40
0
 40
0
 40
1
 40
1
 40
1
 40
1
 10
542.689627
 20
-240.663760
 30
0.0
 10
545.356283
 20
-246.619267
 30
0.0
 10
543.812783
 20
-253.618290
 30
0.0
 10
538.888570
 20
-257.899777
 30
0.0
  0
SPLINE
  5
1a5
100
AcDbEntity
  8
0
 62
7
100
AcDbSpline
 70
8
 71
3
 72
8
 73
4
 74
0
 40
0
 40
0
 40
0
 40
0
 40
1
 40
1
 40
1
 40
1
 10
538.888570
 20
-257.899777
 30
0.0
 10
533.964383
 20
-262.181529
 30
0.0
 10
526.818754
 20
-262.737419
 30
0.0
 10
521.291608
 20
-259.269260
 30
0.0
  0
SPLINE
  5
1a6
100
AcDbEntity
  8
0
 62
7
100
AcDbSpline
 70
8
 71
3
 72
8
 73
4
 74
0
 40
0
 40
0
 40
0
 40
0
 40
1
 40
1
 40
1
 40
1
 10
451.909127
 20
-188.492690
 30
0.0
 10
455.056081
 20
-195.991775
 30
0.0
 10
462.109079
 20
-201.121517
 30
0.0
 10
470.213002
 20
-201.805200
 30
0.0
  0
SPLINE
  5
1a7
100
AcDbEntity
  8
0
 62
7
100
AcDbSpline
 70
8
 71
3
 72
8
 73
4
 74
0
 40
0
 40
0
 40
0
 40
0
 40
1
 40
1
 40
1
 40
1
 10
470.213002
 20
-201.805200
 30
0.0
 10
478.316925
 20
-202.489148
 30
0.0
 10
486.129542
 20
-198.613796
 30
0.0
 10
490.488552
 20
-191.748123
 30
0.0
  0
SPLINE
  5
1a8
100
AcDbEntity
  8
0
 62
7
100
AcDbSpline
 70
8
 71
3
 72
8
 73
4
 74
0
 40
0
 40
0
 40
0
 40
0
 40
1
 40
1
 40
1
 40
1
 10
490.488552
 20
-191.748123
 30
0.0
 10
494.847827
 20
-184.882185
 30
0.0
 10
495.031183
 20
-176.163106
 30
0.0
 10
490.964802
 20
-169.119898
 30
0.0
  0
LINE
  5
1a9
100
AcDbEntity
  8
0
 62
7
100
AcDbLine
 10
490.964802
 20
-169.119898
 30
0.0
 11
490.964802
 21
-169.119898
 31
0.0
  0
LINE
  5
1aa
100
AcDbEntity
  8
0
 62
7
100
AcDbLine
 10
490.964802
 20
-169.119898
 30
0.0
 11
459.890019
 21
-115.296663
 31
0.0
  0
LINE
  5
1ab
100
AcDbEntity
  8
0
 62
7
100
AcDbLine
 10
459.890019
 20
-115.296663
 30
0.0
 11
459.890019
 21
-115.296663
 31
0.0
  0
SPLINE
  5
1ac
100
AcDbEntity
  8
0
 62
7
100
AcDbSpline
 70
8
 71
3
 72
8
 73
4
 74
0
 40
0
 40
0
 40
0
 40
0
 40
1
 40
1
 40
1
 40
1
 10
459.890019
 20
-115.296663
 30
0.0
 10
455.823638
 20
-108.253560
 30
0.0
 10
448.180883
 20
-104.052930
 30
0.0
 10
440.055529
 20
-104.395142
 30
0.0
  0
SPLINE
  5
1ad
100
AcDbEntity
  8
0
 62
7
100
AcDbSpline
 70
8
 71
3
 72
8
 73
4
 74
0
 40
0
 40
0
 40
0
 40
0
 40
1
 40
1
 40
1
 40
1
 10
440.055529
 20
-104.395142
 30
0.0
 10
431.929910
 20
-104.737354
 30
0.0
 10
424.667362
 20
-109.565709
 30
0.0
 10
421.207671
 20
-116.925782
 30
0.0
  0
SPLINE
  5
1ae
100
AcDbEntity
  8
0
 62
7
100
AcDbSpline
 70
8
 71
3
 72
8
 73
4
 74
0
 40
0
 40
0
 40
0
 40
0
 40
1
 40
1
 40
1
 40
1
 10
421.207671
 20
-116.925782
 30
0.0
 10
417.747979
 20
-124.285987
 30
0.0
 10
418.663967
 20
-132.958765
 30
0.0
 10
423.584952
 20
-139.433648
 30
0.0
  0
LINE
  5
1af
100
AcDbEntity
  8
0
 62
7
100
AcDbLine
 10
423.584952
 20
-139.433648
 30
0.0
 11
423.584952
 21
-139.433648
 31
0.0
  0
SPLINE
  5
1b0
100
AcDbEntity
  8
0
 62
7
100
AcDbSpline
 70
8
 71
3
 72
8
 73
4
 74
0
 40
0
 40
0
 40
0
 40
0
 40
1
 40
1
 40
1
 40
1
 10
423.584952
 20
-139.433648
 30
0.0
 10
427.533329
 20
-144.628742
 30
0.0
 10
427.617996
 20
-151.795510
 30
0.0
 10
423.793708
 20
-157.082679
 30
0.0
  0
SPLINE
  5
1b1
100
AcDbEntity
  8
0
 62
7
100
AcDbSpline
 70
8
 71
3
 72
8
 73
4
 74
0
 40
0
 40
0
 40
0
 40
0
 40
1
 40
1
 40
1
 40
1
 10
423.793708
 20
-157.082679
 30
0.0
 10
419.969156
 20
-162.369848
 30
0.0
 10
413.136292
 20
-164.532552
 30
0.0
 10
406.966208
 20
-162.409006
 30
0.0
  0
SPLINE
  5
1b2
100
AcDbEntity
  8
0
 62
7
100
AcDbSpline
 70
8
 71
3
 72
8
 73
4
 74
0
 40
0
 40
0
 40
0
 40
0
 40
1
 40
1
 40
1
 40
1
 10
406.966208
 20
-162.409006
 30
0.0
 10
400.796125
 20
-160.285196
 30
0.0
 10
396.741915
 20
-154.374933
 30
0.0
 10
396.981627
 20
-147.854012
 30
0.0
  0
LINE
  5
1b3
100
AcDbEntity
  8
0
 62
7
100
AcDbLine
 10
396.981627
 20
-147.854012
 30
0.0
 11
396.981627
 21
-147.854012
 31
0.0
  0
SPLINE
  5
1b4
100
AcDbEntity
  8
0
 62
7
100
AcDbSpline
 70
8
 71
3
 72
8
 73
4
 74
0
 40
0
 40
0
 40
0
 40
0
 40
1
 40
1
 40
1
 40
1
 10
396.981627
 20
-147.854012
 30
0.0
 10
397.158898
 20
-143.042300
 30
0.0
 10
394.473906
 20
-138.580896
 30
0.0
 10
390.139237
 20
-136.484602
 30
0.0
  0
SPLINE
  5
1b5
100
AcDbEntity
  8
0
 62
7
100
AcDbSpline
 70
8
 71
3
 72
8
 73
4
 74
0
 40
0
 40
0
 40
0
 40
0
 40
1
 40
1
 40
1
 40
1
 10
390.139237
 20
-136.484602
 30
0.0
 10
385.804304
 20
-134.388044
 30
0.0
 10
380.640167
 20
-135.052942
 30
0.0
 10
376.978069
 20
-138.179258
 30
0.0
  0
SPLINE
  5
1b6
100
AcDbEntity
  8
0
 62
7
100
AcDbSpline
 70
8
 71
3
 72
8
 73
4
 74
0
 40
0
 40
0
 40
0
 40
0
 40
1
 40
1
 40
1
 40
1
 10
376.978069
 20
-138.179258
 30
0.0
 10
373.315706
 20
-141.305575
 30
0.0
 10
371.848592
 20
-146.301437
 30
0.0
 10
373.238977
 20
-150.911537
 30
0.0
  0
LINE
  5
1b7
100
AcDbEntity
  8
0
 62
7
100
AcDbLine
 10
373.238977
 20
-150.911537
 30
0.0
 11
373.238977
 21
-150.911537
 31
0.0
  0
SPLINE
  5
1b8
100
AcDbEntity
  8
0
 62
7
100
AcDbSpline
 70
8
 71
3
 72
8
 73
4
 74
0
 40
0
 40
0
 40
0
 40
0
 40
1
 40
1
 40
1
 40
1
 10
373.238977
 20
-150.911537
 30
0.0
 10
381.736071
 20
-179.085958
 30
0.0
 10
396.644812
 20
-204.908762
 30
0.0
 10
416.796008
 20
-226.354565
 30
0.0
  0
LINE
  5
1b9
100
AcDbEntity
  8
0
 62
7
100
AcDbLine
 10
416.796008
 20
-226.354565
 30
0.0
 11
416.796008
 21
-226.354565
 31
0.0
  0
SPLINE
  5
1ba
100
AcDbEntity
  8
0
 62
7
100
AcDbSpline
 70
8
 71
3
 72
8
 73
4
 74
0
 40
0
 40
0
 40
0
 40
0
 40
1
 40
1
 40
1
 40
1
 10
416.796008
 20
-226.354565
 30
0.0
 10
420.093246
 20
-229.863733
 30
0.0
 10
425.153402
 20
-231.091135
 30
0.0
 10
429.692065
 20
-229.482733
 30
0.0
  0
SPLINE
  5
1bb
100
AcDbEntity
  8
0
 62
7
100
AcDbSpline
 70
8
 71
3
 72
8
 73
4
 74
0
 40
0
 40
0
 40
0
 40
0
 40
1
 40
1
 40
1
 40
1
 10
429.692065
 20
-229.482733
 30
0.0
 10
434.230462
 20
-227.874331
 30
0.0
 10
437.388529
 20
-223.734396
 30
0.0
 10
437.740160
 20
-218.932208
 30
0.0
  0
SPLINE
  5
1bc
100
AcDbEntity
  8
0
 62
7
100
AcDbSpline
 70
8
 71
3
 72
8
 73
4
 74
0
 40
0
 40
0
 40
0
 40
0
 40
1
 40
1
 40
1
 40
1
 10
437.740160
 20
-218.932208
 30
0.0
 10
438.092056
 20
-214.129756
 30
0.0
 10
435.570842
 20
-209.573896
 30
0.0
 10
431.315283
 20
-207.321498
 30
0.0
  0
LINE
  5
1bd
100
AcDbEntity
  8
0
 62
7
100
AcDbLine
 10
431.315283
 20
-207.321498
 30
0.0
 11
431.315283
 21
-207.321498
 31
0.0
  0
SPLINE
  5
1be
100
AcDbEntity
  8
0
 62
7
100
AcDbSpline
 70
8
 71
3
 72
8
 73
4
 74
0
 40
0
 40
0
 40
0
 40
0
 40
1
 40
1
 40
1
 40
1
 10
431.315283
 20
-207.321498
 30
0.0
 10
425.547896
 20
-204.268735
 30
0.0
 10
422.456769
 20
-197.802583
 30
0.0
 10
423.702692
 20
-191.397285
 30
0.0
  0
SPLINE
  5
1bf
100
AcDbEntity
  8
0
 62
7
100
AcDbSpline
 70
8
 71
3
 72
8
 73
4
 74
0
 40
0
 40
0
 40
0
 40
0
 40
1
 40
1
 40
1
 40
1
 10
423.702692
 20
-191.397285
 30
0.0
 10
424.948350
 20
-184.991987
 30
0.0
 10
430.237900
 20
-180.155669
 30
0.0
 10
436.728923
 20
-179.487331
 30
0.0
  0
SPLINE
  5
1c0
100
AcDbEntity
  8
0
 62
7
100
AcDbSpline
 70
8
 71
3
 72
8
 73
4
 74
0
 40
0
 40
0
 40
0
 40
0
 40
1
 40
1
 40
1
 40
1
 10
436.728923
 20
-179.487331
 30
0.0
 10
443.219946
 20
-178.818994
 30
0.0
 10
449.384208
 20
-182.475800
 30
0.0
 10
451.909127
 20
-188.492690
 30
0.0
  0
SPLINE
  5
1c1
100
AcDbEntity
  8
0
 62
7
100
AcDbSpline
 70
8
 71
3
 72
8
 73
4
 74
0
 40
0
 40
0
 40
0
 40
0
 40
1
 40
1
 40
1
 40
1
 10
398.464088
 20
-292.025471
 30
0.0
 10
402.307690
 20
-296.481054
 30
0.0
 10
407.832454
 20
-299.135354
 30
0.0
 10
413.712554
 20
-299.351783
 30
0.0
  0
SPLINE
  5
1c2
100
AcDbEntity
  8
0
 62
7
100
AcDbSpline
 70
8
 71
3
 72
8
 73
4
 74
0
 40
0
 40
0
 40
0
 40
0
 40
1
 40
1
 40
1
 40
1
 10
413.712554
 20
-299.351783
 30
0.0
 10
419.592654
 20
-299.568212
 30
0.0
 10
425.297600
 20
-297.327192
 30
0.0
 10
429.458438
 20
-293.166619
 30
0.0
  0
LINE
  5
1c3
100
AcDbEntity
  8
0
 62
7
100
AcDbLine
 10
429.458438
 20
-293.166619
 30
0.0
 11
439.630079
 21
-282.994977
 31
0.0
  0
SPLINE
  5
1c4
100
AcDbEntity
  8
0
 62
7
100
AcDbSpline
 70
8
 71
3
 72
8
 73
4
 74
0
 40
0
 40
0
 40
0
 40
0
 40
1
 40
1
 40
1
 40
1
 10
439.630079
 20
-282.994977
 30
0.0
 10
442.729938
 20
-279.895119
 30
0.0
 10
442.729938
 20
-274.869358
 30
0.0
 10
439.630079
 20
-271.769500
 30
0.0
  0
LINE
  5
1c5
100
AcDbEntity
  8
0
 62
7
100
AcDbLine
 10
439.630079
 20
-271.769500
 30
0.0
 11
380.697052
 21
-212.836737
 31
0.0
  0
SPLINE
  5
1c6
100
AcDbEntity
  8
0
 62
7
100
AcDbSpline
 70
8
 71
3
 72
8
 73
4
 74
0
 40
0
 40
0
 40
0
 40
0
 40
1
 40
1
 40
1
 40
1
 10
380.697052
 20
-212.836737
 30
0.0
 10
377.845638
 20
-209.985058
 30
0.0
 10
373.309092
 20
-209.724973
 30
0.0
 10
370.150231
 20
-212.231900
 30
0.0
  0
SPLINE
  5
1c7
100
AcDbEntity
  8
0
 62
7
100
AcDbSpline
 70
8
 71
3
 72
8
 73
4
 74
0
 40
0
 40
0
 40
0
 40
0
 40
1
 40
1
 40
1
 40
1
 10
370.150231
 20
-212.231900
 30
0.0
 10
366.991371
 20
-214.738827
 30
0.0
 10
366.214290
 20
-219.215842
 30
0.0
 10
368.343656
 20
-222.640608
 30
0.0
  0
SPLINE
  5
1c8
100
AcDbEntity
  8
0
 62
7
100
AcDbSpline
 70
8
 71
3
 72
8
 73
4
 74
0
 40
0
 40
0
 40
0
 40
0
 40
1
 40
1
 40
1
 40
1
 10
368.343656
 20
-222.640608
 30
0.0
 10
373.625004
 20
-231.134527
 30
0.0
 10
372.240175
 20
-242.165800
 30
0.0
 10
365.022871
 20
-249.090740
 30
0.0
  0
SPLINE
  5
1c9
100
AcDbEntity
  8
0
 62
7
100
AcDbSpline
 70
8
 71
3
 72
8
 73
4
 74
0
 40
0
 40
0
 40
0
 40
0
 40
1
 40
1
 40
1
 40
1
 10
365.022871
 20
-249.090740
 30
0.0
 10
362.586588
 20
-251.428069
 30
0.0
 10
361.895760
 20
-255.050744
 30
0.0
 10
363.300698
 20
-258.120969
 30
0.0
  0
SPLINE
  5
1ca
100
AcDbEntity
  8
0
 62
7
100
AcDbSpline
 70
8
 71
3
 72
8
 73
4
 74
0
 40
0
 40
0
 40
0
 40
0
 40
1
 40
1
 40
1
 40
1
 10
363.300698
 20
-258.120969
 30
0.0
 10
366.141794
 20
-264.329681
 30
0.0
 10
364.371996
 20
-271.676102
 30
0.0
 10
359.014977
 20
-275.910229
 30
0.0
  0
SPLINE
  5
1cb
100
AcDbEntity
  8
0
 62
7
100
AcDbSpline
 70
8
 71
3
 72
8
 73
4
 74
0
 40
0
 40
0
 40
0
 40
0
 40
1
 40
1
 40
1
 40
1
 10
359.014977
 20
-275.910229
 30
0.0
 10
357.237506
 20
-277.315167
 30
0.0
 10
356.145042
 20
-279.413048
 30
0.0
 10
356.013015
 20
-281.675235
 30
0.0
  0
SPLINE
  5
1cc
100
AcDbEntity
  8
0
 62
7
100
AcDbSpline
 70
8
 71
3
 72
8
 73
4
 74
0
 40
0
 40
0
 40
0
 40
0
 40
1
 40
1
 40
1
 40
1
 10
356.013015
 20
-281.675235
 30
0.0
 10
355.880988
 20
-283.937158
 30
0.0
 10
356.722098
 20
-286.147752
 30
0.0
 10
358.324415
 20
-287.750069
 30
0.0
  0
LINE
  5
1cd
100
AcDbEntity
  8
0
 62
7
100
AcDbLine
 10
358.324415
 20
-287.750069
 30
0.0
 11
363.781181
 21
-293.206835
 31
0.0
  0
SPLINE
  5
1ce
100
AcDbEntity
  8
0
 62
7
100
AcDbSpline
 70
8
 71
3
 72
8
 73
4
 74
0
 40
0
 40
0
 40
0
 40
0
 40
1
 40
1
 40
1
 40
1
 10
363.781181
 20
-293.206835
 30
0.0
 10
365.383498
 20
-294.809152
 30
0.0
 10
367.594092
 20
-295.650262
 30
0.0
 10
369.856015
 20
-295.518235
 30
0.0
  0
SPLINE
  5
1cf
100
AcDbEntity
  8
0
 62
7
100
AcDbSpline
 70
8
 71
3
 72
8
 73
4
 74
0
 40
0
 40
0
 40
0
 40
0
 40
1
 40
1
 40
1
 40
1
 10
369.856015
 20
-295.518235
 30
0.0
 10
372.118202
 20
-295.386208
 30
0.0
 10
374.216083
 20
-294.293744
 30
0.0
 10
375.621021
 20
-292.516273
 30
0.0
  0
SPLINE
  5
1d0
100
AcDbEntity
  8
0
 62
7
100
AcDbSpline
 70
8
 71
3
 72
8
 73
4
 74
0
 40
0
 40
0
 40
0
 40
0
 40
1
 40
1
 40
1
 40
1
 10
375.621021
 20
-292.516273
 30
0.0
 10
378.361840
 20
-289.048379
 30
0.0
 10
382.507860
 20
-286.985423
 30
0.0
 10
386.926931
 20
-286.890437
 30
0.0
  0
SPLINE
  5
1d1
100
AcDbEntity
  8
0
 62
7
100
AcDbSpline
 70
8
 71
3
 72
8
 73
4
 74
0
 40
0
 40
0
 40
0
 40
0
 40
1
 40
1
 40
1
 40
1
 10
386.926931
 20
-286.890437
 30
0.0
 10
391.346267
 20
-286.795717
 30
0.0
 10
395.576954
 20
-288.678756
 30
0.0
 10
398.464088
 20
-292.025471
 30
0.0
  0
SPLINE
  5
1d2
100
AcDbEntity
  8
0
 62
7
100
AcDbSpline
 70
8
 71
3
 72
8
 73
4
 74
0
 40
0
 40
0
 40
0
 40
0
 40
1
 40
1
 40
1
 40
1
 10
307.200300
 20
-133.951746
 30
0.0
 10
305.263550
 20
-128.395496
 30
0.0
 10
305.727100
 20
-122.283859
 30
0.0
 10
308.479825
 20
-117.083235
 30
0.0
  0
SPLINE
  5
1d3
100
AcDbEntity
  8
0
 62
7
100
AcDbSpline
 70
8
 71
3
 72
8
 73
4
 74
0
 40
0
 40
0
 40
0
 40
0
 40
1
 40
1
 40
1
 40
1
 10
308.479825
 20
-117.083235
 30
0.0
 10
311.232285
 20
-111.882638
 30
0.0
 10
316.025477
 20
-108.062531
 30
0.0
 10
321.709256
 20
-106.539590
 30
0.0
  0
LINE
  5
1d4
100
AcDbEntity
  8
0
 62
7
100
AcDbLine
 10
321.709256
 20
-106.539590
 30
0.0
 11
335.603850
 21
-102.816505
 31
0.0
  0
SPLINE
  5
1d5
100
AcDbEntity
  8
0
 62
7
100
AcDbSpline
 70
8
 71
3
 72
8
 73
4
 74
0
 40
0
 40
0
 40
0
 40
0
 40
1
 40
1
 40
1
 40
1
 10
335.603850
 20
-102.816505
 30
0.0
 10
339.838242
 20
-101.681919
 30
0.0
 10
344.190902
 20
-104.194773
 30
0.0
 10
345.325435
 20
-108.429164
 30
0.0
  0
LINE
  5
1d6
100
AcDbEntity
  8
0
 62
7
100
AcDbLine
 10
345.325435
 20
-108.429164
 30
0.0
 11
366.896385
 21
-188.932956
 31
0.0
  0
SPLINE
  5
1d7
100
AcDbEntity
  8
0
 62
7
100
AcDbSpline
 70
8
 71
3
 72
8
 73
4
 74
0
 40
0
 40
0
 40
0
 40
0
 40
1
 40
1
 40
1
 40
1
 10
366.896385
 20
-188.932956
 30
0.0
 10
367.940167
 20
-192.828417
 30
0.0
 10
365.897054
 20
-196.887125
 30
0.0
 10
362.146585
 20
-198.369321
 30
0.0
  0
SPLINE
  5
1d8
100
AcDbEntity
  8
0
 62
7
100
AcDbSpline
 70
8
 71
3
 72
8
 73
4
 74
0
 40
0
 40
0
 40
0
 40
0
 40
1
 40
1
 40
1
 40
1
 10
362.146585
 20
-198.369321
 30
0.0
 10
358.396117
 20
-199.851517
 30
0.0
 10
354.130240
 20
-198.285977
 30
0.0
 10
352.229208
 20
-194.729448
 30
0.0
  0
SPLINE
  5
1d9
100
AcDbEntity
  8
0
 62
7
100
AcDbSpline
 70
8
 71
3
 72
8
 73
4
 74
0
 40
0
 40
0
 40
0
 40
0
 40
1
 40
1
 40
1
 40
1
 10
352.229208
 20
-194.729448
 30
0.0
 10
347.514069
 20
-185.908769
 30
0.0
 10
337.268079
 20
-181.592356
 30
0.0
 10
327.662381
 20
-184.380271
 30
0.0
  0
SPLINE
  5
1da
100
AcDbEntity
  8
0
 62
7
100
AcDbSpline
 70
8
 71
3
 72
8
 73
4
 74
0
 40
0
 40
0
 40
0
 40
0
 40
1
 40
1
 40
1
 40
1
 10
327.662381
 20
-184.380271
 30
0.0
 10
324.419913
 20
-185.321394
 30
0.0
 10
320.937202
 20
-184.108544
 30
0.0
 10
318.980873
 20
-181.356877
 30
0.0
  0
SPLINE
  5
1db
100
AcDbEntity
  8
0
 62
7
100
AcDbSpline
 70
8
 71
3
 72
8
 73
4
 74
0
 40
0
 40
0
 40
0
 40
0
 40
1
 40
1
 40
1
 40
1
 10
318.980873
 20
-181.356877
 30
0.0
 10
315.024294
 20
-175.791896
 30
0.0
 10
307.777092
 20
-173.651417
 30
0.0
 10
301.432119
 20
-176.173425
 30
0.0
  0
SPLINE
  5
1dc
100
AcDbEntity
  8
0
 62
7
100
AcDbSpline
 70
8
 71
3
 72
8
 73
4
 74
0
 40
0
 40
0
 40
0
 40
0
 40
1
 40
1
 40
1
 40
1
 10
301.432119
 20
-176.173425
 30
0.0
 10
299.326300
 20
-177.010302
 30
0.0
 10
296.963306
 20
-176.907644
 30
0.0
 10
294.938450
 20
-175.890850
 30
0.0
  0
SPLINE
  5
1dd
100
AcDbEntity
  8
0
 62
7
100
AcDbSpline
 70
8
 71
3
 72
8
 73
4
 74
0
 40
0
 40
0
 40
0
 40
0
 40
1
 40
1
 40
1
 40
1
 10
294.938450
 20
-175.890850
 30
0.0
 10
292.913329
 20
-174.874056
 30
0.0
 10
291.419492
 20
-173.040494
 30
0.0
 10
290.832646
 20
-170.851596
 30
0.0
  0
LINE
  5
1de
100
AcDbEntity
  8
0
 62
7
100
AcDbLine
 10
290.832646
 20
-170.851596
 30
0.0
 11
288.835042
 21
-163.397490
 31
0.0
  0
SPLINE
  5
1df
100
AcDbEntity
  8
0
 62
7
100
AcDbSpline
 70
8
 71
3
 72
8
 73
4
 74
0
 40
0
 40
0
 40
0
 40
0
 40
1
 40
1
 40
1
 40
1
 10
288.835042
 20
-163.397490
 30
0.0
 10
288.250313
 20
-161.208856
 30
0.0
 10
288.626021
 20
-158.873908
 30
0.0
 10
289.872208
 20
-156.980815
 30
0.0
  0
SPLINE
  5
1e0
100
AcDbEntity
  8
0
 62
7
100
AcDbSpline
 70
8
 71
3
 72
8
 73
4
 74
0
 40
0
 40
0
 40
0
 40
0
 40
1
 40
1
 40
1
 40
1
 10
289.872208
 20
-156.980815
 30
0.0
 10
291.116808
 20
-155.087721
 30
0.0
 10
293.111767
 20
-153.817192
 30
0.0
 10
295.353846
 20
-153.489373
 30
0.0
  0
SPLINE
  5
1e1
100
AcDbEntity
  8
0
 62
7
100
AcDbSpline
 70
8
 71
3
 72
8
 73
4
 74
0
 40
0
 40
0
 40
0
 40
0
 40
1
 40
1
 40
1
 40
1
 10
295.353846
 20
-153.489373
 30
0.0
 10
299.727408
 20
-152.849610
 30
0.0
 10
303.587150
 20
-150.290560
 30
0.0
 10
305.878706
 20
-146.510723
 30
0.0
  0
SPLINE
  5
1e2
100
AcDbEntity
  8
0
 62
7
100
AcDbSpline
 70
8
 71
3
 72
8
 73
4
 74
0
 40
0
 40
0
 40
0
 40
0
 40
1
 40
1
 40
1
 40
1
 10
305.878706
 20
-146.510723
 30
0.0
 10
308.170527
 20
-142.731150
 30
0.0
 10
308.655244
 20
-138.125812
 30
0.0
 10
307.200300
 20
-133.951746
 30
0.0
  0
SPLINE
  5
1e3
100
AcDbEntity
  8
0
 62
7
100
AcDbSpline
 70
8
 71
3
 72
8
 73
4
 74
0
 40
0
 40
0
 40
0
 40
0
 40
1
 40
1
 40
1
 40
1
 10
307.200300
 20
-57.860754
 30
0.0
 10
305.263550
 20
-63.417004
 30
0.0
 10
305.727100
 20
-69.528641
 30
0.0
 10
308.479825
 20
-74.729265
 30
0.0
  0
SPLINE
  5
1e4
100
AcDbEntity
  8
0
 62
7
100
AcDbSpline
 70
8
 71
3
 72
8
 73
4
 74
0
 40
0
 40
0
 40
0
 40
0
 40
1
 40
1
 40
1
 40
1
 10
308.479825
 20
-74.729265
 30
0.0
 10
311.232285
 20
-79.929862
 30
0.0
 10
316.025477
 20
-83.749969
 30
0.0
 10
321.709256
 20
-85.272910
 30
0.0
  0
LINE
  5
1e5
100
AcDbEntity
  8
0
 62
7
100
AcDbLine
 10
321.709256
 20
-85.272910
 30
0.0
 11
335.603850
 21
-88.995995
 31
0.0
  0
SPLINE
  5
1e6
100
AcDbEntity
  8
0
 62
7
100
AcDbSpline
 70
8
 71
3
 72
8
 73
4
 74
0
 40
0
 40
0
 40
0
 40
0
 40
1
 40
1
 40
1
 40
1
 10
335.603850
 20
-88.995995
 30
0.0
 10
339.838242
 20
-90.130581
 30
0.0
 10
344.190902
 20
-87.617727
 30
0.0
 10
345.325435
 20
-83.383336
 30
0.0
  0
LINE
  5
1e7
100
AcDbEntity
  8
0
 62
7
100
AcDbLine
 10
345.325435
 20
-83.383336
 30
0.0
 11
366.896385
 21
-2.879544
 31
0.0
  0
SPLINE
  5
1e8
100
AcDbEntity
  8
0
 62
7
100
AcDbSpline
 70
8
 71
3
 72
8
 73
4
 74
0
 40
0
 40
0
 40
0
 40
0
 40
1
 40
1
 40
1
 40
1
 10
366.896385
 20
-2.879544
 30
0.0
 10
367.940167
 20
1.015917
 30
0.0
 10
365.897054
 20
5.074625
 30
0.0
 10
362.146585
 20
6.556821
 30
0.0
  0
SPLINE
  5
1e9
100
AcDbEntity
  8
0
 62
7
100
AcDbSpline
 70
8
 71
3
 72
8
 73
4
 74
0
 40
0
 40
0
 40
0
 40
0
 40
1
 40
1
 40
1
 40
1
 10
362.146585
 20
6.556821
 30
0.0
 10
358.396117
 20
8.039017
 30
0.0
 10
354.130240
 20
6.473477
 30
0.0
 10
352.229208
 20
2.916948
 30
0.0
  0
SPLINE
  5
1ea
100
AcDbEntity
  8
0
 62
7
100
AcDbSpline
 70
8
 71
3
 72
8
 73
4
 74
0
 40
0
 40
0
 40
0
 40
0
 40
1
 40
1
 40
1
 40
1
 10
352.229208
 20
2.916948
 30
0.0
 10
347.514069
 20
-5.903731
 30
0.0
 10
337.268079
 20
-10.220144
 30
0.0
 10
327.662381
 20
-7.432229
 30
0.0
  0
SPLINE
  5
1eb
100
AcDbEntity
  8
0
 62
7
100
AcDbSpline
 70
8
 71
3
 72
8
 73
4
 74
0
 40
0
 40
0
 40
0
 40
0
 40
1
 40
1
 40
1
 40
1
 10
327.662381
 20
-7.432229
 30
0.0
 10
324.419913
 20
-6.491106
 30
0.0
 10
320.937202
 20
-7.703956
 30
0.0
 10
318.980873
 20
-10.455623
 30
0.0
  0
SPLINE
  5
1ec
100
AcDbEntity
  8
0
 62
7
100
AcDbSpline
 70
8
 71
3
 72
8
 73
4
 74
0
 40
0
 40
0
 40
0
 40
0
 40
1
 40
1
 40
1
 40
1
 10
318.980873
 20
-10.455623
 30
0.0
 10
315.024294
 20
-16.020604
 30
0.0
 10
307.777092
 20
-18.161083
 30
0.0
 10
301.432119
 20
-15.639075
 30
0.0
  0
SPLINE
  5
1ed
100
AcDbEntity
  8
0
 62
7
100
AcDbSpline
 70
8
 71
3
 72
8
 73
4
 74
0
 40
0
 40
0
 40
0
 40
0
 40
1
 40
1
 40
1
 40
1
 10
301.432119
 20
-15.639075
 30
0.0
 10
299.326300
 20
-14.802198
 30
0.0
 10
296.963306
 20
-14.904856
 30
0.0
 10
294.938450
 20
-15.921650
 30
0.0
  0
SPLINE
  5
1ee
100
AcDbEntity
  8
0
 62
7
100
AcDbSpline
 70
8
 71
3
 72
8
 73
4
 74
0
 40
0
 40
0
 40
0
 40
0
 40
1
 40
1
 40
1
 40
1
 10
294.938450
 20
-15.921650
 30
0.0
 10
292.913329
 20
-16.938444
 30
0.0
 10
291.419492
 20
-18.772006
 30
0.0
 10
290.832646
 20
-20.960904
 30
0.0
  0
LINE
  5
1ef
100
AcDbEntity
  8
0
 62
7
100
AcDbLine
 10
290.832646
 20
-20.960904
 30
0.0
 11
288.835042
 21
-28.415010
 31
0.0
  0
SPLINE
  5
1f0
100
AcDbEntity
  8
0
 62
7
100
AcDbSpline
 70
8
 71
3
 72
8
 73
4
 74
0
 40
0
 40
0
 40
0
 40
0
 40
1
 40
1
 40
1
 40
1
 10
288.835042
 20
-28.415010
 30
0.0
 10
288.250313
 20
-30.603644
 30
0.0
 10
288.626021
 20
-32.938592
 30
0.0
 10
289.872208
 20
-34.831685
 30
0.0
  0
SPLINE
  5
1f1
100
AcDbEntity
  8
0
 62
7
100
AcDbSpline
 70
8
 71
3
 72
8
 73
4
 74
0
 40
0
 40
0
 40
0
 40
0
 40
1
 40
1
 40
1
 40
1
 10
289.872208
 20
-34.831685
 30
0.0
 10
291.116808
 20
-36.724779
 30
0.0
 10
293.111767
 20
-37.995308
 30
0.0
 10
295.353846
 20
-38.323127
 30
0.0
  0
SPLINE
  5
1f2
100
AcDbEntity
  8
0
 62
7
100
AcDbSpline
 70
8
 71
3
 72
8
 73
4
 74
0
 40
0
 40
0
 40
0
 40
0
 40
1
 40
1
 40
1
 40
1
 10
295.353846
 20
-38.323127
 30
0.0
 10
299.727408
 20
-38.962890
 30
0.0
 10
303.587150
 20
-41.521940
 30
0.0
 10
305.878706
 20
-45.301777
 30
0.0
  0
SPLINE
  5
1f3
100
AcDbEntity
  8
0
 62
7
100
AcDbSpline
 70
8
 71
3
 72
8
 73
4
 74
0
 40
0
 40
0
 40
0
 40
0
 40
1
 40
1
 40
1
 40
1
 10
305.878706
 20
-45.301777
 30
0.0
 10
308.170527
 20
-49.081350
 30
0.0
 10
308.655244
 20
-53.686687
 30
0.0
 10
307.200300
 20
-57.860754
 30
0.0
  0
LINE
  5
1f4
100
AcDbEntity
  8
0
 62
7
100
AcDbLine
 10
822.414958
 20
-163.397490
 30
0.0
 11
820.417354
 21
-170.851596
 31
0.0
  0
SPLINE
  5
1f5
100
AcDbEntity
  8
0
 62
7
100
AcDbSpline
 70
8
 71
3
 72
8
 73
4
 74
0
 40
0
 40
0
 40
0
 40
0
 40
1
 40
1
 40
1
 40
1
 10
820.417354
 20
-170.851596
 30
0.0
 10
819.830508
 20
-173.040494
 30
0.0
 10
818.336671
 20
-174.874056
 30
0.0
 10
816.311550
 20
-175.890850
 30
0.0
  0
SPLINE
  5
1f6
100
AcDbEntity
  8
0
 62
7
100
AcDbSpline
 70
8
 71
3
 72
8
 73
4
 74
0
 40
0
 40
0
 40
0
 40
0
 40
1
 40
1
 40
1
 40
1
 10
816.311550
 20
-175.890850
 30
0.0
 10
814.286694
 20
-176.907644
 30
0.0
 10
811.923700
 20
-177.010302
 30
0.0
 10
809.817881
 20
-176.173425
 30
0.0
  0
SPLINE
  5
1f7
100
AcDbEntity
  8
0
 62
7
100
AcDbSpline
 70
8
 71
3
 72
8
 73
4
 74
0
 40
0
 40
0
 40
0
 40
0
 40
1
 40
1
 40
1
 40
1
 10
809.817881
 20
-176.173425
 30
0.0
 10
803.472908
 20
-173.651417
 30
0.0
 10
796.225706
 20
-175.791896
 30
0.0
 10
792.269127
 20
-181.356877
 30
0.0
  0
SPLINE
  5
1f8
100
AcDbEntity
  8
0
 62
7
100
AcDbSpline
 70
8
 71
3
 72
8
 73
4
 74
0
 40
0
 40
0
 40
0
 40
0
 40
1
 40
1
 40
1
 40
1
 10
792.269127
 20
-181.356877
 30
0.0
 10
790.312798
 20
-184.108544
 30
0.0
 10
786.830087
 20
-185.321394
 30
0.0
 10
783.587619
 20
-184.380271
 30
0.0
  0
SPLINE
  5
1f9
100
AcDbEntity
  8
0
 62
7
100
AcDbSpline
 70
8
 71
3
 72
8
 73
4
 74
0
 40
0
 40
0
 40
0
 40
0
 40
1
 40
1
 40
1
 40
1
 10
783.587619
 20
-184.380271
 30
0.0
 10
773.981921
 20
-181.592356
 30
0.0
 10
763.735931
 20
-185.908769
 30
0.0
 10
759.020792
 20
-194.729448
 30
0.0
  0
SPLINE
  5
1fa
100
AcDbEntity
  8
0
 62
7
100
AcDbSpline
 70
8
 71
3
 72
8
 73
4
 74
0
 40
0
 40
0
 40
0
 40
0
 40
1
 40
1
 40
1
 40
1
 10
759.020792
 20
-194.729448
 30
0.0
 10
757.119760
 20
-198.285977
 30
0.0
 10
752.853883
 20
-199.851517
 30
0.0
 10
749.103415
 20
-198.369321
 30
0.0
  0
SPLINE
  5
1fb
100
AcDbEntity
  8
0
 62
7
100
AcDbSpline
 70
8
 71
3
 72
8
 73
4
 74
0
 40
0
 40
0
 40
0
 40
0
 40
1
 40
1
 40
1
 40
1
 10
749.103415
 20
-198.369321
 30
0.0
 10
745.352946
 20
-196.887125
 30
0.0
 10
743.309833
 20
-192.828417
 30
0.0
 10
744.353615
 20
-188.932956
 30
0.0
  0
LINE
  5
1fc
100
AcDbEntity
  8
0
 62
7
100
AcDbLine
 10
744.353615
 20
-188.932956
 30
0.0
 11
765.924565
 21
-108.429164
 31
0.0
  0
SPLINE
  5
1fd
100
AcDbEntity
  8
0
 62
7
100
AcDbSpline
 70
8
 71
3
 72
8
 73
4
 74
0
 40
0
 40
0
 40
0
 40
0
 40
1
 40
1
 40
1
 40
1
 10
765.924565
 20
-108.429164
 30
0.0
 10
767.059098
 20
-104.194773
 30
0.0
 10
771.411758
 20
-101.681919
 30
0.0
 10
775.646150
 20
-102.816505
 30
0.0
  0
LINE
  5
1fe
100
AcDbEntity
  8
0
 62
7
100
AcDbLine
 10
775.646150
 20
-102.816505
 30
0.0
 11
789.540744
 21
-106.539590
 31
0.0
  0
SPLINE
  5
1ff
100
AcDbEntity
  8
0
 62
7
100
AcDbSpline
 70
8
 71
3
 72
8
 73
4
 74
0
 40
0
 40
0
 40
0
 40
0
 40
1
 40
1
 40
1
 40
1
 10
789.540744
 20
-106.539590
 30
0.0
 10
795.224523
 20
-108.062531
 30
0.0
 10
800.017715
 20
-111.882638
 30
0.0
 10
802.770175
 20
-117.083235
 30
0.0
  0
SPLINE
  5
200
100
AcDbEntity
  8
0
 62
7
100
AcDbSpline
 70
8
 71
3
 72
8
 73
4
 74
0
 40
0
 40
0
 40
0
 40
0
 40
1
 40
1
 40
1
 40
1
 10
802.770175
 20
-117.083235
 30
0.0
 10
805.522900
 20
-122.283859
 30
0.0
 10
805.986450
 20
-128.395496
 30
0.0
 10
804.049700
 20
-133.951746
 30
0.0
  0
SPLINE
  5
201
100
AcDbEntity
  8
0
 62
7
100
AcDbSpline
 70
8
 71
3
 72
8
 73
4
 74
0
 40
0
 40
0
 40
0
 40
0
 40
1
 40
1
 40
1
 40
1
 10
804.049700
 20
-133.951746
 30
0.0
 10
802.594756
 20
-138.125812
 30
0.0
 10
803.079473
 20
-142.731150
 30
0.0
 10
805.371294
 20
-146.510723
 30
0.0
  0
SPLINE
  5
202
100
AcDbEntity
  8
0
 62
7
100
AcDbSpline
 70
8
 71
3
 72
8
 73
4
 74
0
 40
0
 40
0
 40
0
 40
0
 40
1
 40
1
 40
1
 40
1
 10
805.371294
 20
-146.510723
 30
0.0
 10
807.662850
 20
-150.290560
 30
0.0
 10
811.522592
 20
-152.849610
 30
0.0
 10
815.896154
 20
-153.489373
 30
0.0
  0
SPLINE
  5
203
100
AcDbEntity
  8
0
 62
7
100
AcDbSpline
 70
8
 71
3
 72
8
 73
4
 74
0
 40
0
 40
0
 40
0
 40
0
 40
1
 40
1
 40
1
 40
1
 10
815.896154
 20
-153.489373
 30
0.0
 10
818.138233
 20
-153.817192
 30
0.0
 10
820.133192
 20
-155.087721
 30
0.0
 10
821.377792
 20
-156.980815
 30
0.0
  0
SPLINE
  5
204
100
AcDbEntity
  8
0
 62
7
100
AcDbSpline
 70
8
 71
3
 72
8
 73
4
 74
0
 40
0
 40
0
 40
0
 40
0
 40
1
 40
1
 40
1
 40
1
 10
821.377792
 20
-156.980815
 30
0.0
 10
822.623979
 20
-158.873908
 30
0.0
 10
822.999687
 20
-161.208856
 30
0.0
 10
822.414958
 20
-163.397490
 30
0.0
  0
LINE
  5
205
100
AcDbEntity
  8
0
 62
7
100
AcDbLine
 10
822.414958
 20
-28.415010
 30
0.0
 11
820.417354
 21
-20.960904
 31
0.0
  0
SPLINE
  5
206
100
AcDbEntity
  8
0
 62
7
100
AcDbSpline
 70
8
 71
3
 72
8
 73
4
 74
0
 40
0
 40
0
 40
0
 40
0
 40
1
 40
1
 40
1
 40
1
 10
820.417354
 20
-20.960904
 30
0.0
 10
819.830508
 20
-18.772006
 30
0.0
 10
818.336671
 20
-16.938444
 30
0.0
 10
816.311550
 20
-15.921650
 30
0.0
  0
SPLINE
  5
207
100
AcDbEntity
  8
0
 62
7
100
AcDbSpline
 70
8
 71
3
 72
8
 73
4
 74
0
 40
0
 40
0
 40
0
 40
0
 40
1
 40
1
 40
1
 40
1
 10
816.311550
 20
-15.921650
 30
0.0
 10
814.286694
 20
-14.904856
 30
0.0
 10
811.923700
 20
-14.802198
 30
0.0
 10
809.817881
 20
-15.639075
 30
0.0
  0
SPLINE
  5
208
100
AcDbEntity
  8
0
 62
7
100
AcDbSpline
 70
8
 71
3
 72
8
 73
4
 74
0
 40
0
 40
0
 40
0
 40
0
 40
1
 40
1
 40
1
 40
1
 10
809.817881
 20
-15.639075
 30
0.0
 10
803.472908
 20
-18.161083
 30
0.0
 10
796.225706
 20
-16.020604
 30
0.0
 10
792.269127
 20
-10.455623
 30
0.0
  0
SPLINE
  5
209
100
AcDbEntity
  8
0
 62
7
100
AcDbSpline
 70
8
 71
3
 72
8
 73
4
 74
0
 40
0
 40
0
 40
0
 40
0
 40
1
 40
1
 40
1
 40
1
 10
792.269127
 20
-10.455623
 30
0.0
 10
790.312798
 20
-7.703956
 30
0.0
 10
786.830087
 20
-6.491106
 30
0.0
 10
783.587619
 20
-7.432229
 30
0.0
  0
SPLINE
  5
20a
100
AcDbEntity
  8
0
 62
7
100
AcDbSpline
 70
8
 71
3
 72
8
 73
4
 74
0
 40
0
 40
0
 40
0
 40
0
 40
1
 40
1
 40
1
 40
1
 10
783.587619
 20
-7.432229
 30
0.0
 10
773.981921
 20
-10.220144
 30
0.0
 10
763.735931
 20
-5.903731
 30
0.0
 10
759.020792
 20
2.916948
 30
0.0
  0
SPLINE
  5
20b
100
AcDbEntity
  8
0
 62
7
100
AcDbSpline
 70
8
 71
3
 72
8
 73
4
 74
0
 40
0
 40
0
 40
0
 40
0
 40
1
 40
1
 40
1
 40
1
 10
759.020792
 20
2.916948
 30
0.0
 10
757.119760
 20
6.473477
 30
0.0
 10
752.853883
 20
8.039017
 30
0.0
 10
749.103415
 20
6.556821
 30
0.0
  0
SPLINE
  5
20c
100
AcDbEntity
  8
0
 62
7
100
AcDbSpline
 70
8
 71
3
 72
8
 73
4
 74
0
 40
0
 40
0
 40
0
 40
0
 40
1
 40
1
 40
1
 40
1
 10
749.103415
 20
6.556821
 30
0.0
 10
745.352946
 20
5.074625
 30
0.0
 10
743.309833
 20
1.015917
 30
0.0
 10
744.353615
 20
-2.879544
 30
0.0
  0
LINE
  5
20d
100
AcDbEntity
  8
0
 62
7
100
AcDbLine
 10
744.353615
 20
-2.879544
 30
0.0
 11
765.924565
 21
-83.383336
 31
0.0
  0
SPLINE
  5
20e
100
AcDbEntity
  8
0
 62
7
100
AcDbSpline
 70
8
 71
3
 72
8
 73
4
 74
0
 40
0
 40
0
 40
0
 40
0
 40
1
 40
1
 40
1
 40
1
 10
765.924565
 20
-83.383336
 30
0.0
 10
767.059098
 20
-87.617727
 30
0.0
 10
771.411758
 20
-90.130581
 30
0.0
 10
775.646150
 20
-88.995995
 30
0.0
  0
LINE
  5
20f
100
AcDbEntity
  8
0
 62
7
100
AcDbLine
 10
775.646150
 20
-88.995995
 30
0.0
 11
789.540744
 21
-85.272910
 31
0.0
  0
SPLINE
  5
210
100
AcDbEntity
  8
0
 62
7
100
AcDbSpline
 70
8
 71
3
 72
8
 73
4
 74
0
 40
0
 40
0
 40
0
 40
0
 40
1
 40
1
 40
1
 40
1
 10
789.540744
 20
-85.272910
 30
0.0
 10
795.224523
 20
-83.749969
 30
0.0
 10
800.017715
 20
-79.929862
 30
0.0
 10
802.770175
 20
-74.729265
 30
0.0
  0
SPLINE
  5
211
100
AcDbEntity
  8
0
 62
7
100
AcDbSpline
 70
8
 71
3
 72
8
 73
4
 74
0
 40
0
 40
0
 40
0
 40
0
 40
1
 40
1
 40
1
 40
1
 10
802.770175
 20
-74.729265
 30
0.0
 10
805.522900
 20
-69.528641
 30
0.0
 10
805.986450
 20
-63.417004
 30
0.0
 10
804.049700
 20
-57.860754
 30
0.0
  0
SPLINE
  5
212
100
AcDbEntity
  8
0
 62
7
100
AcDbSpline
 70
8
 71
3
 72
8
 73
4
 74
0
 40
0
 40
0
 40
0
 40
0
 40
1
 40
1
 40
1
 40
1
 10
804.049700
 20
-57.860754
 30
0.0
 10
802.594756
 20
-53.686687
 30
0.0
 10
803.079473
 20
-49.081350
 30
0.0
 10
805.371294
 20
-45.301777
 30
0.0
  0
SPLINE
  5
213
100
AcDbEntity
  8
0
 62
7
100
AcDbSpline
 70
8
 71
3
 72
8
 73
4
 74
0
 40
0
 40
0
 40
0
 40
0
 40
1
 40
1
 40
1
 40
1
 10
805.371294
 20
-45.301777
 30
0.0
 10
807.662850
 20
-41.521940
 30
0.0
 10
811.522592
 20
-38.962890
 30
0.0
 10
815.896154
 20
-38.323127
 30
0.0
  0
SPLINE
  5
214
100
AcDbEntity
  8
0
 62
7
100
AcDbSpline
 70
8
 71
3
 72
8
 73
4
 74
0
 40
0
 40
0
 40
0
 40
0
 40
1
 40
1
 40
1
 40
1
 10
815.896154
 20
-38.323127
 30
0.0
 10
818.138233
 20
-37.995308
 30
0.0
 10
820.133192
 20
-36.724779
 30
0.0
 10
821.377792
 20
-34.831685
 30
0.0
  0
SPLINE
  5
215
100
AcDbEntity
  8
0
 62
7
100
AcDbSpline
 70
8
 71
3
 72
8
 73
4
 74
0
 40
0
 40
0
 40
0
 40
0
 40
1
 40
1
 40
1
 40
1
 10
821.377792
 20
-34.831685
 30
0.0
 10
822.623979
 20
-32.938592
 30
0.0
 10
822.999687
 20
-30.603644
 30
0.0
 10
822.414958
 20
-28.415010
 30
0.0
  0
SPLINE
  5
216
100
AcDbEntity
  8
0
 62
7
100
AcDbSpline
 70
8
 71
3
 72
8
 73
4
 74
0
 40
0
 40
0
 40
0
 40
0
 40
1
 40
1
 40
1
 40
1
 10
464.361213
 20
138.258731
 30
0.0
 10
458.580860
 20
137.157800
 30
0.0
 10
453.519646
 20
133.700490
 30
0.0
 10
450.392271
 20
128.716269
 30
0.0
  0
SPLINE
  5
217
100
AcDbEntity
  8
0
 62
7
100
AcDbSpline
 70
8
 71
3
 72
8
 73
4
 74
0
 40
0
 40
0
 40
0
 40
0
 40
1
 40
1
 40
1
 40
1
 10
450.392271
 20
128.716269
 30
0.0
 10
447.264631
 20
123.732313
 30
0.0
 10
446.352877
 20
117.670973
 30
0.0
 10
447.875819
 20
111.987458
 30
0.0
  0
LINE
  5
218
100
AcDbEntity
  8
0
 62
7
100
AcDbLine
 10
447.875819
 20
111.987458
 30
0.0
 11
451.599035
 21
98.092600
 31
0.0
  0
SPLINE
  5
219
100
AcDbEntity
  8
0
 62
7
100
AcDbSpline
 70
8
 71
3
 72
8
 73
4
 74
0
 40
0
 40
0
 40
0
 40
0
 40
1
 40
1
 40
1
 40
1
 10
451.599035
 20
98.092600
 30
0.0
 10
452.733569
 20
93.858208
 30
0.0
 10
457.085965
 20
91.345460
 30
0.0
 10
461.320356
 20
92.479994
 30
0.0
  0
LINE
  5
21a
100
AcDbEntity
  8
0
 62
7
100
AcDbLine
 10
461.320356
 20
92.479994
 30
0.0
 11
541.824228
 21
114.050944
 31
0.0
  0
SPLINE
  5
21b
100
AcDbEntity
  8
0
 62
7
100
AcDbSpline
 70
8
 71
3
 72
8
 73
4
 74
0
 40
0
 40
0
 40
0
 40
0
 40
1
 40
1
 40
1
 40
1
 10
541.824228
 20
114.050944
 30
0.0
 10
545.719556
 20
115.094725
 30
0.0
 10
548.213121
 20
118.893348
 30
0.0
 10
547.621486
 20
122.882471
 30
0.0
  0
SPLINE
  5
21c
100
AcDbEntity
  8
0
 62
7
100
AcDbSpline
 70
8
 71
3
 72
8
 73
4
 74
0
 40
0
 40
0
 40
0
 40
0
 40
1
 40
1
 40
1
 40
1
 10
547.621486
 20
122.882471
 30
0.0
 10
547.029825
 20
126.871594
 30
0.0
 10
543.541056
 20
129.783069
 30
0.0
 10
539.510499
 20
129.651306
 30
0.0
  0
SPLINE
  5
21d
100
AcDbEntity
  8
0
 62
7
100
AcDbSpline
 70
8
 71
3
 72
8
 73
4
 74
0
 40
0
 40
0
 40
0
 40
0
 40
1
 40
1
 40
1
 40
1
 10
539.510499
 20
129.651306
 30
0.0
 10
529.513879
 20
129.324546
 30
0.0
 10
520.652904
 20
136.039671
 30
0.0
 10
518.264510
 20
145.752260
 30
0.0
  0
SPLINE
  5
21e
100
AcDbEntity
  8
0
 62
7
100
AcDbSpline
 70
8
 71
3
 72
8
 73
4
 74
0
 40
0
 40
0
 40
0
 40
0
 40
1
 40
1
 40
1
 40
1
 10
518.264510
 20
145.752260
 30
0.0
 10
517.458325
 20
149.030713
 30
0.0
 10
514.666442
 20
151.440538
 30
0.0
 10
511.305175
 20
151.758831
 30
0.0
  0
SPLINE
  5
21f
100
AcDbEntity
  8
0
 62
7
100
AcDbSpline
 70
8
 71
3
 72
8
 73
4
 74
0
 40
0
 40
0
 40
0
 40
0
 40
1
 40
1
 40
1
 40
1
 10
511.305175
 20
151.758831
 30
0.0
 10
504.507500
 20
152.402827
 30
0.0
 10
499.030360
 20
157.608769
 30
0.0
 10
498.041877
 20
164.364904
 30
0.0
  0
SPLINE
  5
220
100
AcDbEntity
  8
0
 62
7
100
AcDbSpline
 70
8
 71
3
 72
8
 73
4
 74
0
 40
0
 40
0
 40
0
 40
0
 40
1
 40
1
 40
1
 40
1
 10
498.041877
 20
164.364904
 30
0.0
 10
497.714058
 20
166.606983
 30
0.0
 10
496.443529
 20
168.601942
 30
0.0
 10
494.550435
 20
169.846542
 30
0.0
  0
SPLINE
  5
221
100
AcDbEntity
  8
0
 62
7
100
AcDbSpline
 70
8
 71
3
 72
8
 73
4
 74
0
 40
0
 40
0
 40
0
 40
0
 40
1
 40
1
 40
1
 40
1
 10
494.550435
 20
169.846542
 30
0.0
 10
492.657342
 20
171.092729
 30
0.0
 10
490.322394
 20
171.468438
 30
0.0
 10
488.133760
 20
170.883708
 30
0.0
  0
LINE
  5
222
100
AcDbEntity
  8
0
 62
7
100
AcDbLine
 10
488.133760
 20
170.883708
 30
0.0
 11
480.679654
 21
168.886104
 31
0.0
  0
SPLINE
  5
223
100
AcDbEntity
  8
0
 62
7
100
AcDbSpline
 70
8
 71
3
 72
8
 73
4
 74
0
 40
0
 40
0
 40
0
 40
0
 40
1
 40
1
 40
1
 40
1
 10
480.679654
 20
168.886104
 30
0.0
 10
478.490756
 20
168.299258
 30
0.0
 10
476.657194
 20
166.805421
 30
0.0
 10
475.640400
 20
164.780300
 30
0.0
  0
SPLINE
  5
224
100
AcDbEntity
  8
0
 62
7
100
AcDbSpline
 70
8
 71
3
 72
8
 73
4
 74
0
 40
0
 40
0
 40
0
 40
0
 40
1
 40
1
 40
1
 40
1
 10
475.640400
 20
164.780300
 30
0.0
 10
474.623606
 20
162.755444
 30
0.0
 10
474.520948
 20
160.392450
 30
0.0
 10
475.357825
 20
158.286631
 30
0.0
  0
SPLINE
  5
225
100
AcDbEntity
  8
0
 62
7
100
AcDbSpline
 70
8
 71
3
 72
8
 73
4
 74
0
 40
0
 40
0
 40
0
 40
0
 40
1
 40
1
 40
1
 40
1
 10
475.357825
 20
158.286631
 30
0.0
 10
476.990569
 20
154.179240
 30
0.0
 10
476.704025
 20
149.557233
 30
0.0
 10
474.576775
 20
145.682675
 30
0.0
  0
SPLINE
  5
226
100
AcDbEntity
  8
0
 62
7
100
AcDbSpline
 70
8
 71
3
 72
8
 73
4
 74
0
 40
0
 40
0
 40
0
 40
0
 40
1
 40
1
 40
1
 40
1
 10
474.576775
 20
145.682675
 30
0.0
 10
472.449260
 20
141.808117
 30
0.0
 10
468.703290
 20
139.085554
 30
0.0
 10
464.361212
 20
138.258731
 30
0.0
  0
SPLINE
  5
227
100
AcDbEntity
  8
0
 62
7
100
AcDbSpline
 70
8
 71
3
 72
8
 73
4
 74
0
 40
0
 40
0
 40
0
 40
0
 40
1
 40
1
 40
1
 40
1
 10
752.235023
 20
84.097729
 30
0.0
 10
754.012494
 20
85.502667
 30
0.0
 10
755.104958
 20
87.600548
 30
0.0
 10
755.236985
 20
89.862735
 30
0.0
  0
SPLINE
  5
228
100
AcDbEntity
  8
0
 62
7
100
AcDbSpline
 70
8
 71
3
 72
8
 73
4
 74
0
 40
0
 40
0
 40
0
 40
0
 40
1
 40
1
 40
1
 40
1
 10
755.236985
 20
89.862735
 30
0.0
 10
755.369012
 20
92.124658
 30
0.0
 10
754.527902
 20
94.335252
 30
0.0
 10
752.925585
 20
95.937569
 30
0.0
  0
LINE
  5
229
100
AcDbEntity
  8
0
 62
7
100
AcDbLine
 10
752.925585
 20
95.937569
 30
0.0
 11
747.468819
 21
101.394335
 31
0.0
  0
SPLINE
  5
22a
100
AcDbEntity
  8
0
 62
7
100
AcDbSpline
 70
8
 71
3
 72
8
 73
4
 74
0
 40
0
 40
0
 40
0
 40
0
 40
1
 40
1
 40
1
 40
1
 10
747.468819
 20
101.394335
 30
0.0
 10
745.866502
 20
102.996652
 30
0.0
 10
743.655908
 20
103.837763
 30
0.0
 10
741.393985
 20
103.705735
 30
0.0
  0
SPLINE
  5
22b
100
AcDbEntity
  8
0
 62
7
100
AcDbSpline
 70
8
 71
3
 72
8
 73
4
 74
0
 40
0
 40
0
 40
0
 40
0
 40
1
 40
1
 40
1
 40
1
 10
741.393985
 20
103.705735
 30
0.0
 10
739.131798
 20
103.573708
 30
0.0
 10
737.033917
 20
102.481244
 30
0.0
 10
735.628979
 20
100.703773
 30
0.0
  0
SPLINE
  5
22c
100
AcDbEntity
  8
0
 62
7
100
AcDbSpline
 70
8
 71
3
 72
8
 73
4
 74
0
 40
0
 40
0
 40
0
 40
0
 40
1
 40
1
 40
1
 40
1
 10
735.628979
 20
100.703773
 30
0.0
 10
732.888160
 20
97.235879
 30
0.0
 10
728.742140
 20
95.172923
 30
0.0
 10
724.323069
 20
95.077938
 30
0.0
  0
SPLINE
  5
22d
100
AcDbEntity
  8
0
 62
7
100
AcDbSpline
 70
8
 71
3
 72
8
 73
4
 74
0
 40
0
 40
0
 40
0
 40
0
 40
1
 40
1
 40
1
 40
1
 10
724.323069
 20
95.077938
 30
0.0
 10
719.903733
 20
94.983217
 30
0.0
 10
715.673046
 20
96.866256
 30
0.0
 10
712.785912
 20
100.212971
 30
0.0
  0
SPLINE
  5
22e
100
AcDbEntity
  8
0
 62
7
100
AcDbSpline
 70
8
 71
3
 72
8
 73
4
 74
0
 40
0
 40
0
 40
0
 40
0
 40
1
 40
1
 40
1
 40
1
 10
712.785912
 20
100.212971
 30
0.0
 10
708.942310
 20
104.668554
 30
0.0
 10
703.417546
 20
107.322854
 30
0.0
 10
697.537446
 20
107.539283
 30
0.0
  0
SPLINE
  5
22f
100
AcDbEntity
  8
0
 62
7
100
AcDbSpline
 70
8
 71
3
 72
8
 73
4
 74
0
 40
0
 40
0
 40
0
 40
0
 40
1
 40
1
 40
1
 40
1
 10
697.537446
 20
107.539283
 30
0.0
 10
691.657346
 20
107.755713
 30
0.0
 10
685.952400
 20
105.514692
 30
0.0
 10
681.791562
 20
101.354119
 30
0.0
  0
LINE
  5
230
100
AcDbEntity
  8
0
 62
7
100
AcDbLine
 10
681.791562
 20
101.354119
 30
0.0
 11
671.619921
 21
91.182477
 31
0.0
  0
SPLINE
  5
231
100
AcDbEntity
  8
0
 62
7
100
AcDbSpline
 70
8
 71
3
 72
8
 73
4
 74
0
 40
0
 40
0
 40
0
 40
0
 40
1
 40
1
 40
1
 40
1
 10
671.619921
 20
91.182477
 30
0.0
 10
668.520062
 20
88.082619
 30
0.0
 10
668.520062
 20
83.056858
 30
0.0
 10
671.619921
 20
79.957000
 30
0.0
  0
LINE
  5
232
100
AcDbEntity
  8
0
 62
7
100
AcDbLine
 10
671.619921
 20
79.957000
 30
0.0
 11
730.552948
 21
21.024238
 31
0.0
  0
SPLINE
  5
233
100
AcDbEntity
  8
0
 62
7
100
AcDbSpline
 70
8
 71
3
 72
8
 73
4
 74
0
 40
0
 40
0
 40
0
 40
0
 40
1
 40
1
 40
1
 40
1
 10
730.552948
 20
21.024238
 30
0.0
 10
733.404362
 20
18.172558
 30
0.0
 10
737.940908
 20
17.912473
 30
0.0
 10
741.099769
 20
20.419400
 30
0.0
  0
SPLINE
  5
234
100
AcDbEntity
  8
0
 62
7
100
AcDbSpline
 70
8
 71
3
 72
8
 73
4
 74
0
 40
0
 40
0
 40
0
 40
0
 40
1
 40
1
 40
1
 40
1
 10
741.099769
 20
20.419400
 30
0.0
 10
744.258629
 20
22.926327
 30
0.0
 10
745.035710
 20
27.403342
 30
0.0
 10
742.906344
 20
30.828108
 30
0.0
  0
SPLINE
  5
235
100
AcDbEntity
  8
0
 62
7
100
AcDbSpline
 70
8
 71
3
 72
8
 73
4
 74
0
 40
0
 40
0
 40
0
 40
0
 40
1
 40
1
 40
1
 40
1
 10
742.906344
 20
30.828108
 30
0.0
 10
737.624996
 20
39.322027
 30
0.0
 10
739.009825
 20
50.353300
 30
0.0
 10
746.227129
 20
57.278240
 30
0.0
  0
SPLINE
  5
236
100
AcDbEntity
  8
0
 62
7
100
AcDbSpline
 70
8
 71
3
 72
8
 73
4
 74
0
 40
0
 40
0
 40
0
 40
0
 40
1
 40
1
 40
1
 40
1
 10
746.227129
 20
57.278240
 30
0.0
 10
748.663412
 20
59.615569
 30
0.0
 10
749.354240
 20
63.238244
 30
0.0
 10
747.949302
 20
66.308469
 30
0.0
  0
SPLINE
  5
237
100
AcDbEntity
  8
0
 62
7
100
AcDbSpline
 70
8
 71
3
 72
8
 73
4
 74
0
 40
0
 40
0
 40
0
 40
0
 40
1
 40
1
 40
1
 40
1
 10
747.949302
 20
66.308469
 30
0.0
 10
745.108206
 20
72.517181
 30
0.0
 10
746.878004
 20
79.863602
 30
0.0
 10
752.235023
 20
84.097729
 30
0.0
  0
SPLINE
  5
238
100
AcDbEntity
  8
0
 62
7
100
AcDbSpline
 70
8
 71
3
 72
8
 73
4
 74
0
 40
0
 40
0
 40
0
 40
0
 40
1
 40
1
 40
1
 40
1
 10
646.888788
 20
138.258731
 30
0.0
 10
652.669140
 20
137.157800
 30
0.0
 10
657.730354
 20
133.700490
 30
0.0
 10
660.857729
 20
128.716269
 30
0.0
  0
SPLINE
  5
239
100
AcDbEntity
  8
0
 62
7
100
AcDbSpline
 70
8
 71
3
 72
8
 73
4
 74
0
 40
0
 40
0
 40
0
 40
0
 40
1
 40
1
 40
1
 40
1
 10
660.857729
 20
128.716269
 30
0.0
 10
663.985369
 20
123.732313
 30
0.0
 10
664.897123
 20
117.670973
 30
0.0
 10
663.374181
 20
111.987458
 30
0.0
  0
LINE
  5
23a
100
AcDbEntity
  8
0
 62
7
100
AcDbLine
 10
663.374181
 20
111.987458
 30
0.0
 11
659.650965
 21
98.092600
 31
0.0
  0
SPLINE
  5
23b
100
AcDbEntity
  8
0
 62
7
100
AcDbSpline
 70
8
 71
3
 72
8
 73
4
 74
0
 40
0
 40
0
 40
0
 40
0
 40
1
 40
1
 40
1
 40
1
 10
659.650965
 20
98.092600
 30
0.0
 10
658.516431
 20
93.858208
 30
0.0
 10
654.164035
 20
91.345460
 30
0.0
 10
649.929644
 20
92.479994
 30
0.0
  0
LINE
  5
23c
100
AcDbEntity
  8
0
 62
7
100
AcDbLine
 10
649.929644
 20
92.479994
 30
0.0
 11
569.425772
 21
114.050944
 31
0.0
  0
SPLINE
  5
23d
100
AcDbEntity
  8
0
 62
7
100
AcDbSpline
 70
8
 71
3
 72
8
 73
4
 74
0
 40
0
 40
0
 40
0
 40
0
 40
1
 40
1
 40
1
 40
1
 10
569.425772
 20
114.050944
 30
0.0
 10
565.530444
 20
115.094725
 30
0.0
 10
563.036879
 20
118.893348
 30
0.0
 10
563.628514
 20
122.882471
 30
0.0
  0
SPLINE
  5
23e
100
AcDbEntity
  8
0
 62
7
100
AcDbSpline
 70
8
 71
3
 72
8
 73
4
 74
0
 40
0
 40
0
 40
0
 40
0
 40
1
 40
1
 40
1
 40
1
 10
563.628514
 20
122.882471
 30
0.0
 10
564.220175
 20
126.871594
 30
0.0
 10
567.708944
 20
129.783069
 30
0.0
 10
571.739501
 20
129.651306
 30
0.0
  0
SPLINE
  5
23f
100
AcDbEntity
  8
0
 62
7
100
AcDbSpline
 70
8
 71
3
 72
8
 73
4
 74
0
 40
0
 40
0
 40
0
 40
0
 40
1
 40
1
 40
1
 40
1
 10
571.739501
 20
129.651306
 30
0.0
 10
581.736121
 20
129.324546
 30
0.0
 10
590.597096
 20
136.039671
 30
0.0
 10
592.985490
 20
145.752260
 30
0.0
  0
SPLINE
  5
240
100
AcDbEntity
  8
0
 62
7
100
AcDbSpline
 70
8
 71
3
 72
8
 73
4
 74
0
 40
0
 40
0
 40
0
 40
0
 40
1
 40
1
 40
1
 40
1
 10
592.985490
 20
145.752260
 30
0.0
 10
593.791675
 20
149.030713
 30
0.0
 10
596.583558
 20
151.440538
 30
0.0
 10
599.944825
 20
151.758831
 30
0.0
  0
SPLINE
  5
241
100
AcDbEntity
  8
0
 62
7
100
AcDbSpline
 70
8
 71
3
 72
8
 73
4
 74
0
 40
0
 40
0
 40
0
 40
0
 40
1
 40
1
 40
1
 40
1
 10
599.944825
 20
151.758831
 30
0.0
 10
606.742500
 20
152.402827
 30
0.0
 10
612.219640
 20
157.608769
 30
0.0
 10
613.208123
 20
164.364904
 30
0.0
  0
SPLINE
  5
242
100
AcDbEntity
  8
0
 62
7
100
AcDbSpline
 70
8
 71
3
 72
8
 73
4
 74
0
 40
0
 40
0
 40
0
 40
0
 40
1
 40
1
 40
1
 40
1
 10
613.208123
 20
164.364904
 30
0.0
 10
613.535942
 20
166.606983
 30
0.0
 10
614.806471
 20
168.601942
 30
0.0
 10
616.699565
 20
169.846542
 30
0.0
  0
SPLINE
  5
243
100
AcDbEntity
  8
0
 62
7
100
AcDbSpline
 70
8
 71
3
 72
8
 73
4
 74
0
 40
0
 40
0
 40
0
 40
0
 40
1
 40
1
 40
1
 40
1
 10
616.699565
 20
169.846542
 30
0.0
 10
618.592658
 20
171.092729
 30
0.0
 10
620.927606
 20
171.468438
 30
0.0
 10
623.116240
 20
170.883708
 30
0.0
  0
LINE
  5
244
100
AcDbEntity
  8
0
 62
7
100
AcDbLine
 10
623.116240
 20
170.883708
 30
0.0
 11
630.570346
 21
168.886104
 31
0.0
  0
SPLINE
  5
245
100
AcDbEntity
  8
0
 62
7
100
AcDbSpline
 70
8
 71
3
 72
8
 73
4
 74
0
 40
0
 40
0
 40
0
 40
0
 40
1
 40
1
 40
1
 40
1
 10
630.570346
 20
168.886104
 30
0.0
 10
632.759244
 20
168.299258
 30
0.0
 10
634.592806
 20
166.805421
 30
0.0
 10
635.609600
 20
164.780300
 30
0.0
  0
SPLINE
  5
246
100
AcDbEntity
  8
0
 62
7
100
AcDbSpline
 70
8
 71
3
 72
8
 73
4
 74
0
 40
0
 40
0
 40
0
 40
0
 40
1
 40
1
 40
1
 40
1
 10
635.609600
 20
164.780300
 30
0.0
 10
636.626394
 20
162.755444
 30
0.0
 10
636.729052
 20
160.392450
 30
0.0
 10
635.892175
 20
158.286631
 30
0.0
  0
SPLINE
  5
247
100
AcDbEntity
  8
0
 62
7
100
AcDbSpline
 70
8
 71
3
 72
8
 73
4
 74
0
 40
0
 40
0
 40
0
 40
0
 40
1
 40
1
 40
1
 40
1
 10
635.892175
 20
158.286631
 30
0.0
 10
634.259431
 20
154.179240
 30
0.0
 10
634.545975
 20
149.557233
 30
0.0
 10
636.673225
 20
145.682675
 30
0.0
  0
SPLINE
  5
248
100
AcDbEntity
  8
0
 62
7
100
AcDbSpline
 70
8
 71
3
 72
8
 73
4
 74
0
 40
0
 40
0
 40
0
 40
0
 40
1
 40
1
 40
1
 40
1
 10
636.673225
 20
145.682675
 30
0.0
 10
638.800740
 20
141.808117
 30
0.0
 10
642.546710
 20
139.085554
 30
0.0
 10
646.888787
 20
138.258731
 30
0.0
  0
SPLINE
  5
249
100
AcDbEntity
  8
0
 62
7
100
AcDbSpline
 70
8
 71
3
 72
8
 73
4
 74
0
 40
0
 40
0
 40
0
 40
0
 40
1
 40
1
 40
1
 40
1
 10
752.235023
 20
-275.910229
 30
0.0
 10
754.012494
 20
-277.315167
 30
0.0
 10
755.104958
 20
-279.413048
 30
0.0
 10
755.236985
 20
-281.675235
 30
0.0
  0
SPLINE
  5
24a
100
AcDbEntity
  8
0
 62
7
100
AcDbSpline
 70
8
 71
3
 72
8
 73
4
 74
0
 40
0
 40
0
 40
0
 40
0
 40
1
 40
1
 40
1
 40
1
 10
755.236985
 20
-281.675235
 30
0.0
 10
755.369012
 20
-283.937158
 30
0.0
 10
754.527902
 20
-286.147752
 30
0.0
 10
752.925585
 20
-287.750069
 30
0.0
  0
LINE
  5
24b
100
AcDbEntity
  8
0
 62
7
100
AcDbLine
 10
752.925585
 20
-287.750069
 30
0.0
 11
747.468819
 21
-293.206835
 31
0.0
  0
SPLINE
  5
24c
100
AcDbEntity
  8
0
 62
7
100
AcDbSpline
 70
8
 71
3
 72
8
 73
4
 74
0
 40
0
 40
0
 40
0
 40
0
 40
1
 40
1
 40
1
 40
1
 10
747.468819
 20
-293.206835
 30
0.0
 10
745.866502
 20
-294.809152
 30
0.0
 10
743.655908
 20
-295.650262
 30
0.0
 10
741.393985
 20
-295.518235
 30
0.0
  0
SPLINE
  5
24d
100
AcDbEntity
  8
0
 62
7
100
AcDbSpline
 70
8
 71
3
 72
8
 73
4
 74
0
 40
0
 40
0
 40
0
 40
0
 40
1
 40
1
 40
1
 40
1
 10
741.393985
 20
-295.518235
 30
0.0
 10
739.131798
 20
-295.386208
 30
0.0
 10
737.033917
 20
-294.293744
 30
0.0
 10
735.628979
 20
-292.516273
 30
0.0
  0
SPLINE
  5
24e
100
AcDbEntity
  8
0
 62
7
100
AcDbSpline
 70
8
 71
3
 72
8
 73
4
 74
0
 40
0
 40
0
 40
0
 40
0
 40
1
 40
1
 40
1
 40
1
 10
735.628979
 20
-292.516273
 30
0.0
 10
732.888160
 20
-289.048379
 30
0.0
 10
728.742140
 20
-286.985423
 30
0.0
 10
724.323069
 20
-286.890437
 30
0.0
  0
SPLINE
  5
24f
100
AcDbEntity
  8
0
 62
7
100
AcDbSpline
 70
8
 71
3
 72
8
 73
4
 74
0
 40
0
 40
0
 40
0
 40
0
 40
1
 40
1
 40
1
 40
1
 10
724.323069
 20
-286.890437
 30
0.0
 10
719.903733
 20
-286.795717
 30
0.0
 10
715.673046
 20
-288.678756
 30
0.0
 10
712.785912
 20
-292.025471
 30
0.0
  0
SPLINE
  5
250
100
AcDbEntity
  8
0
 62
7
100
AcDbSpline
 70
8
 71
3
 72
8
 73
4
 74
0
 40
0
 40
0
 40
0
 40
0
 40
1
 40
1
 40
1
 40
1
 10
712.785912
 20
-292.025471
 30
0.0
 10
708.942310
 20
-296.481054
 30
0.0
 10
703.417546
 20
-299.135354
 30
0.0
 10
697.537446
 20
-299.351783
 30
0.0
  0
SPLINE
  5
251
100
AcDbEntity
  8
0
 62
7
100
AcDbSpline
 70
8
 71
3
 72
8
 73
4
 74
0
 40
0
 40
0
 40
0
 40
0
 40
1
 40
1
 40
1
 40
1
 10
697.537446
 20
-299.351783
 30
0.0
 10
691.657346
 20
-299.568212
 30
0.0
 10
685.952400
 20
-297.327192
 30
0.0
 10
681.791562
 20
-293.166619
 30
0.0
  0
LINE
  5
252
100
AcDbEntity
  8
0
 62
7
100
AcDbLine
 10
681.791562
 20
-293.166619
 30
0.0
 11
671.619921
 21
-282.994977
 31
0.0
  0
SPLINE
  5
253
100
AcDbEntity
  8
0
 62
7
100
AcDbSpline
 70
8
 71
3
 72
8
 73
4
 74
0
 40
0
 40
0
 40
0
 40
0
 40
1
 40
1
 40
1
 40
1
 10
671.619921
 20
-282.994977
 30
0.0
 10
668.520062
 20
-279.895119
 30
0.0
 10
668.520062
 20
-274.869358
 30
0.0
 10
671.619921
 20
-271.769500
 30
0.0
  0
LINE
  5
254
100
AcDbEntity
  8
0
 62
7
100
AcDbLine
 10
671.619921
 20
-271.769500
 30
0.0
 11
730.552948
 21
-212.836737
 31
0.0
  0
SPLINE
  5
255
100
AcDbEntity
  8
0
 62
7
100
AcDbSpline
 70
8
 71
3
 72
8
 73
4
 74
0
 40
0
 40
0
 40
0
 40
0
 40
1
 40
1
 40
1
 40
1
 10
730.552948
 20
-212.836737
 30
0.0
 10
733.404362
 20
-209.985058
 30
0.0
 10
737.940908
 20
-209.724973
 30
0.0
 10
741.099769
 20
-212.231900
 30
0.0
  0
SPLINE
  5
256
100
AcDbEntity
  8
0
 62
7
100
AcDbSpline
 70
8
 71
3
 72
8
 73
4
 74
0
 40
0
 40
0
 40
0
 40
0
 40
1
 40
1
 40
1
 40
1
 10
741.099769
 20
-212.231900
 30
0.0
 10
744.258629
 20
-214.738827
 30
0.0
 10
745.035710
 20
-219.215842
 30
0.0
 10
742.906344
 20
-222.640608
 30
0.0
  0
SPLINE
  5
257
100
AcDbEntity
  8
0
 62
7
100
AcDbSpline
 70
8
 71
3
 72
8
 73
4
 74
0
 40
0
 40
0
 40
0
 40
0
 40
1
 40
1
 40
1
 40
1
 10
742.906344
 20
-222.640608
 30
0.0
 10
737.624996
 20
-231.134527
 30
0.0
 10
739.009825
 20
-242.165800
 30
0.0
 10
746.227129
 20
-249.090740
 30
0.0
  0
SPLINE
  5
258
100
AcDbEntity
  8
0
 62
7
100
AcDbSpline
 70
8
 71
3
 72
8
 73
4
 74
0
 40
0
 40
0
 40
0
 40
0
 40
1
 40
1
 40
1
 40
1
 10
746.227129
 20
-249.090740
 30
0.0
 10
748.663412
 20
-251.428069
 30
0.0
 10
749.354240
 20
-255.050744
 30
0.0
 10
747.949302
 20
-258.120969
 30
0.0
  0
SPLINE
  5
259
100
AcDbEntity
  8
0
 62
7
100
AcDbSpline
 70
8
 71
3
 72
8
 73
4
 74
0
 40
0
 40
0
 40
0
 40
0
 40
1
 40
1
 40
1
 40
1
 10
747.949302
 20
-258.120969
 30
0.0
 10
745.108206
 20
-264.329681
 30
0.0
 10
746.878004
 20
-271.676102
 30
0.0
 10
752.235023
 20
-275.910229
 30
0.0
  0
SPLINE
  5
25a
100
AcDbEntity
  8
0
 62
7
100
AcDbSpline
 70
8
 71
3
 72
8
 73
4
 74
0
 40
0
 40
0
 40
0
 40
0
 40
1
 40
1
 40
1
 40
1
 10
646.888788
 20
-330.071231
 30
0.0
 10
652.669140
 20
-328.970300
 30
0.0
 10
657.730354
 20
-325.512990
 30
0.0
 10
660.857729
 20
-320.528769
 30
0.0
  0
SPLINE
  5
25b
100
AcDbEntity
  8
0
 62
7
100
AcDbSpline
 70
8
 71
3
 72
8
 73
4
 74
0
 40
0
 40
0
 40
0
 40
0
 40
1
 40
1
 40
1
 40
1
 10
660.857729
 20
-320.528769
 30
0.0
 10
663.985369
 20
-315.544812
 30
0.0
 10
664.897123
 20
-309.483473
 30
0.0
 10
663.374181
 20
-303.799958
 30
0.0
  0
LINE
  5
25c
100
AcDbEntity
  8
0
 62
7
100
AcDbLine
 10
663.374181
 20
-303.799958
 30
0.0
 11
659.650965
 21
-289.905100
 31
0.0
  0
SPLINE
  5
25d
100
AcDbEntity
  8
0
 62
7
100
AcDbSpline
 70
8
 71
3
 72
8
 73
4
 74
0
 40
0
 40
0
 40
0
 40
0
 40
1
 40
1
 40
1
 40
1
 10
659.650965
 20
-289.905100
 30
0.0
 10
658.516431
 20
-285.670708
 30
0.0
 10
654.164035
 20
-283.157960
 30
0.0
 10
649.929644
 20
-284.292494
 30
0.0
  0
LINE
  5
25e
100
AcDbEntity
  8
0
 62
7
100
AcDbLine
 10
649.929644
 20
-284.292494
 30
0.0
 11
569.425772
 21
-305.863444
 31
0.0
  0
SPLINE
  5
25f
100
AcDbEntity
  8
0
 62
7
100
AcDbSpline
 70
8
 71
3
 72
8
 73
4
 74
0
 40
0
 40
0
 40
0
 40
0
 40
1
 40
1
 40
1
 40
1
 10
569.425772
 20
-305.863444
 30
0.0
 10
565.530444
 20
-306.907225
 30
0.0
 10
563.036879
 20
-310.705848
 30
0.0
 10
563.628514
 20
-314.694971
 30
0.0
  0
SPLINE
  5
260
100
AcDbEntity
  8
0
 62
7
100
AcDbSpline
 70
8
 71
3
 72
8
 73
4
 74
0
 40
0
 40
0
 40
0
 40
0
 40
1
 40
1
 40
1
 40
1
 10
563.628514
 20
-314.694971
 30
0.0
 10
564.220175
 20
-318.684094
 30
0.0
 10
567.708944
 20
-321.595569
 30
0.0
 10
571.739501
 20
-321.463806
 30
0.0
  0
SPLINE
  5
261
100
AcDbEntity
  8
0
 62
7
100
AcDbSpline
 70
8
 71
3
 72
8
 73
4
 74
0
 40
0
 40
0
 40
0
 40
0
 40
1
 40
1
 40
1
 40
1
 10
571.739501
 20
-321.463806
 30
0.0
 10
581.736121
 20
-321.137046
 30
0.0
 10
590.597096
 20
-327.852171
 30
0.0
 10
592.985490
 20
-337.564760
 30
0.0
  0
SPLINE
  5
262
100
AcDbEntity
  8
0
 62
7
100
AcDbSpline
 70
8
 71
3
 72
8
 73
4
 74
0
 40
0
 40
0
 40
0
 40
0
 40
1
 40
1
 40
1
 40
1
 10
592.985490
 20
-337.564760
 30
0.0
 10
593.791675
 20
-340.843212
 30
0.0
 10
596.583558
 20
-343.253037
 30
0.0
 10
599.944825
 20
-343.571331
 30
0.0
  0
SPLINE
  5
263
100
AcDbEntity
  8
0
 62
7
100
AcDbSpline
 70
8
 71
3
 72
8
 73
4
 74
0
 40
0
 40
0
 40
0
 40
0
 40
1
 40
1
 40
1
 40
1
 10
599.944825
 20
-343.571331
 30
0.0
 10
606.742500
 20
-344.215327
 30
0.0
 10
612.219640
 20
-349.421269
 30
0.0
 10
613.208123
 20
-356.177404
 30
0.0
  0
SPLINE
  5
264
100
AcDbEntity
  8
0
 62
7
100
AcDbSpline
 70
8
 71
3
 72
8
 73
4
 74
0
 40
0
 40
0
 40
0
 40
0
 40
1
 40
1
 40
1
 40
1
 10
613.208123
 20
-356.177404
 30
0.0
 10
613.535942
 20
-358.419483
 30
0.0
 10
614.806471
 20
-360.414442
 30
0.0
 10
616.699565
 20
-361.659042
 30
0.0
  0
SPLINE
  5
265
100
AcDbEntity
  8
0
 62
7
100
AcDbSpline
 70
8
 71
3
 72
8
 73
4
 74
0
 40
0
 40
0
 40
0
 40
0
 40
1
 40
1
 40
1
 40
1
 10
616.699565
 20
-361.659042
 30
0.0
 10
618.592658
 20
-362.905229
 30
0.0
 10
620.927606
 20
-363.280937
 30
0.0
 10
623.116240
 20
-362.696208
 30
0.0
  0
LINE
  5
266
100
AcDbEntity
  8
0
 62
7
100
AcDbLine
 10
623.116240
 20
-362.696208
 30
0.0
 11
630.570346
 21
-360.698604
 31
0.0
  0
SPLINE
  5
267
100
AcDbEntity
  8
0
 62
7
100
AcDbSpline
 70
8
 71
3
 72
8
 73
4
 74
0
 40
0
 40
0
 40
0
 40
0
 40
1
 40
1
 40
1
 40
1
 10
630.570346
 20
-360.698604
 30
0.0
 10
632.759244
 20
-360.111758
 30
0.0
 10
634.592806
 20
-358.617921
 30
0.0
 10
635.609600
 20
-356.592800
 30
0.0
  0
SPLINE
  5
268
100
AcDbEntity
  8
0
 62
7
100
AcDbSpline
 70
8
 71
3
 72
8
 73
4
 74
0
 40
0
 40
0
 40
0
 40
0
 40
1
 40
1
 40
1
 40
1
 10
635.609600
 20
-356.592800
 30
0.0
 10
636.626394
 20
-354.567944
 30
0.0
 10
636.729052
 20
-352.204950
 30
0.0
 10
635.892175
 20
-350.099131
 30
0.0
  0
SPLINE
  5
269
100
AcDbEntity
  8
0
 62
7
100
AcDbSpline
 70
8
 71
3
 72
8
 73
4
 74
0
 40
0
 40
0
 40
0
 40
0
 40
1
 40
1
 40
1
 40
1
 10
635.892175
 20
-350.099131
 30
0.0
 10
634.259431
 20
-345.991740
 30
0.0
 10
634.545975
 20
-341.369733
 30
0.0
 10
636.673225
 20
-337.495175
 30
0.0
  0
SPLINE
  5
26a
100
AcDbEntity
  8
0
 62
7
100
AcDbSpline
 70
8
 71
3
 72
8
 73
4
 74
0
 40
0
 40
0
 40
0
 40
0
 40
1
 40
1
 40
1
 40
1
 10
636.673225
 20
-337.495175
 30
0.0
 10
638.800740
 20
-333.620617
 30
0.0
 10
642.546710
 20
-330.898054
 30
0.0
 10
646.888787
 20
-330.071231
 30
0.0
  0
SPLINE
  5
26b
100
AcDbEntity
  8
0
 62
7
100
AcDbSpline
 70
8
 71
3
 72
8
 73
4
 74
0
 40
0
 40
0
 40
0
 40
0
 40
1
 40
1
 40
1
 40
1
 10
464.361213
 20
-330.071231
 30
0.0
 10
458.580860
 20
-328.970300
 30
0.0
 10
453.519646
 20
-325.512990
 30
0.0
 10
450.392271
 20
-320.528769
 30
0.0
  0
SPLINE
  5
26c
100
AcDbEntity
  8
0
 62
7
100
AcDbSpline
 70
8
 71
3
 72
8
 73
4
 74
0
 40
0
 40
0
 40
0
 40
0
 40
1
 40
1
 40
1
 40
1
 10
450.392271
 20
-320.528769
 30
0.0
 10
447.264631
 20
-315.544812
 30
0.0
 10
446.352877
 20
-309.483473
 30
0.0
 10
447.875819
 20
-303.799958
 30
0.0
  0
LINE
  5
26d
100
AcDbEntity
  8
0
 62
7
100
AcDbLine
 10
447.875819
 20
-303.799958
 30
0.0
 11
451.599035
 21
-289.905100
 31
0.0
  0
SPLINE
  5
26e
100
AcDbEntity
  8
0
 62
7
100
AcDbSpline
 70
8
 71
3
 72
8
 73
4
 74
0
 40
0
 40
0
 40
0
 40
0
 40
1
 40
1
 40
1
 40
1
 10
451.599035
 20
-289.905100
 30
0.0
 10
452.733569
 20
-285.670708
 30
0.0
 10
457.085965
 20
-283.157960
 30
0.0
 10
461.320356
 20
-284.292494
 30
0.0
  0
LINE
  5
26f
100
AcDbEntity
  8
0
 62
7
100
AcDbLine
 10
461.320356
 20
-284.292494
 30
0.0
 11
541.824228
 21
-305.863444
 31
0.0
  0
SPLINE
  5
270
100
AcDbEntity
  8
0
 62
7
100
AcDbSpline
 70
8
 71
3
 72
8
 73
4
 74
0
 40
0
 40
0
 40
0
 40
0
 40
1
 40
1
 40
1
 40
1
 10
541.824228
 20
-305.863444
 30
0.0
 10
545.719556
 20
-306.907225
 30
0.0
 10
548.213121
 20
-310.705848
 30
0.0
 10
547.621486
 20
-314.694971
 30
0.0
  0
SPLINE
  5
271
100
AcDbEntity
  8
0
 62
7
100
AcDbSpline
 70
8
 71
3
 72
8
 73
4
 74
0
 40
0
 40
0
 40
0
 40
0
 40
1
 40
1
 40
1
 40
1
 10
547.621486
 20
-314.694971
 30
0.0
 10
547.029825
 20
-318.684094
 30
0.0
 10
543.541056
 20
-321.595569
 30
0.0
 10
539.510499
 20
-321.463806
 30
0.0
  0
SPLINE
  5
272
100
AcDbEntity
  8
0
 62
7
100
AcDbSpline
 70
8
 71
3
 72
8
 73
4
 74
0
 40
0
 40
0
 40
0
 40
0
 40
1
 40
1
 40
1
 40
1
 10
539.510499
 20
-321.463806
 30
0.0
 10
529.513879
 20
-321.137046
 30
0.0
 10
520.652904
 20
-327.852171
 30
0.0
 10
518.264510
 20
-337.564760
 30
0.0
  0
SPLINE
  5
273
100
AcDbEntity
  8
0
 62
7
100
AcDbSpline
 70
8
 71
3
 72
8
 73
4
 74
0
 40
0
 40
0
 40
0
 40
0
 40
1
 40
1
 40
1
 40
1
 10
518.264510
 20
-337.564760
 30
0.0
 10
517.458325
 20
-340.843212
 30
0.0
 10
514.666442
 20
-343.253037
 30
0.0
 10
511.305175
 20
-343.571331
 30
0.0
  0
SPLINE
  5
274
100
AcDbEntity
  8
0
 62
7
100
AcDbSpline
 70
8
 71
3
 72
8
 73
4
 74
0
 40
0
 40
0
 40
0
 40
0
 40
1
 40
1
 40
1
 40
1
 10
511.305175
 20
-343.571331
 30
0.0
 10
504.507500
 20
-344.215327
 30
0.0
 10
499.030360
 20
-349.421269
 30
0.0
 10
498.041877
 20
-356.177404
 30
0.0
  0
SPLINE
  5
275
100
AcDbEntity
  8
0
 62
7
100
AcDbSpline
 70
8
 71
3
 72
8
 73
4
 74
0
 40
0
 40
0
 40
0
 40
0
 40
1
 40
1
 40
1
 40
1
 10
498.041877
 20
-356.177404
 30
0.0
 10
497.714058
 20
-358.419483
 30
0.0
 10
496.443529
 20
-360.414442
 30
0.0
 10
494.550435
 20
-361.659042
 30
0.0
  0
SPLINE
  5
276
100
AcDbEntity
  8
0
 62
7
100
AcDbSpline
 70
8
 71
3
 72
8
 73
4
 74
0
 40
0
 40
0
 40
0
 40
0
 40
1
 40
1
 40
1
 40
1
 10
494.550435
 20
-361.659042
 30
0.0
 10
492.657342
 20
-362.905229
 30
0.0
 10
490.322394
 20
-363.280937
 30
0.0
 10
488.133760
 20
-362.696208
 30
0.0
  0
LINE
  5
277
100
AcDbEntity
  8
0
 62
7
100
AcDbLine
 10
488.133760
 20
-362.696208
 30
0.0
 11
480.679654
 21
-360.698604
 31
0.0
  0
SPLINE
  5
278
100
AcDbEntity
  8
0
 62
7
100
AcDbSpline
 70
8
 71
3
 72
8
 73
4
 74
0
 40
0
 40
0
 40
0
 40
0
 40
1
 40
1
 40
1
 40
1
 10
480.679654
 20
-360.698604
 30
0.0
 10
478.490756
 20
-360.111758
 30
0.0
 10
476.657194
 20
-358.617921
 30
0.0
 10
475.640400
 20
-356.592800
 30
0.0
  0
SPLINE
  5
279
100
AcDbEntity
  8
0
 62
7
100
AcDbSpline
 70
8
 71
3
 72
8
 73
4
 74
0
 40
0
 40
0
 40
0
 40
0
 40
1
 40
1
 40
1
 40
1
 10
475.640400
 20
-356.592800
 30
0.0
 10
474.623606
 20
-354.567944
 30
0.0
 10
474.520948
 20
-352.204950
 30
0.0
 10
475.357825
 20
-350.099131
 30
0.0
  0
SPLINE
  5
27a
100
AcDbEntity
  8
0
 62
7
100
AcDbSpline
 70
8
 71
3
 72
8
 73
4
 74
0
 40
0
 40
0
 40
0
 40
0
 40
1
 40
1
 40
1
 40
1
 10
475.357825
 20
-350.099131
 30
0.0
 10
476.990569
 20
-345.991740
 30
0.0
 10
476.704025
 20
-341.369733
 30
0.0
 10
474.576775
 20
-337.495175
 30
0.0
  0
SPLINE
  5
27b
100
AcDbEntity
  8
0
 62
7
100
AcDbSpline
 70
8
 71
3
 72
8
 73
4
 74
0
 40
0
 40
0
 40
0
 40
0
 40
1
 40
1
 40
1
 40
1
 10
474.576775
 20
-337.495175
 30
0.0
 10
472.449260
 20
-333.620617
 30
0.0
 10
468.703290
 20
-330.898054
 30
0.0
 10
464.361212
 20
-330.071231
 30
0.0
  0
SPLINE
  5
27c
100
AcDbEntity
  8
0
 62
7
100
AcDbSpline
 70
8
 71
3
 72
8
 73
4
 74
0
 40
0
 40
0
 40
0
 40
0
 40
1
 40
1
 40
1
 40
1
 10
398.464088
 20
100.212971
 30
0.0
 10
402.307690
 20
104.668554
 30
0.0
 10
407.832454
 20
107.322854
 30
0.0
 10
413.712554
 20
107.539283
 30
0.0
  0
SPLINE
  5
27d
100
AcDbEntity
  8
0
 62
7
100
AcDbSpline
 70
8
 71
3
 72
8
 73
4
 74
0
 40
0
 40
0
 40
0
 40
0
 40
1
 40
1
 40
1
 40
1
 10
413.712554
 20
107.539283
 30
0.0
 10
419.592654
 20
107.755713
 30
0.0
 10
425.297600
 20
105.514692
 30
0.0
 10
429.458438
 20
101.354119
 30
0.0
  0
LINE
  5
27e
100
AcDbEntity
  8
0
 62
7
100
AcDbLine
 10
429.458438
 20
101.354119
 30
0.0
 11
439.630079
 21
91.182477
 31
0.0
  0
SPLINE
  5
27f
100
AcDbEntity
  8
0
 62
7
100
AcDbSpline
 70
8
 71
3
 72
8
 73
4
 74
0
 40
0
 40
0
 40
0
 40
0
 40
1
 40
1
 40
1
 40
1
 10
439.630079
 20
91.182477
 30
0.0
 10
442.729938
 20
88.082619
 30
0.0
 10
442.729938
 20
83.056858
 30
0.0
 10
439.630079
 20
79.957000
 30
0.0
  0
LINE
  5
280
100
AcDbEntity
  8
0
 62
7
100
AcDbLine
 10
439.630079
 20
79.957000
 30
0.0
 11
380.697052
 21
21.024238
 31
0.0
  0
SPLINE
  5
281
100
AcDbEntity
  8
0
 62
7
100
AcDbSpline
 70
8
 71
3
 72
8
 73
4
 74
0
 40
0
 40
0
 40
0
 40
0
 40
1
 40
1
 40
1
 40
1
 10
380.697052
 20
21.024238
 30
0.0
 10
377.845638
 20
18.172558
 30
0.0
 10
373.309092
 20
17.912473
 30
0.0
 10
370.150231
 20
20.419400
 30
0.0
  0
SPLINE
  5
282
100
AcDbEntity
  8
0
 62
7
100
AcDbSpline
 70
8
 71
3
 72
8
 73
4
 74
0
 40
0
 40
0
 40
0
 40
0
 40
1
 40
1
 40
1
 40
1
 10
370.150231
 20
20.419400
 30
0.0
 10
366.991371
 20
22.926327
 30
0.0
 10
366.214290
 20
27.403342
 30
0.0
 10
368.343656
 20
30.828108
 30
0.0
  0
SPLINE
  5
283
100
AcDbEntity
  8
0
 62
7
100
AcDbSpline
 70
8
 71
3
 72
8
 73
4
 74
0
 40
0
 40
0
 40
0
 40
0
 40
1
 40
1
 40
1
 40
1
 10
368.343656
 20
30.828108
 30
0.0
 10
373.625004
 20
39.322027
 30
0.0
 10
372.240175
 20
50.353300
 30
0.0
 10
365.022871
 20
57.278240
 30
0.0
  0
SPLINE
  5
284
100
AcDbEntity
  8
0
 62
7
100
AcDbSpline
 70
8
 71
3
 72
8
 73
4
 74
0
 40
0
 40
0
 40
0
 40
0
 40
1
 40
1
 40
1
 40
1
 10
365.022871
 20
57.278240
 30
0.0
 10
362.586588
 20
59.615569
 30
0.0
 10
361.895760
 20
63.238244
 30
0.0
 10
363.300698
 20
66.308469
 30
0.0
  0
SPLINE
  5
285
100
AcDbEntity
  8
0
 62
7
100
AcDbSpline
 70
8
 71
3
 72
8
 73
4
 74
0
 40
0
 40
0
 40
0
 40
0
 40
1
 40
1
 40
1
 40
1
 10
363.300698
 20
66.308469
 30
0.0
 10
366.141794
 20
72.517181
 30
0.0
 10
364.371996
 20
79.863602
 30
0.0
 10
359.014977
 20
84.097729
 30
0.0
  0
SPLINE
  5
286
100
AcDbEntity
  8
0
 62
7
100
AcDbSpline
 70
8
 71
3
 72
8
 73
4
 74
0
 40
0
 40
0
 40
0
 40
0
 40
1
 40
1
 40
1
 40
1
 10
359.014977
 20
84.097729
 30
0.0
 10
357.237506
 20
85.502667
 30
0.0
 10
356.145042
 20
87.600548
 30
0.0
 10
356.013015
 20
89.862735
 30
0.0
  0
SPLINE
  5
287
100
AcDbEntity
  8
0
 62
7
100
AcDbSpline
 70
8
 71
3
 72
8
 73
4
 74
0
 40
0
 40
0
 40
0
 40
0
 40
1
 40
1
 40
1
 40
1
 10
356.013015
 20
89.862735
 30
0.0
 10
355.880988
 20
92.124658
 30
0.0
 10
356.722098
 20
94.335252
 30
0.0
 10
358.324415
 20
95.937569
 30
0.0
  0
LINE
  5
288
100
AcDbEntity
  8
0
 62
7
100
AcDbLine
 10
358.324415
 20
95.937569
 30
0.0
 11
363.781181
 21
101.394335
 31
0.0
  0
SPLINE
  5
289
100
AcDbEntity
  8
0
 62
7
100
AcDbSpline
 70
8
 71
3
 72
8
 73
4
 74
0
 40
0
 40
0
 40
0
 40
0
 40
1
 40
1
 40
1
 40
1
 10
363.781181
 20
101.394335
 30
0.0
 10
365.383498
 20
102.996652
 30
0.0
 10
367.594092
 20
103.837763
 30
0.0
 10
369.856015
 20
103.705735
 30
0.0
  0
SPLINE
  5
28a
100
AcDbEntity
  8
0
 62
7
100
AcDbSpline
 70
8
 71
3
 72
8
 73
4
 74
0
 40
0
 40
0
 40
0
 40
0
 40
1
 40
1
 40
1
 40
1
 10
369.856015
 20
103.705735
 30
0.0
 10
372.118202
 20
103.573708
 30
0.0
 10
374.216083
 20
102.481244
 30
0.0
 10
375.621021
 20
100.703773
 30
0.0
  0
SPLINE
  5
28b
100
AcDbEntity
  8
0
 62
7
100
AcDbSpline
 70
8
 71
3
 72
8
 73
4
 74
0
 40
0
 40
0
 40
0
 40
0
 40
1
 40
1
 40
1
 40
1
 10
375.621021
 20
100.703773
 30
0.0
 10
378.361840
 20
97.235879
 30
0.0
 10
382.507860
 20
95.172923
 30
0.0
 10
386.926931
 20
95.077938
 30
0.0
  0
SPLINE
  5
28c
100
AcDbEntity
  8
0
 62
7
100
AcDbSpline
 70
8
 71
3
 72
8
 73
4
 74
0
 40
0
 40
0
 40
0
 40
0
 40
1
 40
1
 40
1
 40
1
 10
386.926931
 20
95.077938
 30
0.0
 10
391.346267
 20
94.983217
 30
0.0
 10
395.576954
 20
96.866256
 30
0.0
 10
398.464088
 20
100.212971
 30
0.0
  0
LINE
  5
28d
100
AcDbEntity
  8
0
 62
7
100
AcDbLine
 10
349.736569
 20
-305.957635
 30
0.0
 11
349.736569
 21
-297.555792
 31
0.0
  0
LINE
  5
28e
100
AcDbEntity
  8
0
 62
7
100
AcDbLine
 10
349.736569
 20
-297.555792
 30
0.0
 11
342.460527
 21
-293.355002
 31
0.0
  0
LINE
  5
28f
100
AcDbEntity
  8
0
 62
7
100
AcDbLine
 10
342.460527
 20
-293.355002
 30
0.0
 11
335.184485
 21
-297.555792
 31
0.0
  0
LINE
  5
290
100
AcDbEntity
  8
0
 62
7
100
AcDbLine
 10
335.184485
 20
-297.555792
 30
0.0
 11
335.184485
 21
-305.957635
 31
0.0
  0
LINE
  5
291
100
AcDbEntity
  8
0
 62
7
100
AcDbLine
 10
335.184485
 20
-305.957635
 30
0.0
 11
342.460527
 21
-310.158425
 31
0.0
  0
LINE
  5
292
100
AcDbEntity
  8
0
 62
7
100
AcDbLine
 10
342.460527
 20
-310.158425
 30
0.0
 11
349.736569
 21
-305.957635
 31
0.0
  0
LINE
  5
293
100
AcDbEntity
  8
0
 62
7
100
AcDbLine
 10
349.736569
 20
105.743292
 30
0.0
 11
349.736569
 21
114.145135
 31
0.0
  0
LINE
  5
294
100
AcDbEntity
  8
0
 62
7
100
AcDbLine
 10
349.736569
 20
114.145135
 30
0.0
 11
342.460527
 21
118.345925
 31
0.0
  0
LINE
  5
295
100
AcDbEntity
  8
0
 62
7
100
AcDbLine
 10
342.460527
 20
118.345925
 30
0.0
 11
335.184485
 21
114.145135
 31
0.0
  0
LINE
  5
296
100
AcDbEntity
  8
0
 62
7
100
AcDbLine
 10
335.184485
 20
114.145135
 30
0.0
 11
335.184485
 21
105.743292
 31
0.0
  0
LINE
  5
297
100
AcDbEntity
  8
0
 62
7
100
AcDbLine
 10
335.184485
 20
105.743292
 30
0.0
 11
342.460527
 21
101.542502
 31
0.0
  0
LINE
  5
298
100
AcDbEntity
  8
0
 62
7
100
AcDbLine
 10
342.460527
 20
101.542502
 30
0.0
 11
349.736569
 21
105.743292
 31
0.0
  0
LINE
  5
299
100
AcDbEntity
  8
0
 62
7
100
AcDbLine
 10
634.590690
 20
187.422813
 30
0.0
 11
634.590690
 21
195.825979
 31
0.0
  0
LINE
  5
29a
100
AcDbEntity
  8
0
 62
7
100
AcDbLine
 10
634.590690
 20
195.825979
 30
0.0
 11
627.314648
 21
200.027563
 31
0.0
  0
LINE
  5
29b
100
AcDbEntity
  8
0
 62
7
100
AcDbLine
 10
627.314648
 20
200.027563
 30
0.0
 11
620.038606
 21
195.825979
 31
0.0
  0
LINE
  5
29c
100
AcDbEntity
  8
0
 62
7
100
AcDbLine
 10
620.038606
 20
195.825979
 30
0.0
 11
620.038606
 21
187.422813
 31
0.0
  0
LINE
  5
29d
100
AcDbEntity
  8
0
 62
7
100
AcDbLine
 10
620.038606
 20
187.422813
 30
0.0
 11
627.314648
 21
183.223875
 31
0.0
  0
LINE
  5
29e
100
AcDbEntity
  8
0
 62
7
100
AcDbLine
 10
627.314648
 20
183.223875
 30
0.0
 11
634.590690
 21
187.422813
 31
0.0
  0
LINE
  5
29f
100
AcDbEntity
  8
0
 62
7
100
AcDbLine
 10
491.211394
 20
187.422813
 30
0.0
 11
491.211394
 21
195.825979
 31
0.0
  0
LINE
  5
2a0
100
AcDbEntity
  8
0
 62
7
100
AcDbLine
 10
491.211394
 20
195.825979
 30
0.0
 11
483.935352
 21
200.027563
 31
0.0
  0
LINE
  5
2a1
100
AcDbEntity
  8
0
 62
7
100
AcDbLine
 10
483.935352
 20
200.027563
 30
0.0
 11
476.659310
 21
195.825979
 31
0.0
  0
LINE
  5
2a2
100
AcDbEntity
  8
0
 62
7
100
AcDbLine
 10
476.659310
 20
195.825979
 30
0.0
 11
476.659310
 21
187.422813
 31
0.0
  0
LINE
  5
2a3
100
AcDbEntity
  8
0
 62
7
100
AcDbLine
 10
476.659310
 20
187.422813
 30
0.0
 11
483.935352
 21
183.223875
 31
0.0
  0
LINE
  5
2a4
100
AcDbEntity
  8
0
 62
7
100
AcDbLine
 10
483.935352
 20
183.223875
 30
0.0
 11
491.211394
 21
187.422813
 31
0.0
  0
LINE
  5
2a5
100
AcDbEntity
  8
0
 62
7
100
AcDbLine
 10
491.211394
 20
-387.638479
 30
0.0
 11
491.211394
 21
-379.235312
 31
0.0
  0
LINE
  5
2a6
100
AcDbEntity
  8
0
 62
7
100
AcDbLine
 10
491.211394
 20
-379.235312
 30
0.0
 11
483.935352
 21
-375.036375
 31
0.0
  0
LINE
  5
2a7
100
AcDbEntity
  8
0
 62
7
100
AcDbLine
 10
483.935352
 20
-375.036375
 30
0.0
 11
476.659310
 21
-379.235312
 31
0.0
  0
LINE
  5
2a8
100
AcDbEntity
  8
0
 62
7
100
AcDbLine
 10
476.659310
 20
-379.235312
 30
0.0
 11
476.659310
 21
-387.638479
 31
0.0
  0
LINE
  5
2a9
100
AcDbEntity
  8
0
 62
7
100
AcDbLine
 10
476.659310
 20
-387.638479
 30
0.0
 11
483.935352
 21
-391.840062
 31
0.0
  0
LINE
  5
2aa
100
AcDbEntity
  8
0
 62
7
100
AcDbLine
 10
483.935352
 20
-391.840062
 30
0.0
 11
491.211394
 21
-387.638479
 31
0.0
  0
LINE
  5
2ab
100
AcDbEntity
  8
0
 62
7
100
AcDbLine
 10
847.754104
 20
-181.787619
 30
0.0
 11
847.754104
 21
-173.386040
 31
0.0
  0
LINE
  5
2ac
100
AcDbEntity
  8
0
 62
7
100
AcDbLine
 10
847.754104
 20
-173.386040
 30
0.0
 11
840.478063
 21
-169.185250
 31
0.0
  0
LINE
  5
2ad
100
AcDbEntity
  8
0
 62
7
100
AcDbLine
 10
840.478063
 20
-169.185250
 30
0.0
 11
833.202021
 21
-173.386040
 31
0.0
  0
LINE
  5
2ae
100
AcDbEntity
  8
0
 62
7
100
AcDbLine
 10
833.202021
 20
-173.386040
 30
0.0
 11
833.202021
 21
-181.787619
 31
0.0
  0
LINE
  5
2af
100
AcDbEntity
  8
0
 62
7
100
AcDbLine
 10
833.202021
 20
-181.787619
 30
0.0
 11
840.478063
 21
-185.988408
 31
0.0
  0
LINE
  5
2b0
100
AcDbEntity
  8
0
 62
7
100
AcDbLine
 10
840.478063
 20
-185.988408
 30
0.0
 11
847.754104
 21
-181.787619
 31
0.0
  0
LINE
  5
2b1
100
AcDbEntity
  8
0
 62
7
100
AcDbLine
 10
278.047979
 20
-18.426460
 30
0.0
 11
278.047979
 21
-10.024881
 31
0.0
  0
LINE
  5
2b2
100
AcDbEntity
  8
0
 62
7
100
AcDbLine
 10
278.047979
 20
-10.024881
 30
0.0
 11
270.771938
 21
-5.824092
 31
0.0
  0
LINE
  5
2b3
100
AcDbEntity
  8
0
 62
7
100
AcDbLine
 10
270.771938
 20
-5.824092
 30
0.0
 11
263.495896
 21
-10.024881
 31
0.0
  0
LINE
  5
2b4
100
AcDbEntity
  8
0
 62
7
100
AcDbLine
 10
263.495896
 20
-10.024881
 30
0.0
 11
263.495896
 21
-18.426460
 31
0.0
  0
LINE
  5
2b5
100
AcDbEntity
  8
0
 62
7
100
AcDbLine
 10
263.495896
 20
-18.426460
 30
0.0
 11
270.771938
 21
-22.627250
 31
0.0
  0
LINE
  5
2b6
100
AcDbEntity
  8
0
 62
7
100
AcDbLine
 10
270.771938
 20
-22.627250
 30
0.0
 11
278.047979
 21
-18.426460
 31
0.0
  0
LINE
  5
2b7
100
AcDbEntity
  8
0
 62
7
100
AcDbLine
 10
776.065515
 20
-305.957635
 30
0.0
 11
776.065515
 21
-297.555792
 31
0.0
  0
LINE
  5
2b8
100
AcDbEntity
  8
0
 62
7
100
AcDbLine
 10
776.065515
 20
-297.555792
 30
0.0
 11
768.789473
 21
-293.355002
 31
0.0
  0
LINE
  5
2b9
100
AcDbEntity
  8
0
 62
7
100
AcDbLine
 10
768.789473
 20
-293.355002
 30
0.0
 11
761.513431
 21
-297.555792
 31
0.0
  0
LINE
  5
2ba
100
AcDbEntity
  8
0
 62
7
100
AcDbLine
 10
761.513431
 20
-297.555792
 30
0.0
 11
761.513431
 21
-305.957635
 31
0.0
  0
LINE
  5
2bb
100
AcDbEntity
  8
0
 62
7
100
AcDbLine
 10
761.513431
 20
-305.957635
 30
0.0
 11
768.789473
 21
-310.158425
 31
0.0
  0
LINE
  5
2bc
100
AcDbEntity
  8
0
 62
7
100
AcDbLine
 10
768.789473
 20
-310.158425
 30
0.0
 11
776.065515
 21
-305.957635
 31
0.0
  0
LINE
  5
2bd
100
AcDbEntity
  8
0
 62
7
100
AcDbLine
 10
278.047979
 20
-181.787619
 30
0.0
 11
278.047979
 21
-173.386040
 31
0.0
  0
LINE
  5
2be
100
AcDbEntity
  8
0
 62
7
100
AcDbLine
 10
278.047979
 20
-173.386040
 30
0.0
 11
270.771938
 21
-169.185250
 31
0.0
  0
LINE
  5
2bf
100
AcDbEntity
  8
0
 62
7
100
AcDbLine
 10
270.771938
 20
-169.185250
 30
0.0
 11
263.495896
 21
-173.386040
 31
0.0
  0
LINE
  5
2c0
100
AcDbEntity
  8
0
 62
7
100
AcDbLine
 10
263.495896
 20
-173.386040
 30
0.0
 11
263.495896
 21
-181.787619
 31
0.0
  0
LINE
  5
2c1
100
AcDbEntity
  8
0
 62
7
100
AcDbLine
 10
263.495896
 20
-181.787619
 30
0.0
 11
270.771938
 21
-185.988408
 31
0.0
  0
LINE
  5
2c2
100
AcDbEntity
  8
0
 62
7
100
AcDbLine
 10
270.771938
 20
-185.988408
 30
0.0
 11
278.047979
 21
-181.787619
 31
0.0
  0
LINE
  5
2c3
100
AcDbEntity
  8
0
 62
7
100
AcDbLine
 10
634.590690
 20
-387.638479
 30
0.0
 11
634.590690
 21
-379.235312
 31
0.0
  0
LINE
  5
2c4
100
AcDbEntity
  8
0
 62
7
100
AcDbLine
 10
634.590690
 20
-379.235312
 30
0.0
 11
627.314648
 21
-375.036375
 31
0.0
  0
LINE
  5
2c5
100
AcDbEntity
  8
0
 62
7
100
AcDbLine
 10
627.314648
 20
-375.036375
 30
0.0
 11
620.038606
 21
-379.235312
 31
0.0
  0
LINE
  5
2c6
100
AcDbEntity
  8
0
 62
7
100
AcDbLine
 10
620.038606
 20
-379.235312
 30
0.0
 11
620.038606
 21
-387.638479
 31
0.0
  0
LINE
  5
2c7
100
AcDbEntity
  8
0
 62
7
100
AcDbLine
 10
620.038606
 20
-387.638479
 30
0.0
 11
627.314648
 21
-391.840062
 31
0.0
  0
LINE
  5
2c8
100
AcDbEntity
  8
0
 62
7
100
AcDbLine
 10
627.314648
 20
-391.840062
 30
0.0
 11
634.590690
 21
-387.638479
 31
0.0
  0
LINE
  5
2c9
100
AcDbEntity
  8
0
 62
7
100
AcDbLine
 10
847.754104
 20
-18.426460
 30
0.0
 11
847.754104
 21
-10.024881
 31
0.0
  0
LINE
  5
2ca
100
AcDbEntity
  8
0
 62
7
100
AcDbLine
 10
847.754104
 20
-10.024881
 30
0.0
 11
840.478063
 21
-5.824092
 31
0.0
  0
LINE
  5
2cb
100
AcDbEntity
  8
0
 62
7
100
AcDbLine
 10
840.478063
 20
-5.824092
 30
0.0
 11
833.202021
 21
-10.024881
 31
0.0
  0
LINE
  5
2cc
100
AcDbEntity
  8
0
 62
7
100
AcDbLine
 10
833.202021
 20
-10.024881
 30
0.0
 11
833.202021
 21
-18.426460
 31
0.0
  0
LINE
  5
2cd
100
AcDbEntity
  8
0
 62
7
100
AcDbLine
 10
833.202021
 20
-18.426460
 30
0.0
 11
840.478063
 21
-22.627250
 31
0.0
  0
LINE
  5
2ce
100
AcDbEntity
  8
0
 62
7
100
AcDbLine
 10
840.478063
 20
-22.627250
 30
0.0
 11
847.754104
 21
-18.426460
 31
0.0
  0
LINE
  5
2cf
100
AcDbEntity
  8
0
 62
7
100
AcDbLine
 10
776.065515
 20
105.743292
 30
0.0
 11
776.065515
 21
114.145135
 31
0.0
  0
LINE
  5
2d0
100
AcDbEntity
  8
0
 62
7
100
AcDbLine
 10
776.065515
 20
114.145135
 30
0.0
 11
768.789473
 21
118.345925
 31
0.0
  0
LINE
  5
2d1
100
AcDbEntity
  8
0
 62
7
100
AcDbLine
 10
768.789473
 20
118.345925
 30
0.0
 11
761.513431
 21
114.145135
 31
0.0
  0
LINE
  5
2d2
100
AcDbEntity
  8
0
 62
7
100
AcDbLine
 10
761.513431
 20
114.145135
 30
0.0
 11
761.513431
 21
105.743292
 31
0.0
  0
LINE
  5
2d3
100
AcDbEntity
  8
0
 62
7
100
AcDbLine
 10
761.513431
 20
105.743292
 30
0.0
 11
768.789473
 21
101.542502
 31
0.0
  0
LINE
  5
2d4
100
AcDbEntity
  8
0
 62
7
100
AcDbLine
 10
768.789473
 20
101.542502
 30
0.0
 11
776.065515
 21
105.743292
 31
0.0
  0
SPLINE
  5
2d5
100
AcDbEntity
  8
0
 62
7
100
AcDbSpline
 70
8
 71
3
 72
8
 73
4
 74
0
 40
0
 40
0
 40
0
 40
0
 40
1
 40
1
 40
1
 40
1
 10
298.775702
 20
-246.718750
 30
0.0
 10
298.775702
 20
-249.129898
 30
0.0
 10
296.821225
 20
-251.084375
 30
0.0
 10
294.410077
 20
-251.084375
 30
0.0
  0
SPLINE
  5
2d6
100
AcDbEntity
  8
0
 62
7
100
AcDbSpline
 70
8
 71
3
 72
8
 73
4
 74
0
 40
0
 40
0
 40
0
 40
0
 40
1
 40
1
 40
1
 40
1
 10
294.410077
 20
-251.084375
 30
0.0
 10
291.998929
 20
-251.084375
 30
0.0
 10
290.044188
 20
-249.129898
 30
0.0
 10
290.044188
 20
-246.718750
 30
0.0
  0
SPLINE
  5
2d7
100
AcDbEntity
  8
0
 62
7
100
AcDbSpline
 70
8
 71
3
 72
8
 73
4
 74
0
 40
0
 40
0
 40
0
 40
0
 40
1
 40
1
 40
1
 40
1
 10
290.044188
 20
-246.718750
 30
0.0
 10
290.044188
 20
-244.307602
 30
0.0
 10
291.998929
 20
-242.353125
 30
0.0
 10
294.410077
 20
-242.353125
 30
0.0
  0
SPLINE
  5
2d8
100
AcDbEntity
  8
0
 62
7
100
AcDbSpline
 70
8
 71
3
 72
8
 73
4
 74
0
 40
0
 40
0
 40
0
 40
0
 40
1
 40
1
 40
1
 40
1
 10
294.410077
 20
-242.353125
 30
0.0
 10
296.821225
 20
-242.353125
 30
0.0
 10
298.775702
 20
-244.307602
 30
0.0
 10
298.775702
 20
-246.718750
 30
0.0
  0
SPLINE
  5
2d9
100
AcDbEntity
  8
0
 62
7
100
AcDbSpline
 70
8
 71
3
 72
8
 73
4
 74
0
 40
0
 40
0
 40
0
 40
0
 40
1
 40
1
 40
1
 40
1
 10
821.205812
 20
-246.718750
 30
0.0
 10
821.205812
 20
-249.129898
 30
0.0
 10
819.251071
 20
-251.084375
 30
0.0
 10
816.839923
 20
-251.084375
 30
0.0
  0
SPLINE
  5
2da
100
AcDbEntity
  8
0
 62
7
100
AcDbSpline
 70
8
 71
3
 72
8
 73
4
 74
0
 40
0
 40
0
 40
0
 40
0
 40
1
 40
1
 40
1
 40
1
 10
816.839923
 20
-251.084375
 30
0.0
 10
814.428775
 20
-251.084375
 30
0.0
 10
812.474298
 20
-249.129898
 30
0.0
 10
812.474298
 20
-246.718750
 30
0.0
  0
SPLINE
  5
2db
100
AcDbEntity
  8
0
 62
7
100
AcDbSpline
 70
8
 71
3
 72
8
 73
4
 74
0
 40
0
 40
0
 40
0
 40
0
 40
1
 40
1
 40
1
 40
1
 10
812.474298
 20
-246.718750
 30
0.0
 10
812.474298
 20
-244.307602
 30
0.0
 10
814.428775
 20
-242.353125
 30
0.0
 10
816.839923
 20
-242.353125
 30
0.0
  0
SPLINE
  5
2dc
100
AcDbEntity
  8
0
 62
7
100
AcDbSpline
 70
8
 71
3
 72
8
 73
4
 74
0
 40
0
 40
0
 40
0
 40
0
 40
1
 40
1
 40
1
 40
1
 10
816.839923
 20
-242.353125
 30
0.0
 10
819.251071
 20
-242.353125
 30
0.0
 10
821.205812
 20
-244.307602
 30
0.0
 10
821.205812
 20
-246.718750
 30
0.0
  0
SPLINE
  5
2dd
100
AcDbEntity
  8
0
 62
7
100
AcDbSpline
 70
8
 71
3
 72
8
 73
4
 74
0
 40
0
 40
0
 40
0
 40
0
 40
1
 40
1
 40
1
 40
1
 10
411.823958
 20
-352.538325
 30
0.0
 10
411.823958
 20
-354.949473
 30
0.0
 10
409.869481
 20
-356.903950
 30
0.0
 10
407.458333
 20
-356.903950
 30
0.0
  0
SPLINE
  5
2de
100
AcDbEntity
  8
0
 62
7
100
AcDbSpline
 70
8
 71
3
 72
8
 73
4
 74
0
 40
0
 40
0
 40
0
 40
0
 40
1
 40
1
 40
1
 40
1
 10
407.458333
 20
-356.903950
 30
0.0
 10
405.047185
 20
-356.903950
 30
0.0
 10
403.092708
 20
-354.949473
 30
0.0
 10
403.092708
 20
-352.538325
 30
0.0
  0
SPLINE
  5
2df
100
AcDbEntity
  8
0
 62
7
100
AcDbSpline
 70
8
 71
3
 72
8
 73
4
 74
0
 40
0
 40
0
 40
0
 40
0
 40
1
 40
1
 40
1
 40
1
 10
403.092708
 20
-352.538325
 30
0.0
 10
403.092708
 20
-350.127442
 30
0.0
 10
405.047185
 20
-348.172700
 30
0.0
 10
407.458333
 20
-348.172700
 30
0.0
  0
SPLINE
  5
2e0
100
AcDbEntity
  8
0
 62
7
100
AcDbSpline
 70
8
 71
3
 72
8
 73
4
 74
0
 40
0
 40
0
 40
0
 40
0
 40
1
 40
1
 40
1
 40
1
 10
407.458333
 20
-348.172700
 30
0.0
 10
409.869481
 20
-348.172700
 30
0.0
 10
411.823958
 20
-350.127442
 30
0.0
 10
411.823958
 20
-352.538325
 30
0.0
  0
SPLINE
  5
2e1
100
AcDbEntity
  8
0
 62
7
100
AcDbSpline
 70
8
 71
3
 72
8
 73
4
 74
0
 40
0
 40
0
 40
0
 40
0
 40
1
 40
1
 40
1
 40
1
 10
708.157292
 20
-352.538325
 30
0.0
 10
708.157292
 20
-354.949473
 30
0.0
 10
706.202815
 20
-356.903950
 30
0.0
 10
703.791667
 20
-356.903950
 30
0.0
  0
SPLINE
  5
2e2
100
AcDbEntity
  8
0
 62
7
100
AcDbSpline
 70
8
 71
3
 72
8
 73
4
 74
0
 40
0
 40
0
 40
0
 40
0
 40
1
 40
1
 40
1
 40
1
 10
703.791667
 20
-356.903950
 30
0.0
 10
701.380519
 20
-356.903950
 30
0.0
 10
699.426042
 20
-354.949473
 30
0.0
 10
699.426042
 20
-352.538325
 30
0.0
  0
SPLINE
  5
2e3
100
AcDbEntity
  8
0
 62
7
100
AcDbSpline
 70
8
 71
3
 72
8
 73
4
 74
0
 40
0
 40
0
 40
0
 40
0
 40
1
 40
1
 40
1
 40
1
 10
699.426042
 20
-352.538325
 30
0.0
 10
699.426042
 20
-350.127442
 30
0.0
 10
701.380519
 20
-348.172700
 30
0.0
 10
703.791667
 20
-348.172700
 30
0.0
  0
SPLINE
  5
2e4
100
AcDbEntity
  8
0
 62
7
100
AcDbSpline
 70
8
 71
3
 72
8
 73
4
 74
0
 40
0
 40
0
 40
0
 40
0
 40
1
 40
1
 40
1
 40
1
 10
703.791667
 20
-348.172700
 30
0.0
 10
706.202815
 20
-348.172700
 30
0.0
 10
708.157292
 20
-350.127442
 30
0.0
 10
708.157292
 20
-352.538325
 30
0.0
  0
SPLINE
  5
2e5
100
AcDbEntity
  8
0
 62
7
100
AcDbSpline
 70
8
 71
3
 72
8
 73
4
 74
0
 40
0
 40
0
 40
0
 40
0
 40
1
 40
1
 40
1
 40
1
 10
639.365625
 20
41.575219
 30
0.0
 10
639.365625
 20
39.164335
 30
0.0
 10
637.411148
 20
37.209594
 30
0.0
 10
635.000000
 20
37.209594
 30
0.0
  0
SPLINE
  5
2e6
100
AcDbEntity
  8
0
 62
7
100
AcDbSpline
 70
8
 71
3
 72
8
 73
4
 74
0
 40
0
 40
0
 40
0
 40
0
 40
1
 40
1
 40
1
 40
1
 10
635.000000
 20
37.209594
 30
0.0
 10
632.588852
 20
37.209594
 30
0.0
 10
630.634375
 20
39.164335
 30
0.0
 10
630.634375
 20
41.575219
 30
0.0
  0
SPLINE
  5
2e7
100
AcDbEntity
  8
0
 62
7
100
AcDbSpline
 70
8
 71
3
 72
8
 73
4
 74
0
 40
0
 40
0
 40
0
 40
0
 40
1
 40
1
 40
1
 40
1
 10
630.634375
 20
41.575219
 30
0.0
 10
630.634375
 20
43.986367
 30
0.0
 10
632.588852
 20
45.940844
 30
0.0
 10
635.000000
 20
45.940844
 30
0.0
  0
SPLINE
  5
2e8
100
AcDbEntity
  8
0
 62
7
100
AcDbSpline
 70
8
 71
3
 72
8
 73
4
 74
0
 40
0
 40
0
 40
0
 40
0
 40
1
 40
1
 40
1
 40
1
 10
635.000000
 20
45.940844
 30
0.0
 10
637.411148
 20
45.940844
 30
0.0
 10
639.365625
 20
43.986367
 30
0.0
 10
639.365625
 20
41.575219
 30
0.0
  0
SPLINE
  5
2e9
100
AcDbEntity
  8
0
 62
7
100
AcDbSpline
 70
8
 71
3
 72
8
 73
4
 74
0
 40
0
 40
0
 40
0
 40
0
 40
1
 40
1
 40
1
 40
1
 10
602.912921
 20
-358.322117
 30
0.0
 10
602.912921
 20
-360.733000
 30
0.0
 10
600.958444
 20
-362.688271
 30
0.0
 10
598.547296
 20
-362.688271
 30
0.0
  0
SPLINE
  5
2ea
100
AcDbEntity
  8
0
 62
7
100
AcDbSpline
 70
8
 71
3
 72
8
 73
4
 74
0
 40
0
 40
0
 40
0
 40
0
 40
1
 40
1
 40
1
 40
1
 10
598.547296
 20
-362.688271
 30
0.0
 10
596.136413
 20
-362.688271
 30
0.0
 10
594.181671
 20
-360.733000
 30
0.0
 10
594.181671
 20
-358.322117
 30
0.0
  0
SPLINE
  5
2eb
100
AcDbEntity
  8
0
 62
7
100
AcDbSpline
 70
8
 71
3
 72
8
 73
4
 74
0
 40
0
 40
0
 40
0
 40
0
 40
1
 40
1
 40
1
 40
1
 10
594.181671
 20
-358.322117
 30
0.0
 10
594.181671
 20
-355.910969
 30
0.0
 10
596.136413
 20
-353.956492
 30
0.0
 10
598.547296
 20
-353.956492
 30
0.0
  0
SPLINE
  5
2ec
100
AcDbEntity
  8
0
 62
7
100
AcDbSpline
 70
8
 71
3
 72
8
 73
4
 74
0
 40
0
 40
0
 40
0
 40
0
 40
1
 40
1
 40
1
 40
1
 10
598.547296
 20
-353.956492
 30
0.0
 10
600.958444
 20
-353.956492
 30
0.0
 10
602.912921
 20
-355.910969
 30
0.0
 10
602.912921
 20
-358.322117
 30
0.0
  0
SPLINE
  5
2ed
100
AcDbEntity
  8
0
 62
7
100
AcDbSpline
 70
8
 71
3
 72
8
 73
4
 74
0
 40
0
 40
0
 40
0
 40
0
 40
1
 40
1
 40
1
 40
1
 10
297.574758
 20
-138.828546
 30
0.0
 10
297.574758
 20
-141.239694
 30
0.0
 10
295.620281
 20
-143.194171
 30
0.0
 10
293.209133
 20
-143.194171
 30
0.0
  0
SPLINE
  5
2ee
100
AcDbEntity
  8
0
 62
7
100
AcDbSpline
 70
8
 71
3
 72
8
 73
4
 74
0
 40
0
 40
0
 40
0
 40
0
 40
1
 40
1
 40
1
 40
1
 10
293.209133
 20
-143.194171
 30
0.0
 10
290.798250
 20
-143.194171
 30
0.0
 10
288.842979
 20
-141.239694
 30
0.0
 10
288.842979
 20
-138.828546
 30
0.0
  0
SPLINE
  5
2ef
100
AcDbEntity
  8
0
 62
7
100
AcDbSpline
 70
8
 71
3
 72
8
 73
4
 74
0
 40
0
 40
0
 40
0
 40
0
 40
1
 40
1
 40
1
 40
1
 10
288.842979
 20
-138.828546
 30
0.0
 10
288.842979
 20
-136.417662
 30
0.0
 10
290.798250
 20
-134.462921
 30
0.0
 10
293.209133
 20
-134.462921
 30
0.0
  0
SPLINE
  5
2f0
100
AcDbEntity
  8
0
 62
7
100
AcDbSpline
 70
8
 71
3
 72
8
 73
4
 74
0
 40
0
 40
0
 40
0
 40
0
 40
1
 40
1
 40
1
 40
1
 10
293.209133
 20
-134.462921
 30
0.0
 10
295.620281
 20
-134.462921
 30
0.0
 10
297.574758
 20
-136.417662
 30
0.0
 10
297.574758
 20
-138.828546
 30
0.0
  0
SPLINE
  5
2f1
100
AcDbEntity
  8
0
 62
7
100
AcDbSpline
 70
8
 71
3
 72
8
 73
4
 74
0
 40
0
 40
0
 40
0
 40
0
 40
1
 40
1
 40
1
 40
1
 10
822.407021
 20
-52.983954
 30
0.0
 10
822.407021
 20
-55.394837
 30
0.0
 10
820.451750
 20
-57.349579
 30
0.0
 10
818.040867
 20
-57.349579
 30
0.0
  0
SPLINE
  5
2f2
100
AcDbEntity
  8
0
 62
7
100
AcDbSpline
 70
8
 71
3
 72
8
 73
4
 74
0
 40
0
 40
0
 40
0
 40
0
 40
1
 40
1
 40
1
 40
1
 10
818.040867
 20
-57.349579
 30
0.0
 10
815.629719
 20
-57.349579
 30
0.0
 10
813.675242
 20
-55.394837
 30
0.0
 10
813.675242
 20
-52.983954
 30
0.0
  0
SPLINE
  5
2f3
100
AcDbEntity
  8
0
 62
7
100
AcDbSpline
 70
8
 71
3
 72
8
 73
4
 74
0
 40
0
 40
0
 40
0
 40
0
 40
1
 40
1
 40
1
 40
1
 10
813.675242
 20
-52.983954
 30
0.0
 10
813.675242
 20
-50.572806
 30
0.0
 10
815.629719
 20
-48.618329
 30
0.0
 10
818.040867
 20
-48.618329
 30
0.0
  0
SPLINE
  5
2f4
100
AcDbEntity
  8
0
 62
7
100
AcDbSpline
 70
8
 71
3
 72
8
 73
4
 74
0
 40
0
 40
0
 40
0
 40
0
 40
1
 40
1
 40
1
 40
1
 10
818.040867
 20
-48.618329
 30
0.0
 10
820.451750
 20
-48.618329
 30
0.0
 10
822.407021
 20
-50.572806
 30
0.0
 10
822.407021
 20
-52.983954
 30
0.0
  0
SPLINE
  5
2f5
100
AcDbEntity
  8
0
 62
7
100
AcDbSpline
 70
8
 71
3
 72
8
 73
4
 74
0
 40
0
 40
0
 40
0
 40
0
 40
1
 40
1
 40
1
 40
1
 10
517.068329
 20
166.509617
 30
0.0
 10
517.068329
 20
164.098469
 30
0.0
 10
515.113587
 20
162.143992
 30
0.0
 10
512.702704
 20
162.143992
 30
0.0
  0
SPLINE
  5
2f6
100
AcDbEntity
  8
0
 62
7
100
AcDbSpline
 70
8
 71
3
 72
8
 73
4
 74
0
 40
0
 40
0
 40
0
 40
0
 40
1
 40
1
 40
1
 40
1
 10
512.702704
 20
162.143992
 30
0.0
 10
510.291556
 20
162.143992
 30
0.0
 10
508.337079
 20
164.098469
 30
0.0
 10
508.337079
 20
166.509617
 30
0.0
  0
SPLINE
  5
2f7
100
AcDbEntity
  8
0
 62
7
100
AcDbSpline
 70
8
 71
3
 72
8
 73
4
 74
0
 40
0
 40
0
 40
0
 40
0
 40
1
 40
1
 40
1
 40
1
 10
508.337079
 20
166.509617
 30
0.0
 10
508.337079
 20
168.920500
 30
0.0
 10
510.291556
 20
170.875771
 30
0.0
 10
512.702704
 20
170.875771
 30
0.0
  0
SPLINE
  5
2f8
100
AcDbEntity
  8
0
 62
7
100
AcDbSpline
 70
8
 71
3
 72
8
 73
4
 74
0
 40
0
 40
0
 40
0
 40
0
 40
1
 40
1
 40
1
 40
1
 10
512.702704
 20
170.875771
 30
0.0
 10
515.113587
 20
170.875771
 30
0.0
 10
517.068329
 20
168.920500
 30
0.0
 10
517.068329
 20
166.509617
 30
0.0
  0
SPLINE
  5
2f9
100
AcDbEntity
  8
0
 62
7
100
AcDbSpline
 70
8
 71
3
 72
8
 73
4
 74
0
 40
0
 40
0
 40
0
 40
0
 40
1
 40
1
 40
1
 40
1
 10
442.612462
 20
2.413710
 30
0.0
 10
442.612462
 20
0.002563
 30
0.0
 10
440.657721
 20
-1.951915
 30
0.0
 10
438.246838
 20
-1.951915
 30
0.0
  0
SPLINE
  5
2fa
100
AcDbEntity
  8
0
 62
7
100
AcDbSpline
 70
8
 71
3
 72
8
 73
4
 74
0
 40
0
 40
0
 40
0
 40
0
 40
1
 40
1
 40
1
 40
1
 10
438.246838
 20
-1.951915
 30
0.0
 10
435.835690
 20
-1.951915
 30
0.0
 10
433.881213
 20
0.002563
 30
0.0
 10
433.881213
 20
2.413710
 30
0.0
  0
SPLINE
  5
2fb
100
AcDbEntity
  8
0
 62
7
100
AcDbSpline
 70
8
 71
3
 72
8
 73
4
 74
0
 40
0
 40
0
 40
0
 40
0
 40
1
 40
1
 40
1
 40
1
 10
433.881213
 20
2.413710
 30
0.0
 10
433.881213
 20
4.824594
 30
0.0
 10
435.835690
 20
6.779335
 30
0.0
 10
438.246838
 20
6.779335
 30
0.0
  0
SPLINE
  5
2fc
100
AcDbEntity
  8
0
 62
7
100
AcDbSpline
 70
8
 71
3
 72
8
 73
4
 74
0
 40
0
 40
0
 40
0
 40
0
 40
1
 40
1
 40
1
 40
1
 10
438.246838
 20
6.779335
 30
0.0
 10
440.657721
 20
6.779335
 30
0.0
 10
442.612462
 20
4.824594
 30
0.0
 10
442.612462
 20
2.413710
 30
0.0
  0
SPLINE
  5
2fd
100
AcDbEntity
  8
0
 62
7
100
AcDbSpline
 70
8
 71
3
 72
8
 73
4
 74
0
 40
0
 40
0
 40
0
 40
0
 40
1
 40
1
 40
1
 40
1
 10
416.154129
 20
-43.413710
 30
0.0
 10
416.154129
 20
-45.824594
 30
0.0
 10
414.199388
 20
-47.779335
 30
0.0
 10
411.788504
 20
-47.779335
 30
0.0
  0
SPLINE
  5
2fe
100
AcDbEntity
  8
0
 62
7
100
AcDbSpline
 70
8
 71
3
 72
8
 73
4
 74
0
 40
0
 40
0
 40
0
 40
0
 40
1
 40
1
 40
1
 40
1
 10
411.788504
 20
-47.779335
 30
0.0
 10
409.377356
 20
-47.779335
 30
0.0
 10
407.422879
 20
-45.824594
 30
0.0
 10
407.422879
 20
-43.413710
 30
0.0
  0
SPLINE
  5
2ff
100
AcDbEntity
  8
0
 62
7
100
AcDbSpline
 70
8
 71
3
 72
8
 73
4
 74
0
 40
0
 40
0
 40
0
 40
0
 40
1
 40
1
 40
1
 40
1
 10
407.422879
 20
-43.413710
 30
0.0
 10
407.422879
 20
-41.002562
 30
0.0
 10
409.377356
 20
-39.048085
 30
0.0
 10
411.788504
 20
-39.048085
 30
0.0
  0
SPLINE
  5
300
100
AcDbEntity
  8
0
 62
7
100
AcDbSpline
 70
8
 71
3
 72
8
 73
4
 74
0
 40
0
 40
0
 40
0
 40
0
 40
1
 40
1
 40
1
 40
1
 10
411.788504
 20
-39.048085
 30
0.0
 10
414.199388
 20
-39.048085
 30
0.0
 10
416.154129
 20
-41.002562
 30
0.0
 10
416.154129
 20
-43.413710
 30
0.0
  0
SPLINE
  5
301
100
AcDbEntity
  8
0
 62
7
100
AcDbSpline
 70
8
 71
3
 72
8
 73
4
 74
0
 40
0
 40
0
 40
0
 40
0
 40
1
 40
1
 40
1
 40
1
 10
654.026717
 20
152.813725
 30
0.0
 10
654.026717
 20
150.402577
 30
0.0
 10
652.071975
 20
148.448100
 30
0.0
 10
649.661092
 20
148.448100
 30
0.0
  0
SPLINE
  5
302
100
AcDbEntity
  8
0
 62
7
100
AcDbSpline
 70
8
 71
3
 72
8
 73
4
 74
0
 40
0
 40
0
 40
0
 40
0
 40
1
 40
1
 40
1
 40
1
 10
649.661092
 20
148.448100
 30
0.0
 10
647.249944
 20
148.448100
 30
0.0
 10
645.295467
 20
150.402577
 30
0.0
 10
645.295467
 20
152.813725
 30
0.0
  0
SPLINE
  5
303
100
AcDbEntity
  8
0
 62
7
100
AcDbSpline
 70
8
 71
3
 72
8
 73
4
 74
0
 40
0
 40
0
 40
0
 40
0
 40
1
 40
1
 40
1
 40
1
 10
645.295467
 20
152.813725
 30
0.0
 10
645.295467
 20
155.224873
 30
0.0
 10
647.249944
 20
157.179350
 30
0.0
 10
649.661092
 20
157.179350
 30
0.0
  0
SPLINE
  5
304
100
AcDbEntity
  8
0
 62
7
100
AcDbSpline
 70
8
 71
3
 72
8
 73
4
 74
0
 40
0
 40
0
 40
0
 40
0
 40
1
 40
1
 40
1
 40
1
 10
649.661092
 20
157.179350
 30
0.0
 10
652.071975
 20
157.179350
 30
0.0
 10
654.026717
 20
155.224873
 30
0.0
 10
654.026717
 20
152.813725
 30
0.0
  0
SPLINE
  5
305
100
AcDbEntity
  8
0
 62
7
100
AcDbSpline
 70
8
 71
3
 72
8
 73
4
 74
0
 40
0
 40
0
 40
0
 40
0
 40
1
 40
1
 40
1
 40
1
 10
465.954533
 20
-344.626225
 30
0.0
 10
465.954533
 20
-347.037373
 30
0.0
 10
464.000056
 20
-348.991850
 30
0.0
 10
461.588908
 20
-348.991850
 30
0.0
  0
SPLINE
  5
306
100
AcDbEntity
  8
0
 62
7
100
AcDbSpline
 70
8
 71
3
 72
8
 73
4
 74
0
 40
0
 40
0
 40
0
 40
0
 40
1
 40
1
 40
1
 40
1
 10
461.588908
 20
-348.991850
 30
0.0
 10
459.178025
 20
-348.991850
 30
0.0
 10
457.223283
 20
-347.037373
 30
0.0
 10
457.223283
 20
-344.626225
 30
0.0
  0
SPLINE
  5
307
100
AcDbEntity
  8
0
 62
7
100
AcDbSpline
 70
8
 71
3
 72
8
 73
4
 74
0
 40
0
 40
0
 40
0
 40
0
 40
1
 40
1
 40
1
 40
1
 10
457.223283
 20
-344.626225
 30
0.0
 10
457.223283
 20
-342.215077
 30
0.0
 10
459.178025
 20
-340.260600
 30
0.0
 10
461.588908
 20
-340.260600
 30
0.0
  0
SPLINE
  5
308
100
AcDbEntity
  8
0
 62
7
100
AcDbSpline
 70
8
 71
3
 72
8
 73
4
 74
0
 40
0
 40
0
 40
0
 40
0
 40
1
 40
1
 40
1
 40
1
 10
461.588908
 20
-340.260600
 30
0.0
 10
464.000056
 20
-340.260600
 30
0.0
 10
465.954533
 20
-342.215077
 30
0.0
 10
465.954533
 20
-344.626225
 30
0.0
  0
SPLINE
  5
309
100
AcDbEntity
  8
0
 62
7
100
AcDbSpline
 70
8
 71
3
 72
8
 73
4
 74
0
 40
0
 40
0
 40
0
 40
0
 40
1
 40
1
 40
1
 40
1
 10
416.154129
 20
-148.398790
 30
0.0
 10
416.154129
 20
-150.809937
 30
0.0
 10
414.199388
 20
-152.764415
 30
0.0
 10
411.788504
 20
-152.764415
 30
0.0
  0
SPLINE
  5
30a
100
AcDbEntity
  8
0
 62
7
100
AcDbSpline
 70
8
 71
3
 72
8
 73
4
 74
0
 40
0
 40
0
 40
0
 40
0
 40
1
 40
1
 40
1
 40
1
 10
411.788504
 20
-152.764415
 30
0.0
 10
409.377356
 20
-152.764415
 30
0.0
 10
407.422879
 20
-150.809937
 30
0.0
 10
407.422879
 20
-148.398790
 30
0.0
  0
SPLINE
  5
30b
100
AcDbEntity
  8
0
 62
7
100
AcDbSpline
 70
8
 71
3
 72
8
 73
4
 74
0
 40
0
 40
0
 40
0
 40
0
 40
1
 40
1
 40
1
 40
1
 10
407.422879
 20
-148.398790
 30
0.0
 10
407.422879
 20
-145.987906
 30
0.0
 10
409.377356
 20
-144.033165
 30
0.0
 10
411.788504
 20
-144.033165
 30
0.0
  0
SPLINE
  5
30c
100
AcDbEntity
  8
0
 62
7
100
AcDbSpline
 70
8
 71
3
 72
8
 73
4
 74
0
 40
0
 40
0
 40
0
 40
0
 40
1
 40
1
 40
1
 40
1
 10
411.788504
 20
-144.033165
 30
0.0
 10
414.199388
 20
-144.033165
 30
0.0
 10
416.154129
 20
-145.987906
 30
0.0
 10
416.154129
 20
-148.398790
 30
0.0
  0
SPLINE
  5
30d
100
AcDbEntity
  8
0
 62
7
100
AcDbSpline
 70
8
 71
3
 72
8
 73
4
 74
0
 40
0
 40
0
 40
0
 40
0
 40
1
 40
1
 40
1
 40
1
 10
821.205812
 20
54.906250
 30
0.0
 10
821.205812
 20
52.495102
 30
0.0
 10
819.251071
 20
50.540625
 30
0.0
 10
816.839923
 20
50.540625
 30
0.0
  0
SPLINE
  5
30e
100
AcDbEntity
  8
0
 62
7
100
AcDbSpline
 70
8
 71
3
 72
8
 73
4
 74
0
 40
0
 40
0
 40
0
 40
0
 40
1
 40
1
 40
1
 40
1
 10
816.839923
 20
50.540625
 30
0.0
 10
814.428775
 20
50.540625
 30
0.0
 10
812.474298
 20
52.495102
 30
0.0
 10
812.474298
 20
54.906250
 30
0.0
  0
SPLINE
  5
30f
100
AcDbEntity
  8
0
 62
7
100
AcDbSpline
 70
8
 71
3
 72
8
 73
4
 74
0
 40
0
 40
0
 40
0
 40
0
 40
1
 40
1
 40
1
 40
1
 10
812.474298
 20
54.906250
 30
0.0
 10
812.474298
 20
57.317398
 30
0.0
 10
814.428775
 20
59.271875
 30
0.0
 10
816.839923
 20
59.271875
 30
0.0
  0
SPLINE
  5
310
100
AcDbEntity
  8
0
 62
7
100
AcDbSpline
 70
8
 71
3
 72
8
 73
4
 74
0
 40
0
 40
0
 40
0
 40
0
 40
1
 40
1
 40
1
 40
1
 10
816.839923
 20
59.271875
 30
0.0
 10
819.251071
 20
59.271875
 30
0.0
 10
821.205812
 20
57.317398
 30
0.0
 10
821.205812
 20
54.906250
 30
0.0
  0
SPLINE
  5
311
100
AcDbEntity
  8
0
 62
7
100
AcDbSpline
 70
8
 71
3
 72
8
 73
4
 74
0
 40
0
 40
0
 40
0
 40
0
 40
1
 40
1
 40
1
 40
1
 10
765.788040
 20
-264.286025
 30
0.0
 10
765.788040
 20
-266.697173
 30
0.0
 10
763.833562
 20
-268.651650
 30
0.0
 10
761.422415
 20
-268.651650
 30
0.0
  0
SPLINE
  5
312
100
AcDbEntity
  8
0
 62
7
100
AcDbSpline
 70
8
 71
3
 72
8
 73
4
 74
0
 40
0
 40
0
 40
0
 40
0
 40
1
 40
1
 40
1
 40
1
 10
761.422415
 20
-268.651650
 30
0.0
 10
759.011531
 20
-268.651650
 30
0.0
 10
757.056790
 20
-266.697173
 30
0.0
 10
757.056790
 20
-264.286025
 30
0.0
  0
SPLINE
  5
313
100
AcDbEntity
  8
0
 62
7
100
AcDbSpline
 70
8
 71
3
 72
8
 73
4
 74
0
 40
0
 40
0
 40
0
 40
0
 40
1
 40
1
 40
1
 40
1
 10
757.056790
 20
-264.286025
 30
0.0
 10
757.056790
 20
-261.874877
 30
0.0
 10
759.011531
 20
-259.920400
 30
0.0
 10
761.422415
 20
-259.920400
 30
0.0
  0
SPLINE
  5
314
100
AcDbEntity
  8
0
 62
7
100
AcDbSpline
 70
8
 71
3
 72
8
 73
4
 74
0
 40
0
 40
0
 40
0
 40
0
 40
1
 40
1
 40
1
 40
1
 10
761.422415
 20
-259.920400
 30
0.0
 10
763.833562
 20
-259.920400
 30
0.0
 10
765.788040
 20
-261.874877
 30
0.0
 10
765.788040
 20
-264.286025
 30
0.0
  0
SPLINE
  5
315
100
AcDbEntity
  8
0
 62
7
100
AcDbSpline
 70
8
 71
3
 72
8
 73
4
 74
0
 40
0
 40
0
 40
0
 40
0
 40
1
 40
1
 40
1
 40
1
 10
354.193210
 20
72.473525
 30
0.0
 10
354.193210
 20
70.062377
 30
0.0
 10
352.238469
 20
68.107900
 30
0.0
 10
349.827585
 20
68.107900
 30
0.0
  0
SPLINE
  5
316
100
AcDbEntity
  8
0
 62
7
100
AcDbSpline
 70
8
 71
3
 72
8
 73
4
 74
0
 40
0
 40
0
 40
0
 40
0
 40
1
 40
1
 40
1
 40
1
 10
349.827585
 20
68.107900
 30
0.0
 10
347.416437
 20
68.107900
 30
0.0
 10
345.461960
 20
70.062377
 30
0.0
 10
345.461960
 20
72.473525
 30
0.0
  0
SPLINE
  5
317
100
AcDbEntity
  8
0
 62
7
100
AcDbSpline
 70
8
 71
3
 72
8
 73
4
 74
0
 40
0
 40
0
 40
0
 40
0
 40
1
 40
1
 40
1
 40
1
 10
345.461960
 20
72.473525
 30
0.0
 10
345.461960
 20
74.884673
 30
0.0
 10
347.416437
 20
76.839150
 30
0.0
 10
349.827585
 20
76.839150
 30
0.0
  0
SPLINE
  5
318
100
AcDbEntity
  8
0
 62
7
100
AcDbSpline
 70
8
 71
3
 72
8
 73
4
 74
0
 40
0
 40
0
 40
0
 40
0
 40
1
 40
1
 40
1
 40
1
 10
349.827585
 20
76.839150
 30
0.0
 10
352.238469
 20
76.839150
 30
0.0
 10
354.193210
 20
74.884673
 30
0.0
 10
354.193210
 20
72.473525
 30
0.0
  0
SPLINE
  5
319
100
AcDbEntity
  8
0
 62
7
100
AcDbSpline
 70
8
 71
3
 72
8
 73
4
 74
0
 40
0
 40
0
 40
0
 40
0
 40
1
 40
1
 40
1
 40
1
 10
703.827121
 20
-148.398790
 30
0.0
 10
703.827121
 20
-150.809937
 30
0.0
 10
701.872644
 20
-152.764415
 30
0.0
 10
699.461496
 20
-152.764415
 30
0.0
  0
SPLINE
  5
31a
100
AcDbEntity
  8
0
 62
7
100
AcDbSpline
 70
8
 71
3
 72
8
 73
4
 74
0
 40
0
 40
0
 40
0
 40
0
 40
1
 40
1
 40
1
 40
1
 10
699.461496
 20
-152.764415
 30
0.0
 10
697.050612
 20
-152.764415
 30
0.0
 10
695.095871
 20
-150.809937
 30
0.0
 10
695.095871
 20
-148.398790
 30
0.0
  0
SPLINE
  5
31b
100
AcDbEntity
  8
0
 62
7
100
AcDbSpline
 70
8
 71
3
 72
8
 73
4
 74
0
 40
0
 40
0
 40
0
 40
0
 40
1
 40
1
 40
1
 40
1
 10
695.095871
 20
-148.398790
 30
0.0
 10
695.095871
 20
-145.987906
 30
0.0
 10
697.050612
 20
-144.033165
 30
0.0
 10
699.461496
 20
-144.033165
 30
0.0
  0
SPLINE
  5
31c
100
AcDbEntity
  8
0
 62
7
100
AcDbSpline
 70
8
 71
3
 72
8
 73
4
 74
0
 40
0
 40
0
 40
0
 40
0
 40
1
 40
1
 40
1
 40
1
 10
699.461496
 20
-144.033165
 30
0.0
 10
701.872644
 20
-144.033165
 30
0.0
 10
703.827121
 20
-145.987906
 30
0.0
 10
703.827121
 20
-148.398790
 30
0.0
  0
SPLINE
  5
31d
100
AcDbEntity
  8
0
 62
7
100
AcDbSpline
 70
8
 71
3
 72
8
 73
4
 74
0
 40
0
 40
0
 40
0
 40
0
 40
1
 40
1
 40
1
 40
1
 10
856.323958
 20
-95.906250
 30
0.0
 10
856.323958
 20
-98.317319
 30
0.0
 10
854.368688
 20
-100.271875
 30
0.0
 10
851.958333
 20
-100.271875
 30
0.0
  0
SPLINE
  5
31e
100
AcDbEntity
  8
0
 62
7
100
AcDbSpline
 70
8
 71
3
 72
8
 73
4
 74
0
 40
0
 40
0
 40
0
 40
0
 40
1
 40
1
 40
1
 40
1
 10
851.958333
 20
-100.271875
 30
0.0
 10
849.547979
 20
-100.271875
 30
0.0
 10
847.592708
 20
-98.317319
 30
0.0
 10
847.592708
 20
-95.906250
 30
0.0
  0
SPLINE
  5
31f
100
AcDbEntity
  8
0
 62
7
100
AcDbSpline
 70
8
 71
3
 72
8
 73
4
 74
0
 40
0
 40
0
 40
0
 40
0
 40
1
 40
1
 40
1
 40
1
 10
847.592708
 20
-95.906250
 30
0.0
 10
847.592708
 20
-93.495181
 30
0.0
 10
849.547979
 20
-91.540625
 30
0.0
 10
851.958333
 20
-91.540625
 30
0.0
  0
SPLINE
  5
320
100
AcDbEntity
  8
0
 62
7
100
AcDbSpline
 70
8
 71
3
 72
8
 73
4
 74
0
 40
0
 40
0
 40
0
 40
0
 40
1
 40
1
 40
1
 40
1
 10
851.958333
 20
-91.540625
 30
0.0
 10
854.368688
 20
-91.540625
 30
0.0
 10
856.323958
 20
-93.495181
 30
0.0
 10
856.323958
 20
-95.906250
 30
0.0
  0
SPLINE
  5
321
100
AcDbEntity
  8
0
 62
7
100
AcDbSpline
 70
8
 71
3
 72
8
 73
4
 74
0
 40
0
 40
0
 40
0
 40
0
 40
1
 40
1
 40
1
 40
1
 10
517.068329
 20
-358.322117
 30
0.0
 10
517.068329
 20
-360.733000
 30
0.0
 10
515.113587
 20
-362.688271
 30
0.0
 10
512.702704
 20
-362.688271
 30
0.0
  0
SPLINE
  5
322
100
AcDbEntity
  8
0
 62
7
100
AcDbSpline
 70
8
 71
3
 72
8
 73
4
 74
0
 40
0
 40
0
 40
0
 40
0
 40
1
 40
1
 40
1
 40
1
 10
512.702704
 20
-362.688271
 30
0.0
 10
510.291556
 20
-362.688271
 30
0.0
 10
508.337079
 20
-360.733000
 30
0.0
 10
508.337079
 20
-358.322117
 30
0.0
  0
SPLINE
  5
323
100
AcDbEntity
  8
0
 62
7
100
AcDbSpline
 70
8
 71
3
 72
8
 73
4
 74
0
 40
0
 40
0
 40
0
 40
0
 40
1
 40
1
 40
1
 40
1
 10
508.337079
 20
-358.322117
 30
0.0
 10
508.337079
 20
-355.910969
 30
0.0
 10
510.291556
 20
-353.956492
 30
0.0
 10
512.702704
 20
-353.956492
 30
0.0
  0
SPLINE
  5
324
100
AcDbEntity
  8
0
 62
7
100
AcDbSpline
 70
8
 71
3
 72
8
 73
4
 74
0
 40
0
 40
0
 40
0
 40
0
 40
1
 40
1
 40
1
 40
1
 10
512.702704
 20
-353.956492
 30
0.0
 10
515.113587
 20
-353.956492
 30
0.0
 10
517.068329
 20
-355.910969
 30
0.0
 10
517.068329
 20
-358.322117
 30
0.0
  0
SPLINE
  5
325
100
AcDbEntity
  8
0
 62
7
100
AcDbSpline
 70
8
 71
3
 72
8
 73
4
 74
0
 40
0
 40
0
 40
0
 40
0
 40
1
 40
1
 40
1
 40
1
 10
480.615625
 20
-233.387719
 30
0.0
 10
480.615625
 20
-235.798867
 30
0.0
 10
478.661148
 20
-237.753344
 30
0.0
 10
476.250000
 20
-237.753344
 30
0.0
  0
SPLINE
  5
326
100
AcDbEntity
  8
0
 62
7
100
AcDbSpline
 70
8
 71
3
 72
8
 73
4
 74
0
 40
0
 40
0
 40
0
 40
0
 40
1
 40
1
 40
1
 40
1
 10
476.250000
 20
-237.753344
 30
0.0
 10
473.838852
 20
-237.753344
 30
0.0
 10
471.884375
 20
-235.798867
 30
0.0
 10
471.884375
 20
-233.387719
 30
0.0
  0
SPLINE
  5
327
100
AcDbEntity
  8
0
 62
7
100
AcDbSpline
 70
8
 71
3
 72
8
 73
4
 74
0
 40
0
 40
0
 40
0
 40
0
 40
1
 40
1
 40
1
 40
1
 10
471.884375
 20
-233.387719
 30
0.0
 10
471.884375
 20
-230.976835
 30
0.0
 10
473.838852
 20
-229.022094
 30
0.0
 10
476.250000
 20
-229.022094
 30
0.0
  0
SPLINE
  5
328
100
AcDbEntity
  8
0
 62
7
100
AcDbSpline
 70
8
 71
3
 72
8
 73
4
 74
0
 40
0
 40
0
 40
0
 40
0
 40
1
 40
1
 40
1
 40
1
 10
476.250000
 20
-229.022094
 30
0.0
 10
478.661148
 20
-229.022094
 30
0.0
 10
480.615625
 20
-230.976835
 30
0.0
 10
480.615625
 20
-233.387719
 30
0.0
  0
SPLINE
  5
329
100
AcDbEntity
  8
0
 62
7
100
AcDbSpline
 70
8
 71
3
 72
8
 73
4
 74
0
 40
0
 40
0
 40
0
 40
0
 40
1
 40
1
 40
1
 40
1
 10
602.912921
 20
166.509617
 30
0.0
 10
602.912921
 20
164.098469
 30
0.0
 10
600.958444
 20
162.143992
 30
0.0
 10
598.547296
 20
162.143992
 30
0.0
  0
SPLINE
  5
32a
100
AcDbEntity
  8
0
 62
7
100
AcDbSpline
 70
8
 71
3
 72
8
 73
4
 74
0
 40
0
 40
0
 40
0
 40
0
 40
1
 40
1
 40
1
 40
1
 10
598.547296
 20
162.143992
 30
0.0
 10
596.136413
 20
162.143992
 30
0.0
 10
594.181671
 20
164.098469
 30
0.0
 10
594.181671
 20
166.509617
 30
0.0
  0
SPLINE
  5
32b
100
AcDbEntity
  8
0
 62
7
100
AcDbSpline
 70
8
 71
3
 72
8
 73
4
 74
0
 40
0
 40
0
 40
0
 40
0
 40
1
 40
1
 40
1
 40
1
 10
594.181671
 20
166.509617
 30
0.0
 10
594.181671
 20
168.920500
 30
0.0
 10
596.136413
 20
170.875771
 30
0.0
 10
598.547296
 20
170.875771
 30
0.0
  0
SPLINE
  5
32c
100
AcDbEntity
  8
0
 62
7
100
AcDbSpline
 70
8
 71
3
 72
8
 73
4
 74
0
 40
0
 40
0
 40
0
 40
0
 40
1
 40
1
 40
1
 40
1
 10
598.547296
 20
170.875771
 30
0.0
 10
600.958444
 20
170.875771
 30
0.0
 10
602.912921
 20
168.920500
 30
0.0
 10
602.912921
 20
166.509617
 30
0.0
  0
SPLINE
  5
32d
100
AcDbEntity
  8
0
 62
7
100
AcDbSpline
 70
8
 71
3
 72
8
 73
4
 74
0
 40
0
 40
0
 40
0
 40
0
 40
1
 40
1
 40
1
 40
1
 10
718.740625
 20
-95.906250
 30
0.0
 10
718.740625
 20
-98.317319
 30
0.0
 10
716.786148
 20
-100.271875
 30
0.0
 10
714.375000
 20
-100.271875
 30
0.0
  0
SPLINE
  5
32e
100
AcDbEntity
  8
0
 62
7
100
AcDbSpline
 70
8
 71
3
 72
8
 73
4
 74
0
 40
0
 40
0
 40
0
 40
0
 40
1
 40
1
 40
1
 40
1
 10
714.375000
 20
-100.271875
 30
0.0
 10
711.963852
 20
-100.271875
 30
0.0
 10
710.009375
 20
-98.317319
 30
0.0
 10
710.009375
 20
-95.906250
 30
0.0
  0
SPLINE
  5
32f
100
AcDbEntity
  8
0
 62
7
100
AcDbSpline
 70
8
 71
3
 72
8
 73
4
 74
0
 40
0
 40
0
 40
0
 40
0
 40
1
 40
1
 40
1
 40
1
 10
710.009375
 20
-95.906250
 30
0.0
 10
710.009375
 20
-93.495181
 30
0.0
 10
711.963852
 20
-91.540625
 30
0.0
 10
714.375000
 20
-91.540625
 30
0.0
  0
SPLINE
  5
330
100
AcDbEntity
  8
0
 62
7
100
AcDbSpline
 70
8
 71
3
 72
8
 73
4
 74
0
 40
0
 40
0
 40
0
 40
0
 40
1
 40
1
 40
1
 40
1
 10
714.375000
 20
-91.540625
 30
0.0
 10
716.786148
 20
-91.540625
 30
0.0
 10
718.740625
 20
-93.495181
 30
0.0
 10
718.740625
 20
-95.906250
 30
0.0
  0
SPLINE
  5
331
100
AcDbEntity
  8
0
 62
7
100
AcDbSpline
 70
8
 71
3
 72
8
 73
4
 74
0
 40
0
 40
0
 40
0
 40
0
 40
1
 40
1
 40
1
 40
1
 10
703.827121
 20
-43.413710
 30
0.0
 10
703.827121
 20
-45.824594
 30
0.0
 10
701.872644
 20
-47.779335
 30
0.0
 10
699.461496
 20
-47.779335
 30
0.0
  0
SPLINE
  5
332
100
AcDbEntity
  8
0
 62
7
100
AcDbSpline
 70
8
 71
3
 72
8
 73
4
 74
0
 40
0
 40
0
 40
0
 40
0
 40
1
 40
1
 40
1
 40
1
 10
699.461496
 20
-47.779335
 30
0.0
 10
697.050612
 20
-47.779335
 30
0.0
 10
695.095871
 20
-45.824594
 30
0.0
 10
695.095871
 20
-43.413710
 30
0.0
  0
SPLINE
  5
333
100
AcDbEntity
  8
0
 62
7
100
AcDbSpline
 70
8
 71
3
 72
8
 73
4
 74
0
 40
0
 40
0
 40
0
 40
0
 40
1
 40
1
 40
1
 40
1
 10
695.095871
 20
-43.413710
 30
0.0
 10
695.095871
 20
-41.002562
 30
0.0
 10
697.050612
 20
-39.048085
 30
0.0
 10
699.461496
 20
-39.048085
 30
0.0
  0
SPLINE
  5
334
100
AcDbEntity
  8
0
 62
7
100
AcDbSpline
 70
8
 71
3
 72
8
 73
4
 74
0
 40
0
 40
0
 40
0
 40
0
 40
1
 40
1
 40
1
 40
1
 10
699.461496
 20
-39.048085
 30
0.0
 10
701.872644
 20
-39.048085
 30
0.0
 10
703.827121
 20
-41.002562
 30
0.0
 10
703.827121
 20
-43.413710
 30
0.0
  0
SPLINE
  5
335
100
AcDbEntity
  8
0
 62
7
100
AcDbSpline
 70
8
 71
3
 72
8
 73
4
 74
0
 40
0
 40
0
 40
0
 40
0
 40
1
 40
1
 40
1
 40
1
 10
728.370400
 20
-301.703665
 30
0.0
 10
728.370400
 20
-304.114812
 30
0.0
 10
726.415923
 20
-306.069290
 30
0.0
 10
724.004775
 20
-306.069290
 30
0.0
  0
SPLINE
  5
336
100
AcDbEntity
  8
0
 62
7
100
AcDbSpline
 70
8
 71
3
 72
8
 73
4
 74
0
 40
0
 40
0
 40
0
 40
0
 40
1
 40
1
 40
1
 40
1
 10
724.004775
 20
-306.069290
 30
0.0
 10
721.593627
 20
-306.069290
 30
0.0
 10
719.639150
 20
-304.114812
 30
0.0
 10
719.639150
 20
-301.703665
 30
0.0
  0
SPLINE
  5
337
100
AcDbEntity
  8
0
 62
7
100
AcDbSpline
 70
8
 71
3
 72
8
 73
4
 74
0
 40
0
 40
0
 40
0
 40
0
 40
1
 40
1
 40
1
 40
1
 10
719.639150
 20
-301.703665
 30
0.0
 10
719.639150
 20
-299.292781
 30
0.0
 10
721.593627
 20
-297.338040
 30
0.0
 10
724.004775
 20
-297.338040
 30
0.0
  0
SPLINE
  5
338
100
AcDbEntity
  8
0
 62
7
100
AcDbSpline
 70
8
 71
3
 72
8
 73
4
 74
0
 40
0
 40
0
 40
0
 40
0
 40
1
 40
1
 40
1
 40
1
 10
724.004775
 20
-297.338040
 30
0.0
 10
726.415923
 20
-297.338040
 30
0.0
 10
728.370400
 20
-299.292781
 30
0.0
 10
728.370400
 20
-301.703665
 30
0.0
  0
SPLINE
  5
339
100
AcDbEntity
  8
0
 62
7
100
AcDbSpline
 70
8
 71
3
 72
8
 73
4
 74
0
 40
0
 40
0
 40
0
 40
0
 40
1
 40
1
 40
1
 40
1
 10
728.370400
 20
109.891165
 30
0.0
 10
728.370400
 20
107.480281
 30
0.0
 10
726.415923
 20
105.525540
 30
0.0
 10
724.004775
 20
105.525540
 30
0.0
  0
SPLINE
  5
33a
100
AcDbEntity
  8
0
 62
7
100
AcDbSpline
 70
8
 71
3
 72
8
 73
4
 74
0
 40
0
 40
0
 40
0
 40
0
 40
1
 40
1
 40
1
 40
1
 10
724.004775
 20
105.525540
 30
0.0
 10
721.593627
 20
105.525540
 30
0.0
 10
719.639150
 20
107.480281
 30
0.0
 10
719.639150
 20
109.891165
 30
0.0
  0
SPLINE
  5
33b
100
AcDbEntity
  8
0
 62
7
100
AcDbSpline
 70
8
 71
3
 72
8
 73
4
 74
0
 40
0
 40
0
 40
0
 40
0
 40
1
 40
1
 40
1
 40
1
 10
719.639150
 20
109.891165
 30
0.0
 10
719.639150
 20
112.302313
 30
0.0
 10
721.593627
 20
114.256790
 30
0.0
 10
724.004775
 20
114.256790
 30
0.0
  0
SPLINE
  5
33c
100
AcDbEntity
  8
0
 62
7
100
AcDbSpline
 70
8
 71
3
 72
8
 73
4
 74
0
 40
0
 40
0
 40
0
 40
0
 40
1
 40
1
 40
1
 40
1
 10
724.004775
 20
114.256790
 30
0.0
 10
726.415923
 20
114.256790
 30
0.0
 10
728.370400
 20
112.302313
 30
0.0
 10
728.370400
 20
109.891165
 30
0.0
  0
SPLINE
  5
33d
100
AcDbEntity
  8
0
 62
7
100
AcDbSpline
 70
8
 71
3
 72
8
 73
4
 74
0
 40
0
 40
0
 40
0
 40
0
 40
1
 40
1
 40
1
 40
1
 10
391.610850
 20
109.891165
 30
0.0
 10
391.610850
 20
107.480281
 30
0.0
 10
389.656373
 20
105.525540
 30
0.0
 10
387.245225
 20
105.525540
 30
0.0
  0
SPLINE
  5
33e
100
AcDbEntity
  8
0
 62
7
100
AcDbSpline
 70
8
 71
3
 72
8
 73
4
 74
0
 40
0
 40
0
 40
0
 40
0
 40
1
 40
1
 40
1
 40
1
 10
387.245225
 20
105.525540
 30
0.0
 10
384.834077
 20
105.525540
 30
0.0
 10
382.879600
 20
107.480281
 30
0.0
 10
382.879600
 20
109.891165
 30
0.0
  0
SPLINE
  5
33f
100
AcDbEntity
  8
0
 62
7
100
AcDbSpline
 70
8
 71
3
 72
8
 73
4
 74
0
 40
0
 40
0
 40
0
 40
0
 40
1
 40
1
 40
1
 40
1
 10
382.879600
 20
109.891165
 30
0.0
 10
382.879600
 20
112.302313
 30
0.0
 10
384.834077
 20
114.256790
 30
0.0
 10
387.245225
 20
114.256790
 30
0.0
  0
SPLINE
  5
340
100
AcDbEntity
  8
0
 62
7
100
AcDbSpline
 70
8
 71
3
 72
8
 73
4
 74
0
 40
0
 40
0
 40
0
 40
0
 40
1
 40
1
 40
1
 40
1
 10
387.245225
 20
114.256790
 30
0.0
 10
389.656373
 20
114.256790
 30
0.0
 10
391.610850
 20
112.302313
 30
0.0
 10
391.610850
 20
109.891165
 30
0.0
  0
SPLINE
  5
341
100
AcDbEntity
  8
0
 62
7
100
AcDbSpline
 70
8
 71
3
 72
8
 73
4
 74
0
 40
0
 40
0
 40
0
 40
0
 40
1
 40
1
 40
1
 40
1
 10
586.448958
 20
-90.614583
 30
0.0
 10
586.448958
 20
-93.025652
 30
0.0
 10
584.494481
 20
-94.980208
 30
0.0
 10
582.083333
 20
-94.980208
 30
0.0
  0
SPLINE
  5
342
100
AcDbEntity
  8
0
 62
7
100
AcDbSpline
 70
8
 71
3
 72
8
 73
4
 74
0
 40
0
 40
0
 40
0
 40
0
 40
1
 40
1
 40
1
 40
1
 10
582.083333
 20
-94.980208
 30
0.0
 10
579.672265
 20
-94.980208
 30
0.0
 10
577.717708
 20
-93.025652
 30
0.0
 10
577.717708
 20
-90.614583
 30
0.0
  0
SPLINE
  5
343
100
AcDbEntity
  8
0
 62
7
100
AcDbSpline
 70
8
 71
3
 72
8
 73
4
 74
0
 40
0
 40
0
 40
0
 40
0
 40
1
 40
1
 40
1
 40
1
 10
577.717708
 20
-90.614583
 30
0.0
 10
577.717708
 20
-88.203515
 30
0.0
 10
579.672265
 20
-86.248958
 30
0.0
 10
582.083333
 20
-86.248958
 30
0.0
  0
SPLINE
  5
344
100
AcDbEntity
  8
0
 62
7
100
AcDbSpline
 70
8
 71
3
 72
8
 73
4
 74
0
 40
0
 40
0
 40
0
 40
0
 40
1
 40
1
 40
1
 40
1
 10
582.083333
 20
-86.248958
 30
0.0
 10
584.494481
 20
-86.248958
 30
0.0
 10
586.448958
 20
-88.203515
 30
0.0
 10
586.448958
 20
-90.614583
 30
0.0
  0
SPLINE
  5
345
100
AcDbEntity
  8
0
 62
7
100
AcDbSpline
 70
8
 71
3
 72
8
 73
4
 74
0
 40
0
 40
0
 40
0
 40
0
 40
1
 40
1
 40
1
 40
1
 10
533.532292
 20
-90.614583
 30
0.0
 10
533.532292
 20
-93.025652
 30
0.0
 10
531.577735
 20
-94.980208
 30
0.0
 10
529.166667
 20
-94.980208
 30
0.0
  0
SPLINE
  5
346
100
AcDbEntity
  8
0
 62
7
100
AcDbSpline
 70
8
 71
3
 72
8
 73
4
 74
0
 40
0
 40
0
 40
0
 40
0
 40
1
 40
1
 40
1
 40
1
 10
529.166667
 20
-94.980208
 30
0.0
 10
526.755519
 20
-94.980208
 30
0.0
 10
524.801042
 20
-93.025652
 30
0.0
 10
524.801042
 20
-90.614583
 30
0.0
  0
SPLINE
  5
347
100
AcDbEntity
  8
0
 62
7
100
AcDbSpline
 70
8
 71
3
 72
8
 73
4
 74
0
 40
0
 40
0
 40
0
 40
0
 40
1
 40
1
 40
1
 40
1
 10
524.801042
 20
-90.614583
 30
0.0
 10
524.801042
 20
-88.203515
 30
0.0
 10
526.755519
 20
-86.248958
 30
0.0
 10
529.166667
 20
-86.248958
 30
0.0
  0
SPLINE
  5
348
100
AcDbEntity
  8
0
 62
7
100
AcDbSpline
 70
8
 71
3
 72
8
 73
4
 74
0
 40
0
 40
0
 40
0
 40
0
 40
1
 40
1
 40
1
 40
1
 10
529.166667
 20
-86.248958
 30
0.0
 10
531.577735
 20
-86.248958
 30
0.0
 10
533.532292
 20
-88.203515
 30
0.0
 10
533.532292
 20
-90.614583
 30
0.0
  0
SPLINE
  5
349
100
AcDbEntity
  8
0
 62
7
100
AcDbSpline
 70
8
 71
3
 72
8
 73
4
 74
0
 40
0
 40
0
 40
0
 40
0
 40
1
 40
1
 40
1
 40
1
 10
586.448958
 20
-246.718750
 30
0.0
 10
586.448958
 20
-249.129898
 30
0.0
 10
584.494481
 20
-251.084375
 30
0.0
 10
582.083333
 20
-251.084375
 30
0.0
  0
SPLINE
  5
34a
100
AcDbEntity
  8
0
 62
7
100
AcDbSpline
 70
8
 71
3
 72
8
 73
4
 74
0
 40
0
 40
0
 40
0
 40
0
 40
1
 40
1
 40
1
 40
1
 10
582.083333
 20
-251.084375
 30
0.0
 10
579.672265
 20
-251.084375
 30
0.0
 10
577.717708
 20
-249.129898
 30
0.0
 10
577.717708
 20
-246.718750
 30
0.0
  0
SPLINE
  5
34b
100
AcDbEntity
  8
0
 62
7
100
AcDbSpline
 70
8
 71
3
 72
8
 73
4
 74
0
 40
0
 40
0
 40
0
 40
0
 40
1
 40
1
 40
1
 40
1
 10
577.717708
 20
-246.718750
 30
0.0
 10
577.717708
 20
-244.307602
 30
0.0
 10
579.672265
 20
-242.353125
 30
0.0
 10
582.083333
 20
-242.353125
 30
0.0
  0
SPLINE
  5
34c
100
AcDbEntity
  8
0
 62
7
100
AcDbSpline
 70
8
 71
3
 72
8
 73
4
 74
0
 40
0
 40
0
 40
0
 40
0
 40
1
 40
1
 40
1
 40
1
 10
582.083333
 20
-242.353125
 30
0.0
 10
584.494481
 20
-242.353125
 30
0.0
 10
586.448958
 20
-244.307602
 30
0.0
 10
586.448958
 20
-246.718750
 30
0.0
  0
SPLINE
  5
34d
100
AcDbEntity
  8
0
 62
7
100
AcDbSpline
 70
8
 71
3
 72
8
 73
4
 74
0
 40
0
 40
0
 40
0
 40
0
 40
1
 40
1
 40
1
 40
1
 10
533.532292
 20
54.906250
 30
0.0
 10
533.532292
 20
52.495102
 30
0.0
 10
531.577735
 20
50.540625
 30
0.0
 10
529.166667
 20
50.540625
 30
0.0
  0
SPLINE
  5
34e
100
AcDbEntity
  8
0
 62
7
100
AcDbSpline
 70
8
 71
3
 72
8
 73
4
 74
0
 40
0
 40
0
 40
0
 40
0
 40
1
 40
1
 40
1
 40
1
 10
529.166667
 20
50.540625
 30
0.0
 10
526.755519
 20
50.540625
 30
0.0
 10
524.801042
 20
52.495102
 30
0.0
 10
524.801042
 20
54.906250
 30
0.0
  0
SPLINE
  5
34f
100
AcDbEntity
  8
0
 62
7
100
AcDbSpline
 70
8
 71
3
 72
8
 73
4
 74
0
 40
0
 40
0
 40
0
 40
0
 40
1
 40
1
 40
1
 40
1
 10
524.801042
 20
54.906250
 30
0.0
 10
524.801042
 20
57.317398
 30
0.0
 10
526.755519
 20
59.271875
 30
0.0
 10
529.166667
 20
59.271875
 30
0.0
  0
SPLINE
  5
350
100
AcDbEntity
  8
0
 62
7
100
AcDbSpline
 70
8
 71
3
 72
8
 73
4
 74
0
 40
0
 40
0
 40
0
 40
0
 40
1
 40
1
 40
1
 40
1
 10
529.166667
 20
59.271875
 30
0.0
 10
531.577735
 20
59.271875
 30
0.0
 10
533.532292
 20
57.317398
 30
0.0
 10
533.532292
 20
54.906250
 30
0.0
  0
SPLINE
  5
351
100
AcDbEntity
  8
0
 62
7
100
AcDbSpline
 70
8
 71
3
 72
8
 73
4
 74
0
 40
0
 40
0
 40
0
 40
0
 40
1
 40
1
 40
1
 40
1
 10
401.240625
 20
-95.906250
 30
0.0
 10
401.240625
 20
-98.317319
 30
0.0
 10
399.286148
 20
-100.271875
 30
0.0
 10
396.875000
 20
-100.271875
 30
0.0
  0
SPLINE
  5
352
100
AcDbEntity
  8
0
 62
7
100
AcDbSpline
 70
8
 71
3
 72
8
 73
4
 74
0
 40
0
 40
0
 40
0
 40
0
 40
1
 40
1
 40
1
 40
1
 10
396.875000
 20
-100.271875
 30
0.0
 10
394.463852
 20
-100.271875
 30
0.0
 10
392.509375
 20
-98.317319
 30
0.0
 10
392.509375
 20
-95.906250
 30
0.0
  0
SPLINE
  5
353
100
AcDbEntity
  8
0
 62
7
100
AcDbSpline
 70
8
 71
3
 72
8
 73
4
 74
0
 40
0
 40
0
 40
0
 40
0
 40
1
 40
1
 40
1
 40
1
 10
392.509375
 20
-95.906250
 30
0.0
 10
392.509375
 20
-93.495181
 30
0.0
 10
394.463852
 20
-91.540625
 30
0.0
 10
396.875000
 20
-91.540625
 30
0.0
  0
SPLINE
  5
354
100
AcDbEntity
  8
0
 62
7
100
AcDbSpline
 70
8
 71
3
 72
8
 73
4
 74
0
 40
0
 40
0
 40
0
 40
0
 40
1
 40
1
 40
1
 40
1
 10
396.875000
 20
-91.540625
 30
0.0
 10
399.286148
 20
-91.540625
 30
0.0
 10
401.240625
 20
-93.495181
 30
0.0
 10
401.240625
 20
-95.906250
 30
0.0
  0
SPLINE
  5
355
100
AcDbEntity
  8
0
 62
7
100
AcDbSpline
 70
8
 71
3
 72
8
 73
4
 74
0
 40
0
 40
0
 40
0
 40
0
 40
1
 40
1
 40
1
 40
1
 10
533.532292
 20
-246.718750
 30
0.0
 10
533.532292
 20
-249.129898
 30
0.0
 10
531.577735
 20
-251.084375
 30
0.0
 10
529.166667
 20
-251.084375
 30
0.0
  0
SPLINE
  5
356
100
AcDbEntity
  8
0
 62
7
100
AcDbSpline
 70
8
 71
3
 72
8
 73
4
 74
0
 40
0
 40
0
 40
0
 40
0
 40
1
 40
1
 40
1
 40
1
 10
529.166667
 20
-251.084375
 30
0.0
 10
526.755519
 20
-251.084375
 30
0.0
 10
524.801042
 20
-249.129898
 30
0.0
 10
524.801042
 20
-246.718750
 30
0.0
  0
SPLINE
  5
357
100
AcDbEntity
  8
0
 62
7
100
AcDbSpline
 70
8
 71
3
 72
8
 73
4
 74
0
 40
0
 40
0
 40
0
 40
0
 40
1
 40
1
 40
1
 40
1
 10
524.801042
 20
-246.718750
 30
0.0
 10
524.801042
 20
-244.307602
 30
0.0
 10
526.755519
 20
-242.353125
 30
0.0
 10
529.166667
 20
-242.353125
 30
0.0
  0
SPLINE
  5
358
100
AcDbEntity
  8
0
 62
7
100
AcDbSpline
 70
8
 71
3
 72
8
 73
4
 74
0
 40
0
 40
0
 40
0
 40
0
 40
1
 40
1
 40
1
 40
1
 10
529.166667
 20
-242.353125
 30
0.0
 10
531.577735
 20
-242.353125
 30
0.0
 10
533.532292
 20
-244.307602
 30
0.0
 10
533.532292
 20
-246.718750
 30
0.0
  0
SPLINE
  5
359
100
AcDbEntity
  8
0
 62
7
100
AcDbSpline
 70
8
 71
3
 72
8
 73
4
 74
0
 40
0
 40
0
 40
0
 40
0
 40
1
 40
1
 40
1
 40
1
 10
586.448958
 20
54.906250
 30
0.0
 10
586.448958
 20
52.495102
 30
0.0
 10
584.494481
 20
50.540625
 30
0.0
 10
582.083333
 20
50.540625
 30
0.0
  0
SPLINE
  5
35a
100
AcDbEntity
  8
0
 62
7
100
AcDbSpline
 70
8
 71
3
 72
8
 73
4
 74
0
 40
0
 40
0
 40
0
 40
0
 40
1
 40
1
 40
1
 40
1
 10
582.083333
 20
50.540625
 30
0.0
 10
579.672265
 20
50.540625
 30
0.0
 10
577.717708
 20
52.495102
 30
0.0
 10
577.717708
 20
54.906250
 30
0.0
  0
SPLINE
  5
35b
100
AcDbEntity
  8
0
 62
7
100
AcDbSpline
 70
8
 71
3
 72
8
 73
4
 74
0
 40
0
 40
0
 40
0
 40
0
 40
1
 40
1
 40
1
 40
1
 10
577.717708
 20
54.906250
 30
0.0
 10
577.717708
 20
57.317398
 30
0.0
 10
579.672265
 20
59.271875
 30
0.0
 10
582.083333
 20
59.271875
 30
0.0
  0
SPLINE
  5
35c
100
AcDbEntity
  8
0
 62
7
100
AcDbSpline
 70
8
 71
3
 72
8
 73
4
 74
0
 40
0
 40
0
 40
0
 40
0
 40
1
 40
1
 40
1
 40
1
 10
582.083333
 20
59.271875
 30
0.0
 10
584.494481
 20
59.271875
 30
0.0
 10
586.448958
 20
57.317398
 30
0.0
 10
586.448958
 20
54.906250
 30
0.0
  0
SPLINE
  5
35d
100
AcDbEntity
  8
0
 62
7
100
AcDbSpline
 70
8
 71
3
 72
8
 73
4
 74
0
 40
0
 40
0
 40
0
 40
0
 40
1
 40
1
 40
1
 40
1
 10
263.657292
 20
-95.906250
 30
0.0
 10
263.657292
 20
-98.317319
 30
0.0
 10
261.702021
 20
-100.271875
 30
0.0
 10
259.291667
 20
-100.271875
 30
0.0
  0
SPLINE
  5
35e
100
AcDbEntity
  8
0
 62
7
100
AcDbSpline
 70
8
 71
3
 72
8
 73
4
 74
0
 40
0
 40
0
 40
0
 40
0
 40
1
 40
1
 40
1
 40
1
 10
259.291667
 20
-100.271875
 30
0.0
 10
256.881312
 20
-100.271875
 30
0.0
 10
254.926042
 20
-98.317319
 30
0.0
 10
254.926042
 20
-95.906250
 30
0.0
  0
SPLINE
  5
35f
100
AcDbEntity
  8
0
 62
7
100
AcDbSpline
 70
8
 71
3
 72
8
 73
4
 74
0
 40
0
 40
0
 40
0
 40
0
 40
1
 40
1
 40
1
 40
1
 10
254.926042
 20
-95.906250
 30
0.0
 10
254.926042
 20
-93.495181
 30
0.0
 10
256.881312
 20
-91.540625
 30
0.0
 10
259.291667
 20
-91.540625
 30
0.0
  0
SPLINE
  5
360
100
AcDbEntity
  8
0
 62
7
100
AcDbSpline
 70
8
 71
3
 72
8
 73
4
 74
0
 40
0
 40
0
 40
0
 40
0
 40
1
 40
1
 40
1
 40
1
 10
259.291667
 20
-91.540625
 30
0.0
 10
261.702021
 20
-91.540625
 30
0.0
 10
263.657292
 20
-93.495181
 30
0.0
 10
263.657292
 20
-95.906250
 30
0.0
  0
SPLINE
  5
361
100
AcDbEntity
  8
0
 62
7
100
AcDbSpline
 70
8
 71
3
 72
8
 73
4
 74
0
 40
0
 40
0
 40
0
 40
0
 40
1
 40
1
 40
1
 40
1
 10
559.990625
 20
-397.531250
 30
0.0
 10
559.990625
 20
-399.941604
 30
0.0
 10
558.036069
 20
-401.896875
 30
0.0
 10
555.625000
 20
-401.896875
 30
0.0
  0
SPLINE
  5
362
100
AcDbEntity
  8
0
 62
7
100
AcDbSpline
 70
8
 71
3
 72
8
 73
4
 74
0
 40
0
 40
0
 40
0
 40
0
 40
1
 40
1
 40
1
 40
1
 10
555.625000
 20
-401.896875
 30
0.0
 10
553.213931
 20
-401.896875
 30
0.0
 10
551.259375
 20
-399.941604
 30
0.0
 10
551.259375
 20
-397.531250
 30
0.0
  0
SPLINE
  5
363
100
AcDbEntity
  8
0
 62
7
100
AcDbSpline
 70
8
 71
3
 72
8
 73
4
 74
0
 40
0
 40
0
 40
0
 40
0
 40
1
 40
1
 40
1
 40
1
 10
551.259375
 20
-397.531250
 30
0.0
 10
551.259375
 20
-395.120896
 30
0.0
 10
553.213931
 20
-393.165625
 30
0.0
 10
555.625000
 20
-393.165625
 30
0.0
  0
SPLINE
  5
364
100
AcDbEntity
  8
0
 62
7
100
AcDbSpline
 70
8
 71
3
 72
8
 73
4
 74
0
 40
0
 40
0
 40
0
 40
0
 40
1
 40
1
 40
1
 40
1
 10
555.625000
 20
-393.165625
 30
0.0
 10
558.036069
 20
-393.165625
 30
0.0
 10
559.990625
 20
-395.120896
 30
0.0
 10
559.990625
 20
-397.531250
 30
0.0
  0
SPLINE
  5
365
100
AcDbEntity
  8
0
 62
7
100
AcDbSpline
 70
8
 71
3
 72
8
 73
4
 74
0
 40
0
 40
0
 40
0
 40
0
 40
1
 40
1
 40
1
 40
1
 10
559.990625
 20
205.718750
 30
0.0
 10
559.990625
 20
203.308396
 30
0.0
 10
558.036069
 20
201.353125
 30
0.0
 10
555.625000
 20
201.353125
 30
0.0
  0
SPLINE
  5
366
100
AcDbEntity
  8
0
 62
7
100
AcDbSpline
 70
8
 71
3
 72
8
 73
4
 74
0
 40
0
 40
0
 40
0
 40
0
 40
1
 40
1
 40
1
 40
1
 10
555.625000
 20
201.353125
 30
0.0
 10
553.213931
 20
201.353125
 30
0.0
 10
551.259375
 20
203.308396
 30
0.0
 10
551.259375
 20
205.718750
 30
0.0
  0
SPLINE
  5
367
100
AcDbEntity
  8
0
 62
7
100
AcDbSpline
 70
8
 71
3
 72
8
 73
4
 74
0
 40
0
 40
0
 40
0
 40
0
 40
1
 40
1
 40
1
 40
1
 10
551.259375
 20
205.718750
 30
0.0
 10
551.259375
 20
208.129104
 30
0.0
 10
553.213931
 20
210.084375
 30
0.0
 10
555.625000
 20
210.084375
 30
0.0
  0
SPLINE
  5
368
100
AcDbEntity
  8
0
 62
7
100
AcDbSpline
 70
8
 71
3
 72
8
 73
4
 74
0
 40
0
 40
0
 40
0
 40
0
 40
1
 40
1
 40
1
 40
1
 10
555.625000
 20
210.084375
 30
0.0
 10
558.036069
 20
210.084375
 30
0.0
 10
559.990625
 20
208.129104
 30
0.0
 10
559.990625
 20
205.718750
 30
0.0
  0
SPLINE
  5
369
100
AcDbEntity
  8
0
 62
7
100
AcDbSpline
 70
8
 71
3
 72
8
 73
4
 74
0
 40
0
 40
0
 40
0
 40
0
 40
1
 40
1
 40
1
 40
1
 10
442.612462
 20
-194.226210
 30
0.0
 10
442.612462
 20
-196.637094
 30
0.0
 10
440.657721
 20
-198.591835
 30
0.0
 10
438.246838
 20
-198.591835
 30
0.0
  0
SPLINE
  5
36a
100
AcDbEntity
  8
0
 62
7
100
AcDbSpline
 70
8
 71
3
 72
8
 73
4
 74
0
 40
0
 40
0
 40
0
 40
0
 40
1
 40
1
 40
1
 40
1
 10
438.246838
 20
-198.591835
 30
0.0
 10
435.835690
 20
-198.591835
 30
0.0
 10
433.881213
 20
-196.637094
 30
0.0
 10
433.881213
 20
-194.226210
 30
0.0
  0
SPLINE
  5
36b
100
AcDbEntity
  8
0
 62
7
100
AcDbSpline
 70
8
 71
3
 72
8
 73
4
 74
0
 40
0
 40
0
 40
0
 40
0
 40
1
 40
1
 40
1
 40
1
 10
433.881213
 20
-194.226210
 30
0.0
 10
433.881213
 20
-191.815062
 30
0.0
 10
435.835690
 20
-189.860585
 30
0.0
 10
438.246838
 20
-189.860585
 30
0.0
  0
SPLINE
  5
36c
100
AcDbEntity
  8
0
 62
7
100
AcDbSpline
 70
8
 71
3
 72
8
 73
4
 74
0
 40
0
 40
0
 40
0
 40
0
 40
1
 40
1
 40
1
 40
1
 10
438.246838
 20
-189.860585
 30
0.0
 10
440.657721
 20
-189.860585
 30
0.0
 10
442.612462
 20
-191.815062
 30
0.0
 10
442.612462
 20
-194.226210
 30
0.0
  0
SPLINE
  5
36d
100
AcDbEntity
  8
0
 62
7
100
AcDbSpline
 70
8
 71
3
 72
8
 73
4
 74
0
 40
0
 40
0
 40
0
 40
0
 40
1
 40
1
 40
1
 40
1
 10
677.368788
 20
-194.226210
 30
0.0
 10
677.368788
 20
-196.637094
 30
0.0
 10
675.414310
 20
-198.591835
 30
0.0
 10
673.003163
 20
-198.591835
 30
0.0
  0
SPLINE
  5
36e
100
AcDbEntity
  8
0
 62
7
100
AcDbSpline
 70
8
 71
3
 72
8
 73
4
 74
0
 40
0
 40
0
 40
0
 40
0
 40
1
 40
1
 40
1
 40
1
 10
673.003163
 20
-198.591835
 30
0.0
 10
670.592279
 20
-198.591835
 30
0.0
 10
668.637538
 20
-196.637094
 30
0.0
 10
668.637538
 20
-194.226210
 30
0.0
  0
SPLINE
  5
36f
100
AcDbEntity
  8
0
 62
7
100
AcDbSpline
 70
8
 71
3
 72
8
 73
4
 74
0
 40
0
 40
0
 40
0
 40
0
 40
1
 40
1
 40
1
 40
1
 10
668.637538
 20
-194.226210
 30
0.0
 10
668.637538
 20
-191.815062
 30
0.0
 10
670.592279
 20
-189.860585
 30
0.0
 10
673.003163
 20
-189.860585
 30
0.0
  0
SPLINE
  5
370
100
AcDbEntity
  8
0
 62
7
100
AcDbSpline
 70
8
 71
3
 72
8
 73
4
 74
0
 40
0
 40
0
 40
0
 40
0
 40
1
 40
1
 40
1
 40
1
 10
673.003163
 20
-189.860585
 30
0.0
 10
675.414310
 20
-189.860585
 30
0.0
 10
677.368788
 20
-191.815062
 30
0.0
 10
677.368788
 20
-194.226210
 30
0.0
  0
SPLINE
  5
371
100
AcDbEntity
  8
0
 62
7
100
AcDbSpline
 70
8
 71
3
 72
8
 73
4
 74
0
 40
0
 40
0
 40
0
 40
0
 40
1
 40
1
 40
1
 40
1
 10
639.365625
 20
-233.387719
 30
0.0
 10
639.365625
 20
-235.798867
 30
0.0
 10
637.411148
 20
-237.753344
 30
0.0
 10
635.000000
 20
-237.753344
 30
0.0
  0
SPLINE
  5
372
100
AcDbEntity
  8
0
 62
7
100
AcDbSpline
 70
8
 71
3
 72
8
 73
4
 74
0
 40
0
 40
0
 40
0
 40
0
 40
1
 40
1
 40
1
 40
1
 10
635.000000
 20
-237.753344
 30
0.0
 10
632.588852
 20
-237.753344
 30
0.0
 10
630.634375
 20
-235.798867
 30
0.0
 10
630.634375
 20
-233.387719
 30
0.0
  0
SPLINE
  5
373
100
AcDbEntity
  8
0
 62
7
100
AcDbSpline
 70
8
 71
3
 72
8
 73
4
 74
0
 40
0
 40
0
 40
0
 40
0
 40
1
 40
1
 40
1
 40
1
 10
630.634375
 20
-233.387719
 30
0.0
 10
630.634375
 20
-230.976835
 30
0.0
 10
632.588852
 20
-229.022094
 30
0.0
 10
635.000000
 20
-229.022094
 30
0.0
  0
SPLINE
  5
374
100
AcDbEntity
  8
0
 62
7
100
AcDbSpline
 70
8
 71
3
 72
8
 73
4
 74
0
 40
0
 40
0
 40
0
 40
0
 40
1
 40
1
 40
1
 40
1
 10
635.000000
 20
-229.022094
 30
0.0
 10
637.411148
 20
-229.022094
 30
0.0
 10
639.365625
 20
-230.976835
 30
0.0
 10
639.365625
 20
-233.387719
 30
0.0
  0
SPLINE
  5
375
100
AcDbEntity
  8
0
 62
7
100
AcDbSpline
 70
8
 71
3
 72
8
 73
4
 74
0
 40
0
 40
0
 40
0
 40
0
 40
1
 40
1
 40
1
 40
1
 10
391.610850
 20
-301.703665
 30
0.0
 10
391.610850
 20
-304.114812
 30
0.0
 10
389.656373
 20
-306.069290
 30
0.0
 10
387.245225
 20
-306.069290
 30
0.0
  0
SPLINE
  5
376
100
AcDbEntity
  8
0
 62
7
100
AcDbSpline
 70
8
 71
3
 72
8
 73
4
 74
0
 40
0
 40
0
 40
0
 40
0
 40
1
 40
1
 40
1
 40
1
 10
387.245225
 20
-306.069290
 30
0.0
 10
384.834077
 20
-306.069290
 30
0.0
 10
382.879600
 20
-304.114812
 30
0.0
 10
382.879600
 20
-301.703665
 30
0.0
  0
SPLINE
  5
377
100
AcDbEntity
  8
0
 62
7
100
AcDbSpline
 70
8
 71
3
 72
8
 73
4
 74
0
 40
0
 40
0
 40
0
 40
0
 40
1
 40
1
 40
1
 40
1
 10
382.879600
 20
-301.703665
 30
0.0
 10
382.879600
 20
-299.292781
 30
0.0
 10
384.834077
 20
-297.338040
 30
0.0
 10
387.245225
 20
-297.338040
 30
0.0
  0
SPLINE
  5
378
100
AcDbEntity
  8
0
 62
7
100
AcDbSpline
 70
8
 71
3
 72
8
 73
4
 74
0
 40
0
 40
0
 40
0
 40
0
 40
1
 40
1
 40
1
 40
1
 10
387.245225
 20
-297.338040
 30
0.0
 10
389.656373
 20
-297.338040
 30
0.0
 10
391.610850
 20
-299.292781
 30
0.0
 10
391.610850
 20
-301.703665
 30
0.0
  0
SPLINE
  5
379
100
AcDbEntity
  8
0
 62
7
100
AcDbSpline
 70
8
 71
3
 72
8
 73
4
 74
0
 40
0
 40
0
 40
0
 40
0
 40
1
 40
1
 40
1
 40
1
 10
677.368788
 20
2.413710
 30
0.0
 10
677.368788
 20
0.002563
 30
0.0
 10
675.414310
 20
-1.951915
 30
0.0
 10
673.003163
 20
-1.951915
 30
0.0
  0
SPLINE
  5
37a
100
AcDbEntity
  8
0
 62
7
100
AcDbSpline
 70
8
 71
3
 72
8
 73
4
 74
0
 40
0
 40
0
 40
0
 40
0
 40
1
 40
1
 40
1
 40
1
 10
673.003163
 20
-1.951915
 30
0.0
 10
670.592279
 20
-1.951915
 30
0.0
 10
668.637538
 20
0.002563
 30
0.0
 10
668.637538
 20
2.413710
 30
0.0
  0
SPLINE
  5
37b
100
AcDbEntity
  8
0
 62
7
100
AcDbSpline
 70
8
 71
3
 72
8
 73
4
 74
0
 40
0
 40
0
 40
0
 40
0
 40
1
 40
1
 40
1
 40
1
 10
668.637538
 20
2.413710
 30
0.0
 10
668.637538
 20
4.824594
 30
0.0
 10
670.592279
 20
6.779335
 30
0.0
 10
673.003163
 20
6.779335
 30
0.0
  0
SPLINE
  5
37c
100
AcDbEntity
  8
0
 62
7
100
AcDbSpline
 70
8
 71
3
 72
8
 73
4
 74
0
 40
0
 40
0
 40
0
 40
0
 40
1
 40
1
 40
1
 40
1
 10
673.003163
 20
6.779335
 30
0.0
 10
675.414310
 20
6.779335
 30
0.0
 10
677.368788
 20
4.824594
 30
0.0
 10
677.368788
 20
2.413710
 30
0.0
  0
SPLINE
  5
37d
100
AcDbEntity
  8
0
 62
7
100
AcDbSpline
 70
8
 71
3
 72
8
 73
4
 74
0
 40
0
 40
0
 40
0
 40
0
 40
1
 40
1
 40
1
 40
1
 10
765.788040
 20
72.473525
 30
0.0
 10
765.788040
 20
70.062377
 30
0.0
 10
763.833562
 20
68.107900
 30
0.0
 10
761.422415
 20
68.107900
 30
0.0
  0
SPLINE
  5
37e
100
AcDbEntity
  8
0
 62
7
100
AcDbSpline
 70
8
 71
3
 72
8
 73
4
 74
0
 40
0
 40
0
 40
0
 40
0
 40
1
 40
1
 40
1
 40
1
 10
761.422415
 20
68.107900
 30
0.0
 10
759.011531
 20
68.107900
 30
0.0
 10
757.056790
 20
70.062377
 30
0.0
 10
757.056790
 20
72.473525
 30
0.0
  0
SPLINE
  5
37f
100
AcDbEntity
  8
0
 62
7
100
AcDbSpline
 70
8
 71
3
 72
8
 73
4
 74
0
 40
0
 40
0
 40
0
 40
0
 40
1
 40
1
 40
1
 40
1
 10
757.056790
 20
72.473525
 30
0.0
 10
757.056790
 20
74.884673
 30
0.0
 10
759.011531
 20
76.839150
 30
0.0
 10
761.422415
 20
76.839150
 30
0.0
  0
SPLINE
  5
380
100
AcDbEntity
  8
0
 62
7
100
AcDbSpline
 70
8
 71
3
 72
8
 73
4
 74
0
 40
0
 40
0
 40
0
 40
0
 40
1
 40
1
 40
1
 40
1
 10
761.422415
 20
76.839150
 30
0.0
 10
763.833562
 20
76.839150
 30
0.0
 10
765.788040
 20
74.884673
 30
0.0
 10
765.788040
 20
72.473525
 30
0.0
  0
SPLINE
  5
381
100
AcDbEntity
  8
0
 62
7
100
AcDbSpline
 70
8
 71
3
 72
8
 73
4
 74
0
 40
0
 40
0
 40
0
 40
0
 40
1
 40
1
 40
1
 40
1
 10
480.615625
 20
41.575219
 30
0.0
 10
480.615625
 20
39.164335
 30
0.0
 10
478.661148
 20
37.209594
 30
0.0
 10
476.250000
 20
37.209594
 30
0.0
  0
SPLINE
  5
382
100
AcDbEntity
  8
0
 62
7
100
AcDbSpline
 70
8
 71
3
 72
8
 73
4
 74
0
 40
0
 40
0
 40
0
 40
0
 40
1
 40
1
 40
1
 40
1
 10
476.250000
 20
37.209594
 30
0.0
 10
473.838852
 20
37.209594
 30
0.0
 10
471.884375
 20
39.164335
 30
0.0
 10
471.884375
 20
41.575219
 30
0.0
  0
SPLINE
  5
383
100
AcDbEntity
  8
0
 62
7
100
AcDbSpline
 70
8
 71
3
 72
8
 73
4
 74
0
 40
0
 40
0
 40
0
 40
0
 40
1
 40
1
 40
1
 40
1
 10
471.884375
 20
41.575219
 30
0.0
 10
471.884375
 20
43.986367
 30
0.0
 10
473.838852
 20
45.940844
 30
0.0
 10
476.250000
 20
45.940844
 30
0.0
  0
SPLINE
  5
384
100
AcDbEntity
  8
0
 62
7
100
AcDbSpline
 70
8
 71
3
 72
8
 73
4
 74
0
 40
0
 40
0
 40
0
 40
0
 40
1
 40
1
 40
1
 40
1
 10
476.250000
 20
45.940844
 30
0.0
 10
478.661148
 20
45.940844
 30
0.0
 10
480.615625
 20
43.986367
 30
0.0
 10
480.615625
 20
41.575219
 30
0.0
  0
SPLINE
  5
385
100
AcDbEntity
  8
0
 62
7
100
AcDbSpline
 70
8
 71
3
 72
8
 73
4
 74
0
 40
0
 40
0
 40
0
 40
0
 40
1
 40
1
 40
1
 40
1
 10
311.270650
 20
-1.870158
 30
0.0
 10
311.270650
 20
-4.281306
 30
0.0
 10
309.316173
 20
-6.235783
 30
0.0
 10
306.905025
 20
-6.235783
 30
0.0
  0
SPLINE
  5
386
100
AcDbEntity
  8
0
 62
7
100
AcDbSpline
 70
8
 71
3
 72
8
 73
4
 74
0
 40
0
 40
0
 40
0
 40
0
 40
1
 40
1
 40
1
 40
1
 10
306.905025
 20
-6.235783
 30
0.0
 10
304.493877
 20
-6.235783
 30
0.0
 10
302.539400
 20
-4.281306
 30
0.0
 10
302.539400
 20
-1.870158
 30
0.0
  0
SPLINE
  5
387
100
AcDbEntity
  8
0
 62
7
100
AcDbSpline
 70
8
 71
3
 72
8
 73
4
 74
0
 40
0
 40
0
 40
0
 40
0
 40
1
 40
1
 40
1
 40
1
 10
302.539400
 20
-1.870158
 30
0.0
 10
302.539400
 20
0.540725
 30
0.0
 10
304.493877
 20
2.495467
 30
0.0
 10
306.905025
 20
2.495467
 30
0.0
  0
SPLINE
  5
388
100
AcDbEntity
  8
0
 62
7
100
AcDbSpline
 70
8
 71
3
 72
8
 73
4
 74
0
 40
0
 40
0
 40
0
 40
0
 40
1
 40
1
 40
1
 40
1
 10
306.905025
 20
2.495467
 30
0.0
 10
309.316173
 20
2.495467
 30
0.0
 10
311.270650
 20
0.540725
 30
0.0
 10
311.270650
 20
-1.870158
 30
0.0
  0
SPLINE
  5
389
100
AcDbEntity
  8
0
 62
7
100
AcDbSpline
 70
8
 71
3
 72
8
 73
4
 74
0
 40
0
 40
0
 40
0
 40
0
 40
1
 40
1
 40
1
 40
1
 10
298.775702
 20
54.906250
 30
0.0
 10
298.775702
 20
52.495102
 30
0.0
 10
296.821225
 20
50.540625
 30
0.0
 10
294.410077
 20
50.540625
 30
0.0
  0
SPLINE
  5
38a
100
AcDbEntity
  8
0
 62
7
100
AcDbSpline
 70
8
 71
3
 72
8
 73
4
 74
0
 40
0
 40
0
 40
0
 40
0
 40
1
 40
1
 40
1
 40
1
 10
294.410077
 20
50.540625
 30
0.0
 10
291.998929
 20
50.540625
 30
0.0
 10
290.044188
 20
52.495102
 30
0.0
 10
290.044188
 20
54.906250
 30
0.0
  0
SPLINE
  5
38b
100
AcDbEntity
  8
0
 62
7
100
AcDbSpline
 70
8
 71
3
 72
8
 73
4
 74
0
 40
0
 40
0
 40
0
 40
0
 40
1
 40
1
 40
1
 40
1
 10
290.044188
 20
54.906250
 30
0.0
 10
290.044188
 20
57.317398
 30
0.0
 10
291.998929
 20
59.271875
 30
0.0
 10
294.410077
 20
59.271875
 30
0.0
  0
SPLINE
  5
38c
100
AcDbEntity
  8
0
 62
7
100
AcDbSpline
 70
8
 71
3
 72
8
 73
4
 74
0
 40
0
 40
0
 40
0
 40
0
 40
1
 40
1
 40
1
 40
1
 10
294.410077
 20
59.271875
 30
0.0
 10
296.821225
 20
59.271875
 30
0.0
 10
298.775702
 20
57.317398
 30
0.0
 10
298.775702
 20
54.906250
 30
0.0
  0
SPLINE
  5
38d
100
AcDbEntity
  8
0
 62
7
100
AcDbSpline
 70
8
 71
3
 72
8
 73
4
 74
0
 40
0
 40
0
 40
0
 40
0
 40
1
 40
1
 40
1
 40
1
 10
297.574758
 20
-52.983954
 30
0.0
 10
297.574758
 20
-55.394837
 30
0.0
 10
295.620281
 20
-57.349579
 30
0.0
 10
293.209133
 20
-57.349579
 30
0.0
  0
SPLINE
  5
38e
100
AcDbEntity
  8
0
 62
7
100
AcDbSpline
 70
8
 71
3
 72
8
 73
4
 74
0
 40
0
 40
0
 40
0
 40
0
 40
1
 40
1
 40
1
 40
1
 10
293.209133
 20
-57.349579
 30
0.0
 10
290.798250
 20
-57.349579
 30
0.0
 10
288.842979
 20
-55.394837
 30
0.0
 10
288.842979
 20
-52.983954
 30
0.0
  0
SPLINE
  5
38f
100
AcDbEntity
  8
0
 62
7
100
AcDbSpline
 70
8
 71
3
 72
8
 73
4
 74
0
 40
0
 40
0
 40
0
 40
0
 40
1
 40
1
 40
1
 40
1
 10
288.842979
 20
-52.983954
 30
0.0
 10
288.842979
 20
-50.572806
 30
0.0
 10
290.798250
 20
-48.618329
 30
0.0
 10
293.209133
 20
-48.618329
 30
0.0
  0
SPLINE
  5
390
100
AcDbEntity
  8
0
 62
7
100
AcDbSpline
 70
8
 71
3
 72
8
 73
4
 74
0
 40
0
 40
0
 40
0
 40
0
 40
1
 40
1
 40
1
 40
1
 10
293.209133
 20
-48.618329
 30
0.0
 10
295.620281
 20
-48.618329
 30
0.0
 10
297.574758
 20
-50.572806
 30
0.0
 10
297.574758
 20
-52.983954
 30
0.0
  0
SPLINE
  5
391
100
AcDbEntity
  8
0
 62
7
100
AcDbSpline
 70
8
 71
3
 72
8
 73
4
 74
0
 40
0
 40
0
 40
0
 40
0
 40
1
 40
1
 40
1
 40
1
 10
822.407021
 20
-138.828546
 30
0.0
 10
822.407021
 20
-141.239694
 30
0.0
 10
820.451750
 20
-143.194171
 30
0.0
 10
818.040867
 20
-143.194171
 30
0.0
  0
SPLINE
  5
392
100
AcDbEntity
  8
0
 62
7
100
AcDbSpline
 70
8
 71
3
 72
8
 73
4
 74
0
 40
0
 40
0
 40
0
 40
0
 40
1
 40
1
 40
1
 40
1
 10
818.040867
 20
-143.194171
 30
0.0
 10
815.629719
 20
-143.194171
 30
0.0
 10
813.675242
 20
-141.239694
 30
0.0
 10
813.675242
 20
-138.828546
 30
0.0
  0
SPLINE
  5
393
100
AcDbEntity
  8
0
 62
7
100
AcDbSpline
 70
8
 71
3
 72
8
 73
4
 74
0
 40
0
 40
0
 40
0
 40
0
 40
1
 40
1
 40
1
 40
1
 10
813.675242
 20
-138.828546
 30
0.0
 10
813.675242
 20
-136.417662
 30
0.0
 10
815.629719
 20
-134.462921
 30
0.0
 10
818.040867
 20
-134.462921
 30
0.0
  0
SPLINE
  5
394
100
AcDbEntity
  8
0
 62
7
100
AcDbSpline
 70
8
 71
3
 72
8
 73
4
 74
0
 40
0
 40
0
 40
0
 40
0
 40
1
 40
1
 40
1
 40
1
 10
818.040867
 20
-134.462921
 30
0.0
 10
820.451750
 20
-134.462921
 30
0.0
 10
822.407021
 20
-136.417662
 30
0.0
 10
822.407021
 20
-138.828546
 30
0.0
  0
SPLINE
  5
395
100
AcDbEntity
  8
0
 62
7
100
AcDbSpline
 70
8
 71
3
 72
8
 73
4
 74
0
 40
0
 40
0
 40
0
 40
0
 40
1
 40
1
 40
1
 40
1
 10
354.193210
 20
-264.286025
 30
0.0
 10
354.193210
 20
-266.697173
 30
0.0
 10
352.238469
 20
-268.651650
 30
0.0
 10
349.827585
 20
-268.651650
 30
0.0
  0
SPLINE
  5
396
100
AcDbEntity
  8
0
 62
7
100
AcDbSpline
 70
8
 71
3
 72
8
 73
4
 74
0
 40
0
 40
0
 40
0
 40
0
 40
1
 40
1
 40
1
 40
1
 10
349.827585
 20
-268.651650
 30
0.0
 10
347.416437
 20
-268.651650
 30
0.0
 10
345.461960
 20
-266.697173
 30
0.0
 10
345.461960
 20
-264.286025
 30
0.0
  0
SPLINE
  5
397
100
AcDbEntity
  8
0
 62
7
100
AcDbSpline
 70
8
 71
3
 72
8
 73
4
 74
0
 40
0
 40
0
 40
0
 40
0
 40
1
 40
1
 40
1
 40
1
 10
345.461960
 20
-264.286025
 30
0.0
 10
345.461960
 20
-261.874877
 30
0.0
 10
347.416437
 20
-259.920400
 30
0.0
 10
349.827585
 20
-259.920400
 30
0.0
  0
SPLINE
  5
398
100
AcDbEntity
  8
0
 62
7
100
AcDbSpline
 70
8
 71
3
 72
8
 73
4
 74
0
 40
0
 40
0
 40
0
 40
0
 40
1
 40
1
 40
1
 40
1
 10
349.827585
 20
-259.920400
 30
0.0
 10
352.238469
 20
-259.920400
 30
0.0
 10
354.193210
 20
-261.874877
 30
0.0
 10
354.193210
 20
-264.286025
 30
0.0
  0
SPLINE
  5
399
100
AcDbEntity
  8
0
 62
7
100
AcDbSpline
 70
8
 71
3
 72
8
 73
4
 74
0
 40
0
 40
0
 40
0
 40
0
 40
1
 40
1
 40
1
 40
1
 10
808.710600
 20
-189.942342
 30
0.0
 10
808.710600
 20
-192.353225
 30
0.0
 10
806.756123
 20
-194.307967
 30
0.0
 10
804.344975
 20
-194.307967
 30
0.0
  0
SPLINE
  5
39a
100
AcDbEntity
  8
0
 62
7
100
AcDbSpline
 70
8
 71
3
 72
8
 73
4
 74
0
 40
0
 40
0
 40
0
 40
0
 40
1
 40
1
 40
1
 40
1
 10
804.344975
 20
-194.307967
 30
0.0
 10
801.933827
 20
-194.307967
 30
0.0
 10
799.979350
 20
-192.353225
 30
0.0
 10
799.979350
 20
-189.942342
 30
0.0
  0
SPLINE
  5
39b
100
AcDbEntity
  8
0
 62
7
100
AcDbSpline
 70
8
 71
3
 72
8
 73
4
 74
0
 40
0
 40
0
 40
0
 40
0
 40
1
 40
1
 40
1
 40
1
 10
799.979350
 20
-189.942342
 30
0.0
 10
799.979350
 20
-187.531194
 30
0.0
 10
801.933827
 20
-185.576717
 30
0.0
 10
804.344975
 20
-185.576717
 30
0.0
  0
SPLINE
  5
39c
100
AcDbEntity
  8
0
 62
7
100
AcDbSpline
 70
8
 71
3
 72
8
 73
4
 74
0
 40
0
 40
0
 40
0
 40
0
 40
1
 40
1
 40
1
 40
1
 10
804.344975
 20
-185.576717
 30
0.0
 10
806.756123
 20
-185.576717
 30
0.0
 10
808.710600
 20
-187.531194
 30
0.0
 10
808.710600
 20
-189.942342
 30
0.0
  0
SPLINE
  5
39d
100
AcDbEntity
  8
0
 62
7
100
AcDbSpline
 70
8
 71
3
 72
8
 73
4
 74
0
 40
0
 40
0
 40
0
 40
0
 40
1
 40
1
 40
1
 40
1
 10
654.026717
 20
-344.626225
 30
0.0
 10
654.026717
 20
-347.037373
 30
0.0
 10
652.071975
 20
-348.991850
 30
0.0
 10
649.661092
 20
-348.991850
 30
0.0
  0
SPLINE
  5
39e
100
AcDbEntity
  8
0
 62
7
100
AcDbSpline
 70
8
 71
3
 72
8
 73
4
 74
0
 40
0
 40
0
 40
0
 40
0
 40
1
 40
1
 40
1
 40
1
 10
649.661092
 20
-348.991850
 30
0.0
 10
647.249944
 20
-348.991850
 30
0.0
 10
645.295467
 20
-347.037373
 30
0.0
 10
645.295467
 20
-344.626225
 30
0.0
  0
SPLINE
  5
39f
100
AcDbEntity
  8
0
 62
7
100
AcDbSpline
 70
8
 71
3
 72
8
 73
4
 74
0
 40
0
 40
0
 40
0
 40
0
 40
1
 40
1
 40
1
 40
1
 10
645.295467
 20
-344.626225
 30
0.0
 10
645.295467
 20
-342.215077
 30
0.0
 10
647.249944
 20
-340.260600
 30
0.0
 10
649.661092
 20
-340.260600
 30
0.0
  0
SPLINE
  5
3a0
100
AcDbEntity
  8
0
 62
7
100
AcDbSpline
 70
8
 71
3
 72
8
 73
4
 74
0
 40
0
 40
0
 40
0
 40
0
 40
1
 40
1
 40
1
 40
1
 10
649.661092
 20
-340.260600
 30
0.0
 10
652.071975
 20
-340.260600
 30
0.0
 10
654.026717
 20
-342.215077
 30
0.0
 10
654.026717
 20
-344.626225
 30
0.0
  0
SPLINE
  5
3a1
100
AcDbEntity
  8
0
 62
7
100
AcDbSpline
 70
8
 71
3
 72
8
 73
4
 74
0
 40
0
 40
0
 40
0
 40
0
 40
1
 40
1
 40
1
 40
1
 10
465.954533
 20
152.813725
 30
0.0
 10
465.954533
 20
150.402577
 30
0.0
 10
464.000056
 20
148.448100
 30
0.0
 10
461.588908
 20
148.448100
 30
0.0
  0
SPLINE
  5
3a2
100
AcDbEntity
  8
0
 62
7
100
AcDbSpline
 70
8
 71
3
 72
8
 73
4
 74
0
 40
0
 40
0
 40
0
 40
0
 40
1
 40
1
 40
1
 40
1
 10
461.588908
 20
148.448100
 30
0.0
 10
459.178025
 20
148.448100
 30
0.0
 10
457.223283
 20
150.402577
 30
0.0
 10
457.223283
 20
152.813725
 30
0.0
  0
SPLINE
  5
3a3
100
AcDbEntity
  8
0
 62
7
100
AcDbSpline
 70
8
 71
3
 72
8
 73
4
 74
0
 40
0
 40
0
 40
0
 40
0
 40
1
 40
1
 40
1
 40
1
 10
457.223283
 20
152.813725
 30
0.0
 10
457.223283
 20
155.224873
 30
0.0
 10
459.178025
 20
157.179350
 30
0.0
 10
461.588908
 20
157.179350
 30
0.0
  0
SPLINE
  5
3a4
100
AcDbEntity
  8
0
 62
7
100
AcDbSpline
 70
8
 71
3
 72
8
 73
4
 74
0
 40
0
 40
0
 40
0
 40
0
 40
1
 40
1
 40
1
 40
1
 10
461.588908
 20
157.179350
 30
0.0
 10
464.000056
 20
157.179350
 30
0.0
 10
465.954533
 20
155.224873
 30
0.0
 10
465.954533
 20
152.813725
 30
0.0
  0
SPLINE
  5
3a5
100
AcDbEntity
  8
0
 62
7
100
AcDbSpline
 70
8
 71
3
 72
8
 73
4
 74
0
 40
0
 40
0
 40
0
 40
0
 40
1
 40
1
 40
1
 40
1
 10
311.270650
 20
-189.942342
 30
0.0
 10
311.270650
 20
-192.353225
 30
0.0
 10
309.316173
 20
-194.307967
 30
0.0
 10
306.905025
 20
-194.307967
 30
0.0
  0
SPLINE
  5
3a6
100
AcDbEntity
  8
0
 62
7
100
AcDbSpline
 70
8
 71
3
 72
8
 73
4
 74
0
 40
0
 40
0
 40
0
 40
0
 40
1
 40
1
 40
1
 40
1
 10
306.905025
 20
-194.307967
 30
0.0
 10
304.493877
 20
-194.307967
 30
0.0
 10
302.539400
 20
-192.353225
 30
0.0
 10
302.539400
 20
-189.942342
 30
0.0
  0
SPLINE
  5
3a7
100
AcDbEntity
  8
0
 62
7
100
AcDbSpline
 70
8
 71
3
 72
8
 73
4
 74
0
 40
0
 40
0
 40
0
 40
0
 40
1
 40
1
 40
1
 40
1
 10
302.539400
 20
-189.942342
 30
0.0
 10
302.539400
 20
-187.531194
 30
0.0
 10
304.493877
 20
-185.576717
 30
0.0
 10
306.905025
 20
-185.576717
 30
0.0
  0
SPLINE
  5
3a8
100
AcDbEntity
  8
0
 62
7
100
AcDbSpline
 70
8
 71
3
 72
8
 73
4
 74
0
 40
0
 40
0
 40
0
 40
0
 40
1
 40
1
 40
1
 40
1
 10
306.905025
 20
-185.576717
 30
0.0
 10
309.316173
 20
-185.576717
 30
0.0
 10
311.270650
 20
-187.531194
 30
0.0
 10
311.270650
 20
-189.942342
 30
0.0
  0
SPLINE
  5
3a9
100
AcDbEntity
  8
0
 62
7
100
AcDbSpline
 70
8
 71
3
 72
8
 73
4
 74
0
 40
0
 40
0
 40
0
 40
0
 40
1
 40
1
 40
1
 40
1
 10
808.710600
 20
-1.870158
 30
0.0
 10
808.710600
 20
-4.281306
 30
0.0
 10
806.756123
 20
-6.235783
 30
0.0
 10
804.344975
 20
-6.235783
 30
0.0
  0
SPLINE
  5
3aa
100
AcDbEntity
  8
0
 62
7
100
AcDbSpline
 70
8
 71
3
 72
8
 73
4
 74
0
 40
0
 40
0
 40
0
 40
0
 40
1
 40
1
 40
1
 40
1
 10
804.344975
 20
-6.235783
 30
0.0
 10
801.933827
 20
-6.235783
 30
0.0
 10
799.979350
 20
-4.281306
 30
0.0
 10
799.979350
 20
-1.870158
 30
0.0
  0
SPLINE
  5
3ab
100
AcDbEntity
  8
0
 62
7
100
AcDbSpline
 70
8
 71
3
 72
8
 73
4
 74
0
 40
0
 40
0
 40
0
 40
0
 40
1
 40
1
 40
1
 40
1
 10
799.979350
 20
-1.870158
 30
0.0
 10
799.979350
 20
0.540725
 30
0.0
 10
801.933827
 20
2.495467
 30
0.0
 10
804.344975
 20
2.495467
 30
0.0
  0
SPLINE
  5
3ac
100
AcDbEntity
  8
0
 62
7
100
AcDbSpline
 70
8
 71
3
 72
8
 73
4
 74
0
 40
0
 40
0
 40
0
 40
0
 40
1
 40
1
 40
1
 40
1
 10
804.344975
 20
2.495467
 30
0.0
 10
806.756123
 20
2.495467
 30
0.0
 10
808.710600
 20
0.540725
 30
0.0
 10
808.710600
 20
-1.870158
 30
0.0
  0
SPLINE
  5
3ad
100
AcDbEntity
  8
0
 62
7
100
AcDbSpline
 70
8
 71
3
 72
8
 73
4
 74
0
 40
0
 40
0
 40
0
 40
0
 40
1
 40
1
 40
1
 40
1
 10
411.823958
 20
160.725825
 30
0.0
 10
411.823958
 20
158.314942
 30
0.0
 10
409.869481
 20
156.360200
 30
0.0
 10
407.458333
 20
156.360200
 30
0.0
  0
SPLINE
  5
3ae
100
AcDbEntity
  8
0
 62
7
100
AcDbSpline
 70
8
 71
3
 72
8
 73
4
 74
0
 40
0
 40
0
 40
0
 40
0
 40
1
 40
1
 40
1
 40
1
 10
407.458333
 20
156.360200
 30
0.0
 10
405.047185
 20
156.360200
 30
0.0
 10
403.092708
 20
158.314942
 30
0.0
 10
403.092708
 20
160.725825
 30
0.0
  0
SPLINE
  5
3af
100
AcDbEntity
  8
0
 62
7
100
AcDbSpline
 70
8
 71
3
 72
8
 73
4
 74
0
 40
0
 40
0
 40
0
 40
0
 40
1
 40
1
 40
1
 40
1
 10
403.092708
 20
160.725825
 30
0.0
 10
403.092708
 20
163.136973
 30
0.0
 10
405.047185
 20
165.091450
 30
0.0
 10
407.458333
 20
165.091450
 30
0.0
  0
SPLINE
  5
3b0
100
AcDbEntity
  8
0
 62
7
100
AcDbSpline
 70
8
 71
3
 72
8
 73
4
 74
0
 40
0
 40
0
 40
0
 40
0
 40
1
 40
1
 40
1
 40
1
 10
407.458333
 20
165.091450
 30
0.0
 10
409.869481
 20
165.091450
 30
0.0
 10
411.823958
 20
163.136973
 30
0.0
 10
411.823958
 20
160.725825
 30
0.0
  0
SPLINE
  5
3b1
100
AcDbEntity
  8
0
 62
7
100
AcDbSpline
 70
8
 71
3
 72
8
 73
4
 74
0
 40
0
 40
0
 40
0
 40
0
 40
1
 40
1
 40
1
 40
1
 10
708.157292
 20
160.725825
 30
0.0
 10
708.157292
 20
158.314942
 30
0.0
 10
706.202815
 20
156.360200
 30
0.0
 10
703.791667
 20
156.360200
 30
0.0
  0
SPLINE
  5
3b2
100
AcDbEntity
  8
0
 62
7
100
AcDbSpline
 70
8
 71
3
 72
8
 73
4
 74
0
 40
0
 40
0
 40
0
 40
0
 40
1
 40
1
 40
1
 40
1
 10
703.791667
 20
156.360200
 30
0.0
 10
701.380519
 20
156.360200
 30
0.0
 10
699.426042
 20
158.314942
 30
0.0
 10
699.426042
 20
160.725825
 30
0.0
  0
SPLINE
  5
3b3
100
AcDbEntity
  8
0
 62
7
100
AcDbSpline
 70
8
 71
3
 72
8
 73
4
 74
0
 40
0
 40
0
 40
0
 40
0
 40
1
 40
1
 40
1
 40
1
 10
699.426042
 20
160.725825
 30
0.0
 10
699.426042
 20
163.136973
 30
0.0
 10
701.380519
 20
165.091450
 30
0.0
 10
703.791667
 20
165.091450
 30
0.0
  0
SPLINE
  5
3b4
100
AcDbEntity
  8
0
 62
7
100
AcDbSpline
 70
8
 71
3
 72
8
 73
4
 74
0
 40
0
 40
0
 40
0
 40
0
 40
1
 40
1
 40
1
 40
1
 10
703.791667
 20
165.091450
 30
0.0
 10
706.202815
 20
165.091450
 30
0.0
 10
708.157292
 20
163.136973
 30
0.0
 10
708.157292
 20
160.725825
 30
0.0
  0
ENDSEC
  0
SECTION
  2
OBJECTS
  0
DICTIONARY
  5
C
330
0
100
AcDbDictionary
  3
ACAD_GROUP
350
D
  3
ACAD_MLINESTYLE
350
17
  0
DICTIONARY
  5
D
330
C
100
AcDbDictionary
  0
DICTIONARY
  5
1A
330
C
100
AcDbDictionary
  0
DICTIONARY
  5
17
330
C
100
AcDbDictionary
  3
STANDARD
350
18
  0
DICTIONARY
  5
19
330
C
100
AcDbDictionary
  0
ENDSEC
  0
EOF
