<?xml version="1.0" encoding="UTF-8" standalone="no"?>
<svg
   xmlns:dc="http://purl.org/dc/elements/1.1/"
   xmlns:cc="http://creativecommons.org/ns#"
   xmlns:rdf="http://www.w3.org/1999/02/22-rdf-syntax-ns#"
   xmlns:svg="http://www.w3.org/2000/svg"
   xmlns="http://www.w3.org/2000/svg"
   xmlns:sodipodi="http://sodipodi.sourceforge.net/DTD/sodipodi-0.dtd"
   xmlns:inkscape="http://www.inkscape.org/namespaces/inkscape"
   width="420mm"
   height="297mm"
   viewBox="0 0 4200 2970"
   version="1.2"
   id="svg2732"
   sodipodi:docname="center_base.svg"
   inkscape:version="0.92.2 (5c3e80d, 2017-08-06)">
  <metadata
     id="metadata2736">
    <rdf:RDF>
      <cc:Work
         rdf:about="">
        <dc:format>image/svg+xml</dc:format>
        <dc:type
           rdf:resource="http://purl.org/dc/dcmitype/StillImage" />
      </cc:Work>
    </rdf:RDF>
  </metadata>
  <sodipodi:namedview
     pagecolor="#ffffff"
     bordercolor="#666666"
     borderopacity="1"
     objecttolerance="10"
     gridtolerance="10"
     guidetolerance="10"
     inkscape:pageopacity="0"
     inkscape:pageshadow="2"
     inkscape:window-width="1920"
     inkscape:window-height="1015"
     id="namedview2734"
     showgrid="false"
     inkscape:zoom="0.58442937"
     inkscape:cx="622.94123"
     inkscape:cy="661.24823"
     inkscape:window-x="0"
     inkscape:window-y="0"
     inkscape:window-maximized="1"
     inkscape:current-layer="svg2732" />
  <title
     id="title2">FreeCAD SVG Export</title>
  <desc
     id="desc4">Drawing page: Page005 exported from FreeCAD document: mounting_sun</desc>
  <defs
     id="defs6" />
  <path
     d="m 3300,1485 c 0,662.742 -537.258,1200 -1200,1200 -662.742,0 -1200,-537.258 -1200,-1200 0,-662.742 537.258,-1200 1200,-1200 662.742,0 1200,537.258 1200,1200"
     id="path50"
     inkscape:connector-curvature="0"
     style="font-style:normal;font-weight:400;font-size:medium;font-family:'Sans Serif';vector-effect:non-scaling-stroke;fill:#ffffff;fill-opacity:1;fill-rule:evenodd;stroke:#000000;stroke-width:1;stroke-linecap:square;stroke-linejoin:bevel;stroke-opacity:1" />
  <path
     d="m 1580.676,2118.093 c -32.277,-11.748 -68.449,-3.175 -92.02,21.809 -23.571,24.984 -30.026,61.593 -16.421,93.132 13.604,31.539 44.662,51.966 79.011,51.966 h 1097.508 c 34.349,0 65.407,-20.427 79.011,-51.966 13.605,-31.539 7.15,-68.148 -16.421,-93.132 -23.571,-24.984 -59.743,-33.557 -92.02,-21.809 -22.684,8.256 -48.107,1.189 -63.276,-17.59 -15.169,-18.778 -16.732,-45.119 -3.89,-65.56 12.842,-20.44 37.251,-30.464 60.752,-24.948 14.238,3.341 29.13,-1.784 38.295,-13.181 9.165,-11.397 10.977,-27.042 4.658,-40.232 -6.318,-13.189 -19.645,-21.582 -34.27,-21.582 h -243.186 c -14.625,0 -27.952,8.393 -34.27,21.582 -6.319,13.19 -4.507,28.835 4.658,40.232 9.165,11.397 24.057,16.522 38.295,13.181 21.17,-4.969 43.312,2.652 56.939,19.598 13.627,16.945 16.32,40.207 6.926,59.817 -9.395,19.611 -29.21,32.09 -50.955,32.09 h -200 c -21.7449,0 -41.5601,-12.479 -50.9547,-32.09 -9.3947,-19.61 -6.7015,-42.872 6.9256,-59.817 13.6271,-16.946 35.7695,-24.567 56.9391,-19.598 14.238,3.341 29.13,-1.784 38.295,-13.181 9.165,-11.397 10.977,-27.042 4.658,-40.232 -6.318,-13.189 -19.645,-21.582 -34.27,-21.582 h -243.186 c -14.625,0 -27.952,8.393 -34.27,21.582 -6.319,13.19 -4.507,28.835 4.658,40.232 9.165,11.397 24.057,16.522 38.295,13.181 21.1696,-4.969 43.312,2.652 56.9391,19.598 13.6271,16.945 16.3203,40.207 6.9256,59.817 -9.3946,19.611 -29.2098,32.09 -50.9547,32.09 h -200 c -21.745,0 -41.56,-12.479 -50.955,-32.09 -9.394,-19.61 -6.701,-42.872 6.926,-59.817 13.627,-16.946 35.769,-24.567 56.939,-19.598 14.238,3.341 29.13,-1.784 38.295,-13.181 9.165,-11.397 10.977,-27.042 4.658,-40.232 -6.318,-13.189 -19.645,-21.582 -34.27,-21.582 h -243.186 c -14.625,0 -27.952,8.393 -34.27,21.582 -6.319,13.19 -4.507,28.835 4.658,40.232 9.165,11.397 24.057,16.522 38.295,13.181 23.501,-5.516 47.91,4.508 60.752,24.948 12.842,20.441 11.279,46.782 -3.89,65.56 -15.169,18.779 -40.592,25.846 -63.276,17.59"
     id="path66"
     inkscape:connector-curvature="0"
     style="font-style:normal;font-weight:400;font-size:medium;font-family:'Sans Serif';vector-effect:non-scaling-stroke;fill:#ffffff;fill-opacity:1;fill-rule:evenodd;stroke:#000000;stroke-width:1;stroke-linecap:square;stroke-linejoin:bevel;stroke-opacity:1" />
  <path
     d="m 1580.676,918.093 c -32.277,-11.748 -68.449,-3.175 -92.02,21.809 -23.571,24.984 -30.026,61.593 -16.421,93.132 13.604,31.539 44.662,51.966 79.011,51.966 h 1097.508 c 34.349,0 65.407,-20.427 79.011,-51.966 13.605,-31.539 7.15,-68.148 -16.421,-93.132 -23.571,-24.984 -59.743,-33.557 -92.02,-21.809 -22.684,8.256 -48.107,1.189 -63.276,-17.59 -15.169,-18.778 -16.732,-45.119 -3.89,-65.56 12.842,-20.44 37.251,-30.464 60.752,-24.948 14.238,3.341 29.13,-1.784 38.295,-13.181 9.165,-11.397 10.977,-27.042 4.658,-40.232 C 2649.545,743.393 2636.218,735 2621.593,735 h -243.186 c -14.625,0 -27.952,8.393 -34.27,21.582 -6.319,13.19 -4.507,28.835 4.658,40.232 9.165,11.397 24.057,16.522 38.295,13.181 21.17,-4.969 43.312,2.652 56.939,19.598 13.627,16.945 16.32,40.207 6.926,59.817 -9.395,19.611 -29.21,32.09 -50.955,32.09 h -200 c -21.7449,0 -41.5601,-12.479 -50.9547,-32.09 -9.3947,-19.61 -6.7015,-42.872 6.9256,-59.817 13.6271,-16.946 35.7695,-24.567 56.9391,-19.598 14.238,3.341 29.13,-1.784 38.295,-13.181 9.165,-11.397 10.977,-27.042 4.658,-40.232 C 2249.545,743.393 2236.218,735 2221.593,735 h -243.186 c -14.625,0 -27.952,8.393 -34.27,21.582 -6.319,13.19 -4.507,28.835 4.658,40.232 9.165,11.397 24.057,16.522 38.295,13.181 21.1696,-4.969 43.312,2.652 56.9391,19.598 13.6271,16.945 16.3203,40.207 6.9256,59.817 -9.3946,19.611 -29.2098,32.09 -50.9547,32.09 h -200 c -21.745,0 -41.56,-12.479 -50.955,-32.09 -9.394,-19.61 -6.701,-42.872 6.926,-59.817 13.627,-16.946 35.769,-24.567 56.939,-19.598 14.238,3.341 29.13,-1.784 38.295,-13.181 9.165,-11.397 10.977,-27.042 4.658,-40.232 C 1849.545,743.393 1836.218,735 1821.593,735 h -243.186 c -14.625,0 -27.952,8.393 -34.27,21.582 -6.319,13.19 -4.507,28.835 4.658,40.232 9.165,11.397 24.057,16.522 38.295,13.181 23.501,-5.516 47.91,4.508 60.752,24.948 12.842,20.441 11.279,46.782 -3.89,65.56 -15.169,18.779 -40.592,25.846 -63.276,17.59"
     id="path82"
     inkscape:connector-curvature="0"
     style="font-style:normal;font-weight:400;font-size:medium;font-family:'Sans Serif';vector-effect:non-scaling-stroke;fill:#ffffff;fill-opacity:1;fill-rule:evenodd;stroke:#000000;stroke-width:1;stroke-linecap:square;stroke-linejoin:bevel;stroke-opacity:1" />
  <path
     d="m 2819.324,1718.093 c 32.277,-11.748 68.449,-3.175 92.02,21.809 23.571,24.984 30.026,61.593 16.421,93.132 -13.604,31.539 -44.662,51.966 -79.011,51.966 H 2160 c -11.0457,0 -20,-8.954 -20,-20 v -134.791 c 0,-7.24 3.9133,-13.915 10.2314,-17.452 6.3181,-3.536 14.0542,-3.382 20.2261,0.404 21.7703,13.354 49.7925,10.443 68.3525,-7.1 18.561,-17.543 23.045,-45.357 10.938,-67.845 -12.107,-22.487 -37.794,-34.057 -62.658,-28.221 -14.238,3.341 -29.1302,-1.784 -38.2953,-13.181 -9.1651,-11.397 -10.9765,-27.0421 -4.658,-40.2316 6.3186,-13.1895 19.6456,-21.5824 34.2705,-21.5824 h 243.1858 c 14.625,0 27.952,8.3929 34.27,21.5824 6.319,13.1895 4.507,28.8346 -4.658,40.2316 -9.165,11.397 -24.057,16.522 -38.295,13.181 -21.17,-4.969 -43.312,2.652 -56.939,19.598 -13.627,16.945 -16.32,40.207 -6.926,59.817 9.395,19.611 29.21,32.09 50.955,32.09 h 200 c 21.745,0 41.56,-12.479 50.955,-32.09 9.394,-19.61 6.701,-42.872 -6.926,-59.817 -13.627,-16.946 -35.769,-24.567 -56.939,-19.598 -14.238,3.341 -29.13,-1.784 -38.295,-13.181 -9.165,-11.397 -10.977,-27.0421 -4.658,-40.2316 6.318,-13.1895 19.645,-21.5824 34.27,-21.5824 h 243.186 c 14.625,0 27.952,8.3929 34.27,21.5824 6.319,13.1895 4.507,28.8346 -4.658,40.2316 -9.165,11.397 -24.057,16.522 -38.295,13.181 -23.501,-5.516 -47.91,4.508 -60.752,24.948 -12.842,20.441 -11.279,46.782 3.89,65.56 15.169,18.779 40.592,25.846 63.276,17.59"
     id="path98"
     inkscape:connector-curvature="0"
     style="font-style:normal;font-weight:400;font-size:medium;font-family:'Sans Serif';vector-effect:non-scaling-stroke;fill:#ffffff;fill-opacity:1;fill-rule:evenodd;stroke:#000000;stroke-width:1;stroke-linecap:square;stroke-linejoin:bevel;stroke-opacity:1" />
  <path
     d="M 2060,1330.209 V 1465 c 0,11.0457 -8.9543,20 -20,20 h -688.754 c -34.349,0 -65.407,-20.4272 -79.011,-51.9663 -13.605,-31.5392 -7.15,-68.1477 16.421,-93.1317 23.571,-24.984 59.743,-33.557 92.02,-21.809 22.684,8.256 48.107,1.189 63.276,-17.59 15.169,-18.778 16.732,-45.119 3.89,-65.56 -12.842,-20.44 -37.251,-30.464 -60.752,-24.948 -14.238,3.341 -29.13,-1.784 -38.295,-13.181 -9.165,-11.397 -10.977,-27.042 -4.658,-40.232 6.318,-13.189 19.645,-21.582 34.27,-21.582 h 243.186 c 14.625,0 27.952,8.393 34.27,21.582 6.319,13.19 4.507,28.835 -4.658,40.232 -9.165,11.397 -24.057,16.522 -38.295,13.181 -21.17,-4.969 -43.312,2.652 -56.939,19.598 -13.627,16.945 -16.32,40.207 -6.926,59.817 9.395,19.611 29.21,32.09 50.955,32.09 h 200 c 21.745,0 41.56,-12.479 50.955,-32.09 9.394,-19.61 6.701,-42.872 -6.926,-59.817 -13.627,-16.946 -35.769,-24.567 -56.939,-19.598 -14.238,3.341 -29.13,-1.784 -38.295,-13.181 -9.165,-11.397 -10.977,-27.042 -4.658,-40.232 6.318,-13.189 19.645,-21.582 34.27,-21.582 h 243.1858 c 14.6249,0 27.9519,8.393 34.2705,21.582 6.3185,13.19 4.5071,28.835 -4.658,40.232 -9.1651,11.397 -24.0573,16.522 -38.2953,13.181 -24.864,-5.836 -50.551,5.734 -62.658,28.221 -12.107,22.488 -7.623,50.302 10.938,67.845 18.56,17.543 46.5822,20.454 68.3525,7.1 6.1719,-3.786 13.908,-3.94 20.2261,-0.404 6.3181,3.537 10.2314,10.212 10.2314,17.452"
     id="path114"
     inkscape:connector-curvature="0"
     style="font-style:normal;font-weight:400;font-size:medium;font-family:'Sans Serif';vector-effect:non-scaling-stroke;fill:#ffffff;fill-opacity:1;fill-rule:evenodd;stroke:#000000;stroke-width:1;stroke-linecap:square;stroke-linejoin:bevel;stroke-opacity:1" />
  <path
     d="M 2060,1730.209 V 1865 c 0,11.046 -8.9543,20 -20,20 h -688.754 c -34.349,0 -65.407,-20.427 -79.011,-51.966 -13.605,-31.539 -7.15,-68.148 16.421,-93.132 23.571,-24.984 59.743,-33.557 92.02,-21.809 22.684,8.256 48.107,1.189 63.276,-17.59 15.169,-18.778 16.732,-45.119 3.89,-65.56 -12.842,-20.44 -37.251,-30.464 -60.752,-24.948 -14.238,3.341 -29.13,-1.784 -38.295,-13.181 -9.165,-11.397 -10.977,-27.0421 -4.658,-40.2316 6.318,-13.1895 19.645,-21.5824 34.27,-21.5824 h 243.186 c 14.625,0 27.952,8.3929 34.27,21.5824 6.319,13.1895 4.507,28.8346 -4.658,40.2316 -9.165,11.397 -24.057,16.522 -38.295,13.181 -21.17,-4.969 -43.312,2.652 -56.939,19.598 -13.627,16.945 -16.32,40.207 -6.926,59.817 9.395,19.611 29.21,32.09 50.955,32.09 h 200 c 21.745,0 41.56,-12.479 50.955,-32.09 9.394,-19.61 6.701,-42.872 -6.926,-59.817 -13.627,-16.946 -35.769,-24.567 -56.939,-19.598 -14.238,3.341 -29.13,-1.784 -38.295,-13.181 -9.165,-11.397 -10.977,-27.0421 -4.658,-40.2316 6.318,-13.1895 19.645,-21.5824 34.27,-21.5824 h 243.1858 c 14.6249,0 27.9519,8.3929 34.2705,21.5824 6.3185,13.1895 4.5071,28.8346 -4.658,40.2316 -9.1651,11.397 -24.0573,16.522 -38.2953,13.181 -24.864,-5.836 -50.551,5.734 -62.658,28.221 -12.107,22.488 -7.623,50.302 10.938,67.845 18.56,17.543 46.5822,20.454 68.3525,7.1 6.1719,-3.786 13.908,-3.94 20.2261,-0.404 6.3181,3.537 10.2314,10.212 10.2314,17.452"
     id="path130"
     inkscape:connector-curvature="0"
     style="font-style:normal;font-weight:400;font-size:medium;font-family:'Sans Serif';vector-effect:non-scaling-stroke;fill:#ffffff;fill-opacity:1;fill-rule:evenodd;stroke:#000000;stroke-width:1;stroke-linecap:square;stroke-linejoin:bevel;stroke-opacity:1" />
  <path
     d="m 2819.324,1318.093 c 32.277,-11.748 68.449,-3.175 92.02,21.809 23.571,24.984 30.026,61.5925 16.421,93.1317 -13.604,31.5391 -44.662,51.9663 -79.011,51.9663 H 2160 c -11.0457,0 -20,-8.9543 -20,-20 v -134.791 c 0,-7.24 3.9133,-13.915 10.2314,-17.452 6.3181,-3.536 14.0542,-3.382 20.2261,0.404 21.7703,13.354 49.7925,10.443 68.3525,-7.1 18.561,-17.543 23.045,-45.357 10.938,-67.845 -12.107,-22.487 -37.794,-34.057 -62.658,-28.221 -14.238,3.341 -29.1302,-1.784 -38.2953,-13.181 -9.1651,-11.397 -10.9765,-27.042 -4.658,-40.232 6.3186,-13.189 19.6456,-21.582 34.2705,-21.582 h 243.1858 c 14.625,0 27.952,8.393 34.27,21.582 6.319,13.19 4.507,28.835 -4.658,40.232 -9.165,11.397 -24.057,16.522 -38.295,13.181 -21.17,-4.969 -43.312,2.652 -56.939,19.598 -13.627,16.945 -16.32,40.207 -6.926,59.817 9.395,19.611 29.21,32.09 50.955,32.09 h 200 c 21.745,0 41.56,-12.479 50.955,-32.09 9.394,-19.61 6.701,-42.872 -6.926,-59.817 -13.627,-16.946 -35.769,-24.567 -56.939,-19.598 -14.238,3.341 -29.13,-1.784 -38.295,-13.181 -9.165,-11.397 -10.977,-27.042 -4.658,-40.232 6.318,-13.189 19.645,-21.582 34.27,-21.582 h 243.186 c 14.625,0 27.952,8.393 34.27,21.582 6.319,13.19 4.507,28.835 -4.658,40.232 -9.165,11.397 -24.057,16.522 -38.295,13.181 -23.501,-5.516 -47.91,4.508 -60.752,24.948 -12.842,20.441 -11.279,46.782 3.89,65.56 15.169,18.779 40.592,25.846 63.276,17.59"
     id="path146"
     inkscape:connector-curvature="0"
     style="font-style:normal;font-weight:400;font-size:medium;font-family:'Sans Serif';vector-effect:non-scaling-stroke;fill:#ffffff;fill-opacity:1;fill-rule:evenodd;stroke:#000000;stroke-width:1;stroke-linecap:square;stroke-linejoin:bevel;stroke-opacity:1" />
  <path
     d="m 1282.225,2235.663 v -31.754 l -27.5,-15.877 -27.5,15.877 v 31.754 l 27.5,15.877 27.5,-15.877"
     id="path162"
     inkscape:connector-curvature="0"
     style="font-style:normal;font-weight:400;font-size:medium;font-family:'Sans Serif';vector-effect:non-scaling-stroke;fill:#ffffff;fill-opacity:1;fill-rule:evenodd;stroke:#000000;stroke-width:1;stroke-linecap:square;stroke-linejoin:bevel;stroke-opacity:1" />
  <path
     d="m 1068.52,1136.241 v -31.754 l -27.5,-15.878 -27.5,15.878 v 31.754 l 27.5,15.877 27.5,-15.877"
     id="path178"
     inkscape:connector-curvature="0"
     style="font-style:normal;font-weight:400;font-size:medium;font-family:'Sans Serif';vector-effect:non-scaling-stroke;fill:#ffffff;fill-opacity:1;fill-rule:evenodd;stroke:#000000;stroke-width:1;stroke-linecap:square;stroke-linejoin:bevel;stroke-opacity:1" />
  <path
     d="m 1282.225,766.091 v -31.754 l -27.5,-15.877 -27.5,15.877 v 31.754 l 27.5,15.877 27.5,-15.877"
     id="path194"
     inkscape:connector-curvature="0"
     style="font-style:normal;font-weight:400;font-size:medium;font-family:'Sans Serif';vector-effect:non-scaling-stroke;fill:#ffffff;fill-opacity:1;fill-rule:evenodd;stroke:#000000;stroke-width:1;stroke-linecap:square;stroke-linejoin:bevel;stroke-opacity:1" />
  <path
     d="M 2341.206,401.45 V 369.7 l -27.5,-15.88 -27.5,15.88 v 31.75 l 27.5,15.88 27.5,-15.88"
     id="path210"
     inkscape:connector-curvature="0"
     style="font-style:normal;font-weight:400;font-size:medium;font-family:'Sans Serif';vector-effect:non-scaling-stroke;fill:#ffffff;fill-opacity:1;fill-rule:evenodd;stroke:#000000;stroke-width:1;stroke-linecap:square;stroke-linejoin:bevel;stroke-opacity:1" />
  <path
     d="m 2972.775,766.091 v -31.754 l -27.5,-15.877 -27.5,15.877 v 31.754 l 27.5,15.877 27.5,-15.877"
     id="path226"
     inkscape:connector-curvature="0"
     style="font-style:normal;font-weight:400;font-size:medium;font-family:'Sans Serif';vector-effect:non-scaling-stroke;fill:#ffffff;fill-opacity:1;fill-rule:evenodd;stroke:#000000;stroke-width:1;stroke-linecap:square;stroke-linejoin:bevel;stroke-opacity:1" />
  <path
     d="m 1913.794,2600.3 v -31.75 l -27.5,-15.88 -27.5,15.88 v 31.75 l 27.5,15.88 27.5,-15.88"
     id="path242"
     inkscape:connector-curvature="0"
     style="font-style:normal;font-weight:400;font-size:medium;font-family:'Sans Serif';vector-effect:non-scaling-stroke;fill:#ffffff;fill-opacity:1;fill-rule:evenodd;stroke:#000000;stroke-width:1;stroke-linecap:square;stroke-linejoin:bevel;stroke-opacity:1" />
  <path
     d="m 3186.48,1136.241 v -31.754 l -27.5,-15.878 -27.5,15.878 v 31.754 l 27.5,15.877 27.5,-15.877"
     id="path258"
     inkscape:connector-curvature="0"
     style="font-style:normal;font-weight:400;font-size:medium;font-family:'Sans Serif';vector-effect:non-scaling-stroke;fill:#ffffff;fill-opacity:1;fill-rule:evenodd;stroke:#000000;stroke-width:1;stroke-linecap:square;stroke-linejoin:bevel;stroke-opacity:1" />
  <path
     d="m 2341.206,2600.3 v -31.75 l -27.5,-15.88 -27.5,15.88 v 31.75 l 27.5,15.88 27.5,-15.88"
     id="path274"
     inkscape:connector-curvature="0"
     style="font-style:normal;font-weight:400;font-size:medium;font-family:'Sans Serif';vector-effect:non-scaling-stroke;fill:#ffffff;fill-opacity:1;fill-rule:evenodd;stroke:#000000;stroke-width:1;stroke-linecap:square;stroke-linejoin:bevel;stroke-opacity:1" />
  <path
     d="m 1068.52,1865.513 v -31.754 l -27.5,-15.877 -27.5,15.877 v 31.754 l 27.5,15.878 27.5,-15.878"
     id="path290"
     inkscape:connector-curvature="0"
     style="font-style:normal;font-weight:400;font-size:medium;font-family:'Sans Serif';vector-effect:non-scaling-stroke;fill:#ffffff;fill-opacity:1;fill-rule:evenodd;stroke:#000000;stroke-width:1;stroke-linecap:square;stroke-linejoin:bevel;stroke-opacity:1" />
  <path
     d="M 1913.794,401.45 V 369.7 l -27.5,-15.88 -27.5,15.88 v 31.75 l 27.5,15.88 27.5,-15.88"
     id="path306"
     inkscape:connector-curvature="0"
     style="font-style:normal;font-weight:400;font-size:medium;font-family:'Sans Serif';vector-effect:non-scaling-stroke;fill:#ffffff;fill-opacity:1;fill-rule:evenodd;stroke:#000000;stroke-width:1;stroke-linecap:square;stroke-linejoin:bevel;stroke-opacity:1" />
  <path
     d="m 2972.775,2235.663 v -31.754 l -27.5,-15.877 -27.5,15.877 v 31.754 l 27.5,15.877 27.5,-15.877"
     id="path322"
     inkscape:connector-curvature="0"
     style="font-style:normal;font-weight:400;font-size:medium;font-family:'Sans Serif';vector-effect:non-scaling-stroke;fill:#ffffff;fill-opacity:1;fill-rule:evenodd;stroke:#000000;stroke-width:1;stroke-linecap:square;stroke-linejoin:bevel;stroke-opacity:1" />
  <path
     d="m 3186.48,1865.513 v -31.754 l -27.5,-15.877 -27.5,15.877 v 31.754 l 27.5,15.878 27.5,-15.878"
     id="path338"
     inkscape:connector-curvature="0"
     style="font-style:normal;font-weight:400;font-size:medium;font-family:'Sans Serif';vector-effect:non-scaling-stroke;fill:#ffffff;fill-opacity:1;fill-rule:evenodd;stroke:#000000;stroke-width:1;stroke-linecap:square;stroke-linejoin:bevel;stroke-opacity:1" />
  <path
     d="m 3103.77,2055 c 0,9.113 -7.388,16.5 -16.501,16.5 -9.113,0 -16.5,-7.387 -16.5,-16.5 0,-9.113 7.387,-16.5 16.5,-16.5 9.113,0 16.501,7.387 16.501,16.5"
     id="path354"
     inkscape:connector-curvature="0"
     style="font-style:normal;font-weight:400;font-size:medium;font-family:'Sans Serif';vector-effect:non-scaling-stroke;fill:#ffffff;fill-opacity:1;fill-rule:evenodd;stroke:#000000;stroke-width:1;stroke-linecap:square;stroke-linejoin:bevel;stroke-opacity:1" />
  <path
     d="m 1129.231,2055 c 0,9.113 -7.387,16.5 -16.5,16.5 -9.113,0 -16.501,-7.387 -16.501,-16.5 0,-9.113 7.388,-16.5 16.501,-16.5 9.113,0 16.5,7.387 16.5,16.5"
     id="path370"
     inkscape:connector-curvature="0"
     style="font-style:normal;font-weight:400;font-size:medium;font-family:'Sans Serif';vector-effect:non-scaling-stroke;fill:#ffffff;fill-opacity:1;fill-rule:evenodd;stroke:#000000;stroke-width:1;stroke-linecap:square;stroke-linejoin:bevel;stroke-opacity:1" />
  <path
     d="m 1556.5,515.052 c 0,9.112 -7.387,16.5 -16.5,16.5 -9.113,0 -16.5,-7.388 -16.5,-16.5 0,-9.113 7.387,-16.5 16.5,-16.5 9.113,0 16.5,7.387 16.5,16.5"
     id="path386"
     inkscape:connector-curvature="0"
     style="font-style:normal;font-weight:400;font-size:medium;font-family:'Sans Serif';vector-effect:non-scaling-stroke;fill:#ffffff;fill-opacity:1;fill-rule:evenodd;stroke:#000000;stroke-width:1;stroke-linecap:square;stroke-linejoin:bevel;stroke-opacity:1" />
  <path
     d="m 1616.5,865 c 0,9.113 -7.387,16.5 -16.5,16.5 -9.113,0 -16.5,-7.387 -16.5,-16.5 0,-9.113 7.387,-16.5 16.5,-16.5 9.113,0 16.5,7.387 16.5,16.5"
     id="path402"
     inkscape:connector-curvature="0"
     style="font-style:normal;font-weight:400;font-size:medium;font-family:'Sans Serif';vector-effect:non-scaling-stroke;fill:#ffffff;fill-opacity:1;fill-rule:evenodd;stroke:#000000;stroke-width:1;stroke-linecap:square;stroke-linejoin:bevel;stroke-opacity:1" />
  <path
     d="m 1816.5,865 c 0,9.113 -7.387,16.5 -16.5,16.5 -9.113,0 -16.5,-7.387 -16.5,-16.5 0,-9.113 7.387,-16.5 16.5,-16.5 9.113,0 16.5,7.387 16.5,16.5"
     id="path418"
     inkscape:connector-curvature="0"
     style="font-style:normal;font-weight:400;font-size:medium;font-family:'Sans Serif';vector-effect:non-scaling-stroke;fill:#ffffff;fill-opacity:1;fill-rule:evenodd;stroke:#000000;stroke-width:1;stroke-linecap:square;stroke-linejoin:bevel;stroke-opacity:1" />
  <path
     d="m 2676.5,515.052 c 0,9.112 -7.387,16.5 -16.5,16.5 -9.113,0 -16.5,-7.388 -16.5,-16.5 0,-9.113 7.387,-16.5 16.5,-16.5 9.113,0 16.5,7.387 16.5,16.5"
     id="path434"
     inkscape:connector-curvature="0"
     style="font-style:normal;font-weight:400;font-size:medium;font-family:'Sans Serif';vector-effect:non-scaling-stroke;fill:#ffffff;fill-opacity:1;fill-rule:evenodd;stroke:#000000;stroke-width:1;stroke-linecap:square;stroke-linejoin:bevel;stroke-opacity:1" />
  <path
     d="m 2416.5,1665 c 0,9.113 -7.387,16.5 -16.5,16.5 -9.113,0 -16.5,-7.387 -16.5,-16.5 0,-9.113 7.387,-16.5 16.5,-16.5 9.113,0 16.5,7.387 16.5,16.5"
     id="path450"
     inkscape:connector-curvature="0"
     style="font-style:normal;font-weight:400;font-size:medium;font-family:'Sans Serif';vector-effect:non-scaling-stroke;fill:#ffffff;fill-opacity:1;fill-rule:evenodd;stroke:#000000;stroke-width:1;stroke-linecap:square;stroke-linejoin:bevel;stroke-opacity:1" />
  <path
     d="m 1616.5,2065 c 0,9.113 -7.387,16.5 -16.5,16.5 -9.113,0 -16.5,-7.387 -16.5,-16.5 0,-9.113 7.387,-16.5 16.5,-16.5 9.113,0 16.5,7.387 16.5,16.5"
     id="path466"
     inkscape:connector-curvature="0"
     style="font-style:normal;font-weight:400;font-size:medium;font-family:'Sans Serif';vector-effect:non-scaling-stroke;fill:#ffffff;fill-opacity:1;fill-rule:evenodd;stroke:#000000;stroke-width:1;stroke-linecap:square;stroke-linejoin:bevel;stroke-opacity:1" />
  <path
     d="m 2216.5,865 c 0,9.113 -7.387,16.5 -16.5,16.5 -9.1127,0 -16.5,-7.387 -16.5,-16.5 0,-9.113 7.3873,-16.5 16.5,-16.5 9.113,0 16.5,7.387 16.5,16.5"
     id="path482"
     inkscape:connector-curvature="0"
     style="font-style:normal;font-weight:400;font-size:medium;font-family:'Sans Serif';vector-effect:non-scaling-stroke;fill:#ffffff;fill-opacity:1;fill-rule:evenodd;stroke:#000000;stroke-width:1;stroke-linecap:square;stroke-linejoin:bevel;stroke-opacity:1" />
  <path
     d="m 3103.77,915 c 0,9.113 -7.388,16.5 -16.501,16.5 -9.113,0 -16.5,-7.387 -16.5,-16.5 0,-9.113 7.387,-16.5 16.5,-16.5 9.113,0 16.501,7.387 16.501,16.5"
     id="path498"
     inkscape:connector-curvature="0"
     style="font-style:normal;font-weight:400;font-size:medium;font-family:'Sans Serif';vector-effect:non-scaling-stroke;fill:#ffffff;fill-opacity:1;fill-rule:evenodd;stroke:#000000;stroke-width:1;stroke-linecap:square;stroke-linejoin:bevel;stroke-opacity:1" />
  <path
     d="m 1616.5,1665 c 0,9.113 -7.387,16.5 -16.5,16.5 -9.113,0 -16.5,-7.387 -16.5,-16.5 0,-9.113 7.387,-16.5 16.5,-16.5 9.113,0 16.5,7.387 16.5,16.5"
     id="path514"
     inkscape:connector-curvature="0"
     style="font-style:normal;font-weight:400;font-size:medium;font-family:'Sans Serif';vector-effect:non-scaling-stroke;fill:#ffffff;fill-opacity:1;fill-rule:evenodd;stroke:#000000;stroke-width:1;stroke-linecap:square;stroke-linejoin:bevel;stroke-opacity:1" />
  <path
     d="m 1816.5,1665 c 0,9.113 -7.387,16.5 -16.5,16.5 -9.113,0 -16.5,-7.387 -16.5,-16.5 0,-9.113 7.387,-16.5 16.5,-16.5 9.113,0 16.5,7.387 16.5,16.5"
     id="path530"
     inkscape:connector-curvature="0"
     style="font-style:normal;font-weight:400;font-size:medium;font-family:'Sans Serif';vector-effect:non-scaling-stroke;fill:#ffffff;fill-opacity:1;fill-rule:evenodd;stroke:#000000;stroke-width:1;stroke-linecap:square;stroke-linejoin:bevel;stroke-opacity:1" />
  <path
     d="m 2216.5,2065 c 0,9.113 -7.387,16.5 -16.5,16.5 -9.1127,0 -16.5,-7.387 -16.5,-16.5 0,-9.113 7.3873,-16.5 16.5,-16.5 9.113,0 16.5,7.387 16.5,16.5"
     id="path546"
     inkscape:connector-curvature="0"
     style="font-style:normal;font-weight:400;font-size:medium;font-family:'Sans Serif';vector-effect:non-scaling-stroke;fill:#ffffff;fill-opacity:1;fill-rule:evenodd;stroke:#000000;stroke-width:1;stroke-linecap:square;stroke-linejoin:bevel;stroke-opacity:1" />
  <path
     d="m 2416.5,1265 c 0,9.113 -7.387,16.5 -16.5,16.5 -9.113,0 -16.5,-7.387 -16.5,-16.5 0,-9.113 7.387,-16.5 16.5,-16.5 9.113,0 16.5,7.387 16.5,16.5"
     id="path562"
     inkscape:connector-curvature="0"
     style="font-style:normal;font-weight:400;font-size:medium;font-family:'Sans Serif';vector-effect:non-scaling-stroke;fill:#ffffff;fill-opacity:1;fill-rule:evenodd;stroke:#000000;stroke-width:1;stroke-linecap:square;stroke-linejoin:bevel;stroke-opacity:1" />
  <path
     d="m 2676.5,2454.948 c 0,9.113 -7.387,16.5 -16.5,16.5 -9.113,0 -16.5,-7.387 -16.5,-16.5 0,-9.112 7.387,-16.5 16.5,-16.5 9.113,0 16.5,7.388 16.5,16.5"
     id="path578"
     inkscape:connector-curvature="0"
     style="font-style:normal;font-weight:400;font-size:medium;font-family:'Sans Serif';vector-effect:non-scaling-stroke;fill:#ffffff;fill-opacity:1;fill-rule:evenodd;stroke:#000000;stroke-width:1;stroke-linecap:square;stroke-linejoin:bevel;stroke-opacity:1" />
  <path
     d="m 2216.5,1665 c 0,9.113 -7.387,16.5 -16.5,16.5 -9.1127,0 -16.5,-7.387 -16.5,-16.5 0,-9.113 7.3873,-16.5 16.5,-16.5 9.113,0 16.5,7.387 16.5,16.5"
     id="path594"
     inkscape:connector-curvature="0"
     style="font-style:normal;font-weight:400;font-size:medium;font-family:'Sans Serif';vector-effect:non-scaling-stroke;fill:#ffffff;fill-opacity:1;fill-rule:evenodd;stroke:#000000;stroke-width:1;stroke-linecap:square;stroke-linejoin:bevel;stroke-opacity:1" />
  <path
     d="m 2216.5,1265 c 0,9.113 -7.387,16.5 -16.5,16.5 -9.1127,0 -16.5,-7.387 -16.5,-16.5 0,-9.113 7.3873,-16.5 16.5,-16.5 9.113,0 16.5,7.387 16.5,16.5"
     id="path610"
     inkscape:connector-curvature="0"
     style="font-style:normal;font-weight:400;font-size:medium;font-family:'Sans Serif';vector-effect:non-scaling-stroke;fill:#ffffff;fill-opacity:1;fill-rule:evenodd;stroke:#000000;stroke-width:1;stroke-linecap:square;stroke-linejoin:bevel;stroke-opacity:1" />
  <path
     d="m 3236.5,1485 c 0,9.1127 -7.39,16.5 -16.5,16.5 -9.11,0 -16.5,-7.3873 -16.5,-16.5 0,-9.1127 7.39,-16.5 16.5,-16.5 9.11,0 16.5,7.3873 16.5,16.5"
     id="path626"
     inkscape:connector-curvature="0"
     style="font-style:normal;font-weight:400;font-size:medium;font-family:'Sans Serif';vector-effect:non-scaling-stroke;fill:#ffffff;fill-opacity:1;fill-rule:evenodd;stroke:#000000;stroke-width:1;stroke-linecap:square;stroke-linejoin:bevel;stroke-opacity:1" />
  <path
     d="m 2016.5,1665 c 0,9.113 -7.3873,16.5 -16.5,16.5 -9.113,0 -16.5,-7.387 -16.5,-16.5 0,-9.113 7.387,-16.5 16.5,-16.5 9.1127,0 16.5,7.387 16.5,16.5"
     id="path642"
     inkscape:connector-curvature="0"
     style="font-style:normal;font-weight:400;font-size:medium;font-family:'Sans Serif';vector-effect:non-scaling-stroke;fill:#ffffff;fill-opacity:1;fill-rule:evenodd;stroke:#000000;stroke-width:1;stroke-linecap:square;stroke-linejoin:bevel;stroke-opacity:1" />
  <path
     d="m 1816.5,2065 c 0,9.113 -7.387,16.5 -16.5,16.5 -9.113,0 -16.5,-7.387 -16.5,-16.5 0,-9.113 7.387,-16.5 16.5,-16.5 9.113,0 16.5,7.387 16.5,16.5"
     id="path658"
     inkscape:connector-curvature="0"
     style="font-style:normal;font-weight:400;font-size:medium;font-family:'Sans Serif';vector-effect:non-scaling-stroke;fill:#ffffff;fill-opacity:1;fill-rule:evenodd;stroke:#000000;stroke-width:1;stroke-linecap:square;stroke-linejoin:bevel;stroke-opacity:1" />
  <path
     d="m 2016.5,2065 c 0,9.113 -7.3873,16.5 -16.5,16.5 -9.113,0 -16.5,-7.387 -16.5,-16.5 0,-9.113 7.387,-16.5 16.5,-16.5 9.1127,0 16.5,7.387 16.5,16.5"
     id="path674"
     inkscape:connector-curvature="0"
     style="font-style:normal;font-weight:400;font-size:medium;font-family:'Sans Serif';vector-effect:non-scaling-stroke;fill:#ffffff;fill-opacity:1;fill-rule:evenodd;stroke:#000000;stroke-width:1;stroke-linecap:square;stroke-linejoin:bevel;stroke-opacity:1" />
  <path
     d="m 996.5,1485 c 0,9.1127 -7.39,16.5 -16.5,16.5 -9.11,0 -16.5,-7.3873 -16.5,-16.5 0,-9.1127 7.39,-16.5 16.5,-16.5 9.11,0 16.5,7.3873 16.5,16.5"
     id="path690"
     inkscape:connector-curvature="0"
     style="font-style:normal;font-weight:400;font-size:medium;font-family:'Sans Serif';vector-effect:non-scaling-stroke;fill:#ffffff;fill-opacity:1;fill-rule:evenodd;stroke:#000000;stroke-width:1;stroke-linecap:square;stroke-linejoin:bevel;stroke-opacity:1" />
  <path
     d="m 2016.5,1265 c 0,9.113 -7.3873,16.5 -16.5,16.5 -9.113,0 -16.5,-7.387 -16.5,-16.5 0,-9.113 7.387,-16.5 16.5,-16.5 9.1127,0 16.5,7.387 16.5,16.5"
     id="path706"
     inkscape:connector-curvature="0"
     style="font-style:normal;font-weight:400;font-size:medium;font-family:'Sans Serif';vector-effect:non-scaling-stroke;fill:#ffffff;fill-opacity:1;fill-rule:evenodd;stroke:#000000;stroke-width:1;stroke-linecap:square;stroke-linejoin:bevel;stroke-opacity:1" />
  <path
     d="m 2116.5,2625 c 0,9.11 -7.3873,16.5 -16.5,16.5 -9.1127,0 -16.5,-7.39 -16.5,-16.5 0,-9.11 7.3873,-16.5 16.5,-16.5 9.1127,0 16.5,7.39 16.5,16.5"
     id="path722"
     inkscape:connector-curvature="0"
     style="font-style:normal;font-weight:400;font-size:medium;font-family:'Sans Serif';vector-effect:non-scaling-stroke;fill:#ffffff;fill-opacity:1;fill-rule:evenodd;stroke:#000000;stroke-width:1;stroke-linecap:square;stroke-linejoin:bevel;stroke-opacity:1" />
  <path
     d="m 2116.5,345 c 0,9.11 -7.3873,16.5 -16.5,16.5 -9.1127,0 -16.5,-7.39 -16.5,-16.5 0,-9.11 7.3873,-16.5 16.5,-16.5 9.1127,0 16.5,7.39 16.5,16.5"
     id="path738"
     inkscape:connector-curvature="0"
     style="font-style:normal;font-weight:400;font-size:medium;font-family:'Sans Serif';vector-effect:non-scaling-stroke;fill:#ffffff;fill-opacity:1;fill-rule:evenodd;stroke:#000000;stroke-width:1;stroke-linecap:square;stroke-linejoin:bevel;stroke-opacity:1" />
  <path
     d="m 2016.5,865 c 0,9.113 -7.3873,16.5 -16.5,16.5 -9.113,0 -16.5,-7.387 -16.5,-16.5 0,-9.113 7.387,-16.5 16.5,-16.5 9.1127,0 16.5,7.387 16.5,16.5"
     id="path754"
     inkscape:connector-curvature="0"
     style="font-style:normal;font-weight:400;font-size:medium;font-family:'Sans Serif';vector-effect:non-scaling-stroke;fill:#ffffff;fill-opacity:1;fill-rule:evenodd;stroke:#000000;stroke-width:1;stroke-linecap:square;stroke-linejoin:bevel;stroke-opacity:1" />
  <path
     d="m 2816.5,1265 c 0,9.113 -7.387,16.5 -16.5,16.5 -9.113,0 -16.5,-7.387 -16.5,-16.5 0,-9.113 7.387,-16.5 16.5,-16.5 9.113,0 16.5,7.387 16.5,16.5"
     id="path770"
     inkscape:connector-curvature="0"
     style="font-style:normal;font-weight:400;font-size:medium;font-family:'Sans Serif';vector-effect:non-scaling-stroke;fill:#ffffff;fill-opacity:1;fill-rule:evenodd;stroke:#000000;stroke-width:1;stroke-linecap:square;stroke-linejoin:bevel;stroke-opacity:1" />
  <path
     d="m 1416.5,1265 c 0,9.113 -7.387,16.5 -16.5,16.5 -9.113,0 -16.5,-7.387 -16.5,-16.5 0,-9.113 7.387,-16.5 16.5,-16.5 9.113,0 16.5,7.387 16.5,16.5"
     id="path786"
     inkscape:connector-curvature="0"
     style="font-style:normal;font-weight:400;font-size:medium;font-family:'Sans Serif';vector-effect:non-scaling-stroke;fill:#ffffff;fill-opacity:1;fill-rule:evenodd;stroke:#000000;stroke-width:1;stroke-linecap:square;stroke-linejoin:bevel;stroke-opacity:1" />
  <path
     d="m 2616.5,865 c 0,9.113 -7.387,16.5 -16.5,16.5 -9.113,0 -16.5,-7.387 -16.5,-16.5 0,-9.113 7.387,-16.5 16.5,-16.5 9.113,0 16.5,7.387 16.5,16.5"
     id="path802"
     inkscape:connector-curvature="0"
     style="font-style:normal;font-weight:400;font-size:medium;font-family:'Sans Serif';vector-effect:non-scaling-stroke;fill:#ffffff;fill-opacity:1;fill-rule:evenodd;stroke:#000000;stroke-width:1;stroke-linecap:square;stroke-linejoin:bevel;stroke-opacity:1" />
  <path
     d="m 2616.5,1665 c 0,9.113 -7.387,16.5 -16.5,16.5 -9.113,0 -16.5,-7.387 -16.5,-16.5 0,-9.113 7.387,-16.5 16.5,-16.5 9.113,0 16.5,7.387 16.5,16.5"
     id="path818"
     inkscape:connector-curvature="0"
     style="font-style:normal;font-weight:400;font-size:medium;font-family:'Sans Serif';vector-effect:non-scaling-stroke;fill:#ffffff;fill-opacity:1;fill-rule:evenodd;stroke:#000000;stroke-width:1;stroke-linecap:square;stroke-linejoin:bevel;stroke-opacity:1" />
  <path
     d="m 1816.5,1265 c 0,9.113 -7.387,16.5 -16.5,16.5 -9.113,0 -16.5,-7.387 -16.5,-16.5 0,-9.113 7.387,-16.5 16.5,-16.5 9.113,0 16.5,7.387 16.5,16.5"
     id="path834"
     inkscape:connector-curvature="0"
     style="font-style:normal;font-weight:400;font-size:medium;font-family:'Sans Serif';vector-effect:non-scaling-stroke;fill:#ffffff;fill-opacity:1;fill-rule:evenodd;stroke:#000000;stroke-width:1;stroke-linecap:square;stroke-linejoin:bevel;stroke-opacity:1" />
  <path
     d="m 1616.5,1265 c 0,9.113 -7.387,16.5 -16.5,16.5 -9.113,0 -16.5,-7.387 -16.5,-16.5 0,-9.113 7.387,-16.5 16.5,-16.5 9.113,0 16.5,7.387 16.5,16.5"
     id="path850"
     inkscape:connector-curvature="0"
     style="font-style:normal;font-weight:400;font-size:medium;font-family:'Sans Serif';vector-effect:non-scaling-stroke;fill:#ffffff;fill-opacity:1;fill-rule:evenodd;stroke:#000000;stroke-width:1;stroke-linecap:square;stroke-linejoin:bevel;stroke-opacity:1" />
  <path
     d="m 2616.5,1265 c 0,9.113 -7.387,16.5 -16.5,16.5 -9.113,0 -16.5,-7.387 -16.5,-16.5 0,-9.113 7.387,-16.5 16.5,-16.5 9.113,0 16.5,7.387 16.5,16.5"
     id="path866"
     inkscape:connector-curvature="0"
     style="font-style:normal;font-weight:400;font-size:medium;font-family:'Sans Serif';vector-effect:non-scaling-stroke;fill:#ffffff;fill-opacity:1;fill-rule:evenodd;stroke:#000000;stroke-width:1;stroke-linecap:square;stroke-linejoin:bevel;stroke-opacity:1" />
  <path
     d="m 2416.5,865 c 0,9.113 -7.387,16.5 -16.5,16.5 -9.113,0 -16.5,-7.387 -16.5,-16.5 0,-9.113 7.387,-16.5 16.5,-16.5 9.113,0 16.5,7.387 16.5,16.5"
     id="path882"
     inkscape:connector-curvature="0"
     style="font-style:normal;font-weight:400;font-size:medium;font-family:'Sans Serif';vector-effect:non-scaling-stroke;fill:#ffffff;fill-opacity:1;fill-rule:evenodd;stroke:#000000;stroke-width:1;stroke-linecap:square;stroke-linejoin:bevel;stroke-opacity:1" />
  <path
     d="m 2816.5,1665 c 0,9.113 -7.387,16.5 -16.5,16.5 -9.113,0 -16.5,-7.387 -16.5,-16.5 0,-9.113 7.387,-16.5 16.5,-16.5 9.113,0 16.5,7.387 16.5,16.5"
     id="path898"
     inkscape:connector-curvature="0"
     style="font-style:normal;font-weight:400;font-size:medium;font-family:'Sans Serif';vector-effect:non-scaling-stroke;fill:#ffffff;fill-opacity:1;fill-rule:evenodd;stroke:#000000;stroke-width:1;stroke-linecap:square;stroke-linejoin:bevel;stroke-opacity:1" />
  <path
     d="m 1416.5,1665 c 0,9.113 -7.387,16.5 -16.5,16.5 -9.113,0 -16.5,-7.387 -16.5,-16.5 0,-9.113 7.387,-16.5 16.5,-16.5 9.113,0 16.5,7.387 16.5,16.5"
     id="path914"
     inkscape:connector-curvature="0"
     style="font-style:normal;font-weight:400;font-size:medium;font-family:'Sans Serif';vector-effect:non-scaling-stroke;fill:#ffffff;fill-opacity:1;fill-rule:evenodd;stroke:#000000;stroke-width:1;stroke-linecap:square;stroke-linejoin:bevel;stroke-opacity:1" />
  <path
     d="m 1129.231,915 c 0,9.113 -7.387,16.5 -16.5,16.5 -9.113,0 -16.501,-7.387 -16.501,-16.5 0,-9.113 7.388,-16.5 16.501,-16.5 9.113,0 16.5,7.387 16.5,16.5"
     id="path930"
     inkscape:connector-curvature="0"
     style="font-style:normal;font-weight:400;font-size:medium;font-family:'Sans Serif';vector-effect:non-scaling-stroke;fill:#ffffff;fill-opacity:1;fill-rule:evenodd;stroke:#000000;stroke-width:1;stroke-linecap:square;stroke-linejoin:bevel;stroke-opacity:1" />
  <path
     d="m 2416.5,2065 c 0,9.113 -7.387,16.5 -16.5,16.5 -9.113,0 -16.5,-7.387 -16.5,-16.5 0,-9.113 7.387,-16.5 16.5,-16.5 9.113,0 16.5,7.387 16.5,16.5"
     id="path946"
     inkscape:connector-curvature="0"
     style="font-style:normal;font-weight:400;font-size:medium;font-family:'Sans Serif';vector-effect:non-scaling-stroke;fill:#ffffff;fill-opacity:1;fill-rule:evenodd;stroke:#000000;stroke-width:1;stroke-linecap:square;stroke-linejoin:bevel;stroke-opacity:1" />
  <path
     d="m 2616.5,2065 c 0,9.113 -7.387,16.5 -16.5,16.5 -9.113,0 -16.5,-7.387 -16.5,-16.5 0,-9.113 7.387,-16.5 16.5,-16.5 9.113,0 16.5,7.387 16.5,16.5"
     id="path962"
     inkscape:connector-curvature="0"
     style="font-style:normal;font-weight:400;font-size:medium;font-family:'Sans Serif';vector-effect:non-scaling-stroke;fill:#ffffff;fill-opacity:1;fill-rule:evenodd;stroke:#000000;stroke-width:1;stroke-linecap:square;stroke-linejoin:bevel;stroke-opacity:1" />
  <path
     d="m 1556.5,2454.948 c 0,9.113 -7.387,16.5 -16.5,16.5 -9.113,0 -16.5,-7.387 -16.5,-16.5 0,-9.112 7.387,-16.5 16.5,-16.5 9.113,0 16.5,7.388 16.5,16.5"
     id="path978"
     inkscape:connector-curvature="0"
     style="font-style:normal;font-weight:400;font-size:medium;font-family:'Sans Serif';vector-effect:non-scaling-stroke;fill:#ffffff;fill-opacity:1;fill-rule:evenodd;stroke:#000000;stroke-width:1;stroke-linecap:square;stroke-linejoin:bevel;stroke-opacity:1" />
</svg>
