  0
SECTION
  2
HEADER
  9
$ACADVER
  1
AC1014
  9
$HANDSEED
  5
FFFF
  9
$MEASUREMENT
 70
     1
  0
ENDSEC
  0
SECTION
  2
TABLES
  0
TABLE
  2
VPORT
  5
8
330
0
100
AcDbSymbolTable
 70
     4
  0
VPORT
  5
2E
330
8
100
AcDbSymbolTableRecord
100
AcDbViewportTableRecord
  2
*ACTIVE
 70
     0
 10
0.0
 20
0.0
 11
1.0
 21
1.0
 12
210.0
 22
148.5
 13
0.0
 23
0.0
 14
10.0
 24
10.0
 15
10.0
 25
10.0
 16
0.0
 26
0.0
 36
1.0
 17
0.0
 27
0.0
 37
0.0
 40
341.0
 41
1.24
 42
50.0
 43
0.0
 44
0.0
 50
0.0
 51
0.0
 71
     0
 72
   100
 73
     1
 74
     3
 75
     0
 76
     0
 77
     0
 78
     0
  0
ENDTAB
  0
TABLE
  2
LTYPE
  5
5
330
0
100
AcDbSymbolTable
 70
     1
  0
LTYPE
  5
14
330
5
100
AcDbSymbolTableRecord
100
AcDbLinetypeTableRecord
  2
BYBLOCK
 70
     0
  3

 72
    65
 73
     0
 40
0.0
  0
LTYPE
  5
15
330
5
100
AcDbSymbolTableRecord
100
AcDbLinetypeTableRecord
  2
BYLAYER
 70
     0
  3

 72
    65
 73
     0
 40
0.0
  0
LTYPE
  5
16
330
5
100
AcDbSymbolTableRecord
100
AcDbLinetypeTableRecord
  2
CONTINUOUS
 70
     0
  3
Solid line
 72
    65
 73
     0
 40
0.0
  0
ENDTAB
  0
TABLE
  2
LAYER
  5
2
100
AcDbSymbolTable
 70
1
  0
LAYER
  5
50
100
AcDbSymbolTableRecord
100
AcDbLayerTableRecord
  2
0
 70
0
  6
CONTINUOUS
  0
ENDTAB
  0
TABLE
  2
STYLE
  5
3
330
0
100
AcDbSymbolTable
 70
     1
  0
STYLE
  5
11
330
3
100
AcDbSymbolTableRecord
100
AcDbTextStyleTableRecord
  2
STANDARD
 70
     0
 40
0.0
 41
1.0
 50
0.0
 71
     0
 42
2.5
  3
txt
  4

  0
ENDTAB
  0
TABLE
  2
VIEW
  5
6
330
0
100
AcDbSymbolTable
 70
     0
  0
ENDTAB
  0
TABLE
  2
UCS
  5
7
330
0
100
AcDbSymbolTable
 70
     0
  0
ENDTAB
  0
TABLE
  2
APPID
  5
9
330
0
100
AcDbSymbolTable
 70
     2
  0
APPID
  5
12
330
9
100
AcDbSymbolTableRecord
100
AcDbRegAppTableRecord
  2
ACAD
 70
     0
  0
ENDTAB
  0
TABLE
  2
DIMSTYLE
  5
A
330
0
100
AcDbSymbolTable
 70
     1
  0
DIMSTYLE
105
27
330
A
100
AcDbSymbolTableRecord
100
AcDbDimStyleTableRecord
  2
ISO-25
 70
     0
  3

  4

  5

  6

  7

 40
1.0
 41
2.5
 42
0.625
 43
3.75
 44
1.25
 45
0.0
 46
0.0
 47
0.0
 48
0.0
140
2.5
141
2.5
142
0.0
143
0.03937007874016
144
1.0
145
0.0
146
1.0
147
0.625
 71
     0
 72
     0
 73
     0
 74
     0
 75
     0
 76
     0
 77
     1
 78
     8
170
     0
171
     3
172
     1
173
     0
174
     0
175
     0
176
     0
177
     0
178
     0
270
     2
271
     2
272
     2
273
     2
274
     3
340
11
275
     0
280
     0
281
     0
282
     0
283
     0
284
     8
285
     0
286
     0
287
     3
288
     0
  0
ENDTAB
  0
TABLE
  2
BLOCK_RECORD
  5
1
330
0
100
AcDbSymbolTable
 70
     1
  0
BLOCK_RECORD
  5
1F
330
1
100
AcDbSymbolTableRecord
100
AcDbBlockTableRecord
  2
*MODEL_SPACE
  0
BLOCK_RECORD
  5
1B
330
1
100
AcDbSymbolTableRecord
100
AcDbBlockTableRecord
  2
*PAPER_SPACE
  0
ENDTAB
  0
ENDSEC
  0
SECTION
  2
BLOCKS
  0
BLOCK
  5
20
330
1F
100
AcDbEntity
  8
0
100
AcDbBlockBegin
  2
*MODEL_SPACE
 70
     0
 10
0.0
 20
0.0
 30
0.0
  3
*MODEL_SPACE
  1

  0
ENDBLK
  5
21
330
1F
100
AcDbEntity
  8
0
100
AcDbBlockEnd
  0
BLOCK
  5
1C
330
1B
100
AcDbEntity
 67
     1
  8
0
100
AcDbBlockBegin
  2
*PAPER_SPACE
  1

  0
ENDBLK
  5
1D
330
1B
100
AcDbEntity
 67
     1
  8
0
100
AcDbBlockEnd
  0
ENDSEC
  0
SECTION
  2
ENTITIES
  0
SPLINE
  5
100
100
AcDbEntity
  8
0
 62
7
100
AcDbSpline
 70
8
 71
3
 72
8
 73
4
 74
0
 40
0
 40
0
 40
0
 40
0
 40
1
 40
1
 40
1
 40
1
 10
873.125000
 20
-95.906250
 30
0.0
 10
873.125000
 20
-271.256737
 30
0.0
 10
730.975488
 20
-413.406250
 30
0.0
 10
555.625000
 20
-413.406250
 30
0.0
  0
SPLINE
  5
101
100
AcDbEntity
  8
0
 62
7
100
AcDbSpline
 70
8
 71
3
 72
8
 73
4
 74
0
 40
0
 40
0
 40
0
 40
0
 40
1
 40
1
 40
1
 40
1
 10
555.625000
 20
-413.406250
 30
0.0
 10
380.274513
 20
-413.406250
 30
0.0
 10
238.125000
 20
-271.256737
 30
0.0
 10
238.125000
 20
-95.906250
 30
0.0
  0
SPLINE
  5
102
100
AcDbEntity
  8
0
 62
7
100
AcDbSpline
 70
8
 71
3
 72
8
 73
4
 74
0
 40
0
 40
0
 40
0
 40
0
 40
1
 40
1
 40
1
 40
1
 10
238.125000
 20
-95.906250
 30
0.0
 10
238.125000
 20
79.444238
 30
0.0
 10
380.274513
 20
221.593750
 30
0.0
 10
555.625000
 20
221.593750
 30
0.0
  0
SPLINE
  5
103
100
AcDbEntity
  8
0
 62
7
100
AcDbSpline
 70
8
 71
3
 72
8
 73
4
 74
0
 40
0
 40
0
 40
0
 40
0
 40
1
 40
1
 40
1
 40
1
 10
555.625000
 20
221.593750
 30
0.0
 10
730.975488
 20
221.593750
 30
0.0
 10
873.125000
 20
79.444238
 30
0.0
 10
873.125000
 20
-95.906250
 30
0.0
  0
SPLINE
  5
104
100
AcDbEntity
  8
0
 62
7
100
AcDbSpline
 70
8
 71
3
 72
8
 73
4
 74
0
 40
0
 40
0
 40
0
 40
0
 40
1
 40
1
 40
1
 40
1
 10
418.220525
 20
-263.412106
 30
0.0
 10
409.680569
 20
-260.303781
 30
0.0
 10
400.110060
 20
-262.572054
 30
0.0
 10
393.873567
 20
-269.182404
 30
0.0
  0
SPLINE
  5
105
100
AcDbEntity
  8
0
 62
7
100
AcDbSpline
 70
8
 71
3
 72
8
 73
4
 74
0
 40
0
 40
0
 40
0
 40
0
 40
1
 40
1
 40
1
 40
1
 10
393.873567
 20
-269.182404
 30
0.0
 10
387.637073
 20
-275.792754
 30
0.0
 10
385.929187
 20
-285.478885
 30
0.0
 10
389.528844
 20
-293.823579
 30
0.0
  0
SPLINE
  5
106
100
AcDbEntity
  8
0
 62
7
100
AcDbSpline
 70
8
 71
3
 72
8
 73
4
 74
0
 40
0
 40
0
 40
0
 40
0
 40
1
 40
1
 40
1
 40
1
 10
389.528844
 20
-293.823579
 30
0.0
 10
393.128235
 20
-302.168273
 30
0.0
 10
401.345665
 20
-307.572917
 30
0.0
 10
410.433837
 20
-307.572917
 30
0.0
  0
LINE
  5
107
100
AcDbEntity
  8
0
 62
7
100
AcDbLine
 10
410.433837
 20
-307.572917
 30
0.0
 11
700.816163
 21
-307.572917
 31
0.0
  0
SPLINE
  5
108
100
AcDbEntity
  8
0
 62
7
100
AcDbSpline
 70
8
 71
3
 72
8
 73
4
 74
0
 40
0
 40
0
 40
0
 40
0
 40
1
 40
1
 40
1
 40
1
 10
700.816163
 20
-307.572917
 30
0.0
 10
709.904335
 20
-307.572917
 30
0.0
 10
718.121765
 20
-302.168273
 30
0.0
 10
721.721156
 20
-293.823579
 30
0.0
  0
SPLINE
  5
109
100
AcDbEntity
  8
0
 62
7
100
AcDbSpline
 70
8
 71
3
 72
8
 73
4
 74
0
 40
0
 40
0
 40
0
 40
0
 40
1
 40
1
 40
1
 40
1
 10
721.721156
 20
-293.823579
 30
0.0
 10
725.320812
 20
-285.478885
 30
0.0
 10
723.612927
 20
-275.792754
 30
0.0
 10
717.376433
 20
-269.182404
 30
0.0
  0
SPLINE
  5
10a
100
AcDbEntity
  8
0
 62
7
100
AcDbSpline
 70
8
 71
3
 72
8
 73
4
 74
0
 40
0
 40
0
 40
0
 40
0
 40
1
 40
1
 40
1
 40
1
 10
717.376433
 20
-269.182404
 30
0.0
 10
711.139940
 20
-262.572054
 30
0.0
 10
701.569431
 20
-260.303781
 30
0.0
 10
693.029475
 20
-263.412106
 30
0.0
  0
SPLINE
  5
10b
100
AcDbEntity
  8
0
 62
7
100
AcDbSpline
 70
8
 71
3
 72
8
 73
4
 74
0
 40
0
 40
0
 40
0
 40
0
 40
1
 40
1
 40
1
 40
1
 10
693.029475
 20
-263.412106
 30
0.0
 10
687.027667
 20
-265.596506
 30
0.0
 10
680.301165
 20
-263.726696
 30
0.0
 10
676.287700
 20
-258.758085
 30
0.0
  0
SPLINE
  5
10c
100
AcDbEntity
  8
0
 62
7
100
AcDbSpline
 70
8
 71
3
 72
8
 73
4
 74
0
 40
0
 40
0
 40
0
 40
0
 40
1
 40
1
 40
1
 40
1
 10
676.287700
 20
-258.758085
 30
0.0
 10
672.274235
 20
-253.789740
 30
0.0
 10
671.860692
 20
-246.820350
 30
0.0
 10
675.258471
 20
-241.412002
 30
0.0
  0
SPLINE
  5
10d
100
AcDbEntity
  8
0
 62
7
100
AcDbSpline
 70
8
 71
3
 72
8
 73
4
 74
0
 40
0
 40
0
 40
0
 40
0
 40
1
 40
1
 40
1
 40
1
 10
675.258471
 20
-241.412002
 30
0.0
 10
678.656250
 20
-236.003919
 30
0.0
 10
685.114465
 20
-233.351735
 30
0.0
 10
691.332438
 20
-234.811177
 30
0.0
  0
SPLINE
  5
10e
100
AcDbEntity
  8
0
 62
7
100
AcDbSpline
 70
8
 71
3
 72
8
 73
4
 74
0
 40
0
 40
0
 40
0
 40
0
 40
1
 40
1
 40
1
 40
1
 10
691.332438
 20
-234.811177
 30
0.0
 10
695.099575
 20
-235.695150
 30
0.0
 10
699.039750
 20
-234.339160
 30
0.0
 10
701.464656
 20
-231.323704
 30
0.0
  0
SPLINE
  5
10f
100
AcDbEntity
  8
0
 62
7
100
AcDbSpline
 70
8
 71
3
 72
8
 73
4
 74
0
 40
0
 40
0
 40
0
 40
0
 40
1
 40
1
 40
1
 40
1
 10
701.464656
 20
-231.323704
 30
0.0
 10
703.889563
 20
-228.308248
 30
0.0
 10
704.368988
 20
-224.168842
 30
0.0
 10
702.697085
 20
-220.678987
 30
0.0
  0
SPLINE
  5
110
100
AcDbEntity
  8
0
 62
7
100
AcDbSpline
 70
8
 71
3
 72
8
 73
4
 74
0
 40
0
 40
0
 40
0
 40
0
 40
1
 40
1
 40
1
 40
1
 10
702.697085
 20
-220.678987
 30
0.0
 10
701.025448
 20
-217.189398
 30
0.0
 10
697.499346
 20
-214.968750
 30
0.0
 10
693.629815
 20
-214.968750
 30
0.0
  0
LINE
  5
111
100
AcDbEntity
  8
0
 62
7
100
AcDbLine
 10
693.629815
 20
-214.968750
 30
0.0
 11
629.286852
 21
-214.968750
 31
0.0
  0
SPLINE
  5
112
100
AcDbEntity
  8
0
 62
7
100
AcDbSpline
 70
8
 71
3
 72
8
 73
4
 74
0
 40
0
 40
0
 40
0
 40
0
 40
1
 40
1
 40
1
 40
1
 10
629.286852
 20
-214.968750
 30
0.0
 10
625.417321
 20
-214.968750
 30
0.0
 10
621.891219
 20
-217.189398
 30
0.0
 10
620.219581
 20
-220.678987
 30
0.0
  0
SPLINE
  5
113
100
AcDbEntity
  8
0
 62
7
100
AcDbSpline
 70
8
 71
3
 72
8
 73
4
 74
0
 40
0
 40
0
 40
0
 40
0
 40
1
 40
1
 40
1
 40
1
 10
620.219581
 20
-220.678987
 30
0.0
 10
618.547679
 20
-224.168842
 30
0.0
 10
619.027104
 20
-228.308248
 30
0.0
 10
621.452010
 20
-231.323704
 30
0.0
  0
SPLINE
  5
114
100
AcDbEntity
  8
0
 62
7
100
AcDbSpline
 70
8
 71
3
 72
8
 73
4
 74
0
 40
0
 40
0
 40
0
 40
0
 40
1
 40
1
 40
1
 40
1
 10
621.452010
 20
-231.323704
 30
0.0
 10
623.876917
 20
-234.339160
 30
0.0
 10
627.817092
 20
-235.695150
 30
0.0
 10
631.584229
 20
-234.811177
 30
0.0
  0
SPLINE
  5
115
100
AcDbEntity
  8
0
 62
7
100
AcDbSpline
 70
8
 71
3
 72
8
 73
4
 74
0
 40
0
 40
0
 40
0
 40
0
 40
1
 40
1
 40
1
 40
1
 10
631.584229
 20
-234.811177
 30
0.0
 10
637.185458
 20
-233.496462
 30
0.0
 10
643.043863
 20
-235.512852
 30
0.0
 10
646.649340
 20
-239.996481
 30
0.0
  0
SPLINE
  5
116
100
AcDbEntity
  8
0
 62
7
100
AcDbSpline
 70
8
 71
3
 72
8
 73
4
 74
0
 40
0
 40
0
 40
0
 40
0
 40
1
 40
1
 40
1
 40
1
 10
646.649340
 20
-239.996481
 30
0.0
 10
650.254817
 20
-244.479846
 30
0.0
 10
650.967340
 20
-250.634583
 30
0.0
 10
648.481844
 20
-255.823062
 30
0.0
  0
SPLINE
  5
117
100
AcDbEntity
  8
0
 62
7
100
AcDbSpline
 70
8
 71
3
 72
8
 73
4
 74
0
 40
0
 40
0
 40
0
 40
0
 40
1
 40
1
 40
1
 40
1
 10
648.481844
 20
-255.823062
 30
0.0
 10
645.996083
 20
-261.011806
 30
0.0
 10
640.753365
 20
-264.313542
 30
0.0
 10
635.000000
 20
-264.313542
 30
0.0
  0
LINE
  5
118
100
AcDbEntity
  8
0
 62
7
100
AcDbLine
 10
635.000000
 20
-264.313542
 30
0.0
 11
582.083333
 21
-264.313542
 31
0.0
  0
SPLINE
  5
119
100
AcDbEntity
  8
0
 62
7
100
AcDbSpline
 70
8
 71
3
 72
8
 73
4
 74
0
 40
0
 40
0
 40
0
 40
0
 40
1
 40
1
 40
1
 40
1
 10
582.083333
 20
-264.313542
 30
0.0
 10
576.329995
 20
-264.313542
 30
0.0
 10
571.087224
 20
-261.011806
 30
0.0
 10
568.601569
 20
-255.823062
 30
0.0
  0
SPLINE
  5
11a
100
AcDbEntity
  8
0
 62
7
100
AcDbSpline
 70
8
 71
3
 72
8
 73
4
 74
0
 40
0
 40
0
 40
0
 40
0
 40
1
 40
1
 40
1
 40
1
 10
568.601569
 20
-255.823062
 30
0.0
 10
566.115888
 20
-250.634583
 30
0.0
 10
566.828464
 20
-244.479846
 30
0.0
 10
570.433967
 20
-239.996481
 30
0.0
  0
SPLINE
  5
11b
100
AcDbEntity
  8
0
 62
7
100
AcDbSpline
 70
8
 71
3
 72
8
 73
4
 74
0
 40
0
 40
0
 40
0
 40
0
 40
1
 40
1
 40
1
 40
1
 10
570.433967
 20
-239.996481
 30
0.0
 10
574.039471
 20
-235.512852
 30
0.0
 10
579.897981
 20
-233.496462
 30
0.0
 10
585.499104
 20
-234.811177
 30
0.0
  0
SPLINE
  5
11c
100
AcDbEntity
  8
0
 62
7
100
AcDbSpline
 70
8
 71
3
 72
8
 73
4
 74
0
 40
0
 40
0
 40
0
 40
0
 40
1
 40
1
 40
1
 40
1
 10
585.499104
 20
-234.811177
 30
0.0
 10
589.266242
 20
-235.695150
 30
0.0
 10
593.206417
 20
-234.339160
 30
0.0
 10
595.631323
 20
-231.323704
 30
0.0
  0
SPLINE
  5
11d
100
AcDbEntity
  8
0
 62
7
100
AcDbSpline
 70
8
 71
3
 72
8
 73
4
 74
0
 40
0
 40
0
 40
0
 40
0
 40
1
 40
1
 40
1
 40
1
 10
595.631323
 20
-231.323704
 30
0.0
 10
598.056229
 20
-228.308248
 30
0.0
 10
598.535654
 20
-224.168842
 30
0.0
 10
596.863752
 20
-220.678987
 30
0.0
  0
SPLINE
  5
11e
100
AcDbEntity
  8
0
 62
7
100
AcDbSpline
 70
8
 71
3
 72
8
 73
4
 74
0
 40
0
 40
0
 40
0
 40
0
 40
1
 40
1
 40
1
 40
1
 10
596.863752
 20
-220.678987
 30
0.0
 10
595.192115
 20
-217.189398
 30
0.0
 10
591.666012
 20
-214.968750
 30
0.0
 10
587.796481
 20
-214.968750
 30
0.0
  0
LINE
  5
11f
100
AcDbEntity
  8
0
 62
7
100
AcDbLine
 10
587.796481
 20
-214.968750
 30
0.0
 11
523.453519
 21
-214.968750
 31
0.0
  0
SPLINE
  5
120
100
AcDbEntity
  8
0
 62
7
100
AcDbSpline
 70
8
 71
3
 72
8
 73
4
 74
0
 40
0
 40
0
 40
0
 40
0
 40
1
 40
1
 40
1
 40
1
 10
523.453519
 20
-214.968750
 30
0.0
 10
519.583988
 20
-214.968750
 30
0.0
 10
516.057885
 20
-217.189398
 30
0.0
 10
514.386248
 20
-220.678987
 30
0.0
  0
SPLINE
  5
121
100
AcDbEntity
  8
0
 62
7
100
AcDbSpline
 70
8
 71
3
 72
8
 73
4
 74
0
 40
0
 40
0
 40
0
 40
0
 40
1
 40
1
 40
1
 40
1
 10
514.386248
 20
-220.678987
 30
0.0
 10
512.714346
 20
-224.168842
 30
0.0
 10
513.193771
 20
-228.308248
 30
0.0
 10
515.618677
 20
-231.323704
 30
0.0
  0
SPLINE
  5
122
100
AcDbEntity
  8
0
 62
7
100
AcDbSpline
 70
8
 71
3
 72
8
 73
4
 74
0
 40
0
 40
0
 40
0
 40
0
 40
1
 40
1
 40
1
 40
1
 10
515.618677
 20
-231.323704
 30
0.0
 10
518.043583
 20
-234.339160
 30
0.0
 10
521.983758
 20
-235.695150
 30
0.0
 10
525.750896
 20
-234.811177
 30
0.0
  0
SPLINE
  5
123
100
AcDbEntity
  8
0
 62
7
100
AcDbSpline
 70
8
 71
3
 72
8
 73
4
 74
0
 40
0
 40
0
 40
0
 40
0
 40
1
 40
1
 40
1
 40
1
 10
525.750896
 20
-234.811177
 30
0.0
 10
531.352019
 20
-233.496462
 30
0.0
 10
537.210529
 20
-235.512852
 30
0.0
 10
540.816033
 20
-239.996481
 30
0.0
  0
SPLINE
  5
124
100
AcDbEntity
  8
0
 62
7
100
AcDbSpline
 70
8
 71
3
 72
8
 73
4
 74
0
 40
0
 40
0
 40
0
 40
0
 40
1
 40
1
 40
1
 40
1
 10
540.816033
 20
-239.996481
 30
0.0
 10
544.421536
 20
-244.479846
 30
0.0
 10
545.134112
 20
-250.634583
 30
0.0
 10
542.648431
 20
-255.823062
 30
0.0
  0
SPLINE
  5
125
100
AcDbEntity
  8
0
 62
7
100
AcDbSpline
 70
8
 71
3
 72
8
 73
4
 74
0
 40
0
 40
0
 40
0
 40
0
 40
1
 40
1
 40
1
 40
1
 10
542.648431
 20
-255.823062
 30
0.0
 10
540.162776
 20
-261.011806
 30
0.0
 10
534.920005
 20
-264.313542
 30
0.0
 10
529.166667
 20
-264.313542
 30
0.0
  0
LINE
  5
126
100
AcDbEntity
  8
0
 62
7
100
AcDbLine
 10
529.166667
 20
-264.313542
 30
0.0
 11
476.250000
 21
-264.313542
 31
0.0
  0
SPLINE
  5
127
100
AcDbEntity
  8
0
 62
7
100
AcDbSpline
 70
8
 71
3
 72
8
 73
4
 74
0
 40
0
 40
0
 40
0
 40
0
 40
1
 40
1
 40
1
 40
1
 10
476.250000
 20
-264.313542
 30
0.0
 10
470.496635
 20
-264.313542
 30
0.0
 10
465.253917
 20
-261.011806
 30
0.0
 10
462.768156
 20
-255.823062
 30
0.0
  0
SPLINE
  5
128
100
AcDbEntity
  8
0
 62
7
100
AcDbSpline
 70
8
 71
3
 72
8
 73
4
 74
0
 40
0
 40
0
 40
0
 40
0
 40
1
 40
1
 40
1
 40
1
 10
462.768156
 20
-255.823062
 30
0.0
 10
460.282660
 20
-250.634583
 30
0.0
 10
460.995183
 20
-244.479846
 30
0.0
 10
464.600660
 20
-239.996481
 30
0.0
  0
SPLINE
  5
129
100
AcDbEntity
  8
0
 62
7
100
AcDbSpline
 70
8
 71
3
 72
8
 73
4
 74
0
 40
0
 40
0
 40
0
 40
0
 40
1
 40
1
 40
1
 40
1
 10
464.600660
 20
-239.996481
 30
0.0
 10
468.206137
 20
-235.512852
 30
0.0
 10
474.064542
 20
-233.496462
 30
0.0
 10
479.665771
 20
-234.811177
 30
0.0
  0
SPLINE
  5
12a
100
AcDbEntity
  8
0
 62
7
100
AcDbSpline
 70
8
 71
3
 72
8
 73
4
 74
0
 40
0
 40
0
 40
0
 40
0
 40
1
 40
1
 40
1
 40
1
 10
479.665771
 20
-234.811177
 30
0.0
 10
483.432908
 20
-235.695150
 30
0.0
 10
487.373083
 20
-234.339160
 30
0.0
 10
489.797990
 20
-231.323704
 30
0.0
  0
SPLINE
  5
12b
100
AcDbEntity
  8
0
 62
7
100
AcDbSpline
 70
8
 71
3
 72
8
 73
4
 74
0
 40
0
 40
0
 40
0
 40
0
 40
1
 40
1
 40
1
 40
1
 10
489.797990
 20
-231.323704
 30
0.0
 10
492.222896
 20
-228.308248
 30
0.0
 10
492.702321
 20
-224.168842
 30
0.0
 10
491.030419
 20
-220.678987
 30
0.0
  0
SPLINE
  5
12c
100
AcDbEntity
  8
0
 62
7
100
AcDbSpline
 70
8
 71
3
 72
8
 73
4
 74
0
 40
0
 40
0
 40
0
 40
0
 40
1
 40
1
 40
1
 40
1
 10
491.030419
 20
-220.678987
 30
0.0
 10
489.358781
 20
-217.189398
 30
0.0
 10
485.832679
 20
-214.968750
 30
0.0
 10
481.963148
 20
-214.968750
 30
0.0
  0
LINE
  5
12d
100
AcDbEntity
  8
0
 62
7
100
AcDbLine
 10
481.963148
 20
-214.968750
 30
0.0
 11
417.620185
 21
-214.968750
 31
0.0
  0
SPLINE
  5
12e
100
AcDbEntity
  8
0
 62
7
100
AcDbSpline
 70
8
 71
3
 72
8
 73
4
 74
0
 40
0
 40
0
 40
0
 40
0
 40
1
 40
1
 40
1
 40
1
 10
417.620185
 20
-214.968750
 30
0.0
 10
413.750654
 20
-214.968750
 30
0.0
 10
410.224552
 20
-217.189398
 30
0.0
 10
408.552915
 20
-220.678987
 30
0.0
  0
SPLINE
  5
12f
100
AcDbEntity
  8
0
 62
7
100
AcDbSpline
 70
8
 71
3
 72
8
 73
4
 74
0
 40
0
 40
0
 40
0
 40
0
 40
1
 40
1
 40
1
 40
1
 10
408.552915
 20
-220.678987
 30
0.0
 10
406.881012
 20
-224.168842
 30
0.0
 10
407.360437
 20
-228.308248
 30
0.0
 10
409.785344
 20
-231.323704
 30
0.0
  0
SPLINE
  5
130
100
AcDbEntity
  8
0
 62
7
100
AcDbSpline
 70
8
 71
3
 72
8
 73
4
 74
0
 40
0
 40
0
 40
0
 40
0
 40
1
 40
1
 40
1
 40
1
 10
409.785344
 20
-231.323704
 30
0.0
 10
412.210250
 20
-234.339160
 30
0.0
 10
416.150425
 20
-235.695150
 30
0.0
 10
419.917562
 20
-234.811177
 30
0.0
  0
SPLINE
  5
131
100
AcDbEntity
  8
0
 62
7
100
AcDbSpline
 70
8
 71
3
 72
8
 73
4
 74
0
 40
0
 40
0
 40
0
 40
0
 40
1
 40
1
 40
1
 40
1
 10
419.917562
 20
-234.811177
 30
0.0
 10
426.135535
 20
-233.351735
 30
0.0
 10
432.593750
 20
-236.003919
 30
0.0
 10
435.991529
 20
-241.412002
 30
0.0
  0
SPLINE
  5
132
100
AcDbEntity
  8
0
 62
7
100
AcDbSpline
 70
8
 71
3
 72
8
 73
4
 74
0
 40
0
 40
0
 40
0
 40
0
 40
1
 40
1
 40
1
 40
1
 10
435.991529
 20
-241.412002
 30
0.0
 10
439.389308
 20
-246.820350
 30
0.0
 10
438.975765
 20
-253.789740
 30
0.0
 10
434.962300
 20
-258.758085
 30
0.0
  0
SPLINE
  5
133
100
AcDbEntity
  8
0
 62
7
100
AcDbSpline
 70
8
 71
3
 72
8
 73
4
 74
0
 40
0
 40
0
 40
0
 40
0
 40
1
 40
1
 40
1
 40
1
 10
434.962300
 20
-258.758085
 30
0.0
 10
430.948835
 20
-263.726696
 30
0.0
 10
424.222333
 20
-265.596506
 30
0.0
 10
418.220525
 20
-263.412106
 30
0.0
  0
SPLINE
  5
134
100
AcDbEntity
  8
0
 62
7
100
AcDbSpline
 70
8
 71
3
 72
8
 73
4
 74
0
 40
0
 40
0
 40
0
 40
0
 40
1
 40
1
 40
1
 40
1
 10
418.220525
 20
54.087894
 30
0.0
 10
409.680569
 20
57.196219
 30
0.0
 10
400.110060
 20
54.927946
 30
0.0
 10
393.873567
 20
48.317596
 30
0.0
  0
SPLINE
  5
135
100
AcDbEntity
  8
0
 62
7
100
AcDbSpline
 70
8
 71
3
 72
8
 73
4
 74
0
 40
0
 40
0
 40
0
 40
0
 40
1
 40
1
 40
1
 40
1
 10
393.873567
 20
48.317596
 30
0.0
 10
387.637073
 20
41.707246
 30
0.0
 10
385.929187
 20
32.021115
 30
0.0
 10
389.528844
 20
23.676421
 30
0.0
  0
SPLINE
  5
136
100
AcDbEntity
  8
0
 62
7
100
AcDbSpline
 70
8
 71
3
 72
8
 73
4
 74
0
 40
0
 40
0
 40
0
 40
0
 40
1
 40
1
 40
1
 40
1
 10
389.528844
 20
23.676421
 30
0.0
 10
393.128235
 20
15.331727
 30
0.0
 10
401.345665
 20
9.927083
 30
0.0
 10
410.433837
 20
9.927083
 30
0.0
  0
LINE
  5
137
100
AcDbEntity
  8
0
 62
7
100
AcDbLine
 10
410.433837
 20
9.927083
 30
0.0
 11
700.816163
 21
9.927083
 31
0.0
  0
SPLINE
  5
138
100
AcDbEntity
  8
0
 62
7
100
AcDbSpline
 70
8
 71
3
 72
8
 73
4
 74
0
 40
0
 40
0
 40
0
 40
0
 40
1
 40
1
 40
1
 40
1
 10
700.816163
 20
9.927083
 30
0.0
 10
709.904335
 20
9.927083
 30
0.0
 10
718.121765
 20
15.331727
 30
0.0
 10
721.721156
 20
23.676421
 30
0.0
  0
SPLINE
  5
139
100
AcDbEntity
  8
0
 62
7
100
AcDbSpline
 70
8
 71
3
 72
8
 73
4
 74
0
 40
0
 40
0
 40
0
 40
0
 40
1
 40
1
 40
1
 40
1
 10
721.721156
 20
23.676421
 30
0.0
 10
725.320812
 20
32.021115
 30
0.0
 10
723.612927
 20
41.707246
 30
0.0
 10
717.376433
 20
48.317596
 30
0.0
  0
SPLINE
  5
13a
100
AcDbEntity
  8
0
 62
7
100
AcDbSpline
 70
8
 71
3
 72
8
 73
4
 74
0
 40
0
 40
0
 40
0
 40
0
 40
1
 40
1
 40
1
 40
1
 10
717.376433
 20
48.317596
 30
0.0
 10
711.139940
 20
54.927946
 30
0.0
 10
701.569431
 20
57.196219
 30
0.0
 10
693.029475
 20
54.087894
 30
0.0
  0
SPLINE
  5
13b
100
AcDbEntity
  8
0
 62
7
100
AcDbSpline
 70
8
 71
3
 72
8
 73
4
 74
0
 40
0
 40
0
 40
0
 40
0
 40
1
 40
1
 40
1
 40
1
 10
693.029475
 20
54.087894
 30
0.0
 10
687.027667
 20
51.903494
 30
0.0
 10
680.301165
 20
53.773304
 30
0.0
 10
676.287700
 20
58.741915
 30
0.0
  0
SPLINE
  5
13c
100
AcDbEntity
  8
0
 62
7
100
AcDbSpline
 70
8
 71
3
 72
8
 73
4
 74
0
 40
0
 40
0
 40
0
 40
0
 40
1
 40
1
 40
1
 40
1
 10
676.287700
 20
58.741915
 30
0.0
 10
672.274235
 20
63.710260
 30
0.0
 10
671.860692
 20
70.679650
 30
0.0
 10
675.258471
 20
76.087998
 30
0.0
  0
SPLINE
  5
13d
100
AcDbEntity
  8
0
 62
7
100
AcDbSpline
 70
8
 71
3
 72
8
 73
4
 74
0
 40
0
 40
0
 40
0
 40
0
 40
1
 40
1
 40
1
 40
1
 10
675.258471
 20
76.087998
 30
0.0
 10
678.656250
 20
81.496081
 30
0.0
 10
685.114465
 20
84.148265
 30
0.0
 10
691.332438
 20
82.688823
 30
0.0
  0
SPLINE
  5
13e
100
AcDbEntity
  8
0
 62
7
100
AcDbSpline
 70
8
 71
3
 72
8
 73
4
 74
0
 40
0
 40
0
 40
0
 40
0
 40
1
 40
1
 40
1
 40
1
 10
691.332438
 20
82.688823
 30
0.0
 10
695.099575
 20
81.804850
 30
0.0
 10
699.039750
 20
83.160840
 30
0.0
 10
701.464656
 20
86.176296
 30
0.0
  0
SPLINE
  5
13f
100
AcDbEntity
  8
0
 62
7
100
AcDbSpline
 70
8
 71
3
 72
8
 73
4
 74
0
 40
0
 40
0
 40
0
 40
0
 40
1
 40
1
 40
1
 40
1
 10
701.464656
 20
86.176296
 30
0.0
 10
703.889563
 20
89.191752
 30
0.0
 10
704.368988
 20
93.331158
 30
0.0
 10
702.697085
 20
96.821013
 30
0.0
  0
SPLINE
  5
140
100
AcDbEntity
  8
0
 62
7
100
AcDbSpline
 70
8
 71
3
 72
8
 73
4
 74
0
 40
0
 40
0
 40
0
 40
0
 40
1
 40
1
 40
1
 40
1
 10
702.697085
 20
96.821013
 30
0.0
 10
701.025448
 20
100.310602
 30
0.0
 10
697.499346
 20
102.531250
 30
0.0
 10
693.629815
 20
102.531250
 30
0.0
  0
LINE
  5
141
100
AcDbEntity
  8
0
 62
7
100
AcDbLine
 10
693.629815
 20
102.531250
 30
0.0
 11
629.286852
 21
102.531250
 31
0.0
  0
SPLINE
  5
142
100
AcDbEntity
  8
0
 62
7
100
AcDbSpline
 70
8
 71
3
 72
8
 73
4
 74
0
 40
0
 40
0
 40
0
 40
0
 40
1
 40
1
 40
1
 40
1
 10
629.286852
 20
102.531250
 30
0.0
 10
625.417321
 20
102.531250
 30
0.0
 10
621.891219
 20
100.310602
 30
0.0
 10
620.219581
 20
96.821013
 30
0.0
  0
SPLINE
  5
143
100
AcDbEntity
  8
0
 62
7
100
AcDbSpline
 70
8
 71
3
 72
8
 73
4
 74
0
 40
0
 40
0
 40
0
 40
0
 40
1
 40
1
 40
1
 40
1
 10
620.219581
 20
96.821013
 30
0.0
 10
618.547679
 20
93.331158
 30
0.0
 10
619.027104
 20
89.191752
 30
0.0
 10
621.452010
 20
86.176296
 30
0.0
  0
SPLINE
  5
144
100
AcDbEntity
  8
0
 62
7
100
AcDbSpline
 70
8
 71
3
 72
8
 73
4
 74
0
 40
0
 40
0
 40
0
 40
0
 40
1
 40
1
 40
1
 40
1
 10
621.452010
 20
86.176296
 30
0.0
 10
623.876917
 20
83.160840
 30
0.0
 10
627.817092
 20
81.804850
 30
0.0
 10
631.584229
 20
82.688823
 30
0.0
  0
SPLINE
  5
145
100
AcDbEntity
  8
0
 62
7
100
AcDbSpline
 70
8
 71
3
 72
8
 73
4
 74
0
 40
0
 40
0
 40
0
 40
0
 40
1
 40
1
 40
1
 40
1
 10
631.584229
 20
82.688823
 30
0.0
 10
637.185458
 20
84.003538
 30
0.0
 10
643.043862
 20
81.987148
 30
0.0
 10
646.649340
 20
77.503519
 30
0.0
  0
SPLINE
  5
146
100
AcDbEntity
  8
0
 62
7
100
AcDbSpline
 70
8
 71
3
 72
8
 73
4
 74
0
 40
0
 40
0
 40
0
 40
0
 40
1
 40
1
 40
1
 40
1
 10
646.649340
 20
77.503519
 30
0.0
 10
650.254817
 20
73.020154
 30
0.0
 10
650.967340
 20
66.865417
 30
0.0
 10
648.481844
 20
61.676938
 30
0.0
  0
SPLINE
  5
147
100
AcDbEntity
  8
0
 62
7
100
AcDbSpline
 70
8
 71
3
 72
8
 73
4
 74
0
 40
0
 40
0
 40
0
 40
0
 40
1
 40
1
 40
1
 40
1
 10
648.481844
 20
61.676938
 30
0.0
 10
645.996083
 20
56.488194
 30
0.0
 10
640.753365
 20
53.186458
 30
0.0
 10
635.000000
 20
53.186458
 30
0.0
  0
LINE
  5
148
100
AcDbEntity
  8
0
 62
7
100
AcDbLine
 10
635.000000
 20
53.186458
 30
0.0
 11
582.083333
 21
53.186458
 31
0.0
  0
SPLINE
  5
149
100
AcDbEntity
  8
0
 62
7
100
AcDbSpline
 70
8
 71
3
 72
8
 73
4
 74
0
 40
0
 40
0
 40
0
 40
0
 40
1
 40
1
 40
1
 40
1
 10
582.083333
 20
53.186458
 30
0.0
 10
576.329995
 20
53.186458
 30
0.0
 10
571.087224
 20
56.488194
 30
0.0
 10
568.601569
 20
61.676938
 30
0.0
  0
SPLINE
  5
14a
100
AcDbEntity
  8
0
 62
7
100
AcDbSpline
 70
8
 71
3
 72
8
 73
4
 74
0
 40
0
 40
0
 40
0
 40
0
 40
1
 40
1
 40
1
 40
1
 10
568.601569
 20
61.676938
 30
0.0
 10
566.115888
 20
66.865417
 30
0.0
 10
566.828464
 20
73.020154
 30
0.0
 10
570.433967
 20
77.503519
 30
0.0
  0
SPLINE
  5
14b
100
AcDbEntity
  8
0
 62
7
100
AcDbSpline
 70
8
 71
3
 72
8
 73
4
 74
0
 40
0
 40
0
 40
0
 40
0
 40
1
 40
1
 40
1
 40
1
 10
570.433967
 20
77.503519
 30
0.0
 10
574.039471
 20
81.987148
 30
0.0
 10
579.897981
 20
84.003538
 30
0.0
 10
585.499104
 20
82.688823
 30
0.0
  0
SPLINE
  5
14c
100
AcDbEntity
  8
0
 62
7
100
AcDbSpline
 70
8
 71
3
 72
8
 73
4
 74
0
 40
0
 40
0
 40
0
 40
0
 40
1
 40
1
 40
1
 40
1
 10
585.499104
 20
82.688823
 30
0.0
 10
589.266242
 20
81.804850
 30
0.0
 10
593.206417
 20
83.160840
 30
0.0
 10
595.631323
 20
86.176296
 30
0.0
  0
SPLINE
  5
14d
100
AcDbEntity
  8
0
 62
7
100
AcDbSpline
 70
8
 71
3
 72
8
 73
4
 74
0
 40
0
 40
0
 40
0
 40
0
 40
1
 40
1
 40
1
 40
1
 10
595.631323
 20
86.176296
 30
0.0
 10
598.056229
 20
89.191752
 30
0.0
 10
598.535654
 20
93.331158
 30
0.0
 10
596.863752
 20
96.821013
 30
0.0
  0
SPLINE
  5
14e
100
AcDbEntity
  8
0
 62
7
100
AcDbSpline
 70
8
 71
3
 72
8
 73
4
 74
0
 40
0
 40
0
 40
0
 40
0
 40
1
 40
1
 40
1
 40
1
 10
596.863752
 20
96.821013
 30
0.0
 10
595.192115
 20
100.310602
 30
0.0
 10
591.666012
 20
102.531250
 30
0.0
 10
587.796481
 20
102.531250
 30
0.0
  0
LINE
  5
14f
100
AcDbEntity
  8
0
 62
7
100
AcDbLine
 10
587.796481
 20
102.531250
 30
0.0
 11
523.453519
 21
102.531250
 31
0.0
  0
SPLINE
  5
150
100
AcDbEntity
  8
0
 62
7
100
AcDbSpline
 70
8
 71
3
 72
8
 73
4
 74
0
 40
0
 40
0
 40
0
 40
0
 40
1
 40
1
 40
1
 40
1
 10
523.453519
 20
102.531250
 30
0.0
 10
519.583988
 20
102.531250
 30
0.0
 10
516.057885
 20
100.310602
 30
0.0
 10
514.386248
 20
96.821013
 30
0.0
  0
SPLINE
  5
151
100
AcDbEntity
  8
0
 62
7
100
AcDbSpline
 70
8
 71
3
 72
8
 73
4
 74
0
 40
0
 40
0
 40
0
 40
0
 40
1
 40
1
 40
1
 40
1
 10
514.386248
 20
96.821013
 30
0.0
 10
512.714346
 20
93.331158
 30
0.0
 10
513.193771
 20
89.191752
 30
0.0
 10
515.618677
 20
86.176296
 30
0.0
  0
SPLINE
  5
152
100
AcDbEntity
  8
0
 62
7
100
AcDbSpline
 70
8
 71
3
 72
8
 73
4
 74
0
 40
0
 40
0
 40
0
 40
0
 40
1
 40
1
 40
1
 40
1
 10
515.618677
 20
86.176296
 30
0.0
 10
518.043583
 20
83.160840
 30
0.0
 10
521.983758
 20
81.804850
 30
0.0
 10
525.750896
 20
82.688823
 30
0.0
  0
SPLINE
  5
153
100
AcDbEntity
  8
0
 62
7
100
AcDbSpline
 70
8
 71
3
 72
8
 73
4
 74
0
 40
0
 40
0
 40
0
 40
0
 40
1
 40
1
 40
1
 40
1
 10
525.750896
 20
82.688823
 30
0.0
 10
531.352019
 20
84.003538
 30
0.0
 10
537.210529
 20
81.987148
 30
0.0
 10
540.816033
 20
77.503519
 30
0.0
  0
SPLINE
  5
154
100
AcDbEntity
  8
0
 62
7
100
AcDbSpline
 70
8
 71
3
 72
8
 73
4
 74
0
 40
0
 40
0
 40
0
 40
0
 40
1
 40
1
 40
1
 40
1
 10
540.816033
 20
77.503519
 30
0.0
 10
544.421536
 20
73.020154
 30
0.0
 10
545.134112
 20
66.865417
 30
0.0
 10
542.648431
 20
61.676938
 30
0.0
  0
SPLINE
  5
155
100
AcDbEntity
  8
0
 62
7
100
AcDbSpline
 70
8
 71
3
 72
8
 73
4
 74
0
 40
0
 40
0
 40
0
 40
0
 40
1
 40
1
 40
1
 40
1
 10
542.648431
 20
61.676938
 30
0.0
 10
540.162776
 20
56.488194
 30
0.0
 10
534.920005
 20
53.186458
 30
0.0
 10
529.166667
 20
53.186458
 30
0.0
  0
LINE
  5
156
100
AcDbEntity
  8
0
 62
7
100
AcDbLine
 10
529.166667
 20
53.186458
 30
0.0
 11
476.250000
 21
53.186458
 31
0.0
  0
SPLINE
  5
157
100
AcDbEntity
  8
0
 62
7
100
AcDbSpline
 70
8
 71
3
 72
8
 73
4
 74
0
 40
0
 40
0
 40
0
 40
0
 40
1
 40
1
 40
1
 40
1
 10
476.250000
 20
53.186458
 30
0.0
 10
470.496635
 20
53.186458
 30
0.0
 10
465.253917
 20
56.488194
 30
0.0
 10
462.768156
 20
61.676938
 30
0.0
  0
SPLINE
  5
158
100
AcDbEntity
  8
0
 62
7
100
AcDbSpline
 70
8
 71
3
 72
8
 73
4
 74
0
 40
0
 40
0
 40
0
 40
0
 40
1
 40
1
 40
1
 40
1
 10
462.768156
 20
61.676938
 30
0.0
 10
460.282660
 20
66.865417
 30
0.0
 10
460.995183
 20
73.020154
 30
0.0
 10
464.600660
 20
77.503519
 30
0.0
  0
SPLINE
  5
159
100
AcDbEntity
  8
0
 62
7
100
AcDbSpline
 70
8
 71
3
 72
8
 73
4
 74
0
 40
0
 40
0
 40
0
 40
0
 40
1
 40
1
 40
1
 40
1
 10
464.600660
 20
77.503519
 30
0.0
 10
468.206137
 20
81.987148
 30
0.0
 10
474.064542
 20
84.003538
 30
0.0
 10
479.665771
 20
82.688823
 30
0.0
  0
SPLINE
  5
15a
100
AcDbEntity
  8
0
 62
7
100
AcDbSpline
 70
8
 71
3
 72
8
 73
4
 74
0
 40
0
 40
0
 40
0
 40
0
 40
1
 40
1
 40
1
 40
1
 10
479.665771
 20
82.688823
 30
0.0
 10
483.432908
 20
81.804850
 30
0.0
 10
487.373083
 20
83.160840
 30
0.0
 10
489.797990
 20
86.176296
 30
0.0
  0
SPLINE
  5
15b
100
AcDbEntity
  8
0
 62
7
100
AcDbSpline
 70
8
 71
3
 72
8
 73
4
 74
0
 40
0
 40
0
 40
0
 40
0
 40
1
 40
1
 40
1
 40
1
 10
489.797990
 20
86.176296
 30
0.0
 10
492.222896
 20
89.191752
 30
0.0
 10
492.702321
 20
93.331158
 30
0.0
 10
491.030419
 20
96.821013
 30
0.0
  0
SPLINE
  5
15c
100
AcDbEntity
  8
0
 62
7
100
AcDbSpline
 70
8
 71
3
 72
8
 73
4
 74
0
 40
0
 40
0
 40
0
 40
0
 40
1
 40
1
 40
1
 40
1
 10
491.030419
 20
96.821013
 30
0.0
 10
489.358781
 20
100.310602
 30
0.0
 10
485.832679
 20
102.531250
 30
0.0
 10
481.963148
 20
102.531250
 30
0.0
  0
LINE
  5
15d
100
AcDbEntity
  8
0
 62
7
100
AcDbLine
 10
481.963148
 20
102.531250
 30
0.0
 11
417.620185
 21
102.531250
 31
0.0
  0
SPLINE
  5
15e
100
AcDbEntity
  8
0
 62
7
100
AcDbSpline
 70
8
 71
3
 72
8
 73
4
 74
0
 40
0
 40
0
 40
0
 40
0
 40
1
 40
1
 40
1
 40
1
 10
417.620185
 20
102.531250
 30
0.0
 10
413.750654
 20
102.531250
 30
0.0
 10
410.224552
 20
100.310602
 30
0.0
 10
408.552915
 20
96.821013
 30
0.0
  0
SPLINE
  5
15f
100
AcDbEntity
  8
0
 62
7
100
AcDbSpline
 70
8
 71
3
 72
8
 73
4
 74
0
 40
0
 40
0
 40
0
 40
0
 40
1
 40
1
 40
1
 40
1
 10
408.552915
 20
96.821013
 30
0.0
 10
406.881013
 20
93.331158
 30
0.0
 10
407.360438
 20
89.191752
 30
0.0
 10
409.785344
 20
86.176296
 30
0.0
  0
SPLINE
  5
160
100
AcDbEntity
  8
0
 62
7
100
AcDbSpline
 70
8
 71
3
 72
8
 73
4
 74
0
 40
0
 40
0
 40
0
 40
0
 40
1
 40
1
 40
1
 40
1
 10
409.785344
 20
86.176296
 30
0.0
 10
412.210250
 20
83.160840
 30
0.0
 10
416.150425
 20
81.804850
 30
0.0
 10
419.917563
 20
82.688823
 30
0.0
  0
SPLINE
  5
161
100
AcDbEntity
  8
0
 62
7
100
AcDbSpline
 70
8
 71
3
 72
8
 73
4
 74
0
 40
0
 40
0
 40
0
 40
0
 40
1
 40
1
 40
1
 40
1
 10
419.917563
 20
82.688823
 30
0.0
 10
426.135535
 20
84.148265
 30
0.0
 10
432.593750
 20
81.496081
 30
0.0
 10
435.991529
 20
76.087998
 30
0.0
  0
SPLINE
  5
162
100
AcDbEntity
  8
0
 62
7
100
AcDbSpline
 70
8
 71
3
 72
8
 73
4
 74
0
 40
0
 40
0
 40
0
 40
0
 40
1
 40
1
 40
1
 40
1
 10
435.991529
 20
76.087998
 30
0.0
 10
439.389308
 20
70.679650
 30
0.0
 10
438.975765
 20
63.710260
 30
0.0
 10
434.962300
 20
58.741915
 30
0.0
  0
SPLINE
  5
163
100
AcDbEntity
  8
0
 62
7
100
AcDbSpline
 70
8
 71
3
 72
8
 73
4
 74
0
 40
0
 40
0
 40
0
 40
0
 40
1
 40
1
 40
1
 40
1
 10
434.962300
 20
58.741915
 30
0.0
 10
430.948835
 20
53.773304
 30
0.0
 10
424.222333
 20
51.903494
 30
0.0
 10
418.220525
 20
54.087894
 30
0.0
  0
SPLINE
  5
164
100
AcDbEntity
  8
0
 62
7
100
AcDbSpline
 70
8
 71
3
 72
8
 73
4
 74
0
 40
0
 40
0
 40
0
 40
0
 40
1
 40
1
 40
1
 40
1
 10
745.946142
 20
-157.578773
 30
0.0
 10
754.486098
 20
-154.470448
 30
0.0
 10
764.056606
 20
-156.738721
 30
0.0
 10
770.293100
 20
-163.349071
 30
0.0
  0
SPLINE
  5
165
100
AcDbEntity
  8
0
 62
7
100
AcDbSpline
 70
8
 71
3
 72
8
 73
4
 74
0
 40
0
 40
0
 40
0
 40
0
 40
1
 40
1
 40
1
 40
1
 10
770.293100
 20
-163.349071
 30
0.0
 10
776.529594
 20
-169.959421
 30
0.0
 10
778.237479
 20
-179.645552
 30
0.0
 10
774.637823
 20
-187.990246
 30
0.0
  0
SPLINE
  5
166
100
AcDbEntity
  8
0
 62
7
100
AcDbSpline
 70
8
 71
3
 72
8
 73
4
 74
0
 40
0
 40
0
 40
0
 40
0
 40
1
 40
1
 40
1
 40
1
 10
774.637823
 20
-187.990246
 30
0.0
 10
771.038431
 20
-196.334940
 30
0.0
 10
762.821002
 20
-201.739583
 30
0.0
 10
753.732829
 20
-201.739583
 30
0.0
  0
LINE
  5
167
100
AcDbEntity
  8
0
 62
7
100
AcDbLine
 10
753.732829
 20
-201.739583
 30
0.0
 11
571.500000
 21
-201.739583
 31
0.0
  0
SPLINE
  5
168
100
AcDbEntity
  8
0
 62
7
100
AcDbSpline
 70
8
 71
3
 72
8
 73
4
 74
0
 40
0
 40
0
 40
0
 40
0
 40
1
 40
1
 40
1
 40
1
 10
571.500000
 20
-201.739583
 30
0.0
 10
568.577492
 20
-201.739583
 30
0.0
 10
566.208333
 20
-199.370504
 30
0.0
 10
566.208333
 20
-196.447917
 30
0.0
  0
LINE
  5
169
100
AcDbEntity
  8
0
 62
7
100
AcDbLine
 10
566.208333
 20
-196.447917
 30
0.0
 11
566.208333
 21
-160.784465
 31
0.0
  0
SPLINE
  5
16a
100
AcDbEntity
  8
0
 62
7
100
AcDbSpline
 70
8
 71
3
 72
8
 73
4
 74
0
 40
0
 40
0
 40
0
 40
0
 40
1
 40
1
 40
1
 40
1
 10
566.208333
 20
-160.784465
 30
0.0
 10
566.208333
 20
-158.868881
 30
0.0
 10
567.243727
 20
-157.102787
 30
0.0
 10
568.915391
 20
-156.166956
 30
0.0
  0
SPLINE
  5
16b
100
AcDbEntity
  8
0
 62
7
100
AcDbSpline
 70
8
 71
3
 72
8
 73
4
 74
0
 40
0
 40
0
 40
0
 40
0
 40
1
 40
1
 40
1
 40
1
 10
568.915391
 20
-156.166956
 30
0.0
 10
570.587055
 20
-155.231390
 30
0.0
 10
572.633898
 20
-155.272135
 30
0.0
 10
574.266880
 20
-156.273848
 30
0.0
  0
SPLINE
  5
16c
100
AcDbEntity
  8
0
 62
7
100
AcDbSpline
 70
8
 71
3
 72
8
 73
4
 74
0
 40
0
 40
0
 40
0
 40
0
 40
1
 40
1
 40
1
 40
1
 10
574.266880
 20
-156.273848
 30
0.0
 10
580.026939
 20
-159.807094
 30
0.0
 10
587.441146
 20
-159.036892
 30
0.0
 10
592.351812
 20
-154.395306
 30
0.0
  0
SPLINE
  5
16d
100
AcDbEntity
  8
0
 62
7
100
AcDbSpline
 70
8
 71
3
 72
8
 73
4
 74
0
 40
0
 40
0
 40
0
 40
0
 40
1
 40
1
 40
1
 40
1
 10
592.351812
 20
-154.395306
 30
0.0
 10
597.262744
 20
-149.753721
 30
0.0
 10
598.449135
 20
-142.394600
 30
0.0
 10
595.245825
 20
-136.444650
 30
0.0
  0
SPLINE
  5
16e
100
AcDbEntity
  8
0
 62
7
100
AcDbSpline
 70
8
 71
3
 72
8
 73
4
 74
0
 40
0
 40
0
 40
0
 40
0
 40
1
 40
1
 40
1
 40
1
 10
595.245825
 20
-136.444650
 30
0.0
 10
592.042515
 20
-130.494965
 30
0.0
 10
585.246163
 20
-127.433735
 30
0.0
 10
578.667563
 20
-128.977844
 30
0.0
  0
SPLINE
  5
16f
100
AcDbEntity
  8
0
 62
7
100
AcDbSpline
 70
8
 71
3
 72
8
 73
4
 74
0
 40
0
 40
0
 40
0
 40
0
 40
1
 40
1
 40
1
 40
1
 10
578.667563
 20
-128.977844
 30
0.0
 10
574.900425
 20
-129.861817
 30
0.0
 10
570.960197
 20
-128.505827
 30
0.0
 10
568.535264
 20
-125.490371
 30
0.0
  0
SPLINE
  5
170
100
AcDbEntity
  8
0
 62
7
100
AcDbSpline
 70
8
 71
3
 72
8
 73
4
 74
0
 40
0
 40
0
 40
0
 40
0
 40
1
 40
1
 40
1
 40
1
 10
568.535264
 20
-125.490371
 30
0.0
 10
566.110332
 20
-122.474915
 30
0.0
 10
565.631065
 20
-118.335482
 30
0.0
 10
567.302835
 20
-114.845760
 30
0.0
  0
SPLINE
  5
171
100
AcDbEntity
  8
0
 62
7
100
AcDbSpline
 70
8
 71
3
 72
8
 73
4
 74
0
 40
0
 40
0
 40
0
 40
0
 40
1
 40
1
 40
1
 40
1
 10
567.302835
 20
-114.845760
 30
0.0
 10
568.974631
 20
-111.356038
 30
0.0
 10
572.500734
 20
-109.135417
 30
0.0
 10
576.370238
 20
-109.135417
 30
0.0
  0
LINE
  5
172
100
AcDbEntity
  8
0
 62
7
100
AcDbLine
 10
576.370238
 20
-109.135417
 30
0.0
 11
640.713148
 21
-109.135417
 31
0.0
  0
SPLINE
  5
173
100
AcDbEntity
  8
0
 62
7
100
AcDbSpline
 70
8
 71
3
 72
8
 73
4
 74
0
 40
0
 40
0
 40
0
 40
0
 40
1
 40
1
 40
1
 40
1
 10
640.713148
 20
-109.135417
 30
0.0
 10
644.582679
 20
-109.135417
 30
0.0
 10
648.108781
 20
-111.356038
 30
0.0
 10
649.780419
 20
-114.845760
 30
0.0
  0
SPLINE
  5
174
100
AcDbEntity
  8
0
 62
7
100
AcDbSpline
 70
8
 71
3
 72
8
 73
4
 74
0
 40
0
 40
0
 40
0
 40
0
 40
1
 40
1
 40
1
 40
1
 10
649.780419
 20
-114.845760
 30
0.0
 10
651.452321
 20
-118.335482
 30
0.0
 10
650.972896
 20
-122.474915
 30
0.0
 10
648.547990
 20
-125.490371
 30
0.0
  0
SPLINE
  5
175
100
AcDbEntity
  8
0
 62
7
100
AcDbSpline
 70
8
 71
3
 72
8
 73
4
 74
0
 40
0
 40
0
 40
0
 40
0
 40
1
 40
1
 40
1
 40
1
 10
648.547990
 20
-125.490371
 30
0.0
 10
646.123083
 20
-128.505827
 30
0.0
 10
642.182908
 20
-129.861817
 30
0.0
 10
638.415771
 20
-128.977844
 30
0.0
  0
SPLINE
  5
176
100
AcDbEntity
  8
0
 62
7
100
AcDbSpline
 70
8
 71
3
 72
8
 73
4
 74
0
 40
0
 40
0
 40
0
 40
0
 40
1
 40
1
 40
1
 40
1
 10
638.415771
 20
-128.977844
 30
0.0
 10
632.814542
 20
-127.663129
 30
0.0
 10
626.956138
 20
-129.679519
 30
0.0
 10
623.350660
 20
-134.163148
 30
0.0
  0
SPLINE
  5
177
100
AcDbEntity
  8
0
 62
7
100
AcDbSpline
 70
8
 71
3
 72
8
 73
4
 74
0
 40
0
 40
0
 40
0
 40
0
 40
1
 40
1
 40
1
 40
1
 10
623.350660
 20
-134.163148
 30
0.0
 10
619.745183
 20
-138.646512
 30
0.0
 10
619.032660
 20
-144.801250
 30
0.0
 10
621.518156
 20
-149.989729
 30
0.0
  0
SPLINE
  5
178
100
AcDbEntity
  8
0
 62
7
100
AcDbSpline
 70
8
 71
3
 72
8
 73
4
 74
0
 40
0
 40
0
 40
0
 40
0
 40
1
 40
1
 40
1
 40
1
 10
621.518156
 20
-149.989729
 30
0.0
 10
624.003917
 20
-155.178473
 30
0.0
 10
629.246635
 20
-158.480208
 30
0.0
 10
635.000000
 20
-158.480208
 30
0.0
  0
LINE
  5
179
100
AcDbEntity
  8
0
 62
7
100
AcDbLine
 10
635.000000
 20
-158.480208
 30
0.0
 11
687.916667
 21
-158.480208
 31
0.0
  0
SPLINE
  5
17a
100
AcDbEntity
  8
0
 62
7
100
AcDbSpline
 70
8
 71
3
 72
8
 73
4
 74
0
 40
0
 40
0
 40
0
 40
0
 40
1
 40
1
 40
1
 40
1
 10
687.916667
 20
-158.480208
 30
0.0
 10
693.670031
 20
-158.480208
 30
0.0
 10
698.912750
 20
-155.178473
 30
0.0
 10
701.398510
 20
-149.989729
 30
0.0
  0
SPLINE
  5
17b
100
AcDbEntity
  8
0
 62
7
100
AcDbSpline
 70
8
 71
3
 72
8
 73
4
 74
0
 40
0
 40
0
 40
0
 40
0
 40
1
 40
1
 40
1
 40
1
 10
701.398510
 20
-149.989729
 30
0.0
 10
703.884006
 20
-144.801250
 30
0.0
 10
703.171483
 20
-138.646512
 30
0.0
 10
699.566006
 20
-134.163148
 30
0.0
  0
SPLINE
  5
17c
100
AcDbEntity
  8
0
 62
7
100
AcDbSpline
 70
8
 71
3
 72
8
 73
4
 74
0
 40
0
 40
0
 40
0
 40
0
 40
1
 40
1
 40
1
 40
1
 10
699.566006
 20
-134.163148
 30
0.0
 10
695.960529
 20
-129.679519
 30
0.0
 10
690.102125
 20
-127.663129
 30
0.0
 10
684.500896
 20
-128.977844
 30
0.0
  0
SPLINE
  5
17d
100
AcDbEntity
  8
0
 62
7
100
AcDbSpline
 70
8
 71
3
 72
8
 73
4
 74
0
 40
0
 40
0
 40
0
 40
0
 40
1
 40
1
 40
1
 40
1
 10
684.500896
 20
-128.977844
 30
0.0
 10
680.733758
 20
-129.861817
 30
0.0
 10
676.793583
 20
-128.505827
 30
0.0
 10
674.368677
 20
-125.490371
 30
0.0
  0
SPLINE
  5
17e
100
AcDbEntity
  8
0
 62
7
100
AcDbSpline
 70
8
 71
3
 72
8
 73
4
 74
0
 40
0
 40
0
 40
0
 40
0
 40
1
 40
1
 40
1
 40
1
 10
674.368677
 20
-125.490371
 30
0.0
 10
671.943771
 20
-122.474915
 30
0.0
 10
671.464346
 20
-118.335482
 30
0.0
 10
673.136248
 20
-114.845760
 30
0.0
  0
SPLINE
  5
17f
100
AcDbEntity
  8
0
 62
7
100
AcDbSpline
 70
8
 71
3
 72
8
 73
4
 74
0
 40
0
 40
0
 40
0
 40
0
 40
1
 40
1
 40
1
 40
1
 10
673.136248
 20
-114.845760
 30
0.0
 10
674.807885
 20
-111.356038
 30
0.0
 10
678.333988
 20
-109.135417
 30
0.0
 10
682.203519
 20
-109.135417
 30
0.0
  0
LINE
  5
180
100
AcDbEntity
  8
0
 62
7
100
AcDbLine
 10
682.203519
 20
-109.135417
 30
0.0
 11
746.546481
 21
-109.135417
 31
0.0
  0
SPLINE
  5
181
100
AcDbEntity
  8
0
 62
7
100
AcDbSpline
 70
8
 71
3
 72
8
 73
4
 74
0
 40
0
 40
0
 40
0
 40
0
 40
1
 40
1
 40
1
 40
1
 10
746.546481
 20
-109.135417
 30
0.0
 10
750.416013
 20
-109.135417
 30
0.0
 10
753.942115
 20
-111.356038
 30
0.0
 10
755.613752
 20
-114.845760
 30
0.0
  0
SPLINE
  5
182
100
AcDbEntity
  8
0
 62
7
100
AcDbSpline
 70
8
 71
3
 72
8
 73
4
 74
0
 40
0
 40
0
 40
0
 40
0
 40
1
 40
1
 40
1
 40
1
 10
755.613752
 20
-114.845760
 30
0.0
 10
757.285654
 20
-118.335482
 30
0.0
 10
756.806229
 20
-122.474915
 30
0.0
 10
754.381323
 20
-125.490371
 30
0.0
  0
SPLINE
  5
183
100
AcDbEntity
  8
0
 62
7
100
AcDbSpline
 70
8
 71
3
 72
8
 73
4
 74
0
 40
0
 40
0
 40
0
 40
0
 40
1
 40
1
 40
1
 40
1
 10
754.381323
 20
-125.490371
 30
0.0
 10
751.956417
 20
-128.505827
 30
0.0
 10
748.016242
 20
-129.861817
 30
0.0
 10
744.249104
 20
-128.977844
 30
0.0
  0
SPLINE
  5
184
100
AcDbEntity
  8
0
 62
7
100
AcDbSpline
 70
8
 71
3
 72
8
 73
4
 74
0
 40
0
 40
0
 40
0
 40
0
 40
1
 40
1
 40
1
 40
1
 10
744.249104
 20
-128.977844
 30
0.0
 10
738.031131
 20
-127.518402
 30
0.0
 10
731.572917
 20
-130.170585
 30
0.0
 10
728.175138
 20
-135.578669
 30
0.0
  0
SPLINE
  5
185
100
AcDbEntity
  8
0
 62
7
100
AcDbSpline
 70
8
 71
3
 72
8
 73
4
 74
0
 40
0
 40
0
 40
0
 40
0
 40
1
 40
1
 40
1
 40
1
 10
728.175138
 20
-135.578669
 30
0.0
 10
724.777358
 20
-140.987017
 30
0.0
 10
725.190902
 20
-147.956406
 30
0.0
 10
729.204367
 20
-152.924752
 30
0.0
  0
SPLINE
  5
186
100
AcDbEntity
  8
0
 62
7
100
AcDbSpline
 70
8
 71
3
 72
8
 73
4
 74
0
 40
0
 40
0
 40
0
 40
0
 40
1
 40
1
 40
1
 40
1
 10
729.204367
 20
-152.924752
 30
0.0
 10
733.217831
 20
-157.893362
 30
0.0
 10
739.944333
 20
-159.763173
 30
0.0
 10
745.946142
 20
-157.578773
 30
0.0
  0
LINE
  5
187
100
AcDbEntity
  8
0
 62
7
100
AcDbLine
 10
545.041667
 20
-54.951131
 30
0.0
 11
545.041667
 21
-90.614583
 31
0.0
  0
SPLINE
  5
188
100
AcDbEntity
  8
0
 62
7
100
AcDbSpline
 70
8
 71
3
 72
8
 73
4
 74
0
 40
0
 40
0
 40
0
 40
0
 40
1
 40
1
 40
1
 40
1
 10
545.041667
 20
-90.614583
 30
0.0
 10
545.041667
 20
-93.537091
 30
0.0
 10
542.672508
 20
-95.906250
 30
0.0
 10
539.750000
 20
-95.906250
 30
0.0
  0
LINE
  5
189
100
AcDbEntity
  8
0
 62
7
100
AcDbLine
 10
539.750000
 20
-95.906250
 30
0.0
 11
357.517171
 21
-95.906250
 31
0.0
  0
SPLINE
  5
18a
100
AcDbEntity
  8
0
 62
7
100
AcDbSpline
 70
8
 71
3
 72
8
 73
4
 74
0
 40
0
 40
0
 40
0
 40
0
 40
1
 40
1
 40
1
 40
1
 10
357.517171
 20
-95.906250
 30
0.0
 10
348.428998
 20
-95.906250
 30
0.0
 10
340.211569
 20
-90.501553
 30
0.0
 10
336.612177
 20
-82.156833
 30
0.0
  0
SPLINE
  5
18b
100
AcDbEntity
  8
0
 62
7
100
AcDbSpline
 70
8
 71
3
 72
8
 73
4
 74
0
 40
0
 40
0
 40
0
 40
0
 40
1
 40
1
 40
1
 40
1
 10
336.612177
 20
-82.156833
 30
0.0
 10
333.012521
 20
-73.812086
 30
0.0
 10
334.720406
 20
-64.126087
 30
0.0
 10
340.956900
 20
-57.515737
 30
0.0
  0
SPLINE
  5
18c
100
AcDbEntity
  8
0
 62
7
100
AcDbSpline
 70
8
 71
3
 72
8
 73
4
 74
0
 40
0
 40
0
 40
0
 40
0
 40
1
 40
1
 40
1
 40
1
 10
340.956900
 20
-57.515737
 30
0.0
 10
347.193394
 20
-50.905387
 30
0.0
 10
356.763902
 20
-48.637115
 30
0.0
 10
365.303858
 20
-51.745440
 30
0.0
  0
SPLINE
  5
18d
100
AcDbEntity
  8
0
 62
7
100
AcDbSpline
 70
8
 71
3
 72
8
 73
4
 74
0
 40
0
 40
0
 40
0
 40
0
 40
1
 40
1
 40
1
 40
1
 10
365.303858
 20
-51.745440
 30
0.0
 10
371.305667
 20
-53.929840
 30
0.0
 10
378.032169
 20
-52.060029
 30
0.0
 10
382.045633
 20
-47.091419
 30
0.0
  0
SPLINE
  5
18e
100
AcDbEntity
  8
0
 62
7
100
AcDbSpline
 70
8
 71
3
 72
8
 73
4
 74
0
 40
0
 40
0
 40
0
 40
0
 40
1
 40
1
 40
1
 40
1
 10
382.045633
 20
-47.091419
 30
0.0
 10
386.059098
 20
-42.123073
 30
0.0
 10
386.472642
 20
-35.153683
 30
0.0
 10
383.074863
 20
-29.745335
 30
0.0
  0
SPLINE
  5
18f
100
AcDbEntity
  8
0
 62
7
100
AcDbSpline
 70
8
 71
3
 72
8
 73
4
 74
0
 40
0
 40
0
 40
0
 40
0
 40
1
 40
1
 40
1
 40
1
 10
383.074863
 20
-29.745335
 30
0.0
 10
379.677083
 20
-24.337252
 30
0.0
 10
373.218869
 20
-21.685069
 30
0.0
 10
367.000896
 20
-23.144510
 30
0.0
  0
SPLINE
  5
190
100
AcDbEntity
  8
0
 62
7
100
AcDbSpline
 70
8
 71
3
 72
8
 73
4
 74
0
 40
0
 40
0
 40
0
 40
0
 40
1
 40
1
 40
1
 40
1
 10
367.000896
 20
-23.144510
 30
0.0
 10
363.233758
 20
-24.028483
 30
0.0
 10
359.293583
 20
-22.672494
 30
0.0
 10
356.868677
 20
-19.657037
 30
0.0
  0
SPLINE
  5
191
100
AcDbEntity
  8
0
 62
7
100
AcDbSpline
 70
8
 71
3
 72
8
 73
4
 74
0
 40
0
 40
0
 40
0
 40
0
 40
1
 40
1
 40
1
 40
1
 10
356.868677
 20
-19.657037
 30
0.0
 10
354.443771
 20
-16.641581
 30
0.0
 10
353.964346
 20
-12.502175
 30
0.0
 10
355.636248
 20
-9.012321
 30
0.0
  0
SPLINE
  5
192
100
AcDbEntity
  8
0
 62
7
100
AcDbSpline
 70
8
 71
3
 72
8
 73
4
 74
0
 40
0
 40
0
 40
0
 40
0
 40
1
 40
1
 40
1
 40
1
 10
355.636248
 20
-9.012321
 30
0.0
 10
357.307885
 20
-5.522731
 30
0.0
 10
360.833988
 20
-3.302083
 30
0.0
 10
364.703519
 20
-3.302083
 30
0.0
  0
LINE
  5
193
100
AcDbEntity
  8
0
 62
7
100
AcDbLine
 10
364.703519
 20
-3.302083
 30
0.0
 11
429.046481
 21
-3.302083
 31
0.0
  0
SPLINE
  5
194
100
AcDbEntity
  8
0
 62
7
100
AcDbSpline
 70
8
 71
3
 72
8
 73
4
 74
0
 40
0
 40
0
 40
0
 40
0
 40
1
 40
1
 40
1
 40
1
 10
429.046481
 20
-3.302083
 30
0.0
 10
432.916013
 20
-3.302083
 30
0.0
 10
436.442115
 20
-5.522731
 30
0.0
 10
438.113752
 20
-9.012321
 30
0.0
  0
SPLINE
  5
195
100
AcDbEntity
  8
0
 62
7
100
AcDbSpline
 70
8
 71
3
 72
8
 73
4
 74
0
 40
0
 40
0
 40
0
 40
0
 40
1
 40
1
 40
1
 40
1
 10
438.113752
 20
-9.012321
 30
0.0
 10
439.785654
 20
-12.502175
 30
0.0
 10
439.306229
 20
-16.641581
 30
0.0
 10
436.881323
 20
-19.657037
 30
0.0
  0
SPLINE
  5
196
100
AcDbEntity
  8
0
 62
7
100
AcDbSpline
 70
8
 71
3
 72
8
 73
4
 74
0
 40
0
 40
0
 40
0
 40
0
 40
1
 40
1
 40
1
 40
1
 10
436.881323
 20
-19.657037
 30
0.0
 10
434.456417
 20
-22.672494
 30
0.0
 10
430.516242
 20
-24.028483
 30
0.0
 10
426.749104
 20
-23.144510
 30
0.0
  0
SPLINE
  5
197
100
AcDbEntity
  8
0
 62
7
100
AcDbSpline
 70
8
 71
3
 72
8
 73
4
 74
0
 40
0
 40
0
 40
0
 40
0
 40
1
 40
1
 40
1
 40
1
 10
426.749104
 20
-23.144510
 30
0.0
 10
421.147875
 20
-21.829796
 30
0.0
 10
415.289471
 20
-23.846185
 30
0.0
 10
411.683994
 20
-28.329815
 30
0.0
  0
SPLINE
  5
198
100
AcDbEntity
  8
0
 62
7
100
AcDbSpline
 70
8
 71
3
 72
8
 73
4
 74
0
 40
0
 40
0
 40
0
 40
0
 40
1
 40
1
 40
1
 40
1
 10
411.683994
 20
-28.329815
 30
0.0
 10
408.078517
 20
-32.813179
 30
0.0
 10
407.365994
 20
-38.967917
 30
0.0
 10
409.851490
 20
-44.156396
 30
0.0
  0
SPLINE
  5
199
100
AcDbEntity
  8
0
 62
7
100
AcDbSpline
 70
8
 71
3
 72
8
 73
4
 74
0
 40
0
 40
0
 40
0
 40
0
 40
1
 40
1
 40
1
 40
1
 10
409.851490
 20
-44.156396
 30
0.0
 10
412.337250
 20
-49.345140
 30
0.0
 10
417.579969
 20
-52.646875
 30
0.0
 10
423.333333
 20
-52.646875
 30
0.0
  0
LINE
  5
19a
100
AcDbEntity
  8
0
 62
7
100
AcDbLine
 10
423.333333
 20
-52.646875
 30
0.0
 11
476.250000
 21
-52.646875
 31
0.0
  0
SPLINE
  5
19b
100
AcDbEntity
  8
0
 62
7
100
AcDbSpline
 70
8
 71
3
 72
8
 73
4
 74
0
 40
0
 40
0
 40
0
 40
0
 40
1
 40
1
 40
1
 40
1
 10
476.250000
 20
-52.646875
 30
0.0
 10
482.003365
 20
-52.646875
 30
0.0
 10
487.246083
 20
-49.345140
 30
0.0
 10
489.731844
 20
-44.156396
 30
0.0
  0
SPLINE
  5
19c
100
AcDbEntity
  8
0
 62
7
100
AcDbSpline
 70
8
 71
3
 72
8
 73
4
 74
0
 40
0
 40
0
 40
0
 40
0
 40
1
 40
1
 40
1
 40
1
 10
489.731844
 20
-44.156396
 30
0.0
 10
492.217340
 20
-38.967917
 30
0.0
 10
491.504817
 20
-32.813179
 30
0.0
 10
487.899340
 20
-28.329815
 30
0.0
  0
SPLINE
  5
19d
100
AcDbEntity
  8
0
 62
7
100
AcDbSpline
 70
8
 71
3
 72
8
 73
4
 74
0
 40
0
 40
0
 40
0
 40
0
 40
1
 40
1
 40
1
 40
1
 10
487.899340
 20
-28.329815
 30
0.0
 10
484.293863
 20
-23.846185
 30
0.0
 10
478.435458
 20
-21.829796
 30
0.0
 10
472.834229
 20
-23.144510
 30
0.0
  0
SPLINE
  5
19e
100
AcDbEntity
  8
0
 62
7
100
AcDbSpline
 70
8
 71
3
 72
8
 73
4
 74
0
 40
0
 40
0
 40
0
 40
0
 40
1
 40
1
 40
1
 40
1
 10
472.834229
 20
-23.144510
 30
0.0
 10
469.067092
 20
-24.028483
 30
0.0
 10
465.126917
 20
-22.672494
 30
0.0
 10
462.702010
 20
-19.657037
 30
0.0
  0
SPLINE
  5
19f
100
AcDbEntity
  8
0
 62
7
100
AcDbSpline
 70
8
 71
3
 72
8
 73
4
 74
0
 40
0
 40
0
 40
0
 40
0
 40
1
 40
1
 40
1
 40
1
 10
462.702010
 20
-19.657037
 30
0.0
 10
460.277104
 20
-16.641581
 30
0.0
 10
459.797679
 20
-12.502175
 30
0.0
 10
461.469581
 20
-9.012321
 30
0.0
  0
SPLINE
  5
1a0
100
AcDbEntity
  8
0
 62
7
100
AcDbSpline
 70
8
 71
3
 72
8
 73
4
 74
0
 40
0
 40
0
 40
0
 40
0
 40
1
 40
1
 40
1
 40
1
 10
461.469581
 20
-9.012321
 30
0.0
 10
463.141219
 20
-5.522731
 30
0.0
 10
466.667321
 20
-3.302083
 30
0.0
 10
470.536852
 20
-3.302083
 30
0.0
  0
LINE
  5
1a1
100
AcDbEntity
  8
0
 62
7
100
AcDbLine
 10
470.536852
 20
-3.302083
 30
0.0
 11
534.879762
 21
-3.302083
 31
0.0
  0
SPLINE
  5
1a2
100
AcDbEntity
  8
0
 62
7
100
AcDbSpline
 70
8
 71
3
 72
8
 73
4
 74
0
 40
0
 40
0
 40
0
 40
0
 40
1
 40
1
 40
1
 40
1
 10
534.879762
 20
-3.302083
 30
0.0
 10
538.749266
 20
-3.302083
 30
0.0
 10
542.275369
 20
-5.522731
 30
0.0
 10
543.947165
 20
-9.012321
 30
0.0
  0
SPLINE
  5
1a3
100
AcDbEntity
  8
0
 62
7
100
AcDbSpline
 70
8
 71
3
 72
8
 73
4
 74
0
 40
0
 40
0
 40
0
 40
0
 40
1
 40
1
 40
1
 40
1
 10
543.947165
 20
-9.012321
 30
0.0
 10
545.618935
 20
-12.502175
 30
0.0
 10
545.139668
 20
-16.641581
 30
0.0
 10
542.714736
 20
-19.657037
 30
0.0
  0
SPLINE
  5
1a4
100
AcDbEntity
  8
0
 62
7
100
AcDbSpline
 70
8
 71
3
 72
8
 73
4
 74
0
 40
0
 40
0
 40
0
 40
0
 40
1
 40
1
 40
1
 40
1
 10
542.714736
 20
-19.657037
 30
0.0
 10
540.289803
 20
-22.672494
 30
0.0
 10
536.349575
 20
-24.028483
 30
0.0
 10
532.582438
 20
-23.144510
 30
0.0
  0
SPLINE
  5
1a5
100
AcDbEntity
  8
0
 62
7
100
AcDbSpline
 70
8
 71
3
 72
8
 73
4
 74
0
 40
0
 40
0
 40
0
 40
0
 40
1
 40
1
 40
1
 40
1
 10
532.582438
 20
-23.144510
 30
0.0
 10
526.003838
 20
-21.600402
 30
0.0
 10
519.207485
 20
-24.661631
 30
0.0
 10
516.004175
 20
-30.611317
 30
0.0
  0
SPLINE
  5
1a6
100
AcDbEntity
  8
0
 62
7
100
AcDbSpline
 70
8
 71
3
 72
8
 73
4
 74
0
 40
0
 40
0
 40
0
 40
0
 40
1
 40
1
 40
1
 40
1
 10
516.004175
 20
-30.611317
 30
0.0
 10
512.800865
 20
-36.561267
 30
0.0
 10
513.987256
 20
-43.920387
 30
0.0
 10
518.898188
 20
-48.561973
 30
0.0
  0
SPLINE
  5
1a7
100
AcDbEntity
  8
0
 62
7
100
AcDbSpline
 70
8
 71
3
 72
8
 73
4
 74
0
 40
0
 40
0
 40
0
 40
0
 40
1
 40
1
 40
1
 40
1
 10
518.898188
 20
-48.561973
 30
0.0
 10
523.808854
 20
-53.203558
 30
0.0
 10
531.223061
 20
-53.973760
 30
0.0
 10
536.983120
 20
-50.440515
 30
0.0
  0
SPLINE
  5
1a8
100
AcDbEntity
  8
0
 62
7
100
AcDbSpline
 70
8
 71
3
 72
8
 73
4
 74
0
 40
0
 40
0
 40
0
 40
0
 40
1
 40
1
 40
1
 40
1
 10
536.983120
 20
-50.440515
 30
0.0
 10
538.616102
 20
-49.438802
 30
0.0
 10
540.662945
 20
-49.398056
 30
0.0
 10
542.334609
 20
-50.333623
 30
0.0
  0
SPLINE
  5
1a9
100
AcDbEntity
  8
0
 62
7
100
AcDbSpline
 70
8
 71
3
 72
8
 73
4
 74
0
 40
0
 40
0
 40
0
 40
0
 40
1
 40
1
 40
1
 40
1
 10
542.334609
 20
-50.333623
 30
0.0
 10
544.006273
 20
-51.269454
 30
0.0
 10
545.041667
 20
-53.035548
 30
0.0
 10
545.041667
 20
-54.951131
 30
0.0
  0
LINE
  5
1aa
100
AcDbEntity
  8
0
 62
7
100
AcDbLine
 10
545.041667
 20
-160.784465
 30
0.0
 11
545.041667
 21
-196.447917
 31
0.0
  0
SPLINE
  5
1ab
100
AcDbEntity
  8
0
 62
7
100
AcDbSpline
 70
8
 71
3
 72
8
 73
4
 74
0
 40
0
 40
0
 40
0
 40
0
 40
1
 40
1
 40
1
 40
1
 10
545.041667
 20
-196.447917
 30
0.0
 10
545.041667
 20
-199.370504
 30
0.0
 10
542.672508
 20
-201.739583
 30
0.0
 10
539.750000
 20
-201.739583
 30
0.0
  0
LINE
  5
1ac
100
AcDbEntity
  8
0
 62
7
100
AcDbLine
 10
539.750000
 20
-201.739583
 30
0.0
 11
357.517171
 21
-201.739583
 31
0.0
  0
SPLINE
  5
1ad
100
AcDbEntity
  8
0
 62
7
100
AcDbSpline
 70
8
 71
3
 72
8
 73
4
 74
0
 40
0
 40
0
 40
0
 40
0
 40
1
 40
1
 40
1
 40
1
 10
357.517171
 20
-201.739583
 30
0.0
 10
348.428998
 20
-201.739583
 30
0.0
 10
340.211569
 20
-196.334940
 30
0.0
 10
336.612177
 20
-187.990246
 30
0.0
  0
SPLINE
  5
1ae
100
AcDbEntity
  8
0
 62
7
100
AcDbSpline
 70
8
 71
3
 72
8
 73
4
 74
0
 40
0
 40
0
 40
0
 40
0
 40
1
 40
1
 40
1
 40
1
 10
336.612177
 20
-187.990246
 30
0.0
 10
333.012521
 20
-179.645552
 30
0.0
 10
334.720406
 20
-169.959421
 30
0.0
 10
340.956900
 20
-163.349071
 30
0.0
  0
SPLINE
  5
1af
100
AcDbEntity
  8
0
 62
7
100
AcDbSpline
 70
8
 71
3
 72
8
 73
4
 74
0
 40
0
 40
0
 40
0
 40
0
 40
1
 40
1
 40
1
 40
1
 10
340.956900
 20
-163.349071
 30
0.0
 10
347.193394
 20
-156.738721
 30
0.0
 10
356.763902
 20
-154.470448
 30
0.0
 10
365.303858
 20
-157.578773
 30
0.0
  0
SPLINE
  5
1b0
100
AcDbEntity
  8
0
 62
7
100
AcDbSpline
 70
8
 71
3
 72
8
 73
4
 74
0
 40
0
 40
0
 40
0
 40
0
 40
1
 40
1
 40
1
 40
1
 10
365.303858
 20
-157.578773
 30
0.0
 10
371.305667
 20
-159.763173
 30
0.0
 10
378.032169
 20
-157.893362
 30
0.0
 10
382.045633
 20
-152.924752
 30
0.0
  0
SPLINE
  5
1b1
100
AcDbEntity
  8
0
 62
7
100
AcDbSpline
 70
8
 71
3
 72
8
 73
4
 74
0
 40
0
 40
0
 40
0
 40
0
 40
1
 40
1
 40
1
 40
1
 10
382.045633
 20
-152.924752
 30
0.0
 10
386.059098
 20
-147.956406
 30
0.0
 10
386.472642
 20
-140.987017
 30
0.0
 10
383.074863
 20
-135.578669
 30
0.0
  0
SPLINE
  5
1b2
100
AcDbEntity
  8
0
 62
7
100
AcDbSpline
 70
8
 71
3
 72
8
 73
4
 74
0
 40
0
 40
0
 40
0
 40
0
 40
1
 40
1
 40
1
 40
1
 10
383.074863
 20
-135.578669
 30
0.0
 10
379.677083
 20
-130.170585
 30
0.0
 10
373.218869
 20
-127.518402
 30
0.0
 10
367.000896
 20
-128.977844
 30
0.0
  0
SPLINE
  5
1b3
100
AcDbEntity
  8
0
 62
7
100
AcDbSpline
 70
8
 71
3
 72
8
 73
4
 74
0
 40
0
 40
0
 40
0
 40
0
 40
1
 40
1
 40
1
 40
1
 10
367.000896
 20
-128.977844
 30
0.0
 10
363.233758
 20
-129.861817
 30
0.0
 10
359.293583
 20
-128.505827
 30
0.0
 10
356.868677
 20
-125.490371
 30
0.0
  0
SPLINE
  5
1b4
100
AcDbEntity
  8
0
 62
7
100
AcDbSpline
 70
8
 71
3
 72
8
 73
4
 74
0
 40
0
 40
0
 40
0
 40
0
 40
1
 40
1
 40
1
 40
1
 10
356.868677
 20
-125.490371
 30
0.0
 10
354.443771
 20
-122.474915
 30
0.0
 10
353.964346
 20
-118.335482
 30
0.0
 10
355.636248
 20
-114.845760
 30
0.0
  0
SPLINE
  5
1b5
100
AcDbEntity
  8
0
 62
7
100
AcDbSpline
 70
8
 71
3
 72
8
 73
4
 74
0
 40
0
 40
0
 40
0
 40
0
 40
1
 40
1
 40
1
 40
1
 10
355.636248
 20
-114.845760
 30
0.0
 10
357.307885
 20
-111.356038
 30
0.0
 10
360.833988
 20
-109.135417
 30
0.0
 10
364.703519
 20
-109.135417
 30
0.0
  0
LINE
  5
1b6
100
AcDbEntity
  8
0
 62
7
100
AcDbLine
 10
364.703519
 20
-109.135417
 30
0.0
 11
429.046481
 21
-109.135417
 31
0.0
  0
SPLINE
  5
1b7
100
AcDbEntity
  8
0
 62
7
100
AcDbSpline
 70
8
 71
3
 72
8
 73
4
 74
0
 40
0
 40
0
 40
0
 40
0
 40
1
 40
1
 40
1
 40
1
 10
429.046481
 20
-109.135417
 30
0.0
 10
432.916013
 20
-109.135417
 30
0.0
 10
436.442115
 20
-111.356038
 30
0.0
 10
438.113752
 20
-114.845760
 30
0.0
  0
SPLINE
  5
1b8
100
AcDbEntity
  8
0
 62
7
100
AcDbSpline
 70
8
 71
3
 72
8
 73
4
 74
0
 40
0
 40
0
 40
0
 40
0
 40
1
 40
1
 40
1
 40
1
 10
438.113752
 20
-114.845760
 30
0.0
 10
439.785654
 20
-118.335482
 30
0.0
 10
439.306229
 20
-122.474915
 30
0.0
 10
436.881323
 20
-125.490371
 30
0.0
  0
SPLINE
  5
1b9
100
AcDbEntity
  8
0
 62
7
100
AcDbSpline
 70
8
 71
3
 72
8
 73
4
 74
0
 40
0
 40
0
 40
0
 40
0
 40
1
 40
1
 40
1
 40
1
 10
436.881323
 20
-125.490371
 30
0.0
 10
434.456417
 20
-128.505827
 30
0.0
 10
430.516242
 20
-129.861817
 30
0.0
 10
426.749104
 20
-128.977844
 30
0.0
  0
SPLINE
  5
1ba
100
AcDbEntity
  8
0
 62
7
100
AcDbSpline
 70
8
 71
3
 72
8
 73
4
 74
0
 40
0
 40
0
 40
0
 40
0
 40
1
 40
1
 40
1
 40
1
 10
426.749104
 20
-128.977844
 30
0.0
 10
421.147875
 20
-127.663129
 30
0.0
 10
415.289471
 20
-129.679519
 30
0.0
 10
411.683994
 20
-134.163148
 30
0.0
  0
SPLINE
  5
1bb
100
AcDbEntity
  8
0
 62
7
100
AcDbSpline
 70
8
 71
3
 72
8
 73
4
 74
0
 40
0
 40
0
 40
0
 40
0
 40
1
 40
1
 40
1
 40
1
 10
411.683994
 20
-134.163148
 30
0.0
 10
408.078517
 20
-138.646512
 30
0.0
 10
407.365994
 20
-144.801250
 30
0.0
 10
409.851490
 20
-149.989729
 30
0.0
  0
SPLINE
  5
1bc
100
AcDbEntity
  8
0
 62
7
100
AcDbSpline
 70
8
 71
3
 72
8
 73
4
 74
0
 40
0
 40
0
 40
0
 40
0
 40
1
 40
1
 40
1
 40
1
 10
409.851490
 20
-149.989729
 30
0.0
 10
412.337250
 20
-155.178473
 30
0.0
 10
417.579969
 20
-158.480208
 30
0.0
 10
423.333333
 20
-158.480208
 30
0.0
  0
LINE
  5
1bd
100
AcDbEntity
  8
0
 62
7
100
AcDbLine
 10
423.333333
 20
-158.480208
 30
0.0
 11
476.250000
 21
-158.480208
 31
0.0
  0
SPLINE
  5
1be
100
AcDbEntity
  8
0
 62
7
100
AcDbSpline
 70
8
 71
3
 72
8
 73
4
 74
0
 40
0
 40
0
 40
0
 40
0
 40
1
 40
1
 40
1
 40
1
 10
476.250000
 20
-158.480208
 30
0.0
 10
482.003365
 20
-158.480208
 30
0.0
 10
487.246083
 20
-155.178473
 30
0.0
 10
489.731844
 20
-149.989729
 30
0.0
  0
SPLINE
  5
1bf
100
AcDbEntity
  8
0
 62
7
100
AcDbSpline
 70
8
 71
3
 72
8
 73
4
 74
0
 40
0
 40
0
 40
0
 40
0
 40
1
 40
1
 40
1
 40
1
 10
489.731844
 20
-149.989729
 30
0.0
 10
492.217340
 20
-144.801250
 30
0.0
 10
491.504817
 20
-138.646512
 30
0.0
 10
487.899340
 20
-134.163148
 30
0.0
  0
SPLINE
  5
1c0
100
AcDbEntity
  8
0
 62
7
100
AcDbSpline
 70
8
 71
3
 72
8
 73
4
 74
0
 40
0
 40
0
 40
0
 40
0
 40
1
 40
1
 40
1
 40
1
 10
487.899340
 20
-134.163148
 30
0.0
 10
484.293863
 20
-129.679519
 30
0.0
 10
478.435458
 20
-127.663129
 30
0.0
 10
472.834229
 20
-128.977844
 30
0.0
  0
SPLINE
  5
1c1
100
AcDbEntity
  8
0
 62
7
100
AcDbSpline
 70
8
 71
3
 72
8
 73
4
 74
0
 40
0
 40
0
 40
0
 40
0
 40
1
 40
1
 40
1
 40
1
 10
472.834229
 20
-128.977844
 30
0.0
 10
469.067092
 20
-129.861817
 30
0.0
 10
465.126917
 20
-128.505827
 30
0.0
 10
462.702010
 20
-125.490371
 30
0.0
  0
SPLINE
  5
1c2
100
AcDbEntity
  8
0
 62
7
100
AcDbSpline
 70
8
 71
3
 72
8
 73
4
 74
0
 40
0
 40
0
 40
0
 40
0
 40
1
 40
1
 40
1
 40
1
 10
462.702010
 20
-125.490371
 30
0.0
 10
460.277104
 20
-122.474915
 30
0.0
 10
459.797679
 20
-118.335482
 30
0.0
 10
461.469581
 20
-114.845760
 30
0.0
  0
SPLINE
  5
1c3
100
AcDbEntity
  8
0
 62
7
100
AcDbSpline
 70
8
 71
3
 72
8
 73
4
 74
0
 40
0
 40
0
 40
0
 40
0
 40
1
 40
1
 40
1
 40
1
 10
461.469581
 20
-114.845760
 30
0.0
 10
463.141219
 20
-111.356038
 30
0.0
 10
466.667321
 20
-109.135417
 30
0.0
 10
470.536852
 20
-109.135417
 30
0.0
  0
LINE
  5
1c4
100
AcDbEntity
  8
0
 62
7
100
AcDbLine
 10
470.536852
 20
-109.135417
 30
0.0
 11
534.879762
 21
-109.135417
 31
0.0
  0
SPLINE
  5
1c5
100
AcDbEntity
  8
0
 62
7
100
AcDbSpline
 70
8
 71
3
 72
8
 73
4
 74
0
 40
0
 40
0
 40
0
 40
0
 40
1
 40
1
 40
1
 40
1
 10
534.879762
 20
-109.135417
 30
0.0
 10
538.749266
 20
-109.135417
 30
0.0
 10
542.275369
 20
-111.356038
 30
0.0
 10
543.947165
 20
-114.845760
 30
0.0
  0
SPLINE
  5
1c6
100
AcDbEntity
  8
0
 62
7
100
AcDbSpline
 70
8
 71
3
 72
8
 73
4
 74
0
 40
0
 40
0
 40
0
 40
0
 40
1
 40
1
 40
1
 40
1
 10
543.947165
 20
-114.845760
 30
0.0
 10
545.618935
 20
-118.335482
 30
0.0
 10
545.139668
 20
-122.474915
 30
0.0
 10
542.714736
 20
-125.490371
 30
0.0
  0
SPLINE
  5
1c7
100
AcDbEntity
  8
0
 62
7
100
AcDbSpline
 70
8
 71
3
 72
8
 73
4
 74
0
 40
0
 40
0
 40
0
 40
0
 40
1
 40
1
 40
1
 40
1
 10
542.714736
 20
-125.490371
 30
0.0
 10
540.289803
 20
-128.505827
 30
0.0
 10
536.349575
 20
-129.861817
 30
0.0
 10
532.582438
 20
-128.977844
 30
0.0
  0
SPLINE
  5
1c8
100
AcDbEntity
  8
0
 62
7
100
AcDbSpline
 70
8
 71
3
 72
8
 73
4
 74
0
 40
0
 40
0
 40
0
 40
0
 40
1
 40
1
 40
1
 40
1
 10
532.582438
 20
-128.977844
 30
0.0
 10
526.003838
 20
-127.433735
 30
0.0
 10
519.207485
 20
-130.494965
 30
0.0
 10
516.004175
 20
-136.444650
 30
0.0
  0
SPLINE
  5
1c9
100
AcDbEntity
  8
0
 62
7
100
AcDbSpline
 70
8
 71
3
 72
8
 73
4
 74
0
 40
0
 40
0
 40
0
 40
0
 40
1
 40
1
 40
1
 40
1
 10
516.004175
 20
-136.444650
 30
0.0
 10
512.800865
 20
-142.394600
 30
0.0
 10
513.987256
 20
-149.753721
 30
0.0
 10
518.898188
 20
-154.395306
 30
0.0
  0
SPLINE
  5
1ca
100
AcDbEntity
  8
0
 62
7
100
AcDbSpline
 70
8
 71
3
 72
8
 73
4
 74
0
 40
0
 40
0
 40
0
 40
0
 40
1
 40
1
 40
1
 40
1
 10
518.898188
 20
-154.395306
 30
0.0
 10
523.808854
 20
-159.036892
 30
0.0
 10
531.223061
 20
-159.807094
 30
0.0
 10
536.983120
 20
-156.273848
 30
0.0
  0
SPLINE
  5
1cb
100
AcDbEntity
  8
0
 62
7
100
AcDbSpline
 70
8
 71
3
 72
8
 73
4
 74
0
 40
0
 40
0
 40
0
 40
0
 40
1
 40
1
 40
1
 40
1
 10
536.983120
 20
-156.273848
 30
0.0
 10
538.616102
 20
-155.272135
 30
0.0
 10
540.662945
 20
-155.231390
 30
0.0
 10
542.334609
 20
-156.166956
 30
0.0
  0
SPLINE
  5
1cc
100
AcDbEntity
  8
0
 62
7
100
AcDbSpline
 70
8
 71
3
 72
8
 73
4
 74
0
 40
0
 40
0
 40
0
 40
0
 40
1
 40
1
 40
1
 40
1
 10
542.334609
 20
-156.166956
 30
0.0
 10
544.006273
 20
-157.102787
 30
0.0
 10
545.041667
 20
-158.868881
 30
0.0
 10
545.041667
 20
-160.784465
 30
0.0
  0
SPLINE
  5
1cd
100
AcDbEntity
  8
0
 62
7
100
AcDbSpline
 70
8
 71
3
 72
8
 73
4
 74
0
 40
0
 40
0
 40
0
 40
0
 40
1
 40
1
 40
1
 40
1
 10
745.946142
 20
-51.745440
 30
0.0
 10
754.486098
 20
-48.637115
 30
0.0
 10
764.056606
 20
-50.905387
 30
0.0
 10
770.293100
 20
-57.515737
 30
0.0
  0
SPLINE
  5
1ce
100
AcDbEntity
  8
0
 62
7
100
AcDbSpline
 70
8
 71
3
 72
8
 73
4
 74
0
 40
0
 40
0
 40
0
 40
0
 40
1
 40
1
 40
1
 40
1
 10
770.293100
 20
-57.515737
 30
0.0
 10
776.529594
 20
-64.126087
 30
0.0
 10
778.237479
 20
-73.812086
 30
0.0
 10
774.637823
 20
-82.156833
 30
0.0
  0
SPLINE
  5
1cf
100
AcDbEntity
  8
0
 62
7
100
AcDbSpline
 70
8
 71
3
 72
8
 73
4
 74
0
 40
0
 40
0
 40
0
 40
0
 40
1
 40
1
 40
1
 40
1
 10
774.637823
 20
-82.156833
 30
0.0
 10
771.038431
 20
-90.501553
 30
0.0
 10
762.821002
 20
-95.906250
 30
0.0
 10
753.732829
 20
-95.906250
 30
0.0
  0
LINE
  5
1d0
100
AcDbEntity
  8
0
 62
7
100
AcDbLine
 10
753.732829
 20
-95.906250
 30
0.0
 11
571.500000
 21
-95.906250
 31
0.0
  0
SPLINE
  5
1d1
100
AcDbEntity
  8
0
 62
7
100
AcDbSpline
 70
8
 71
3
 72
8
 73
4
 74
0
 40
0
 40
0
 40
0
 40
0
 40
1
 40
1
 40
1
 40
1
 10
571.500000
 20
-95.906250
 30
0.0
 10
568.577492
 20
-95.906250
 30
0.0
 10
566.208333
 20
-93.537091
 30
0.0
 10
566.208333
 20
-90.614583
 30
0.0
  0
LINE
  5
1d2
100
AcDbEntity
  8
0
 62
7
100
AcDbLine
 10
566.208333
 20
-90.614583
 30
0.0
 11
566.208333
 21
-54.951131
 31
0.0
  0
SPLINE
  5
1d3
100
AcDbEntity
  8
0
 62
7
100
AcDbSpline
 70
8
 71
3
 72
8
 73
4
 74
0
 40
0
 40
0
 40
0
 40
0
 40
1
 40
1
 40
1
 40
1
 10
566.208333
 20
-54.951131
 30
0.0
 10
566.208333
 20
-53.035548
 30
0.0
 10
567.243727
 20
-51.269454
 30
0.0
 10
568.915391
 20
-50.333623
 30
0.0
  0
SPLINE
  5
1d4
100
AcDbEntity
  8
0
 62
7
100
AcDbSpline
 70
8
 71
3
 72
8
 73
4
 74
0
 40
0
 40
0
 40
0
 40
0
 40
1
 40
1
 40
1
 40
1
 10
568.915391
 20
-50.333623
 30
0.0
 10
570.587055
 20
-49.398056
 30
0.0
 10
572.633898
 20
-49.438802
 30
0.0
 10
574.266880
 20
-50.440515
 30
0.0
  0
SPLINE
  5
1d5
100
AcDbEntity
  8
0
 62
7
100
AcDbSpline
 70
8
 71
3
 72
8
 73
4
 74
0
 40
0
 40
0
 40
0
 40
0
 40
1
 40
1
 40
1
 40
1
 10
574.266880
 20
-50.440515
 30
0.0
 10
580.026939
 20
-53.973760
 30
0.0
 10
587.441146
 20
-53.203558
 30
0.0
 10
592.351812
 20
-48.561973
 30
0.0
  0
SPLINE
  5
1d6
100
AcDbEntity
  8
0
 62
7
100
AcDbSpline
 70
8
 71
3
 72
8
 73
4
 74
0
 40
0
 40
0
 40
0
 40
0
 40
1
 40
1
 40
1
 40
1
 10
592.351812
 20
-48.561973
 30
0.0
 10
597.262744
 20
-43.920387
 30
0.0
 10
598.449135
 20
-36.561267
 30
0.0
 10
595.245825
 20
-30.611317
 30
0.0
  0
SPLINE
  5
1d7
100
AcDbEntity
  8
0
 62
7
100
AcDbSpline
 70
8
 71
3
 72
8
 73
4
 74
0
 40
0
 40
0
 40
0
 40
0
 40
1
 40
1
 40
1
 40
1
 10
595.245825
 20
-30.611317
 30
0.0
 10
592.042515
 20
-24.661631
 30
0.0
 10
585.246163
 20
-21.600402
 30
0.0
 10
578.667563
 20
-23.144510
 30
0.0
  0
SPLINE
  5
1d8
100
AcDbEntity
  8
0
 62
7
100
AcDbSpline
 70
8
 71
3
 72
8
 73
4
 74
0
 40
0
 40
0
 40
0
 40
0
 40
1
 40
1
 40
1
 40
1
 10
578.667563
 20
-23.144510
 30
0.0
 10
574.900425
 20
-24.028483
 30
0.0
 10
570.960197
 20
-22.672494
 30
0.0
 10
568.535264
 20
-19.657037
 30
0.0
  0
SPLINE
  5
1d9
100
AcDbEntity
  8
0
 62
7
100
AcDbSpline
 70
8
 71
3
 72
8
 73
4
 74
0
 40
0
 40
0
 40
0
 40
0
 40
1
 40
1
 40
1
 40
1
 10
568.535264
 20
-19.657037
 30
0.0
 10
566.110332
 20
-16.641581
 30
0.0
 10
565.631065
 20
-12.502175
 30
0.0
 10
567.302835
 20
-9.012321
 30
0.0
  0
SPLINE
  5
1da
100
AcDbEntity
  8
0
 62
7
100
AcDbSpline
 70
8
 71
3
 72
8
 73
4
 74
0
 40
0
 40
0
 40
0
 40
0
 40
1
 40
1
 40
1
 40
1
 10
567.302835
 20
-9.012321
 30
0.0
 10
568.974631
 20
-5.522731
 30
0.0
 10
572.500734
 20
-3.302083
 30
0.0
 10
576.370238
 20
-3.302083
 30
0.0
  0
LINE
  5
1db
100
AcDbEntity
  8
0
 62
7
100
AcDbLine
 10
576.370238
 20
-3.302083
 30
0.0
 11
640.713148
 21
-3.302083
 31
0.0
  0
SPLINE
  5
1dc
100
AcDbEntity
  8
0
 62
7
100
AcDbSpline
 70
8
 71
3
 72
8
 73
4
 74
0
 40
0
 40
0
 40
0
 40
0
 40
1
 40
1
 40
1
 40
1
 10
640.713148
 20
-3.302083
 30
0.0
 10
644.582679
 20
-3.302083
 30
0.0
 10
648.108781
 20
-5.522731
 30
0.0
 10
649.780419
 20
-9.012321
 30
0.0
  0
SPLINE
  5
1dd
100
AcDbEntity
  8
0
 62
7
100
AcDbSpline
 70
8
 71
3
 72
8
 73
4
 74
0
 40
0
 40
0
 40
0
 40
0
 40
1
 40
1
 40
1
 40
1
 10
649.780419
 20
-9.012321
 30
0.0
 10
651.452321
 20
-12.502175
 30
0.0
 10
650.972896
 20
-16.641581
 30
0.0
 10
648.547990
 20
-19.657037
 30
0.0
  0
SPLINE
  5
1de
100
AcDbEntity
  8
0
 62
7
100
AcDbSpline
 70
8
 71
3
 72
8
 73
4
 74
0
 40
0
 40
0
 40
0
 40
0
 40
1
 40
1
 40
1
 40
1
 10
648.547990
 20
-19.657037
 30
0.0
 10
646.123083
 20
-22.672494
 30
0.0
 10
642.182908
 20
-24.028483
 30
0.0
 10
638.415771
 20
-23.144510
 30
0.0
  0
SPLINE
  5
1df
100
AcDbEntity
  8
0
 62
7
100
AcDbSpline
 70
8
 71
3
 72
8
 73
4
 74
0
 40
0
 40
0
 40
0
 40
0
 40
1
 40
1
 40
1
 40
1
 10
638.415771
 20
-23.144510
 30
0.0
 10
632.814542
 20
-21.829796
 30
0.0
 10
626.956138
 20
-23.846185
 30
0.0
 10
623.350660
 20
-28.329815
 30
0.0
  0
SPLINE
  5
1e0
100
AcDbEntity
  8
0
 62
7
100
AcDbSpline
 70
8
 71
3
 72
8
 73
4
 74
0
 40
0
 40
0
 40
0
 40
0
 40
1
 40
1
 40
1
 40
1
 10
623.350660
 20
-28.329815
 30
0.0
 10
619.745183
 20
-32.813179
 30
0.0
 10
619.032660
 20
-38.967917
 30
0.0
 10
621.518156
 20
-44.156396
 30
0.0
  0
SPLINE
  5
1e1
100
AcDbEntity
  8
0
 62
7
100
AcDbSpline
 70
8
 71
3
 72
8
 73
4
 74
0
 40
0
 40
0
 40
0
 40
0
 40
1
 40
1
 40
1
 40
1
 10
621.518156
 20
-44.156396
 30
0.0
 10
624.003917
 20
-49.345140
 30
0.0
 10
629.246635
 20
-52.646875
 30
0.0
 10
635.000000
 20
-52.646875
 30
0.0
  0
LINE
  5
1e2
100
AcDbEntity
  8
0
 62
7
100
AcDbLine
 10
635.000000
 20
-52.646875
 30
0.0
 11
687.916667
 21
-52.646875
 31
0.0
  0
SPLINE
  5
1e3
100
AcDbEntity
  8
0
 62
7
100
AcDbSpline
 70
8
 71
3
 72
8
 73
4
 74
0
 40
0
 40
0
 40
0
 40
0
 40
1
 40
1
 40
1
 40
1
 10
687.916667
 20
-52.646875
 30
0.0
 10
693.670031
 20
-52.646875
 30
0.0
 10
698.912750
 20
-49.345140
 30
0.0
 10
701.398510
 20
-44.156396
 30
0.0
  0
SPLINE
  5
1e4
100
AcDbEntity
  8
0
 62
7
100
AcDbSpline
 70
8
 71
3
 72
8
 73
4
 74
0
 40
0
 40
0
 40
0
 40
0
 40
1
 40
1
 40
1
 40
1
 10
701.398510
 20
-44.156396
 30
0.0
 10
703.884006
 20
-38.967917
 30
0.0
 10
703.171483
 20
-32.813179
 30
0.0
 10
699.566006
 20
-28.329815
 30
0.0
  0
SPLINE
  5
1e5
100
AcDbEntity
  8
0
 62
7
100
AcDbSpline
 70
8
 71
3
 72
8
 73
4
 74
0
 40
0
 40
0
 40
0
 40
0
 40
1
 40
1
 40
1
 40
1
 10
699.566006
 20
-28.329815
 30
0.0
 10
695.960529
 20
-23.846185
 30
0.0
 10
690.102125
 20
-21.829796
 30
0.0
 10
684.500896
 20
-23.144510
 30
0.0
  0
SPLINE
  5
1e6
100
AcDbEntity
  8
0
 62
7
100
AcDbSpline
 70
8
 71
3
 72
8
 73
4
 74
0
 40
0
 40
0
 40
0
 40
0
 40
1
 40
1
 40
1
 40
1
 10
684.500896
 20
-23.144510
 30
0.0
 10
680.733758
 20
-24.028483
 30
0.0
 10
676.793583
 20
-22.672494
 30
0.0
 10
674.368677
 20
-19.657037
 30
0.0
  0
SPLINE
  5
1e7
100
AcDbEntity
  8
0
 62
7
100
AcDbSpline
 70
8
 71
3
 72
8
 73
4
 74
0
 40
0
 40
0
 40
0
 40
0
 40
1
 40
1
 40
1
 40
1
 10
674.368677
 20
-19.657037
 30
0.0
 10
671.943771
 20
-16.641581
 30
0.0
 10
671.464346
 20
-12.502175
 30
0.0
 10
673.136248
 20
-9.012321
 30
0.0
  0
SPLINE
  5
1e8
100
AcDbEntity
  8
0
 62
7
100
AcDbSpline
 70
8
 71
3
 72
8
 73
4
 74
0
 40
0
 40
0
 40
0
 40
0
 40
1
 40
1
 40
1
 40
1
 10
673.136248
 20
-9.012321
 30
0.0
 10
674.807885
 20
-5.522731
 30
0.0
 10
678.333988
 20
-3.302083
 30
0.0
 10
682.203519
 20
-3.302083
 30
0.0
  0
LINE
  5
1e9
100
AcDbEntity
  8
0
 62
7
100
AcDbLine
 10
682.203519
 20
-3.302083
 30
0.0
 11
746.546481
 21
-3.302083
 31
0.0
  0
SPLINE
  5
1ea
100
AcDbEntity
  8
0
 62
7
100
AcDbSpline
 70
8
 71
3
 72
8
 73
4
 74
0
 40
0
 40
0
 40
0
 40
0
 40
1
 40
1
 40
1
 40
1
 10
746.546481
 20
-3.302083
 30
0.0
 10
750.416013
 20
-3.302083
 30
0.0
 10
753.942115
 20
-5.522731
 30
0.0
 10
755.613752
 20
-9.012321
 30
0.0
  0
SPLINE
  5
1eb
100
AcDbEntity
  8
0
 62
7
100
AcDbSpline
 70
8
 71
3
 72
8
 73
4
 74
0
 40
0
 40
0
 40
0
 40
0
 40
1
 40
1
 40
1
 40
1
 10
755.613752
 20
-9.012321
 30
0.0
 10
757.285654
 20
-12.502175
 30
0.0
 10
756.806229
 20
-16.641581
 30
0.0
 10
754.381323
 20
-19.657037
 30
0.0
  0
SPLINE
  5
1ec
100
AcDbEntity
  8
0
 62
7
100
AcDbSpline
 70
8
 71
3
 72
8
 73
4
 74
0
 40
0
 40
0
 40
0
 40
0
 40
1
 40
1
 40
1
 40
1
 10
754.381323
 20
-19.657037
 30
0.0
 10
751.956417
 20
-22.672494
 30
0.0
 10
748.016242
 20
-24.028483
 30
0.0
 10
744.249104
 20
-23.144510
 30
0.0
  0
SPLINE
  5
1ed
100
AcDbEntity
  8
0
 62
7
100
AcDbSpline
 70
8
 71
3
 72
8
 73
4
 74
0
 40
0
 40
0
 40
0
 40
0
 40
1
 40
1
 40
1
 40
1
 10
744.249104
 20
-23.144510
 30
0.0
 10
738.031131
 20
-21.685069
 30
0.0
 10
731.572917
 20
-24.337252
 30
0.0
 10
728.175138
 20
-29.745335
 30
0.0
  0
SPLINE
  5
1ee
100
AcDbEntity
  8
0
 62
7
100
AcDbSpline
 70
8
 71
3
 72
8
 73
4
 74
0
 40
0
 40
0
 40
0
 40
0
 40
1
 40
1
 40
1
 40
1
 10
728.175138
 20
-29.745335
 30
0.0
 10
724.777358
 20
-35.153683
 30
0.0
 10
725.190902
 20
-42.123073
 30
0.0
 10
729.204367
 20
-47.091419
 30
0.0
  0
SPLINE
  5
1ef
100
AcDbEntity
  8
0
 62
7
100
AcDbSpline
 70
8
 71
3
 72
8
 73
4
 74
0
 40
0
 40
0
 40
0
 40
0
 40
1
 40
1
 40
1
 40
1
 10
729.204367
 20
-47.091419
 30
0.0
 10
733.217831
 20
-52.060029
 30
0.0
 10
739.944333
 20
-53.929840
 30
0.0
 10
745.946142
 20
-51.745440
 30
0.0
  0
LINE
  5
1f0
100
AcDbEntity
  8
0
 62
7
100
AcDbLine
 10
339.255365
 20
-294.519169
 30
0.0
 11
339.255365
 21
-286.117590
 31
0.0
  0
LINE
  5
1f1
100
AcDbEntity
  8
0
 62
7
100
AcDbLine
 10
339.255365
 20
-286.117590
 30
0.0
 11
331.979323
 21
-281.916800
 31
0.0
  0
LINE
  5
1f2
100
AcDbEntity
  8
0
 62
7
100
AcDbLine
 10
331.979323
 20
-281.916800
 30
0.0
 11
324.703281
 21
-286.117590
 31
0.0
  0
LINE
  5
1f3
100
AcDbEntity
  8
0
 62
7
100
AcDbLine
 10
324.703281
 20
-286.117590
 30
0.0
 11
324.703281
 21
-294.519169
 31
0.0
  0
LINE
  5
1f4
100
AcDbEntity
  8
0
 62
7
100
AcDbLine
 10
324.703281
 20
-294.519169
 30
0.0
 11
331.979323
 21
-298.719958
 31
0.0
  0
LINE
  5
1f5
100
AcDbEntity
  8
0
 62
7
100
AcDbLine
 10
331.979323
 20
-298.719958
 30
0.0
 11
339.255365
 21
-294.519169
 31
0.0
  0
LINE
  5
1f6
100
AcDbEntity
  8
0
 62
7
100
AcDbLine
 10
282.712583
 20
-3.630431
 30
0.0
 11
282.712583
 21
4.771148
 31
0.0
  0
LINE
  5
1f7
100
AcDbEntity
  8
0
 62
7
100
AcDbLine
 10
282.712583
 20
4.771148
 30
0.0
 11
275.436542
 21
8.972202
 31
0.0
  0
LINE
  5
1f8
100
AcDbEntity
  8
0
 62
7
100
AcDbLine
 10
275.436542
 20
8.972202
 30
0.0
 11
268.160500
 21
4.771148
 31
0.0
  0
LINE
  5
1f9
100
AcDbEntity
  8
0
 62
7
100
AcDbLine
 10
268.160500
 20
4.771148
 30
0.0
 11
268.160500
 21
-3.630431
 31
0.0
  0
LINE
  5
1fa
100
AcDbEntity
  8
0
 62
7
100
AcDbLine
 10
268.160500
 20
-3.630431
 30
0.0
 11
275.436542
 21
-7.831221
 31
0.0
  0
LINE
  5
1fb
100
AcDbEntity
  8
0
 62
7
100
AcDbLine
 10
275.436542
 20
-7.831221
 30
0.0
 11
282.712583
 21
-3.630431
 31
0.0
  0
LINE
  5
1fc
100
AcDbEntity
  8
0
 62
7
100
AcDbLine
 10
339.255365
 20
94.305090
 30
0.0
 11
339.255365
 21
102.706669
 31
0.0
  0
LINE
  5
1fd
100
AcDbEntity
  8
0
 62
7
100
AcDbLine
 10
339.255365
 20
102.706669
 30
0.0
 11
331.979323
 21
106.907458
 31
0.0
  0
LINE
  5
1fe
100
AcDbEntity
  8
0
 62
7
100
AcDbLine
 10
331.979323
 20
106.907458
 30
0.0
 11
324.703281
 21
102.706669
 31
0.0
  0
LINE
  5
1ff
100
AcDbEntity
  8
0
 62
7
100
AcDbLine
 10
324.703281
 20
102.706669
 30
0.0
 11
324.703281
 21
94.305090
 31
0.0
  0
LINE
  5
200
100
AcDbEntity
  8
0
 62
7
100
AcDbLine
 10
324.703281
 20
94.305090
 30
0.0
 11
331.979323
 21
90.104300
 31
0.0
  0
LINE
  5
201
100
AcDbEntity
  8
0
 62
7
100
AcDbLine
 10
331.979323
 20
90.104300
 30
0.0
 11
339.255365
 21
94.305090
 31
0.0
  0
LINE
  5
202
100
AcDbEntity
  8
0
 62
7
100
AcDbLine
 10
619.444088
 20
190.783021
 30
0.0
 11
619.444088
 21
199.183542
 31
0.0
  0
LINE
  5
203
100
AcDbEntity
  8
0
 62
7
100
AcDbLine
 10
619.444088
 20
199.183542
 30
0.0
 11
612.168046
 21
203.385125
 31
0.0
  0
LINE
  5
204
100
AcDbEntity
  8
0
 62
7
100
AcDbLine
 10
612.168046
 20
203.385125
 30
0.0
 11
604.892004
 21
199.183542
 31
0.0
  0
LINE
  5
205
100
AcDbEntity
  8
0
 62
7
100
AcDbLine
 10
604.892004
 20
199.183542
 30
0.0
 11
604.892004
 21
190.783021
 31
0.0
  0
LINE
  5
206
100
AcDbEntity
  8
0
 62
7
100
AcDbLine
 10
604.892004
 20
190.783021
 30
0.0
 11
612.168046
 21
186.581438
 31
0.0
  0
LINE
  5
207
100
AcDbEntity
  8
0
 62
7
100
AcDbLine
 10
612.168046
 20
186.581438
 30
0.0
 11
619.444088
 21
190.783021
 31
0.0
  0
LINE
  5
208
100
AcDbEntity
  8
0
 62
7
100
AcDbLine
 10
786.546719
 20
94.305090
 30
0.0
 11
786.546719
 21
102.706669
 31
0.0
  0
LINE
  5
209
100
AcDbEntity
  8
0
 62
7
100
AcDbLine
 10
786.546719
 20
102.706669
 30
0.0
 11
779.270677
 21
106.907458
 31
0.0
  0
LINE
  5
20a
100
AcDbEntity
  8
0
 62
7
100
AcDbLine
 10
779.270677
 20
106.907458
 30
0.0
 11
771.994635
 21
102.706669
 31
0.0
  0
LINE
  5
20b
100
AcDbEntity
  8
0
 62
7
100
AcDbLine
 10
771.994635
 20
102.706669
 30
0.0
 11
771.994635
 21
94.305090
 31
0.0
  0
LINE
  5
20c
100
AcDbEntity
  8
0
 62
7
100
AcDbLine
 10
771.994635
 20
94.305090
 30
0.0
 11
779.270677
 21
90.104300
 31
0.0
  0
LINE
  5
20d
100
AcDbEntity
  8
0
 62
7
100
AcDbLine
 10
779.270677
 20
90.104300
 30
0.0
 11
786.546719
 21
94.305090
 31
0.0
  0
LINE
  5
20e
100
AcDbEntity
  8
0
 62
7
100
AcDbLine
 10
506.357996
 20
-390.996042
 30
0.0
 11
506.357996
 21
-382.595521
 31
0.0
  0
LINE
  5
20f
100
AcDbEntity
  8
0
 62
7
100
AcDbLine
 10
506.357996
 20
-382.595521
 30
0.0
 11
499.081954
 21
-378.393937
 31
0.0
  0
LINE
  5
210
100
AcDbEntity
  8
0
 62
7
100
AcDbLine
 10
499.081954
 20
-378.393937
 30
0.0
 11
491.805913
 21
-382.595521
 31
0.0
  0
LINE
  5
211
100
AcDbEntity
  8
0
 62
7
100
AcDbLine
 10
491.805913
 20
-382.595521
 30
0.0
 11
491.805913
 21
-390.996042
 31
0.0
  0
LINE
  5
212
100
AcDbEntity
  8
0
 62
7
100
AcDbLine
 10
491.805913
 20
-390.996042
 30
0.0
 11
499.081954
 21
-395.197625
 31
0.0
  0
LINE
  5
213
100
AcDbEntity
  8
0
 62
7
100
AcDbLine
 10
499.081954
 20
-395.197625
 30
0.0
 11
506.357996
 21
-390.996042
 31
0.0
  0
LINE
  5
214
100
AcDbEntity
  8
0
 62
7
100
AcDbLine
 10
843.089500
 20
-3.630431
 30
0.0
 11
843.089500
 21
4.771148
 31
0.0
  0
LINE
  5
215
100
AcDbEntity
  8
0
 62
7
100
AcDbLine
 10
843.089500
 20
4.771148
 30
0.0
 11
835.813458
 21
8.972202
 31
0.0
  0
LINE
  5
216
100
AcDbEntity
  8
0
 62
7
100
AcDbLine
 10
835.813458
 20
8.972202
 30
0.0
 11
828.537417
 21
4.771148
 31
0.0
  0
LINE
  5
217
100
AcDbEntity
  8
0
 62
7
100
AcDbLine
 10
828.537417
 20
4.771148
 30
0.0
 11
828.537417
 21
-3.630431
 31
0.0
  0
LINE
  5
218
100
AcDbEntity
  8
0
 62
7
100
AcDbLine
 10
828.537417
 20
-3.630431
 30
0.0
 11
835.813458
 21
-7.831221
 31
0.0
  0
LINE
  5
219
100
AcDbEntity
  8
0
 62
7
100
AcDbLine
 10
835.813458
 20
-7.831221
 30
0.0
 11
843.089500
 21
-3.630431
 31
0.0
  0
LINE
  5
21a
100
AcDbEntity
  8
0
 62
7
100
AcDbLine
 10
619.444088
 20
-390.996042
 30
0.0
 11
619.444088
 21
-382.595521
 31
0.0
  0
LINE
  5
21b
100
AcDbEntity
  8
0
 62
7
100
AcDbLine
 10
619.444088
 20
-382.595521
 30
0.0
 11
612.168046
 21
-378.393937
 31
0.0
  0
LINE
  5
21c
100
AcDbEntity
  8
0
 62
7
100
AcDbLine
 10
612.168046
 20
-378.393937
 30
0.0
 11
604.892004
 21
-382.595521
 31
0.0
  0
LINE
  5
21d
100
AcDbEntity
  8
0
 62
7
100
AcDbLine
 10
604.892004
 20
-382.595521
 30
0.0
 11
604.892004
 21
-390.996042
 31
0.0
  0
LINE
  5
21e
100
AcDbEntity
  8
0
 62
7
100
AcDbLine
 10
604.892004
 20
-390.996042
 30
0.0
 11
612.168046
 21
-395.197625
 31
0.0
  0
LINE
  5
21f
100
AcDbEntity
  8
0
 62
7
100
AcDbLine
 10
612.168046
 20
-395.197625
 30
0.0
 11
619.444088
 21
-390.996042
 31
0.0
  0
LINE
  5
220
100
AcDbEntity
  8
0
 62
7
100
AcDbLine
 10
282.712583
 20
-196.583648
 30
0.0
 11
282.712583
 21
-188.182069
 31
0.0
  0
LINE
  5
221
100
AcDbEntity
  8
0
 62
7
100
AcDbLine
 10
282.712583
 20
-188.182069
 30
0.0
 11
275.436542
 21
-183.981279
 31
0.0
  0
LINE
  5
222
100
AcDbEntity
  8
0
 62
7
100
AcDbLine
 10
275.436542
 20
-183.981279
 30
0.0
 11
268.160500
 21
-188.182069
 31
0.0
  0
LINE
  5
223
100
AcDbEntity
  8
0
 62
7
100
AcDbLine
 10
268.160500
 20
-188.182069
 30
0.0
 11
268.160500
 21
-196.583648
 31
0.0
  0
LINE
  5
224
100
AcDbEntity
  8
0
 62
7
100
AcDbLine
 10
268.160500
 20
-196.583648
 30
0.0
 11
275.436542
 21
-200.784702
 31
0.0
  0
LINE
  5
225
100
AcDbEntity
  8
0
 62
7
100
AcDbLine
 10
275.436542
 20
-200.784702
 30
0.0
 11
282.712583
 21
-196.583648
 31
0.0
  0
LINE
  5
226
100
AcDbEntity
  8
0
 62
7
100
AcDbLine
 10
506.357996
 20
190.783021
 30
0.0
 11
506.357996
 21
199.183542
 31
0.0
  0
LINE
  5
227
100
AcDbEntity
  8
0
 62
7
100
AcDbLine
 10
506.357996
 20
199.183542
 30
0.0
 11
499.081954
 21
203.385125
 31
0.0
  0
LINE
  5
228
100
AcDbEntity
  8
0
 62
7
100
AcDbLine
 10
499.081954
 20
203.385125
 30
0.0
 11
491.805913
 21
199.183542
 31
0.0
  0
LINE
  5
229
100
AcDbEntity
  8
0
 62
7
100
AcDbLine
 10
491.805913
 20
199.183542
 30
0.0
 11
491.805913
 21
190.783021
 31
0.0
  0
LINE
  5
22a
100
AcDbEntity
  8
0
 62
7
100
AcDbLine
 10
491.805913
 20
190.783021
 30
0.0
 11
499.081954
 21
186.581438
 31
0.0
  0
LINE
  5
22b
100
AcDbEntity
  8
0
 62
7
100
AcDbLine
 10
499.081954
 20
186.581438
 30
0.0
 11
506.357996
 21
190.783021
 31
0.0
  0
LINE
  5
22c
100
AcDbEntity
  8
0
 62
7
100
AcDbLine
 10
786.546719
 20
-294.519169
 30
0.0
 11
786.546719
 21
-286.117590
 31
0.0
  0
LINE
  5
22d
100
AcDbEntity
  8
0
 62
7
100
AcDbLine
 10
786.546719
 20
-286.117590
 30
0.0
 11
779.270677
 21
-281.916800
 31
0.0
  0
LINE
  5
22e
100
AcDbEntity
  8
0
 62
7
100
AcDbLine
 10
779.270677
 20
-281.916800
 30
0.0
 11
771.994635
 21
-286.117590
 31
0.0
  0
LINE
  5
22f
100
AcDbEntity
  8
0
 62
7
100
AcDbLine
 10
771.994635
 20
-286.117590
 30
0.0
 11
771.994635
 21
-294.519169
 31
0.0
  0
LINE
  5
230
100
AcDbEntity
  8
0
 62
7
100
AcDbLine
 10
771.994635
 20
-294.519169
 30
0.0
 11
779.270677
 21
-298.719958
 31
0.0
  0
LINE
  5
231
100
AcDbEntity
  8
0
 62
7
100
AcDbLine
 10
779.270677
 20
-298.719958
 30
0.0
 11
786.546719
 21
-294.519169
 31
0.0
  0
LINE
  5
232
100
AcDbEntity
  8
0
 62
7
100
AcDbLine
 10
843.089500
 20
-196.583648
 30
0.0
 11
843.089500
 21
-188.182069
 31
0.0
  0
LINE
  5
233
100
AcDbEntity
  8
0
 62
7
100
AcDbLine
 10
843.089500
 20
-188.182069
 30
0.0
 11
835.813458
 21
-183.981279
 31
0.0
  0
LINE
  5
234
100
AcDbEntity
  8
0
 62
7
100
AcDbLine
 10
835.813458
 20
-183.981279
 30
0.0
 11
828.537417
 21
-188.182069
 31
0.0
  0
LINE
  5
235
100
AcDbEntity
  8
0
 62
7
100
AcDbLine
 10
828.537417
 20
-188.182069
 30
0.0
 11
828.537417
 21
-196.583648
 31
0.0
  0
LINE
  5
236
100
AcDbEntity
  8
0
 62
7
100
AcDbLine
 10
828.537417
 20
-196.583648
 30
0.0
 11
835.813458
 21
-200.784702
 31
0.0
  0
LINE
  5
237
100
AcDbEntity
  8
0
 62
7
100
AcDbLine
 10
835.813458
 20
-200.784702
 30
0.0
 11
843.089500
 21
-196.583648
 31
0.0
  0
SPLINE
  5
238
100
AcDbEntity
  8
0
 62
7
100
AcDbSpline
 70
8
 71
3
 72
8
 73
4
 74
0
 40
0
 40
0
 40
0
 40
0
 40
1
 40
1
 40
1
 40
1
 10
821.205812
 20
-246.718750
 30
0.0
 10
821.205812
 20
-249.129898
 30
0.0
 10
819.251071
 20
-251.084375
 30
0.0
 10
816.839923
 20
-251.084375
 30
0.0
  0
SPLINE
  5
239
100
AcDbEntity
  8
0
 62
7
100
AcDbSpline
 70
8
 71
3
 72
8
 73
4
 74
0
 40
0
 40
0
 40
0
 40
0
 40
1
 40
1
 40
1
 40
1
 10
816.839923
 20
-251.084375
 30
0.0
 10
814.428775
 20
-251.084375
 30
0.0
 10
812.474298
 20
-249.129898
 30
0.0
 10
812.474298
 20
-246.718750
 30
0.0
  0
SPLINE
  5
23a
100
AcDbEntity
  8
0
 62
7
100
AcDbSpline
 70
8
 71
3
 72
8
 73
4
 74
0
 40
0
 40
0
 40
0
 40
0
 40
1
 40
1
 40
1
 40
1
 10
812.474298
 20
-246.718750
 30
0.0
 10
812.474298
 20
-244.307602
 30
0.0
 10
814.428775
 20
-242.353125
 30
0.0
 10
816.839923
 20
-242.353125
 30
0.0
  0
SPLINE
  5
23b
100
AcDbEntity
  8
0
 62
7
100
AcDbSpline
 70
8
 71
3
 72
8
 73
4
 74
0
 40
0
 40
0
 40
0
 40
0
 40
1
 40
1
 40
1
 40
1
 10
816.839923
 20
-242.353125
 30
0.0
 10
819.251071
 20
-242.353125
 30
0.0
 10
821.205812
 20
-244.307602
 30
0.0
 10
821.205812
 20
-246.718750
 30
0.0
  0
SPLINE
  5
23c
100
AcDbEntity
  8
0
 62
7
100
AcDbSpline
 70
8
 71
3
 72
8
 73
4
 74
0
 40
0
 40
0
 40
0
 40
0
 40
1
 40
1
 40
1
 40
1
 10
298.775702
 20
-246.718750
 30
0.0
 10
298.775702
 20
-249.129898
 30
0.0
 10
296.821225
 20
-251.084375
 30
0.0
 10
294.410077
 20
-251.084375
 30
0.0
  0
SPLINE
  5
23d
100
AcDbEntity
  8
0
 62
7
100
AcDbSpline
 70
8
 71
3
 72
8
 73
4
 74
0
 40
0
 40
0
 40
0
 40
0
 40
1
 40
1
 40
1
 40
1
 10
294.410077
 20
-251.084375
 30
0.0
 10
291.998929
 20
-251.084375
 30
0.0
 10
290.044188
 20
-249.129898
 30
0.0
 10
290.044188
 20
-246.718750
 30
0.0
  0
SPLINE
  5
23e
100
AcDbEntity
  8
0
 62
7
100
AcDbSpline
 70
8
 71
3
 72
8
 73
4
 74
0
 40
0
 40
0
 40
0
 40
0
 40
1
 40
1
 40
1
 40
1
 10
290.044188
 20
-246.718750
 30
0.0
 10
290.044188
 20
-244.307602
 30
0.0
 10
291.998929
 20
-242.353125
 30
0.0
 10
294.410077
 20
-242.353125
 30
0.0
  0
SPLINE
  5
23f
100
AcDbEntity
  8
0
 62
7
100
AcDbSpline
 70
8
 71
3
 72
8
 73
4
 74
0
 40
0
 40
0
 40
0
 40
0
 40
1
 40
1
 40
1
 40
1
 10
294.410077
 20
-242.353125
 30
0.0
 10
296.821225
 20
-242.353125
 30
0.0
 10
298.775702
 20
-244.307602
 30
0.0
 10
298.775702
 20
-246.718750
 30
0.0
  0
SPLINE
  5
240
100
AcDbEntity
  8
0
 62
7
100
AcDbSpline
 70
8
 71
3
 72
8
 73
4
 74
0
 40
0
 40
0
 40
0
 40
0
 40
1
 40
1
 40
1
 40
1
 10
411.823958
 20
160.725825
 30
0.0
 10
411.823958
 20
158.314942
 30
0.0
 10
409.869481
 20
156.360200
 30
0.0
 10
407.458333
 20
156.360200
 30
0.0
  0
SPLINE
  5
241
100
AcDbEntity
  8
0
 62
7
100
AcDbSpline
 70
8
 71
3
 72
8
 73
4
 74
0
 40
0
 40
0
 40
0
 40
0
 40
1
 40
1
 40
1
 40
1
 10
407.458333
 20
156.360200
 30
0.0
 10
405.047185
 20
156.360200
 30
0.0
 10
403.092708
 20
158.314942
 30
0.0
 10
403.092708
 20
160.725825
 30
0.0
  0
SPLINE
  5
242
100
AcDbEntity
  8
0
 62
7
100
AcDbSpline
 70
8
 71
3
 72
8
 73
4
 74
0
 40
0
 40
0
 40
0
 40
0
 40
1
 40
1
 40
1
 40
1
 10
403.092708
 20
160.725825
 30
0.0
 10
403.092708
 20
163.136973
 30
0.0
 10
405.047185
 20
165.091450
 30
0.0
 10
407.458333
 20
165.091450
 30
0.0
  0
SPLINE
  5
243
100
AcDbEntity
  8
0
 62
7
100
AcDbSpline
 70
8
 71
3
 72
8
 73
4
 74
0
 40
0
 40
0
 40
0
 40
0
 40
1
 40
1
 40
1
 40
1
 10
407.458333
 20
165.091450
 30
0.0
 10
409.869481
 20
165.091450
 30
0.0
 10
411.823958
 20
163.136973
 30
0.0
 10
411.823958
 20
160.725825
 30
0.0
  0
SPLINE
  5
244
100
AcDbEntity
  8
0
 62
7
100
AcDbSpline
 70
8
 71
3
 72
8
 73
4
 74
0
 40
0
 40
0
 40
0
 40
0
 40
1
 40
1
 40
1
 40
1
 10
427.698958
 20
68.135417
 30
0.0
 10
427.698958
 20
65.724269
 30
0.0
 10
425.744481
 20
63.769792
 30
0.0
 10
423.333333
 20
63.769792
 30
0.0
  0
SPLINE
  5
245
100
AcDbEntity
  8
0
 62
7
100
AcDbSpline
 70
8
 71
3
 72
8
 73
4
 74
0
 40
0
 40
0
 40
0
 40
0
 40
1
 40
1
 40
1
 40
1
 10
423.333333
 20
63.769792
 30
0.0
 10
420.922185
 20
63.769792
 30
0.0
 10
418.967708
 20
65.724269
 30
0.0
 10
418.967708
 20
68.135417
 30
0.0
  0
SPLINE
  5
246
100
AcDbEntity
  8
0
 62
7
100
AcDbSpline
 70
8
 71
3
 72
8
 73
4
 74
0
 40
0
 40
0
 40
0
 40
0
 40
1
 40
1
 40
1
 40
1
 10
418.967708
 20
68.135417
 30
0.0
 10
418.967708
 20
70.546565
 30
0.0
 10
420.922185
 20
72.501042
 30
0.0
 10
423.333333
 20
72.501042
 30
0.0
  0
SPLINE
  5
247
100
AcDbEntity
  8
0
 62
7
100
AcDbSpline
 70
8
 71
3
 72
8
 73
4
 74
0
 40
0
 40
0
 40
0
 40
0
 40
1
 40
1
 40
1
 40
1
 10
423.333333
 20
72.501042
 30
0.0
 10
425.744481
 20
72.501042
 30
0.0
 10
427.698958
 20
70.546565
 30
0.0
 10
427.698958
 20
68.135417
 30
0.0
  0
SPLINE
  5
248
100
AcDbEntity
  8
0
 62
7
100
AcDbSpline
 70
8
 71
3
 72
8
 73
4
 74
0
 40
0
 40
0
 40
0
 40
0
 40
1
 40
1
 40
1
 40
1
 10
480.615625
 20
68.135417
 30
0.0
 10
480.615625
 20
65.724269
 30
0.0
 10
478.661148
 20
63.769792
 30
0.0
 10
476.250000
 20
63.769792
 30
0.0
  0
SPLINE
  5
249
100
AcDbEntity
  8
0
 62
7
100
AcDbSpline
 70
8
 71
3
 72
8
 73
4
 74
0
 40
0
 40
0
 40
0
 40
0
 40
1
 40
1
 40
1
 40
1
 10
476.250000
 20
63.769792
 30
0.0
 10
473.838852
 20
63.769792
 30
0.0
 10
471.884375
 20
65.724269
 30
0.0
 10
471.884375
 20
68.135417
 30
0.0
  0
SPLINE
  5
24a
100
AcDbEntity
  8
0
 62
7
100
AcDbSpline
 70
8
 71
3
 72
8
 73
4
 74
0
 40
0
 40
0
 40
0
 40
0
 40
1
 40
1
 40
1
 40
1
 10
471.884375
 20
68.135417
 30
0.0
 10
471.884375
 20
70.546565
 30
0.0
 10
473.838852
 20
72.501042
 30
0.0
 10
476.250000
 20
72.501042
 30
0.0
  0
SPLINE
  5
24b
100
AcDbEntity
  8
0
 62
7
100
AcDbSpline
 70
8
 71
3
 72
8
 73
4
 74
0
 40
0
 40
0
 40
0
 40
0
 40
1
 40
1
 40
1
 40
1
 10
476.250000
 20
72.501042
 30
0.0
 10
478.661148
 20
72.501042
 30
0.0
 10
480.615625
 20
70.546565
 30
0.0
 10
480.615625
 20
68.135417
 30
0.0
  0
SPLINE
  5
24c
100
AcDbEntity
  8
0
 62
7
100
AcDbSpline
 70
8
 71
3
 72
8
 73
4
 74
0
 40
0
 40
0
 40
0
 40
0
 40
1
 40
1
 40
1
 40
1
 10
708.157292
 20
160.725825
 30
0.0
 10
708.157292
 20
158.314942
 30
0.0
 10
706.202815
 20
156.360200
 30
0.0
 10
703.791667
 20
156.360200
 30
0.0
  0
SPLINE
  5
24d
100
AcDbEntity
  8
0
 62
7
100
AcDbSpline
 70
8
 71
3
 72
8
 73
4
 74
0
 40
0
 40
0
 40
0
 40
0
 40
1
 40
1
 40
1
 40
1
 10
703.791667
 20
156.360200
 30
0.0
 10
701.380519
 20
156.360200
 30
0.0
 10
699.426042
 20
158.314942
 30
0.0
 10
699.426042
 20
160.725825
 30
0.0
  0
SPLINE
  5
24e
100
AcDbEntity
  8
0
 62
7
100
AcDbSpline
 70
8
 71
3
 72
8
 73
4
 74
0
 40
0
 40
0
 40
0
 40
0
 40
1
 40
1
 40
1
 40
1
 10
699.426042
 20
160.725825
 30
0.0
 10
699.426042
 20
163.136973
 30
0.0
 10
701.380519
 20
165.091450
 30
0.0
 10
703.791667
 20
165.091450
 30
0.0
  0
SPLINE
  5
24f
100
AcDbEntity
  8
0
 62
7
100
AcDbSpline
 70
8
 71
3
 72
8
 73
4
 74
0
 40
0
 40
0
 40
0
 40
0
 40
1
 40
1
 40
1
 40
1
 10
703.791667
 20
165.091450
 30
0.0
 10
706.202815
 20
165.091450
 30
0.0
 10
708.157292
 20
163.136973
 30
0.0
 10
708.157292
 20
160.725825
 30
0.0
  0
SPLINE
  5
250
100
AcDbEntity
  8
0
 62
7
100
AcDbSpline
 70
8
 71
3
 72
8
 73
4
 74
0
 40
0
 40
0
 40
0
 40
0
 40
1
 40
1
 40
1
 40
1
 10
639.365625
 20
-143.531250
 30
0.0
 10
639.365625
 20
-145.942398
 30
0.0
 10
637.411148
 20
-147.896875
 30
0.0
 10
635.000000
 20
-147.896875
 30
0.0
  0
SPLINE
  5
251
100
AcDbEntity
  8
0
 62
7
100
AcDbSpline
 70
8
 71
3
 72
8
 73
4
 74
0
 40
0
 40
0
 40
0
 40
0
 40
1
 40
1
 40
1
 40
1
 10
635.000000
 20
-147.896875
 30
0.0
 10
632.588852
 20
-147.896875
 30
0.0
 10
630.634375
 20
-145.942398
 30
0.0
 10
630.634375
 20
-143.531250
 30
0.0
  0
SPLINE
  5
252
100
AcDbEntity
  8
0
 62
7
100
AcDbSpline
 70
8
 71
3
 72
8
 73
4
 74
0
 40
0
 40
0
 40
0
 40
0
 40
1
 40
1
 40
1
 40
1
 10
630.634375
 20
-143.531250
 30
0.0
 10
630.634375
 20
-141.120102
 30
0.0
 10
632.588852
 20
-139.165625
 30
0.0
 10
635.000000
 20
-139.165625
 30
0.0
  0
SPLINE
  5
253
100
AcDbEntity
  8
0
 62
7
100
AcDbSpline
 70
8
 71
3
 72
8
 73
4
 74
0
 40
0
 40
0
 40
0
 40
0
 40
1
 40
1
 40
1
 40
1
 10
635.000000
 20
-139.165625
 30
0.0
 10
637.411148
 20
-139.165625
 30
0.0
 10
639.365625
 20
-141.120102
 30
0.0
 10
639.365625
 20
-143.531250
 30
0.0
  0
SPLINE
  5
254
100
AcDbEntity
  8
0
 62
7
100
AcDbSpline
 70
8
 71
3
 72
8
 73
4
 74
0
 40
0
 40
0
 40
0
 40
0
 40
1
 40
1
 40
1
 40
1
 10
427.698958
 20
-249.364583
 30
0.0
 10
427.698958
 20
-251.775731
 30
0.0
 10
425.744481
 20
-253.730208
 30
0.0
 10
423.333333
 20
-253.730208
 30
0.0
  0
SPLINE
  5
255
100
AcDbEntity
  8
0
 62
7
100
AcDbSpline
 70
8
 71
3
 72
8
 73
4
 74
0
 40
0
 40
0
 40
0
 40
0
 40
1
 40
1
 40
1
 40
1
 10
423.333333
 20
-253.730208
 30
0.0
 10
420.922185
 20
-253.730208
 30
0.0
 10
418.967708
 20
-251.775731
 30
0.0
 10
418.967708
 20
-249.364583
 30
0.0
  0
SPLINE
  5
256
100
AcDbEntity
  8
0
 62
7
100
AcDbSpline
 70
8
 71
3
 72
8
 73
4
 74
0
 40
0
 40
0
 40
0
 40
0
 40
1
 40
1
 40
1
 40
1
 10
418.967708
 20
-249.364583
 30
0.0
 10
418.967708
 20
-246.953435
 30
0.0
 10
420.922185
 20
-244.998958
 30
0.0
 10
423.333333
 20
-244.998958
 30
0.0
  0
SPLINE
  5
257
100
AcDbEntity
  8
0
 62
7
100
AcDbSpline
 70
8
 71
3
 72
8
 73
4
 74
0
 40
0
 40
0
 40
0
 40
0
 40
1
 40
1
 40
1
 40
1
 10
423.333333
 20
-244.998958
 30
0.0
 10
425.744481
 20
-244.998958
 30
0.0
 10
427.698958
 20
-246.953435
 30
0.0
 10
427.698958
 20
-249.364583
 30
0.0
  0
SPLINE
  5
258
100
AcDbEntity
  8
0
 62
7
100
AcDbSpline
 70
8
 71
3
 72
8
 73
4
 74
0
 40
0
 40
0
 40
0
 40
0
 40
1
 40
1
 40
1
 40
1
 10
586.448958
 20
68.135417
 30
0.0
 10
586.448958
 20
65.724269
 30
0.0
 10
584.494481
 20
63.769792
 30
0.0
 10
582.083333
 20
63.769792
 30
0.0
  0
SPLINE
  5
259
100
AcDbEntity
  8
0
 62
7
100
AcDbSpline
 70
8
 71
3
 72
8
 73
4
 74
0
 40
0
 40
0
 40
0
 40
0
 40
1
 40
1
 40
1
 40
1
 10
582.083333
 20
63.769792
 30
0.0
 10
579.672265
 20
63.769792
 30
0.0
 10
577.717708
 20
65.724269
 30
0.0
 10
577.717708
 20
68.135417
 30
0.0
  0
SPLINE
  5
25a
100
AcDbEntity
  8
0
 62
7
100
AcDbSpline
 70
8
 71
3
 72
8
 73
4
 74
0
 40
0
 40
0
 40
0
 40
0
 40
1
 40
1
 40
1
 40
1
 10
577.717708
 20
68.135417
 30
0.0
 10
577.717708
 20
70.546565
 30
0.0
 10
579.672265
 20
72.501042
 30
0.0
 10
582.083333
 20
72.501042
 30
0.0
  0
SPLINE
  5
25b
100
AcDbEntity
  8
0
 62
7
100
AcDbSpline
 70
8
 71
3
 72
8
 73
4
 74
0
 40
0
 40
0
 40
0
 40
0
 40
1
 40
1
 40
1
 40
1
 10
582.083333
 20
72.501042
 30
0.0
 10
584.494481
 20
72.501042
 30
0.0
 10
586.448958
 20
70.546565
 30
0.0
 10
586.448958
 20
68.135417
 30
0.0
  0
SPLINE
  5
25c
100
AcDbEntity
  8
0
 62
7
100
AcDbSpline
 70
8
 71
3
 72
8
 73
4
 74
0
 40
0
 40
0
 40
0
 40
0
 40
1
 40
1
 40
1
 40
1
 10
821.205812
 20
54.906250
 30
0.0
 10
821.205812
 20
52.495102
 30
0.0
 10
819.251071
 20
50.540625
 30
0.0
 10
816.839923
 20
50.540625
 30
0.0
  0
SPLINE
  5
25d
100
AcDbEntity
  8
0
 62
7
100
AcDbSpline
 70
8
 71
3
 72
8
 73
4
 74
0
 40
0
 40
0
 40
0
 40
0
 40
1
 40
1
 40
1
 40
1
 10
816.839923
 20
50.540625
 30
0.0
 10
814.428775
 20
50.540625
 30
0.0
 10
812.474298
 20
52.495102
 30
0.0
 10
812.474298
 20
54.906250
 30
0.0
  0
SPLINE
  5
25e
100
AcDbEntity
  8
0
 62
7
100
AcDbSpline
 70
8
 71
3
 72
8
 73
4
 74
0
 40
0
 40
0
 40
0
 40
0
 40
1
 40
1
 40
1
 40
1
 10
812.474298
 20
54.906250
 30
0.0
 10
812.474298
 20
57.317398
 30
0.0
 10
814.428775
 20
59.271875
 30
0.0
 10
816.839923
 20
59.271875
 30
0.0
  0
SPLINE
  5
25f
100
AcDbEntity
  8
0
 62
7
100
AcDbSpline
 70
8
 71
3
 72
8
 73
4
 74
0
 40
0
 40
0
 40
0
 40
0
 40
1
 40
1
 40
1
 40
1
 10
816.839923
 20
59.271875
 30
0.0
 10
819.251071
 20
59.271875
 30
0.0
 10
821.205812
 20
57.317398
 30
0.0
 10
821.205812
 20
54.906250
 30
0.0
  0
SPLINE
  5
260
100
AcDbEntity
  8
0
 62
7
100
AcDbSpline
 70
8
 71
3
 72
8
 73
4
 74
0
 40
0
 40
0
 40
0
 40
0
 40
1
 40
1
 40
1
 40
1
 10
427.698958
 20
-143.531250
 30
0.0
 10
427.698958
 20
-145.942398
 30
0.0
 10
425.744481
 20
-147.896875
 30
0.0
 10
423.333333
 20
-147.896875
 30
0.0
  0
SPLINE
  5
261
100
AcDbEntity
  8
0
 62
7
100
AcDbSpline
 70
8
 71
3
 72
8
 73
4
 74
0
 40
0
 40
0
 40
0
 40
0
 40
1
 40
1
 40
1
 40
1
 10
423.333333
 20
-147.896875
 30
0.0
 10
420.922185
 20
-147.896875
 30
0.0
 10
418.967708
 20
-145.942398
 30
0.0
 10
418.967708
 20
-143.531250
 30
0.0
  0
SPLINE
  5
262
100
AcDbEntity
  8
0
 62
7
100
AcDbSpline
 70
8
 71
3
 72
8
 73
4
 74
0
 40
0
 40
0
 40
0
 40
0
 40
1
 40
1
 40
1
 40
1
 10
418.967708
 20
-143.531250
 30
0.0
 10
418.967708
 20
-141.120102
 30
0.0
 10
420.922185
 20
-139.165625
 30
0.0
 10
423.333333
 20
-139.165625
 30
0.0
  0
SPLINE
  5
263
100
AcDbEntity
  8
0
 62
7
100
AcDbSpline
 70
8
 71
3
 72
8
 73
4
 74
0
 40
0
 40
0
 40
0
 40
0
 40
1
 40
1
 40
1
 40
1
 10
423.333333
 20
-139.165625
 30
0.0
 10
425.744481
 20
-139.165625
 30
0.0
 10
427.698958
 20
-141.120102
 30
0.0
 10
427.698958
 20
-143.531250
 30
0.0
  0
SPLINE
  5
264
100
AcDbEntity
  8
0
 62
7
100
AcDbSpline
 70
8
 71
3
 72
8
 73
4
 74
0
 40
0
 40
0
 40
0
 40
0
 40
1
 40
1
 40
1
 40
1
 10
480.615625
 20
-143.531250
 30
0.0
 10
480.615625
 20
-145.942398
 30
0.0
 10
478.661148
 20
-147.896875
 30
0.0
 10
476.250000
 20
-147.896875
 30
0.0
  0
SPLINE
  5
265
100
AcDbEntity
  8
0
 62
7
100
AcDbSpline
 70
8
 71
3
 72
8
 73
4
 74
0
 40
0
 40
0
 40
0
 40
0
 40
1
 40
1
 40
1
 40
1
 10
476.250000
 20
-147.896875
 30
0.0
 10
473.838852
 20
-147.896875
 30
0.0
 10
471.884375
 20
-145.942398
 30
0.0
 10
471.884375
 20
-143.531250
 30
0.0
  0
SPLINE
  5
266
100
AcDbEntity
  8
0
 62
7
100
AcDbSpline
 70
8
 71
3
 72
8
 73
4
 74
0
 40
0
 40
0
 40
0
 40
0
 40
1
 40
1
 40
1
 40
1
 10
471.884375
 20
-143.531250
 30
0.0
 10
471.884375
 20
-141.120102
 30
0.0
 10
473.838852
 20
-139.165625
 30
0.0
 10
476.250000
 20
-139.165625
 30
0.0
  0
SPLINE
  5
267
100
AcDbEntity
  8
0
 62
7
100
AcDbSpline
 70
8
 71
3
 72
8
 73
4
 74
0
 40
0
 40
0
 40
0
 40
0
 40
1
 40
1
 40
1
 40
1
 10
476.250000
 20
-139.165625
 30
0.0
 10
478.661148
 20
-139.165625
 30
0.0
 10
480.615625
 20
-141.120102
 30
0.0
 10
480.615625
 20
-143.531250
 30
0.0
  0
SPLINE
  5
268
100
AcDbEntity
  8
0
 62
7
100
AcDbSpline
 70
8
 71
3
 72
8
 73
4
 74
0
 40
0
 40
0
 40
0
 40
0
 40
1
 40
1
 40
1
 40
1
 10
586.448958
 20
-249.364583
 30
0.0
 10
586.448958
 20
-251.775731
 30
0.0
 10
584.494481
 20
-253.730208
 30
0.0
 10
582.083333
 20
-253.730208
 30
0.0
  0
SPLINE
  5
269
100
AcDbEntity
  8
0
 62
7
100
AcDbSpline
 70
8
 71
3
 72
8
 73
4
 74
0
 40
0
 40
0
 40
0
 40
0
 40
1
 40
1
 40
1
 40
1
 10
582.083333
 20
-253.730208
 30
0.0
 10
579.672265
 20
-253.730208
 30
0.0
 10
577.717708
 20
-251.775731
 30
0.0
 10
577.717708
 20
-249.364583
 30
0.0
  0
SPLINE
  5
26a
100
AcDbEntity
  8
0
 62
7
100
AcDbSpline
 70
8
 71
3
 72
8
 73
4
 74
0
 40
0
 40
0
 40
0
 40
0
 40
1
 40
1
 40
1
 40
1
 10
577.717708
 20
-249.364583
 30
0.0
 10
577.717708
 20
-246.953435
 30
0.0
 10
579.672265
 20
-244.998958
 30
0.0
 10
582.083333
 20
-244.998958
 30
0.0
  0
SPLINE
  5
26b
100
AcDbEntity
  8
0
 62
7
100
AcDbSpline
 70
8
 71
3
 72
8
 73
4
 74
0
 40
0
 40
0
 40
0
 40
0
 40
1
 40
1
 40
1
 40
1
 10
582.083333
 20
-244.998958
 30
0.0
 10
584.494481
 20
-244.998958
 30
0.0
 10
586.448958
 20
-246.953435
 30
0.0
 10
586.448958
 20
-249.364583
 30
0.0
  0
SPLINE
  5
26c
100
AcDbEntity
  8
0
 62
7
100
AcDbSpline
 70
8
 71
3
 72
8
 73
4
 74
0
 40
0
 40
0
 40
0
 40
0
 40
1
 40
1
 40
1
 40
1
 10
639.365625
 20
-37.697917
 30
0.0
 10
639.365625
 20
-40.109065
 30
0.0
 10
637.411148
 20
-42.063542
 30
0.0
 10
635.000000
 20
-42.063542
 30
0.0
  0
SPLINE
  5
26d
100
AcDbEntity
  8
0
 62
7
100
AcDbSpline
 70
8
 71
3
 72
8
 73
4
 74
0
 40
0
 40
0
 40
0
 40
0
 40
1
 40
1
 40
1
 40
1
 10
635.000000
 20
-42.063542
 30
0.0
 10
632.588852
 20
-42.063542
 30
0.0
 10
630.634375
 20
-40.109065
 30
0.0
 10
630.634375
 20
-37.697917
 30
0.0
  0
SPLINE
  5
26e
100
AcDbEntity
  8
0
 62
7
100
AcDbSpline
 70
8
 71
3
 72
8
 73
4
 74
0
 40
0
 40
0
 40
0
 40
0
 40
1
 40
1
 40
1
 40
1
 10
630.634375
 20
-37.697917
 30
0.0
 10
630.634375
 20
-35.286769
 30
0.0
 10
632.588852
 20
-33.332292
 30
0.0
 10
635.000000
 20
-33.332292
 30
0.0
  0
SPLINE
  5
26f
100
AcDbEntity
  8
0
 62
7
100
AcDbSpline
 70
8
 71
3
 72
8
 73
4
 74
0
 40
0
 40
0
 40
0
 40
0
 40
1
 40
1
 40
1
 40
1
 10
635.000000
 20
-33.332292
 30
0.0
 10
637.411148
 20
-33.332292
 30
0.0
 10
639.365625
 20
-35.286769
 30
0.0
 10
639.365625
 20
-37.697917
 30
0.0
  0
SPLINE
  5
270
100
AcDbEntity
  8
0
 62
7
100
AcDbSpline
 70
8
 71
3
 72
8
 73
4
 74
0
 40
0
 40
0
 40
0
 40
0
 40
1
 40
1
 40
1
 40
1
 10
708.157292
 20
-352.538325
 30
0.0
 10
708.157292
 20
-354.949473
 30
0.0
 10
706.202815
 20
-356.903950
 30
0.0
 10
703.791667
 20
-356.903950
 30
0.0
  0
SPLINE
  5
271
100
AcDbEntity
  8
0
 62
7
100
AcDbSpline
 70
8
 71
3
 72
8
 73
4
 74
0
 40
0
 40
0
 40
0
 40
0
 40
1
 40
1
 40
1
 40
1
 10
703.791667
 20
-356.903950
 30
0.0
 10
701.380519
 20
-356.903950
 30
0.0
 10
699.426042
 20
-354.949473
 30
0.0
 10
699.426042
 20
-352.538325
 30
0.0
  0
SPLINE
  5
272
100
AcDbEntity
  8
0
 62
7
100
AcDbSpline
 70
8
 71
3
 72
8
 73
4
 74
0
 40
0
 40
0
 40
0
 40
0
 40
1
 40
1
 40
1
 40
1
 10
699.426042
 20
-352.538325
 30
0.0
 10
699.426042
 20
-350.127442
 30
0.0
 10
701.380519
 20
-348.172700
 30
0.0
 10
703.791667
 20
-348.172700
 30
0.0
  0
SPLINE
  5
273
100
AcDbEntity
  8
0
 62
7
100
AcDbSpline
 70
8
 71
3
 72
8
 73
4
 74
0
 40
0
 40
0
 40
0
 40
0
 40
1
 40
1
 40
1
 40
1
 10
703.791667
 20
-348.172700
 30
0.0
 10
706.202815
 20
-348.172700
 30
0.0
 10
708.157292
 20
-350.127442
 30
0.0
 10
708.157292
 20
-352.538325
 30
0.0
  0
SPLINE
  5
274
100
AcDbEntity
  8
0
 62
7
100
AcDbSpline
 70
8
 71
3
 72
8
 73
4
 74
0
 40
0
 40
0
 40
0
 40
0
 40
1
 40
1
 40
1
 40
1
 10
586.448958
 20
-143.531250
 30
0.0
 10
586.448958
 20
-145.942398
 30
0.0
 10
584.494481
 20
-147.896875
 30
0.0
 10
582.083333
 20
-147.896875
 30
0.0
  0
SPLINE
  5
275
100
AcDbEntity
  8
0
 62
7
100
AcDbSpline
 70
8
 71
3
 72
8
 73
4
 74
0
 40
0
 40
0
 40
0
 40
0
 40
1
 40
1
 40
1
 40
1
 10
582.083333
 20
-147.896875
 30
0.0
 10
579.672265
 20
-147.896875
 30
0.0
 10
577.717708
 20
-145.942398
 30
0.0
 10
577.717708
 20
-143.531250
 30
0.0
  0
SPLINE
  5
276
100
AcDbEntity
  8
0
 62
7
100
AcDbSpline
 70
8
 71
3
 72
8
 73
4
 74
0
 40
0
 40
0
 40
0
 40
0
 40
1
 40
1
 40
1
 40
1
 10
577.717708
 20
-143.531250
 30
0.0
 10
577.717708
 20
-141.120102
 30
0.0
 10
579.672265
 20
-139.165625
 30
0.0
 10
582.083333
 20
-139.165625
 30
0.0
  0
SPLINE
  5
277
100
AcDbEntity
  8
0
 62
7
100
AcDbSpline
 70
8
 71
3
 72
8
 73
4
 74
0
 40
0
 40
0
 40
0
 40
0
 40
1
 40
1
 40
1
 40
1
 10
582.083333
 20
-139.165625
 30
0.0
 10
584.494481
 20
-139.165625
 30
0.0
 10
586.448958
 20
-141.120102
 30
0.0
 10
586.448958
 20
-143.531250
 30
0.0
  0
SPLINE
  5
278
100
AcDbEntity
  8
0
 62
7
100
AcDbSpline
 70
8
 71
3
 72
8
 73
4
 74
0
 40
0
 40
0
 40
0
 40
0
 40
1
 40
1
 40
1
 40
1
 10
586.448958
 20
-37.697917
 30
0.0
 10
586.448958
 20
-40.109065
 30
0.0
 10
584.494481
 20
-42.063542
 30
0.0
 10
582.083333
 20
-42.063542
 30
0.0
  0
SPLINE
  5
279
100
AcDbEntity
  8
0
 62
7
100
AcDbSpline
 70
8
 71
3
 72
8
 73
4
 74
0
 40
0
 40
0
 40
0
 40
0
 40
1
 40
1
 40
1
 40
1
 10
582.083333
 20
-42.063542
 30
0.0
 10
579.672265
 20
-42.063542
 30
0.0
 10
577.717708
 20
-40.109065
 30
0.0
 10
577.717708
 20
-37.697917
 30
0.0
  0
SPLINE
  5
27a
100
AcDbEntity
  8
0
 62
7
100
AcDbSpline
 70
8
 71
3
 72
8
 73
4
 74
0
 40
0
 40
0
 40
0
 40
0
 40
1
 40
1
 40
1
 40
1
 10
577.717708
 20
-37.697917
 30
0.0
 10
577.717708
 20
-35.286769
 30
0.0
 10
579.672265
 20
-33.332292
 30
0.0
 10
582.083333
 20
-33.332292
 30
0.0
  0
SPLINE
  5
27b
100
AcDbEntity
  8
0
 62
7
100
AcDbSpline
 70
8
 71
3
 72
8
 73
4
 74
0
 40
0
 40
0
 40
0
 40
0
 40
1
 40
1
 40
1
 40
1
 10
582.083333
 20
-33.332292
 30
0.0
 10
584.494481
 20
-33.332292
 30
0.0
 10
586.448958
 20
-35.286769
 30
0.0
 10
586.448958
 20
-37.697917
 30
0.0
  0
SPLINE
  5
27c
100
AcDbEntity
  8
0
 62
7
100
AcDbSpline
 70
8
 71
3
 72
8
 73
4
 74
0
 40
0
 40
0
 40
0
 40
0
 40
1
 40
1
 40
1
 40
1
 10
856.323958
 20
-95.906250
 30
0.0
 10
856.323958
 20
-98.317319
 30
0.0
 10
854.368688
 20
-100.271875
 30
0.0
 10
851.958333
 20
-100.271875
 30
0.0
  0
SPLINE
  5
27d
100
AcDbEntity
  8
0
 62
7
100
AcDbSpline
 70
8
 71
3
 72
8
 73
4
 74
0
 40
0
 40
0
 40
0
 40
0
 40
1
 40
1
 40
1
 40
1
 10
851.958333
 20
-100.271875
 30
0.0
 10
849.547979
 20
-100.271875
 30
0.0
 10
847.592708
 20
-98.317319
 30
0.0
 10
847.592708
 20
-95.906250
 30
0.0
  0
SPLINE
  5
27e
100
AcDbEntity
  8
0
 62
7
100
AcDbSpline
 70
8
 71
3
 72
8
 73
4
 74
0
 40
0
 40
0
 40
0
 40
0
 40
1
 40
1
 40
1
 40
1
 10
847.592708
 20
-95.906250
 30
0.0
 10
847.592708
 20
-93.495181
 30
0.0
 10
849.547979
 20
-91.540625
 30
0.0
 10
851.958333
 20
-91.540625
 30
0.0
  0
SPLINE
  5
27f
100
AcDbEntity
  8
0
 62
7
100
AcDbSpline
 70
8
 71
3
 72
8
 73
4
 74
0
 40
0
 40
0
 40
0
 40
0
 40
1
 40
1
 40
1
 40
1
 10
851.958333
 20
-91.540625
 30
0.0
 10
854.368688
 20
-91.540625
 30
0.0
 10
856.323958
 20
-93.495181
 30
0.0
 10
856.323958
 20
-95.906250
 30
0.0
  0
SPLINE
  5
280
100
AcDbEntity
  8
0
 62
7
100
AcDbSpline
 70
8
 71
3
 72
8
 73
4
 74
0
 40
0
 40
0
 40
0
 40
0
 40
1
 40
1
 40
1
 40
1
 10
533.532292
 20
-143.531250
 30
0.0
 10
533.532292
 20
-145.942398
 30
0.0
 10
531.577735
 20
-147.896875
 30
0.0
 10
529.166667
 20
-147.896875
 30
0.0
  0
SPLINE
  5
281
100
AcDbEntity
  8
0
 62
7
100
AcDbSpline
 70
8
 71
3
 72
8
 73
4
 74
0
 40
0
 40
0
 40
0
 40
0
 40
1
 40
1
 40
1
 40
1
 10
529.166667
 20
-147.896875
 30
0.0
 10
526.755519
 20
-147.896875
 30
0.0
 10
524.801042
 20
-145.942398
 30
0.0
 10
524.801042
 20
-143.531250
 30
0.0
  0
SPLINE
  5
282
100
AcDbEntity
  8
0
 62
7
100
AcDbSpline
 70
8
 71
3
 72
8
 73
4
 74
0
 40
0
 40
0
 40
0
 40
0
 40
1
 40
1
 40
1
 40
1
 10
524.801042
 20
-143.531250
 30
0.0
 10
524.801042
 20
-141.120102
 30
0.0
 10
526.755519
 20
-139.165625
 30
0.0
 10
529.166667
 20
-139.165625
 30
0.0
  0
SPLINE
  5
283
100
AcDbEntity
  8
0
 62
7
100
AcDbSpline
 70
8
 71
3
 72
8
 73
4
 74
0
 40
0
 40
0
 40
0
 40
0
 40
1
 40
1
 40
1
 40
1
 10
529.166667
 20
-139.165625
 30
0.0
 10
531.577735
 20
-139.165625
 30
0.0
 10
533.532292
 20
-141.120102
 30
0.0
 10
533.532292
 20
-143.531250
 30
0.0
  0
SPLINE
  5
284
100
AcDbEntity
  8
0
 62
7
100
AcDbSpline
 70
8
 71
3
 72
8
 73
4
 74
0
 40
0
 40
0
 40
0
 40
0
 40
1
 40
1
 40
1
 40
1
 10
480.615625
 20
-249.364583
 30
0.0
 10
480.615625
 20
-251.775731
 30
0.0
 10
478.661148
 20
-253.730208
 30
0.0
 10
476.250000
 20
-253.730208
 30
0.0
  0
SPLINE
  5
285
100
AcDbEntity
  8
0
 62
7
100
AcDbSpline
 70
8
 71
3
 72
8
 73
4
 74
0
 40
0
 40
0
 40
0
 40
0
 40
1
 40
1
 40
1
 40
1
 10
476.250000
 20
-253.730208
 30
0.0
 10
473.838852
 20
-253.730208
 30
0.0
 10
471.884375
 20
-251.775731
 30
0.0
 10
471.884375
 20
-249.364583
 30
0.0
  0
SPLINE
  5
286
100
AcDbEntity
  8
0
 62
7
100
AcDbSpline
 70
8
 71
3
 72
8
 73
4
 74
0
 40
0
 40
0
 40
0
 40
0
 40
1
 40
1
 40
1
 40
1
 10
471.884375
 20
-249.364583
 30
0.0
 10
471.884375
 20
-246.953435
 30
0.0
 10
473.838852
 20
-244.998958
 30
0.0
 10
476.250000
 20
-244.998958
 30
0.0
  0
SPLINE
  5
287
100
AcDbEntity
  8
0
 62
7
100
AcDbSpline
 70
8
 71
3
 72
8
 73
4
 74
0
 40
0
 40
0
 40
0
 40
0
 40
1
 40
1
 40
1
 40
1
 10
476.250000
 20
-244.998958
 30
0.0
 10
478.661148
 20
-244.998958
 30
0.0
 10
480.615625
 20
-246.953435
 30
0.0
 10
480.615625
 20
-249.364583
 30
0.0
  0
SPLINE
  5
288
100
AcDbEntity
  8
0
 62
7
100
AcDbSpline
 70
8
 71
3
 72
8
 73
4
 74
0
 40
0
 40
0
 40
0
 40
0
 40
1
 40
1
 40
1
 40
1
 10
533.532292
 20
-249.364583
 30
0.0
 10
533.532292
 20
-251.775731
 30
0.0
 10
531.577735
 20
-253.730208
 30
0.0
 10
529.166667
 20
-253.730208
 30
0.0
  0
SPLINE
  5
289
100
AcDbEntity
  8
0
 62
7
100
AcDbSpline
 70
8
 71
3
 72
8
 73
4
 74
0
 40
0
 40
0
 40
0
 40
0
 40
1
 40
1
 40
1
 40
1
 10
529.166667
 20
-253.730208
 30
0.0
 10
526.755519
 20
-253.730208
 30
0.0
 10
524.801042
 20
-251.775731
 30
0.0
 10
524.801042
 20
-249.364583
 30
0.0
  0
SPLINE
  5
28a
100
AcDbEntity
  8
0
 62
7
100
AcDbSpline
 70
8
 71
3
 72
8
 73
4
 74
0
 40
0
 40
0
 40
0
 40
0
 40
1
 40
1
 40
1
 40
1
 10
524.801042
 20
-249.364583
 30
0.0
 10
524.801042
 20
-246.953435
 30
0.0
 10
526.755519
 20
-244.998958
 30
0.0
 10
529.166667
 20
-244.998958
 30
0.0
  0
SPLINE
  5
28b
100
AcDbEntity
  8
0
 62
7
100
AcDbSpline
 70
8
 71
3
 72
8
 73
4
 74
0
 40
0
 40
0
 40
0
 40
0
 40
1
 40
1
 40
1
 40
1
 10
529.166667
 20
-244.998958
 30
0.0
 10
531.577735
 20
-244.998958
 30
0.0
 10
533.532292
 20
-246.953435
 30
0.0
 10
533.532292
 20
-249.364583
 30
0.0
  0
SPLINE
  5
28c
100
AcDbEntity
  8
0
 62
7
100
AcDbSpline
 70
8
 71
3
 72
8
 73
4
 74
0
 40
0
 40
0
 40
0
 40
0
 40
1
 40
1
 40
1
 40
1
 10
263.657292
 20
-95.906250
 30
0.0
 10
263.657292
 20
-98.317319
 30
0.0
 10
261.702021
 20
-100.271875
 30
0.0
 10
259.291667
 20
-100.271875
 30
0.0
  0
SPLINE
  5
28d
100
AcDbEntity
  8
0
 62
7
100
AcDbSpline
 70
8
 71
3
 72
8
 73
4
 74
0
 40
0
 40
0
 40
0
 40
0
 40
1
 40
1
 40
1
 40
1
 10
259.291667
 20
-100.271875
 30
0.0
 10
256.881312
 20
-100.271875
 30
0.0
 10
254.926042
 20
-98.317319
 30
0.0
 10
254.926042
 20
-95.906250
 30
0.0
  0
SPLINE
  5
28e
100
AcDbEntity
  8
0
 62
7
100
AcDbSpline
 70
8
 71
3
 72
8
 73
4
 74
0
 40
0
 40
0
 40
0
 40
0
 40
1
 40
1
 40
1
 40
1
 10
254.926042
 20
-95.906250
 30
0.0
 10
254.926042
 20
-93.495181
 30
0.0
 10
256.881312
 20
-91.540625
 30
0.0
 10
259.291667
 20
-91.540625
 30
0.0
  0
SPLINE
  5
28f
100
AcDbEntity
  8
0
 62
7
100
AcDbSpline
 70
8
 71
3
 72
8
 73
4
 74
0
 40
0
 40
0
 40
0
 40
0
 40
1
 40
1
 40
1
 40
1
 10
259.291667
 20
-91.540625
 30
0.0
 10
261.702021
 20
-91.540625
 30
0.0
 10
263.657292
 20
-93.495181
 30
0.0
 10
263.657292
 20
-95.906250
 30
0.0
  0
SPLINE
  5
290
100
AcDbEntity
  8
0
 62
7
100
AcDbSpline
 70
8
 71
3
 72
8
 73
4
 74
0
 40
0
 40
0
 40
0
 40
0
 40
1
 40
1
 40
1
 40
1
 10
533.532292
 20
-37.697917
 30
0.0
 10
533.532292
 20
-40.109065
 30
0.0
 10
531.577735
 20
-42.063542
 30
0.0
 10
529.166667
 20
-42.063542
 30
0.0
  0
SPLINE
  5
291
100
AcDbEntity
  8
0
 62
7
100
AcDbSpline
 70
8
 71
3
 72
8
 73
4
 74
0
 40
0
 40
0
 40
0
 40
0
 40
1
 40
1
 40
1
 40
1
 10
529.166667
 20
-42.063542
 30
0.0
 10
526.755519
 20
-42.063542
 30
0.0
 10
524.801042
 20
-40.109065
 30
0.0
 10
524.801042
 20
-37.697917
 30
0.0
  0
SPLINE
  5
292
100
AcDbEntity
  8
0
 62
7
100
AcDbSpline
 70
8
 71
3
 72
8
 73
4
 74
0
 40
0
 40
0
 40
0
 40
0
 40
1
 40
1
 40
1
 40
1
 10
524.801042
 20
-37.697917
 30
0.0
 10
524.801042
 20
-35.286769
 30
0.0
 10
526.755519
 20
-33.332292
 30
0.0
 10
529.166667
 20
-33.332292
 30
0.0
  0
SPLINE
  5
293
100
AcDbEntity
  8
0
 62
7
100
AcDbSpline
 70
8
 71
3
 72
8
 73
4
 74
0
 40
0
 40
0
 40
0
 40
0
 40
1
 40
1
 40
1
 40
1
 10
529.166667
 20
-33.332292
 30
0.0
 10
531.577735
 20
-33.332292
 30
0.0
 10
533.532292
 20
-35.286769
 30
0.0
 10
533.532292
 20
-37.697917
 30
0.0
  0
SPLINE
  5
294
100
AcDbEntity
  8
0
 62
7
100
AcDbSpline
 70
8
 71
3
 72
8
 73
4
 74
0
 40
0
 40
0
 40
0
 40
0
 40
1
 40
1
 40
1
 40
1
 10
559.990625
 20
-397.531250
 30
0.0
 10
559.990625
 20
-399.941604
 30
0.0
 10
558.036069
 20
-401.896875
 30
0.0
 10
555.625000
 20
-401.896875
 30
0.0
  0
SPLINE
  5
295
100
AcDbEntity
  8
0
 62
7
100
AcDbSpline
 70
8
 71
3
 72
8
 73
4
 74
0
 40
0
 40
0
 40
0
 40
0
 40
1
 40
1
 40
1
 40
1
 10
555.625000
 20
-401.896875
 30
0.0
 10
553.213931
 20
-401.896875
 30
0.0
 10
551.259375
 20
-399.941604
 30
0.0
 10
551.259375
 20
-397.531250
 30
0.0
  0
SPLINE
  5
296
100
AcDbEntity
  8
0
 62
7
100
AcDbSpline
 70
8
 71
3
 72
8
 73
4
 74
0
 40
0
 40
0
 40
0
 40
0
 40
1
 40
1
 40
1
 40
1
 10
551.259375
 20
-397.531250
 30
0.0
 10
551.259375
 20
-395.120896
 30
0.0
 10
553.213931
 20
-393.165625
 30
0.0
 10
555.625000
 20
-393.165625
 30
0.0
  0
SPLINE
  5
297
100
AcDbEntity
  8
0
 62
7
100
AcDbSpline
 70
8
 71
3
 72
8
 73
4
 74
0
 40
0
 40
0
 40
0
 40
0
 40
1
 40
1
 40
1
 40
1
 10
555.625000
 20
-393.165625
 30
0.0
 10
558.036069
 20
-393.165625
 30
0.0
 10
559.990625
 20
-395.120896
 30
0.0
 10
559.990625
 20
-397.531250
 30
0.0
  0
SPLINE
  5
298
100
AcDbEntity
  8
0
 62
7
100
AcDbSpline
 70
8
 71
3
 72
8
 73
4
 74
0
 40
0
 40
0
 40
0
 40
0
 40
1
 40
1
 40
1
 40
1
 10
559.990625
 20
205.718750
 30
0.0
 10
559.990625
 20
203.308396
 30
0.0
 10
558.036069
 20
201.353125
 30
0.0
 10
555.625000
 20
201.353125
 30
0.0
  0
SPLINE
  5
299
100
AcDbEntity
  8
0
 62
7
100
AcDbSpline
 70
8
 71
3
 72
8
 73
4
 74
0
 40
0
 40
0
 40
0
 40
0
 40
1
 40
1
 40
1
 40
1
 10
555.625000
 20
201.353125
 30
0.0
 10
553.213931
 20
201.353125
 30
0.0
 10
551.259375
 20
203.308396
 30
0.0
 10
551.259375
 20
205.718750
 30
0.0
  0
SPLINE
  5
29a
100
AcDbEntity
  8
0
 62
7
100
AcDbSpline
 70
8
 71
3
 72
8
 73
4
 74
0
 40
0
 40
0
 40
0
 40
0
 40
1
 40
1
 40
1
 40
1
 10
551.259375
 20
205.718750
 30
0.0
 10
551.259375
 20
208.129104
 30
0.0
 10
553.213931
 20
210.084375
 30
0.0
 10
555.625000
 20
210.084375
 30
0.0
  0
SPLINE
  5
29b
100
AcDbEntity
  8
0
 62
7
100
AcDbSpline
 70
8
 71
3
 72
8
 73
4
 74
0
 40
0
 40
0
 40
0
 40
0
 40
1
 40
1
 40
1
 40
1
 10
555.625000
 20
210.084375
 30
0.0
 10
558.036069
 20
210.084375
 30
0.0
 10
559.990625
 20
208.129104
 30
0.0
 10
559.990625
 20
205.718750
 30
0.0
  0
SPLINE
  5
29c
100
AcDbEntity
  8
0
 62
7
100
AcDbSpline
 70
8
 71
3
 72
8
 73
4
 74
0
 40
0
 40
0
 40
0
 40
0
 40
1
 40
1
 40
1
 40
1
 10
533.532292
 20
68.135417
 30
0.0
 10
533.532292
 20
65.724269
 30
0.0
 10
531.577735
 20
63.769792
 30
0.0
 10
529.166667
 20
63.769792
 30
0.0
  0
SPLINE
  5
29d
100
AcDbEntity
  8
0
 62
7
100
AcDbSpline
 70
8
 71
3
 72
8
 73
4
 74
0
 40
0
 40
0
 40
0
 40
0
 40
1
 40
1
 40
1
 40
1
 10
529.166667
 20
63.769792
 30
0.0
 10
526.755519
 20
63.769792
 30
0.0
 10
524.801042
 20
65.724269
 30
0.0
 10
524.801042
 20
68.135417
 30
0.0
  0
SPLINE
  5
29e
100
AcDbEntity
  8
0
 62
7
100
AcDbSpline
 70
8
 71
3
 72
8
 73
4
 74
0
 40
0
 40
0
 40
0
 40
0
 40
1
 40
1
 40
1
 40
1
 10
524.801042
 20
68.135417
 30
0.0
 10
524.801042
 20
70.546565
 30
0.0
 10
526.755519
 20
72.501042
 30
0.0
 10
529.166667
 20
72.501042
 30
0.0
  0
SPLINE
  5
29f
100
AcDbEntity
  8
0
 62
7
100
AcDbSpline
 70
8
 71
3
 72
8
 73
4
 74
0
 40
0
 40
0
 40
0
 40
0
 40
1
 40
1
 40
1
 40
1
 10
529.166667
 20
72.501042
 30
0.0
 10
531.577735
 20
72.501042
 30
0.0
 10
533.532292
 20
70.546565
 30
0.0
 10
533.532292
 20
68.135417
 30
0.0
  0
SPLINE
  5
2a0
100
AcDbEntity
  8
0
 62
7
100
AcDbSpline
 70
8
 71
3
 72
8
 73
4
 74
0
 40
0
 40
0
 40
0
 40
0
 40
1
 40
1
 40
1
 40
1
 10
745.198958
 20
-37.697917
 30
0.0
 10
745.198958
 20
-40.109065
 30
0.0
 10
743.244481
 20
-42.063542
 30
0.0
 10
740.833333
 20
-42.063542
 30
0.0
  0
SPLINE
  5
2a1
100
AcDbEntity
  8
0
 62
7
100
AcDbSpline
 70
8
 71
3
 72
8
 73
4
 74
0
 40
0
 40
0
 40
0
 40
0
 40
1
 40
1
 40
1
 40
1
 10
740.833333
 20
-42.063542
 30
0.0
 10
738.422185
 20
-42.063542
 30
0.0
 10
736.467708
 20
-40.109065
 30
0.0
 10
736.467708
 20
-37.697917
 30
0.0
  0
SPLINE
  5
2a2
100
AcDbEntity
  8
0
 62
7
100
AcDbSpline
 70
8
 71
3
 72
8
 73
4
 74
0
 40
0
 40
0
 40
0
 40
0
 40
1
 40
1
 40
1
 40
1
 10
736.467708
 20
-37.697917
 30
0.0
 10
736.467708
 20
-35.286769
 30
0.0
 10
738.422185
 20
-33.332292
 30
0.0
 10
740.833333
 20
-33.332292
 30
0.0
  0
SPLINE
  5
2a3
100
AcDbEntity
  8
0
 62
7
100
AcDbSpline
 70
8
 71
3
 72
8
 73
4
 74
0
 40
0
 40
0
 40
0
 40
0
 40
1
 40
1
 40
1
 40
1
 10
740.833333
 20
-33.332292
 30
0.0
 10
743.244481
 20
-33.332292
 30
0.0
 10
745.198958
 20
-35.286769
 30
0.0
 10
745.198958
 20
-37.697917
 30
0.0
  0
SPLINE
  5
2a4
100
AcDbEntity
  8
0
 62
7
100
AcDbSpline
 70
8
 71
3
 72
8
 73
4
 74
0
 40
0
 40
0
 40
0
 40
0
 40
1
 40
1
 40
1
 40
1
 10
374.782292
 20
-37.697917
 30
0.0
 10
374.782292
 20
-40.109065
 30
0.0
 10
372.827815
 20
-42.063542
 30
0.0
 10
370.416667
 20
-42.063542
 30
0.0
  0
SPLINE
  5
2a5
100
AcDbEntity
  8
0
 62
7
100
AcDbSpline
 70
8
 71
3
 72
8
 73
4
 74
0
 40
0
 40
0
 40
0
 40
0
 40
1
 40
1
 40
1
 40
1
 10
370.416667
 20
-42.063542
 30
0.0
 10
368.005519
 20
-42.063542
 30
0.0
 10
366.051042
 20
-40.109065
 30
0.0
 10
366.051042
 20
-37.697917
 30
0.0
  0
SPLINE
  5
2a6
100
AcDbEntity
  8
0
 62
7
100
AcDbSpline
 70
8
 71
3
 72
8
 73
4
 74
0
 40
0
 40
0
 40
0
 40
0
 40
1
 40
1
 40
1
 40
1
 10
366.051042
 20
-37.697917
 30
0.0
 10
366.051042
 20
-35.286769
 30
0.0
 10
368.005519
 20
-33.332292
 30
0.0
 10
370.416667
 20
-33.332292
 30
0.0
  0
SPLINE
  5
2a7
100
AcDbEntity
  8
0
 62
7
100
AcDbSpline
 70
8
 71
3
 72
8
 73
4
 74
0
 40
0
 40
0
 40
0
 40
0
 40
1
 40
1
 40
1
 40
1
 10
370.416667
 20
-33.332292
 30
0.0
 10
372.827815
 20
-33.332292
 30
0.0
 10
374.782292
 20
-35.286769
 30
0.0
 10
374.782292
 20
-37.697917
 30
0.0
  0
SPLINE
  5
2a8
100
AcDbEntity
  8
0
 62
7
100
AcDbSpline
 70
8
 71
3
 72
8
 73
4
 74
0
 40
0
 40
0
 40
0
 40
0
 40
1
 40
1
 40
1
 40
1
 10
692.282292
 20
68.135417
 30
0.0
 10
692.282292
 20
65.724269
 30
0.0
 10
690.327815
 20
63.769792
 30
0.0
 10
687.916667
 20
63.769792
 30
0.0
  0
SPLINE
  5
2a9
100
AcDbEntity
  8
0
 62
7
100
AcDbSpline
 70
8
 71
3
 72
8
 73
4
 74
0
 40
0
 40
0
 40
0
 40
0
 40
1
 40
1
 40
1
 40
1
 10
687.916667
 20
63.769792
 30
0.0
 10
685.505519
 20
63.769792
 30
0.0
 10
683.551042
 20
65.724269
 30
0.0
 10
683.551042
 20
68.135417
 30
0.0
  0
SPLINE
  5
2aa
100
AcDbEntity
  8
0
 62
7
100
AcDbSpline
 70
8
 71
3
 72
8
 73
4
 74
0
 40
0
 40
0
 40
0
 40
0
 40
1
 40
1
 40
1
 40
1
 10
683.551042
 20
68.135417
 30
0.0
 10
683.551042
 20
70.546565
 30
0.0
 10
685.505519
 20
72.501042
 30
0.0
 10
687.916667
 20
72.501042
 30
0.0
  0
SPLINE
  5
2ab
100
AcDbEntity
  8
0
 62
7
100
AcDbSpline
 70
8
 71
3
 72
8
 73
4
 74
0
 40
0
 40
0
 40
0
 40
0
 40
1
 40
1
 40
1
 40
1
 10
687.916667
 20
72.501042
 30
0.0
 10
690.327815
 20
72.501042
 30
0.0
 10
692.282292
 20
70.546565
 30
0.0
 10
692.282292
 20
68.135417
 30
0.0
  0
SPLINE
  5
2ac
100
AcDbEntity
  8
0
 62
7
100
AcDbSpline
 70
8
 71
3
 72
8
 73
4
 74
0
 40
0
 40
0
 40
0
 40
0
 40
1
 40
1
 40
1
 40
1
 10
692.282292
 20
-143.531250
 30
0.0
 10
692.282292
 20
-145.942398
 30
0.0
 10
690.327815
 20
-147.896875
 30
0.0
 10
687.916667
 20
-147.896875
 30
0.0
  0
SPLINE
  5
2ad
100
AcDbEntity
  8
0
 62
7
100
AcDbSpline
 70
8
 71
3
 72
8
 73
4
 74
0
 40
0
 40
0
 40
0
 40
0
 40
1
 40
1
 40
1
 40
1
 10
687.916667
 20
-147.896875
 30
0.0
 10
685.505519
 20
-147.896875
 30
0.0
 10
683.551042
 20
-145.942398
 30
0.0
 10
683.551042
 20
-143.531250
 30
0.0
  0
SPLINE
  5
2ae
100
AcDbEntity
  8
0
 62
7
100
AcDbSpline
 70
8
 71
3
 72
8
 73
4
 74
0
 40
0
 40
0
 40
0
 40
0
 40
1
 40
1
 40
1
 40
1
 10
683.551042
 20
-143.531250
 30
0.0
 10
683.551042
 20
-141.120102
 30
0.0
 10
685.505519
 20
-139.165625
 30
0.0
 10
687.916667
 20
-139.165625
 30
0.0
  0
SPLINE
  5
2af
100
AcDbEntity
  8
0
 62
7
100
AcDbSpline
 70
8
 71
3
 72
8
 73
4
 74
0
 40
0
 40
0
 40
0
 40
0
 40
1
 40
1
 40
1
 40
1
 10
687.916667
 20
-139.165625
 30
0.0
 10
690.327815
 20
-139.165625
 30
0.0
 10
692.282292
 20
-141.120102
 30
0.0
 10
692.282292
 20
-143.531250
 30
0.0
  0
SPLINE
  5
2b0
100
AcDbEntity
  8
0
 62
7
100
AcDbSpline
 70
8
 71
3
 72
8
 73
4
 74
0
 40
0
 40
0
 40
0
 40
0
 40
1
 40
1
 40
1
 40
1
 10
480.615625
 20
-37.697917
 30
0.0
 10
480.615625
 20
-40.109065
 30
0.0
 10
478.661148
 20
-42.063542
 30
0.0
 10
476.250000
 20
-42.063542
 30
0.0
  0
SPLINE
  5
2b1
100
AcDbEntity
  8
0
 62
7
100
AcDbSpline
 70
8
 71
3
 72
8
 73
4
 74
0
 40
0
 40
0
 40
0
 40
0
 40
1
 40
1
 40
1
 40
1
 10
476.250000
 20
-42.063542
 30
0.0
 10
473.838852
 20
-42.063542
 30
0.0
 10
471.884375
 20
-40.109065
 30
0.0
 10
471.884375
 20
-37.697917
 30
0.0
  0
SPLINE
  5
2b2
100
AcDbEntity
  8
0
 62
7
100
AcDbSpline
 70
8
 71
3
 72
8
 73
4
 74
0
 40
0
 40
0
 40
0
 40
0
 40
1
 40
1
 40
1
 40
1
 10
471.884375
 20
-37.697917
 30
0.0
 10
471.884375
 20
-35.286769
 30
0.0
 10
473.838852
 20
-33.332292
 30
0.0
 10
476.250000
 20
-33.332292
 30
0.0
  0
SPLINE
  5
2b3
100
AcDbEntity
  8
0
 62
7
100
AcDbSpline
 70
8
 71
3
 72
8
 73
4
 74
0
 40
0
 40
0
 40
0
 40
0
 40
1
 40
1
 40
1
 40
1
 10
476.250000
 20
-33.332292
 30
0.0
 10
478.661148
 20
-33.332292
 30
0.0
 10
480.615625
 20
-35.286769
 30
0.0
 10
480.615625
 20
-37.697917
 30
0.0
  0
SPLINE
  5
2b4
100
AcDbEntity
  8
0
 62
7
100
AcDbSpline
 70
8
 71
3
 72
8
 73
4
 74
0
 40
0
 40
0
 40
0
 40
0
 40
1
 40
1
 40
1
 40
1
 10
427.698958
 20
-37.697917
 30
0.0
 10
427.698958
 20
-40.109065
 30
0.0
 10
425.744481
 20
-42.063542
 30
0.0
 10
423.333333
 20
-42.063542
 30
0.0
  0
SPLINE
  5
2b5
100
AcDbEntity
  8
0
 62
7
100
AcDbSpline
 70
8
 71
3
 72
8
 73
4
 74
0
 40
0
 40
0
 40
0
 40
0
 40
1
 40
1
 40
1
 40
1
 10
423.333333
 20
-42.063542
 30
0.0
 10
420.922185
 20
-42.063542
 30
0.0
 10
418.967708
 20
-40.109065
 30
0.0
 10
418.967708
 20
-37.697917
 30
0.0
  0
SPLINE
  5
2b6
100
AcDbEntity
  8
0
 62
7
100
AcDbSpline
 70
8
 71
3
 72
8
 73
4
 74
0
 40
0
 40
0
 40
0
 40
0
 40
1
 40
1
 40
1
 40
1
 10
418.967708
 20
-37.697917
 30
0.0
 10
418.967708
 20
-35.286769
 30
0.0
 10
420.922185
 20
-33.332292
 30
0.0
 10
423.333333
 20
-33.332292
 30
0.0
  0
SPLINE
  5
2b7
100
AcDbEntity
  8
0
 62
7
100
AcDbSpline
 70
8
 71
3
 72
8
 73
4
 74
0
 40
0
 40
0
 40
0
 40
0
 40
1
 40
1
 40
1
 40
1
 10
423.333333
 20
-33.332292
 30
0.0
 10
425.744481
 20
-33.332292
 30
0.0
 10
427.698958
 20
-35.286769
 30
0.0
 10
427.698958
 20
-37.697917
 30
0.0
  0
SPLINE
  5
2b8
100
AcDbEntity
  8
0
 62
7
100
AcDbSpline
 70
8
 71
3
 72
8
 73
4
 74
0
 40
0
 40
0
 40
0
 40
0
 40
1
 40
1
 40
1
 40
1
 10
692.282292
 20
-37.697917
 30
0.0
 10
692.282292
 20
-40.109065
 30
0.0
 10
690.327815
 20
-42.063542
 30
0.0
 10
687.916667
 20
-42.063542
 30
0.0
  0
SPLINE
  5
2b9
100
AcDbEntity
  8
0
 62
7
100
AcDbSpline
 70
8
 71
3
 72
8
 73
4
 74
0
 40
0
 40
0
 40
0
 40
0
 40
1
 40
1
 40
1
 40
1
 10
687.916667
 20
-42.063542
 30
0.0
 10
685.505519
 20
-42.063542
 30
0.0
 10
683.551042
 20
-40.109065
 30
0.0
 10
683.551042
 20
-37.697917
 30
0.0
  0
SPLINE
  5
2ba
100
AcDbEntity
  8
0
 62
7
100
AcDbSpline
 70
8
 71
3
 72
8
 73
4
 74
0
 40
0
 40
0
 40
0
 40
0
 40
1
 40
1
 40
1
 40
1
 10
683.551042
 20
-37.697917
 30
0.0
 10
683.551042
 20
-35.286769
 30
0.0
 10
685.505519
 20
-33.332292
 30
0.0
 10
687.916667
 20
-33.332292
 30
0.0
  0
SPLINE
  5
2bb
100
AcDbEntity
  8
0
 62
7
100
AcDbSpline
 70
8
 71
3
 72
8
 73
4
 74
0
 40
0
 40
0
 40
0
 40
0
 40
1
 40
1
 40
1
 40
1
 10
687.916667
 20
-33.332292
 30
0.0
 10
690.327815
 20
-33.332292
 30
0.0
 10
692.282292
 20
-35.286769
 30
0.0
 10
692.282292
 20
-37.697917
 30
0.0
  0
SPLINE
  5
2bc
100
AcDbEntity
  8
0
 62
7
100
AcDbSpline
 70
8
 71
3
 72
8
 73
4
 74
0
 40
0
 40
0
 40
0
 40
0
 40
1
 40
1
 40
1
 40
1
 10
639.365625
 20
68.135417
 30
0.0
 10
639.365625
 20
65.724269
 30
0.0
 10
637.411148
 20
63.769792
 30
0.0
 10
635.000000
 20
63.769792
 30
0.0
  0
SPLINE
  5
2bd
100
AcDbEntity
  8
0
 62
7
100
AcDbSpline
 70
8
 71
3
 72
8
 73
4
 74
0
 40
0
 40
0
 40
0
 40
0
 40
1
 40
1
 40
1
 40
1
 10
635.000000
 20
63.769792
 30
0.0
 10
632.588852
 20
63.769792
 30
0.0
 10
630.634375
 20
65.724269
 30
0.0
 10
630.634375
 20
68.135417
 30
0.0
  0
SPLINE
  5
2be
100
AcDbEntity
  8
0
 62
7
100
AcDbSpline
 70
8
 71
3
 72
8
 73
4
 74
0
 40
0
 40
0
 40
0
 40
0
 40
1
 40
1
 40
1
 40
1
 10
630.634375
 20
68.135417
 30
0.0
 10
630.634375
 20
70.546565
 30
0.0
 10
632.588852
 20
72.501042
 30
0.0
 10
635.000000
 20
72.501042
 30
0.0
  0
SPLINE
  5
2bf
100
AcDbEntity
  8
0
 62
7
100
AcDbSpline
 70
8
 71
3
 72
8
 73
4
 74
0
 40
0
 40
0
 40
0
 40
0
 40
1
 40
1
 40
1
 40
1
 10
635.000000
 20
72.501042
 30
0.0
 10
637.411148
 20
72.501042
 30
0.0
 10
639.365625
 20
70.546565
 30
0.0
 10
639.365625
 20
68.135417
 30
0.0
  0
SPLINE
  5
2c0
100
AcDbEntity
  8
0
 62
7
100
AcDbSpline
 70
8
 71
3
 72
8
 73
4
 74
0
 40
0
 40
0
 40
0
 40
0
 40
1
 40
1
 40
1
 40
1
 10
745.198958
 20
-143.531250
 30
0.0
 10
745.198958
 20
-145.942398
 30
0.0
 10
743.244481
 20
-147.896875
 30
0.0
 10
740.833333
 20
-147.896875
 30
0.0
  0
SPLINE
  5
2c1
100
AcDbEntity
  8
0
 62
7
100
AcDbSpline
 70
8
 71
3
 72
8
 73
4
 74
0
 40
0
 40
0
 40
0
 40
0
 40
1
 40
1
 40
1
 40
1
 10
740.833333
 20
-147.896875
 30
0.0
 10
738.422185
 20
-147.896875
 30
0.0
 10
736.467708
 20
-145.942398
 30
0.0
 10
736.467708
 20
-143.531250
 30
0.0
  0
SPLINE
  5
2c2
100
AcDbEntity
  8
0
 62
7
100
AcDbSpline
 70
8
 71
3
 72
8
 73
4
 74
0
 40
0
 40
0
 40
0
 40
0
 40
1
 40
1
 40
1
 40
1
 10
736.467708
 20
-143.531250
 30
0.0
 10
736.467708
 20
-141.120102
 30
0.0
 10
738.422185
 20
-139.165625
 30
0.0
 10
740.833333
 20
-139.165625
 30
0.0
  0
SPLINE
  5
2c3
100
AcDbEntity
  8
0
 62
7
100
AcDbSpline
 70
8
 71
3
 72
8
 73
4
 74
0
 40
0
 40
0
 40
0
 40
0
 40
1
 40
1
 40
1
 40
1
 10
740.833333
 20
-139.165625
 30
0.0
 10
743.244481
 20
-139.165625
 30
0.0
 10
745.198958
 20
-141.120102
 30
0.0
 10
745.198958
 20
-143.531250
 30
0.0
  0
SPLINE
  5
2c4
100
AcDbEntity
  8
0
 62
7
100
AcDbSpline
 70
8
 71
3
 72
8
 73
4
 74
0
 40
0
 40
0
 40
0
 40
0
 40
1
 40
1
 40
1
 40
1
 10
374.782292
 20
-143.531250
 30
0.0
 10
374.782292
 20
-145.942398
 30
0.0
 10
372.827815
 20
-147.896875
 30
0.0
 10
370.416667
 20
-147.896875
 30
0.0
  0
SPLINE
  5
2c5
100
AcDbEntity
  8
0
 62
7
100
AcDbSpline
 70
8
 71
3
 72
8
 73
4
 74
0
 40
0
 40
0
 40
0
 40
0
 40
1
 40
1
 40
1
 40
1
 10
370.416667
 20
-147.896875
 30
0.0
 10
368.005519
 20
-147.896875
 30
0.0
 10
366.051042
 20
-145.942398
 30
0.0
 10
366.051042
 20
-143.531250
 30
0.0
  0
SPLINE
  5
2c6
100
AcDbEntity
  8
0
 62
7
100
AcDbSpline
 70
8
 71
3
 72
8
 73
4
 74
0
 40
0
 40
0
 40
0
 40
0
 40
1
 40
1
 40
1
 40
1
 10
366.051042
 20
-143.531250
 30
0.0
 10
366.051042
 20
-141.120102
 30
0.0
 10
368.005519
 20
-139.165625
 30
0.0
 10
370.416667
 20
-139.165625
 30
0.0
  0
SPLINE
  5
2c7
100
AcDbEntity
  8
0
 62
7
100
AcDbSpline
 70
8
 71
3
 72
8
 73
4
 74
0
 40
0
 40
0
 40
0
 40
0
 40
1
 40
1
 40
1
 40
1
 10
370.416667
 20
-139.165625
 30
0.0
 10
372.827815
 20
-139.165625
 30
0.0
 10
374.782292
 20
-141.120102
 30
0.0
 10
374.782292
 20
-143.531250
 30
0.0
  0
SPLINE
  5
2c8
100
AcDbEntity
  8
0
 62
7
100
AcDbSpline
 70
8
 71
3
 72
8
 73
4
 74
0
 40
0
 40
0
 40
0
 40
0
 40
1
 40
1
 40
1
 40
1
 10
298.775702
 20
54.906250
 30
0.0
 10
298.775702
 20
52.495102
 30
0.0
 10
296.821225
 20
50.540625
 30
0.0
 10
294.410077
 20
50.540625
 30
0.0
  0
SPLINE
  5
2c9
100
AcDbEntity
  8
0
 62
7
100
AcDbSpline
 70
8
 71
3
 72
8
 73
4
 74
0
 40
0
 40
0
 40
0
 40
0
 40
1
 40
1
 40
1
 40
1
 10
294.410077
 20
50.540625
 30
0.0
 10
291.998929
 20
50.540625
 30
0.0
 10
290.044188
 20
52.495102
 30
0.0
 10
290.044188
 20
54.906250
 30
0.0
  0
SPLINE
  5
2ca
100
AcDbEntity
  8
0
 62
7
100
AcDbSpline
 70
8
 71
3
 72
8
 73
4
 74
0
 40
0
 40
0
 40
0
 40
0
 40
1
 40
1
 40
1
 40
1
 10
290.044188
 20
54.906250
 30
0.0
 10
290.044188
 20
57.317398
 30
0.0
 10
291.998929
 20
59.271875
 30
0.0
 10
294.410077
 20
59.271875
 30
0.0
  0
SPLINE
  5
2cb
100
AcDbEntity
  8
0
 62
7
100
AcDbSpline
 70
8
 71
3
 72
8
 73
4
 74
0
 40
0
 40
0
 40
0
 40
0
 40
1
 40
1
 40
1
 40
1
 10
294.410077
 20
59.271875
 30
0.0
 10
296.821225
 20
59.271875
 30
0.0
 10
298.775702
 20
57.317398
 30
0.0
 10
298.775702
 20
54.906250
 30
0.0
  0
SPLINE
  5
2cc
100
AcDbEntity
  8
0
 62
7
100
AcDbSpline
 70
8
 71
3
 72
8
 73
4
 74
0
 40
0
 40
0
 40
0
 40
0
 40
1
 40
1
 40
1
 40
1
 10
639.365625
 20
-249.364583
 30
0.0
 10
639.365625
 20
-251.775731
 30
0.0
 10
637.411148
 20
-253.730208
 30
0.0
 10
635.000000
 20
-253.730208
 30
0.0
  0
SPLINE
  5
2cd
100
AcDbEntity
  8
0
 62
7
100
AcDbSpline
 70
8
 71
3
 72
8
 73
4
 74
0
 40
0
 40
0
 40
0
 40
0
 40
1
 40
1
 40
1
 40
1
 10
635.000000
 20
-253.730208
 30
0.0
 10
632.588852
 20
-253.730208
 30
0.0
 10
630.634375
 20
-251.775731
 30
0.0
 10
630.634375
 20
-249.364583
 30
0.0
  0
SPLINE
  5
2ce
100
AcDbEntity
  8
0
 62
7
100
AcDbSpline
 70
8
 71
3
 72
8
 73
4
 74
0
 40
0
 40
0
 40
0
 40
0
 40
1
 40
1
 40
1
 40
1
 10
630.634375
 20
-249.364583
 30
0.0
 10
630.634375
 20
-246.953435
 30
0.0
 10
632.588852
 20
-244.998958
 30
0.0
 10
635.000000
 20
-244.998958
 30
0.0
  0
SPLINE
  5
2cf
100
AcDbEntity
  8
0
 62
7
100
AcDbSpline
 70
8
 71
3
 72
8
 73
4
 74
0
 40
0
 40
0
 40
0
 40
0
 40
1
 40
1
 40
1
 40
1
 10
635.000000
 20
-244.998958
 30
0.0
 10
637.411148
 20
-244.998958
 30
0.0
 10
639.365625
 20
-246.953435
 30
0.0
 10
639.365625
 20
-249.364583
 30
0.0
  0
SPLINE
  5
2d0
100
AcDbEntity
  8
0
 62
7
100
AcDbSpline
 70
8
 71
3
 72
8
 73
4
 74
0
 40
0
 40
0
 40
0
 40
0
 40
1
 40
1
 40
1
 40
1
 10
692.282292
 20
-249.364583
 30
0.0
 10
692.282292
 20
-251.775731
 30
0.0
 10
690.327815
 20
-253.730208
 30
0.0
 10
687.916667
 20
-253.730208
 30
0.0
  0
SPLINE
  5
2d1
100
AcDbEntity
  8
0
 62
7
100
AcDbSpline
 70
8
 71
3
 72
8
 73
4
 74
0
 40
0
 40
0
 40
0
 40
0
 40
1
 40
1
 40
1
 40
1
 10
687.916667
 20
-253.730208
 30
0.0
 10
685.505519
 20
-253.730208
 30
0.0
 10
683.551042
 20
-251.775731
 30
0.0
 10
683.551042
 20
-249.364583
 30
0.0
  0
SPLINE
  5
2d2
100
AcDbEntity
  8
0
 62
7
100
AcDbSpline
 70
8
 71
3
 72
8
 73
4
 74
0
 40
0
 40
0
 40
0
 40
0
 40
1
 40
1
 40
1
 40
1
 10
683.551042
 20
-249.364583
 30
0.0
 10
683.551042
 20
-246.953435
 30
0.0
 10
685.505519
 20
-244.998958
 30
0.0
 10
687.916667
 20
-244.998958
 30
0.0
  0
SPLINE
  5
2d3
100
AcDbEntity
  8
0
 62
7
100
AcDbSpline
 70
8
 71
3
 72
8
 73
4
 74
0
 40
0
 40
0
 40
0
 40
0
 40
1
 40
1
 40
1
 40
1
 10
687.916667
 20
-244.998958
 30
0.0
 10
690.327815
 20
-244.998958
 30
0.0
 10
692.282292
 20
-246.953435
 30
0.0
 10
692.282292
 20
-249.364583
 30
0.0
  0
SPLINE
  5
2d4
100
AcDbEntity
  8
0
 62
7
100
AcDbSpline
 70
8
 71
3
 72
8
 73
4
 74
0
 40
0
 40
0
 40
0
 40
0
 40
1
 40
1
 40
1
 40
1
 10
411.823958
 20
-352.538325
 30
0.0
 10
411.823958
 20
-354.949473
 30
0.0
 10
409.869481
 20
-356.903950
 30
0.0
 10
407.458333
 20
-356.903950
 30
0.0
  0
SPLINE
  5
2d5
100
AcDbEntity
  8
0
 62
7
100
AcDbSpline
 70
8
 71
3
 72
8
 73
4
 74
0
 40
0
 40
0
 40
0
 40
0
 40
1
 40
1
 40
1
 40
1
 10
407.458333
 20
-356.903950
 30
0.0
 10
405.047185
 20
-356.903950
 30
0.0
 10
403.092708
 20
-354.949473
 30
0.0
 10
403.092708
 20
-352.538325
 30
0.0
  0
SPLINE
  5
2d6
100
AcDbEntity
  8
0
 62
7
100
AcDbSpline
 70
8
 71
3
 72
8
 73
4
 74
0
 40
0
 40
0
 40
0
 40
0
 40
1
 40
1
 40
1
 40
1
 10
403.092708
 20
-352.538325
 30
0.0
 10
403.092708
 20
-350.127442
 30
0.0
 10
405.047185
 20
-348.172700
 30
0.0
 10
407.458333
 20
-348.172700
 30
0.0
  0
SPLINE
  5
2d7
100
AcDbEntity
  8
0
 62
7
100
AcDbSpline
 70
8
 71
3
 72
8
 73
4
 74
0
 40
0
 40
0
 40
0
 40
0
 40
1
 40
1
 40
1
 40
1
 10
407.458333
 20
-348.172700
 30
0.0
 10
409.869481
 20
-348.172700
 30
0.0
 10
411.823958
 20
-350.127442
 30
0.0
 10
411.823958
 20
-352.538325
 30
0.0
  0
ENDSEC
  0
SECTION
  2
OBJECTS
  0
DICTIONARY
  5
C
330
0
100
AcDbDictionary
  3
ACAD_GROUP
350
D
  3
ACAD_MLINESTYLE
350
17
  0
DICTIONARY
  5
D
330
C
100
AcDbDictionary
  0
DICTIONARY
  5
1A
330
C
100
AcDbDictionary
  0
DICTIONARY
  5
17
330
C
100
AcDbDictionary
  3
STANDARD
350
18
  0
DICTIONARY
  5
19
330
C
100
AcDbDictionary
  0
ENDSEC
  0
EOF
