<?xml version="1.0" encoding="UTF-8" standalone="no"?>
<svg
   xmlns:dc="http://purl.org/dc/elements/1.1/"
   xmlns:cc="http://creativecommons.org/ns#"
   xmlns:rdf="http://www.w3.org/1999/02/22-rdf-syntax-ns#"
   xmlns:svg="http://www.w3.org/2000/svg"
   xmlns="http://www.w3.org/2000/svg"
   xmlns:sodipodi="http://sodipodi.sourceforge.net/DTD/sodipodi-0.dtd"
   xmlns:inkscape="http://www.inkscape.org/namespaces/inkscape"
   width="420mm"
   height="297mm"
   viewBox="0 0 4200 2970"
   version="1.2"
   id="svg4180"
   sodipodi:docname="center_socket.svg"
   inkscape:version="0.92.2 (5c3e80d, 2017-08-06)">
  <metadata
     id="metadata4184">
    <rdf:RDF>
      <cc:Work
         rdf:about="">
        <dc:format>image/svg+xml</dc:format>
        <dc:type
           rdf:resource="http://purl.org/dc/dcmitype/StillImage" />
      </cc:Work>
    </rdf:RDF>
  </metadata>
  <sodipodi:namedview
     pagecolor="#ffffff"
     bordercolor="#666666"
     borderopacity="1"
     objecttolerance="10"
     gridtolerance="10"
     guidetolerance="10"
     inkscape:pageopacity="0"
     inkscape:pageshadow="2"
     inkscape:window-width="1920"
     inkscape:window-height="1015"
     id="namedview4182"
     showgrid="false"
     inkscape:zoom="0.58442937"
     inkscape:cx="1360.7486"
     inkscape:cy="361.75332"
     inkscape:window-x="0"
     inkscape:window-y="0"
     inkscape:window-maximized="1"
     inkscape:current-layer="svg4180" />
  <title
     id="title2">FreeCAD SVG Export</title>
  <desc
     id="desc4">Drawing page: Page006 exported from FreeCAD document: mounting_sun</desc>
  <defs
     id="defs6" />
  <path
     d="m 3094.046,2001.178 69.284,40 C 3253.11,1869.533 3300,1678.706 3300,1485 c 0,-193.706 -46.89,-384.533 -136.67,-556.178 l -69.284,40 c -2.735,1.579 -4.563,4.358 -4.932,7.494 -0.368,3.137 0.767,6.263 3.061,8.433 18.105,17.116 23.745,43.638 14.175,66.64 -9.569,23.002 -32.356,37.698 -57.257,36.926 -24.901,-0.771 -46.734,-16.85 -54.86,-40.4 -1.152,-3.338 -3.978,-5.821 -7.437,-6.533 -3.458,-0.712 -7.036,0.453 -9.412,3.064 -17.443,19.167 -45.22,24.968 -68.876,14.386 -23.656,-10.583 -37.845,-35.158 -35.181,-60.936 2.663,-25.778 21.576,-46.933 46.896,-52.456 3.45,-0.752 6.247,-3.268 7.359,-6.619 1.113,-3.351 0.376,-7.04 -1.939,-9.707 -16.332,-18.812 -19.34,-45.76 -7.558,-67.71 11.783,-21.951 35.903,-34.337 60.608,-31.122 24.704,3.214 44.852,21.36 50.625,45.595 0.732,3.072 2.872,5.618 5.772,6.867 2.901,1.249 6.221,1.055 8.956,-0.524 l 69.284,-40 C 2902.724,510.207 2542.834,302.42 2150,286.04 v 80 c 0,3.16 1.4918,6.13 4.0239,8.02 2.532,1.89 5.8068,2.47 8.8332,1.57 23.8742,-7.12 49.6629,1.25 64.7989,21.04 15.136,19.79 16.47,46.87 3.351,68.05 -13.118,21.178 -37.9594,32.047 -62.4174,27.309 -3.4664,-0.671 -7.0301,0.535 -9.3758,3.174 -2.3458,2.639 -3.126,6.32 -2.0528,9.683 7.8773,24.689 -0.987,51.646 -21.9798,66.842 -20.9929,15.195 -49.3695,15.195 -70.3624,0 -20.9928,-15.196 -29.8571,-42.153 -21.9798,-66.842 1.0732,-3.363 0.293,-7.044 -2.0528,-9.683 -2.3457,-2.639 -5.9094,-3.845 -9.3758,-3.174 -24.458,4.738 -49.2994,-6.131 -62.4174,-27.309 -13.119,-21.18 -11.785,-48.26 3.351,-68.05 15.136,-19.79 40.9247,-28.16 64.7989,-21.04 3.0264,0.9 6.3012,0.32 8.8332,-1.57 2.5321,-1.89 4.0239,-4.86 4.0239,-8.02 v -80 c -392.834,16.38 -752.724,224.167 -963.33,556.18 l 69.284,40 c 2.735,1.579 6.055,1.773 8.956,0.524 2.9,-1.249 5.04,-3.795 5.772,-6.867 5.773,-24.235 25.921,-42.381 50.625,-45.595 24.705,-3.215 48.825,9.171 60.608,31.122 11.782,21.95 8.774,48.898 -7.558,67.71 -2.315,2.667 -3.052,6.356 -1.939,9.707 1.112,3.351 3.909,5.867 7.359,6.619 25.32,5.523 44.233,26.678 46.896,52.456 2.664,25.778 -11.525,50.353 -35.181,60.936 -23.656,10.582 -51.433,4.781 -68.876,-14.386 -2.376,-2.611 -5.954,-3.776 -9.412,-3.064 -3.459,0.712 -6.285,3.195 -7.437,6.533 -8.126,23.55 -29.959,39.629 -54.86,40.4 -24.901,0.772 -47.688,-13.924 -57.257,-36.926 -9.57,-23.002 -3.93,-49.524 14.175,-66.64 2.294,-2.17 3.429,-5.296 3.061,-8.433 -0.369,-3.136 -2.197,-5.915 -4.932,-7.494 l -69.284,-40 c -182.23,348.395 -182.23,763.961 0,1112.356 l 69.284,-40 c 2.735,-1.579 4.563,-4.358 4.932,-7.494 0.368,-3.137 -0.767,-6.263 -3.061,-8.433 -18.105,-17.116 -23.745,-43.638 -14.175,-66.64 9.569,-23.002 32.356,-37.698 57.257,-36.926 24.901,0.771 46.734,16.85 54.86,40.4 1.152,3.338 3.978,5.821 7.437,6.533 3.458,0.712 7.036,-0.453 9.412,-3.064 17.443,-19.167 45.22,-24.968 68.876,-14.386 23.656,10.583 37.845,35.158 35.181,60.936 -2.663,25.778 -21.576,46.933 -46.896,52.456 -3.45,0.752 -6.247,3.268 -7.359,6.619 -1.113,3.351 -0.376,7.04 1.939,9.707 16.332,18.812 19.34,45.76 7.558,67.71 -11.783,21.951 -35.903,34.337 -60.608,31.122 -24.704,-3.214 -44.852,-21.36 -50.625,-45.595 -0.732,-3.072 -2.872,-5.618 -5.772,-6.867 -2.901,-1.249 -6.221,-1.055 -8.956,0.524 l -69.284,40 c 210.606,332.013 570.496,539.8 963.33,556.18 v -80 c 0,-3.16 -1.4918,-6.13 -4.0239,-8.02 -2.532,-1.89 -5.8068,-2.47 -8.8332,-1.57 -23.8742,7.12 -49.6629,-1.25 -64.7989,-21.04 -15.136,-19.79 -16.47,-46.87 -3.351,-68.05 13.118,-21.178 37.9594,-32.047 62.4174,-27.309 3.4664,0.671 7.0301,-0.535 9.3758,-3.174 2.3458,-2.639 3.126,-6.32 2.0528,-9.683 -7.8773,-24.689 0.987,-51.646 21.9798,-66.842 20.9929,-15.195 49.3695,-15.195 70.3624,0 20.9928,15.196 29.8571,42.153 21.9798,66.842 -1.0732,3.363 -0.293,7.044 2.0528,9.683 2.3457,2.639 5.9094,3.845 9.3758,3.174 24.458,-4.738 49.2994,6.131 62.4174,27.309 13.119,21.18 11.785,48.26 -3.351,68.05 -15.136,19.79 -40.9247,28.16 -64.7989,21.04 -3.0264,-0.9 -6.3012,-0.32 -8.8332,1.57 -2.5321,1.89 -4.0239,4.86 -4.0239,8.02 v 80 c 392.834,-16.38 752.724,-224.167 963.33,-556.18 l -69.284,-40 c -2.735,-1.579 -6.055,-1.773 -8.956,-0.524 -2.9,1.249 -5.04,3.795 -5.772,6.867 -5.773,24.235 -25.921,42.381 -50.625,45.595 -24.705,3.215 -48.825,-9.171 -60.608,-31.122 -11.782,-21.95 -8.774,-48.898 7.558,-67.71 2.315,-2.667 3.052,-6.356 1.939,-9.707 -1.112,-3.351 -3.909,-5.867 -7.359,-6.619 -25.32,-5.523 -44.233,-26.678 -46.896,-52.456 -2.664,-25.778 11.525,-50.353 35.181,-60.936 23.656,-10.582 51.433,-4.781 68.876,14.386 2.376,2.611 5.954,3.776 9.412,3.064 3.459,-0.712 6.285,-3.195 7.437,-6.533 8.126,-23.55 29.959,-39.629 54.86,-40.4 24.901,-0.772 47.688,13.924 57.257,36.926 9.57,23.002 3.93,49.524 -14.175,66.64 -2.294,2.17 -3.429,5.296 -3.061,8.433 0.369,3.136 2.197,5.915 4.932,7.494"
     id="path50"
     inkscape:connector-curvature="0"
     style="font-style:normal;font-weight:400;font-size:medium;font-family:'Sans Serif';vector-effect:non-scaling-stroke;fill:none;fill-opacity:1;fill-rule:evenodd;stroke:#000000;stroke-width:1;stroke-linecap:square;stroke-linejoin:bevel;stroke-opacity:1" />
  <path
     d="m 1631.505,733.663 c 32.239,32.238 32.239,84.507 0,116.745 v 0 l -83.048,83.049 v 0 c -96.816,96.816 -166.442,217.411 -201.879,349.664 v 0 l -30.398,113.4466 v 0 c -11.8,44.0385 -57.066,70.1729 -101.105,58.3728 v 0 l -120.325,-32.2399 v 0 c -18.95,-5.0783 -31.42,-23.1537 -29.44,-42.6745 v 0 c 6.13,-60.436 17.55,-120.219 34.11,-178.662 v 0 c 2.318,-8.161 7.978,-14.961 15.583,-18.717 7.606,-3.756 16.446,-4.117 24.332,-0.994 v 0 c 15.882,6.291 33.766,4.988 48.569,-3.537 14.802,-8.525 24.905,-23.34 27.434,-40.234 v 0 c 1.186,-7.915 5.485,-15.028 11.941,-19.758 6.457,-4.73 14.535,-6.683 22.439,-5.427 v 0 c 45,7.155 89.753,-14.174 112.536,-53.635 22.782,-39.461 18.878,-88.883 -9.818,-124.276 v 0 c -5.041,-6.217 -7.388,-14.19 -6.52,-22.146 0.867,-7.957 4.878,-15.236 11.14,-20.22 v 0 c 13.366,-10.638 21.145,-26.795 21.127,-43.877 -0.019,-17.082 -7.833,-33.221 -21.221,-43.83 v 0 c -6.649,-5.268 -10.756,-13.104 -11.306,-21.568 -0.55,-8.465 2.509,-16.766 8.42,-22.85 v 0 c 42.33,-43.57 88.396,-83.346 137.67,-118.875 v 0 c 15.915,-11.475 37.804,-9.713 51.678,4.162 l 88.081,88.081"
     id="path66"
     inkscape:connector-curvature="0"
     style="font-style:normal;font-weight:400;font-size:medium;font-family:'Sans Serif';vector-effect:non-scaling-stroke;fill:none;fill-opacity:1;fill-rule:evenodd;stroke:#000000;stroke-width:1;stroke-linecap:square;stroke-linejoin:bevel;stroke-opacity:1" />
  <path
     d="m 2317.627,501.366 c 1.238,-8.391 5.97,-15.866 13.026,-20.576 7.055,-4.71 15.774,-6.21 23.998,-4.13 v 0 c 58.897,14.873 116.378,34.878 171.783,59.786 v 0 c 17.896,8.046 27.314,27.884 22.236,46.836 l -32.24,120.321 c -11.8,44.038 -57.066,70.173 -101.105,58.373 v 0 l -113.446,-30.398 v 0 c -132.2534,-35.437 -271.5046,-35.437 -403.758,0 v 0 l -113.446,30.398 v 0 c -44.039,11.8 -89.305,-14.335 -101.105,-58.373 v 0 l -32.24,-120.321 v 0 c -5.078,-18.952 4.34,-38.79 22.236,-46.836 v 0 c 55.405,-24.908 112.886,-44.913 171.783,-59.786 v 0 c 8.224,-2.08 16.943,-0.58 23.998,4.13 7.056,4.71 11.788,12.185 13.026,20.576 v 0 c 2.494,16.899 12.564,31.736 27.348,40.293 14.784,8.557 32.666,9.899 48.561,3.643 v 0 c 7.447,-2.931 15.757,-2.765 23.081,0.462 7.325,3.226 13.056,9.246 15.92,16.719 v 0 c 16.3033,42.549 57.1518,70.641 102.717,70.641 45.5652,0 86.4137,-28.092 102.717,-70.641 v 0 c 2.864,-7.473 8.595,-13.493 15.92,-16.719 7.324,-3.227 15.634,-3.393 23.081,-0.462 v 0 c 15.895,6.256 33.777,4.914 48.561,-3.643 14.784,-8.557 24.854,-23.394 27.348,-40.293"
     id="path82"
     inkscape:connector-curvature="0"
     style="font-style:normal;font-weight:400;font-size:medium;font-family:'Sans Serif';vector-effect:non-scaling-stroke;fill:none;fill-opacity:1;fill-rule:evenodd;stroke:#000000;stroke-width:1;stroke-linecap:square;stroke-linejoin:bevel;stroke-opacity:1" />
  <path
     d="m 3060.665,1181.653 c 7.886,-3.123 16.726,-2.762 24.332,0.994 7.605,3.756 13.265,10.556 15.583,18.717 v 0 c 16.56,58.443 27.98,118.226 34.11,178.662 v 0 c 1.98,19.5208 -10.49,37.5962 -29.44,42.6745 l -120.325,32.2399 c -44.039,11.8001 -89.305,-14.3343 -101.105,-58.3728 v 0 l -30.398,-113.4466 v 0 c -35.437,-132.253 -105.063,-252.848 -201.879,-349.664 v 0 l -83.048,-83.049 v 0 c -32.239,-32.238 -32.239,-84.507 0,-116.745 v 0 l 88.081,-88.081 v 0 c 13.874,-13.875 35.763,-15.637 51.678,-4.162 v 0 c 49.274,35.529 95.34,75.305 137.67,118.875 v 0 c 5.911,6.084 8.97,14.385 8.42,22.85 -0.55,8.464 -4.657,16.3 -11.306,21.568 v 0 c -13.388,10.609 -21.202,26.748 -21.221,43.83 -0.018,17.082 7.761,33.239 21.127,43.877 v 0 c 6.262,4.984 10.273,12.263 11.14,20.22 0.868,7.956 -1.479,15.929 -6.52,22.146 v 0 c -28.696,35.393 -32.6,84.815 -9.818,124.276 22.783,39.461 67.536,60.79 112.536,53.635 v 0 c 7.904,-1.256 15.982,0.697 22.439,5.427 6.456,4.73 10.755,11.843 11.941,19.758 v 0 c 2.529,16.894 12.632,31.709 27.434,40.234 14.803,8.525 32.687,9.828 48.569,3.537"
     id="path98"
     inkscape:connector-curvature="0"
     style="font-style:normal;font-weight:400;font-size:medium;font-family:'Sans Serif';vector-effect:non-scaling-stroke;fill:none;fill-opacity:1;fill-rule:evenodd;stroke:#000000;stroke-width:1;stroke-linecap:square;stroke-linejoin:bevel;stroke-opacity:1" />
  <path
     d="m 1631.505,2119.592 c 32.239,32.238 32.239,84.507 0,116.745 v 0 l -88.081,88.081 v 0 c -13.874,13.875 -35.763,15.637 -51.678,4.162 v 0 c -49.274,-35.529 -95.34,-75.305 -137.67,-118.875 v 0 c -5.911,-6.084 -8.97,-14.385 -8.42,-22.85 0.55,-8.464 4.657,-16.3 11.306,-21.568 v 0 c 13.388,-10.609 21.202,-26.748 21.221,-43.83 0.018,-17.082 -7.761,-33.239 -21.127,-43.877 v 0 c -6.262,-4.984 -10.273,-12.263 -11.14,-20.22 -0.868,-7.956 1.479,-15.929 6.52,-22.146 v 0 c 28.696,-35.393 32.6,-84.815 9.818,-124.276 -22.783,-39.461 -67.536,-60.79 -112.536,-53.635 v 0 c -7.904,1.256 -15.982,-0.697 -22.439,-5.427 -6.456,-4.73 -10.755,-11.843 -11.941,-19.758 v 0 c -2.529,-16.894 -12.632,-31.709 -27.434,-40.234 -14.803,-8.525 -32.687,-9.828 -48.569,-3.537 v 0 c -7.886,3.123 -16.726,2.762 -24.332,-0.994 -7.605,-3.756 -13.265,-10.556 -15.583,-18.717 v 0 c -16.56,-58.443 -27.98,-118.226 -34.11,-178.662 v 0 c -1.98,-19.5208 10.49,-37.5962 29.44,-42.6745 l 120.325,-32.2399 c 44.039,-11.8001 89.305,14.3343 101.105,58.3728 v 0 l 30.398,113.4466 v 0 c 35.437,132.253 105.063,252.848 201.879,349.664 v 0 l 83.048,83.049"
     id="path114"
     inkscape:connector-curvature="0"
     style="font-style:normal;font-weight:400;font-size:medium;font-family:'Sans Serif';vector-effect:non-scaling-stroke;fill:none;fill-opacity:1;fill-rule:evenodd;stroke:#000000;stroke-width:1;stroke-linecap:square;stroke-linejoin:bevel;stroke-opacity:1" />
  <path
     d="m 2883.82,1573.4324 c 11.8,-44.0385 57.066,-70.1729 101.105,-58.3728 v 0 l 120.325,32.2399 v 0 c 18.95,5.0783 31.42,23.1537 29.44,42.6745 v 0 c -6.13,60.436 -17.55,120.219 -34.11,178.662 v 0 c -2.318,8.161 -7.978,14.961 -15.583,18.717 -7.606,3.756 -16.446,4.117 -24.332,0.994 v 0 c -15.882,-6.291 -33.766,-4.988 -48.569,3.537 -14.802,8.525 -24.905,23.34 -27.434,40.234 v 0 c -1.186,7.915 -5.485,15.028 -11.941,19.758 -6.457,4.73 -14.535,6.683 -22.439,5.427 v 0 c -45,-7.155 -89.753,14.174 -112.536,53.635 -22.782,39.461 -18.878,88.883 9.818,124.276 v 0 c 5.041,6.217 7.388,14.19 6.52,22.146 -0.867,7.957 -4.878,15.236 -11.14,20.22 v 0 c -13.366,10.638 -21.145,26.795 -21.127,43.877 0.019,17.082 7.833,33.221 21.221,43.83 v 0 c 6.649,5.268 10.756,13.104 11.306,21.568 0.55,8.465 -2.509,16.766 -8.42,22.85 v 0 c -42.33,43.57 -88.396,83.346 -137.67,118.875 v 0 c -15.915,11.475 -37.804,9.713 -51.678,-4.162 l -88.081,-88.081 c -32.239,-32.238 -32.239,-84.507 0,-116.745 v 0 l 83.048,-83.049 v 0 c 96.816,-96.816 166.442,-217.411 201.879,-349.664 v 0 l 30.398,-113.4466"
     id="path130"
     inkscape:connector-curvature="0"
     style="font-style:normal;font-weight:400;font-size:medium;font-family:'Sans Serif';vector-effect:non-scaling-stroke;fill:none;fill-opacity:1;fill-rule:evenodd;stroke:#000000;stroke-width:1;stroke-linecap:square;stroke-linejoin:bevel;stroke-opacity:1" />
  <path
     d="m 2415.325,2208.024 c 44.039,-11.8 89.305,14.335 101.105,58.373 v 0 l 32.24,120.321 v 0 c 5.078,18.952 -4.34,38.79 -22.236,46.836 v 0 c -55.405,24.908 -112.886,44.913 -171.783,59.786 v 0 c -8.224,2.08 -16.943,0.58 -23.998,-4.13 -7.056,-4.71 -11.788,-12.185 -13.026,-20.576 v 0 c -2.494,-16.899 -12.564,-31.736 -27.348,-40.293 -14.784,-8.557 -32.666,-9.899 -48.561,-3.643 v 0 c -7.447,2.931 -15.757,2.765 -23.081,-0.462 -7.325,-3.226 -13.056,-9.246 -15.92,-16.719 v 0 c -16.3033,-42.549 -57.1518,-70.641 -102.717,-70.641 -45.5652,0 -86.4137,28.092 -102.717,70.641 v 0 c -2.864,7.473 -8.595,13.493 -15.92,16.719 -7.324,3.227 -15.634,3.393 -23.081,0.462 v 0 c -15.895,-6.256 -33.777,-4.914 -48.561,3.643 -14.784,8.557 -24.854,23.394 -27.348,40.293 v 0 c -1.238,8.391 -5.97,15.866 -13.026,20.576 -7.055,4.71 -15.774,6.21 -23.998,4.13 v 0 c -58.897,-14.873 -116.378,-34.878 -171.783,-59.786 v 0 c -17.896,-8.046 -27.314,-27.884 -22.236,-46.836 v 0 l 32.24,-120.321 c 11.8,-44.038 57.066,-70.173 101.105,-58.373 v 0 l 113.446,30.398 v 0 c 132.2534,35.437 271.5046,35.437 403.758,0 v 0 l 113.446,-30.398"
     id="path146"
     inkscape:connector-curvature="0"
     style="font-style:normal;font-weight:400;font-size:medium;font-family:'Sans Serif';vector-effect:non-scaling-stroke;fill:none;fill-opacity:1;fill-rule:evenodd;stroke:#000000;stroke-width:1;stroke-linecap:square;stroke-linejoin:bevel;stroke-opacity:1" />
  <path
     d="m 1982.552,1135 c -34.705,0 -65.704,-21.706 -77.574,-54.317 v 0 L 1828.59,870.806 c -4.558,-12.522 -3.929,-26.345 1.748,-38.401 5.677,-12.057 15.932,-21.348 28.488,-25.811 v 0 c 156.0004,-55.459 326.3476,-55.459 482.348,0 v 0 c 12.556,4.463 22.811,13.754 28.488,25.811 5.677,12.056 6.306,25.879 1.748,38.401 l -76.388,209.877 c -11.87,32.611 -42.869,54.317 -77.574,54.317 v 0 h -234.896"
     id="path162"
     inkscape:connector-curvature="0"
     style="font-style:normal;font-weight:400;font-size:medium;font-family:'Sans Serif';vector-effect:non-scaling-stroke;fill:none;fill-opacity:1;fill-rule:evenodd;stroke:#000000;stroke-width:1;stroke-linecap:square;stroke-linejoin:bevel;stroke-opacity:1" />
  <path
     d="m 1855.615,1761.713 c 17.353,30.055 14.054,67.754 -8.253,94.339 v 0 l -143.564,171.093 c -8.566,10.208 -20.852,16.575 -34.131,17.686 -13.28,1.112 -26.454,-3.123 -36.597,-11.765 v 0 C 1507.041,1925.695 1421.868,1778.17 1391.896,1615.34 v 0 c -2.412,-13.105 0.507,-26.632 8.109,-37.576 7.602,-10.9445 19.259,-18.4014 32.382,-20.7154 l 219.953,-38.7836 c 34.178,-6.0264 68.475,9.9666 85.827,40.0216 v 0 l 117.448,203.4264"
     id="path178"
     inkscape:connector-curvature="0"
     style="font-style:normal;font-weight:400;font-size:medium;font-family:'Sans Serif';vector-effect:non-scaling-stroke;fill:none;fill-opacity:1;fill-rule:evenodd;stroke:#000000;stroke-width:1;stroke-linecap:square;stroke-linejoin:bevel;stroke-opacity:1" />
  <path
     d="m 2344.385,1208.287 c -17.353,-30.055 -14.054,-67.754 8.253,-94.339 v 0 l 143.564,-171.093 c 8.566,-10.208 20.852,-16.575 34.131,-17.686 13.28,-1.112 26.454,3.123 36.597,11.765 v 0 c 126.029,107.371 211.202,254.896 241.174,417.726 v 0 c 2.412,13.105 -0.507,26.632 -8.109,37.576 -7.602,10.9445 -19.259,18.4014 -32.382,20.7154 l -219.953,38.7836 c -34.178,6.0264 -68.475,-9.9666 -85.827,-40.0216 v 0 L 2344.385,1208.287"
     id="path194"
     inkscape:connector-curvature="0"
     style="font-style:normal;font-weight:400;font-size:medium;font-family:'Sans Serif';vector-effect:non-scaling-stroke;fill:none;fill-opacity:1;fill-rule:evenodd;stroke:#000000;stroke-width:1;stroke-linecap:square;stroke-linejoin:bevel;stroke-opacity:1" />
  <path
     d="m 2461.833,1558.2866 c 17.352,-30.055 51.649,-46.048 85.827,-40.0216 v 0 l 219.953,38.7836 c 13.123,2.314 24.78,9.7709 32.382,20.7154 7.602,10.944 10.521,24.471 8.109,37.576 v 0 c -29.972,162.83 -115.145,310.355 -241.174,417.726 v 0 c -10.143,8.642 -23.317,12.877 -36.597,11.765 -13.279,-1.111 -25.565,-7.478 -34.131,-17.686 l -143.564,-171.093 c -22.307,-26.585 -25.606,-64.284 -8.253,-94.339 v 0 l 117.448,-203.4264"
     id="path210"
     inkscape:connector-curvature="0"
     style="font-style:normal;font-weight:400;font-size:medium;font-family:'Sans Serif';vector-effect:non-scaling-stroke;fill:none;fill-opacity:1;fill-rule:evenodd;stroke:#000000;stroke-width:1;stroke-linecap:square;stroke-linejoin:bevel;stroke-opacity:1" />
  <path
     d="m 2217.448,1835 c 34.705,0 65.704,21.706 77.574,54.317 v 0 l 76.388,209.877 c 4.558,12.522 3.929,26.345 -1.748,38.401 -5.677,12.057 -15.932,21.348 -28.488,25.811 v 0 c -156.0004,55.459 -326.3476,55.459 -482.348,0 v 0 c -12.556,-4.463 -22.811,-13.754 -28.488,-25.811 -5.677,-12.056 -6.306,-25.879 -1.748,-38.401 l 76.388,-209.877 c 11.87,-32.611 42.869,-54.317 77.574,-54.317 v 0 h 234.896"
     id="path226"
     inkscape:connector-curvature="0"
     style="font-style:normal;font-weight:400;font-size:medium;font-family:'Sans Serif';vector-effect:non-scaling-stroke;fill:none;fill-opacity:1;fill-rule:evenodd;stroke:#000000;stroke-width:1;stroke-linecap:square;stroke-linejoin:bevel;stroke-opacity:1" />
  <path
     d="m 1847.362,1113.948 c 22.307,26.585 25.606,64.284 8.253,94.339 v 0 l -117.448,203.4264 c -17.352,30.055 -51.649,46.048 -85.827,40.0216 v 0 l -219.953,-38.7836 c -13.123,-2.314 -24.78,-9.7709 -32.382,-20.7154 -7.602,-10.944 -10.521,-24.471 -8.109,-37.576 v 0 c 29.972,-162.83 115.145,-310.355 241.174,-417.726 v 0 c 10.143,-8.642 23.317,-12.877 36.597,-11.765 13.279,1.111 25.565,7.478 34.131,17.686 l 143.564,171.093"
     id="path242"
     inkscape:connector-curvature="0"
     style="font-style:normal;font-weight:400;font-size:medium;font-family:'Sans Serif';vector-effect:non-scaling-stroke;fill:none;fill-opacity:1;fill-rule:evenodd;stroke:#000000;stroke-width:1;stroke-linecap:square;stroke-linejoin:bevel;stroke-opacity:1" />
  <path
     d="m 2300,1349.648 v 252.801 c 0,45.592 -36.959,82.551 -82.551,82.551 H 1982.552 C 1936.96,1685 1900,1648.04 1900,1602.448 v -252.8 c 0,-35.704 28.944,-64.648 64.648,-64.648 h 270.704 c 35.704,0 64.648,28.944 64.648,64.648"
     id="path258"
     inkscape:connector-curvature="0"
     style="font-style:normal;font-weight:400;font-size:medium;font-family:'Sans Serif';vector-effect:non-scaling-stroke;fill:none;fill-opacity:1;fill-rule:evenodd;stroke:#000000;stroke-width:1;stroke-linecap:square;stroke-linejoin:bevel;stroke-opacity:1" />
  <path
     d="m 2907.817,2121.396 c 0,16.569 -13.431,30 -30,30 -16.568,0 -30,-13.431 -30,-30 0,-16.568 13.432,-30 30,-30 16.569,0 30,13.432 30,30"
     id="path274"
     inkscape:connector-curvature="0"
     style="font-style:normal;font-weight:400;font-size:medium;font-family:'Sans Serif';vector-effect:non-scaling-stroke;fill:none;fill-opacity:1;fill-rule:evenodd;stroke:#000000;stroke-width:1;stroke-linecap:square;stroke-linejoin:bevel;stroke-opacity:1" />
  <path
     d="m 1189.956,1840.412 c 0,16.568 -13.431,30 -30,30 -16.568,0 -30,-13.432 -30,-30 0,-16.569 13.432,-30 30,-30 16.569,0 30,13.431 30,30"
     id="path290"
     inkscape:connector-curvature="0"
     style="font-style:normal;font-weight:400;font-size:medium;font-family:'Sans Serif';vector-effect:non-scaling-stroke;fill:none;fill-opacity:1;fill-rule:evenodd;stroke:#000000;stroke-width:1;stroke-linecap:square;stroke-linejoin:bevel;stroke-opacity:1" />
  <path
     d="m 1352.183,2121.396 c 0,16.569 -13.432,30 -30,30 -16.569,0 -30,-13.431 -30,-30 0,-16.568 13.431,-30 30,-30 16.568,0 30,13.432 30,30"
     id="path306"
     inkscape:connector-curvature="0"
     style="font-style:normal;font-weight:400;font-size:medium;font-family:'Sans Serif';vector-effect:non-scaling-stroke;fill:none;fill-opacity:1;fill-rule:evenodd;stroke:#000000;stroke-width:1;stroke-linecap:square;stroke-linejoin:bevel;stroke-opacity:1" />
  <path
     d="m 3070.044,1129.588 c 0,16.569 -13.432,30 -30,30 -16.569,0 -30,-13.431 -30,-30 0,-16.568 13.431,-30 30,-30 16.568,0 30,13.432 30,30"
     id="path322"
     inkscape:connector-curvature="0"
     style="font-style:normal;font-weight:400;font-size:medium;font-family:'Sans Serif';vector-effect:non-scaling-stroke;fill:none;fill-opacity:1;fill-rule:evenodd;stroke:#000000;stroke-width:1;stroke-linecap:square;stroke-linejoin:bevel;stroke-opacity:1" />
  <path
     d="m 1967.774,493.192 c 0,16.569 -13.432,30 -30,30 -16.569,0 -30,-13.431 -30,-30 0,-16.572 13.431,-30.002 30,-30.002 16.568,0 30,13.43 30,30.002"
     id="path338"
     inkscape:connector-curvature="0"
     style="font-style:normal;font-weight:400;font-size:medium;font-family:'Sans Serif';vector-effect:non-scaling-stroke;fill:none;fill-opacity:1;fill-rule:evenodd;stroke:#000000;stroke-width:1;stroke-linecap:square;stroke-linejoin:bevel;stroke-opacity:1" />
  <path
     d="m 1967.774,2476.808 c 0,16.572 -13.432,30.002 -30,30.002 -16.569,0 -30,-13.43 -30,-30.002 0,-16.569 13.431,-30 30,-30 16.568,0 30,13.431 30,30"
     id="path354"
     inkscape:connector-curvature="0"
     style="font-style:normal;font-weight:400;font-size:medium;font-family:'Sans Serif';vector-effect:non-scaling-stroke;fill:none;fill-opacity:1;fill-rule:evenodd;stroke:#000000;stroke-width:1;stroke-linecap:square;stroke-linejoin:bevel;stroke-opacity:1" />
  <path
     d="m 1352.183,848.604 c 0,16.568 -13.432,30 -30,30 -16.569,0 -30,-13.432 -30,-30 0,-16.569 13.431,-30 30,-30 16.568,0 30,13.431 30,30"
     id="path370"
     inkscape:connector-curvature="0"
     style="font-style:normal;font-weight:400;font-size:medium;font-family:'Sans Serif';vector-effect:non-scaling-stroke;fill:none;fill-opacity:1;fill-rule:evenodd;stroke:#000000;stroke-width:1;stroke-linecap:square;stroke-linejoin:bevel;stroke-opacity:1" />
  <path
     d="m 2292.226,2476.808 c 0,16.572 -13.431,30.002 -30,30.002 -16.568,0 -30,-13.43 -30,-30.002 0,-16.569 13.432,-30 30,-30 16.569,0 30,13.431 30,30"
     id="path386"
     inkscape:connector-curvature="0"
     style="font-style:normal;font-weight:400;font-size:medium;font-family:'Sans Serif';vector-effect:non-scaling-stroke;fill:none;fill-opacity:1;fill-rule:evenodd;stroke:#000000;stroke-width:1;stroke-linecap:square;stroke-linejoin:bevel;stroke-opacity:1" />
  <path
     d="m 2292.226,493.192 c 0,16.569 -13.431,30 -30,30 -16.568,0 -30,-13.431 -30,-30 0,-16.572 13.432,-30.002 30,-30.002 16.569,0 30,13.43 30,30.002"
     id="path402"
     inkscape:connector-curvature="0"
     style="font-style:normal;font-weight:400;font-size:medium;font-family:'Sans Serif';vector-effect:non-scaling-stroke;fill:none;fill-opacity:1;fill-rule:evenodd;stroke:#000000;stroke-width:1;stroke-linecap:square;stroke-linejoin:bevel;stroke-opacity:1" />
  <path
     d="m 1189.956,1129.588 c 0,16.569 -13.431,30 -30,30 -16.568,0 -30,-13.431 -30,-30 0,-16.568 13.432,-30 30,-30 16.569,0 30,13.432 30,30"
     id="path418"
     inkscape:connector-curvature="0"
     style="font-style:normal;font-weight:400;font-size:medium;font-family:'Sans Serif';vector-effect:non-scaling-stroke;fill:none;fill-opacity:1;fill-rule:evenodd;stroke:#000000;stroke-width:1;stroke-linecap:square;stroke-linejoin:bevel;stroke-opacity:1" />
  <path
     d="m 3070.044,1840.412 c 0,16.568 -13.432,30 -30,30 -16.569,0 -30,-13.432 -30,-30 0,-16.569 13.431,-30 30,-30 16.568,0 30,13.431 30,30"
     id="path434"
     inkscape:connector-curvature="0"
     style="font-style:normal;font-weight:400;font-size:medium;font-family:'Sans Serif';vector-effect:non-scaling-stroke;fill:none;fill-opacity:1;fill-rule:evenodd;stroke:#000000;stroke-width:1;stroke-linecap:square;stroke-linejoin:bevel;stroke-opacity:1" />
  <path
     d="m 2907.817,848.604 c 0,16.568 -13.431,30 -30,30 -16.568,0 -30,-13.432 -30,-30 0,-16.569 13.432,-30 30,-30 16.569,0 30,13.431 30,30"
     id="path450"
     inkscape:connector-curvature="0"
     style="font-style:normal;font-weight:400;font-size:medium;font-family:'Sans Serif';vector-effect:non-scaling-stroke;fill:none;fill-opacity:1;fill-rule:evenodd;stroke:#000000;stroke-width:1;stroke-linecap:square;stroke-linejoin:bevel;stroke-opacity:1" />
  <path
     d="m 2676.5,515.052 c 0,9.112 -7.387,16.5 -16.5,16.5 -9.113,0 -16.5,-7.388 -16.5,-16.5 0,-9.113 7.387,-16.5 16.5,-16.5 9.113,0 16.5,7.387 16.5,16.5"
     id="path466"
     inkscape:connector-curvature="0"
     style="font-style:normal;font-weight:400;font-size:medium;font-family:'Sans Serif';vector-effect:non-scaling-stroke;fill:none;fill-opacity:1;fill-rule:evenodd;stroke:#000000;stroke-width:1;stroke-linecap:square;stroke-linejoin:bevel;stroke-opacity:1" />
  <path
     d="m 1556.5,2454.948 c 0,9.113 -7.387,16.5 -16.5,16.5 -9.113,0 -16.5,-7.387 -16.5,-16.5 0,-9.112 7.387,-16.5 16.5,-16.5 9.113,0 16.5,7.388 16.5,16.5"
     id="path482"
     inkscape:connector-curvature="0"
     style="font-style:normal;font-weight:400;font-size:medium;font-family:'Sans Serif';vector-effect:non-scaling-stroke;fill:none;fill-opacity:1;fill-rule:evenodd;stroke:#000000;stroke-width:1;stroke-linecap:square;stroke-linejoin:bevel;stroke-opacity:1" />
  <path
     d="m 1271.225,750.214 c 0,9.113 -7.387,16.5 -16.5,16.5 -9.112,0 -16.5,-7.387 -16.5,-16.5 0,-9.113 7.388,-16.5 16.5,-16.5 9.113,0 16.5,7.387 16.5,16.5"
     id="path498"
     inkscape:connector-curvature="0"
     style="font-style:normal;font-weight:400;font-size:medium;font-family:'Sans Serif';vector-effect:non-scaling-stroke;fill:none;fill-opacity:1;fill-rule:evenodd;stroke:#000000;stroke-width:1;stroke-linecap:square;stroke-linejoin:bevel;stroke-opacity:1" />
  <path
     d="m 1057.52,1849.636 c 0,9.113 -7.39,16.5 -16.5,16.5 -9.11,0 -16.5,-7.387 -16.5,-16.5 0,-9.112 7.39,-16.5 16.5,-16.5 9.11,0 16.5,7.388 16.5,16.5"
     id="path514"
     inkscape:connector-curvature="0"
     style="font-style:normal;font-weight:400;font-size:medium;font-family:'Sans Serif';vector-effect:non-scaling-stroke;fill:none;fill-opacity:1;fill-rule:evenodd;stroke:#000000;stroke-width:1;stroke-linecap:square;stroke-linejoin:bevel;stroke-opacity:1" />
  <path
     d="m 1902.794,385.58 c 0,9.11 -7.387,16.5 -16.5,16.5 -9.113,0 -16.5,-7.39 -16.5,-16.5 0,-9.12 7.387,-16.5 16.5,-16.5 9.113,0 16.5,7.38 16.5,16.5"
     id="path530"
     inkscape:connector-curvature="0"
     style="font-style:normal;font-weight:400;font-size:medium;font-family:'Sans Serif';vector-effect:non-scaling-stroke;fill:none;fill-opacity:1;fill-rule:evenodd;stroke:#000000;stroke-width:1;stroke-linecap:square;stroke-linejoin:bevel;stroke-opacity:1" />
  <path
     d="m 3175.48,1120.364 c 0,9.112 -7.39,16.5 -16.5,16.5 -9.11,0 -16.5,-7.388 -16.5,-16.5 0,-9.113 7.39,-16.5 16.5,-16.5 9.11,0 16.5,7.387 16.5,16.5"
     id="path546"
     inkscape:connector-curvature="0"
     style="font-style:normal;font-weight:400;font-size:medium;font-family:'Sans Serif';vector-effect:non-scaling-stroke;fill:none;fill-opacity:1;fill-rule:evenodd;stroke:#000000;stroke-width:1;stroke-linecap:square;stroke-linejoin:bevel;stroke-opacity:1" />
  <path
     d="m 1816.5,965.385 c 0,9.112 -7.387,16.5 -16.5,16.5 -9.113,0 -16.5,-7.388 -16.5,-16.5 0,-9.113 7.387,-16.5 16.5,-16.5 9.113,0 16.5,7.387 16.5,16.5"
     id="path562"
     inkscape:connector-curvature="0"
     style="font-style:normal;font-weight:400;font-size:medium;font-family:'Sans Serif';vector-effect:non-scaling-stroke;fill:none;fill-opacity:1;fill-rule:evenodd;stroke:#000000;stroke-width:1;stroke-linecap:square;stroke-linejoin:bevel;stroke-opacity:1" />
  <path
     d="m 2416.5,2004.615 c 0,9.113 -7.387,16.5 -16.5,16.5 -9.113,0 -16.5,-7.387 -16.5,-16.5 0,-9.112 7.387,-16.5 16.5,-16.5 9.113,0 16.5,7.388 16.5,16.5"
     id="path578"
     inkscape:connector-curvature="0"
     style="font-style:normal;font-weight:400;font-size:medium;font-family:'Sans Serif';vector-effect:non-scaling-stroke;fill:none;fill-opacity:1;fill-rule:evenodd;stroke:#000000;stroke-width:1;stroke-linecap:square;stroke-linejoin:bevel;stroke-opacity:1" />
  <path
     d="m 1816.5,2004.615 c 0,9.113 -7.387,16.5 -16.5,16.5 -9.113,0 -16.5,-7.387 -16.5,-16.5 0,-9.112 7.387,-16.5 16.5,-16.5 9.113,0 16.5,7.388 16.5,16.5"
     id="path594"
     inkscape:connector-curvature="0"
     style="font-style:normal;font-weight:400;font-size:medium;font-family:'Sans Serif';vector-effect:non-scaling-stroke;fill:none;fill-opacity:1;fill-rule:evenodd;stroke:#000000;stroke-width:1;stroke-linecap:square;stroke-linejoin:bevel;stroke-opacity:1" />
  <path
     d="m 2416.5,965.385 c 0,9.112 -7.387,16.5 -16.5,16.5 -9.113,0 -16.5,-7.388 -16.5,-16.5 0,-9.113 7.387,-16.5 16.5,-16.5 9.113,0 16.5,7.387 16.5,16.5"
     id="path610"
     inkscape:connector-curvature="0"
     style="font-style:normal;font-weight:400;font-size:medium;font-family:'Sans Serif';vector-effect:non-scaling-stroke;fill:none;fill-opacity:1;fill-rule:evenodd;stroke:#000000;stroke-width:1;stroke-linecap:square;stroke-linejoin:bevel;stroke-opacity:1" />
  <path
     d="m 3175.48,1849.636 c 0,9.113 -7.39,16.5 -16.5,16.5 -9.11,0 -16.5,-7.387 -16.5,-16.5 0,-9.112 7.39,-16.5 16.5,-16.5 9.11,0 16.5,7.388 16.5,16.5"
     id="path626"
     inkscape:connector-curvature="0"
     style="font-style:normal;font-weight:400;font-size:medium;font-family:'Sans Serif';vector-effect:non-scaling-stroke;fill:none;fill-opacity:1;fill-rule:evenodd;stroke:#000000;stroke-width:1;stroke-linecap:square;stroke-linejoin:bevel;stroke-opacity:1" />
  <path
     d="m 3236.5,1485 c 0,9.1127 -7.39,16.5 -16.5,16.5 -9.11,0 -16.5,-7.3873 -16.5,-16.5 0,-9.1127 7.39,-16.5 16.5,-16.5 9.11,0 16.5,7.3873 16.5,16.5"
     id="path642"
     inkscape:connector-curvature="0"
     style="font-style:normal;font-weight:400;font-size:medium;font-family:'Sans Serif';vector-effect:non-scaling-stroke;fill:none;fill-opacity:1;fill-rule:evenodd;stroke:#000000;stroke-width:1;stroke-linecap:square;stroke-linejoin:bevel;stroke-opacity:1" />
  <path
     d="m 2716.5,1485 c 0,9.1127 -7.387,16.5 -16.5,16.5 -9.113,0 -16.5,-7.3873 -16.5,-16.5 0,-9.1127 7.387,-16.5 16.5,-16.5 9.113,0 16.5,7.3873 16.5,16.5"
     id="path658"
     inkscape:connector-curvature="0"
     style="font-style:normal;font-weight:400;font-size:medium;font-family:'Sans Serif';vector-effect:non-scaling-stroke;fill:none;fill-opacity:1;fill-rule:evenodd;stroke:#000000;stroke-width:1;stroke-linecap:square;stroke-linejoin:bevel;stroke-opacity:1" />
  <path
     d="m 1516.5,1485 c 0,9.1127 -7.387,16.5 -16.5,16.5 -9.113,0 -16.5,-7.3873 -16.5,-16.5 0,-9.1127 7.387,-16.5 16.5,-16.5 9.113,0 16.5,7.3873 16.5,16.5"
     id="path674"
     inkscape:connector-curvature="0"
     style="font-style:normal;font-weight:400;font-size:medium;font-family:'Sans Serif';vector-effect:non-scaling-stroke;fill:none;fill-opacity:1;fill-rule:evenodd;stroke:#000000;stroke-width:1;stroke-linecap:square;stroke-linejoin:bevel;stroke-opacity:1" />
  <path
     d="m 996.5,1485 c 0,9.1127 -7.39,16.5 -16.5,16.5 -9.11,0 -16.5,-7.3873 -16.5,-16.5 0,-9.1127 7.39,-16.5 16.5,-16.5 9.11,0 16.5,7.3873 16.5,16.5"
     id="path690"
     inkscape:connector-curvature="0"
     style="font-style:normal;font-weight:400;font-size:medium;font-family:'Sans Serif';vector-effect:non-scaling-stroke;fill:none;fill-opacity:1;fill-rule:evenodd;stroke:#000000;stroke-width:1;stroke-linecap:square;stroke-linejoin:bevel;stroke-opacity:1" />
  <path
     d="m 1556.5,515.052 c 0,9.112 -7.387,16.5 -16.5,16.5 -9.113,0 -16.5,-7.388 -16.5,-16.5 0,-9.113 7.387,-16.5 16.5,-16.5 9.113,0 16.5,7.387 16.5,16.5"
     id="path706"
     inkscape:connector-curvature="0"
     style="font-style:normal;font-weight:400;font-size:medium;font-family:'Sans Serif';vector-effect:non-scaling-stroke;fill:none;fill-opacity:1;fill-rule:evenodd;stroke:#000000;stroke-width:1;stroke-linecap:square;stroke-linejoin:bevel;stroke-opacity:1" />
  <path
     d="m 2330.206,2584.42 c 0,9.12 -7.387,16.5 -16.5,16.5 -9.113,0 -16.5,-7.38 -16.5,-16.5 0,-9.11 7.387,-16.5 16.5,-16.5 9.113,0 16.5,7.39 16.5,16.5"
     id="path722"
     inkscape:connector-curvature="0"
     style="font-style:normal;font-weight:400;font-size:medium;font-family:'Sans Serif';vector-effect:non-scaling-stroke;fill:none;fill-opacity:1;fill-rule:evenodd;stroke:#000000;stroke-width:1;stroke-linecap:square;stroke-linejoin:bevel;stroke-opacity:1" />
  <path
     d="m 2961.775,2219.786 c 0,9.113 -7.388,16.5 -16.5,16.5 -9.113,0 -16.5,-7.387 -16.5,-16.5 0,-9.113 7.387,-16.5 16.5,-16.5 9.112,0 16.5,7.387 16.5,16.5"
     id="path738"
     inkscape:connector-curvature="0"
     style="font-style:normal;font-weight:400;font-size:medium;font-family:'Sans Serif';vector-effect:non-scaling-stroke;fill:none;fill-opacity:1;fill-rule:evenodd;stroke:#000000;stroke-width:1;stroke-linecap:square;stroke-linejoin:bevel;stroke-opacity:1" />
  <path
     d="m 1902.794,2584.42 c 0,9.12 -7.387,16.5 -16.5,16.5 -9.113,0 -16.5,-7.38 -16.5,-16.5 0,-9.11 7.387,-16.5 16.5,-16.5 9.113,0 16.5,7.39 16.5,16.5"
     id="path754"
     inkscape:connector-curvature="0"
     style="font-style:normal;font-weight:400;font-size:medium;font-family:'Sans Serif';vector-effect:non-scaling-stroke;fill:none;fill-opacity:1;fill-rule:evenodd;stroke:#000000;stroke-width:1;stroke-linecap:square;stroke-linejoin:bevel;stroke-opacity:1" />
  <path
     d="m 1271.225,2219.786 c 0,9.113 -7.387,16.5 -16.5,16.5 -9.112,0 -16.5,-7.387 -16.5,-16.5 0,-9.113 7.388,-16.5 16.5,-16.5 9.113,0 16.5,7.387 16.5,16.5"
     id="path770"
     inkscape:connector-curvature="0"
     style="font-style:normal;font-weight:400;font-size:medium;font-family:'Sans Serif';vector-effect:non-scaling-stroke;fill:none;fill-opacity:1;fill-rule:evenodd;stroke:#000000;stroke-width:1;stroke-linecap:square;stroke-linejoin:bevel;stroke-opacity:1" />
  <path
     d="m 1057.52,1120.364 c 0,9.112 -7.39,16.5 -16.5,16.5 -9.11,0 -16.5,-7.388 -16.5,-16.5 0,-9.113 7.39,-16.5 16.5,-16.5 9.11,0 16.5,7.387 16.5,16.5"
     id="path786"
     inkscape:connector-curvature="0"
     style="font-style:normal;font-weight:400;font-size:medium;font-family:'Sans Serif';vector-effect:non-scaling-stroke;fill:none;fill-opacity:1;fill-rule:evenodd;stroke:#000000;stroke-width:1;stroke-linecap:square;stroke-linejoin:bevel;stroke-opacity:1" />
  <path
     d="m 2330.206,385.58 c 0,9.11 -7.387,16.5 -16.5,16.5 -9.113,0 -16.5,-7.39 -16.5,-16.5 0,-9.12 7.387,-16.5 16.5,-16.5 9.113,0 16.5,7.38 16.5,16.5"
     id="path802"
     inkscape:connector-curvature="0"
     style="font-style:normal;font-weight:400;font-size:medium;font-family:'Sans Serif';vector-effect:non-scaling-stroke;fill:none;fill-opacity:1;fill-rule:evenodd;stroke:#000000;stroke-width:1;stroke-linecap:square;stroke-linejoin:bevel;stroke-opacity:1" />
  <path
     d="m 2676.5,2454.948 c 0,9.113 -7.387,16.5 -16.5,16.5 -9.113,0 -16.5,-7.387 -16.5,-16.5 0,-9.112 7.387,-16.5 16.5,-16.5 9.113,0 16.5,7.388 16.5,16.5"
     id="path818"
     inkscape:connector-curvature="0"
     style="font-style:normal;font-weight:400;font-size:medium;font-family:'Sans Serif';vector-effect:non-scaling-stroke;fill:none;fill-opacity:1;fill-rule:evenodd;stroke:#000000;stroke-width:1;stroke-linecap:square;stroke-linejoin:bevel;stroke-opacity:1" />
  <path
     d="m 2961.775,750.214 c 0,9.113 -7.388,16.5 -16.5,16.5 -9.113,0 -16.5,-7.387 -16.5,-16.5 0,-9.113 7.387,-16.5 16.5,-16.5 9.112,0 16.5,7.387 16.5,16.5"
     id="path834"
     inkscape:connector-curvature="0"
     style="font-style:normal;font-weight:400;font-size:medium;font-family:'Sans Serif';vector-effect:non-scaling-stroke;fill:none;fill-opacity:1;fill-rule:evenodd;stroke:#000000;stroke-width:1;stroke-linecap:square;stroke-linejoin:bevel;stroke-opacity:1" />
</svg>
