<?xml version="1.0" encoding="UTF-8" standalone="no"?>
<svg
   xmlns:dc="http://purl.org/dc/elements/1.1/"
   xmlns:cc="http://creativecommons.org/ns#"
   xmlns:rdf="http://www.w3.org/1999/02/22-rdf-syntax-ns#"
   xmlns:svg="http://www.w3.org/2000/svg"
   xmlns="http://www.w3.org/2000/svg"
   xmlns:xlink="http://www.w3.org/1999/xlink"
   xmlns:sodipodi="http://sodipodi.sourceforge.net/DTD/sodipodi-0.dtd"
   xmlns:inkscape="http://www.inkscape.org/namespaces/inkscape"
   width="210mm"
   height="297mm"
   viewBox="0 0 2100 2970"
   version="1.2"
   id="svg204"
   sodipodi:docname="center_lock_print.svg"
   inkscape:version="0.92.2 (5c3e80d, 2017-08-06)">
  <metadata
     id="metadata208">
    <rdf:RDF>
      <cc:Work
         rdf:about="">
        <dc:format>image/svg+xml</dc:format>
        <dc:type
           rdf:resource="http://purl.org/dc/dcmitype/StillImage" />
        <dc:title>FreeCAD SVG Export</dc:title>
      </cc:Work>
    </rdf:RDF>
  </metadata>
  <sodipodi:namedview
     pagecolor="#ffffff"
     bordercolor="#666666"
     borderopacity="1"
     objecttolerance="10"
     gridtolerance="10"
     guidetolerance="10"
     inkscape:pageopacity="0"
     inkscape:pageshadow="2"
     inkscape:window-width="1920"
     inkscape:window-height="1015"
     id="namedview206"
     showgrid="false"
     inkscape:zoom="0.72337262"
     inkscape:cx="656.2234"
     inkscape:cy="606.45835"
     inkscape:window-x="0"
     inkscape:window-y="0"
     inkscape:window-maximized="1"
     inkscape:current-layer="svg204"
     inkscape:document-units="mm"
     showguides="true"
     inkscape:guide-bbox="true"
     inkscape:snap-bbox="true"
     inkscape:snap-page="true"
     inkscape:snap-object-midpoints="true"
     inkscape:snap-smooth-nodes="true"
     inkscape:snap-bbox-midpoints="true">
    <sodipodi:guide
       position="1299.6353,1659.1364"
       orientation="1,0"
       id="guide847"
       inkscape:locked="false" />
    <sodipodi:guide
       position="1498.9336,1500.0215"
       orientation="0,1"
       id="guide849"
       inkscape:locked="false" />
  </sodipodi:namedview>
  <title
     id="title2">FreeCAD SVG Export</title>
  <desc
     id="desc4">Drawing page: Page007 exported from FreeCAD document: mounting_sun</desc>
  <defs
     id="defs6" />
  <g
     id="g817"
     transform="translate(-799.42837,1010.6883)"
     inkscape:tile-cx="1500.572"
     inkscape:tile-cy="1469.9792"
     inkscape:tile-w="587.41811"
     inkscape:tile-h="348.12399"
     inkscape:tile-x0="1206.863"
     inkscape:tile-y0="2321.6262"
     inkscape:transform-center-y="1025.7091">
    <path
       style="font-style:normal;font-weight:400;font-size:medium;font-family:'Sans Serif';vector-effect:non-scaling-stroke;fill:#ffffff;fill-opacity:1;fill-rule:evenodd;stroke:#000000;stroke-width:1;stroke-linecap:square;stroke-linejoin:bevel;stroke-opacity:1"
       inkscape:connector-curvature="0"
       id="path50"
       d="m 2328.209,1511.4356 c -0.83,-7.7948 2.97,-15.3558 9.721,-19.3405 6.75,-3.9848 15.206,-3.6586 21.63,0.8344 26.312,18.4046 39.07,50.7582 32.402,82.1685 -6.668,31.41 -31.471,55.79 -62.991,61.917 -151.2321,29.396 -306.7099,29.396 -457.942,0 -39.634,-7.704 -67.316,-43.735 -64.547,-84.0168 2.769,-40.2813 35.12,-72.1856 75.436,-74.3939 18.44,-1.0101 35.252,-10.8764 45.127,-26.4822 v 0 c 10.817,-17.0964 26.14,-30.8784 44.283,-39.8302 11.678,-5.7618 20.647,-15.8522 25,-28.1249 15.5693,-43.896 57.0965,-73.229 103.672,-73.229 46.5755,0 88.1027,29.333 103.672,73.229 4.353,12.2727 13.322,22.3631 25,28.1249 18.143,8.9519 33.466,22.7339 44.283,39.8304 11.47,18.1273 18.689,38.6153 21.116,59.9288 1.755,15.4155 2.635,30.9182 2.635,46.4334 0,9.3889 7.611,17 17,17 9.389,0 17,-7.6111 17,-17 v 0 c 0,-15.7161 -0.834,-31.4211 -2.497,-47.0489" />
    <path
       style="font-style:normal;font-weight:400;font-size:medium;font-family:'Sans Serif';vector-effect:non-scaling-stroke;fill:#ffffff;fill-opacity:1;fill-rule:evenodd;stroke:#000000;stroke-width:1;stroke-linecap:square;stroke-linejoin:bevel;stroke-opacity:1"
       inkscape:connector-curvature="0"
       id="path66"
       d="m 1902.794,1558.4845 c 0,9.1127 -7.387,16.5 -16.5,16.5 -9.113,0 -16.5,-7.3873 -16.5,-16.5 0,-9.1127 7.387,-16.5 16.5,-16.5 9.113,0 16.5,7.3873 16.5,16.5" />
  </g>
  <circle
     style="opacity:1;fill:none;fill-opacity:1;stroke:#000000;stroke-width:1;stroke-linecap:round;stroke-linejoin:round;stroke-miterlimit:4;stroke-dasharray:none;stroke-dashoffset:0;stroke-opacity:1;paint-order:markers stroke fill"
     id="path845"
     cx="1300"
     cy="1470"
     r="1200" />
  <use
     x="0"
     y="0"
     inkscape:tiled-clone-of="#g817"
     xlink:href="#g817"
     id="use978"
     inkscape:transform-center-x="2469.6914"
     inkscape:transform-center-y="-1393.6316"
     width="100%"
     height="100%"
     transform="translate(2.6238661e-7,2.282764e-6)" />
  <use
     x="0"
     y="0"
     inkscape:tiled-clone-of="#g817"
     xlink:href="#g817"
     transform="rotate(32,1300.572,1469.9792)"
     id="use980"
     inkscape:transform-center-x="3052.1756"
     inkscape:transform-center-y="-1503.8701"
     width="100%"
     height="100%" />
  <use
     x="0"
     y="0"
     inkscape:tiled-clone-of="#g817"
     xlink:href="#g817"
     transform="rotate(64,1300.572,1469.9792)"
     id="use982"
     inkscape:transform-center-x="3427.6738"
     inkscape:transform-center-y="-1937.4906"
     width="100%"
     height="100%" />
  <use
     x="0"
     y="0"
     inkscape:tiled-clone-of="#g817"
     xlink:href="#g817"
     transform="rotate(96,1300.572,1469.9792)"
     id="use984"
     inkscape:transform-center-x="3492.7658"
     inkscape:transform-center-y="-2534.2411"
     width="100%"
     height="100%" />
  <use
     x="0"
     y="0"
     inkscape:tiled-clone-of="#g817"
     xlink:href="#g817"
     transform="rotate(128,1300.572,1469.9792)"
     id="use986"
     inkscape:transform-center-x="3332.4593"
     inkscape:transform-center-y="-3096.0704"
     width="100%"
     height="100%" />
  <use
     x="0"
     y="0"
     inkscape:tiled-clone-of="#g817"
     xlink:href="#g817"
     transform="rotate(160,1300.572,1469.9792)"
     id="use988"
     inkscape:transform-center-x="2845.6321"
     inkscape:transform-center-y="-3409.1664"
     width="100%"
     height="100%" />
  <use
     x="0"
     y="0"
     inkscape:tiled-clone-of="#g817"
     xlink:href="#g817"
     transform="rotate(-168,1300.572,1469.9792)"
     id="use990"
     inkscape:transform-center-x="2241.1501"
     inkscape:transform-center-y="-3434.4568"
     width="100%"
     height="100%" />
  <use
     x="0"
     y="0"
     inkscape:tiled-clone-of="#g817"
     xlink:href="#g817"
     transform="rotate(-136,1300.572,1469.9792)"
     id="use992"
     inkscape:transform-center-x="1706.1278"
     inkscape:transform-center-y="-3210.034"
     width="100%"
     height="100%" />
</svg>
