<?xml version="1.0" encoding="UTF-8" standalone="no"?>
<svg
   xmlns:dc="http://purl.org/dc/elements/1.1/"
   xmlns:cc="http://creativecommons.org/ns#"
   xmlns:rdf="http://www.w3.org/1999/02/22-rdf-syntax-ns#"
   xmlns:svg="http://www.w3.org/2000/svg"
   xmlns="http://www.w3.org/2000/svg"
   xmlns:sodipodi="http://sodipodi.sourceforge.net/DTD/sodipodi-0.dtd"
   xmlns:inkscape="http://www.inkscape.org/namespaces/inkscape"
   width="420mm"
   height="297mm"
   viewBox="0 0 4200 2970"
   version="1.2"
   id="svg4564"
   sodipodi:docname="center_socket2.svg"
   inkscape:version="0.92.2 (5c3e80d, 2017-08-06)">
  <metadata
     id="metadata4568">
    <rdf:RDF>
      <cc:Work
         rdf:about="">
        <dc:format>image/svg+xml</dc:format>
        <dc:type
           rdf:resource="http://purl.org/dc/dcmitype/StillImage" />
      </cc:Work>
    </rdf:RDF>
  </metadata>
  <sodipodi:namedview
     pagecolor="#ffffff"
     bordercolor="#666666"
     borderopacity="1"
     objecttolerance="10"
     gridtolerance="10"
     guidetolerance="10"
     inkscape:pageopacity="0"
     inkscape:pageshadow="2"
     inkscape:window-width="1920"
     inkscape:window-height="1015"
     id="namedview4566"
     showgrid="false"
     inkscape:zoom="1.6530159"
     inkscape:cx="753.22773"
     inkscape:cy="408.69175"
     inkscape:window-x="0"
     inkscape:window-y="0"
     inkscape:window-maximized="1"
     inkscape:current-layer="svg4564" />
  <title
     id="title2">FreeCAD SVG Export</title>
  <desc
     id="desc4">Drawing page: Page006 exported from FreeCAD document: mounting_sun</desc>
  <defs
     id="defs6" />
  <path
     d="m 3094.046,2001.178 69.284,40 C 3253.11,1869.533 3300,1678.706 3300,1485 c 0,-193.706 -46.89,-384.533 -136.67,-556.178 l -69.284,40 c -2.735,1.579 -4.563,4.358 -4.932,7.494 -0.368,3.137 0.767,6.263 3.061,8.433 18.105,17.116 23.745,43.638 14.175,66.64 -9.569,23.002 -32.356,37.698 -57.257,36.926 -24.901,-0.771 -46.734,-16.85 -54.86,-40.4 -1.152,-3.338 -3.978,-5.821 -7.437,-6.533 -3.458,-0.712 -7.036,0.453 -9.412,3.064 -17.443,19.167 -45.22,24.968 -68.876,14.386 -23.656,-10.583 -37.845,-35.158 -35.181,-60.936 2.663,-25.778 21.576,-46.933 46.896,-52.456 3.45,-0.752 6.247,-3.268 7.359,-6.619 1.113,-3.351 0.376,-7.04 -1.939,-9.707 -16.332,-18.812 -19.34,-45.76 -7.558,-67.71 11.783,-21.951 35.903,-34.337 60.608,-31.122 24.704,3.214 44.852,21.36 50.625,45.595 0.732,3.072 2.872,5.618 5.772,6.867 2.901,1.249 6.221,1.055 8.956,-0.524 l 69.284,-40 C 2902.724,510.207 2542.834,302.42 2150,286.04 v 80 c 0,3.16 1.4918,6.13 4.0239,8.02 2.532,1.89 5.8068,2.47 8.8332,1.57 23.8742,-7.12 49.6629,1.25 64.7989,21.04 15.136,19.79 16.47,46.87 3.351,68.05 -13.118,21.178 -37.9594,32.047 -62.4174,27.309 -3.4664,-0.671 -7.0301,0.535 -9.3758,3.174 -2.3458,2.639 -3.126,6.32 -2.0528,9.683 7.8773,24.689 -0.987,51.646 -21.9798,66.842 -20.9929,15.195 -49.3695,15.195 -70.3624,0 -20.9928,-15.196 -29.8571,-42.153 -21.9798,-66.842 1.0732,-3.363 0.293,-7.044 -2.0528,-9.683 -2.3457,-2.639 -5.9094,-3.845 -9.3758,-3.174 -24.458,4.738 -49.2994,-6.131 -62.4174,-27.309 -13.119,-21.18 -11.785,-48.26 3.351,-68.05 15.136,-19.79 40.9247,-28.16 64.7989,-21.04 3.0264,0.9 6.3012,0.32 8.8332,-1.57 2.5321,-1.89 4.0239,-4.86 4.0239,-8.02 v -80 c -392.834,16.38 -752.724,224.167 -963.33,556.18 l 69.284,40 c 2.735,1.579 6.055,1.773 8.956,0.524 2.9,-1.249 5.04,-3.795 5.772,-6.867 5.773,-24.235 25.921,-42.381 50.625,-45.595 24.705,-3.215 48.825,9.171 60.608,31.122 11.782,21.95 8.774,48.898 -7.558,67.71 -2.315,2.667 -3.052,6.356 -1.939,9.707 1.112,3.351 3.909,5.867 7.359,6.619 25.32,5.523 44.233,26.678 46.896,52.456 2.664,25.778 -11.525,50.353 -35.181,60.936 -23.656,10.582 -51.433,4.781 -68.876,-14.386 -2.376,-2.611 -5.954,-3.776 -9.412,-3.064 -3.459,0.712 -6.285,3.195 -7.437,6.533 -8.126,23.55 -29.959,39.629 -54.86,40.4 -24.901,0.772 -47.688,-13.924 -57.257,-36.926 -9.57,-23.002 -3.93,-49.524 14.175,-66.64 2.294,-2.17 3.429,-5.296 3.061,-8.433 -0.369,-3.136 -2.197,-5.915 -4.932,-7.494 l -69.284,-40 c -182.23,348.395 -182.23,763.961 0,1112.356 l 69.284,-40 c 2.735,-1.579 4.563,-4.358 4.932,-7.494 0.368,-3.137 -0.767,-6.263 -3.061,-8.433 -18.105,-17.116 -23.745,-43.638 -14.175,-66.64 9.569,-23.002 32.356,-37.698 57.257,-36.926 24.901,0.771 46.734,16.85 54.86,40.4 1.152,3.338 3.978,5.821 7.437,6.533 3.458,0.712 7.036,-0.453 9.412,-3.064 17.443,-19.167 45.22,-24.968 68.876,-14.386 23.656,10.583 37.845,35.158 35.181,60.936 -2.663,25.778 -21.576,46.933 -46.896,52.456 -3.45,0.752 -6.247,3.268 -7.359,6.619 -1.113,3.351 -0.376,7.04 1.939,9.707 16.332,18.812 19.34,45.76 7.558,67.71 -11.783,21.951 -35.903,34.337 -60.608,31.122 -24.704,-3.214 -44.852,-21.36 -50.625,-45.595 -0.732,-3.072 -2.872,-5.618 -5.772,-6.867 -2.901,-1.249 -6.221,-1.055 -8.956,0.524 l -69.284,40 c 210.606,332.013 570.496,539.8 963.33,556.18 v -80 c 0,-3.16 -1.4918,-6.13 -4.0239,-8.02 -2.532,-1.89 -5.8068,-2.47 -8.8332,-1.57 -23.8742,7.12 -49.6629,-1.25 -64.7989,-21.04 -15.136,-19.79 -16.47,-46.87 -3.351,-68.05 13.118,-21.178 37.9594,-32.047 62.4174,-27.309 3.4664,0.671 7.0301,-0.535 9.3758,-3.174 2.3458,-2.639 3.126,-6.32 2.0528,-9.683 -7.8773,-24.689 0.987,-51.646 21.9798,-66.842 20.9929,-15.195 49.3695,-15.195 70.3624,0 20.9928,15.196 29.8571,42.153 21.9798,66.842 -1.0732,3.363 -0.293,7.044 2.0528,9.683 2.3457,2.639 5.9094,3.845 9.3758,3.174 24.458,-4.738 49.2994,6.131 62.4174,27.309 13.119,21.18 11.785,48.26 -3.351,68.05 -15.136,19.79 -40.9247,28.16 -64.7989,21.04 -3.0264,-0.9 -6.3012,-0.32 -8.8332,1.57 -2.5321,1.89 -4.0239,4.86 -4.0239,8.02 v 80 c 392.834,-16.38 752.724,-224.167 963.33,-556.18 l -69.284,-40 c -2.735,-1.579 -6.055,-1.773 -8.956,-0.524 -2.9,1.249 -5.04,3.795 -5.772,6.867 -5.773,24.235 -25.921,42.381 -50.625,45.595 -24.705,3.215 -48.825,-9.171 -60.608,-31.122 -11.782,-21.95 -8.774,-48.898 7.558,-67.71 2.315,-2.667 3.052,-6.356 1.939,-9.707 -1.112,-3.351 -3.909,-5.867 -7.359,-6.619 -25.32,-5.523 -44.233,-26.678 -46.896,-52.456 -2.664,-25.778 11.525,-50.353 35.181,-60.936 23.656,-10.582 51.433,-4.781 68.876,14.386 2.376,2.611 5.954,3.776 9.412,3.064 3.459,-0.712 6.285,-3.195 7.437,-6.533 8.126,-23.55 29.959,-39.629 54.86,-40.4 24.901,-0.772 47.688,13.924 57.257,36.926 9.57,23.002 3.93,49.524 -14.175,66.64 -2.294,2.17 -3.429,5.296 -3.061,8.433 0.369,3.136 2.197,5.915 4.932,7.494"
     id="path50"
     inkscape:connector-curvature="0"
     style="font-style:normal;font-weight:400;font-size:medium;font-family:'Sans Serif';vector-effect:non-scaling-stroke;fill:none;fill-opacity:1;fill-rule:evenodd;stroke:#000000;stroke-width:1;stroke-linecap:square;stroke-linejoin:bevel;stroke-opacity:1" />
  <path
     d="m 2300,1349.648 v 252.801 c 0,45.592 -36.959,82.551 -82.551,82.551 H 1982.552 C 1936.96,1685 1900,1648.04 1900,1602.448 v -252.8 c 0,-35.704 28.944,-64.648 64.648,-64.648 h 270.704 c 35.704,0 64.648,28.944 64.648,64.648"
     id="path66"
     inkscape:connector-curvature="0"
     style="font-style:normal;font-weight:400;font-size:medium;font-family:'Sans Serif';vector-effect:non-scaling-stroke;fill:none;fill-opacity:1;fill-rule:evenodd;stroke:#000000;stroke-width:1;stroke-linecap:square;stroke-linejoin:bevel;stroke-opacity:1" />
  <path
     d="m 2217.448,1835 c 45.592,0 82.552,36.96 82.552,82.552 v 223.729 c 0,21.289 -14.65,39.778 -35.375,44.646 -108.2767,25.431 -220.9733,25.431 -329.25,0 C 1914.65,2181.059 1900,2162.57 1900,2141.281 v -223.729 c 0,-45.592 36.96,-82.552 82.552,-82.552 h 234.896"
     id="path82"
     inkscape:connector-curvature="0"
     style="font-style:normal;font-weight:400;font-size:medium;font-family:'Sans Serif';vector-effect:non-scaling-stroke;fill:none;fill-opacity:1;fill-rule:evenodd;stroke:#000000;stroke-width:1;stroke-linecap:square;stroke-linejoin:bevel;stroke-opacity:1" />
  <path
     d="M 2300,1052.448 V 828.719 c 0,-21.289 -14.65,-39.778 -35.375,-44.646 -108.2767,-25.431 -220.9733,-25.431 -329.25,0 C 1914.65,788.941 1900,807.43 1900,828.719 v 223.729 c 0,45.592 36.96,82.552 82.552,82.552 h 234.896 c 45.592,0 82.552,-36.96 82.552,-82.552"
     id="path98"
     inkscape:connector-curvature="0"
     style="font-style:normal;font-weight:400;font-size:medium;font-family:'Sans Serif';vector-effect:non-scaling-stroke;fill:none;fill-opacity:1;fill-rule:evenodd;stroke:#000000;stroke-width:1;stroke-linecap:square;stroke-linejoin:bevel;stroke-opacity:1" />
  <path
     d="m 1855.615,1761.713 c 22.796,39.484 9.268,89.972 -30.216,112.768 l -193.755,111.865 c -18.437,10.644 -41.774,7.201 -56.352,-8.313 -76.162,-81.055 -132.51,-178.653 -164.625,-285.139 -6.147,-20.382 2.54,-42.314 20.977,-52.958 l 193.755,-111.8653 c 39.484,-22.796 89.972,-9.2678 112.768,30.2159 l 117.448,203.4264"
     id="path114"
     inkscape:connector-curvature="0"
     style="font-style:normal;font-weight:400;font-size:medium;font-family:'Sans Serif';vector-effect:non-scaling-stroke;fill:none;fill-opacity:1;fill-rule:evenodd;stroke:#000000;stroke-width:1;stroke-linecap:square;stroke-linejoin:bevel;stroke-opacity:1" />
  <path
     d="m 1825.399,1095.519 c 39.484,22.796 53.012,73.284 30.216,112.768 l -117.448,203.4264 c -22.796,39.4837 -73.284,53.0119 -112.768,30.2159 L 1431.644,1330.064 c -18.437,-10.644 -27.124,-32.576 -20.977,-52.958 32.115,-106.486 88.463,-204.084 164.625,-285.139 14.578,-15.514 37.915,-18.957 56.352,-8.313 l 193.755,111.865"
     id="path130"
     inkscape:connector-curvature="0"
     style="font-style:normal;font-weight:400;font-size:medium;font-family:'Sans Serif';vector-effect:non-scaling-stroke;fill:none;fill-opacity:1;fill-rule:evenodd;stroke:#000000;stroke-width:1;stroke-linecap:square;stroke-linejoin:bevel;stroke-opacity:1" />
  <path
     d="m 2344.385,1208.287 c -22.796,-39.484 -9.268,-89.972 30.216,-112.768 l 193.755,-111.865 c 18.437,-10.644 41.774,-7.201 56.352,8.313 76.162,81.055 132.51,178.653 164.625,285.139 6.147,20.382 -2.54,42.314 -20.977,52.958 l -193.755,111.8653 c -39.484,22.796 -89.972,9.2678 -112.768,-30.2159 L 2344.385,1208.287"
     id="path146"
     inkscape:connector-curvature="0"
     style="font-style:normal;font-weight:400;font-size:medium;font-family:'Sans Serif';vector-effect:non-scaling-stroke;fill:none;fill-opacity:1;fill-rule:evenodd;stroke:#000000;stroke-width:1;stroke-linecap:square;stroke-linejoin:bevel;stroke-opacity:1" />
  <path
     d="m 2461.833,1558.2866 c 22.796,-39.4837 73.284,-53.0119 112.768,-30.2159 l 193.755,111.8653 c 18.437,10.644 27.124,32.576 20.977,52.958 -32.115,106.486 -88.463,204.084 -164.625,285.139 -14.578,15.514 -37.915,18.957 -56.352,8.313 l -193.755,-111.865 c -39.484,-22.796 -53.012,-73.284 -30.216,-112.768 l 117.448,-203.4264"
     id="path162"
     inkscape:connector-curvature="0"
     style="font-style:normal;font-weight:400;font-size:medium;font-family:'Sans Serif';vector-effect:non-scaling-stroke;fill:none;fill-opacity:1;fill-rule:evenodd;stroke:#000000;stroke-width:1;stroke-linecap:square;stroke-linejoin:bevel;stroke-opacity:1" />
  <path
     d="m 3060.665,1181.653 c 7.886,-3.123 16.726,-2.762 24.332,0.994 7.605,3.756 13.265,10.556 15.583,18.717 16.41,57.907 27.77,117.13 33.94,177.002 1.51,14.6562 -7.85,28.2402 -22.08,32.0536 l -180.864,48.4629 c -16.004,4.2882 -32.455,-5.2092 -36.743,-21.2132 l -81.528,-304.2663 c -3.945,-14.723 3.777,-30.063 17.952,-35.665 14.175,-5.602 30.298,0.315 37.483,13.757 17.821,33.338 56.546,49.652 92.851,39.115 12.255,-3.557 25.418,1.027 32.812,11.427 14.939,21.012 42.293,29.11 66.262,19.616"
     id="path178"
     inkscape:connector-curvature="0"
     style="font-style:normal;font-weight:400;font-size:medium;font-family:'Sans Serif';vector-effect:non-scaling-stroke;fill:none;fill-opacity:1;fill-rule:evenodd;stroke:#000000;stroke-width:1;stroke-linecap:square;stroke-linejoin:bevel;stroke-opacity:1" />
  <path
     d="m 1661.594,777.893 c 11.716,11.716 11.716,30.711 0,42.427 l -222.739,222.738 c -10.777,10.778 -27.923,11.761 -39.862,2.286 -11.939,-9.475 -14.876,-26.396 -6.828,-39.34 19.961,-32.103 14.727,-73.796 -12.551,-99.969 -9.208,-8.834 -11.819,-22.526 -6.509,-34.13 10.727,-23.443 4.063,-51.181 -16.143,-67.192 -6.649,-5.268 -10.756,-13.104 -11.306,-21.568 -0.55,-8.465 2.509,-16.766 8.42,-22.85 41.942,-43.17 87.552,-82.617 136.317,-117.897 11.937,-8.637 28.379,-7.326 38.798,3.092 l 132.403,132.403"
     id="path194"
     inkscape:connector-curvature="0"
     style="font-style:normal;font-weight:400;font-size:medium;font-family:'Sans Serif';vector-effect:non-scaling-stroke;fill:none;fill-opacity:1;fill-rule:evenodd;stroke:#000000;stroke-width:1;stroke-linecap:square;stroke-linejoin:bevel;stroke-opacity:1" />
  <path
     d="m 2047.8396,2278.539 c 14.7225,3.945 24.147,18.302 21.9109,33.379 -2.2362,15.077 -15.4221,26.081 -30.6557,25.583 -37.7825,-1.235 -71.2728,24.145 -80.2998,60.854 -3.047,12.391 -13.599,21.499 -26.303,22.702 -25.666,2.432 -46.356,22.072 -50.119,47.577 -1.238,8.391 -5.97,15.866 -13.026,20.576 -7.055,4.71 -15.774,6.21 -23.998,4.13 -58.357,-14.736 -115.324,-34.512 -170.261,-59.103 -13.448,-6.02 -20.534,-20.915 -16.72,-35.147 l 48.463,-180.866 c 4.288,-16.004 20.738,-25.501 36.742,-21.213 l 304.2666,81.528"
     id="path210"
     inkscape:connector-curvature="0"
     style="font-style:normal;font-weight:400;font-size:medium;font-family:'Sans Serif';vector-effect:non-scaling-stroke;fill:none;fill-opacity:1;fill-rule:evenodd;stroke:#000000;stroke-width:1;stroke-linecap:square;stroke-linejoin:bevel;stroke-opacity:1" />
  <path
     d="m 2317.627,501.366 c 1.238,-8.391 5.97,-15.866 13.026,-20.576 7.055,-4.71 15.774,-6.21 23.998,-4.13 58.357,14.736 115.324,34.512 170.261,59.103 13.448,6.02 20.534,20.915 16.72,35.147 l -48.463,180.866 c -4.288,16.004 -20.738,25.501 -36.742,21.213 l -304.2666,-81.528 c -14.7225,-3.945 -24.147,-18.302 -21.9109,-33.379 2.2362,-15.077 15.4221,-26.081 30.6557,-25.583 37.7825,1.235 71.2728,-24.145 80.2998,-60.854 3.047,-12.391 13.599,-21.499 26.303,-22.702 25.666,-2.432 46.356,-22.072 50.119,-47.577"
     id="path226"
     inkscape:connector-curvature="0"
     style="font-style:normal;font-weight:400;font-size:medium;font-family:'Sans Serif';vector-effect:non-scaling-stroke;fill:none;fill-opacity:1;fill-rule:evenodd;stroke:#000000;stroke-width:1;stroke-linecap:square;stroke-linejoin:bevel;stroke-opacity:1" />
  <path
     d="m 1386.695,1836.597 c 3.945,14.723 -3.777,30.063 -17.952,35.665 -14.175,5.602 -30.298,-0.315 -37.483,-13.757 -17.821,-33.338 -56.546,-49.652 -92.851,-39.115 -12.255,3.557 -25.418,-1.027 -32.812,-11.427 -14.939,-21.012 -42.293,-29.11 -66.262,-19.616 -7.886,3.123 -16.726,2.762 -24.332,-0.994 -7.605,-3.756 -13.265,-10.556 -15.583,-18.717 -16.41,-57.907 -27.77,-117.13 -33.94,-177.002 -1.51,-14.6562 7.85,-28.2402 22.08,-32.0536 l 180.864,-48.4629 c 16.004,-4.2882 32.455,5.2092 36.743,21.2132 l 81.528,304.2663"
     id="path242"
     inkscape:connector-curvature="0"
     style="font-style:normal;font-weight:400;font-size:medium;font-family:'Sans Serif';vector-effect:non-scaling-stroke;fill:none;fill-opacity:1;fill-rule:evenodd;stroke:#000000;stroke-width:1;stroke-linecap:square;stroke-linejoin:bevel;stroke-opacity:1" />
  <path
     d="m 2843.038,2165.287 c 6.649,5.268 10.756,13.104 11.306,21.568 0.55,8.465 -2.509,16.766 -8.42,22.85 -41.942,43.17 -87.552,82.617 -136.317,117.897 -11.937,8.637 -28.379,7.326 -38.798,-3.092 l -132.403,-132.403 c -11.716,-11.716 -11.716,-30.711 0,-42.427 l 222.739,-222.738 c 10.777,-10.778 27.923,-11.761 39.862,-2.286 11.939,9.475 14.876,26.396 6.828,39.34 -19.961,32.103 -14.727,73.796 12.551,99.969 9.208,8.834 11.819,22.526 6.509,34.13 -10.727,23.443 -4.063,51.181 16.143,67.192"
     id="path258"
     inkscape:connector-curvature="0"
     style="font-style:normal;font-weight:400;font-size:medium;font-family:'Sans Serif';vector-effect:non-scaling-stroke;fill:none;fill-opacity:1;fill-rule:evenodd;stroke:#000000;stroke-width:1;stroke-linecap:square;stroke-linejoin:bevel;stroke-opacity:1" />
  <path
     d="m 1661.594,2149.68 c 11.716,11.716 11.716,30.711 0,42.427 l -132.403,132.403 c -10.419,10.418 -26.861,11.729 -38.798,3.092 -48.765,-35.28 -94.375,-74.727 -136.317,-117.897 -5.911,-6.084 -8.97,-14.385 -8.42,-22.85 0.55,-8.464 4.657,-16.3 11.306,-21.568 20.206,-16.011 26.87,-43.749 16.143,-67.192 -5.31,-11.604 -2.699,-25.296 6.509,-34.13 27.278,-26.173 32.512,-67.866 12.551,-99.969 -8.048,-12.944 -5.111,-29.865 6.828,-39.34 11.939,-9.475 29.085,-8.492 39.862,2.286 l 222.739,222.738"
     id="path274"
     inkscape:connector-curvature="0"
     style="font-style:normal;font-weight:400;font-size:medium;font-family:'Sans Serif';vector-effect:non-scaling-stroke;fill:none;fill-opacity:1;fill-rule:evenodd;stroke:#000000;stroke-width:1;stroke-linecap:square;stroke-linejoin:bevel;stroke-opacity:1" />
  <path
     d="m 2894.833,1532.3307 c 4.288,-16.004 20.739,-25.5014 36.743,-21.2132 l 180.864,48.4629 c 14.23,3.8134 23.59,17.3974 22.08,32.0536 -6.17,59.872 -17.53,119.095 -33.94,177.002 -2.318,8.161 -7.978,14.961 -15.583,18.717 -7.606,3.756 -16.446,4.117 -24.332,0.994 -23.969,-9.494 -51.323,-1.396 -66.262,19.616 -7.394,10.4 -20.557,14.984 -32.812,11.427 -36.305,-10.537 -75.03,5.777 -92.851,39.115 -7.185,13.442 -23.308,19.359 -37.483,13.757 -14.175,-5.602 -21.897,-20.942 -17.952,-35.665 l 81.528,-304.2663"
     id="path290"
     inkscape:connector-curvature="0"
     style="font-style:normal;font-weight:400;font-size:medium;font-family:'Sans Serif';vector-effect:non-scaling-stroke;fill:none;fill-opacity:1;fill-rule:evenodd;stroke:#000000;stroke-width:1;stroke-linecap:square;stroke-linejoin:bevel;stroke-opacity:1" />
  <path
     d="m 2456.427,2197.011 c 16.004,-4.288 32.454,5.209 36.742,21.213 l 48.463,180.866 c 3.814,14.232 -3.272,29.127 -16.72,35.147 -54.937,24.591 -111.904,44.367 -170.261,59.103 -8.224,2.08 -16.943,0.58 -23.998,-4.13 -7.056,-4.71 -11.788,-12.185 -13.026,-20.576 -3.763,-25.505 -24.453,-45.145 -50.119,-47.577 -12.704,-1.203 -23.256,-10.311 -26.303,-22.702 -9.027,-36.709 -42.5173,-62.089 -80.2998,-60.854 -15.2336,0.498 -28.4195,-10.506 -30.6557,-25.583 -2.2361,-15.077 7.1884,-29.434 21.9109,-33.379 l 304.2666,-81.528"
     id="path306"
     inkscape:connector-curvature="0"
     style="font-style:normal;font-weight:400;font-size:medium;font-family:'Sans Serif';vector-effect:non-scaling-stroke;fill:none;fill-opacity:1;fill-rule:evenodd;stroke:#000000;stroke-width:1;stroke-linecap:square;stroke-linejoin:bevel;stroke-opacity:1" />
  <path
     d="m 2538.406,820.32 c -11.716,-11.716 -11.716,-30.711 0,-42.427 L 2670.809,645.49 c 10.419,-10.418 26.861,-11.729 38.798,-3.092 48.765,35.28 94.375,74.727 136.317,117.897 5.911,6.084 8.97,14.385 8.42,22.85 -0.55,8.464 -4.657,16.3 -11.306,21.568 -20.206,16.011 -26.87,43.749 -16.143,67.192 5.31,11.604 2.699,25.296 -6.509,34.13 -27.278,26.173 -32.512,67.866 -12.551,99.969 8.048,12.944 5.111,29.865 -6.828,39.34 -11.939,9.475 -29.085,8.492 -39.862,-2.286 L 2538.406,820.32"
     id="path322"
     inkscape:connector-curvature="0"
     style="font-style:normal;font-weight:400;font-size:medium;font-family:'Sans Serif';vector-effect:non-scaling-stroke;fill:none;fill-opacity:1;fill-rule:evenodd;stroke:#000000;stroke-width:1;stroke-linecap:square;stroke-linejoin:bevel;stroke-opacity:1" />
  <path
     d="m 2039.0948,632.499 c 15.2336,-0.498 28.4195,10.506 30.6557,25.583 2.2361,15.077 -7.1884,29.434 -21.9109,33.379 l -304.2666,81.528 c -16.004,4.288 -32.454,-5.209 -36.742,-21.213 L 1658.368,570.91 c -3.814,-14.232 3.272,-29.127 16.72,-35.147 54.937,-24.591 111.904,-44.367 170.261,-59.103 8.224,-2.08 16.943,-0.58 23.998,4.13 7.056,4.71 11.788,12.185 13.026,20.576 3.763,25.505 24.453,45.145 50.119,47.577 12.704,1.203 23.256,10.311 26.303,22.702 9.027,36.709 42.5173,62.089 80.2998,60.854"
     id="path338"
     inkscape:connector-curvature="0"
     style="font-style:normal;font-weight:400;font-size:medium;font-family:'Sans Serif';vector-effect:non-scaling-stroke;fill:none;fill-opacity:1;fill-rule:evenodd;stroke:#000000;stroke-width:1;stroke-linecap:square;stroke-linejoin:bevel;stroke-opacity:1" />
  <path
     d="m 1331.26,1111.495 c 7.185,-13.442 23.308,-19.359 37.483,-13.757 14.175,5.602 21.897,20.942 17.952,35.665 l -81.528,304.2663 c -4.288,16.004 -20.739,25.5014 -36.743,21.2132 l -180.864,-48.4629 c -14.23,-3.8134 -23.59,-17.3974 -22.08,-32.0536 6.17,-59.872 17.53,-119.095 33.94,-177.002 2.318,-8.161 7.978,-14.961 15.583,-18.717 7.606,-3.756 16.446,-4.117 24.332,-0.994 23.969,9.494 51.323,1.396 66.262,-19.616 7.394,-10.4 20.557,-14.984 32.812,-11.427 36.305,10.537 75.03,-5.777 92.851,-39.115"
     id="path354"
     inkscape:connector-curvature="0"
     style="font-style:normal;font-weight:400;font-size:medium;font-family:'Sans Serif';vector-effect:non-scaling-stroke;fill:none;fill-opacity:1;fill-rule:evenodd;stroke:#000000;stroke-width:1;stroke-linecap:square;stroke-linejoin:bevel;stroke-opacity:1" />
  <path
     d="m 1338.683,848.604 c 0,9.113 -7.388,16.5 -16.5,16.5 -9.113,0 -16.5,-7.387 -16.5,-16.5 0,-9.113 7.387,-16.5 16.5,-16.5 9.112,0 16.5,7.387 16.5,16.5"
     id="path370"
     inkscape:connector-curvature="0"
     style="font-style:normal;font-weight:400;font-size:medium;font-family:'Sans Serif';vector-effect:non-scaling-stroke;fill:none;fill-opacity:1;fill-rule:evenodd;stroke:#000000;stroke-width:1;stroke-linecap:square;stroke-linejoin:bevel;stroke-opacity:1" />
  <path
     d="m 1556.5,515.052 c 0,9.112 -7.387,16.5 -16.5,16.5 -9.113,0 -16.5,-7.388 -16.5,-16.5 0,-9.113 7.387,-16.5 16.5,-16.5 9.113,0 16.5,7.387 16.5,16.5"
     id="path386"
     inkscape:connector-curvature="0"
     style="font-style:normal;font-weight:400;font-size:medium;font-family:'Sans Serif';vector-effect:non-scaling-stroke;fill:none;fill-opacity:1;fill-rule:evenodd;stroke:#000000;stroke-width:1;stroke-linecap:square;stroke-linejoin:bevel;stroke-opacity:1" />
  <path
     d="m 2894.317,848.604 c 0,9.113 -7.387,16.5 -16.5,16.5 -9.112,0 -16.5,-7.387 -16.5,-16.5 0,-9.113 7.388,-16.5 16.5,-16.5 9.113,0 16.5,7.387 16.5,16.5"
     id="path402"
     inkscape:connector-curvature="0"
     style="font-style:normal;font-weight:400;font-size:medium;font-family:'Sans Serif';vector-effect:non-scaling-stroke;fill:none;fill-opacity:1;fill-rule:evenodd;stroke:#000000;stroke-width:1;stroke-linecap:square;stroke-linejoin:bevel;stroke-opacity:1" />
  <path
     d="m 1176.456,1129.588 c 0,9.113 -7.387,16.5 -16.5,16.5 -9.113,0 -16.5,-7.387 -16.5,-16.5 0,-9.112 7.387,-16.5 16.5,-16.5 9.113,0 16.5,7.388 16.5,16.5"
     id="path418"
     inkscape:connector-curvature="0"
     style="font-style:normal;font-weight:400;font-size:medium;font-family:'Sans Serif';vector-effect:non-scaling-stroke;fill:none;fill-opacity:1;fill-rule:evenodd;stroke:#000000;stroke-width:1;stroke-linecap:square;stroke-linejoin:bevel;stroke-opacity:1" />
  <path
     d="m 2894.317,2121.396 c 0,9.113 -7.387,16.5 -16.5,16.5 -9.112,0 -16.5,-7.387 -16.5,-16.5 0,-9.113 7.388,-16.5 16.5,-16.5 9.113,0 16.5,7.387 16.5,16.5"
     id="path434"
     inkscape:connector-curvature="0"
     style="font-style:normal;font-weight:400;font-size:medium;font-family:'Sans Serif';vector-effect:non-scaling-stroke;fill:none;fill-opacity:1;fill-rule:evenodd;stroke:#000000;stroke-width:1;stroke-linecap:square;stroke-linejoin:bevel;stroke-opacity:1" />
  <path
     d="m 1039.89,1793.714 c 0,9.113 -7.39,16.5 -16.5,16.5 -9.12,0 -16.5,-7.387 -16.5,-16.5 0,-9.113 7.38,-16.5 16.5,-16.5 9.11,0 16.5,7.387 16.5,16.5"
     id="path450"
     inkscape:connector-curvature="0"
     style="font-style:normal;font-weight:400;font-size:medium;font-family:'Sans Serif';vector-effect:non-scaling-stroke;fill:none;fill-opacity:1;fill-rule:evenodd;stroke:#000000;stroke-width:1;stroke-linecap:square;stroke-linejoin:bevel;stroke-opacity:1" />
  <path
     d="m 3193.11,1793.714 c 0,9.113 -7.38,16.5 -16.5,16.5 -9.11,0 -16.5,-7.387 -16.5,-16.5 0,-9.113 7.39,-16.5 16.5,-16.5 9.12,0 16.5,7.387 16.5,16.5"
     id="path466"
     inkscape:connector-curvature="0"
     style="font-style:normal;font-weight:400;font-size:medium;font-family:'Sans Serif';vector-effect:non-scaling-stroke;fill:none;fill-opacity:1;fill-rule:evenodd;stroke:#000000;stroke-width:1;stroke-linecap:square;stroke-linejoin:bevel;stroke-opacity:1" />
  <path
     d="m 2922.161,706.983 c 0,9.112 -7.388,16.5 -16.5,16.5 -9.113,0 -16.5,-7.388 -16.5,-16.5 0,-9.113 7.387,-16.5 16.5,-16.5 9.112,0 16.5,7.387 16.5,16.5"
     id="path482"
     inkscape:connector-curvature="0"
     style="font-style:normal;font-weight:400;font-size:medium;font-family:'Sans Serif';vector-effect:non-scaling-stroke;fill:none;fill-opacity:1;fill-rule:evenodd;stroke:#000000;stroke-width:1;stroke-linecap:square;stroke-linejoin:bevel;stroke-opacity:1" />
  <path
     d="m 2922.161,2263.017 c 0,9.113 -7.388,16.5 -16.5,16.5 -9.113,0 -16.5,-7.387 -16.5,-16.5 0,-9.112 7.387,-16.5 16.5,-16.5 9.112,0 16.5,7.388 16.5,16.5"
     id="path498"
     inkscape:connector-curvature="0"
     style="font-style:normal;font-weight:400;font-size:medium;font-family:'Sans Serif';vector-effect:non-scaling-stroke;fill:none;fill-opacity:1;fill-rule:evenodd;stroke:#000000;stroke-width:1;stroke-linecap:square;stroke-linejoin:bevel;stroke-opacity:1" />
  <path
     d="m 1039.89,1176.286 c 0,9.113 -7.39,16.5 -16.5,16.5 -9.12,0 -16.5,-7.387 -16.5,-16.5 0,-9.113 7.38,-16.5 16.5,-16.5 9.11,0 16.5,7.387 16.5,16.5"
     id="path514"
     inkscape:connector-curvature="0"
     style="font-style:normal;font-weight:400;font-size:medium;font-family:'Sans Serif';vector-effect:non-scaling-stroke;fill:none;fill-opacity:1;fill-rule:evenodd;stroke:#000000;stroke-width:1;stroke-linecap:square;stroke-linejoin:bevel;stroke-opacity:1" />
  <path
     d="m 2416.5,965.385 c 0,9.112 -7.387,16.5 -16.5,16.5 -9.113,0 -16.5,-7.388 -16.5,-16.5 0,-9.113 7.387,-16.5 16.5,-16.5 9.113,0 16.5,7.387 16.5,16.5"
     id="path530"
     inkscape:connector-curvature="0"
     style="font-style:normal;font-weight:400;font-size:medium;font-family:'Sans Serif';vector-effect:non-scaling-stroke;fill:none;fill-opacity:1;fill-rule:evenodd;stroke:#000000;stroke-width:1;stroke-linecap:square;stroke-linejoin:bevel;stroke-opacity:1" />
  <path
     d="m 2676.5,515.052 c 0,9.112 -7.387,16.5 -16.5,16.5 -9.113,0 -16.5,-7.388 -16.5,-16.5 0,-9.113 7.387,-16.5 16.5,-16.5 9.113,0 16.5,7.387 16.5,16.5"
     id="path546"
     inkscape:connector-curvature="0"
     style="font-style:normal;font-weight:400;font-size:medium;font-family:'Sans Serif';vector-effect:non-scaling-stroke;fill:none;fill-opacity:1;fill-rule:evenodd;stroke:#000000;stroke-width:1;stroke-linecap:square;stroke-linejoin:bevel;stroke-opacity:1" />
  <path
     d="m 2278.726,2476.808 c 0,9.112 -7.387,16.502 -16.5,16.502 -9.112,0 -16.5,-7.39 -16.5,-16.502 0,-9.113 7.388,-16.5 16.5,-16.5 9.113,0 16.5,7.387 16.5,16.5"
     id="path562"
     inkscape:connector-curvature="0"
     style="font-style:normal;font-weight:400;font-size:medium;font-family:'Sans Serif';vector-effect:non-scaling-stroke;fill:none;fill-opacity:1;fill-rule:evenodd;stroke:#000000;stroke-width:1;stroke-linecap:square;stroke-linejoin:bevel;stroke-opacity:1" />
  <path
     d="m 1954.274,2476.808 c 0,9.112 -7.388,16.502 -16.5,16.502 -9.113,0 -16.5,-7.39 -16.5,-16.502 0,-9.113 7.387,-16.5 16.5,-16.5 9.112,0 16.5,7.387 16.5,16.5"
     id="path578"
     inkscape:connector-curvature="0"
     style="font-style:normal;font-weight:400;font-size:medium;font-family:'Sans Serif';vector-effect:non-scaling-stroke;fill:none;fill-opacity:1;fill-rule:evenodd;stroke:#000000;stroke-width:1;stroke-linecap:square;stroke-linejoin:bevel;stroke-opacity:1" />
  <path
     d="m 3193.11,1176.286 c 0,9.113 -7.38,16.5 -16.5,16.5 -9.11,0 -16.5,-7.387 -16.5,-16.5 0,-9.113 7.39,-16.5 16.5,-16.5 9.12,0 16.5,7.387 16.5,16.5"
     id="path594"
     inkscape:connector-curvature="0"
     style="font-style:normal;font-weight:400;font-size:medium;font-family:'Sans Serif';vector-effect:non-scaling-stroke;fill:none;fill-opacity:1;fill-rule:evenodd;stroke:#000000;stroke-width:1;stroke-linecap:square;stroke-linejoin:bevel;stroke-opacity:1" />
  <path
     d="m 2387.453,398.27 c 0,9.11 -7.388,16.5 -16.5,16.5 -9.113,0 -16.5,-7.39 -16.5,-16.5 0,-9.11 7.387,-16.5 16.5,-16.5 9.112,0 16.5,7.39 16.5,16.5"
     id="path610"
     inkscape:connector-curvature="0"
     style="font-style:normal;font-weight:400;font-size:medium;font-family:'Sans Serif';vector-effect:non-scaling-stroke;fill:none;fill-opacity:1;fill-rule:evenodd;stroke:#000000;stroke-width:1;stroke-linecap:square;stroke-linejoin:bevel;stroke-opacity:1" />
  <path
     d="m 1816.5,965.385 c 0,9.112 -7.387,16.5 -16.5,16.5 -9.113,0 -16.5,-7.388 -16.5,-16.5 0,-9.113 7.387,-16.5 16.5,-16.5 9.113,0 16.5,7.387 16.5,16.5"
     id="path626"
     inkscape:connector-curvature="0"
     style="font-style:normal;font-weight:400;font-size:medium;font-family:'Sans Serif';vector-effect:non-scaling-stroke;fill:none;fill-opacity:1;fill-rule:evenodd;stroke:#000000;stroke-width:1;stroke-linecap:square;stroke-linejoin:bevel;stroke-opacity:1" />
  <path
     d="m 3236.5,1485 c 0,9.1127 -7.39,16.5 -16.5,16.5 -9.11,0 -16.5,-7.3873 -16.5,-16.5 0,-9.1127 7.39,-16.5 16.5,-16.5 9.11,0 16.5,7.3873 16.5,16.5"
     id="path642"
     inkscape:connector-curvature="0"
     style="font-style:normal;font-weight:400;font-size:medium;font-family:'Sans Serif';vector-effect:non-scaling-stroke;fill:none;fill-opacity:1;fill-rule:evenodd;stroke:#000000;stroke-width:1;stroke-linecap:square;stroke-linejoin:bevel;stroke-opacity:1" />
  <path
     d="m 1310.839,2263.017 c 0,9.113 -7.387,16.5 -16.5,16.5 -9.112,0 -16.5,-7.387 -16.5,-16.5 0,-9.112 7.388,-16.5 16.5,-16.5 9.113,0 16.5,7.388 16.5,16.5"
     id="path658"
     inkscape:connector-curvature="0"
     style="font-style:normal;font-weight:400;font-size:medium;font-family:'Sans Serif';vector-effect:non-scaling-stroke;fill:none;fill-opacity:1;fill-rule:evenodd;stroke:#000000;stroke-width:1;stroke-linecap:square;stroke-linejoin:bevel;stroke-opacity:1" />
  <path
     d="m 1816.5,2004.615 c 0,9.113 -7.387,16.5 -16.5,16.5 -9.113,0 -16.5,-7.387 -16.5,-16.5 0,-9.112 7.387,-16.5 16.5,-16.5 9.113,0 16.5,7.388 16.5,16.5"
     id="path674"
     inkscape:connector-curvature="0"
     style="font-style:normal;font-weight:400;font-size:medium;font-family:'Sans Serif';vector-effect:non-scaling-stroke;fill:none;fill-opacity:1;fill-rule:evenodd;stroke:#000000;stroke-width:1;stroke-linecap:square;stroke-linejoin:bevel;stroke-opacity:1" />
  <path
     d="m 1310.839,706.983 c 0,9.112 -7.387,16.5 -16.5,16.5 -9.112,0 -16.5,-7.388 -16.5,-16.5 0,-9.113 7.388,-16.5 16.5,-16.5 9.113,0 16.5,7.387 16.5,16.5"
     id="path690"
     inkscape:connector-curvature="0"
     style="font-style:normal;font-weight:400;font-size:medium;font-family:'Sans Serif';vector-effect:non-scaling-stroke;fill:none;fill-opacity:1;fill-rule:evenodd;stroke:#000000;stroke-width:1;stroke-linecap:square;stroke-linejoin:bevel;stroke-opacity:1" />
  <path
     d="m 996.5,1485 c 0,9.1127 -7.39,16.5 -16.5,16.5 -9.11,0 -16.5,-7.3873 -16.5,-16.5 0,-9.1127 7.39,-16.5 16.5,-16.5 9.11,0 16.5,7.3873 16.5,16.5"
     id="path706"
     inkscape:connector-curvature="0"
     style="font-style:normal;font-weight:400;font-size:medium;font-family:'Sans Serif';vector-effect:non-scaling-stroke;fill:none;fill-opacity:1;fill-rule:evenodd;stroke:#000000;stroke-width:1;stroke-linecap:square;stroke-linejoin:bevel;stroke-opacity:1" />
  <path
     d="m 1516.5,1485 c 0,9.1127 -7.387,16.5 -16.5,16.5 -9.113,0 -16.5,-7.3873 -16.5,-16.5 0,-9.1127 7.387,-16.5 16.5,-16.5 9.113,0 16.5,7.3873 16.5,16.5"
     id="path722"
     inkscape:connector-curvature="0"
     style="font-style:normal;font-weight:400;font-size:medium;font-family:'Sans Serif';vector-effect:non-scaling-stroke;fill:none;fill-opacity:1;fill-rule:evenodd;stroke:#000000;stroke-width:1;stroke-linecap:square;stroke-linejoin:bevel;stroke-opacity:1" />
  <path
     d="m 2716.5,1485 c 0,9.1127 -7.387,16.5 -16.5,16.5 -9.113,0 -16.5,-7.3873 -16.5,-16.5 0,-9.1127 7.387,-16.5 16.5,-16.5 9.113,0 16.5,7.3873 16.5,16.5"
     id="path738"
     inkscape:connector-curvature="0"
     style="font-style:normal;font-weight:400;font-size:medium;font-family:'Sans Serif';vector-effect:non-scaling-stroke;fill:none;fill-opacity:1;fill-rule:evenodd;stroke:#000000;stroke-width:1;stroke-linecap:square;stroke-linejoin:bevel;stroke-opacity:1" />
  <path
     d="m 3056.544,1129.588 c 0,9.113 -7.387,16.5 -16.5,16.5 -9.113,0 -16.5,-7.387 -16.5,-16.5 0,-9.112 7.387,-16.5 16.5,-16.5 9.113,0 16.5,7.388 16.5,16.5"
     id="path754"
     inkscape:connector-curvature="0"
     style="font-style:normal;font-weight:400;font-size:medium;font-family:'Sans Serif';vector-effect:non-scaling-stroke;fill:none;fill-opacity:1;fill-rule:evenodd;stroke:#000000;stroke-width:1;stroke-linecap:square;stroke-linejoin:bevel;stroke-opacity:1" />
  <path
     d="m 3056.544,1840.412 c 0,9.112 -7.387,16.5 -16.5,16.5 -9.113,0 -16.5,-7.388 -16.5,-16.5 0,-9.113 7.387,-16.5 16.5,-16.5 9.113,0 16.5,7.387 16.5,16.5"
     id="path770"
     inkscape:connector-curvature="0"
     style="font-style:normal;font-weight:400;font-size:medium;font-family:'Sans Serif';vector-effect:non-scaling-stroke;fill:none;fill-opacity:1;fill-rule:evenodd;stroke:#000000;stroke-width:1;stroke-linecap:square;stroke-linejoin:bevel;stroke-opacity:1" />
  <path
     d="m 1954.274,493.192 c 0,9.113 -7.388,16.5 -16.5,16.5 -9.113,0 -16.5,-7.387 -16.5,-16.5 0,-9.112 7.387,-16.502 16.5,-16.502 9.112,0 16.5,7.39 16.5,16.502"
     id="path786"
     inkscape:connector-curvature="0"
     style="font-style:normal;font-weight:400;font-size:medium;font-family:'Sans Serif';vector-effect:non-scaling-stroke;fill:none;fill-opacity:1;fill-rule:evenodd;stroke:#000000;stroke-width:1;stroke-linecap:square;stroke-linejoin:bevel;stroke-opacity:1" />
  <path
     d="m 2387.453,2571.73 c 0,9.11 -7.388,16.5 -16.5,16.5 -9.113,0 -16.5,-7.39 -16.5,-16.5 0,-9.11 7.387,-16.5 16.5,-16.5 9.112,0 16.5,7.39 16.5,16.5"
     id="path802"
     inkscape:connector-curvature="0"
     style="font-style:normal;font-weight:400;font-size:medium;font-family:'Sans Serif';vector-effect:non-scaling-stroke;fill:none;fill-opacity:1;fill-rule:evenodd;stroke:#000000;stroke-width:1;stroke-linecap:square;stroke-linejoin:bevel;stroke-opacity:1" />
  <path
     d="m 2278.726,493.192 c 0,9.113 -7.387,16.5 -16.5,16.5 -9.112,0 -16.5,-7.387 -16.5,-16.5 0,-9.112 7.388,-16.502 16.5,-16.502 9.113,0 16.5,7.39 16.5,16.502"
     id="path818"
     inkscape:connector-curvature="0"
     style="font-style:normal;font-weight:400;font-size:medium;font-family:'Sans Serif';vector-effect:non-scaling-stroke;fill:none;fill-opacity:1;fill-rule:evenodd;stroke:#000000;stroke-width:1;stroke-linecap:square;stroke-linejoin:bevel;stroke-opacity:1" />
  <path
     d="m 1845.547,2571.73 c 0,9.11 -7.387,16.5 -16.5,16.5 -9.112,0 -16.5,-7.39 -16.5,-16.5 0,-9.11 7.388,-16.5 16.5,-16.5 9.113,0 16.5,7.39 16.5,16.5"
     id="path834"
     inkscape:connector-curvature="0"
     style="font-style:normal;font-weight:400;font-size:medium;font-family:'Sans Serif';vector-effect:non-scaling-stroke;fill:none;fill-opacity:1;fill-rule:evenodd;stroke:#000000;stroke-width:1;stroke-linecap:square;stroke-linejoin:bevel;stroke-opacity:1" />
  <path
     d="m 2416.5,2004.615 c 0,9.113 -7.387,16.5 -16.5,16.5 -9.113,0 -16.5,-7.387 -16.5,-16.5 0,-9.112 7.387,-16.5 16.5,-16.5 9.113,0 16.5,7.388 16.5,16.5"
     id="path850"
     inkscape:connector-curvature="0"
     style="font-style:normal;font-weight:400;font-size:medium;font-family:'Sans Serif';vector-effect:non-scaling-stroke;fill:none;fill-opacity:1;fill-rule:evenodd;stroke:#000000;stroke-width:1;stroke-linecap:square;stroke-linejoin:bevel;stroke-opacity:1" />
  <path
     d="m 1845.547,398.27 c 0,9.11 -7.387,16.5 -16.5,16.5 -9.112,0 -16.5,-7.39 -16.5,-16.5 0,-9.11 7.388,-16.5 16.5,-16.5 9.113,0 16.5,7.39 16.5,16.5"
     id="path866"
     inkscape:connector-curvature="0"
     style="font-style:normal;font-weight:400;font-size:medium;font-family:'Sans Serif';vector-effect:non-scaling-stroke;fill:none;fill-opacity:1;fill-rule:evenodd;stroke:#000000;stroke-width:1;stroke-linecap:square;stroke-linejoin:bevel;stroke-opacity:1" />
  <path
     d="m 1338.683,2121.396 c 0,9.113 -7.388,16.5 -16.5,16.5 -9.113,0 -16.5,-7.387 -16.5,-16.5 0,-9.113 7.387,-16.5 16.5,-16.5 9.112,0 16.5,7.387 16.5,16.5"
     id="path882"
     inkscape:connector-curvature="0"
     style="font-style:normal;font-weight:400;font-size:medium;font-family:'Sans Serif';vector-effect:non-scaling-stroke;fill:none;fill-opacity:1;fill-rule:evenodd;stroke:#000000;stroke-width:1;stroke-linecap:square;stroke-linejoin:bevel;stroke-opacity:1" />
  <path
     d="m 2676.5,2454.948 c 0,9.113 -7.387,16.5 -16.5,16.5 -9.113,0 -16.5,-7.387 -16.5,-16.5 0,-9.112 7.387,-16.5 16.5,-16.5 9.113,0 16.5,7.388 16.5,16.5"
     id="path898"
     inkscape:connector-curvature="0"
     style="font-style:normal;font-weight:400;font-size:medium;font-family:'Sans Serif';vector-effect:non-scaling-stroke;fill:none;fill-opacity:1;fill-rule:evenodd;stroke:#000000;stroke-width:1;stroke-linecap:square;stroke-linejoin:bevel;stroke-opacity:1" />
  <path
     d="m 1176.456,1840.412 c 0,9.112 -7.387,16.5 -16.5,16.5 -9.113,0 -16.5,-7.388 -16.5,-16.5 0,-9.113 7.387,-16.5 16.5,-16.5 9.113,0 16.5,7.387 16.5,16.5"
     id="path914"
     inkscape:connector-curvature="0"
     style="font-style:normal;font-weight:400;font-size:medium;font-family:'Sans Serif';vector-effect:non-scaling-stroke;fill:none;fill-opacity:1;fill-rule:evenodd;stroke:#000000;stroke-width:1;stroke-linecap:square;stroke-linejoin:bevel;stroke-opacity:1" />
  <path
     d="m 1556.5,2454.948 c 0,9.113 -7.387,16.5 -16.5,16.5 -9.113,0 -16.5,-7.387 -16.5,-16.5 0,-9.112 7.387,-16.5 16.5,-16.5 9.113,0 16.5,7.388 16.5,16.5"
     id="path930"
     inkscape:connector-curvature="0"
     style="font-style:normal;font-weight:400;font-size:medium;font-family:'Sans Serif';vector-effect:non-scaling-stroke;fill:none;fill-opacity:1;fill-rule:evenodd;stroke:#000000;stroke-width:1;stroke-linecap:square;stroke-linejoin:bevel;stroke-opacity:1" />
</svg>
