<?xml version="1.0" encoding="UTF-8" standalone="no"?>
<svg
   xmlns:dc="http://purl.org/dc/elements/1.1/"
   xmlns:cc="http://creativecommons.org/ns#"
   xmlns:rdf="http://www.w3.org/1999/02/22-rdf-syntax-ns#"
   xmlns:svg="http://www.w3.org/2000/svg"
   xmlns="http://www.w3.org/2000/svg"
   xmlns:sodipodi="http://sodipodi.sourceforge.net/DTD/sodipodi-0.dtd"
   xmlns:inkscape="http://www.inkscape.org/namespaces/inkscape"
   width="420mm"
   height="297mm"
   viewBox="0 0 4200 2970"
   version="1.2"
   id="svg5444"
   sodipodi:docname="center_base.svg"
   inkscape:version="0.92.2 (5c3e80d, 2017-08-06)">
  <metadata
     id="metadata5448">
    <rdf:RDF>
      <cc:Work
         rdf:about="">
        <dc:format>image/svg+xml</dc:format>
        <dc:type
           rdf:resource="http://purl.org/dc/dcmitype/StillImage" />
      </cc:Work>
    </rdf:RDF>
  </metadata>
  <sodipodi:namedview
     pagecolor="#ffffff"
     bordercolor="#666666"
     borderopacity="1"
     objecttolerance="10"
     gridtolerance="10"
     guidetolerance="10"
     inkscape:pageopacity="0"
     inkscape:pageshadow="2"
     inkscape:window-width="1920"
     inkscape:window-height="1015"
     id="namedview5446"
     showgrid="false"
     inkscape:zoom="1.6530159"
     inkscape:cx="551.26278"
     inkscape:cy="633.76564"
     inkscape:window-x="0"
     inkscape:window-y="0"
     inkscape:window-maximized="1"
     inkscape:current-layer="svg5444" />
  <title
     id="title2">FreeCAD SVG Export</title>
  <desc
     id="desc4">Drawing page: Page005 exported from FreeCAD document: mounting_sun</desc>
  <defs
     id="defs6" />
  <path
     d="m 3300,1485 c 0,662.742 -537.258,1200 -1200,1200 -662.742,0 -1200,-537.258 -1200,-1200 0,-662.742 537.258,-1200 1200,-1200 662.742,0 1200,537.258 1200,1200"
     id="path50"
     inkscape:connector-curvature="0"
     style="font-style:normal;font-weight:400;font-size:medium;font-family:'Sans Serif';vector-effect:non-scaling-stroke;fill:none;fill-opacity:1;fill-rule:evenodd;stroke:#000000;stroke-width:1;stroke-linecap:square;stroke-linejoin:bevel;stroke-opacity:1" />
  <path
     d="m 2216.409,1411.458 c 24.287,7.4432 50.682,-0.026 67.467,-19.0923 16.785,-19.0657 20.848,-46.1947 10.387,-69.3427 -10.461,-23.147 -33.509,-38.023 -58.911,-38.023 v 0 h -270.704 v 0 c -25.402,0 -48.45,14.876 -58.911,38.023 -10.461,23.148 -6.398,50.277 10.387,69.3427 16.785,19.066 43.18,26.5355 67.467,19.0923 v 0 c 21.8569,-6.6985 45.5911,0.5609 59.9614,18.3399 14.3702,17.7789 16.4911,42.5078 5.3581,62.4741 -11.133,19.9663 -33.2845,31.1611 -55.9625,28.2822 v 0 c -30.493,-3.871 -60.612,9.5204 -78.165,34.7536 -17.552,25.2332 -19.632,58.1292 -5.397,85.3712 14.236,27.243 42.428,44.321 73.166,44.321 v 0 h 234.896 v 0 c 30.738,0 58.93,-17.078 73.166,-44.321 14.235,-27.242 12.155,-60.138 -5.397,-85.3712 -17.553,-25.2332 -47.672,-38.6246 -78.165,-34.7536 v 0 c -22.678,2.8789 -44.8295,-8.3159 -55.9625,-28.2822 -11.133,-19.9663 -9.0121,-44.6952 5.3581,-62.4741 14.3703,-17.779 38.1045,-25.0384 59.9614,-18.3399"
     id="path66"
     inkscape:connector-curvature="0"
     style="font-style:normal;font-weight:400;font-size:medium;font-family:'Sans Serif';vector-effect:non-scaling-stroke;fill:none;fill-opacity:1;fill-rule:evenodd;stroke:#000000;stroke-width:1;stroke-linecap:square;stroke-linejoin:bevel;stroke-opacity:1" />
  <path
     d="m 2229.764,867.565 c 15.416,9.673 35.092,9.315 50.146,-0.911 15.054,-10.227 22.636,-28.387 19.324,-46.282 -3.312,-17.894 -16.892,-32.138 -34.609,-36.299 v 0 c -108.2767,-25.431 -220.9733,-25.431 -329.25,0 v 0 c -17.717,4.161 -31.297,18.405 -34.609,36.299 -3.312,17.895 4.27,36.055 19.324,46.282 15.054,10.226 34.73,10.584 50.146,0.911 v 0 c 20.89,-13.108 47.8971,-11.007 66.5082,5.176 18.6112,16.182 24.4449,42.635 14.3662,65.144 -10.0786,22.509 -33.6965,35.775 -58.1624,32.669 v 0 c -30.493,-3.871 -60.612,9.521 -78.165,34.754 -17.552,25.233 -19.632,58.129 -5.397,85.371 14.236,27.243 42.428,44.321 73.166,44.321 v 0 h 234.896 v 0 c 30.738,0 58.93,-17.078 73.166,-44.321 14.235,-27.242 12.155,-60.138 -5.397,-85.371 -17.553,-25.233 -47.672,-38.625 -78.165,-34.754 v 0 c -24.4659,3.106 -48.0838,-10.16 -58.1624,-32.669 -10.0787,-22.509 -4.245,-48.962 14.3662,-65.144 18.6111,-16.183 45.6182,-18.284 66.5082,-5.176"
     id="path82"
     inkscape:connector-curvature="0"
     style="font-style:normal;font-weight:400;font-size:medium;font-family:'Sans Serif';vector-effect:non-scaling-stroke;fill:none;fill-opacity:1;fill-rule:evenodd;stroke:#000000;stroke-width:1;stroke-linecap:square;stroke-linejoin:bevel;stroke-opacity:1" />
  <path
     d="m 2699.597,1288.662 c -0.67,18.186 9.478,35.048 25.861,42.971 16.384,7.924 35.902,5.411 49.743,-6.405 13.842,-11.816 19.387,-30.698 14.132,-48.122 v 0 C 2757.218,1170.62 2700.87,1073.022 2624.708,991.967 v 0 c -12.462,-13.263 -31.587,-17.902 -48.741,-11.823 -17.153,6.079 -29.089,21.726 -30.418,39.876 -1.33,18.151 8.199,35.37 24.283,43.883 v 0 c 21.798,11.538 33.481,35.977 28.772,60.186 -4.708,24.209 -24.7,42.488 -49.233,45.014 -24.533,2.526 -47.831,-11.295 -57.374,-34.036 v 0 c -11.894,-28.343 -38.551,-47.731 -69.18,-50.315 -30.629,-2.585 -60.157,12.062 -76.632,38.011 -16.476,25.95 -17.169,58.904 -1.8,85.524 v 0 l 117.448,203.4264 v 0 c 15.369,26.6196 44.255,42.496 74.965,41.2026 30.711,-1.2934 58.16,-19.5423 71.236,-47.3599 13.076,-27.8181 9.614,-60.5971 -8.985,-85.0691 v 0 c -14.923,-19.635 -15.243,-46.722 -0.789,-66.705 14.455,-19.983 40.28,-28.157 63.6,-20.131 23.32,8.027 38.643,30.365 37.737,55.011"
     id="path98"
     inkscape:connector-curvature="0"
     style="font-style:normal;font-weight:400;font-size:medium;font-family:'Sans Serif';vector-effect:non-scaling-stroke;fill:none;fill-opacity:1;fill-rule:evenodd;stroke:#000000;stroke-width:1;stroke-linecap:square;stroke-linejoin:bevel;stroke-opacity:1" />
  <path
     d="m 1600.951,1320.487 c -18.599,24.472 -22.061,57.251 -8.985,85.0691 13.076,27.8176 40.525,46.0665 71.236,47.3599 30.71,1.2934 59.596,-14.583 74.965,-41.2026 v 0 l 117.448,-203.4264 v 0 c 15.369,-26.62 14.676,-59.574 -1.8,-85.524 -16.475,-25.949 -46.003,-40.596 -76.632,-38.011 -30.629,2.584 -57.286,21.972 -69.18,50.315 v 0 c -9.543,22.741 -32.841,36.562 -57.374,34.036 -24.533,-2.526 -44.525,-20.805 -49.233,-45.014 -4.709,-24.209 6.974,-48.648 28.772,-60.186 v 0 c 16.084,-8.513 25.613,-25.732 24.283,-43.883 -1.329,-18.15 -13.265,-33.797 -30.418,-39.876 -17.154,-6.079 -36.279,-1.44 -48.741,11.823 v 0 c -76.162,81.055 -132.51,178.653 -164.625,285.139 v 0 c -5.255,17.424 0.29,36.306 14.132,48.122 13.841,11.816 33.359,14.329 49.743,6.405 16.383,-7.923 26.531,-24.785 25.861,-42.971 v 0 c -0.906,-24.646 14.417,-46.984 37.737,-55.011 23.32,-8.026 49.145,0.148 63.6,20.131 14.454,19.983 14.134,47.07 -0.789,66.705"
     id="path114"
     inkscape:connector-curvature="0"
     style="font-style:normal;font-weight:400;font-size:medium;font-family:'Sans Serif';vector-effect:non-scaling-stroke;fill:none;fill-opacity:1;fill-rule:evenodd;stroke:#000000;stroke-width:1;stroke-linecap:square;stroke-linejoin:bevel;stroke-opacity:1" />
  <path
     d="m 2569.832,1906.097 c -16.084,8.513 -25.613,25.732 -24.283,43.883 1.329,18.15 13.265,33.797 30.418,39.876 17.154,6.079 36.279,1.44 48.741,-11.823 v 0 c 76.162,-81.055 132.51,-178.653 164.625,-285.139 v 0 c 5.255,-17.424 -0.29,-36.306 -14.132,-48.122 -13.841,-11.816 -33.359,-14.329 -49.743,-6.405 -16.383,7.923 -26.531,24.785 -25.861,42.971 v 0 c 0.906,24.646 -14.417,46.984 -37.737,55.011 -23.32,8.026 -49.145,-0.148 -63.6,-20.131 -14.454,-19.983 -14.134,-47.07 0.789,-66.705 v 0 c 18.599,-24.472 22.061,-57.251 8.985,-85.0691 -13.076,-27.8176 -40.525,-46.0665 -71.236,-47.3599 -30.71,-1.2934 -59.596,14.583 -74.965,41.2026 v 0 l -117.448,203.4264 v 0 c -15.369,26.62 -14.676,59.574 1.8,85.524 16.475,25.949 46.003,40.596 76.632,38.011 30.629,-2.584 57.286,-21.972 69.18,-50.315 v 0 c 9.543,-22.741 32.841,-36.562 57.374,-34.036 24.533,2.526 44.525,20.805 49.233,45.014 4.709,24.209 -6.974,48.648 -28.772,60.186"
     id="path130"
     inkscape:connector-curvature="0"
     style="font-style:normal;font-weight:400;font-size:medium;font-family:'Sans Serif';vector-effect:non-scaling-stroke;fill:none;fill-opacity:1;fill-rule:evenodd;stroke:#000000;stroke-width:1;stroke-linecap:square;stroke-linejoin:bevel;stroke-opacity:1" />
  <path
     d="m 1970.236,2102.435 c -15.416,-9.673 -35.092,-9.315 -50.146,0.911 -15.054,10.227 -22.636,28.387 -19.324,46.282 3.312,17.894 16.892,32.138 34.609,36.299 v 0 c 108.2767,25.431 220.9733,25.431 329.25,0 v 0 c 17.717,-4.161 31.297,-18.405 34.609,-36.299 3.312,-17.895 -4.27,-36.055 -19.324,-46.282 -15.054,-10.226 -34.73,-10.584 -50.146,-0.911 v 0 c -20.89,13.108 -47.8971,11.007 -66.5082,-5.176 -18.6112,-16.182 -24.4449,-42.635 -14.3662,-65.144 10.0786,-22.509 33.6965,-35.775 58.1624,-32.669 v 0 c 30.493,3.871 60.612,-9.521 78.165,-34.754 17.552,-25.233 19.632,-58.129 5.397,-85.371 -14.236,-27.243 -42.428,-44.321 -73.166,-44.321 v 0 h -234.896 v 0 c -30.738,0 -58.93,17.078 -73.166,44.321 -14.235,27.242 -12.155,60.138 5.397,85.371 17.553,25.233 47.672,38.625 78.165,34.754 v 0 c 24.4659,-3.106 48.0838,10.16 58.1624,32.669 10.0787,22.509 4.245,48.962 -14.3662,65.144 -18.6111,16.183 -45.6182,18.284 -66.5082,5.176"
     id="path146"
     inkscape:connector-curvature="0"
     style="font-style:normal;font-weight:400;font-size:medium;font-family:'Sans Serif';vector-effect:non-scaling-stroke;fill:none;fill-opacity:1;fill-rule:evenodd;stroke:#000000;stroke-width:1;stroke-linecap:square;stroke-linejoin:bevel;stroke-opacity:1" />
  <path
     d="m 1708.003,1834.933 c 11.894,28.343 38.551,47.731 69.18,50.315 30.629,2.585 60.157,-12.062 76.632,-38.011 16.476,-25.95 17.169,-58.904 1.8,-85.524 v 0 l -117.448,-203.4264 v 0 c -15.369,-26.6196 -44.255,-42.496 -74.965,-41.2026 -30.711,1.2934 -58.16,19.5423 -71.236,47.3599 -13.076,27.8181 -9.614,60.5971 8.985,85.0691 v 0 c 14.923,19.635 15.243,46.722 0.789,66.705 -14.455,19.983 -40.28,28.157 -63.6,20.131 -23.32,-8.027 -38.643,-30.365 -37.737,-55.011 v 0 c 0.67,-18.186 -9.478,-35.048 -25.861,-42.971 -16.384,-7.924 -35.902,-5.411 -49.743,6.405 -13.842,11.816 -19.387,30.698 -14.132,48.122 v 0 c 32.115,106.486 88.463,204.084 164.625,285.139 v 0 c 12.462,13.263 31.587,17.902 48.741,11.823 17.153,-6.079 29.089,-21.726 30.418,-39.876 1.33,-18.151 -8.199,-35.37 -24.283,-43.883 v 0 c -21.798,-11.538 -33.481,-35.977 -28.772,-60.186 4.708,-24.209 24.7,-42.488 49.233,-45.014 24.533,-2.526 47.831,11.295 57.374,34.036"
     id="path162"
     inkscape:connector-curvature="0"
     style="font-style:normal;font-weight:400;font-size:medium;font-family:'Sans Serif';vector-effect:non-scaling-stroke;fill:none;fill-opacity:1;fill-rule:evenodd;stroke:#000000;stroke-width:1;stroke-linecap:square;stroke-linejoin:bevel;stroke-opacity:1" />
  <path
     d="m 1506.006,2226.238 c 14.527,16.84 35.408,26.872 57.632,27.69 22.224,0.818 43.786,-7.652 59.512,-23.377 l 38.444,-38.444 c 11.716,-11.716 11.716,-30.711 0,-42.427 l -222.739,-222.738 c -10.777,-10.778 -27.923,-11.761 -39.862,-2.286 -11.939,9.475 -14.876,26.396 -6.828,39.34 19.961,32.103 14.727,73.796 -12.551,99.969 -9.208,8.834 -11.819,22.526 -6.509,34.13 10.738,23.466 4.049,51.232 -16.198,67.235 -6.718,5.31 -10.847,13.239 -11.346,21.789 -0.499,8.549 2.68,16.904 8.736,22.96 l 20.624,20.624 c 6.056,6.056 14.411,9.235 22.96,8.736 8.55,-0.499 16.479,-4.628 21.789,-11.346 10.359,-13.107 26.029,-20.904 42.731,-21.263 16.703,-0.358 32.693,6.759 43.605,19.408"
     id="path178"
     inkscape:connector-curvature="0"
     style="font-style:normal;font-weight:400;font-size:medium;font-family:'Sans Serif';vector-effect:non-scaling-stroke;fill:none;fill-opacity:1;fill-rule:evenodd;stroke:#000000;stroke-width:1;stroke-linecap:square;stroke-linejoin:bevel;stroke-opacity:1" />
  <path
     d="m 1161.072,1628.794 c -7.32,-21 -5.568,-44.0991 4.836,-63.755 10.403,-19.6558 28.519,-34.094 50.001,-39.85 l 52.515,-14.0715 c 16.004,-4.2882 32.455,5.2092 36.743,21.2132 l 81.528,304.2663 c 3.945,14.723 -3.777,30.063 -17.952,35.665 -14.175,5.602 -30.298,-0.315 -37.483,-13.757 -17.821,-33.338 -56.546,-49.652 -92.851,-39.115 -12.255,3.557 -25.418,-1.027 -32.812,-11.427 -14.954,-21.033 -42.345,-29.123 -66.326,-19.591 -7.959,3.163 -16.89,2.775 -24.543,-1.068 -7.654,-3.843 -13.3,-10.773 -15.518,-19.046 l -7.55,-28.173 c -2.21,-8.272 -0.79,-17.097 3.92,-24.252 4.704,-7.155 12.244,-11.957 20.718,-13.196 16.53,-2.418 31.118,-12.09 39.779,-26.376 8.662,-14.285 10.494,-31.691 4.995,-47.467"
     id="path194"
     inkscape:connector-curvature="0"
     style="font-style:normal;font-weight:400;font-size:medium;font-family:'Sans Serif';vector-effect:non-scaling-stroke;fill:none;fill-opacity:1;fill-rule:evenodd;stroke:#000000;stroke-width:1;stroke-linecap:square;stroke-linejoin:bevel;stroke-opacity:1" />
  <path
     d="m 1161.072,1341.206 c -7.32,21 -5.568,44.0991 4.836,63.755 10.403,19.6558 28.519,34.094 50.001,39.85 l 52.515,14.0715 c 16.004,4.2882 32.455,-5.2092 36.743,-21.2132 l 81.528,-304.2663 c 3.945,-14.723 -3.777,-30.063 -17.952,-35.665 -14.175,-5.602 -30.298,0.315 -37.483,13.757 -17.821,33.338 -56.546,49.652 -92.851,39.115 -12.255,-3.557 -25.418,1.027 -32.812,11.427 -14.954,21.033 -42.345,29.123 -66.326,19.591 -7.959,-3.163 -16.89,-2.775 -24.543,1.068 -7.654,3.843 -13.3,10.773 -15.518,19.046 l -7.55,28.173 c -2.21,8.272 -0.79,17.097 3.92,24.252 4.704,7.155 12.244,11.957 20.718,13.196 16.53,2.418 31.118,12.09 39.779,26.376 8.662,14.285 10.494,31.691 4.995,47.467"
     id="path210"
     inkscape:connector-curvature="0"
     style="font-style:normal;font-weight:400;font-size:medium;font-family:'Sans Serif';vector-effect:non-scaling-stroke;fill:none;fill-opacity:1;fill-rule:evenodd;stroke:#000000;stroke-width:1;stroke-linecap:square;stroke-linejoin:bevel;stroke-opacity:1" />
  <path
     d="m 3108.34,1740.085 -7.55,28.173 c -2.218,8.273 -7.864,15.203 -15.518,19.046 -7.653,3.843 -16.584,4.231 -24.543,1.068 -23.981,-9.532 -51.372,-1.442 -66.326,19.591 -7.394,10.4 -20.557,14.984 -32.812,11.427 -36.305,-10.537 -75.03,5.777 -92.851,39.115 -7.185,13.442 -23.308,19.359 -37.483,13.757 -14.175,-5.602 -21.897,-20.942 -17.952,-35.665 l 81.528,-304.2663 c 4.288,-16.004 20.739,-25.5014 36.743,-21.2132 l 52.515,14.0715 c 21.482,5.756 39.598,20.1942 50.001,39.85 10.404,19.6559 12.156,42.755 4.836,63.755 -5.499,15.776 -3.667,33.182 4.995,47.467 8.661,14.286 23.249,23.958 39.779,26.376 8.474,1.239 16.014,6.041 20.718,13.196 4.71,7.155 6.13,15.98 3.92,24.252"
     id="path226"
     inkscape:connector-curvature="0"
     style="font-style:normal;font-weight:400;font-size:medium;font-family:'Sans Serif';vector-effect:non-scaling-stroke;fill:none;fill-opacity:1;fill-rule:evenodd;stroke:#000000;stroke-width:1;stroke-linecap:square;stroke-linejoin:bevel;stroke-opacity:1" />
  <path
     d="m 3108.34,1229.915 -7.55,-28.173 c -2.218,-8.273 -7.864,-15.203 -15.518,-19.046 -7.653,-3.843 -16.584,-4.231 -24.543,-1.068 -23.981,9.532 -51.372,1.442 -66.326,-19.591 -7.394,-10.4 -20.557,-14.984 -32.812,-11.427 -36.305,10.537 -75.03,-5.777 -92.851,-39.115 -7.185,-13.442 -23.308,-19.359 -37.483,-13.757 -14.175,5.602 -21.897,20.942 -17.952,35.665 l 81.528,304.2663 c 4.288,16.004 20.739,25.5014 36.743,21.2132 l 52.515,-14.0715 c 21.482,-5.756 39.598,-20.1942 50.001,-39.85 10.404,-19.6559 12.156,-42.755 4.836,-63.755 -5.499,-15.776 -3.667,-33.182 4.995,-47.467 8.661,-14.286 23.249,-23.958 39.779,-26.376 8.474,-1.239 16.014,-6.041 20.718,-13.196 4.71,-7.155 6.13,-15.98 3.92,-24.252"
     id="path242"
     inkscape:connector-curvature="0"
     style="font-style:normal;font-weight:400;font-size:medium;font-family:'Sans Serif';vector-effect:non-scaling-stroke;fill:none;fill-opacity:1;fill-rule:evenodd;stroke:#000000;stroke-width:1;stroke-linecap:square;stroke-linejoin:bevel;stroke-opacity:1" />
  <path
     d="m 1755.066,599.967 c -21.847,4.161 -40.976,17.228 -52.796,36.066 -11.821,18.837 -15.267,41.746 -9.511,63.227 l 14.072,52.516 c 4.288,16.004 20.738,25.501 36.742,21.213 l 304.2666,-81.528 c 14.7225,-3.945 24.147,-18.302 21.9109,-33.379 -2.2362,-15.077 -15.4221,-26.081 -30.6557,-25.583 -37.7825,1.235 -71.2728,-24.145 -80.2998,-60.854 -3.047,-12.391 -13.599,-21.499 -26.303,-22.702 -25.692,-2.434 -46.393,-22.11 -50.129,-47.645 -1.239,-8.474 -6.041,-16.014 -13.196,-20.718 -7.155,-4.71 -15.98,-6.13 -24.252,-3.92 l -28.173,7.55 c -8.273,2.218 -15.203,7.864 -19.046,15.518 -3.843,7.653 -4.231,16.584 -1.068,24.543 6.171,15.524 5.088,32.993 -2.952,47.637 -8.041,14.644 -22.199,24.934 -38.61,28.059"
     id="path258"
     inkscape:connector-curvature="0"
     style="font-style:normal;font-weight:400;font-size:medium;font-family:'Sans Serif';vector-effect:non-scaling-stroke;fill:none;fill-opacity:1;fill-rule:evenodd;stroke:#000000;stroke-width:1;stroke-linecap:square;stroke-linejoin:bevel;stroke-opacity:1" />
  <path
     d="m 2843.093,804.67 c 6.718,-5.31 10.847,-13.239 11.346,-21.789 0.499,-8.549 -2.68,-16.904 -8.736,-22.96 l -20.624,-20.624 c -6.056,-6.056 -14.411,-9.235 -22.96,-8.736 -8.55,0.499 -16.479,4.628 -21.789,11.346 -10.359,13.107 -26.029,20.904 -42.731,21.263 -16.703,0.358 -32.693,-6.759 -43.605,-19.408 -14.527,-16.84 -35.408,-26.872 -57.632,-27.69 -22.224,-0.818 -43.786,7.652 -59.512,23.377 l -38.444,38.444 c -11.716,11.716 -11.716,30.711 0,42.427 l 222.739,222.738 c 10.777,10.778 27.923,11.761 39.862,2.286 11.939,-9.475 14.876,-26.396 6.828,-39.34 -19.961,-32.103 -14.727,-73.796 12.551,-99.969 9.208,-8.834 11.819,-22.526 6.509,-34.13 -10.738,-23.466 -4.049,-51.232 16.198,-67.235"
     id="path274"
     inkscape:connector-curvature="0"
     style="font-style:normal;font-weight:400;font-size:medium;font-family:'Sans Serif';vector-effect:non-scaling-stroke;fill:none;fill-opacity:1;fill-rule:evenodd;stroke:#000000;stroke-width:1;stroke-linecap:square;stroke-linejoin:bevel;stroke-opacity:1" />
  <path
     d="m 2444.934,599.967 c 21.847,4.161 40.976,17.228 52.796,36.066 11.821,18.837 15.267,41.746 9.511,63.227 l -14.072,52.516 c -4.288,16.004 -20.738,25.501 -36.742,21.213 l -304.2666,-81.528 c -14.7225,-3.945 -24.147,-18.302 -21.9109,-33.379 2.2362,-15.077 15.4221,-26.081 30.6557,-25.583 37.7825,1.235 71.2728,-24.145 80.2998,-60.854 3.047,-12.391 13.599,-21.499 26.303,-22.702 25.692,-2.434 46.393,-22.11 50.129,-47.645 1.239,-8.474 6.041,-16.014 13.196,-20.718 7.155,-4.71 15.98,-6.13 24.252,-3.92 l 28.173,7.55 c 8.273,2.218 15.203,7.864 19.046,15.518 3.843,7.653 4.231,16.584 1.068,24.543 -6.171,15.524 -5.088,32.993 2.952,47.637 8.041,14.644 22.199,24.934 38.61,28.059"
     id="path290"
     inkscape:connector-curvature="0"
     style="font-style:normal;font-weight:400;font-size:medium;font-family:'Sans Serif';vector-effect:non-scaling-stroke;fill:none;fill-opacity:1;fill-rule:evenodd;stroke:#000000;stroke-width:1;stroke-linecap:square;stroke-linejoin:bevel;stroke-opacity:1" />
  <path
     d="m 2843.093,2165.33 c 6.718,5.31 10.847,13.239 11.346,21.789 0.499,8.549 -2.68,16.904 -8.736,22.96 l -20.624,20.624 c -6.056,6.056 -14.411,9.235 -22.96,8.736 -8.55,-0.499 -16.479,-4.628 -21.789,-11.346 -10.359,-13.107 -26.029,-20.904 -42.731,-21.263 -16.703,-0.358 -32.693,6.759 -43.605,19.408 -14.527,16.84 -35.408,26.872 -57.632,27.69 -22.224,0.818 -43.786,-7.652 -59.512,-23.377 l -38.444,-38.444 c -11.716,-11.716 -11.716,-30.711 0,-42.427 l 222.739,-222.738 c 10.777,-10.778 27.923,-11.761 39.862,-2.286 11.939,9.475 14.876,26.396 6.828,39.34 -19.961,32.103 -14.727,73.796 12.551,99.969 9.208,8.834 11.819,22.526 6.509,34.13 -10.738,23.466 -4.049,51.232 16.198,67.235"
     id="path306"
     inkscape:connector-curvature="0"
     style="font-style:normal;font-weight:400;font-size:medium;font-family:'Sans Serif';vector-effect:non-scaling-stroke;fill:none;fill-opacity:1;fill-rule:evenodd;stroke:#000000;stroke-width:1;stroke-linecap:square;stroke-linejoin:bevel;stroke-opacity:1" />
  <path
     d="m 2444.934,2370.033 c 21.847,-4.161 40.976,-17.228 52.796,-36.066 11.821,-18.837 15.267,-41.746 9.511,-63.227 l -14.072,-52.516 c -4.288,-16.004 -20.738,-25.501 -36.742,-21.213 l -304.2666,81.528 c -14.7225,3.945 -24.147,18.302 -21.9109,33.379 2.2362,15.077 15.4221,26.081 30.6557,25.583 37.7825,-1.235 71.2728,24.145 80.2998,60.854 3.047,12.391 13.599,21.499 26.303,22.702 25.692,2.434 46.393,22.11 50.129,47.645 1.239,8.474 6.041,16.014 13.196,20.718 7.155,4.71 15.98,6.13 24.252,3.92 l 28.173,-7.55 c 8.273,-2.218 15.203,-7.864 19.046,-15.518 3.843,-7.653 4.231,-16.584 1.068,-24.543 -6.171,-15.524 -5.088,-32.993 2.952,-47.637 8.041,-14.644 22.199,-24.934 38.61,-28.059"
     id="path322"
     inkscape:connector-curvature="0"
     style="font-style:normal;font-weight:400;font-size:medium;font-family:'Sans Serif';vector-effect:non-scaling-stroke;fill:none;fill-opacity:1;fill-rule:evenodd;stroke:#000000;stroke-width:1;stroke-linecap:square;stroke-linejoin:bevel;stroke-opacity:1" />
  <path
     d="m 1755.066,2370.033 c -21.847,-4.161 -40.976,-17.228 -52.796,-36.066 -11.821,-18.837 -15.267,-41.746 -9.511,-63.227 l 14.072,-52.516 c 4.288,-16.004 20.738,-25.501 36.742,-21.213 l 304.2666,81.528 c 14.7225,3.945 24.147,18.302 21.9109,33.379 -2.2362,15.077 -15.4221,26.081 -30.6557,25.583 -37.7825,-1.235 -71.2728,24.145 -80.2998,60.854 -3.047,12.391 -13.599,21.499 -26.303,22.702 -25.692,2.434 -46.393,22.11 -50.129,47.645 -1.239,8.474 -6.041,16.014 -13.196,20.718 -7.155,4.71 -15.98,6.13 -24.252,3.92 l -28.173,-7.55 c -8.273,-2.218 -15.203,-7.864 -19.046,-15.518 -3.843,-7.653 -4.231,-16.584 -1.068,-24.543 6.171,-15.524 5.088,-32.993 -2.952,-47.637 -8.041,-14.644 -22.199,-24.934 -38.61,-28.059"
     id="path338"
     inkscape:connector-curvature="0"
     style="font-style:normal;font-weight:400;font-size:medium;font-family:'Sans Serif';vector-effect:non-scaling-stroke;fill:none;fill-opacity:1;fill-rule:evenodd;stroke:#000000;stroke-width:1;stroke-linecap:square;stroke-linejoin:bevel;stroke-opacity:1" />
  <path
     d="m 1506.006,743.762 c 14.527,-16.84 35.408,-26.872 57.632,-27.69 22.224,-0.818 43.786,7.652 59.512,23.377 l 38.444,38.444 c 11.716,11.716 11.716,30.711 0,42.427 l -222.739,222.738 c -10.777,10.778 -27.923,11.761 -39.862,2.286 -11.939,-9.475 -14.876,-26.396 -6.828,-39.34 19.961,-32.103 14.727,-73.796 -12.551,-99.969 -9.208,-8.834 -11.819,-22.526 -6.509,-34.13 10.738,-23.466 4.049,-51.232 -16.198,-67.235 -6.718,-5.31 -10.847,-13.239 -11.346,-21.789 -0.499,-8.549 2.68,-16.904 8.736,-22.96 l 20.624,-20.624 c 6.056,-6.056 14.411,-9.235 22.96,-8.736 8.55,0.499 16.479,4.628 21.789,11.346 10.359,13.107 26.029,20.904 42.731,21.263 16.703,0.358 32.693,-6.759 43.605,-19.408"
     id="path354"
     inkscape:connector-curvature="0"
     style="font-style:normal;font-weight:400;font-size:medium;font-family:'Sans Serif';vector-effect:non-scaling-stroke;fill:none;fill-opacity:1;fill-rule:evenodd;stroke:#000000;stroke-width:1;stroke-linecap:square;stroke-linejoin:bevel;stroke-opacity:1" />
  <path
     d="m 1321.839,2278.895 v -31.755 l -27.5,-15.877 -27.5,15.877 v 31.755 l 27.5,15.877 27.5,-15.877"
     id="path370"
     inkscape:connector-curvature="0"
     style="font-style:normal;font-weight:400;font-size:medium;font-family:'Sans Serif';vector-effect:non-scaling-stroke;fill:none;fill-opacity:1;fill-rule:evenodd;stroke:#000000;stroke-width:1;stroke-linecap:square;stroke-linejoin:bevel;stroke-opacity:1" />
  <path
     d="m 1321.839,722.86 v -31.755 l -27.5,-15.877 -27.5,15.877 v 31.755 l 27.5,15.877 27.5,-15.877"
     id="path386"
     inkscape:connector-curvature="0"
     style="font-style:normal;font-weight:400;font-size:medium;font-family:'Sans Serif';vector-effect:non-scaling-stroke;fill:none;fill-opacity:1;fill-rule:evenodd;stroke:#000000;stroke-width:1;stroke-linecap:square;stroke-linejoin:bevel;stroke-opacity:1" />
  <path
     d="m 2398.453,414.15 v -31.76 l -27.5,-15.88 -27.5,15.88 v 31.76 l 27.5,15.87 27.5,-15.87"
     id="path402"
     inkscape:connector-curvature="0"
     style="font-style:normal;font-weight:400;font-size:medium;font-family:'Sans Serif';vector-effect:non-scaling-stroke;fill:none;fill-opacity:1;fill-rule:evenodd;stroke:#000000;stroke-width:1;stroke-linecap:square;stroke-linejoin:bevel;stroke-opacity:1" />
  <path
     d="m 1856.547,414.15 v -31.76 l -27.5,-15.88 -27.5,15.88 v 31.76 l 27.5,15.87 27.5,-15.87"
     id="path418"
     inkscape:connector-curvature="0"
     style="font-style:normal;font-weight:400;font-size:medium;font-family:'Sans Serif';vector-effect:non-scaling-stroke;fill:none;fill-opacity:1;fill-rule:evenodd;stroke:#000000;stroke-width:1;stroke-linecap:square;stroke-linejoin:bevel;stroke-opacity:1" />
  <path
     d="m 1856.547,2587.61 v -31.76 l -27.5,-15.87 -27.5,15.87 v 31.76 l 27.5,15.88 27.5,-15.88"
     id="path434"
     inkscape:connector-curvature="0"
     style="font-style:normal;font-weight:400;font-size:medium;font-family:'Sans Serif';vector-effect:non-scaling-stroke;fill:none;fill-opacity:1;fill-rule:evenodd;stroke:#000000;stroke-width:1;stroke-linecap:square;stroke-linejoin:bevel;stroke-opacity:1" />
  <path
     d="m 3204.11,1809.591 v -31.754 l -27.5,-15.877 -27.5,15.877 v 31.754 l 27.5,15.877 27.5,-15.877"
     id="path450"
     inkscape:connector-curvature="0"
     style="font-style:normal;font-weight:400;font-size:medium;font-family:'Sans Serif';vector-effect:non-scaling-stroke;fill:none;fill-opacity:1;fill-rule:evenodd;stroke:#000000;stroke-width:1;stroke-linecap:square;stroke-linejoin:bevel;stroke-opacity:1" />
  <path
     d="m 1050.89,1192.163 v -31.754 l -27.5,-15.877 -27.5,15.877 v 31.754 l 27.5,15.877 27.5,-15.877"
     id="path466"
     inkscape:connector-curvature="0"
     style="font-style:normal;font-weight:400;font-size:medium;font-family:'Sans Serif';vector-effect:non-scaling-stroke;fill:none;fill-opacity:1;fill-rule:evenodd;stroke:#000000;stroke-width:1;stroke-linecap:square;stroke-linejoin:bevel;stroke-opacity:1" />
  <path
     d="m 2933.161,2278.895 v -31.755 l -27.5,-15.877 -27.5,15.877 v 31.755 l 27.5,15.877 27.5,-15.877"
     id="path482"
     inkscape:connector-curvature="0"
     style="font-style:normal;font-weight:400;font-size:medium;font-family:'Sans Serif';vector-effect:non-scaling-stroke;fill:none;fill-opacity:1;fill-rule:evenodd;stroke:#000000;stroke-width:1;stroke-linecap:square;stroke-linejoin:bevel;stroke-opacity:1" />
  <path
     d="m 1050.89,1809.591 v -31.754 l -27.5,-15.877 -27.5,15.877 v 31.754 l 27.5,15.877 27.5,-15.877"
     id="path498"
     inkscape:connector-curvature="0"
     style="font-style:normal;font-weight:400;font-size:medium;font-family:'Sans Serif';vector-effect:non-scaling-stroke;fill:none;fill-opacity:1;fill-rule:evenodd;stroke:#000000;stroke-width:1;stroke-linecap:square;stroke-linejoin:bevel;stroke-opacity:1" />
  <path
     d="m 2398.453,2587.61 v -31.76 l -27.5,-15.87 -27.5,15.87 v 31.76 l 27.5,15.88 27.5,-15.88"
     id="path514"
     inkscape:connector-curvature="0"
     style="font-style:normal;font-weight:400;font-size:medium;font-family:'Sans Serif';vector-effect:non-scaling-stroke;fill:none;fill-opacity:1;fill-rule:evenodd;stroke:#000000;stroke-width:1;stroke-linecap:square;stroke-linejoin:bevel;stroke-opacity:1" />
  <path
     d="m 3204.11,1192.163 v -31.754 l -27.5,-15.877 -27.5,15.877 v 31.754 l 27.5,15.877 27.5,-15.877"
     id="path530"
     inkscape:connector-curvature="0"
     style="font-style:normal;font-weight:400;font-size:medium;font-family:'Sans Serif';vector-effect:non-scaling-stroke;fill:none;fill-opacity:1;fill-rule:evenodd;stroke:#000000;stroke-width:1;stroke-linecap:square;stroke-linejoin:bevel;stroke-opacity:1" />
  <path
     d="m 2933.161,722.86 v -31.755 l -27.5,-15.877 -27.5,15.877 v 31.755 l 27.5,15.877 27.5,-15.877"
     id="path546"
     inkscape:connector-curvature="0"
     style="font-style:normal;font-weight:400;font-size:medium;font-family:'Sans Serif';vector-effect:non-scaling-stroke;fill:none;fill-opacity:1;fill-rule:evenodd;stroke:#000000;stroke-width:1;stroke-linecap:square;stroke-linejoin:bevel;stroke-opacity:1" />
  <path
     d="m 1129.231,2055 c 0,9.113 -7.387,16.5 -16.5,16.5 -9.113,0 -16.501,-7.387 -16.501,-16.5 0,-9.113 7.388,-16.5 16.501,-16.5 9.113,0 16.5,7.387 16.5,16.5"
     id="path562"
     inkscape:connector-curvature="0"
     style="font-style:normal;font-weight:400;font-size:medium;font-family:'Sans Serif';vector-effect:non-scaling-stroke;fill:none;fill-opacity:1;fill-rule:evenodd;stroke:#000000;stroke-width:1;stroke-linecap:square;stroke-linejoin:bevel;stroke-opacity:1" />
  <path
     d="m 3103.77,2055 c 0,9.113 -7.388,16.5 -16.501,16.5 -9.113,0 -16.5,-7.387 -16.5,-16.5 0,-9.113 7.387,-16.5 16.5,-16.5 9.113,0 16.501,7.387 16.501,16.5"
     id="path578"
     inkscape:connector-curvature="0"
     style="font-style:normal;font-weight:400;font-size:medium;font-family:'Sans Serif';vector-effect:non-scaling-stroke;fill:none;fill-opacity:1;fill-rule:evenodd;stroke:#000000;stroke-width:1;stroke-linecap:square;stroke-linejoin:bevel;stroke-opacity:1" />
  <path
     d="m 1556.5,2454.948 c 0,9.113 -7.387,16.5 -16.5,16.5 -9.113,0 -16.5,-7.387 -16.5,-16.5 0,-9.112 7.387,-16.5 16.5,-16.5 9.113,0 16.5,7.388 16.5,16.5"
     id="path594"
     inkscape:connector-curvature="0"
     style="font-style:normal;font-weight:400;font-size:medium;font-family:'Sans Serif';vector-effect:non-scaling-stroke;fill:none;fill-opacity:1;fill-rule:evenodd;stroke:#000000;stroke-width:1;stroke-linecap:square;stroke-linejoin:bevel;stroke-opacity:1" />
  <path
     d="m 2676.5,2454.948 c 0,9.113 -7.387,16.5 -16.5,16.5 -9.113,0 -16.5,-7.387 -16.5,-16.5 0,-9.112 7.387,-16.5 16.5,-16.5 9.113,0 16.5,7.388 16.5,16.5"
     id="path610"
     inkscape:connector-curvature="0"
     style="font-style:normal;font-weight:400;font-size:medium;font-family:'Sans Serif';vector-effect:non-scaling-stroke;fill:none;fill-opacity:1;fill-rule:evenodd;stroke:#000000;stroke-width:1;stroke-linecap:square;stroke-linejoin:bevel;stroke-opacity:1" />
  <path
     d="m 2416.5,965.385 c 0,9.112 -7.387,16.5 -16.5,16.5 -9.113,0 -16.5,-7.388 -16.5,-16.5 0,-9.113 7.387,-16.5 16.5,-16.5 9.113,0 16.5,7.387 16.5,16.5"
     id="path626"
     inkscape:connector-curvature="0"
     style="font-style:normal;font-weight:400;font-size:medium;font-family:'Sans Serif';vector-effect:non-scaling-stroke;fill:none;fill-opacity:1;fill-rule:evenodd;stroke:#000000;stroke-width:1;stroke-linecap:square;stroke-linejoin:bevel;stroke-opacity:1" />
  <path
     d="m 2278.726,2476.808 c 0,9.112 -7.387,16.502 -16.5,16.502 -9.112,0 -16.5,-7.39 -16.5,-16.502 0,-9.113 7.388,-16.5 16.5,-16.5 9.113,0 16.5,7.387 16.5,16.5"
     id="path642"
     inkscape:connector-curvature="0"
     style="font-style:normal;font-weight:400;font-size:medium;font-family:'Sans Serif';vector-effect:non-scaling-stroke;fill:none;fill-opacity:1;fill-rule:evenodd;stroke:#000000;stroke-width:1;stroke-linecap:square;stroke-linejoin:bevel;stroke-opacity:1" />
  <path
     d="m 1124.692,1647.226 c 0,9.113 -7.387,16.5 -16.5,16.5 -9.112,0 -16.502,-7.387 -16.502,-16.5 0,-9.112 7.39,-16.5 16.502,-16.5 9.113,0 16.5,7.388 16.5,16.5"
     id="path658"
     inkscape:connector-curvature="0"
     style="font-style:normal;font-weight:400;font-size:medium;font-family:'Sans Serif';vector-effect:non-scaling-stroke;fill:none;fill-opacity:1;fill-rule:evenodd;stroke:#000000;stroke-width:1;stroke-linecap:square;stroke-linejoin:bevel;stroke-opacity:1" />
  <path
     d="m 3108.31,1322.774 c 0,9.112 -7.39,16.5 -16.502,16.5 -9.113,0 -16.5,-7.388 -16.5,-16.5 0,-9.113 7.387,-16.5 16.5,-16.5 9.112,0 16.502,7.387 16.502,16.5"
     id="path674"
     inkscape:connector-curvature="0"
     style="font-style:normal;font-weight:400;font-size:medium;font-family:'Sans Serif';vector-effect:non-scaling-stroke;fill:none;fill-opacity:1;fill-rule:evenodd;stroke:#000000;stroke-width:1;stroke-linecap:square;stroke-linejoin:bevel;stroke-opacity:1" />
  <path
     d="m 1954.274,493.192 c 0,9.113 -7.388,16.5 -16.5,16.5 -9.113,0 -16.5,-7.387 -16.5,-16.5 0,-9.112 7.387,-16.502 16.5,-16.502 9.112,0 16.5,7.39 16.5,16.502"
     id="path690"
     inkscape:connector-curvature="0"
     style="font-style:normal;font-weight:400;font-size:medium;font-family:'Sans Serif';vector-effect:non-scaling-stroke;fill:none;fill-opacity:1;fill-rule:evenodd;stroke:#000000;stroke-width:1;stroke-linecap:square;stroke-linejoin:bevel;stroke-opacity:1" />
  <path
     d="m 1672.866,1113.397 c 0,9.113 -7.388,16.5 -16.5,16.5 -9.113,0 -16.5,-7.387 -16.5,-16.5 0,-9.112 7.387,-16.5 16.5,-16.5 9.112,0 16.5,7.388 16.5,16.5"
     id="path706"
     inkscape:connector-curvature="0"
     style="font-style:normal;font-weight:400;font-size:medium;font-family:'Sans Serif';vector-effect:non-scaling-stroke;fill:none;fill-opacity:1;fill-rule:evenodd;stroke:#000000;stroke-width:1;stroke-linecap:square;stroke-linejoin:bevel;stroke-opacity:1" />
  <path
     d="m 1572.866,1286.603 c 0,9.112 -7.388,16.5 -16.5,16.5 -9.113,0 -16.5,-7.388 -16.5,-16.5 0,-9.113 7.387,-16.5 16.5,-16.5 9.112,0 16.5,7.387 16.5,16.5"
     id="path722"
     inkscape:connector-curvature="0"
     style="font-style:normal;font-weight:400;font-size:medium;font-family:'Sans Serif';vector-effect:non-scaling-stroke;fill:none;fill-opacity:1;fill-rule:evenodd;stroke:#000000;stroke-width:1;stroke-linecap:square;stroke-linejoin:bevel;stroke-opacity:1" />
  <path
     d="m 2471.912,544.956 c 0,9.113 -7.388,16.5 -16.5,16.5 -9.113,0 -16.5,-7.387 -16.5,-16.5 0,-9.113 7.387,-16.5 16.5,-16.5 9.112,0 16.5,7.387 16.5,16.5"
     id="path738"
     inkscape:connector-curvature="0"
     style="font-style:normal;font-weight:400;font-size:medium;font-family:'Sans Serif';vector-effect:non-scaling-stroke;fill:none;fill-opacity:1;fill-rule:evenodd;stroke:#000000;stroke-width:1;stroke-linecap:square;stroke-linejoin:bevel;stroke-opacity:1" />
  <path
     d="m 1761.088,2425.044 c 0,9.113 -7.387,16.5 -16.5,16.5 -9.112,0 -16.5,-7.387 -16.5,-16.5 0,-9.113 7.388,-16.5 16.5,-16.5 9.113,0 16.5,7.387 16.5,16.5"
     id="path754"
     inkscape:connector-curvature="0"
     style="font-style:normal;font-weight:400;font-size:medium;font-family:'Sans Serif';vector-effect:non-scaling-stroke;fill:none;fill-opacity:1;fill-rule:evenodd;stroke:#000000;stroke-width:1;stroke-linecap:square;stroke-linejoin:bevel;stroke-opacity:1" />
  <path
     d="m 1572.866,1683.397 c 0,9.113 -7.388,16.5 -16.5,16.5 -9.113,0 -16.5,-7.387 -16.5,-16.5 0,-9.112 7.387,-16.5 16.5,-16.5 9.112,0 16.5,7.388 16.5,16.5"
     id="path770"
     inkscape:connector-curvature="0"
     style="font-style:normal;font-weight:400;font-size:medium;font-family:'Sans Serif';vector-effect:non-scaling-stroke;fill:none;fill-opacity:1;fill-rule:evenodd;stroke:#000000;stroke-width:1;stroke-linecap:square;stroke-linejoin:bevel;stroke-opacity:1" />
  <path
     d="m 3103.77,915 c 0,9.113 -7.388,16.5 -16.501,16.5 -9.113,0 -16.5,-7.387 -16.5,-16.5 0,-9.113 7.387,-16.5 16.5,-16.5 9.113,0 16.501,7.387 16.501,16.5"
     id="path786"
     inkscape:connector-curvature="0"
     style="font-style:normal;font-weight:400;font-size:medium;font-family:'Sans Serif';vector-effect:non-scaling-stroke;fill:none;fill-opacity:1;fill-rule:evenodd;stroke:#000000;stroke-width:1;stroke-linecap:square;stroke-linejoin:bevel;stroke-opacity:1" />
  <path
     d="m 2894.317,2121.396 c 0,9.113 -7.387,16.5 -16.5,16.5 -9.112,0 -16.5,-7.387 -16.5,-16.5 0,-9.113 7.388,-16.5 16.5,-16.5 9.113,0 16.5,7.387 16.5,16.5"
     id="path802"
     inkscape:connector-curvature="0"
     style="font-style:normal;font-weight:400;font-size:medium;font-family:'Sans Serif';vector-effect:non-scaling-stroke;fill:none;fill-opacity:1;fill-rule:evenodd;stroke:#000000;stroke-width:1;stroke-linecap:square;stroke-linejoin:bevel;stroke-opacity:1" />
  <path
     d="m 1338.683,848.604 c 0,9.113 -7.388,16.5 -16.5,16.5 -9.113,0 -16.5,-7.387 -16.5,-16.5 0,-9.113 7.387,-16.5 16.5,-16.5 9.112,0 16.5,7.387 16.5,16.5"
     id="path818"
     inkscape:connector-curvature="0"
     style="font-style:normal;font-weight:400;font-size:medium;font-family:'Sans Serif';vector-effect:non-scaling-stroke;fill:none;fill-opacity:1;fill-rule:evenodd;stroke:#000000;stroke-width:1;stroke-linecap:square;stroke-linejoin:bevel;stroke-opacity:1" />
  <path
     d="m 2660.134,1683.397 c 0,9.113 -7.387,16.5 -16.5,16.5 -9.112,0 -16.5,-7.387 -16.5,-16.5 0,-9.112 7.388,-16.5 16.5,-16.5 9.113,0 16.5,7.388 16.5,16.5"
     id="path834"
     inkscape:connector-curvature="0"
     style="font-style:normal;font-weight:400;font-size:medium;font-family:'Sans Serif';vector-effect:non-scaling-stroke;fill:none;fill-opacity:1;fill-rule:evenodd;stroke:#000000;stroke-width:1;stroke-linecap:square;stroke-linejoin:bevel;stroke-opacity:1" />
  <path
     d="m 3236.5,1485 c 0,9.1127 -7.39,16.5 -16.5,16.5 -9.11,0 -16.5,-7.3873 -16.5,-16.5 0,-9.1127 7.39,-16.5 16.5,-16.5 9.11,0 16.5,7.3873 16.5,16.5"
     id="path850"
     inkscape:connector-curvature="0"
     style="font-style:normal;font-weight:400;font-size:medium;font-family:'Sans Serif';vector-effect:non-scaling-stroke;fill:none;fill-opacity:1;fill-rule:evenodd;stroke:#000000;stroke-width:1;stroke-linecap:square;stroke-linejoin:bevel;stroke-opacity:1" />
  <path
     d="m 1954.274,2476.808 c 0,9.112 -7.388,16.502 -16.5,16.502 -9.113,0 -16.5,-7.39 -16.5,-16.502 0,-9.113 7.387,-16.5 16.5,-16.5 9.112,0 16.5,7.387 16.5,16.5"
     id="path866"
     inkscape:connector-curvature="0"
     style="font-style:normal;font-weight:400;font-size:medium;font-family:'Sans Serif';vector-effect:non-scaling-stroke;fill:none;fill-opacity:1;fill-rule:evenodd;stroke:#000000;stroke-width:1;stroke-linecap:square;stroke-linejoin:bevel;stroke-opacity:1" />
  <path
     d="m 1816.5,2004.615 c 0,9.113 -7.387,16.5 -16.5,16.5 -9.113,0 -16.5,-7.387 -16.5,-16.5 0,-9.112 7.387,-16.5 16.5,-16.5 9.113,0 16.5,7.388 16.5,16.5"
     id="path882"
     inkscape:connector-curvature="0"
     style="font-style:normal;font-weight:400;font-size:medium;font-family:'Sans Serif';vector-effect:non-scaling-stroke;fill:none;fill-opacity:1;fill-rule:evenodd;stroke:#000000;stroke-width:1;stroke-linecap:square;stroke-linejoin:bevel;stroke-opacity:1" />
  <path
     d="m 2278.726,493.192 c 0,9.113 -7.387,16.5 -16.5,16.5 -9.112,0 -16.5,-7.387 -16.5,-16.5 0,-9.112 7.388,-16.502 16.5,-16.502 9.113,0 16.5,7.39 16.5,16.502"
     id="path898"
     inkscape:connector-curvature="0"
     style="font-style:normal;font-weight:400;font-size:medium;font-family:'Sans Serif';vector-effect:non-scaling-stroke;fill:none;fill-opacity:1;fill-rule:evenodd;stroke:#000000;stroke-width:1;stroke-linecap:square;stroke-linejoin:bevel;stroke-opacity:1" />
  <path
     d="m 2716.5,1485 c 0,9.1127 -7.387,16.5 -16.5,16.5 -9.113,0 -16.5,-7.3873 -16.5,-16.5 0,-9.1127 7.387,-16.5 16.5,-16.5 9.113,0 16.5,7.3873 16.5,16.5"
     id="path914"
     inkscape:connector-curvature="0"
     style="font-style:normal;font-weight:400;font-size:medium;font-family:'Sans Serif';vector-effect:non-scaling-stroke;fill:none;fill-opacity:1;fill-rule:evenodd;stroke:#000000;stroke-width:1;stroke-linecap:square;stroke-linejoin:bevel;stroke-opacity:1" />
  <path
     d="m 2660.134,1286.603 c 0,9.112 -7.387,16.5 -16.5,16.5 -9.112,0 -16.5,-7.388 -16.5,-16.5 0,-9.113 7.388,-16.5 16.5,-16.5 9.113,0 16.5,7.387 16.5,16.5"
     id="path930"
     inkscape:connector-curvature="0"
     style="font-style:normal;font-weight:400;font-size:medium;font-family:'Sans Serif';vector-effect:non-scaling-stroke;fill:none;fill-opacity:1;fill-rule:evenodd;stroke:#000000;stroke-width:1;stroke-linecap:square;stroke-linejoin:bevel;stroke-opacity:1" />
  <path
     d="m 2752.896,2262.817 c 0,9.113 -7.387,16.5 -16.5,16.5 -9.113,0 -16.5,-7.387 -16.5,-16.5 0,-9.112 7.387,-16.5 16.5,-16.5 9.113,0 16.5,7.388 16.5,16.5"
     id="path946"
     inkscape:connector-curvature="0"
     style="font-style:normal;font-weight:400;font-size:medium;font-family:'Sans Serif';vector-effect:non-scaling-stroke;fill:none;fill-opacity:1;fill-rule:evenodd;stroke:#000000;stroke-width:1;stroke-linecap:square;stroke-linejoin:bevel;stroke-opacity:1" />
  <path
     d="m 2752.896,707.183 c 0,9.112 -7.387,16.5 -16.5,16.5 -9.113,0 -16.5,-7.388 -16.5,-16.5 0,-9.113 7.387,-16.5 16.5,-16.5 9.113,0 16.5,7.387 16.5,16.5"
     id="path962"
     inkscape:connector-curvature="0"
     style="font-style:normal;font-weight:400;font-size:medium;font-family:'Sans Serif';vector-effect:non-scaling-stroke;fill:none;fill-opacity:1;fill-rule:evenodd;stroke:#000000;stroke-width:1;stroke-linecap:square;stroke-linejoin:bevel;stroke-opacity:1" />
  <path
     d="m 1480.104,707.183 c 0,9.112 -7.387,16.5 -16.5,16.5 -9.113,0 -16.5,-7.388 -16.5,-16.5 0,-9.113 7.387,-16.5 16.5,-16.5 9.113,0 16.5,7.387 16.5,16.5"
     id="path978"
     inkscape:connector-curvature="0"
     style="font-style:normal;font-weight:400;font-size:medium;font-family:'Sans Serif';vector-effect:non-scaling-stroke;fill:none;fill-opacity:1;fill-rule:evenodd;stroke:#000000;stroke-width:1;stroke-linecap:square;stroke-linejoin:bevel;stroke-opacity:1" />
  <path
     d="m 2216.5,1465 c 0,9.1127 -7.387,16.5 -16.5,16.5 -9.1127,0 -16.5,-7.3873 -16.5,-16.5 0,-9.1127 7.3873,-16.5 16.5,-16.5 9.113,0 16.5,7.3873 16.5,16.5"
     id="path994"
     inkscape:connector-curvature="0"
     style="font-style:normal;font-weight:400;font-size:medium;font-family:'Sans Serif';vector-effect:non-scaling-stroke;fill:none;fill-opacity:1;fill-rule:evenodd;stroke:#000000;stroke-width:1;stroke-linecap:square;stroke-linejoin:bevel;stroke-opacity:1" />
  <path
     d="m 2016.5,1465 c 0,9.1127 -7.3873,16.5 -16.5,16.5 -9.113,0 -16.5,-7.3873 -16.5,-16.5 0,-9.1127 7.387,-16.5 16.5,-16.5 9.1127,0 16.5,7.3873 16.5,16.5"
     id="path1010"
     inkscape:connector-curvature="0"
     style="font-style:normal;font-weight:400;font-size:medium;font-family:'Sans Serif';vector-effect:non-scaling-stroke;fill:none;fill-opacity:1;fill-rule:evenodd;stroke:#000000;stroke-width:1;stroke-linecap:square;stroke-linejoin:bevel;stroke-opacity:1" />
  <path
     d="m 2216.5,2055 c 0,9.113 -7.387,16.5 -16.5,16.5 -9.1127,0 -16.5,-7.387 -16.5,-16.5 0,-9.113 7.3873,-16.5 16.5,-16.5 9.113,0 16.5,7.387 16.5,16.5"
     id="path1026"
     inkscape:connector-curvature="0"
     style="font-style:normal;font-weight:400;font-size:medium;font-family:'Sans Serif';vector-effect:non-scaling-stroke;fill:none;fill-opacity:1;fill-rule:evenodd;stroke:#000000;stroke-width:1;stroke-linecap:square;stroke-linejoin:bevel;stroke-opacity:1" />
  <path
     d="m 2016.5,915 c 0,9.113 -7.3873,16.5 -16.5,16.5 -9.113,0 -16.5,-7.387 -16.5,-16.5 0,-9.113 7.387,-16.5 16.5,-16.5 9.1127,0 16.5,7.387 16.5,16.5"
     id="path1042"
     inkscape:connector-curvature="0"
     style="font-style:normal;font-weight:400;font-size:medium;font-family:'Sans Serif';vector-effect:non-scaling-stroke;fill:none;fill-opacity:1;fill-rule:evenodd;stroke:#000000;stroke-width:1;stroke-linecap:square;stroke-linejoin:bevel;stroke-opacity:1" />
  <path
     d="m 1516.5,1485 c 0,9.1127 -7.387,16.5 -16.5,16.5 -9.113,0 -16.5,-7.3873 -16.5,-16.5 0,-9.1127 7.387,-16.5 16.5,-16.5 9.113,0 16.5,7.3873 16.5,16.5"
     id="path1058"
     inkscape:connector-curvature="0"
     style="font-style:normal;font-weight:400;font-size:medium;font-family:'Sans Serif';vector-effect:non-scaling-stroke;fill:none;fill-opacity:1;fill-rule:evenodd;stroke:#000000;stroke-width:1;stroke-linecap:square;stroke-linejoin:bevel;stroke-opacity:1" />
  <path
     d="m 2016.5,2055 c 0,9.113 -7.3873,16.5 -16.5,16.5 -9.113,0 -16.5,-7.387 -16.5,-16.5 0,-9.113 7.387,-16.5 16.5,-16.5 9.1127,0 16.5,7.387 16.5,16.5"
     id="path1074"
     inkscape:connector-curvature="0"
     style="font-style:normal;font-weight:400;font-size:medium;font-family:'Sans Serif';vector-effect:non-scaling-stroke;fill:none;fill-opacity:1;fill-rule:evenodd;stroke:#000000;stroke-width:1;stroke-linecap:square;stroke-linejoin:bevel;stroke-opacity:1" />
  <path
     d="m 2216.5,915 c 0,9.113 -7.387,16.5 -16.5,16.5 -9.1127,0 -16.5,-7.387 -16.5,-16.5 0,-9.113 7.3873,-16.5 16.5,-16.5 9.113,0 16.5,7.387 16.5,16.5"
     id="path1090"
     inkscape:connector-curvature="0"
     style="font-style:normal;font-weight:400;font-size:medium;font-family:'Sans Serif';vector-effect:non-scaling-stroke;fill:none;fill-opacity:1;fill-rule:evenodd;stroke:#000000;stroke-width:1;stroke-linecap:square;stroke-linejoin:bevel;stroke-opacity:1" />
  <path
     d="m 996.5,1485 c 0,9.1127 -7.39,16.5 -16.5,16.5 -9.11,0 -16.5,-7.3873 -16.5,-16.5 0,-9.1127 7.39,-16.5 16.5,-16.5 9.11,0 16.5,7.3873 16.5,16.5"
     id="path1106"
     inkscape:connector-curvature="0"
     style="font-style:normal;font-weight:400;font-size:medium;font-family:'Sans Serif';vector-effect:non-scaling-stroke;fill:none;fill-opacity:1;fill-rule:evenodd;stroke:#000000;stroke-width:1;stroke-linecap:square;stroke-linejoin:bevel;stroke-opacity:1" />
  <path
     d="m 2116.5,2625 c 0,9.11 -7.3873,16.5 -16.5,16.5 -9.1127,0 -16.5,-7.39 -16.5,-16.5 0,-9.11 7.3873,-16.5 16.5,-16.5 9.1127,0 16.5,7.39 16.5,16.5"
     id="path1122"
     inkscape:connector-curvature="0"
     style="font-style:normal;font-weight:400;font-size:medium;font-family:'Sans Serif';vector-effect:non-scaling-stroke;fill:none;fill-opacity:1;fill-rule:evenodd;stroke:#000000;stroke-width:1;stroke-linecap:square;stroke-linejoin:bevel;stroke-opacity:1" />
  <path
     d="m 2116.5,345 c 0,9.11 -7.3873,16.5 -16.5,16.5 -9.1127,0 -16.5,-7.39 -16.5,-16.5 0,-9.11 7.3873,-16.5 16.5,-16.5 9.1127,0 16.5,7.39 16.5,16.5"
     id="path1138"
     inkscape:connector-curvature="0"
     style="font-style:normal;font-weight:400;font-size:medium;font-family:'Sans Serif';vector-effect:non-scaling-stroke;fill:none;fill-opacity:1;fill-rule:evenodd;stroke:#000000;stroke-width:1;stroke-linecap:square;stroke-linejoin:bevel;stroke-opacity:1" />
  <path
     d="m 1672.866,1856.603 c 0,9.112 -7.388,16.5 -16.5,16.5 -9.113,0 -16.5,-7.388 -16.5,-16.5 0,-9.113 7.387,-16.5 16.5,-16.5 9.112,0 16.5,7.387 16.5,16.5"
     id="path1154"
     inkscape:connector-curvature="0"
     style="font-style:normal;font-weight:400;font-size:medium;font-family:'Sans Serif';vector-effect:non-scaling-stroke;fill:none;fill-opacity:1;fill-rule:evenodd;stroke:#000000;stroke-width:1;stroke-linecap:square;stroke-linejoin:bevel;stroke-opacity:1" />
  <path
     d="m 2560.134,1856.603 c 0,9.112 -7.387,16.5 -16.5,16.5 -9.112,0 -16.5,-7.388 -16.5,-16.5 0,-9.113 7.388,-16.5 16.5,-16.5 9.113,0 16.5,7.387 16.5,16.5"
     id="path1170"
     inkscape:connector-curvature="0"
     style="font-style:normal;font-weight:400;font-size:medium;font-family:'Sans Serif';vector-effect:non-scaling-stroke;fill:none;fill-opacity:1;fill-rule:evenodd;stroke:#000000;stroke-width:1;stroke-linecap:square;stroke-linejoin:bevel;stroke-opacity:1" />
  <path
     d="m 2416.5,2004.615 c 0,9.113 -7.387,16.5 -16.5,16.5 -9.113,0 -16.5,-7.387 -16.5,-16.5 0,-9.112 7.387,-16.5 16.5,-16.5 9.113,0 16.5,7.388 16.5,16.5"
     id="path1186"
     inkscape:connector-curvature="0"
     style="font-style:normal;font-weight:400;font-size:medium;font-family:'Sans Serif';vector-effect:non-scaling-stroke;fill:none;fill-opacity:1;fill-rule:evenodd;stroke:#000000;stroke-width:1;stroke-linecap:square;stroke-linejoin:bevel;stroke-opacity:1" />
  <path
     d="m 1480.104,2262.817 c 0,9.113 -7.387,16.5 -16.5,16.5 -9.113,0 -16.5,-7.387 -16.5,-16.5 0,-9.112 7.387,-16.5 16.5,-16.5 9.113,0 16.5,7.388 16.5,16.5"
     id="path1202"
     inkscape:connector-curvature="0"
     style="font-style:normal;font-weight:400;font-size:medium;font-family:'Sans Serif';vector-effect:non-scaling-stroke;fill:none;fill-opacity:1;fill-rule:evenodd;stroke:#000000;stroke-width:1;stroke-linecap:square;stroke-linejoin:bevel;stroke-opacity:1" />
  <path
     d="m 2560.134,1113.397 c 0,9.113 -7.387,16.5 -16.5,16.5 -9.112,0 -16.5,-7.387 -16.5,-16.5 0,-9.112 7.388,-16.5 16.5,-16.5 9.113,0 16.5,7.388 16.5,16.5"
     id="path1218"
     inkscape:connector-curvature="0"
     style="font-style:normal;font-weight:400;font-size:medium;font-family:'Sans Serif';vector-effect:non-scaling-stroke;fill:none;fill-opacity:1;fill-rule:evenodd;stroke:#000000;stroke-width:1;stroke-linecap:square;stroke-linejoin:bevel;stroke-opacity:1" />
  <path
     d="m 2894.317,848.604 c 0,9.113 -7.387,16.5 -16.5,16.5 -9.112,0 -16.5,-7.387 -16.5,-16.5 0,-9.113 7.388,-16.5 16.5,-16.5 9.113,0 16.5,7.387 16.5,16.5"
     id="path1234"
     inkscape:connector-curvature="0"
     style="font-style:normal;font-weight:400;font-size:medium;font-family:'Sans Serif';vector-effect:non-scaling-stroke;fill:none;fill-opacity:1;fill-rule:evenodd;stroke:#000000;stroke-width:1;stroke-linecap:square;stroke-linejoin:bevel;stroke-opacity:1" />
  <path
     d="m 1816.5,965.385 c 0,9.112 -7.387,16.5 -16.5,16.5 -9.113,0 -16.5,-7.388 -16.5,-16.5 0,-9.113 7.387,-16.5 16.5,-16.5 9.113,0 16.5,7.387 16.5,16.5"
     id="path1250"
     inkscape:connector-curvature="0"
     style="font-style:normal;font-weight:400;font-size:medium;font-family:'Sans Serif';vector-effect:non-scaling-stroke;fill:none;fill-opacity:1;fill-rule:evenodd;stroke:#000000;stroke-width:1;stroke-linecap:square;stroke-linejoin:bevel;stroke-opacity:1" />
  <path
     d="m 1176.456,1129.588 c 0,9.113 -7.387,16.5 -16.5,16.5 -9.113,0 -16.5,-7.387 -16.5,-16.5 0,-9.112 7.387,-16.5 16.5,-16.5 9.113,0 16.5,7.388 16.5,16.5"
     id="path1266"
     inkscape:connector-curvature="0"
     style="font-style:normal;font-weight:400;font-size:medium;font-family:'Sans Serif';vector-effect:non-scaling-stroke;fill:none;fill-opacity:1;fill-rule:evenodd;stroke:#000000;stroke-width:1;stroke-linecap:square;stroke-linejoin:bevel;stroke-opacity:1" />
  <path
     d="m 1129.231,915 c 0,9.113 -7.387,16.5 -16.5,16.5 -9.113,0 -16.501,-7.387 -16.501,-16.5 0,-9.113 7.388,-16.5 16.501,-16.5 9.113,0 16.5,7.387 16.5,16.5"
     id="path1282"
     inkscape:connector-curvature="0"
     style="font-style:normal;font-weight:400;font-size:medium;font-family:'Sans Serif';vector-effect:non-scaling-stroke;fill:none;fill-opacity:1;fill-rule:evenodd;stroke:#000000;stroke-width:1;stroke-linecap:square;stroke-linejoin:bevel;stroke-opacity:1" />
  <path
     d="m 1124.692,1322.774 c 0,9.112 -7.387,16.5 -16.5,16.5 -9.112,0 -16.502,-7.388 -16.502,-16.5 0,-9.113 7.39,-16.5 16.502,-16.5 9.113,0 16.5,7.387 16.5,16.5"
     id="path1298"
     inkscape:connector-curvature="0"
     style="font-style:normal;font-weight:400;font-size:medium;font-family:'Sans Serif';vector-effect:non-scaling-stroke;fill:none;fill-opacity:1;fill-rule:evenodd;stroke:#000000;stroke-width:1;stroke-linecap:square;stroke-linejoin:bevel;stroke-opacity:1" />
  <path
     d="m 3108.31,1647.226 c 0,9.113 -7.39,16.5 -16.502,16.5 -9.113,0 -16.5,-7.387 -16.5,-16.5 0,-9.112 7.387,-16.5 16.5,-16.5 9.112,0 16.502,7.388 16.502,16.5"
     id="path1314"
     inkscape:connector-curvature="0"
     style="font-style:normal;font-weight:400;font-size:medium;font-family:'Sans Serif';vector-effect:non-scaling-stroke;fill:none;fill-opacity:1;fill-rule:evenodd;stroke:#000000;stroke-width:1;stroke-linecap:square;stroke-linejoin:bevel;stroke-opacity:1" />
  <path
     d="m 1338.683,2121.396 c 0,9.113 -7.388,16.5 -16.5,16.5 -9.113,0 -16.5,-7.387 -16.5,-16.5 0,-9.113 7.387,-16.5 16.5,-16.5 9.112,0 16.5,7.387 16.5,16.5"
     id="path1330"
     inkscape:connector-curvature="0"
     style="font-style:normal;font-weight:400;font-size:medium;font-family:'Sans Serif';vector-effect:non-scaling-stroke;fill:none;fill-opacity:1;fill-rule:evenodd;stroke:#000000;stroke-width:1;stroke-linecap:square;stroke-linejoin:bevel;stroke-opacity:1" />
  <path
     d="m 3056.544,1840.412 c 0,9.112 -7.387,16.5 -16.5,16.5 -9.113,0 -16.5,-7.388 -16.5,-16.5 0,-9.113 7.387,-16.5 16.5,-16.5 9.113,0 16.5,7.387 16.5,16.5"
     id="path1346"
     inkscape:connector-curvature="0"
     style="font-style:normal;font-weight:400;font-size:medium;font-family:'Sans Serif';vector-effect:non-scaling-stroke;fill:none;fill-opacity:1;fill-rule:evenodd;stroke:#000000;stroke-width:1;stroke-linecap:square;stroke-linejoin:bevel;stroke-opacity:1" />
  <path
     d="m 2471.912,2425.044 c 0,9.113 -7.388,16.5 -16.5,16.5 -9.113,0 -16.5,-7.387 -16.5,-16.5 0,-9.113 7.387,-16.5 16.5,-16.5 9.112,0 16.5,7.387 16.5,16.5"
     id="path1362"
     inkscape:connector-curvature="0"
     style="font-style:normal;font-weight:400;font-size:medium;font-family:'Sans Serif';vector-effect:non-scaling-stroke;fill:none;fill-opacity:1;fill-rule:evenodd;stroke:#000000;stroke-width:1;stroke-linecap:square;stroke-linejoin:bevel;stroke-opacity:1" />
  <path
     d="m 1761.088,544.956 c 0,9.113 -7.387,16.5 -16.5,16.5 -9.112,0 -16.5,-7.387 -16.5,-16.5 0,-9.113 7.388,-16.5 16.5,-16.5 9.113,0 16.5,7.387 16.5,16.5"
     id="path1378"
     inkscape:connector-curvature="0"
     style="font-style:normal;font-weight:400;font-size:medium;font-family:'Sans Serif';vector-effect:non-scaling-stroke;fill:none;fill-opacity:1;fill-rule:evenodd;stroke:#000000;stroke-width:1;stroke-linecap:square;stroke-linejoin:bevel;stroke-opacity:1" />
  <path
     d="m 1176.456,1840.412 c 0,9.112 -7.387,16.5 -16.5,16.5 -9.113,0 -16.5,-7.388 -16.5,-16.5 0,-9.113 7.387,-16.5 16.5,-16.5 9.113,0 16.5,7.387 16.5,16.5"
     id="path1394"
     inkscape:connector-curvature="0"
     style="font-style:normal;font-weight:400;font-size:medium;font-family:'Sans Serif';vector-effect:non-scaling-stroke;fill:none;fill-opacity:1;fill-rule:evenodd;stroke:#000000;stroke-width:1;stroke-linecap:square;stroke-linejoin:bevel;stroke-opacity:1" />
  <path
     d="m 3056.544,1129.588 c 0,9.113 -7.387,16.5 -16.5,16.5 -9.113,0 -16.5,-7.387 -16.5,-16.5 0,-9.112 7.387,-16.5 16.5,-16.5 9.113,0 16.5,7.388 16.5,16.5"
     id="path1410"
     inkscape:connector-curvature="0"
     style="font-style:normal;font-weight:400;font-size:medium;font-family:'Sans Serif';vector-effect:non-scaling-stroke;fill:none;fill-opacity:1;fill-rule:evenodd;stroke:#000000;stroke-width:1;stroke-linecap:square;stroke-linejoin:bevel;stroke-opacity:1" />
  <path
     d="m 1556.5,515.052 c 0,9.112 -7.387,16.5 -16.5,16.5 -9.113,0 -16.5,-7.388 -16.5,-16.5 0,-9.113 7.387,-16.5 16.5,-16.5 9.113,0 16.5,7.387 16.5,16.5"
     id="path1426"
     inkscape:connector-curvature="0"
     style="font-style:normal;font-weight:400;font-size:medium;font-family:'Sans Serif';vector-effect:non-scaling-stroke;fill:none;fill-opacity:1;fill-rule:evenodd;stroke:#000000;stroke-width:1;stroke-linecap:square;stroke-linejoin:bevel;stroke-opacity:1" />
  <path
     d="m 2676.5,515.052 c 0,9.112 -7.387,16.5 -16.5,16.5 -9.113,0 -16.5,-7.388 -16.5,-16.5 0,-9.113 7.387,-16.5 16.5,-16.5 9.113,0 16.5,7.387 16.5,16.5"
     id="path1442"
     inkscape:connector-curvature="0"
     style="font-style:normal;font-weight:400;font-size:medium;font-family:'Sans Serif';vector-effect:non-scaling-stroke;fill:none;fill-opacity:1;fill-rule:evenodd;stroke:#000000;stroke-width:1;stroke-linecap:square;stroke-linejoin:bevel;stroke-opacity:1" />
</svg>
