  0
SECTION
  2
HEADER
  9
$ACADVER
  1
AC1014
  9
$HANDSEED
  5
FFFF
  9
$MEASUREMENT
 70
     1
  0
ENDSEC
  0
SECTION
  2
TABLES
  0
TABLE
  2
VPORT
  5
8
330
0
100
AcDbSymbolTable
 70
     4
  0
VPORT
  5
2E
330
8
100
AcDbSymbolTableRecord
100
AcDbViewportTableRecord
  2
*ACTIVE
 70
     0
 10
0.0
 20
0.0
 11
1.0
 21
1.0
 12
210.0
 22
148.5
 13
0.0
 23
0.0
 14
10.0
 24
10.0
 15
10.0
 25
10.0
 16
0.0
 26
0.0
 36
1.0
 17
0.0
 27
0.0
 37
0.0
 40
341.0
 41
1.24
 42
50.0
 43
0.0
 44
0.0
 50
0.0
 51
0.0
 71
     0
 72
   100
 73
     1
 74
     3
 75
     0
 76
     0
 77
     0
 78
     0
  0
ENDTAB
  0
TABLE
  2
LTYPE
  5
5
330
0
100
AcDbSymbolTable
 70
     1
  0
LTYPE
  5
14
330
5
100
AcDbSymbolTableRecord
100
AcDbLinetypeTableRecord
  2
BYBLOCK
 70
     0
  3

 72
    65
 73
     0
 40
0.0
  0
LTYPE
  5
15
330
5
100
AcDbSymbolTableRecord
100
AcDbLinetypeTableRecord
  2
BYLAYER
 70
     0
  3

 72
    65
 73
     0
 40
0.0
  0
LTYPE
  5
16
330
5
100
AcDbSymbolTableRecord
100
AcDbLinetypeTableRecord
  2
CONTINUOUS
 70
     0
  3
Solid line
 72
    65
 73
     0
 40
0.0
  0
ENDTAB
  0
TABLE
  2
LAYER
  5
2
100
AcDbSymbolTable
 70
1
  0
LAYER
  5
50
100
AcDbSymbolTableRecord
100
AcDbLayerTableRecord
  2
0
 70
0
  6
CONTINUOUS
  0
ENDTAB
  0
TABLE
  2
STYLE
  5
3
330
0
100
AcDbSymbolTable
 70
     1
  0
STYLE
  5
11
330
3
100
AcDbSymbolTableRecord
100
AcDbTextStyleTableRecord
  2
STANDARD
 70
     0
 40
0.0
 41
1.0
 50
0.0
 71
     0
 42
2.5
  3
txt
  4

  0
ENDTAB
  0
TABLE
  2
VIEW
  5
6
330
0
100
AcDbSymbolTable
 70
     0
  0
ENDTAB
  0
TABLE
  2
UCS
  5
7
330
0
100
AcDbSymbolTable
 70
     0
  0
ENDTAB
  0
TABLE
  2
APPID
  5
9
330
0
100
AcDbSymbolTable
 70
     2
  0
APPID
  5
12
330
9
100
AcDbSymbolTableRecord
100
AcDbRegAppTableRecord
  2
ACAD
 70
     0
  0
ENDTAB
  0
TABLE
  2
DIMSTYLE
  5
A
330
0
100
AcDbSymbolTable
 70
     1
  0
DIMSTYLE
105
27
330
A
100
AcDbSymbolTableRecord
100
AcDbDimStyleTableRecord
  2
ISO-25
 70
     0
  3

  4

  5

  6

  7

 40
1.0
 41
2.5
 42
0.625
 43
3.75
 44
1.25
 45
0.0
 46
0.0
 47
0.0
 48
0.0
140
2.5
141
2.5
142
0.0
143
0.03937007874016
144
1.0
145
0.0
146
1.0
147
0.625
 71
     0
 72
     0
 73
     0
 74
     0
 75
     0
 76
     0
 77
     1
 78
     8
170
     0
171
     3
172
     1
173
     0
174
     0
175
     0
176
     0
177
     0
178
     0
270
     2
271
     2
272
     2
273
     2
274
     3
340
11
275
     0
280
     0
281
     0
282
     0
283
     0
284
     8
285
     0
286
     0
287
     3
288
     0
  0
ENDTAB
  0
TABLE
  2
BLOCK_RECORD
  5
1
330
0
100
AcDbSymbolTable
 70
     1
  0
BLOCK_RECORD
  5
1F
330
1
100
AcDbSymbolTableRecord
100
AcDbBlockTableRecord
  2
*MODEL_SPACE
  0
BLOCK_RECORD
  5
1B
330
1
100
AcDbSymbolTableRecord
100
AcDbBlockTableRecord
  2
*PAPER_SPACE
  0
ENDTAB
  0
ENDSEC
  0
SECTION
  2
BLOCKS
  0
BLOCK
  5
20
330
1F
100
AcDbEntity
  8
0
100
AcDbBlockBegin
  2
*MODEL_SPACE
 70
     0
 10
0.0
 20
0.0
 30
0.0
  3
*MODEL_SPACE
  1

  0
ENDBLK
  5
21
330
1F
100
AcDbEntity
  8
0
100
AcDbBlockEnd
  0
BLOCK
  5
1C
330
1B
100
AcDbEntity
 67
     1
  8
0
100
AcDbBlockBegin
  2
*PAPER_SPACE
  1

  0
ENDBLK
  5
1D
330
1B
100
AcDbEntity
 67
     1
  8
0
100
AcDbBlockEnd
  0
ENDSEC
  0
SECTION
  2
ENTITIES
  0
SPLINE
  5
100
100
AcDbEntity
  8
0
 62
7
100
AcDbSpline
 70
8
 71
3
 72
8
 73
4
 74
0
 40
0
 40
0
 40
0
 40
0
 40
1
 40
1
 40
1
 40
1
 10
564.885417
 20
-133.958333
 30
0.0
 10
601.416702
 20
-133.958333
 30
0.0
 10
631.031250
 20
-104.343785
 30
0.0
 10
631.031250
 20
-67.812500
 30
0.0
  0
SPLINE
  5
101
100
AcDbEntity
  8
0
 62
7
100
AcDbSpline
 70
8
 71
3
 72
8
 73
4
 74
0
 40
0
 40
0
 40
0
 40
0
 40
1
 40
1
 40
1
 40
1
 10
631.031250
 20
-67.812500
 30
0.0
 10
631.031250
 20
-31.281215
 30
0.0
 10
601.416702
 20
-1.666667
 30
0.0
 10
564.885417
 20
-1.666667
 30
0.0
  0
LINE
  5
102
100
AcDbEntity
  8
0
 62
7
100
AcDbLine
 10
564.885417
 20
-1.666667
 30
0.0
 11
220.927083
 21
-1.666667
 31
0.0
  0
SPLINE
  5
103
100
AcDbEntity
  8
0
 62
7
100
AcDbSpline
 70
8
 71
3
 72
8
 73
4
 74
0
 40
0
 40
0
 40
0
 40
0
 40
1
 40
1
 40
1
 40
1
 10
220.927083
 20
-1.666667
 30
0.0
 10
184.395798
 20
-1.666667
 30
0.0
 10
154.781250
 20
-31.281215
 30
0.0
 10
154.781250
 20
-67.812500
 30
0.0
  0
SPLINE
  5
104
100
AcDbEntity
  8
0
 62
7
100
AcDbSpline
 70
8
 71
3
 72
8
 73
4
 74
0
 40
0
 40
0
 40
0
 40
0
 40
1
 40
1
 40
1
 40
1
 10
154.781250
 20
-67.812500
 30
0.0
 10
154.781250
 20
-104.343785
 30
0.0
 10
184.395798
 20
-133.958333
 30
0.0
 10
220.927083
 20
-133.958333
 30
0.0
  0
LINE
  5
105
100
AcDbEntity
  8
0
 62
7
100
AcDbLine
 10
220.927083
 20
-133.958333
 30
0.0
 11
564.885417
 21
-133.958333
 31
0.0
  0
LINE
  5
106
100
AcDbEntity
  8
0
 62
7
100
AcDbLine
 10
379.677083
 20
-34.342708
 30
0.0
 11
379.677083
 21
-28.125000
 31
0.0
  0
SPLINE
  5
107
100
AcDbEntity
  8
0
 62
7
100
AcDbSpline
 70
8
 71
3
 72
8
 73
4
 74
0
 40
0
 40
0
 40
0
 40
0
 40
1
 40
1
 40
1
 40
1
 10
379.677083
 20
-28.125000
 30
0.0
 10
379.677083
 20
-20.818796
 30
0.0
 10
373.754174
 20
-14.895833
 30
0.0
 10
366.447917
 20
-14.895833
 30
0.0
  0
LINE
  5
108
100
AcDbEntity
  8
0
 62
7
100
AcDbLine
 10
366.447917
 20
-14.895833
 30
0.0
 11
313.531250
 21
-14.895833
 31
0.0
  0
SPLINE
  5
109
100
AcDbEntity
  8
0
 62
7
100
AcDbSpline
 70
8
 71
3
 72
8
 73
4
 74
0
 40
0
 40
0
 40
0
 40
0
 40
1
 40
1
 40
1
 40
1
 10
313.531250
 20
-14.895833
 30
0.0
 10
306.225046
 20
-14.895833
 30
0.0
 10
300.302083
 20
-20.818796
 30
0.0
 10
300.302083
 20
-28.125000
 30
0.0
  0
LINE
  5
10a
100
AcDbEntity
  8
0
 62
7
100
AcDbLine
 10
300.302083
 20
-28.125000
 30
0.0
 11
300.302083
 21
-34.342708
 31
0.0
  0
SPLINE
  5
10b
100
AcDbEntity
  8
0
 62
7
100
AcDbSpline
 70
8
 71
3
 72
8
 73
4
 74
0
 40
0
 40
0
 40
0
 40
0
 40
1
 40
1
 40
1
 40
1
 10
300.302083
 20
-34.342708
 30
0.0
 10
300.302083
 20
-41.648965
 30
0.0
 10
306.225046
 20
-47.571875
 30
0.0
 10
313.531250
 20
-47.571875
 30
0.0
  0
SPLINE
  5
10c
100
AcDbEntity
  8
0
 62
7
100
AcDbSpline
 70
8
 71
3
 72
8
 73
4
 74
0
 40
0
 40
0
 40
0
 40
0
 40
1
 40
1
 40
1
 40
1
 10
313.531250
 20
-47.571875
 30
0.0
 10
321.787308
 20
-47.571875
 30
0.0
 10
328.480208
 20
-54.264749
 30
0.0
 10
328.480208
 20
-62.520833
 30
0.0
  0
SPLINE
  5
10d
100
AcDbEntity
  8
0
 62
7
100
AcDbSpline
 70
8
 71
3
 72
8
 73
4
 74
0
 40
0
 40
0
 40
0
 40
0
 40
1
 40
1
 40
1
 40
1
 10
328.480208
 20
-62.520833
 30
0.0
 10
328.480208
 20
-70.776918
 30
0.0
 10
321.787308
 20
-77.469792
 30
0.0
 10
313.531250
 20
-77.469792
 30
0.0
  0
SPLINE
  5
10e
100
AcDbEntity
  8
0
 62
7
100
AcDbSpline
 70
8
 71
3
 72
8
 73
4
 74
0
 40
0
 40
0
 40
0
 40
0
 40
1
 40
1
 40
1
 40
1
 10
313.531250
 20
-77.469792
 30
0.0
 10
306.225046
 20
-77.469792
 30
0.0
 10
300.302083
 20
-83.392701
 30
0.0
 10
300.302083
 20
-90.698958
 30
0.0
  0
LINE
  5
10f
100
AcDbEntity
  8
0
 62
7
100
AcDbLine
 10
300.302083
 20
-90.698958
 30
0.0
 11
300.302083
 21
-107.500000
 31
0.0
  0
SPLINE
  5
110
100
AcDbEntity
  8
0
 62
7
100
AcDbSpline
 70
8
 71
3
 72
8
 73
4
 74
0
 40
0
 40
0
 40
0
 40
0
 40
1
 40
1
 40
1
 40
1
 10
300.302083
 20
-107.500000
 30
0.0
 10
300.302083
 20
-114.806204
 30
0.0
 10
306.225046
 20
-120.729167
 30
0.0
 10
313.531250
 20
-120.729167
 30
0.0
  0
LINE
  5
111
100
AcDbEntity
  8
0
 62
7
100
AcDbLine
 10
313.531250
 20
-120.729167
 30
0.0
 11
366.447917
 21
-120.729167
 31
0.0
  0
SPLINE
  5
112
100
AcDbEntity
  8
0
 62
7
100
AcDbSpline
 70
8
 71
3
 72
8
 73
4
 74
0
 40
0
 40
0
 40
0
 40
0
 40
1
 40
1
 40
1
 40
1
 10
366.447917
 20
-120.729167
 30
0.0
 10
373.754174
 20
-120.729167
 30
0.0
 10
379.677083
 20
-114.806204
 30
0.0
 10
379.677083
 20
-107.500000
 30
0.0
  0
LINE
  5
113
100
AcDbEntity
  8
0
 62
7
100
AcDbLine
 10
379.677083
 20
-107.500000
 30
0.0
 11
379.677083
 21
-90.698958
 31
0.0
  0
SPLINE
  5
114
100
AcDbEntity
  8
0
 62
7
100
AcDbSpline
 70
8
 71
3
 72
8
 73
4
 74
0
 40
0
 40
0
 40
0
 40
0
 40
1
 40
1
 40
1
 40
1
 10
379.677083
 20
-90.698958
 30
0.0
 10
379.677083
 20
-83.392701
 30
0.0
 10
373.754174
 20
-77.469792
 30
0.0
 10
366.447917
 20
-77.469792
 30
0.0
  0
SPLINE
  5
115
100
AcDbEntity
  8
0
 62
7
100
AcDbSpline
 70
8
 71
3
 72
8
 73
4
 74
0
 40
0
 40
0
 40
0
 40
0
 40
1
 40
1
 40
1
 40
1
 10
366.447917
 20
-77.469792
 30
0.0
 10
358.191858
 20
-77.469792
 30
0.0
 10
351.498958
 20
-70.776918
 30
0.0
 10
351.498958
 20
-62.520833
 30
0.0
  0
SPLINE
  5
116
100
AcDbEntity
  8
0
 62
7
100
AcDbSpline
 70
8
 71
3
 72
8
 73
4
 74
0
 40
0
 40
0
 40
0
 40
0
 40
1
 40
1
 40
1
 40
1
 10
351.498958
 20
-62.520833
 30
0.0
 10
351.498958
 20
-54.264749
 30
0.0
 10
358.191858
 20
-47.571875
 30
0.0
 10
366.447917
 20
-47.571875
 30
0.0
  0
SPLINE
  5
117
100
AcDbEntity
  8
0
 62
7
100
AcDbSpline
 70
8
 71
3
 72
8
 73
4
 74
0
 40
0
 40
0
 40
0
 40
0
 40
1
 40
1
 40
1
 40
1
 10
366.447917
 20
-47.571875
 30
0.0
 10
373.754174
 20
-47.571875
 30
0.0
 10
379.677083
 20
-41.648965
 30
0.0
 10
379.677083
 20
-34.342708
 30
0.0
  0
SPLINE
  5
118
100
AcDbEntity
  8
0
 62
7
100
AcDbSpline
 70
8
 71
3
 72
8
 73
4
 74
0
 40
0
 40
0
 40
0
 40
0
 40
1
 40
1
 40
1
 40
1
 10
472.281250
 20
-77.469792
 30
0.0
 10
479.587454
 20
-77.469792
 30
0.0
 10
485.510417
 20
-83.392701
 30
0.0
 10
485.510417
 20
-90.698958
 30
0.0
  0
LINE
  5
119
100
AcDbEntity
  8
0
 62
7
100
AcDbLine
 10
485.510417
 20
-90.698958
 30
0.0
 11
485.510417
 21
-107.500000
 31
0.0
  0
SPLINE
  5
11a
100
AcDbEntity
  8
0
 62
7
100
AcDbSpline
 70
8
 71
3
 72
8
 73
4
 74
0
 40
0
 40
0
 40
0
 40
0
 40
1
 40
1
 40
1
 40
1
 10
485.510417
 20
-107.500000
 30
0.0
 10
485.510417
 20
-114.806204
 30
0.0
 10
479.587454
 20
-120.729167
 30
0.0
 10
472.281250
 20
-120.729167
 30
0.0
  0
LINE
  5
11b
100
AcDbEntity
  8
0
 62
7
100
AcDbLine
 10
472.281250
 20
-120.729167
 30
0.0
 11
419.364583
 21
-120.729167
 31
0.0
  0
SPLINE
  5
11c
100
AcDbEntity
  8
0
 62
7
100
AcDbSpline
 70
8
 71
3
 72
8
 73
4
 74
0
 40
0
 40
0
 40
0
 40
0
 40
1
 40
1
 40
1
 40
1
 10
419.364583
 20
-120.729167
 30
0.0
 10
412.058326
 20
-120.729167
 30
0.0
 10
406.135417
 20
-114.806204
 30
0.0
 10
406.135417
 20
-107.500000
 30
0.0
  0
LINE
  5
11d
100
AcDbEntity
  8
0
 62
7
100
AcDbLine
 10
406.135417
 20
-107.500000
 30
0.0
 11
406.135417
 21
-90.698958
 31
0.0
  0
SPLINE
  5
11e
100
AcDbEntity
  8
0
 62
7
100
AcDbSpline
 70
8
 71
3
 72
8
 73
4
 74
0
 40
0
 40
0
 40
0
 40
0
 40
1
 40
1
 40
1
 40
1
 10
406.135417
 20
-90.698958
 30
0.0
 10
406.135417
 20
-83.392701
 30
0.0
 10
412.058326
 20
-77.469792
 30
0.0
 10
419.364583
 20
-77.469792
 30
0.0
  0
SPLINE
  5
11f
100
AcDbEntity
  8
0
 62
7
100
AcDbSpline
 70
8
 71
3
 72
8
 73
4
 74
0
 40
0
 40
0
 40
0
 40
0
 40
1
 40
1
 40
1
 40
1
 10
419.364583
 20
-77.469792
 30
0.0
 10
427.620642
 20
-77.469792
 30
0.0
 10
434.313542
 20
-70.776918
 30
0.0
 10
434.313542
 20
-62.520833
 30
0.0
  0
SPLINE
  5
120
100
AcDbEntity
  8
0
 62
7
100
AcDbSpline
 70
8
 71
3
 72
8
 73
4
 74
0
 40
0
 40
0
 40
0
 40
0
 40
1
 40
1
 40
1
 40
1
 10
434.313542
 20
-62.520833
 30
0.0
 10
434.313542
 20
-54.264749
 30
0.0
 10
427.620642
 20
-47.571875
 30
0.0
 10
419.364583
 20
-47.571875
 30
0.0
  0
SPLINE
  5
121
100
AcDbEntity
  8
0
 62
7
100
AcDbSpline
 70
8
 71
3
 72
8
 73
4
 74
0
 40
0
 40
0
 40
0
 40
0
 40
1
 40
1
 40
1
 40
1
 10
419.364583
 20
-47.571875
 30
0.0
 10
412.058326
 20
-47.571875
 30
0.0
 10
406.135417
 20
-41.648965
 30
0.0
 10
406.135417
 20
-34.342708
 30
0.0
  0
LINE
  5
122
100
AcDbEntity
  8
0
 62
7
100
AcDbLine
 10
406.135417
 20
-34.342708
 30
0.0
 11
406.135417
 21
-28.125000
 31
0.0
  0
SPLINE
  5
123
100
AcDbEntity
  8
0
 62
7
100
AcDbSpline
 70
8
 71
3
 72
8
 73
4
 74
0
 40
0
 40
0
 40
0
 40
0
 40
1
 40
1
 40
1
 40
1
 10
406.135417
 20
-28.125000
 30
0.0
 10
406.135417
 20
-20.818796
 30
0.0
 10
412.058326
 20
-14.895833
 30
0.0
 10
419.364583
 20
-14.895833
 30
0.0
  0
LINE
  5
124
100
AcDbEntity
  8
0
 62
7
100
AcDbLine
 10
419.364583
 20
-14.895833
 30
0.0
 11
472.281250
 21
-14.895833
 31
0.0
  0
SPLINE
  5
125
100
AcDbEntity
  8
0
 62
7
100
AcDbSpline
 70
8
 71
3
 72
8
 73
4
 74
0
 40
0
 40
0
 40
0
 40
0
 40
1
 40
1
 40
1
 40
1
 10
472.281250
 20
-14.895833
 30
0.0
 10
479.587454
 20
-14.895833
 30
0.0
 10
485.510417
 20
-20.818796
 30
0.0
 10
485.510417
 20
-28.125000
 30
0.0
  0
LINE
  5
126
100
AcDbEntity
  8
0
 62
7
100
AcDbLine
 10
485.510417
 20
-28.125000
 30
0.0
 11
485.510417
 21
-34.342708
 31
0.0
  0
SPLINE
  5
127
100
AcDbEntity
  8
0
 62
7
100
AcDbSpline
 70
8
 71
3
 72
8
 73
4
 74
0
 40
0
 40
0
 40
0
 40
0
 40
1
 40
1
 40
1
 40
1
 10
485.510417
 20
-34.342708
 30
0.0
 10
485.510417
 20
-41.648965
 30
0.0
 10
479.587454
 20
-47.571875
 30
0.0
 10
472.281250
 20
-47.571875
 30
0.0
  0
SPLINE
  5
128
100
AcDbEntity
  8
0
 62
7
100
AcDbSpline
 70
8
 71
3
 72
8
 73
4
 74
0
 40
0
 40
0
 40
0
 40
0
 40
1
 40
1
 40
1
 40
1
 10
472.281250
 20
-47.571875
 30
0.0
 10
464.025192
 20
-47.571875
 30
0.0
 10
457.332292
 20
-54.264749
 30
0.0
 10
457.332292
 20
-62.520833
 30
0.0
  0
SPLINE
  5
129
100
AcDbEntity
  8
0
 62
7
100
AcDbSpline
 70
8
 71
3
 72
8
 73
4
 74
0
 40
0
 40
0
 40
0
 40
0
 40
1
 40
1
 40
1
 40
1
 10
457.332292
 20
-62.520833
 30
0.0
 10
457.332292
 20
-70.776918
 30
0.0
 10
464.025192
 20
-77.469792
 30
0.0
 10
472.281250
 20
-77.469792
 30
0.0
  0
LINE
  5
12a
100
AcDbEntity
  8
0
 62
7
100
AcDbLine
 10
287.072917
 20
-107.500000
 30
0.0
 11
287.072917
 21
-77.656323
 31
0.0
  0
SPLINE
  5
12b
100
AcDbEntity
  8
0
 62
7
100
AcDbSpline
 70
8
 71
3
 72
8
 73
4
 74
0
 40
0
 40
0
 40
0
 40
0
 40
1
 40
1
 40
1
 40
1
 10
287.072917
 20
-77.656323
 30
0.0
 10
287.072917
 20
-74.078442
 30
0.0
 10
284.837717
 20
-70.881640
 30
0.0
 10
281.477244
 20
-69.653301
 30
0.0
  0
SPLINE
  5
12c
100
AcDbEntity
  8
0
 62
7
100
AcDbSpline
 70
8
 71
3
 72
8
 73
4
 74
0
 40
0
 40
0
 40
0
 40
0
 40
1
 40
1
 40
1
 40
1
 10
281.477244
 20
-69.653301
 30
0.0
 10
278.117035
 20
-68.424976
 30
0.0
 10
274.346988
 20
-69.426786
 30
0.0
 10
272.039821
 20
-72.161271
 30
0.0
  0
SPLINE
  5
12d
100
AcDbEntity
  8
0
 62
7
100
AcDbSpline
 70
8
 71
3
 72
8
 73
4
 74
0
 40
0
 40
0
 40
0
 40
0
 40
1
 40
1
 40
1
 40
1
 10
272.039821
 20
-72.161271
 30
0.0
 10
269.210102
 20
-75.514600
 30
0.0
 10
265.050323
 20
-77.455557
 30
0.0
 10
260.662737
 20
-77.469712
 30
0.0
  0
SPLINE
  5
12e
100
AcDbEntity
  8
0
 62
7
100
AcDbSpline
 70
8
 71
3
 72
8
 73
4
 74
0
 40
0
 40
0
 40
0
 40
0
 40
1
 40
1
 40
1
 40
1
 10
260.662737
 20
-77.469712
 30
0.0
 10
256.275152
 20
-77.483867
 30
0.0
 10
252.102937
 20
-75.569792
 30
0.0
 10
249.251787
 20
-72.234799
 30
0.0
  0
SPLINE
  5
12f
100
AcDbEntity
  8
0
 62
7
100
AcDbSpline
 70
8
 71
3
 72
8
 73
4
 74
0
 40
0
 40
0
 40
0
 40
0
 40
1
 40
1
 40
1
 40
1
 10
249.251787
 20
-72.234799
 30
0.0
 10
248.919206
 20
-71.845676
 30
0.0
 10
248.391892
 20
-71.683407
 30
0.0
 10
247.898179
 20
-71.818212
 30
0.0
  0
SPLINE
  5
130
100
AcDbEntity
  8
0
 62
7
100
AcDbSpline
 70
8
 71
3
 72
8
 73
4
 74
0
 40
0
 40
0
 40
0
 40
0
 40
1
 40
1
 40
1
 40
1
 10
247.898179
 20
-71.818212
 30
0.0
 10
247.404202
 20
-71.952991
 30
0.0
 10
247.032463
 20
-72.360635
 30
0.0
 10
246.943563
 20
-72.864798
 30
0.0
  0
SPLINE
  5
131
100
AcDbEntity
  8
0
 62
7
100
AcDbSpline
 70
8
 71
3
 72
8
 73
4
 74
0
 40
0
 40
0
 40
0
 40
0
 40
1
 40
1
 40
1
 40
1
 10
246.943563
 20
-72.864798
 30
0.0
 10
245.149952
 20
-83.040356
 30
0.0
 10
238.095631
 20
-91.502127
 30
0.0
 10
228.408971
 20
-95.097656
 30
0.0
  0
SPLINE
  5
132
100
AcDbEntity
  8
0
 62
7
100
AcDbSpline
 70
8
 71
3
 72
8
 73
4
 74
0
 40
0
 40
0
 40
0
 40
0
 40
1
 40
1
 40
1
 40
1
 10
228.408971
 20
-95.097656
 30
0.0
 10
222.405046
 20
-97.326242
 30
0.0
 10
218.859629
 20
-103.535219
 30
0.0
 10
219.991781
 20
-109.838652
 30
0.0
  0
SPLINE
  5
133
100
AcDbEntity
  8
0
 62
7
100
AcDbSpline
 70
8
 71
3
 72
8
 73
4
 74
0
 40
0
 40
0
 40
0
 40
0
 40
1
 40
1
 40
1
 40
1
 10
219.991781
 20
-109.838652
 30
0.0
 10
221.123933
 20
-116.141821
 30
0.0
 10
226.608481
 20
-120.729167
 30
0.0
 10
233.012721
 20
-120.729167
 30
0.0
  0
LINE
  5
134
100
AcDbEntity
  8
0
 62
7
100
AcDbLine
 10
233.012721
 20
-120.729167
 30
0.0
 11
273.843750
 21
-120.729167
 31
0.0
  0
SPLINE
  5
135
100
AcDbEntity
  8
0
 62
7
100
AcDbSpline
 70
8
 71
3
 72
8
 73
4
 74
0
 40
0
 40
0
 40
0
 40
0
 40
1
 40
1
 40
1
 40
1
 10
273.843750
 20
-120.729167
 30
0.0
 10
281.149954
 20
-120.729167
 30
0.0
 10
287.072917
 20
-114.806204
 30
0.0
 10
287.072917
 20
-107.500000
 30
0.0
  0
SPLINE
  5
136
100
AcDbEntity
  8
0
 62
7
100
AcDbSpline
 70
8
 71
3
 72
8
 73
4
 74
0
 40
0
 40
0
 40
0
 40
0
 40
1
 40
1
 40
1
 40
1
 10
557.403529
 20
-95.097656
 30
0.0
 10
563.407454
 20
-97.326242
 30
0.0
 10
566.952871
 20
-103.535219
 30
0.0
 10
565.820719
 20
-109.838652
 30
0.0
  0
SPLINE
  5
137
100
AcDbEntity
  8
0
 62
7
100
AcDbSpline
 70
8
 71
3
 72
8
 73
4
 74
0
 40
0
 40
0
 40
0
 40
0
 40
1
 40
1
 40
1
 40
1
 10
565.820719
 20
-109.838652
 30
0.0
 10
564.688567
 20
-116.141821
 30
0.0
 10
559.204019
 20
-120.729167
 30
0.0
 10
552.799779
 20
-120.729167
 30
0.0
  0
LINE
  5
138
100
AcDbEntity
  8
0
 62
7
100
AcDbLine
 10
552.799779
 20
-120.729167
 30
0.0
 11
511.968750
 21
-120.729167
 31
0.0
  0
SPLINE
  5
139
100
AcDbEntity
  8
0
 62
7
100
AcDbSpline
 70
8
 71
3
 72
8
 73
4
 74
0
 40
0
 40
0
 40
0
 40
0
 40
1
 40
1
 40
1
 40
1
 10
511.968750
 20
-120.729167
 30
0.0
 10
504.662546
 20
-120.729167
 30
0.0
 10
498.739583
 20
-114.806204
 30
0.0
 10
498.739583
 20
-107.500000
 30
0.0
  0
LINE
  5
13a
100
AcDbEntity
  8
0
 62
7
100
AcDbLine
 10
498.739583
 20
-107.500000
 30
0.0
 11
498.739583
 21
-107.500000
 31
0.0
  0
LINE
  5
13b
100
AcDbEntity
  8
0
 62
7
100
AcDbLine
 10
498.739583
 20
-107.500000
 30
0.0
 11
498.739583
 21
-77.656323
 31
0.0
  0
SPLINE
  5
13c
100
AcDbEntity
  8
0
 62
7
100
AcDbSpline
 70
8
 71
3
 72
8
 73
4
 74
0
 40
0
 40
0
 40
0
 40
0
 40
1
 40
1
 40
1
 40
1
 10
498.739583
 20
-77.656323
 30
0.0
 10
498.739583
 20
-74.078442
 30
0.0
 10
500.974783
 20
-70.881640
 30
0.0
 10
504.335256
 20
-69.653301
 30
0.0
  0
SPLINE
  5
13d
100
AcDbEntity
  8
0
 62
7
100
AcDbSpline
 70
8
 71
3
 72
8
 73
4
 74
0
 40
0
 40
0
 40
0
 40
0
 40
1
 40
1
 40
1
 40
1
 10
504.335256
 20
-69.653301
 30
0.0
 10
507.695465
 20
-68.424976
 30
0.0
 10
511.465512
 20
-69.426786
 30
0.0
 10
513.772679
 20
-72.161271
 30
0.0
  0
SPLINE
  5
13e
100
AcDbEntity
  8
0
 62
7
100
AcDbSpline
 70
8
 71
3
 72
8
 73
4
 74
0
 40
0
 40
0
 40
0
 40
0
 40
1
 40
1
 40
1
 40
1
 10
513.772679
 20
-72.161271
 30
0.0
 10
516.602398
 20
-75.514600
 30
0.0
 10
520.762177
 20
-77.455557
 30
0.0
 10
525.149762
 20
-77.469712
 30
0.0
  0
SPLINE
  5
13f
100
AcDbEntity
  8
0
 62
7
100
AcDbSpline
 70
8
 71
3
 72
8
 73
4
 74
0
 40
0
 40
0
 40
0
 40
0
 40
1
 40
1
 40
1
 40
1
 10
525.149762
 20
-77.469712
 30
0.0
 10
529.537348
 20
-77.483867
 30
0.0
 10
533.709562
 20
-75.569792
 30
0.0
 10
536.560713
 20
-72.234799
 30
0.0
  0
SPLINE
  5
140
100
AcDbEntity
  8
0
 62
7
100
AcDbSpline
 70
8
 71
3
 72
8
 73
4
 74
0
 40
0
 40
0
 40
0
 40
0
 40
1
 40
1
 40
1
 40
1
 10
536.560713
 20
-72.234799
 30
0.0
 10
536.893294
 20
-71.845676
 30
0.0
 10
537.420608
 20
-71.683407
 30
0.0
 10
537.914321
 20
-71.818212
 30
0.0
  0
SPLINE
  5
141
100
AcDbEntity
  8
0
 62
7
100
AcDbSpline
 70
8
 71
3
 72
8
 73
4
 74
0
 40
0
 40
0
 40
0
 40
0
 40
1
 40
1
 40
1
 40
1
 10
537.914321
 20
-71.818212
 30
0.0
 10
538.408298
 20
-71.952991
 30
0.0
 10
538.780037
 20
-72.360635
 30
0.0
 10
538.868938
 20
-72.864798
 30
0.0
  0
SPLINE
  5
142
100
AcDbEntity
  8
0
 62
7
100
AcDbSpline
 70
8
 71
3
 72
8
 73
4
 74
0
 40
0
 40
0
 40
0
 40
0
 40
1
 40
1
 40
1
 40
1
 10
538.868938
 20
-72.864798
 30
0.0
 10
540.662548
 20
-83.040356
 30
0.0
 10
547.716869
 20
-91.502127
 30
0.0
 10
557.403529
 20
-95.097656
 30
0.0
  0
SPLINE
  5
143
100
AcDbEntity
  8
0
 62
7
100
AcDbSpline
 70
8
 71
3
 72
8
 73
4
 74
0
 40
0
 40
0
 40
0
 40
0
 40
1
 40
1
 40
1
 40
1
 10
228.408971
 20
-40.527344
 30
0.0
 10
222.405046
 20
-38.298758
 30
0.0
 10
218.859629
 20
-32.089781
 30
0.0
 10
219.991781
 20
-25.786348
 30
0.0
  0
SPLINE
  5
144
100
AcDbEntity
  8
0
 62
7
100
AcDbSpline
 70
8
 71
3
 72
8
 73
4
 74
0
 40
0
 40
0
 40
0
 40
0
 40
1
 40
1
 40
1
 40
1
 10
219.991781
 20
-25.786348
 30
0.0
 10
221.123933
 20
-19.483179
 30
0.0
 10
226.608481
 20
-14.895833
 30
0.0
 10
233.012721
 20
-14.895833
 30
0.0
  0
LINE
  5
145
100
AcDbEntity
  8
0
 62
7
100
AcDbLine
 10
233.012721
 20
-14.895833
 30
0.0
 11
273.843750
 21
-14.895833
 31
0.0
  0
SPLINE
  5
146
100
AcDbEntity
  8
0
 62
7
100
AcDbSpline
 70
8
 71
3
 72
8
 73
4
 74
0
 40
0
 40
0
 40
0
 40
0
 40
1
 40
1
 40
1
 40
1
 10
273.843750
 20
-14.895833
 30
0.0
 10
281.149954
 20
-14.895833
 30
0.0
 10
287.072917
 20
-20.818796
 30
0.0
 10
287.072917
 20
-28.125000
 30
0.0
  0
LINE
  5
147
100
AcDbEntity
  8
0
 62
7
100
AcDbLine
 10
287.072917
 20
-28.125000
 30
0.0
 11
287.072917
 21
-47.385344
 31
0.0
  0
SPLINE
  5
148
100
AcDbEntity
  8
0
 62
7
100
AcDbSpline
 70
8
 71
3
 72
8
 73
4
 74
0
 40
0
 40
0
 40
0
 40
0
 40
1
 40
1
 40
1
 40
1
 10
287.072917
 20
-47.385344
 30
0.0
 10
287.072917
 20
-50.963225
 30
0.0
 10
284.837717
 20
-54.160053
 30
0.0
 10
281.477244
 20
-55.388355
 30
0.0
  0
SPLINE
  5
149
100
AcDbEntity
  8
0
 62
7
100
AcDbSpline
 70
8
 71
3
 72
8
 73
4
 74
0
 40
0
 40
0
 40
0
 40
0
 40
1
 40
1
 40
1
 40
1
 10
281.477244
 20
-55.388355
 30
0.0
 10
278.117035
 20
-56.616683
 30
0.0
 10
274.346988
 20
-55.614891
 30
0.0
 10
272.039821
 20
-52.880396
 30
0.0
  0
SPLINE
  5
14a
100
AcDbEntity
  8
0
 62
7
100
AcDbSpline
 70
8
 71
3
 72
8
 73
4
 74
0
 40
0
 40
0
 40
0
 40
0
 40
1
 40
1
 40
1
 40
1
 10
272.039821
 20
-52.880396
 30
0.0
 10
268.788092
 20
-49.026951
 30
0.0
 10
263.813396
 20
-47.072183
 30
0.0
 10
258.808273
 20
-47.681412
 30
0.0
  0
SPLINE
  5
14b
100
AcDbEntity
  8
0
 62
7
100
AcDbSpline
 70
8
 71
3
 72
8
 73
4
 74
0
 40
0
 40
0
 40
0
 40
0
 40
1
 40
1
 40
1
 40
1
 10
258.808273
 20
-47.681412
 30
0.0
 10
253.803150
 20
-48.290642
 30
0.0
 10
249.442552
 20
-51.381796
 30
0.0
 10
247.210527
 20
-55.902731
 30
0.0
  0
SPLINE
  5
14c
100
AcDbEntity
  8
0
 62
7
100
AcDbSpline
 70
8
 71
3
 72
8
 73
4
 74
0
 40
0
 40
0
 40
0
 40
0
 40
1
 40
1
 40
1
 40
1
 10
247.210527
 20
-55.902731
 30
0.0
 10
246.983779
 20
-56.361757
 30
0.0
 10
246.512556
 20
-56.648830
 30
0.0
 10
246.000852
 20
-56.639754
 30
0.0
  0
SPLINE
  5
14d
100
AcDbEntity
  8
0
 62
7
100
AcDbSpline
 70
8
 71
3
 72
8
 73
4
 74
0
 40
0
 40
0
 40
0
 40
0
 40
1
 40
1
 40
1
 40
1
 10
246.000852
 20
-56.639754
 30
0.0
 10
245.488883
 20
-56.630679
 30
0.0
 10
245.028244
 20
-56.327096
 30
0.0
 10
244.817900
 20
-55.860318
 30
0.0
  0
SPLINE
  5
14e
100
AcDbEntity
  8
0
 62
7
100
AcDbSpline
 70
8
 71
3
 72
8
 73
4
 74
0
 40
0
 40
0
 40
0
 40
0
 40
1
 40
1
 40
1
 40
1
 10
244.817900
 20
-55.860318
 30
0.0
 10
241.619881
 20
-48.759907
 30
0.0
 10
235.709883
 20
-43.237233
 30
0.0
 10
228.408971
 20
-40.527344
 30
0.0
  0
SPLINE
  5
14f
100
AcDbEntity
  8
0
 62
7
100
AcDbSpline
 70
8
 71
3
 72
8
 73
4
 74
0
 40
0
 40
0
 40
0
 40
0
 40
1
 40
1
 40
1
 40
1
 10
552.799779
 20
-14.895833
 30
0.0
 10
559.204019
 20
-14.895833
 30
0.0
 10
564.688567
 20
-19.483179
 30
0.0
 10
565.820719
 20
-25.786348
 30
0.0
  0
SPLINE
  5
150
100
AcDbEntity
  8
0
 62
7
100
AcDbSpline
 70
8
 71
3
 72
8
 73
4
 74
0
 40
0
 40
0
 40
0
 40
0
 40
1
 40
1
 40
1
 40
1
 10
565.820719
 20
-25.786348
 30
0.0
 10
566.952871
 20
-32.089781
 30
0.0
 10
563.407454
 20
-38.298758
 30
0.0
 10
557.403529
 20
-40.527344
 30
0.0
  0
SPLINE
  5
151
100
AcDbEntity
  8
0
 62
7
100
AcDbSpline
 70
8
 71
3
 72
8
 73
4
 74
0
 40
0
 40
0
 40
0
 40
0
 40
1
 40
1
 40
1
 40
1
 10
557.403529
 20
-40.527344
 30
0.0
 10
550.102617
 20
-43.237233
 30
0.0
 10
544.192619
 20
-48.759907
 30
0.0
 10
540.994600
 20
-55.860318
 30
0.0
  0
SPLINE
  5
152
100
AcDbEntity
  8
0
 62
7
100
AcDbSpline
 70
8
 71
3
 72
8
 73
4
 74
0
 40
0
 40
0
 40
0
 40
0
 40
1
 40
1
 40
1
 40
1
 10
540.994600
 20
-55.860318
 30
0.0
 10
540.784256
 20
-56.327096
 30
0.0
 10
540.323617
 20
-56.630679
 30
0.0
 10
539.811648
 20
-56.639754
 30
0.0
  0
SPLINE
  5
153
100
AcDbEntity
  8
0
 62
7
100
AcDbSpline
 70
8
 71
3
 72
8
 73
4
 74
0
 40
0
 40
0
 40
0
 40
0
 40
1
 40
1
 40
1
 40
1
 10
539.811648
 20
-56.639754
 30
0.0
 10
539.299944
 20
-56.648830
 30
0.0
 10
538.828721
 20
-56.361757
 30
0.0
 10
538.601973
 20
-55.902731
 30
0.0
  0
SPLINE
  5
154
100
AcDbEntity
  8
0
 62
7
100
AcDbSpline
 70
8
 71
3
 72
8
 73
4
 74
0
 40
0
 40
0
 40
0
 40
0
 40
1
 40
1
 40
1
 40
1
 10
538.601973
 20
-55.902731
 30
0.0
 10
536.369948
 20
-51.381796
 30
0.0
 10
532.009350
 20
-48.290642
 30
0.0
 10
527.004227
 20
-47.681412
 30
0.0
  0
SPLINE
  5
155
100
AcDbEntity
  8
0
 62
7
100
AcDbSpline
 70
8
 71
3
 72
8
 73
4
 74
0
 40
0
 40
0
 40
0
 40
0
 40
1
 40
1
 40
1
 40
1
 10
527.004227
 20
-47.681412
 30
0.0
 10
521.999104
 20
-47.072183
 30
0.0
 10
517.024408
 20
-49.026951
 30
0.0
 10
513.772679
 20
-52.880396
 30
0.0
  0
SPLINE
  5
156
100
AcDbEntity
  8
0
 62
7
100
AcDbSpline
 70
8
 71
3
 72
8
 73
4
 74
0
 40
0
 40
0
 40
0
 40
0
 40
1
 40
1
 40
1
 40
1
 10
513.772679
 20
-52.880396
 30
0.0
 10
511.465512
 20
-55.614891
 30
0.0
 10
507.695465
 20
-56.616683
 30
0.0
 10
504.335256
 20
-55.388355
 30
0.0
  0
SPLINE
  5
157
100
AcDbEntity
  8
0
 62
7
100
AcDbSpline
 70
8
 71
3
 72
8
 73
4
 74
0
 40
0
 40
0
 40
0
 40
0
 40
1
 40
1
 40
1
 40
1
 10
504.335256
 20
-55.388355
 30
0.0
 10
500.974783
 20
-54.160053
 30
0.0
 10
498.739583
 20
-50.963225
 30
0.0
 10
498.739583
 20
-47.385344
 30
0.0
  0
LINE
  5
158
100
AcDbEntity
  8
0
 62
7
100
AcDbLine
 10
498.739583
 20
-47.385344
 30
0.0
 11
498.739583
 21
-28.125000
 31
0.0
  0
SPLINE
  5
159
100
AcDbEntity
  8
0
 62
7
100
AcDbSpline
 70
8
 71
3
 72
8
 73
4
 74
0
 40
0
 40
0
 40
0
 40
0
 40
1
 40
1
 40
1
 40
1
 10
498.739583
 20
-28.125000
 30
0.0
 10
498.739583
 20
-20.818796
 30
0.0
 10
504.662546
 20
-14.895833
 30
0.0
 10
511.968750
 20
-14.895833
 30
0.0
  0
LINE
  5
15a
100
AcDbEntity
  8
0
 62
7
100
AcDbLine
 10
511.968750
 20
-14.895833
 30
0.0
 11
552.799779
 21
-14.895833
 31
0.0
  0
LINE
  5
15b
100
AcDbEntity
  8
0
 62
7
100
AcDbLine
 10
213.651042
 20
-111.236710
 30
0.0
 11
213.651042
 21
-119.638290
 31
0.0
  0
LINE
  5
15c
100
AcDbEntity
  8
0
 62
7
100
AcDbLine
 10
213.651042
 20
-119.638290
 30
0.0
 11
206.375000
 21
-123.839079
 31
0.0
  0
LINE
  5
15d
100
AcDbEntity
  8
0
 62
7
100
AcDbLine
 10
206.375000
 20
-123.839079
 30
0.0
 11
199.098958
 21
-119.638290
 31
0.0
  0
LINE
  5
15e
100
AcDbEntity
  8
0
 62
7
100
AcDbLine
 10
199.098958
 20
-119.638290
 30
0.0
 11
199.098958
 21
-111.236710
 31
0.0
  0
LINE
  5
15f
100
AcDbEntity
  8
0
 62
7
100
AcDbLine
 10
199.098958
 20
-111.236710
 30
0.0
 11
206.375000
 21
-107.035921
 31
0.0
  0
LINE
  5
160
100
AcDbEntity
  8
0
 62
7
100
AcDbLine
 10
206.375000
 20
-107.035921
 30
0.0
 11
213.651042
 21
-111.236710
 31
0.0
  0
LINE
  5
161
100
AcDbEntity
  8
0
 62
7
100
AcDbLine
 10
586.713542
 20
-119.638290
 30
0.0
 11
586.713542
 21
-111.236710
 31
0.0
  0
LINE
  5
162
100
AcDbEntity
  8
0
 62
7
100
AcDbLine
 10
586.713542
 20
-111.236710
 30
0.0
 11
579.437500
 21
-107.035921
 31
0.0
  0
LINE
  5
163
100
AcDbEntity
  8
0
 62
7
100
AcDbLine
 10
579.437500
 20
-107.035921
 30
0.0
 11
572.161458
 21
-111.236710
 31
0.0
  0
LINE
  5
164
100
AcDbEntity
  8
0
 62
7
100
AcDbLine
 10
572.161458
 20
-111.236710
 30
0.0
 11
572.161458
 21
-119.638290
 31
0.0
  0
LINE
  5
165
100
AcDbEntity
  8
0
 62
7
100
AcDbLine
 10
572.161458
 20
-119.638290
 30
0.0
 11
579.437500
 21
-123.839079
 31
0.0
  0
LINE
  5
166
100
AcDbEntity
  8
0
 62
7
100
AcDbLine
 10
579.437500
 20
-123.839079
 30
0.0
 11
586.713542
 21
-119.638290
 31
0.0
  0
LINE
  5
167
100
AcDbEntity
  8
0
 62
7
100
AcDbLine
 10
213.651042
 20
-15.986710
 30
0.0
 11
213.651042
 21
-24.388290
 31
0.0
  0
LINE
  5
168
100
AcDbEntity
  8
0
 62
7
100
AcDbLine
 10
213.651042
 20
-24.388290
 30
0.0
 11
206.375000
 21
-28.589079
 31
0.0
  0
LINE
  5
169
100
AcDbEntity
  8
0
 62
7
100
AcDbLine
 10
206.375000
 20
-28.589079
 30
0.0
 11
199.098958
 21
-24.388290
 31
0.0
  0
LINE
  5
16a
100
AcDbEntity
  8
0
 62
7
100
AcDbLine
 10
199.098958
 20
-24.388290
 30
0.0
 11
199.098958
 21
-15.986710
 31
0.0
  0
LINE
  5
16b
100
AcDbEntity
  8
0
 62
7
100
AcDbLine
 10
199.098958
 20
-15.986710
 30
0.0
 11
206.375000
 21
-11.785921
 31
0.0
  0
LINE
  5
16c
100
AcDbEntity
  8
0
 62
7
100
AcDbLine
 10
206.375000
 20
-11.785921
 30
0.0
 11
213.651042
 21
-15.986710
 31
0.0
  0
LINE
  5
16d
100
AcDbEntity
  8
0
 62
7
100
AcDbLine
 10
586.713542
 20
-24.388290
 30
0.0
 11
586.713542
 21
-15.986710
 31
0.0
  0
LINE
  5
16e
100
AcDbEntity
  8
0
 62
7
100
AcDbLine
 10
586.713542
 20
-15.986710
 30
0.0
 11
579.437500
 21
-11.785921
 31
0.0
  0
LINE
  5
16f
100
AcDbEntity
  8
0
 62
7
100
AcDbLine
 10
579.437500
 20
-11.785921
 30
0.0
 11
572.161458
 21
-15.986710
 31
0.0
  0
LINE
  5
170
100
AcDbEntity
  8
0
 62
7
100
AcDbLine
 10
572.161458
 20
-15.986710
 30
0.0
 11
572.161458
 21
-24.388290
 31
0.0
  0
LINE
  5
171
100
AcDbEntity
  8
0
 62
7
100
AcDbLine
 10
572.161458
 20
-24.388290
 30
0.0
 11
579.437500
 21
-28.589079
 31
0.0
  0
LINE
  5
172
100
AcDbEntity
  8
0
 62
7
100
AcDbLine
 10
579.437500
 20
-28.589079
 30
0.0
 11
586.713542
 21
-24.388290
 31
0.0
  0
SPLINE
  5
173
100
AcDbEntity
  8
0
 62
7
100
AcDbSpline
 70
8
 71
3
 72
8
 73
4
 74
0
 40
0
 40
0
 40
0
 40
0
 40
1
 40
1
 40
1
 40
1
 10
264.980208
 20
-62.520833
 30
0.0
 10
264.980208
 20
-64.931902
 30
0.0
 10
263.025731
 20
-66.886458
 30
0.0
 10
260.614583
 20
-66.886458
 30
0.0
  0
SPLINE
  5
174
100
AcDbEntity
  8
0
 62
7
100
AcDbSpline
 70
8
 71
3
 72
8
 73
4
 74
0
 40
0
 40
0
 40
0
 40
0
 40
1
 40
1
 40
1
 40
1
 10
260.614583
 20
-66.886458
 30
0.0
 10
258.203435
 20
-66.886458
 30
0.0
 10
256.248958
 20
-64.931902
 30
0.0
 10
256.248958
 20
-62.520833
 30
0.0
  0
SPLINE
  5
175
100
AcDbEntity
  8
0
 62
7
100
AcDbSpline
 70
8
 71
3
 72
8
 73
4
 74
0
 40
0
 40
0
 40
0
 40
0
 40
1
 40
1
 40
1
 40
1
 10
256.248958
 20
-62.520833
 30
0.0
 10
256.248958
 20
-60.109765
 30
0.0
 10
258.203435
 20
-58.155208
 30
0.0
 10
260.614583
 20
-58.155208
 30
0.0
  0
SPLINE
  5
176
100
AcDbEntity
  8
0
 62
7
100
AcDbSpline
 70
8
 71
3
 72
8
 73
4
 74
0
 40
0
 40
0
 40
0
 40
0
 40
1
 40
1
 40
1
 40
1
 10
260.614583
 20
-58.155208
 30
0.0
 10
263.025731
 20
-58.155208
 30
0.0
 10
264.980208
 20
-60.109765
 30
0.0
 10
264.980208
 20
-62.520833
 30
0.0
  0
SPLINE
  5
177
100
AcDbEntity
  8
0
 62
7
100
AcDbSpline
 70
8
 71
3
 72
8
 73
4
 74
0
 40
0
 40
0
 40
0
 40
0
 40
1
 40
1
 40
1
 40
1
 10
212.063542
 20
-62.520833
 30
0.0
 10
212.063542
 20
-64.931902
 30
0.0
 10
210.109065
 20
-66.886458
 30
0.0
 10
207.697917
 20
-66.886458
 30
0.0
  0
SPLINE
  5
178
100
AcDbEntity
  8
0
 62
7
100
AcDbSpline
 70
8
 71
3
 72
8
 73
4
 74
0
 40
0
 40
0
 40
0
 40
0
 40
1
 40
1
 40
1
 40
1
 10
207.697917
 20
-66.886458
 30
0.0
 10
205.286769
 20
-66.886458
 30
0.0
 10
203.332292
 20
-64.931902
 30
0.0
 10
203.332292
 20
-62.520833
 30
0.0
  0
SPLINE
  5
179
100
AcDbEntity
  8
0
 62
7
100
AcDbSpline
 70
8
 71
3
 72
8
 73
4
 74
0
 40
0
 40
0
 40
0
 40
0
 40
1
 40
1
 40
1
 40
1
 10
203.332292
 20
-62.520833
 30
0.0
 10
203.332292
 20
-60.109765
 30
0.0
 10
205.286769
 20
-58.155208
 30
0.0
 10
207.697917
 20
-58.155208
 30
0.0
  0
SPLINE
  5
17a
100
AcDbEntity
  8
0
 62
7
100
AcDbSpline
 70
8
 71
3
 72
8
 73
4
 74
0
 40
0
 40
0
 40
0
 40
0
 40
1
 40
1
 40
1
 40
1
 10
207.697917
 20
-58.155208
 30
0.0
 10
210.109065
 20
-58.155208
 30
0.0
 10
212.063542
 20
-60.109765
 30
0.0
 10
212.063542
 20
-62.520833
 30
0.0
  0
SPLINE
  5
17b
100
AcDbEntity
  8
0
 62
7
100
AcDbSpline
 70
8
 71
3
 72
8
 73
4
 74
0
 40
0
 40
0
 40
0
 40
0
 40
1
 40
1
 40
1
 40
1
 10
175.021875
 20
-67.812500
 30
0.0
 10
175.021875
 20
-70.223569
 30
0.0
 10
173.067398
 20
-72.178125
 30
0.0
 10
170.656250
 20
-72.178125
 30
0.0
  0
SPLINE
  5
17c
100
AcDbEntity
  8
0
 62
7
100
AcDbSpline
 70
8
 71
3
 72
8
 73
4
 74
0
 40
0
 40
0
 40
0
 40
0
 40
1
 40
1
 40
1
 40
1
 10
170.656250
 20
-72.178125
 30
0.0
 10
168.245102
 20
-72.178125
 30
0.0
 10
166.290625
 20
-70.223569
 30
0.0
 10
166.290625
 20
-67.812500
 30
0.0
  0
SPLINE
  5
17d
100
AcDbEntity
  8
0
 62
7
100
AcDbSpline
 70
8
 71
3
 72
8
 73
4
 74
0
 40
0
 40
0
 40
0
 40
0
 40
1
 40
1
 40
1
 40
1
 10
166.290625
 20
-67.812500
 30
0.0
 10
166.290625
 20
-65.401431
 30
0.0
 10
168.245102
 20
-63.446875
 30
0.0
 10
170.656250
 20
-63.446875
 30
0.0
  0
SPLINE
  5
17e
100
AcDbEntity
  8
0
 62
7
100
AcDbSpline
 70
8
 71
3
 72
8
 73
4
 74
0
 40
0
 40
0
 40
0
 40
0
 40
1
 40
1
 40
1
 40
1
 10
170.656250
 20
-63.446875
 30
0.0
 10
173.067398
 20
-63.446875
 30
0.0
 10
175.021875
 20
-65.401431
 30
0.0
 10
175.021875
 20
-67.812500
 30
0.0
  0
SPLINE
  5
17f
100
AcDbEntity
  8
0
 62
7
100
AcDbSpline
 70
8
 71
3
 72
8
 73
4
 74
0
 40
0
 40
0
 40
0
 40
0
 40
1
 40
1
 40
1
 40
1
 10
582.480208
 20
-62.520833
 30
0.0
 10
582.480208
 20
-64.931902
 30
0.0
 10
580.525731
 20
-66.886458
 30
0.0
 10
578.114583
 20
-66.886458
 30
0.0
  0
SPLINE
  5
180
100
AcDbEntity
  8
0
 62
7
100
AcDbSpline
 70
8
 71
3
 72
8
 73
4
 74
0
 40
0
 40
0
 40
0
 40
0
 40
1
 40
1
 40
1
 40
1
 10
578.114583
 20
-66.886458
 30
0.0
 10
575.703435
 20
-66.886458
 30
0.0
 10
573.748958
 20
-64.931902
 30
0.0
 10
573.748958
 20
-62.520833
 30
0.0
  0
SPLINE
  5
181
100
AcDbEntity
  8
0
 62
7
100
AcDbSpline
 70
8
 71
3
 72
8
 73
4
 74
0
 40
0
 40
0
 40
0
 40
0
 40
1
 40
1
 40
1
 40
1
 10
573.748958
 20
-62.520833
 30
0.0
 10
573.748958
 20
-60.109765
 30
0.0
 10
575.703435
 20
-58.155208
 30
0.0
 10
578.114583
 20
-58.155208
 30
0.0
  0
SPLINE
  5
182
100
AcDbEntity
  8
0
 62
7
100
AcDbSpline
 70
8
 71
3
 72
8
 73
4
 74
0
 40
0
 40
0
 40
0
 40
0
 40
1
 40
1
 40
1
 40
1
 10
578.114583
 20
-58.155208
 30
0.0
 10
580.525731
 20
-58.155208
 30
0.0
 10
582.480208
 20
-60.109765
 30
0.0
 10
582.480208
 20
-62.520833
 30
0.0
  0
SPLINE
  5
183
100
AcDbEntity
  8
0
 62
7
100
AcDbSpline
 70
8
 71
3
 72
8
 73
4
 74
0
 40
0
 40
0
 40
0
 40
0
 40
1
 40
1
 40
1
 40
1
 10
370.813542
 20
-62.520833
 30
0.0
 10
370.813542
 20
-64.931902
 30
0.0
 10
368.858985
 20
-66.886458
 30
0.0
 10
366.447917
 20
-66.886458
 30
0.0
  0
SPLINE
  5
184
100
AcDbEntity
  8
0
 62
7
100
AcDbSpline
 70
8
 71
3
 72
8
 73
4
 74
0
 40
0
 40
0
 40
0
 40
0
 40
1
 40
1
 40
1
 40
1
 10
366.447917
 20
-66.886458
 30
0.0
 10
364.036769
 20
-66.886458
 30
0.0
 10
362.082292
 20
-64.931902
 30
0.0
 10
362.082292
 20
-62.520833
 30
0.0
  0
SPLINE
  5
185
100
AcDbEntity
  8
0
 62
7
100
AcDbSpline
 70
8
 71
3
 72
8
 73
4
 74
0
 40
0
 40
0
 40
0
 40
0
 40
1
 40
1
 40
1
 40
1
 10
362.082292
 20
-62.520833
 30
0.0
 10
362.082292
 20
-60.109765
 30
0.0
 10
364.036769
 20
-58.155208
 30
0.0
 10
366.447917
 20
-58.155208
 30
0.0
  0
SPLINE
  5
186
100
AcDbEntity
  8
0
 62
7
100
AcDbSpline
 70
8
 71
3
 72
8
 73
4
 74
0
 40
0
 40
0
 40
0
 40
0
 40
1
 40
1
 40
1
 40
1
 10
366.447917
 20
-58.155208
 30
0.0
 10
368.858985
 20
-58.155208
 30
0.0
 10
370.813542
 20
-60.109765
 30
0.0
 10
370.813542
 20
-62.520833
 30
0.0
  0
SPLINE
  5
187
100
AcDbEntity
  8
0
 62
7
100
AcDbSpline
 70
8
 71
3
 72
8
 73
4
 74
0
 40
0
 40
0
 40
0
 40
0
 40
1
 40
1
 40
1
 40
1
 10
423.730208
 20
-62.520833
 30
0.0
 10
423.730208
 20
-64.931902
 30
0.0
 10
421.775731
 20
-66.886458
 30
0.0
 10
419.364583
 20
-66.886458
 30
0.0
  0
SPLINE
  5
188
100
AcDbEntity
  8
0
 62
7
100
AcDbSpline
 70
8
 71
3
 72
8
 73
4
 74
0
 40
0
 40
0
 40
0
 40
0
 40
1
 40
1
 40
1
 40
1
 10
419.364583
 20
-66.886458
 30
0.0
 10
416.953515
 20
-66.886458
 30
0.0
 10
414.998958
 20
-64.931902
 30
0.0
 10
414.998958
 20
-62.520833
 30
0.0
  0
SPLINE
  5
189
100
AcDbEntity
  8
0
 62
7
100
AcDbSpline
 70
8
 71
3
 72
8
 73
4
 74
0
 40
0
 40
0
 40
0
 40
0
 40
1
 40
1
 40
1
 40
1
 10
414.998958
 20
-62.520833
 30
0.0
 10
414.998958
 20
-60.109765
 30
0.0
 10
416.953515
 20
-58.155208
 30
0.0
 10
419.364583
 20
-58.155208
 30
0.0
  0
SPLINE
  5
18a
100
AcDbEntity
  8
0
 62
7
100
AcDbSpline
 70
8
 71
3
 72
8
 73
4
 74
0
 40
0
 40
0
 40
0
 40
0
 40
1
 40
1
 40
1
 40
1
 10
419.364583
 20
-58.155208
 30
0.0
 10
421.775731
 20
-58.155208
 30
0.0
 10
423.730208
 20
-60.109765
 30
0.0
 10
423.730208
 20
-62.520833
 30
0.0
  0
SPLINE
  5
18b
100
AcDbEntity
  8
0
 62
7
100
AcDbSpline
 70
8
 71
3
 72
8
 73
4
 74
0
 40
0
 40
0
 40
0
 40
0
 40
1
 40
1
 40
1
 40
1
 10
476.646875
 20
-62.520833
 30
0.0
 10
476.646875
 20
-64.931902
 30
0.0
 10
474.692398
 20
-66.886458
 30
0.0
 10
472.281250
 20
-66.886458
 30
0.0
  0
SPLINE
  5
18c
100
AcDbEntity
  8
0
 62
7
100
AcDbSpline
 70
8
 71
3
 72
8
 73
4
 74
0
 40
0
 40
0
 40
0
 40
0
 40
1
 40
1
 40
1
 40
1
 10
472.281250
 20
-66.886458
 30
0.0
 10
469.870102
 20
-66.886458
 30
0.0
 10
467.915625
 20
-64.931902
 30
0.0
 10
467.915625
 20
-62.520833
 30
0.0
  0
SPLINE
  5
18d
100
AcDbEntity
  8
0
 62
7
100
AcDbSpline
 70
8
 71
3
 72
8
 73
4
 74
0
 40
0
 40
0
 40
0
 40
0
 40
1
 40
1
 40
1
 40
1
 10
467.915625
 20
-62.520833
 30
0.0
 10
467.915625
 20
-60.109765
 30
0.0
 10
469.870102
 20
-58.155208
 30
0.0
 10
472.281250
 20
-58.155208
 30
0.0
  0
SPLINE
  5
18e
100
AcDbEntity
  8
0
 62
7
100
AcDbSpline
 70
8
 71
3
 72
8
 73
4
 74
0
 40
0
 40
0
 40
0
 40
0
 40
1
 40
1
 40
1
 40
1
 10
472.281250
 20
-58.155208
 30
0.0
 10
474.692398
 20
-58.155208
 30
0.0
 10
476.646875
 20
-60.109765
 30
0.0
 10
476.646875
 20
-62.520833
 30
0.0
  0
SPLINE
  5
18f
100
AcDbEntity
  8
0
 62
7
100
AcDbSpline
 70
8
 71
3
 72
8
 73
4
 74
0
 40
0
 40
0
 40
0
 40
0
 40
1
 40
1
 40
1
 40
1
 10
317.896875
 20
-62.520833
 30
0.0
 10
317.896875
 20
-64.931902
 30
0.0
 10
315.942398
 20
-66.886458
 30
0.0
 10
313.531250
 20
-66.886458
 30
0.0
  0
SPLINE
  5
190
100
AcDbEntity
  8
0
 62
7
100
AcDbSpline
 70
8
 71
3
 72
8
 73
4
 74
0
 40
0
 40
0
 40
0
 40
0
 40
1
 40
1
 40
1
 40
1
 10
313.531250
 20
-66.886458
 30
0.0
 10
311.120102
 20
-66.886458
 30
0.0
 10
309.165625
 20
-64.931902
 30
0.0
 10
309.165625
 20
-62.520833
 30
0.0
  0
SPLINE
  5
191
100
AcDbEntity
  8
0
 62
7
100
AcDbSpline
 70
8
 71
3
 72
8
 73
4
 74
0
 40
0
 40
0
 40
0
 40
0
 40
1
 40
1
 40
1
 40
1
 10
309.165625
 20
-62.520833
 30
0.0
 10
309.165625
 20
-60.109765
 30
0.0
 10
311.120102
 20
-58.155208
 30
0.0
 10
313.531250
 20
-58.155208
 30
0.0
  0
SPLINE
  5
192
100
AcDbEntity
  8
0
 62
7
100
AcDbSpline
 70
8
 71
3
 72
8
 73
4
 74
0
 40
0
 40
0
 40
0
 40
0
 40
1
 40
1
 40
1
 40
1
 10
313.531250
 20
-58.155208
 30
0.0
 10
315.942398
 20
-58.155208
 30
0.0
 10
317.896875
 20
-60.109765
 30
0.0
 10
317.896875
 20
-62.520833
 30
0.0
  0
SPLINE
  5
193
100
AcDbEntity
  8
0
 62
7
100
AcDbSpline
 70
8
 71
3
 72
8
 73
4
 74
0
 40
0
 40
0
 40
0
 40
0
 40
1
 40
1
 40
1
 40
1
 10
529.563542
 20
-62.520833
 30
0.0
 10
529.563542
 20
-64.931902
 30
0.0
 10
527.609065
 20
-66.886458
 30
0.0
 10
525.197917
 20
-66.886458
 30
0.0
  0
SPLINE
  5
194
100
AcDbEntity
  8
0
 62
7
100
AcDbSpline
 70
8
 71
3
 72
8
 73
4
 74
0
 40
0
 40
0
 40
0
 40
0
 40
1
 40
1
 40
1
 40
1
 10
525.197917
 20
-66.886458
 30
0.0
 10
522.786769
 20
-66.886458
 30
0.0
 10
520.832292
 20
-64.931902
 30
0.0
 10
520.832292
 20
-62.520833
 30
0.0
  0
SPLINE
  5
195
100
AcDbEntity
  8
0
 62
7
100
AcDbSpline
 70
8
 71
3
 72
8
 73
4
 74
0
 40
0
 40
0
 40
0
 40
0
 40
1
 40
1
 40
1
 40
1
 10
520.832292
 20
-62.520833
 30
0.0
 10
520.832292
 20
-60.109765
 30
0.0
 10
522.786769
 20
-58.155208
 30
0.0
 10
525.197917
 20
-58.155208
 30
0.0
  0
SPLINE
  5
196
100
AcDbEntity
  8
0
 62
7
100
AcDbSpline
 70
8
 71
3
 72
8
 73
4
 74
0
 40
0
 40
0
 40
0
 40
0
 40
1
 40
1
 40
1
 40
1
 10
525.197917
 20
-58.155208
 30
0.0
 10
527.609065
 20
-58.155208
 30
0.0
 10
529.563542
 20
-60.109765
 30
0.0
 10
529.563542
 20
-62.520833
 30
0.0
  0
SPLINE
  5
197
100
AcDbEntity
  8
0
 62
7
100
AcDbSpline
 70
8
 71
3
 72
8
 73
4
 74
0
 40
0
 40
0
 40
0
 40
0
 40
1
 40
1
 40
1
 40
1
 10
619.521875
 20
-67.812500
 30
0.0
 10
619.521875
 20
-70.223569
 30
0.0
 10
617.567398
 20
-72.178125
 30
0.0
 10
615.156250
 20
-72.178125
 30
0.0
  0
SPLINE
  5
198
100
AcDbEntity
  8
0
 62
7
100
AcDbSpline
 70
8
 71
3
 72
8
 73
4
 74
0
 40
0
 40
0
 40
0
 40
0
 40
1
 40
1
 40
1
 40
1
 10
615.156250
 20
-72.178125
 30
0.0
 10
612.745102
 20
-72.178125
 30
0.0
 10
610.790625
 20
-70.223569
 30
0.0
 10
610.790625
 20
-67.812500
 30
0.0
  0
SPLINE
  5
199
100
AcDbEntity
  8
0
 62
7
100
AcDbSpline
 70
8
 71
3
 72
8
 73
4
 74
0
 40
0
 40
0
 40
0
 40
0
 40
1
 40
1
 40
1
 40
1
 10
610.790625
 20
-67.812500
 30
0.0
 10
610.790625
 20
-65.401431
 30
0.0
 10
612.745102
 20
-63.446875
 30
0.0
 10
615.156250
 20
-63.446875
 30
0.0
  0
SPLINE
  5
19a
100
AcDbEntity
  8
0
 62
7
100
AcDbSpline
 70
8
 71
3
 72
8
 73
4
 74
0
 40
0
 40
0
 40
0
 40
0
 40
1
 40
1
 40
1
 40
1
 10
615.156250
 20
-63.446875
 30
0.0
 10
617.567398
 20
-63.446875
 30
0.0
 10
619.521875
 20
-65.401431
 30
0.0
 10
619.521875
 20
-67.812500
 30
0.0
  0
ENDSEC
  0
SECTION
  2
OBJECTS
  0
DICTIONARY
  5
C
330
0
100
AcDbDictionary
  3
ACAD_GROUP
350
D
  3
ACAD_MLINESTYLE
350
17
  0
DICTIONARY
  5
D
330
C
100
AcDbDictionary
  0
DICTIONARY
  5
1A
330
C
100
AcDbDictionary
  0
DICTIONARY
  5
17
330
C
100
AcDbDictionary
  3
STANDARD
350
18
  0
DICTIONARY
  5
19
330
C
100
AcDbDictionary
  0
ENDSEC
  0
EOF
